G04 #@! TF.GenerationSoftware,KiCad,Pcbnew,7.0.1-0*
G04 #@! TF.CreationDate,2023-05-11T23:21:43+02:00*
G04 #@! TF.ProjectId,nfc_card_emulation_large,6e66635f-6361-4726-945f-656d756c6174,1.0*
G04 #@! TF.SameCoordinates,PX354a940PY3072580*
G04 #@! TF.FileFunction,Copper,L1,Top*
G04 #@! TF.FilePolarity,Positive*
%FSLAX46Y46*%
G04 Gerber Fmt 4.6, Leading zero omitted, Abs format (unit mm)*
G04 Created by KiCad (PCBNEW 7.0.1-0) date 2023-05-11 23:21:43*
%MOMM*%
%LPD*%
G01*
G04 APERTURE LIST*
G04 Aperture macros list*
%AMRoundRect*
0 Rectangle with rounded corners*
0 $1 Rounding radius*
0 $2 $3 $4 $5 $6 $7 $8 $9 X,Y pos of 4 corners*
0 Add a 4 corners polygon primitive as box body*
4,1,4,$2,$3,$4,$5,$6,$7,$8,$9,$2,$3,0*
0 Add four circle primitives for the rounded corners*
1,1,$1+$1,$2,$3*
1,1,$1+$1,$4,$5*
1,1,$1+$1,$6,$7*
1,1,$1+$1,$8,$9*
0 Add four rect primitives between the rounded corners*
20,1,$1+$1,$2,$3,$4,$5,0*
20,1,$1+$1,$4,$5,$6,$7,0*
20,1,$1+$1,$6,$7,$8,$9,0*
20,1,$1+$1,$8,$9,$2,$3,0*%
G04 Aperture macros list end*
G04 #@! TA.AperFunction,SMDPad,CuDef*
%ADD10C,1.000000*%
G04 #@! TD*
G04 #@! TA.AperFunction,SMDPad,CuDef*
%ADD11RoundRect,0.150000X0.625000X-0.150000X0.625000X0.150000X-0.625000X0.150000X-0.625000X-0.150000X0*%
G04 #@! TD*
G04 #@! TA.AperFunction,SMDPad,CuDef*
%ADD12RoundRect,0.250000X0.650000X-0.350000X0.650000X0.350000X-0.650000X0.350000X-0.650000X-0.350000X0*%
G04 #@! TD*
G04 #@! TA.AperFunction,SMDPad,CuDef*
%ADD13RoundRect,0.225000X0.225000X0.250000X-0.225000X0.250000X-0.225000X-0.250000X0.225000X-0.250000X0*%
G04 #@! TD*
G04 #@! TA.AperFunction,SMDPad,CuDef*
%ADD14R,1.100000X0.400000*%
G04 #@! TD*
G04 #@! TA.AperFunction,ViaPad*
%ADD15C,0.500000*%
G04 #@! TD*
G04 #@! TA.AperFunction,Conductor*
%ADD16C,0.200000*%
G04 #@! TD*
G04 #@! TA.AperFunction,Conductor*
%ADD17C,0.400000*%
G04 #@! TD*
G04 #@! TA.AperFunction,Conductor*
%ADD18C,0.150000*%
G04 #@! TD*
G04 APERTURE END LIST*
D10*
G04 #@! TO.P,FD,1,1*
G04 #@! TO.N,/NTAG NFC/FD*
X33087500Y-22700000D03*
G04 #@! TD*
D11*
G04 #@! TO.P,J1,1,Pin_1*
G04 #@! TO.N,GND*
X48587500Y-20500000D03*
G04 #@! TO.P,J1,2,Pin_2*
G04 #@! TO.N,VCC*
X48587500Y-19500000D03*
G04 #@! TO.P,J1,3,Pin_3*
G04 #@! TO.N,/SDA*
X48587500Y-18500000D03*
G04 #@! TO.P,J1,4,Pin_4*
G04 #@! TO.N,/SCL*
X48587500Y-17500000D03*
D12*
G04 #@! TO.P,J1,MP*
G04 #@! TO.N,N/C*
X52462500Y-21800000D03*
X52462500Y-16200000D03*
G04 #@! TD*
D10*
G04 #@! TO.P,VOUT,1,1*
G04 #@! TO.N,/NTAG NFC/VOUT*
X20687500Y-22700000D03*
G04 #@! TD*
D13*
G04 #@! TO.P,C1,1*
G04 #@! TO.N,VCC*
X27962500Y-18450000D03*
G04 #@! TO.P,C1,2*
G04 #@! TO.N,GND*
X26412500Y-18450000D03*
G04 #@! TD*
D14*
G04 #@! TO.P,U2,1,LA*
G04 #@! TO.N,/NTAG NFC/COIL*
X29137500Y-23675000D03*
G04 #@! TO.P,U2,2,VSS*
G04 #@! TO.N,GND*
X29137500Y-23025000D03*
G04 #@! TO.P,U2,3,SCL*
G04 #@! TO.N,/SCL*
X29137500Y-22375000D03*
G04 #@! TO.P,U2,4,FD*
G04 #@! TO.N,/NTAG NFC/FD*
X29137500Y-21725000D03*
G04 #@! TO.P,U2,5,SDA*
G04 #@! TO.N,/SDA*
X24837500Y-21725000D03*
G04 #@! TO.P,U2,6,VCC*
G04 #@! TO.N,VCC*
X24837500Y-22375000D03*
G04 #@! TO.P,U2,7,Vout*
G04 #@! TO.N,/NTAG NFC/VOUT*
X24837500Y-23025000D03*
G04 #@! TO.P,U2,8,LB*
G04 #@! TO.N,/NTAG NFC/COIL*
X24837500Y-23675000D03*
G04 #@! TD*
D15*
G04 #@! TO.N,/NTAG NFC/COIL*
X25487500Y-28600000D03*
X25487500Y-33700000D03*
G04 #@! TD*
D16*
G04 #@! TO.N,VCC*
X49521913Y-16475499D02*
X47603087Y-16475499D01*
X49687500Y-19500000D02*
X50112001Y-19075499D01*
X27962500Y-18450000D02*
X27962500Y-20175000D01*
X24237500Y-20950000D02*
X23887500Y-21300000D01*
X31987500Y-16800000D02*
X30337500Y-18450000D01*
X27187500Y-20950000D02*
X24237500Y-20950000D01*
X50112001Y-17065587D02*
X49521913Y-16475499D01*
X27962500Y-20175000D02*
X27187500Y-20950000D01*
X48587500Y-19500000D02*
X49687500Y-19500000D01*
X23887500Y-21300000D02*
X23887500Y-22175000D01*
X50112001Y-19075499D02*
X50112001Y-17065587D01*
X23887500Y-22175000D02*
X24087500Y-22375000D01*
X24087500Y-22375000D02*
X24837500Y-22375000D01*
X30337500Y-18450000D02*
X27962500Y-18450000D01*
X47278586Y-16800000D02*
X31987500Y-16800000D01*
X47603087Y-16475499D02*
X47278586Y-16800000D01*
G04 #@! TO.N,/NTAG NFC/VOUT*
X22887500Y-23025000D02*
X22562500Y-22700000D01*
X24837500Y-23025000D02*
X22887500Y-23025000D01*
X22562500Y-22700000D02*
X20687500Y-22700000D01*
G04 #@! TO.N,/NTAG NFC/FD*
X31487500Y-22700000D02*
X33087500Y-22700000D01*
X29137500Y-21725000D02*
X30512500Y-21725000D01*
X30512500Y-21725000D02*
X31487500Y-22700000D01*
D17*
G04 #@! TO.N,/NTAG NFC/COIL*
X27787500Y-31700000D02*
X26787500Y-30700000D01*
X50287500Y-82300000D02*
X50287500Y-29700000D01*
X7687500Y-78300000D02*
X46287500Y-78300000D01*
D16*
X25912500Y-23725000D02*
X24837500Y-23725000D01*
X28062500Y-23725000D02*
X29137500Y-23725000D01*
D17*
X26387500Y-31700000D02*
X5687500Y-31700000D01*
X26987500Y-33700000D02*
X25987500Y-32700000D01*
X5687500Y-80300000D02*
X48287500Y-80300000D01*
X5687500Y-31700000D02*
X5687500Y-80300000D01*
X46287500Y-78300000D02*
X46287500Y-33700000D01*
X46287500Y-33700000D02*
X26987500Y-33700000D01*
X27687500Y-27800000D02*
X27687500Y-24100000D01*
D16*
X27687500Y-24100000D02*
X28062500Y-23725000D01*
D17*
X25487500Y-33700000D02*
X7687500Y-33700000D01*
X3687500Y-29700000D02*
X3687500Y-82300000D01*
X7687500Y-33700000D02*
X7687500Y-78300000D01*
X48287500Y-80300000D02*
X48287500Y-31700000D01*
X25487500Y-28600000D02*
X26287500Y-27800000D01*
X47287500Y-79300000D02*
X47287500Y-32700000D01*
X49287500Y-30700000D02*
X28187500Y-30700000D01*
X27187500Y-29700000D02*
X3687500Y-29700000D01*
X26287500Y-27800000D02*
X26287500Y-24100000D01*
X6687500Y-79300000D02*
X47287500Y-79300000D01*
X4687500Y-81300000D02*
X49287500Y-81300000D01*
X25987500Y-32700000D02*
X6687500Y-32700000D01*
X48287500Y-31700000D02*
X27787500Y-31700000D01*
X28487500Y-29700000D02*
X28487500Y-28600000D01*
X6687500Y-32700000D02*
X6687500Y-79300000D01*
D16*
X26287500Y-24100000D02*
X25912500Y-23725000D01*
D17*
X3687500Y-82300000D02*
X50287500Y-82300000D01*
X28187500Y-30700000D02*
X27187500Y-29700000D01*
X27387500Y-32700000D02*
X26387500Y-31700000D01*
X4687500Y-30700000D02*
X4687500Y-81300000D01*
X49287500Y-81300000D02*
X49287500Y-30700000D01*
X50287500Y-29700000D02*
X28487500Y-29700000D01*
X47287500Y-32700000D02*
X27387500Y-32700000D01*
X28487500Y-28600000D02*
X27687500Y-27800000D01*
X26787500Y-30700000D02*
X4687500Y-30700000D01*
D18*
G04 #@! TO.N,/SCL*
X32211058Y-17500000D02*
X28237500Y-21473558D01*
X28387500Y-22375000D02*
X29137500Y-22375000D01*
X28237500Y-21473558D02*
X28237500Y-22225000D01*
X28237500Y-22225000D02*
X28387500Y-22375000D01*
X48587500Y-17500000D02*
X32211058Y-17500000D01*
G04 #@! TO.N,/SDA*
X27562500Y-21725000D02*
X24837500Y-21725000D01*
X49387500Y-18500000D02*
X49787500Y-18100000D01*
X49787500Y-18100000D02*
X49787500Y-17200000D01*
X47337500Y-17200000D02*
X32087500Y-17200000D01*
X49387500Y-16800000D02*
X47737500Y-16800000D01*
X47737500Y-16800000D02*
X47337500Y-17200000D01*
X49787500Y-17200000D02*
X49387500Y-16800000D01*
X48587500Y-18500000D02*
X49387500Y-18500000D01*
X32087500Y-17200000D02*
X27562500Y-21725000D01*
G04 #@! TD*
G04 #@! TA.AperFunction,Conductor*
G04 #@! TO.N,GND*
G36*
X50803244Y-200670D02*
G01*
X51104433Y-216455D01*
X51117340Y-217812D01*
X51176810Y-227231D01*
X51412022Y-264484D01*
X51424690Y-267176D01*
X51712901Y-344402D01*
X51725228Y-348407D01*
X52003781Y-455334D01*
X52015617Y-460603D01*
X52281477Y-596065D01*
X52292683Y-602535D01*
X52542923Y-765044D01*
X52553414Y-772666D01*
X52785282Y-960429D01*
X52794927Y-969114D01*
X53005885Y-1180072D01*
X53014570Y-1189717D01*
X53202333Y-1421585D01*
X53209958Y-1432079D01*
X53372460Y-1682310D01*
X53378941Y-1693535D01*
X53514391Y-1959372D01*
X53519670Y-1971229D01*
X53626589Y-2249762D01*
X53630600Y-2262107D01*
X53707819Y-2550293D01*
X53710517Y-2562989D01*
X53757187Y-2857659D01*
X53758544Y-2870566D01*
X53774330Y-3171756D01*
X53774500Y-3178246D01*
X53774500Y-15648077D01*
X53755494Y-15714049D01*
X53704301Y-15759797D01*
X53636616Y-15771297D01*
X53573187Y-15745024D01*
X53533458Y-15689031D01*
X53515292Y-15637115D01*
X53434650Y-15527849D01*
X53325384Y-15447207D01*
X53197196Y-15402353D01*
X53166769Y-15399500D01*
X53166766Y-15399500D01*
X51758234Y-15399500D01*
X51758231Y-15399500D01*
X51727803Y-15402353D01*
X51599615Y-15447207D01*
X51490349Y-15527849D01*
X51409707Y-15637115D01*
X51364853Y-15765303D01*
X51362000Y-15795731D01*
X51362000Y-16604269D01*
X51364853Y-16634696D01*
X51409707Y-16762884D01*
X51490349Y-16872150D01*
X51599615Y-16952792D01*
X51599618Y-16952793D01*
X51727801Y-16997646D01*
X51739974Y-16998787D01*
X51758231Y-17000500D01*
X51758234Y-17000500D01*
X53166766Y-17000500D01*
X53166769Y-17000500D01*
X53181982Y-16999072D01*
X53197199Y-16997646D01*
X53325382Y-16952793D01*
X53325382Y-16952792D01*
X53325384Y-16952792D01*
X53434650Y-16872150D01*
X53515292Y-16762884D01*
X53519128Y-16751923D01*
X53533458Y-16710968D01*
X53573187Y-16654976D01*
X53636616Y-16628703D01*
X53704301Y-16640203D01*
X53755494Y-16685951D01*
X53774500Y-16751923D01*
X53774500Y-21248077D01*
X53755494Y-21314049D01*
X53704301Y-21359797D01*
X53636616Y-21371297D01*
X53573187Y-21345024D01*
X53533458Y-21289031D01*
X53515292Y-21237115D01*
X53434650Y-21127849D01*
X53325384Y-21047207D01*
X53197196Y-21002353D01*
X53166769Y-20999500D01*
X53166766Y-20999500D01*
X51758234Y-20999500D01*
X51758231Y-20999500D01*
X51727803Y-21002353D01*
X51599615Y-21047207D01*
X51490349Y-21127849D01*
X51409707Y-21237115D01*
X51364853Y-21365303D01*
X51362000Y-21395731D01*
X51362000Y-22204269D01*
X51364853Y-22234696D01*
X51409707Y-22362884D01*
X51490349Y-22472150D01*
X51599615Y-22552792D01*
X51608121Y-22555768D01*
X51727801Y-22597646D01*
X51739974Y-22598787D01*
X51758231Y-22600500D01*
X51758234Y-22600500D01*
X53166766Y-22600500D01*
X53166769Y-22600500D01*
X53181982Y-22599073D01*
X53197199Y-22597646D01*
X53325382Y-22552793D01*
X53325382Y-22552792D01*
X53325384Y-22552792D01*
X53434650Y-22472150D01*
X53515292Y-22362884D01*
X53519128Y-22351923D01*
X53533458Y-22310968D01*
X53573187Y-22254976D01*
X53636616Y-22228703D01*
X53704301Y-22240203D01*
X53755494Y-22285951D01*
X53774500Y-22351923D01*
X53774500Y-25876000D01*
X53757887Y-25938000D01*
X53712500Y-25983387D01*
X53650500Y-26000000D01*
X28212000Y-26000000D01*
X28150000Y-25983387D01*
X28104613Y-25938000D01*
X28088000Y-25876000D01*
X28088000Y-24175833D01*
X28097439Y-24128380D01*
X28124319Y-24088152D01*
X28150652Y-24061819D01*
X28190880Y-24034939D01*
X28238333Y-24025500D01*
X28414234Y-24025500D01*
X28450229Y-24030839D01*
X28483126Y-24046398D01*
X28509269Y-24063867D01*
X28558048Y-24073569D01*
X28567751Y-24075500D01*
X28567752Y-24075500D01*
X29707248Y-24075500D01*
X29707249Y-24075500D01*
X29742545Y-24068479D01*
X29765731Y-24063867D01*
X29832052Y-24019552D01*
X29876367Y-23953231D01*
X29888000Y-23894748D01*
X29888000Y-23455252D01*
X29882138Y-23425784D01*
X29871621Y-23372910D01*
X29871621Y-23324526D01*
X29887500Y-23244699D01*
X29887500Y-23150000D01*
X28387500Y-23150000D01*
X28387500Y-23244697D01*
X28393788Y-23276310D01*
X28392454Y-23330630D01*
X28368023Y-23379165D01*
X28325187Y-23412595D01*
X28272170Y-23424500D01*
X28131743Y-23424500D01*
X28114922Y-23421756D01*
X28071808Y-23423749D01*
X28058419Y-23424368D01*
X28052695Y-23424500D01*
X28033683Y-23424500D01*
X28019195Y-23426181D01*
X27992507Y-23427415D01*
X27986166Y-23430215D01*
X27958878Y-23438665D01*
X27952068Y-23439938D01*
X27929359Y-23453998D01*
X27914177Y-23462000D01*
X27889733Y-23472794D01*
X27884833Y-23477694D01*
X27862443Y-23495429D01*
X27856548Y-23499079D01*
X27840450Y-23520396D01*
X27829179Y-23533348D01*
X27692844Y-23669683D01*
X27661458Y-23692486D01*
X27624562Y-23704475D01*
X27562197Y-23714353D01*
X27449156Y-23771950D01*
X27359450Y-23861656D01*
X27301853Y-23974697D01*
X27287000Y-24068479D01*
X27287000Y-25876000D01*
X27270387Y-25938000D01*
X27225000Y-25983387D01*
X27163000Y-26000000D01*
X26812000Y-26000000D01*
X26750000Y-25983387D01*
X26704613Y-25938000D01*
X26688000Y-25876000D01*
X26688000Y-24068479D01*
X26673146Y-23974697D01*
X26673146Y-23974696D01*
X26615550Y-23861658D01*
X26615549Y-23861656D01*
X26525843Y-23771950D01*
X26412802Y-23714353D01*
X26350436Y-23704475D01*
X26313540Y-23692487D01*
X26282154Y-23669683D01*
X26173950Y-23561479D01*
X26163997Y-23547645D01*
X26122181Y-23509524D01*
X26118040Y-23505569D01*
X26104610Y-23492139D01*
X26093178Y-23483083D01*
X26073434Y-23465084D01*
X26066968Y-23462579D01*
X26041692Y-23449256D01*
X26035981Y-23445344D01*
X26035980Y-23445343D01*
X26035978Y-23445342D01*
X26009984Y-23439228D01*
X25993587Y-23434151D01*
X25968673Y-23424500D01*
X25961749Y-23424500D01*
X25933359Y-23421206D01*
X25926619Y-23419621D01*
X25926618Y-23419621D01*
X25915257Y-23421206D01*
X25900166Y-23423311D01*
X25883035Y-23424500D01*
X25703339Y-23424500D01*
X25650322Y-23412595D01*
X25607485Y-23379164D01*
X25583055Y-23330628D01*
X25581722Y-23276309D01*
X25588000Y-23244748D01*
X25588000Y-22805252D01*
X25576367Y-22746769D01*
X25576366Y-22746768D01*
X25571876Y-22724192D01*
X25571876Y-22675808D01*
X25588000Y-22594749D01*
X25588000Y-22155253D01*
X25586695Y-22148693D01*
X25588028Y-22094372D01*
X25612458Y-22045836D01*
X25655295Y-22012406D01*
X25708312Y-22000500D01*
X27523156Y-22000500D01*
X27547347Y-22002883D01*
X27562500Y-22005897D01*
X27577653Y-22002883D01*
X27577653Y-22002882D01*
X27589632Y-22000500D01*
X27589633Y-22000500D01*
X27669995Y-21984515D01*
X27729507Y-21944749D01*
X27729511Y-21944748D01*
X27751545Y-21930025D01*
X27751548Y-21930021D01*
X27761124Y-21923624D01*
X27761126Y-21923620D01*
X27769114Y-21918284D01*
X27831920Y-21897539D01*
X27896456Y-21912033D01*
X27944359Y-21957643D01*
X27962000Y-22021390D01*
X27962000Y-22185656D01*
X27959617Y-22209847D01*
X27956602Y-22225000D01*
X27959617Y-22240153D01*
X27959617Y-22240154D01*
X27977984Y-22332493D01*
X27977984Y-22332494D01*
X27977985Y-22332495D01*
X27998289Y-22362882D01*
X27998290Y-22362883D01*
X27998290Y-22362884D01*
X28022755Y-22399500D01*
X28036684Y-22420344D01*
X28038876Y-22423624D01*
X28051722Y-22432207D01*
X28070511Y-22447627D01*
X28164870Y-22541986D01*
X28180291Y-22560776D01*
X28181230Y-22562182D01*
X28188876Y-22573624D01*
X28201720Y-22582206D01*
X28201727Y-22582212D01*
X28220491Y-22594749D01*
X28220493Y-22594750D01*
X28280005Y-22634515D01*
X28294469Y-22637392D01*
X28352036Y-22665780D01*
X28387697Y-22719148D01*
X28391896Y-22783197D01*
X28387500Y-22805300D01*
X28387500Y-22900000D01*
X29887500Y-22900000D01*
X29887500Y-22805300D01*
X29871621Y-22725470D01*
X29871621Y-22677087D01*
X29878479Y-22642615D01*
X29888000Y-22594748D01*
X29888000Y-22155252D01*
X29888000Y-22149500D01*
X29904613Y-22087500D01*
X29950000Y-22042113D01*
X30012000Y-22025500D01*
X30336667Y-22025500D01*
X30384120Y-22034939D01*
X30424348Y-22061819D01*
X31226050Y-22863521D01*
X31236007Y-22877358D01*
X31243541Y-22884226D01*
X31243542Y-22884228D01*
X31256929Y-22896432D01*
X31277816Y-22915474D01*
X31281957Y-22919429D01*
X31295388Y-22932860D01*
X31306828Y-22941922D01*
X31326565Y-22959915D01*
X31326566Y-22959915D01*
X31326567Y-22959916D01*
X31332840Y-22962346D01*
X31333023Y-22962417D01*
X31358310Y-22975745D01*
X31364019Y-22979656D01*
X31390014Y-22985769D01*
X31406410Y-22990846D01*
X31431327Y-23000500D01*
X31438251Y-23000500D01*
X31466640Y-23003793D01*
X31473381Y-23005379D01*
X31499833Y-23001688D01*
X31516965Y-23000500D01*
X32378668Y-23000500D01*
X32436293Y-23014703D01*
X32480717Y-23054058D01*
X32559317Y-23167929D01*
X32686648Y-23280734D01*
X32837275Y-23359790D01*
X33002444Y-23400500D01*
X33172555Y-23400500D01*
X33172556Y-23400500D01*
X33337725Y-23359790D01*
X33488352Y-23280734D01*
X33615683Y-23167929D01*
X33712318Y-23027930D01*
X33772640Y-22868872D01*
X33793145Y-22700000D01*
X33772640Y-22531128D01*
X33712318Y-22372070D01*
X33628977Y-22251330D01*
X33615684Y-22232072D01*
X33607701Y-22225000D01*
X33488352Y-22119266D01*
X33427828Y-22087500D01*
X33337724Y-22040209D01*
X33187693Y-22003231D01*
X33172556Y-21999500D01*
X33002444Y-21999500D01*
X32987307Y-22003231D01*
X32837275Y-22040209D01*
X32686649Y-22119265D01*
X32686647Y-22119266D01*
X32686648Y-22119266D01*
X32559317Y-22232071D01*
X32490001Y-22332493D01*
X32480718Y-22345941D01*
X32436293Y-22385297D01*
X32378668Y-22399500D01*
X31663333Y-22399500D01*
X31615880Y-22390061D01*
X31575652Y-22363181D01*
X30773950Y-21561479D01*
X30763997Y-21547645D01*
X30722181Y-21509524D01*
X30718040Y-21505569D01*
X30704610Y-21492139D01*
X30693178Y-21483083D01*
X30673434Y-21465084D01*
X30666968Y-21462579D01*
X30641692Y-21449256D01*
X30635981Y-21445344D01*
X30635980Y-21445343D01*
X30635978Y-21445342D01*
X30609984Y-21439228D01*
X30593587Y-21434151D01*
X30568673Y-21424500D01*
X30561749Y-21424500D01*
X30533359Y-21421206D01*
X30526619Y-21419621D01*
X30526618Y-21419621D01*
X30515257Y-21421206D01*
X30500166Y-21423311D01*
X30483035Y-21424500D01*
X29927766Y-21424500D01*
X29869313Y-21409858D01*
X29850363Y-21392683D01*
X29765730Y-21336132D01*
X29707249Y-21324500D01*
X29707248Y-21324500D01*
X29075536Y-21324500D01*
X29019241Y-21310985D01*
X28975218Y-21273385D01*
X28953063Y-21219898D01*
X28957605Y-21162182D01*
X28987855Y-21112819D01*
X29475674Y-20625000D01*
X47612501Y-20625000D01*
X47612501Y-20683216D01*
X47622412Y-20751248D01*
X47673714Y-20856190D01*
X47756309Y-20938785D01*
X47861253Y-20990088D01*
X47929278Y-21000000D01*
X48462500Y-21000000D01*
X48462500Y-20625000D01*
X48712500Y-20625000D01*
X48712500Y-20999999D01*
X49245716Y-20999999D01*
X49313748Y-20990087D01*
X49418690Y-20938785D01*
X49501285Y-20856190D01*
X49552588Y-20751246D01*
X49562500Y-20683222D01*
X49562500Y-20625000D01*
X48712500Y-20625000D01*
X48462500Y-20625000D01*
X47612501Y-20625000D01*
X29475674Y-20625000D01*
X32288855Y-17811819D01*
X32329083Y-17784939D01*
X32376536Y-17775500D01*
X47556307Y-17775500D01*
X47621969Y-17794312D01*
X47667708Y-17845040D01*
X47673303Y-17856485D01*
X47729137Y-17912319D01*
X47761231Y-17967906D01*
X47761231Y-18032094D01*
X47729137Y-18087681D01*
X47673302Y-18143515D01*
X47621926Y-18248609D01*
X47612000Y-18316737D01*
X47612000Y-18683263D01*
X47621926Y-18751390D01*
X47621926Y-18751391D01*
X47621927Y-18751393D01*
X47646479Y-18801615D01*
X47673302Y-18856484D01*
X47729137Y-18912319D01*
X47761231Y-18967906D01*
X47761231Y-19032094D01*
X47729137Y-19087681D01*
X47673302Y-19143515D01*
X47621926Y-19248609D01*
X47612000Y-19316737D01*
X47612000Y-19683263D01*
X47621926Y-19751390D01*
X47621926Y-19751391D01*
X47621927Y-19751393D01*
X47629299Y-19766472D01*
X47673302Y-19856484D01*
X47729490Y-19912672D01*
X47761584Y-19968259D01*
X47761584Y-20032447D01*
X47729490Y-20088034D01*
X47673714Y-20143809D01*
X47622411Y-20248753D01*
X47612500Y-20316778D01*
X47612500Y-20375000D01*
X49562499Y-20375000D01*
X49562499Y-20316784D01*
X49552587Y-20248751D01*
X49501285Y-20143809D01*
X49445510Y-20088034D01*
X49413416Y-20032447D01*
X49413416Y-19968259D01*
X49445510Y-19912672D01*
X49516330Y-19841852D01*
X49518515Y-19844037D01*
X49540805Y-19819314D01*
X49606471Y-19800500D01*
X49618257Y-19800500D01*
X49635077Y-19803243D01*
X49645262Y-19802772D01*
X49645265Y-19802773D01*
X49691580Y-19800631D01*
X49697305Y-19800500D01*
X49716324Y-19800500D01*
X49730818Y-19798817D01*
X49757492Y-19797585D01*
X49763830Y-19794786D01*
X49791133Y-19786332D01*
X49797933Y-19785061D01*
X49820643Y-19770998D01*
X49835825Y-19762996D01*
X49860265Y-19752206D01*
X49865159Y-19747311D01*
X49887563Y-19729564D01*
X49893452Y-19725919D01*
X49909553Y-19704595D01*
X49920813Y-19691656D01*
X50275519Y-19336950D01*
X50289354Y-19326997D01*
X50296226Y-19319458D01*
X50296229Y-19319457D01*
X50327489Y-19285165D01*
X50331380Y-19281089D01*
X50344175Y-19268296D01*
X50344179Y-19268289D01*
X50344869Y-19267600D01*
X50353923Y-19256170D01*
X50371915Y-19236434D01*
X50371914Y-19236434D01*
X50371917Y-19236432D01*
X50374420Y-19229969D01*
X50387744Y-19204690D01*
X50391657Y-19198980D01*
X50397771Y-19172980D01*
X50402847Y-19156588D01*
X50412501Y-19131672D01*
X50412501Y-19124748D01*
X50415795Y-19096355D01*
X50417380Y-19089618D01*
X50413689Y-19063165D01*
X50412501Y-19046034D01*
X50412501Y-17134830D01*
X50415244Y-17118009D01*
X50414773Y-17107823D01*
X50414774Y-17107822D01*
X50412632Y-17061506D01*
X50412501Y-17055782D01*
X50412501Y-17036765D01*
X50410818Y-17022267D01*
X50409586Y-16995595D01*
X50406786Y-16989255D01*
X50398334Y-16961957D01*
X50397062Y-16955154D01*
X50383007Y-16932454D01*
X50374999Y-16917263D01*
X50364207Y-16892821D01*
X50359311Y-16887925D01*
X50341564Y-16865522D01*
X50337920Y-16859635D01*
X50337918Y-16859633D01*
X50316606Y-16843539D01*
X50303652Y-16832266D01*
X50045466Y-16574080D01*
X49783362Y-16311977D01*
X49773410Y-16298144D01*
X49731594Y-16260023D01*
X49727453Y-16256068D01*
X49714023Y-16242638D01*
X49702591Y-16233582D01*
X49682847Y-16215583D01*
X49676381Y-16213078D01*
X49651105Y-16199755D01*
X49645394Y-16195843D01*
X49645393Y-16195842D01*
X49645391Y-16195841D01*
X49619397Y-16189727D01*
X49603000Y-16184650D01*
X49578086Y-16174999D01*
X49571162Y-16174999D01*
X49542772Y-16171705D01*
X49536032Y-16170120D01*
X49536031Y-16170120D01*
X49524670Y-16171705D01*
X49509579Y-16173810D01*
X49492448Y-16174999D01*
X47672331Y-16174999D01*
X47655510Y-16172255D01*
X47612396Y-16174248D01*
X47599007Y-16174867D01*
X47593283Y-16174999D01*
X47574270Y-16174999D01*
X47559782Y-16176680D01*
X47533092Y-16177914D01*
X47526753Y-16180713D01*
X47499466Y-16189163D01*
X47492655Y-16190436D01*
X47469943Y-16204498D01*
X47454760Y-16212501D01*
X47430321Y-16223292D01*
X47425424Y-16228190D01*
X47403027Y-16245931D01*
X47397134Y-16249580D01*
X47381037Y-16270895D01*
X47369766Y-16283847D01*
X47190431Y-16463183D01*
X47150206Y-16490061D01*
X47102753Y-16499500D01*
X32056743Y-16499500D01*
X32039922Y-16496756D01*
X31996808Y-16498749D01*
X31983419Y-16499368D01*
X31977695Y-16499500D01*
X31958683Y-16499500D01*
X31944195Y-16501181D01*
X31917506Y-16502415D01*
X31911162Y-16505216D01*
X31883882Y-16513664D01*
X31877065Y-16514938D01*
X31854355Y-16528999D01*
X31839172Y-16537002D01*
X31814732Y-16547793D01*
X31809831Y-16552695D01*
X31787437Y-16570434D01*
X31781548Y-16574080D01*
X31765453Y-16595393D01*
X31754182Y-16608344D01*
X30249348Y-18113181D01*
X30209120Y-18140061D01*
X30161667Y-18149500D01*
X28715306Y-18149500D01*
X28650516Y-18131227D01*
X28604821Y-18081794D01*
X28536028Y-17946779D01*
X28440721Y-17851472D01*
X28320624Y-17790280D01*
X28220990Y-17774500D01*
X28220988Y-17774500D01*
X27704012Y-17774500D01*
X27704010Y-17774500D01*
X27604375Y-17790280D01*
X27484278Y-17851472D01*
X27388972Y-17946778D01*
X27327780Y-18066875D01*
X27312000Y-18166510D01*
X27312000Y-18733490D01*
X27327780Y-18833124D01*
X27388972Y-18953221D01*
X27484279Y-19048528D01*
X27594294Y-19104583D01*
X27643727Y-19150278D01*
X27662000Y-19215068D01*
X27662000Y-19999167D01*
X27652561Y-20046620D01*
X27625681Y-20086848D01*
X27099348Y-20613181D01*
X27059120Y-20640061D01*
X27011667Y-20649500D01*
X24306744Y-20649500D01*
X24289923Y-20646756D01*
X24246809Y-20648749D01*
X24233420Y-20649368D01*
X24227696Y-20649500D01*
X24208683Y-20649500D01*
X24194195Y-20651181D01*
X24167505Y-20652415D01*
X24161166Y-20655214D01*
X24133879Y-20663664D01*
X24127068Y-20664937D01*
X24104356Y-20678999D01*
X24089173Y-20687002D01*
X24064734Y-20697793D01*
X24059837Y-20702691D01*
X24037440Y-20720432D01*
X24031547Y-20724081D01*
X24015450Y-20745396D01*
X24004179Y-20758348D01*
X23723975Y-21038552D01*
X23710139Y-21048508D01*
X23672023Y-21090318D01*
X23668073Y-21094454D01*
X23654641Y-21107886D01*
X23645587Y-21119317D01*
X23627583Y-21139067D01*
X23625078Y-21145534D01*
X23611759Y-21170802D01*
X23607843Y-21176518D01*
X23601728Y-21202517D01*
X23596651Y-21218913D01*
X23587000Y-21243827D01*
X23587000Y-21250751D01*
X23583706Y-21279144D01*
X23582121Y-21285881D01*
X23585811Y-21312332D01*
X23587000Y-21329465D01*
X23587000Y-22105757D01*
X23584256Y-22122577D01*
X23586868Y-22179079D01*
X23587000Y-22184805D01*
X23587000Y-22203819D01*
X23588681Y-22218307D01*
X23589915Y-22244993D01*
X23592713Y-22251330D01*
X23601166Y-22278626D01*
X23602438Y-22285434D01*
X23616497Y-22308140D01*
X23624502Y-22323327D01*
X23635292Y-22347763D01*
X23640188Y-22352659D01*
X23657934Y-22375063D01*
X23661581Y-22380952D01*
X23673643Y-22390061D01*
X23682896Y-22397048D01*
X23695851Y-22408322D01*
X23800348Y-22512819D01*
X23830598Y-22562182D01*
X23835140Y-22619898D01*
X23812985Y-22673385D01*
X23768962Y-22710985D01*
X23712667Y-22724500D01*
X23063334Y-22724500D01*
X23015881Y-22715061D01*
X22975655Y-22688183D01*
X22823947Y-22536476D01*
X22813995Y-22522644D01*
X22806458Y-22515773D01*
X22806458Y-22515772D01*
X22772181Y-22484524D01*
X22768040Y-22480569D01*
X22754610Y-22467139D01*
X22743178Y-22458083D01*
X22723434Y-22440084D01*
X22716968Y-22437579D01*
X22691692Y-22424256D01*
X22685981Y-22420344D01*
X22685980Y-22420343D01*
X22685978Y-22420342D01*
X22659984Y-22414228D01*
X22643587Y-22409151D01*
X22618673Y-22399500D01*
X22611749Y-22399500D01*
X22583359Y-22396206D01*
X22576619Y-22394621D01*
X22576618Y-22394621D01*
X22565257Y-22396206D01*
X22550166Y-22398311D01*
X22533035Y-22399500D01*
X21396332Y-22399500D01*
X21338707Y-22385297D01*
X21294282Y-22345941D01*
X21285001Y-22332495D01*
X21215683Y-22232071D01*
X21088352Y-22119266D01*
X21027828Y-22087500D01*
X20937724Y-22040209D01*
X20787693Y-22003231D01*
X20772556Y-21999500D01*
X20602444Y-21999500D01*
X20587307Y-22003231D01*
X20437275Y-22040209D01*
X20286649Y-22119265D01*
X20159315Y-22232072D01*
X20062682Y-22372069D01*
X20002360Y-22531127D01*
X19981854Y-22700000D01*
X20002360Y-22868872D01*
X20062682Y-23027930D01*
X20159315Y-23167927D01*
X20159316Y-23167928D01*
X20159317Y-23167929D01*
X20286648Y-23280734D01*
X20437275Y-23359790D01*
X20602444Y-23400500D01*
X20772555Y-23400500D01*
X20772556Y-23400500D01*
X20937725Y-23359790D01*
X21088352Y-23280734D01*
X21215683Y-23167929D01*
X21294282Y-23054058D01*
X21338707Y-23014703D01*
X21396332Y-23000500D01*
X22386667Y-23000500D01*
X22434120Y-23009939D01*
X22474348Y-23036819D01*
X22626050Y-23188521D01*
X22636007Y-23202358D01*
X22643541Y-23209226D01*
X22643542Y-23209228D01*
X22656929Y-23221432D01*
X22677816Y-23240474D01*
X22681957Y-23244429D01*
X22695388Y-23257860D01*
X22706828Y-23266922D01*
X22726565Y-23284915D01*
X22726566Y-23284915D01*
X22726567Y-23284916D01*
X22729709Y-23286133D01*
X22733023Y-23287417D01*
X22758310Y-23300745D01*
X22764019Y-23304656D01*
X22790014Y-23310769D01*
X22806410Y-23315846D01*
X22831327Y-23325500D01*
X22838251Y-23325500D01*
X22866640Y-23328793D01*
X22873381Y-23330379D01*
X22899833Y-23326688D01*
X22916965Y-23325500D01*
X23963000Y-23325500D01*
X24025000Y-23342113D01*
X24070387Y-23387500D01*
X24087000Y-23449500D01*
X24087000Y-23894749D01*
X24098632Y-23953230D01*
X24142947Y-24019552D01*
X24209269Y-24063867D01*
X24267751Y-24075500D01*
X24267752Y-24075500D01*
X25407248Y-24075500D01*
X25407249Y-24075500D01*
X25415570Y-24073844D01*
X25465731Y-24063867D01*
X25491873Y-24046398D01*
X25524771Y-24030839D01*
X25560766Y-24025500D01*
X25736667Y-24025500D01*
X25784120Y-24034939D01*
X25824348Y-24061819D01*
X25850681Y-24088152D01*
X25877561Y-24128380D01*
X25887000Y-24175833D01*
X25887000Y-25876000D01*
X25870387Y-25938000D01*
X25825000Y-25983387D01*
X25763000Y-26000000D01*
X324500Y-26000000D01*
X262500Y-25983387D01*
X217113Y-25938000D01*
X200500Y-25876000D01*
X200500Y-18575000D01*
X25762501Y-18575000D01*
X25762501Y-18733446D01*
X25778262Y-18832969D01*
X25839383Y-18952924D01*
X25934575Y-19048116D01*
X26054532Y-19109238D01*
X26154047Y-19125000D01*
X26287500Y-19125000D01*
X26287500Y-18575000D01*
X26537500Y-18575000D01*
X26537500Y-19124999D01*
X26670946Y-19124999D01*
X26770469Y-19109237D01*
X26890424Y-19048116D01*
X26985616Y-18952924D01*
X27046738Y-18832967D01*
X27062500Y-18733453D01*
X27062500Y-18575000D01*
X26537500Y-18575000D01*
X26287500Y-18575000D01*
X25762501Y-18575000D01*
X200500Y-18575000D01*
X200500Y-18325000D01*
X25762500Y-18325000D01*
X26287500Y-18325000D01*
X26287500Y-17775001D01*
X26154054Y-17775001D01*
X26054530Y-17790762D01*
X25934575Y-17851883D01*
X25839383Y-17947075D01*
X25778261Y-18067032D01*
X25762500Y-18166547D01*
X25762500Y-18325000D01*
X200500Y-18325000D01*
X200500Y-17775000D01*
X26537500Y-17775000D01*
X26537500Y-18325000D01*
X27062499Y-18325000D01*
X27062499Y-18166554D01*
X27046737Y-18067030D01*
X26985616Y-17947075D01*
X26890424Y-17851883D01*
X26770467Y-17790761D01*
X26670953Y-17775000D01*
X26537500Y-17775000D01*
X200500Y-17775000D01*
X200500Y-4300000D01*
X18334871Y-4300000D01*
X18353362Y-4570312D01*
X18408485Y-4835580D01*
X18499216Y-5090873D01*
X18623867Y-5331441D01*
X18780115Y-5552792D01*
X18965043Y-5750801D01*
X18965045Y-5750803D01*
X19175216Y-5921790D01*
X19406712Y-6062566D01*
X19655221Y-6170509D01*
X19916114Y-6243607D01*
X20184530Y-6280500D01*
X20297410Y-6280500D01*
X20320000Y-6280500D01*
X20359882Y-6280500D01*
X20411238Y-6280500D01*
X20411241Y-6280498D01*
X33677592Y-6280498D01*
X33790472Y-6280498D01*
X34058888Y-6243605D01*
X34319780Y-6170506D01*
X34568288Y-6062563D01*
X34799784Y-5921788D01*
X35009955Y-5750801D01*
X35194885Y-5552789D01*
X35229603Y-5503603D01*
X35351128Y-5331443D01*
X35375296Y-5284800D01*
X35475780Y-5090876D01*
X35566512Y-4835581D01*
X35621636Y-4570308D01*
X35640126Y-4300001D01*
X35621637Y-4029693D01*
X35566512Y-3764420D01*
X35475781Y-3509125D01*
X35375296Y-3315198D01*
X35351129Y-3268557D01*
X35194887Y-3047212D01*
X35009955Y-2849200D01*
X34799784Y-2678212D01*
X34568290Y-2537437D01*
X34319783Y-2429495D01*
X34319781Y-2429494D01*
X34189335Y-2392944D01*
X34058887Y-2356394D01*
X33790473Y-2319502D01*
X33677593Y-2319502D01*
X20359882Y-2319500D01*
X20320000Y-2319500D01*
X20184530Y-2319500D01*
X19916116Y-2356392D01*
X19724657Y-2410036D01*
X19655221Y-2429491D01*
X19655219Y-2429491D01*
X19655218Y-2429492D01*
X19406711Y-2537434D01*
X19175216Y-2678209D01*
X18965044Y-2849197D01*
X18780115Y-3047207D01*
X18623867Y-3268558D01*
X18499216Y-3509126D01*
X18408485Y-3764419D01*
X18353362Y-4029687D01*
X18334871Y-4300000D01*
X200500Y-4300000D01*
X200500Y-3178246D01*
X200670Y-3171756D01*
X207197Y-3047210D01*
X216455Y-2870564D01*
X217812Y-2857659D01*
X236741Y-2738144D01*
X264485Y-2562973D01*
X267175Y-2550312D01*
X344403Y-2262092D01*
X348404Y-2249777D01*
X455336Y-1971211D01*
X460600Y-1959389D01*
X596069Y-1693514D01*
X602530Y-1682324D01*
X765050Y-1432066D01*
X772659Y-1421594D01*
X960437Y-1189707D01*
X969104Y-1180082D01*
X1180082Y-969104D01*
X1189707Y-960437D01*
X1421594Y-772659D01*
X1432066Y-765050D01*
X1682324Y-602530D01*
X1693514Y-596069D01*
X1959389Y-460600D01*
X1971211Y-455336D01*
X2249777Y-348404D01*
X2262092Y-344403D01*
X2550312Y-267175D01*
X2562973Y-264485D01*
X2857658Y-217812D01*
X2870564Y-216455D01*
X3171756Y-200669D01*
X3178246Y-200500D01*
X3214882Y-200500D01*
X50760118Y-200500D01*
X50796754Y-200500D01*
X50803244Y-200670D01*
G37*
G04 #@! TD.AperFunction*
G04 #@! TD*
M02*
