G04 #@! TF.GenerationSoftware,KiCad,Pcbnew,7.0.1-0*
G04 #@! TF.CreationDate,2023-05-11T23:21:43+02:00*
G04 #@! TF.ProjectId,nfc_card_emulation_large,6e66635f-6361-4726-945f-656d756c6174,1.0*
G04 #@! TF.SameCoordinates,PX354a940PY3072580*
G04 #@! TF.FileFunction,Legend,Top*
G04 #@! TF.FilePolarity,Positive*
%FSLAX46Y46*%
G04 Gerber Fmt 4.6, Leading zero omitted, Abs format (unit mm)*
G04 Created by KiCad (PCBNEW 7.0.1-0) date 2023-05-11 23:21:43*
%MOMM*%
%LPD*%
G01*
G04 APERTURE LIST*
G04 Aperture macros list*
%AMRoundRect*
0 Rectangle with rounded corners*
0 $1 Rounding radius*
0 $2 $3 $4 $5 $6 $7 $8 $9 X,Y pos of 4 corners*
0 Add a 4 corners polygon primitive as box body*
4,1,4,$2,$3,$4,$5,$6,$7,$8,$9,$2,$3,0*
0 Add four circle primitives for the rounded corners*
1,1,$1+$1,$2,$3*
1,1,$1+$1,$4,$5*
1,1,$1+$1,$6,$7*
1,1,$1+$1,$8,$9*
0 Add four rect primitives between the rounded corners*
20,1,$1+$1,$2,$3,$4,$5,0*
20,1,$1+$1,$4,$5,$6,$7,0*
20,1,$1+$1,$6,$7,$8,$9,0*
20,1,$1+$1,$8,$9,$2,$3,0*%
G04 Aperture macros list end*
%ADD10C,0.150000*%
%ADD11C,0.120000*%
%ADD12C,1.000000*%
%ADD13RoundRect,0.150000X0.625000X-0.150000X0.625000X0.150000X-0.625000X0.150000X-0.625000X-0.150000X0*%
%ADD14RoundRect,0.250000X0.650000X-0.350000X0.650000X0.350000X-0.650000X0.350000X-0.650000X-0.350000X0*%
%ADD15RoundRect,0.225000X0.225000X0.250000X-0.225000X0.250000X-0.225000X-0.250000X0.225000X-0.250000X0*%
%ADD16R,1.100000X0.400000*%
G04 APERTURE END LIST*
D10*
X23292261Y-84302095D02*
X23292261Y-84873523D01*
X23292261Y-84873523D02*
X23254166Y-84987809D01*
X23254166Y-84987809D02*
X23177975Y-85064000D01*
X23177975Y-85064000D02*
X23063690Y-85102095D01*
X23063690Y-85102095D02*
X22987499Y-85102095D01*
X24054166Y-85102095D02*
X23673214Y-85102095D01*
X23673214Y-85102095D02*
X23673214Y-84302095D01*
X24777976Y-85025904D02*
X24739880Y-85064000D01*
X24739880Y-85064000D02*
X24625595Y-85102095D01*
X24625595Y-85102095D02*
X24549404Y-85102095D01*
X24549404Y-85102095D02*
X24435118Y-85064000D01*
X24435118Y-85064000D02*
X24358928Y-84987809D01*
X24358928Y-84987809D02*
X24320833Y-84911619D01*
X24320833Y-84911619D02*
X24282737Y-84759238D01*
X24282737Y-84759238D02*
X24282737Y-84644952D01*
X24282737Y-84644952D02*
X24320833Y-84492571D01*
X24320833Y-84492571D02*
X24358928Y-84416380D01*
X24358928Y-84416380D02*
X24435118Y-84340190D01*
X24435118Y-84340190D02*
X24549404Y-84302095D01*
X24549404Y-84302095D02*
X24625595Y-84302095D01*
X24625595Y-84302095D02*
X24739880Y-84340190D01*
X24739880Y-84340190D02*
X24777976Y-84378285D01*
X25349404Y-84302095D02*
X25349404Y-84873523D01*
X25349404Y-84873523D02*
X25311309Y-84987809D01*
X25311309Y-84987809D02*
X25235118Y-85064000D01*
X25235118Y-85064000D02*
X25120833Y-85102095D01*
X25120833Y-85102095D02*
X25044642Y-85102095D01*
X26111309Y-85102095D02*
X25730357Y-85102095D01*
X25730357Y-85102095D02*
X25730357Y-84302095D01*
X26835119Y-85025904D02*
X26797023Y-85064000D01*
X26797023Y-85064000D02*
X26682738Y-85102095D01*
X26682738Y-85102095D02*
X26606547Y-85102095D01*
X26606547Y-85102095D02*
X26492261Y-85064000D01*
X26492261Y-85064000D02*
X26416071Y-84987809D01*
X26416071Y-84987809D02*
X26377976Y-84911619D01*
X26377976Y-84911619D02*
X26339880Y-84759238D01*
X26339880Y-84759238D02*
X26339880Y-84644952D01*
X26339880Y-84644952D02*
X26377976Y-84492571D01*
X26377976Y-84492571D02*
X26416071Y-84416380D01*
X26416071Y-84416380D02*
X26492261Y-84340190D01*
X26492261Y-84340190D02*
X26606547Y-84302095D01*
X26606547Y-84302095D02*
X26682738Y-84302095D01*
X26682738Y-84302095D02*
X26797023Y-84340190D01*
X26797023Y-84340190D02*
X26835119Y-84378285D01*
X27406547Y-84302095D02*
X27406547Y-84873523D01*
X27406547Y-84873523D02*
X27368452Y-84987809D01*
X27368452Y-84987809D02*
X27292261Y-85064000D01*
X27292261Y-85064000D02*
X27177976Y-85102095D01*
X27177976Y-85102095D02*
X27101785Y-85102095D01*
X28168452Y-85102095D02*
X27787500Y-85102095D01*
X27787500Y-85102095D02*
X27787500Y-84302095D01*
X28892262Y-85025904D02*
X28854166Y-85064000D01*
X28854166Y-85064000D02*
X28739881Y-85102095D01*
X28739881Y-85102095D02*
X28663690Y-85102095D01*
X28663690Y-85102095D02*
X28549404Y-85064000D01*
X28549404Y-85064000D02*
X28473214Y-84987809D01*
X28473214Y-84987809D02*
X28435119Y-84911619D01*
X28435119Y-84911619D02*
X28397023Y-84759238D01*
X28397023Y-84759238D02*
X28397023Y-84644952D01*
X28397023Y-84644952D02*
X28435119Y-84492571D01*
X28435119Y-84492571D02*
X28473214Y-84416380D01*
X28473214Y-84416380D02*
X28549404Y-84340190D01*
X28549404Y-84340190D02*
X28663690Y-84302095D01*
X28663690Y-84302095D02*
X28739881Y-84302095D01*
X28739881Y-84302095D02*
X28854166Y-84340190D01*
X28854166Y-84340190D02*
X28892262Y-84378285D01*
X29463690Y-84302095D02*
X29463690Y-84873523D01*
X29463690Y-84873523D02*
X29425595Y-84987809D01*
X29425595Y-84987809D02*
X29349404Y-85064000D01*
X29349404Y-85064000D02*
X29235119Y-85102095D01*
X29235119Y-85102095D02*
X29158928Y-85102095D01*
X30225595Y-85102095D02*
X29844643Y-85102095D01*
X29844643Y-85102095D02*
X29844643Y-84302095D01*
X30949405Y-85025904D02*
X30911309Y-85064000D01*
X30911309Y-85064000D02*
X30797024Y-85102095D01*
X30797024Y-85102095D02*
X30720833Y-85102095D01*
X30720833Y-85102095D02*
X30606547Y-85064000D01*
X30606547Y-85064000D02*
X30530357Y-84987809D01*
X30530357Y-84987809D02*
X30492262Y-84911619D01*
X30492262Y-84911619D02*
X30454166Y-84759238D01*
X30454166Y-84759238D02*
X30454166Y-84644952D01*
X30454166Y-84644952D02*
X30492262Y-84492571D01*
X30492262Y-84492571D02*
X30530357Y-84416380D01*
X30530357Y-84416380D02*
X30606547Y-84340190D01*
X30606547Y-84340190D02*
X30720833Y-84302095D01*
X30720833Y-84302095D02*
X30797024Y-84302095D01*
X30797024Y-84302095D02*
X30911309Y-84340190D01*
X30911309Y-84340190D02*
X30949405Y-84378285D01*
X9429166Y-72840952D02*
X9429166Y-73507619D01*
X9191071Y-72460000D02*
X8952976Y-73174285D01*
X8952976Y-73174285D02*
X9572023Y-73174285D01*
X9857738Y-72507619D02*
X10524404Y-72507619D01*
X10524404Y-72507619D02*
X10095833Y-73507619D01*
X10810119Y-73507619D02*
X11333928Y-72840952D01*
X10810119Y-72840952D02*
X11333928Y-73507619D01*
X12191071Y-72507619D02*
X11714881Y-72507619D01*
X11714881Y-72507619D02*
X11667262Y-72983809D01*
X11667262Y-72983809D02*
X11714881Y-72936190D01*
X11714881Y-72936190D02*
X11810119Y-72888571D01*
X11810119Y-72888571D02*
X12048214Y-72888571D01*
X12048214Y-72888571D02*
X12143452Y-72936190D01*
X12143452Y-72936190D02*
X12191071Y-72983809D01*
X12191071Y-72983809D02*
X12238690Y-73079047D01*
X12238690Y-73079047D02*
X12238690Y-73317142D01*
X12238690Y-73317142D02*
X12191071Y-73412380D01*
X12191071Y-73412380D02*
X12143452Y-73460000D01*
X12143452Y-73460000D02*
X12048214Y-73507619D01*
X12048214Y-73507619D02*
X11810119Y-73507619D01*
X11810119Y-73507619D02*
X11714881Y-73460000D01*
X11714881Y-73460000D02*
X11667262Y-73412380D01*
X12572024Y-72507619D02*
X13191071Y-72507619D01*
X13191071Y-72507619D02*
X12857738Y-72888571D01*
X12857738Y-72888571D02*
X13000595Y-72888571D01*
X13000595Y-72888571D02*
X13095833Y-72936190D01*
X13095833Y-72936190D02*
X13143452Y-72983809D01*
X13143452Y-72983809D02*
X13191071Y-73079047D01*
X13191071Y-73079047D02*
X13191071Y-73317142D01*
X13191071Y-73317142D02*
X13143452Y-73412380D01*
X13143452Y-73412380D02*
X13095833Y-73460000D01*
X13095833Y-73460000D02*
X13000595Y-73507619D01*
X13000595Y-73507619D02*
X12714881Y-73507619D01*
X12714881Y-73507619D02*
X12619643Y-73460000D01*
X12619643Y-73460000D02*
X12572024Y-73412380D01*
X13619643Y-73507619D02*
X13619643Y-72840952D01*
X13619643Y-72936190D02*
X13667262Y-72888571D01*
X13667262Y-72888571D02*
X13762500Y-72840952D01*
X13762500Y-72840952D02*
X13905357Y-72840952D01*
X13905357Y-72840952D02*
X14000595Y-72888571D01*
X14000595Y-72888571D02*
X14048214Y-72983809D01*
X14048214Y-72983809D02*
X14048214Y-73507619D01*
X14048214Y-72983809D02*
X14095833Y-72888571D01*
X14095833Y-72888571D02*
X14191071Y-72840952D01*
X14191071Y-72840952D02*
X14333928Y-72840952D01*
X14333928Y-72840952D02*
X14429167Y-72888571D01*
X14429167Y-72888571D02*
X14476786Y-72983809D01*
X14476786Y-72983809D02*
X14476786Y-73507619D01*
X14952976Y-73507619D02*
X14952976Y-72840952D01*
X14952976Y-72936190D02*
X15000595Y-72888571D01*
X15000595Y-72888571D02*
X15095833Y-72840952D01*
X15095833Y-72840952D02*
X15238690Y-72840952D01*
X15238690Y-72840952D02*
X15333928Y-72888571D01*
X15333928Y-72888571D02*
X15381547Y-72983809D01*
X15381547Y-72983809D02*
X15381547Y-73507619D01*
X15381547Y-72983809D02*
X15429166Y-72888571D01*
X15429166Y-72888571D02*
X15524404Y-72840952D01*
X15524404Y-72840952D02*
X15667261Y-72840952D01*
X15667261Y-72840952D02*
X15762500Y-72888571D01*
X15762500Y-72888571D02*
X15810119Y-72983809D01*
X15810119Y-72983809D02*
X15810119Y-73507619D01*
X16333928Y-73460000D02*
X16333928Y-73507619D01*
X16333928Y-73507619D02*
X16286309Y-73602857D01*
X16286309Y-73602857D02*
X16238690Y-73650476D01*
X17714880Y-72507619D02*
X17810118Y-72507619D01*
X17810118Y-72507619D02*
X17905356Y-72555238D01*
X17905356Y-72555238D02*
X17952975Y-72602857D01*
X17952975Y-72602857D02*
X18000594Y-72698095D01*
X18000594Y-72698095D02*
X18048213Y-72888571D01*
X18048213Y-72888571D02*
X18048213Y-73126666D01*
X18048213Y-73126666D02*
X18000594Y-73317142D01*
X18000594Y-73317142D02*
X17952975Y-73412380D01*
X17952975Y-73412380D02*
X17905356Y-73460000D01*
X17905356Y-73460000D02*
X17810118Y-73507619D01*
X17810118Y-73507619D02*
X17714880Y-73507619D01*
X17714880Y-73507619D02*
X17619642Y-73460000D01*
X17619642Y-73460000D02*
X17572023Y-73412380D01*
X17572023Y-73412380D02*
X17524404Y-73317142D01*
X17524404Y-73317142D02*
X17476785Y-73126666D01*
X17476785Y-73126666D02*
X17476785Y-72888571D01*
X17476785Y-72888571D02*
X17524404Y-72698095D01*
X17524404Y-72698095D02*
X17572023Y-72602857D01*
X17572023Y-72602857D02*
X17619642Y-72555238D01*
X17619642Y-72555238D02*
X17714880Y-72507619D01*
X18476785Y-73412380D02*
X18524404Y-73460000D01*
X18524404Y-73460000D02*
X18476785Y-73507619D01*
X18476785Y-73507619D02*
X18429166Y-73460000D01*
X18429166Y-73460000D02*
X18476785Y-73412380D01*
X18476785Y-73412380D02*
X18476785Y-73507619D01*
X19381546Y-72840952D02*
X19381546Y-73507619D01*
X19143451Y-72460000D02*
X18905356Y-73174285D01*
X18905356Y-73174285D02*
X19524403Y-73174285D01*
X19905356Y-73507619D02*
X19905356Y-72840952D01*
X19905356Y-72936190D02*
X19952975Y-72888571D01*
X19952975Y-72888571D02*
X20048213Y-72840952D01*
X20048213Y-72840952D02*
X20191070Y-72840952D01*
X20191070Y-72840952D02*
X20286308Y-72888571D01*
X20286308Y-72888571D02*
X20333927Y-72983809D01*
X20333927Y-72983809D02*
X20333927Y-73507619D01*
X20333927Y-72983809D02*
X20381546Y-72888571D01*
X20381546Y-72888571D02*
X20476784Y-72840952D01*
X20476784Y-72840952D02*
X20619641Y-72840952D01*
X20619641Y-72840952D02*
X20714880Y-72888571D01*
X20714880Y-72888571D02*
X20762499Y-72983809D01*
X20762499Y-72983809D02*
X20762499Y-73507619D01*
X21238689Y-73507619D02*
X21238689Y-72840952D01*
X21238689Y-72936190D02*
X21286308Y-72888571D01*
X21286308Y-72888571D02*
X21381546Y-72840952D01*
X21381546Y-72840952D02*
X21524403Y-72840952D01*
X21524403Y-72840952D02*
X21619641Y-72888571D01*
X21619641Y-72888571D02*
X21667260Y-72983809D01*
X21667260Y-72983809D02*
X21667260Y-73507619D01*
X21667260Y-72983809D02*
X21714879Y-72888571D01*
X21714879Y-72888571D02*
X21810117Y-72840952D01*
X21810117Y-72840952D02*
X21952974Y-72840952D01*
X21952974Y-72840952D02*
X22048213Y-72888571D01*
X22048213Y-72888571D02*
X22095832Y-72983809D01*
X22095832Y-72983809D02*
X22095832Y-73507619D01*
X23191070Y-72840952D02*
X23572022Y-72840952D01*
X23333927Y-72507619D02*
X23333927Y-73364761D01*
X23333927Y-73364761D02*
X23381546Y-73460000D01*
X23381546Y-73460000D02*
X23476784Y-73507619D01*
X23476784Y-73507619D02*
X23572022Y-73507619D01*
X23905356Y-73507619D02*
X23905356Y-72840952D01*
X23905356Y-73031428D02*
X23952975Y-72936190D01*
X23952975Y-72936190D02*
X24000594Y-72888571D01*
X24000594Y-72888571D02*
X24095832Y-72840952D01*
X24095832Y-72840952D02*
X24191070Y-72840952D01*
X24952975Y-73507619D02*
X24952975Y-72983809D01*
X24952975Y-72983809D02*
X24905356Y-72888571D01*
X24905356Y-72888571D02*
X24810118Y-72840952D01*
X24810118Y-72840952D02*
X24619642Y-72840952D01*
X24619642Y-72840952D02*
X24524404Y-72888571D01*
X24952975Y-73460000D02*
X24857737Y-73507619D01*
X24857737Y-73507619D02*
X24619642Y-73507619D01*
X24619642Y-73507619D02*
X24524404Y-73460000D01*
X24524404Y-73460000D02*
X24476785Y-73364761D01*
X24476785Y-73364761D02*
X24476785Y-73269523D01*
X24476785Y-73269523D02*
X24524404Y-73174285D01*
X24524404Y-73174285D02*
X24619642Y-73126666D01*
X24619642Y-73126666D02*
X24857737Y-73126666D01*
X24857737Y-73126666D02*
X24952975Y-73079047D01*
X25857737Y-73460000D02*
X25762499Y-73507619D01*
X25762499Y-73507619D02*
X25572023Y-73507619D01*
X25572023Y-73507619D02*
X25476785Y-73460000D01*
X25476785Y-73460000D02*
X25429166Y-73412380D01*
X25429166Y-73412380D02*
X25381547Y-73317142D01*
X25381547Y-73317142D02*
X25381547Y-73031428D01*
X25381547Y-73031428D02*
X25429166Y-72936190D01*
X25429166Y-72936190D02*
X25476785Y-72888571D01*
X25476785Y-72888571D02*
X25572023Y-72840952D01*
X25572023Y-72840952D02*
X25762499Y-72840952D01*
X25762499Y-72840952D02*
X25857737Y-72888571D01*
X26667261Y-73460000D02*
X26572023Y-73507619D01*
X26572023Y-73507619D02*
X26381547Y-73507619D01*
X26381547Y-73507619D02*
X26286309Y-73460000D01*
X26286309Y-73460000D02*
X26238690Y-73364761D01*
X26238690Y-73364761D02*
X26238690Y-72983809D01*
X26238690Y-72983809D02*
X26286309Y-72888571D01*
X26286309Y-72888571D02*
X26381547Y-72840952D01*
X26381547Y-72840952D02*
X26572023Y-72840952D01*
X26572023Y-72840952D02*
X26667261Y-72888571D01*
X26667261Y-72888571D02*
X26714880Y-72983809D01*
X26714880Y-72983809D02*
X26714880Y-73079047D01*
X26714880Y-73079047D02*
X26238690Y-73174285D01*
X27191071Y-73460000D02*
X27191071Y-73507619D01*
X27191071Y-73507619D02*
X27143452Y-73602857D01*
X27143452Y-73602857D02*
X27095833Y-73650476D01*
X28572023Y-72507619D02*
X28667261Y-72507619D01*
X28667261Y-72507619D02*
X28762499Y-72555238D01*
X28762499Y-72555238D02*
X28810118Y-72602857D01*
X28810118Y-72602857D02*
X28857737Y-72698095D01*
X28857737Y-72698095D02*
X28905356Y-72888571D01*
X28905356Y-72888571D02*
X28905356Y-73126666D01*
X28905356Y-73126666D02*
X28857737Y-73317142D01*
X28857737Y-73317142D02*
X28810118Y-73412380D01*
X28810118Y-73412380D02*
X28762499Y-73460000D01*
X28762499Y-73460000D02*
X28667261Y-73507619D01*
X28667261Y-73507619D02*
X28572023Y-73507619D01*
X28572023Y-73507619D02*
X28476785Y-73460000D01*
X28476785Y-73460000D02*
X28429166Y-73412380D01*
X28429166Y-73412380D02*
X28381547Y-73317142D01*
X28381547Y-73317142D02*
X28333928Y-73126666D01*
X28333928Y-73126666D02*
X28333928Y-72888571D01*
X28333928Y-72888571D02*
X28381547Y-72698095D01*
X28381547Y-72698095D02*
X28429166Y-72602857D01*
X28429166Y-72602857D02*
X28476785Y-72555238D01*
X28476785Y-72555238D02*
X28572023Y-72507619D01*
X29333928Y-73412380D02*
X29381547Y-73460000D01*
X29381547Y-73460000D02*
X29333928Y-73507619D01*
X29333928Y-73507619D02*
X29286309Y-73460000D01*
X29286309Y-73460000D02*
X29333928Y-73412380D01*
X29333928Y-73412380D02*
X29333928Y-73507619D01*
X30238689Y-72507619D02*
X30048213Y-72507619D01*
X30048213Y-72507619D02*
X29952975Y-72555238D01*
X29952975Y-72555238D02*
X29905356Y-72602857D01*
X29905356Y-72602857D02*
X29810118Y-72745714D01*
X29810118Y-72745714D02*
X29762499Y-72936190D01*
X29762499Y-72936190D02*
X29762499Y-73317142D01*
X29762499Y-73317142D02*
X29810118Y-73412380D01*
X29810118Y-73412380D02*
X29857737Y-73460000D01*
X29857737Y-73460000D02*
X29952975Y-73507619D01*
X29952975Y-73507619D02*
X30143451Y-73507619D01*
X30143451Y-73507619D02*
X30238689Y-73460000D01*
X30238689Y-73460000D02*
X30286308Y-73412380D01*
X30286308Y-73412380D02*
X30333927Y-73317142D01*
X30333927Y-73317142D02*
X30333927Y-73079047D01*
X30333927Y-73079047D02*
X30286308Y-72983809D01*
X30286308Y-72983809D02*
X30238689Y-72936190D01*
X30238689Y-72936190D02*
X30143451Y-72888571D01*
X30143451Y-72888571D02*
X29952975Y-72888571D01*
X29952975Y-72888571D02*
X29857737Y-72936190D01*
X29857737Y-72936190D02*
X29810118Y-72983809D01*
X29810118Y-72983809D02*
X29762499Y-73079047D01*
X30762499Y-73507619D02*
X30762499Y-72840952D01*
X30762499Y-72936190D02*
X30810118Y-72888571D01*
X30810118Y-72888571D02*
X30905356Y-72840952D01*
X30905356Y-72840952D02*
X31048213Y-72840952D01*
X31048213Y-72840952D02*
X31143451Y-72888571D01*
X31143451Y-72888571D02*
X31191070Y-72983809D01*
X31191070Y-72983809D02*
X31191070Y-73507619D01*
X31191070Y-72983809D02*
X31238689Y-72888571D01*
X31238689Y-72888571D02*
X31333927Y-72840952D01*
X31333927Y-72840952D02*
X31476784Y-72840952D01*
X31476784Y-72840952D02*
X31572023Y-72888571D01*
X31572023Y-72888571D02*
X31619642Y-72983809D01*
X31619642Y-72983809D02*
X31619642Y-73507619D01*
X32095832Y-73507619D02*
X32095832Y-72840952D01*
X32095832Y-72936190D02*
X32143451Y-72888571D01*
X32143451Y-72888571D02*
X32238689Y-72840952D01*
X32238689Y-72840952D02*
X32381546Y-72840952D01*
X32381546Y-72840952D02*
X32476784Y-72888571D01*
X32476784Y-72888571D02*
X32524403Y-72983809D01*
X32524403Y-72983809D02*
X32524403Y-73507619D01*
X32524403Y-72983809D02*
X32572022Y-72888571D01*
X32572022Y-72888571D02*
X32667260Y-72840952D01*
X32667260Y-72840952D02*
X32810117Y-72840952D01*
X32810117Y-72840952D02*
X32905356Y-72888571D01*
X32905356Y-72888571D02*
X32952975Y-72983809D01*
X32952975Y-72983809D02*
X32952975Y-73507619D01*
X34143451Y-73460000D02*
X34238689Y-73507619D01*
X34238689Y-73507619D02*
X34429165Y-73507619D01*
X34429165Y-73507619D02*
X34524403Y-73460000D01*
X34524403Y-73460000D02*
X34572022Y-73364761D01*
X34572022Y-73364761D02*
X34572022Y-73317142D01*
X34572022Y-73317142D02*
X34524403Y-73221904D01*
X34524403Y-73221904D02*
X34429165Y-73174285D01*
X34429165Y-73174285D02*
X34286308Y-73174285D01*
X34286308Y-73174285D02*
X34191070Y-73126666D01*
X34191070Y-73126666D02*
X34143451Y-73031428D01*
X34143451Y-73031428D02*
X34143451Y-72983809D01*
X34143451Y-72983809D02*
X34191070Y-72888571D01*
X34191070Y-72888571D02*
X34286308Y-72840952D01*
X34286308Y-72840952D02*
X34429165Y-72840952D01*
X34429165Y-72840952D02*
X34524403Y-72888571D01*
X35000594Y-72840952D02*
X35000594Y-73840952D01*
X35000594Y-72888571D02*
X35095832Y-72840952D01*
X35095832Y-72840952D02*
X35286308Y-72840952D01*
X35286308Y-72840952D02*
X35381546Y-72888571D01*
X35381546Y-72888571D02*
X35429165Y-72936190D01*
X35429165Y-72936190D02*
X35476784Y-73031428D01*
X35476784Y-73031428D02*
X35476784Y-73317142D01*
X35476784Y-73317142D02*
X35429165Y-73412380D01*
X35429165Y-73412380D02*
X35381546Y-73460000D01*
X35381546Y-73460000D02*
X35286308Y-73507619D01*
X35286308Y-73507619D02*
X35095832Y-73507619D01*
X35095832Y-73507619D02*
X35000594Y-73460000D01*
X36333927Y-73507619D02*
X36333927Y-72983809D01*
X36333927Y-72983809D02*
X36286308Y-72888571D01*
X36286308Y-72888571D02*
X36191070Y-72840952D01*
X36191070Y-72840952D02*
X36000594Y-72840952D01*
X36000594Y-72840952D02*
X35905356Y-72888571D01*
X36333927Y-73460000D02*
X36238689Y-73507619D01*
X36238689Y-73507619D02*
X36000594Y-73507619D01*
X36000594Y-73507619D02*
X35905356Y-73460000D01*
X35905356Y-73460000D02*
X35857737Y-73364761D01*
X35857737Y-73364761D02*
X35857737Y-73269523D01*
X35857737Y-73269523D02*
X35905356Y-73174285D01*
X35905356Y-73174285D02*
X36000594Y-73126666D01*
X36000594Y-73126666D02*
X36238689Y-73126666D01*
X36238689Y-73126666D02*
X36333927Y-73079047D01*
X37238689Y-73460000D02*
X37143451Y-73507619D01*
X37143451Y-73507619D02*
X36952975Y-73507619D01*
X36952975Y-73507619D02*
X36857737Y-73460000D01*
X36857737Y-73460000D02*
X36810118Y-73412380D01*
X36810118Y-73412380D02*
X36762499Y-73317142D01*
X36762499Y-73317142D02*
X36762499Y-73031428D01*
X36762499Y-73031428D02*
X36810118Y-72936190D01*
X36810118Y-72936190D02*
X36857737Y-72888571D01*
X36857737Y-72888571D02*
X36952975Y-72840952D01*
X36952975Y-72840952D02*
X37143451Y-72840952D01*
X37143451Y-72840952D02*
X37238689Y-72888571D01*
X38048213Y-73460000D02*
X37952975Y-73507619D01*
X37952975Y-73507619D02*
X37762499Y-73507619D01*
X37762499Y-73507619D02*
X37667261Y-73460000D01*
X37667261Y-73460000D02*
X37619642Y-73364761D01*
X37619642Y-73364761D02*
X37619642Y-72983809D01*
X37619642Y-72983809D02*
X37667261Y-72888571D01*
X37667261Y-72888571D02*
X37762499Y-72840952D01*
X37762499Y-72840952D02*
X37952975Y-72840952D01*
X37952975Y-72840952D02*
X38048213Y-72888571D01*
X38048213Y-72888571D02*
X38095832Y-72983809D01*
X38095832Y-72983809D02*
X38095832Y-73079047D01*
X38095832Y-73079047D02*
X37619642Y-73174285D01*
X38572023Y-73460000D02*
X38572023Y-73507619D01*
X38572023Y-73507619D02*
X38524404Y-73602857D01*
X38524404Y-73602857D02*
X38476785Y-73650476D01*
X40238689Y-72507619D02*
X39762499Y-72507619D01*
X39762499Y-72507619D02*
X39714880Y-72983809D01*
X39714880Y-72983809D02*
X39762499Y-72936190D01*
X39762499Y-72936190D02*
X39857737Y-72888571D01*
X39857737Y-72888571D02*
X40095832Y-72888571D01*
X40095832Y-72888571D02*
X40191070Y-72936190D01*
X40191070Y-72936190D02*
X40238689Y-72983809D01*
X40238689Y-72983809D02*
X40286308Y-73079047D01*
X40286308Y-73079047D02*
X40286308Y-73317142D01*
X40286308Y-73317142D02*
X40238689Y-73412380D01*
X40238689Y-73412380D02*
X40191070Y-73460000D01*
X40191070Y-73460000D02*
X40095832Y-73507619D01*
X40095832Y-73507619D02*
X39857737Y-73507619D01*
X39857737Y-73507619D02*
X39762499Y-73460000D01*
X39762499Y-73460000D02*
X39714880Y-73412380D01*
X41333928Y-72840952D02*
X41714880Y-72840952D01*
X41476785Y-72507619D02*
X41476785Y-73364761D01*
X41476785Y-73364761D02*
X41524404Y-73460000D01*
X41524404Y-73460000D02*
X41619642Y-73507619D01*
X41619642Y-73507619D02*
X41714880Y-73507619D01*
X42476785Y-72840952D02*
X42476785Y-73507619D01*
X42048214Y-72840952D02*
X42048214Y-73364761D01*
X42048214Y-73364761D02*
X42095833Y-73460000D01*
X42095833Y-73460000D02*
X42191071Y-73507619D01*
X42191071Y-73507619D02*
X42333928Y-73507619D01*
X42333928Y-73507619D02*
X42429166Y-73460000D01*
X42429166Y-73460000D02*
X42476785Y-73412380D01*
X42952976Y-73507619D02*
X42952976Y-72840952D01*
X42952976Y-73031428D02*
X43000595Y-72936190D01*
X43000595Y-72936190D02*
X43048214Y-72888571D01*
X43048214Y-72888571D02*
X43143452Y-72840952D01*
X43143452Y-72840952D02*
X43238690Y-72840952D01*
X43572024Y-72840952D02*
X43572024Y-73507619D01*
X43572024Y-72936190D02*
X43619643Y-72888571D01*
X43619643Y-72888571D02*
X43714881Y-72840952D01*
X43714881Y-72840952D02*
X43857738Y-72840952D01*
X43857738Y-72840952D02*
X43952976Y-72888571D01*
X43952976Y-72888571D02*
X44000595Y-72983809D01*
X44000595Y-72983809D02*
X44000595Y-73507619D01*
X44429167Y-73460000D02*
X44524405Y-73507619D01*
X44524405Y-73507619D02*
X44714881Y-73507619D01*
X44714881Y-73507619D02*
X44810119Y-73460000D01*
X44810119Y-73460000D02*
X44857738Y-73364761D01*
X44857738Y-73364761D02*
X44857738Y-73317142D01*
X44857738Y-73317142D02*
X44810119Y-73221904D01*
X44810119Y-73221904D02*
X44714881Y-73174285D01*
X44714881Y-73174285D02*
X44572024Y-73174285D01*
X44572024Y-73174285D02*
X44476786Y-73126666D01*
X44476786Y-73126666D02*
X44429167Y-73031428D01*
X44429167Y-73031428D02*
X44429167Y-72983809D01*
X44429167Y-72983809D02*
X44476786Y-72888571D01*
X44476786Y-72888571D02*
X44572024Y-72840952D01*
X44572024Y-72840952D02*
X44714881Y-72840952D01*
X44714881Y-72840952D02*
X44810119Y-72888571D01*
X8952976Y-74222857D02*
X9000595Y-74175238D01*
X9000595Y-74175238D02*
X9095833Y-74127619D01*
X9095833Y-74127619D02*
X9333928Y-74127619D01*
X9333928Y-74127619D02*
X9429166Y-74175238D01*
X9429166Y-74175238D02*
X9476785Y-74222857D01*
X9476785Y-74222857D02*
X9524404Y-74318095D01*
X9524404Y-74318095D02*
X9524404Y-74413333D01*
X9524404Y-74413333D02*
X9476785Y-74556190D01*
X9476785Y-74556190D02*
X8905357Y-75127619D01*
X8905357Y-75127619D02*
X9524404Y-75127619D01*
X9952976Y-75032380D02*
X10000595Y-75080000D01*
X10000595Y-75080000D02*
X9952976Y-75127619D01*
X9952976Y-75127619D02*
X9905357Y-75080000D01*
X9905357Y-75080000D02*
X9952976Y-75032380D01*
X9952976Y-75032380D02*
X9952976Y-75127619D01*
X10333928Y-74127619D02*
X11000594Y-74127619D01*
X11000594Y-74127619D02*
X10572023Y-75127619D01*
X11810118Y-74460952D02*
X11810118Y-75127619D01*
X11381547Y-74460952D02*
X11381547Y-74984761D01*
X11381547Y-74984761D02*
X11429166Y-75080000D01*
X11429166Y-75080000D02*
X11524404Y-75127619D01*
X11524404Y-75127619D02*
X11667261Y-75127619D01*
X11667261Y-75127619D02*
X11762499Y-75080000D01*
X11762499Y-75080000D02*
X11810118Y-75032380D01*
X12286309Y-75127619D02*
X12286309Y-74127619D01*
X12286309Y-74603809D02*
X12857737Y-74603809D01*
X12857737Y-75127619D02*
X12857737Y-74127619D01*
X13381547Y-75080000D02*
X13381547Y-75127619D01*
X13381547Y-75127619D02*
X13333928Y-75222857D01*
X13333928Y-75222857D02*
X13286309Y-75270476D01*
X14524404Y-74222857D02*
X14572023Y-74175238D01*
X14572023Y-74175238D02*
X14667261Y-74127619D01*
X14667261Y-74127619D02*
X14905356Y-74127619D01*
X14905356Y-74127619D02*
X15000594Y-74175238D01*
X15000594Y-74175238D02*
X15048213Y-74222857D01*
X15048213Y-74222857D02*
X15095832Y-74318095D01*
X15095832Y-74318095D02*
X15095832Y-74413333D01*
X15095832Y-74413333D02*
X15048213Y-74556190D01*
X15048213Y-74556190D02*
X14476785Y-75127619D01*
X14476785Y-75127619D02*
X15095832Y-75127619D01*
X15524404Y-75032380D02*
X15572023Y-75080000D01*
X15572023Y-75080000D02*
X15524404Y-75127619D01*
X15524404Y-75127619D02*
X15476785Y-75080000D01*
X15476785Y-75080000D02*
X15524404Y-75032380D01*
X15524404Y-75032380D02*
X15524404Y-75127619D01*
X16524403Y-75127619D02*
X15952975Y-75127619D01*
X16238689Y-75127619D02*
X16238689Y-74127619D01*
X16238689Y-74127619D02*
X16143451Y-74270476D01*
X16143451Y-74270476D02*
X16048213Y-74365714D01*
X16048213Y-74365714D02*
X15952975Y-74413333D01*
X16952975Y-74460952D02*
X16952975Y-75460952D01*
X16952975Y-74508571D02*
X17048213Y-74460952D01*
X17048213Y-74460952D02*
X17238689Y-74460952D01*
X17238689Y-74460952D02*
X17333927Y-74508571D01*
X17333927Y-74508571D02*
X17381546Y-74556190D01*
X17381546Y-74556190D02*
X17429165Y-74651428D01*
X17429165Y-74651428D02*
X17429165Y-74937142D01*
X17429165Y-74937142D02*
X17381546Y-75032380D01*
X17381546Y-75032380D02*
X17333927Y-75080000D01*
X17333927Y-75080000D02*
X17238689Y-75127619D01*
X17238689Y-75127619D02*
X17048213Y-75127619D01*
X17048213Y-75127619D02*
X16952975Y-75080000D01*
X18191070Y-74603809D02*
X17857737Y-74603809D01*
X17857737Y-75127619D02*
X17857737Y-74127619D01*
X17857737Y-74127619D02*
X18333927Y-74127619D01*
X18762499Y-75080000D02*
X18762499Y-75127619D01*
X18762499Y-75127619D02*
X18714880Y-75222857D01*
X18714880Y-75222857D02*
X18667261Y-75270476D01*
X19905356Y-74222857D02*
X19952975Y-74175238D01*
X19952975Y-74175238D02*
X20048213Y-74127619D01*
X20048213Y-74127619D02*
X20286308Y-74127619D01*
X20286308Y-74127619D02*
X20381546Y-74175238D01*
X20381546Y-74175238D02*
X20429165Y-74222857D01*
X20429165Y-74222857D02*
X20476784Y-74318095D01*
X20476784Y-74318095D02*
X20476784Y-74413333D01*
X20476784Y-74413333D02*
X20429165Y-74556190D01*
X20429165Y-74556190D02*
X19857737Y-75127619D01*
X19857737Y-75127619D02*
X20476784Y-75127619D01*
X20905356Y-75032380D02*
X20952975Y-75080000D01*
X20952975Y-75080000D02*
X20905356Y-75127619D01*
X20905356Y-75127619D02*
X20857737Y-75080000D01*
X20857737Y-75080000D02*
X20905356Y-75032380D01*
X20905356Y-75032380D02*
X20905356Y-75127619D01*
X21333927Y-74222857D02*
X21381546Y-74175238D01*
X21381546Y-74175238D02*
X21476784Y-74127619D01*
X21476784Y-74127619D02*
X21714879Y-74127619D01*
X21714879Y-74127619D02*
X21810117Y-74175238D01*
X21810117Y-74175238D02*
X21857736Y-74222857D01*
X21857736Y-74222857D02*
X21905355Y-74318095D01*
X21905355Y-74318095D02*
X21905355Y-74413333D01*
X21905355Y-74413333D02*
X21857736Y-74556190D01*
X21857736Y-74556190D02*
X21286308Y-75127619D01*
X21286308Y-75127619D02*
X21905355Y-75127619D01*
X22762498Y-74127619D02*
X22572022Y-74127619D01*
X22572022Y-74127619D02*
X22476784Y-74175238D01*
X22476784Y-74175238D02*
X22429165Y-74222857D01*
X22429165Y-74222857D02*
X22333927Y-74365714D01*
X22333927Y-74365714D02*
X22286308Y-74556190D01*
X22286308Y-74556190D02*
X22286308Y-74937142D01*
X22286308Y-74937142D02*
X22333927Y-75032380D01*
X22333927Y-75032380D02*
X22381546Y-75080000D01*
X22381546Y-75080000D02*
X22476784Y-75127619D01*
X22476784Y-75127619D02*
X22667260Y-75127619D01*
X22667260Y-75127619D02*
X22762498Y-75080000D01*
X22762498Y-75080000D02*
X22810117Y-75032380D01*
X22810117Y-75032380D02*
X22857736Y-74937142D01*
X22857736Y-74937142D02*
X22857736Y-74699047D01*
X22857736Y-74699047D02*
X22810117Y-74603809D01*
X22810117Y-74603809D02*
X22762498Y-74556190D01*
X22762498Y-74556190D02*
X22667260Y-74508571D01*
X22667260Y-74508571D02*
X22476784Y-74508571D01*
X22476784Y-74508571D02*
X22381546Y-74556190D01*
X22381546Y-74556190D02*
X22333927Y-74603809D01*
X22333927Y-74603809D02*
X22286308Y-74699047D01*
X23429165Y-75127619D02*
X23333927Y-75080000D01*
X23333927Y-75080000D02*
X23286308Y-75032380D01*
X23286308Y-75032380D02*
X23238689Y-74937142D01*
X23238689Y-74937142D02*
X23238689Y-74651428D01*
X23238689Y-74651428D02*
X23286308Y-74556190D01*
X23286308Y-74556190D02*
X23333927Y-74508571D01*
X23333927Y-74508571D02*
X23429165Y-74460952D01*
X23429165Y-74460952D02*
X23572022Y-74460952D01*
X23572022Y-74460952D02*
X23667260Y-74508571D01*
X23667260Y-74508571D02*
X23714879Y-74556190D01*
X23714879Y-74556190D02*
X23762498Y-74651428D01*
X23762498Y-74651428D02*
X23762498Y-74937142D01*
X23762498Y-74937142D02*
X23714879Y-75032380D01*
X23714879Y-75032380D02*
X23667260Y-75080000D01*
X23667260Y-75080000D02*
X23572022Y-75127619D01*
X23572022Y-75127619D02*
X23429165Y-75127619D01*
X24191070Y-75127619D02*
X24191070Y-74127619D01*
X24619641Y-75127619D02*
X24619641Y-74603809D01*
X24619641Y-74603809D02*
X24572022Y-74508571D01*
X24572022Y-74508571D02*
X24476784Y-74460952D01*
X24476784Y-74460952D02*
X24333927Y-74460952D01*
X24333927Y-74460952D02*
X24238689Y-74508571D01*
X24238689Y-74508571D02*
X24191070Y-74556190D01*
X25095832Y-75127619D02*
X25095832Y-74460952D01*
X25095832Y-74556190D02*
X25143451Y-74508571D01*
X25143451Y-74508571D02*
X25238689Y-74460952D01*
X25238689Y-74460952D02*
X25381546Y-74460952D01*
X25381546Y-74460952D02*
X25476784Y-74508571D01*
X25476784Y-74508571D02*
X25524403Y-74603809D01*
X25524403Y-74603809D02*
X25524403Y-75127619D01*
X25524403Y-74603809D02*
X25572022Y-74508571D01*
X25572022Y-74508571D02*
X25667260Y-74460952D01*
X25667260Y-74460952D02*
X25810117Y-74460952D01*
X25810117Y-74460952D02*
X25905356Y-74508571D01*
X25905356Y-74508571D02*
X25952975Y-74603809D01*
X25952975Y-74603809D02*
X25952975Y-75127619D01*
X26476784Y-75080000D02*
X26476784Y-75127619D01*
X26476784Y-75127619D02*
X26429165Y-75222857D01*
X26429165Y-75222857D02*
X26381546Y-75270476D01*
X28095831Y-74127619D02*
X27905355Y-74127619D01*
X27905355Y-74127619D02*
X27810117Y-74175238D01*
X27810117Y-74175238D02*
X27762498Y-74222857D01*
X27762498Y-74222857D02*
X27667260Y-74365714D01*
X27667260Y-74365714D02*
X27619641Y-74556190D01*
X27619641Y-74556190D02*
X27619641Y-74937142D01*
X27619641Y-74937142D02*
X27667260Y-75032380D01*
X27667260Y-75032380D02*
X27714879Y-75080000D01*
X27714879Y-75080000D02*
X27810117Y-75127619D01*
X27810117Y-75127619D02*
X28000593Y-75127619D01*
X28000593Y-75127619D02*
X28095831Y-75080000D01*
X28095831Y-75080000D02*
X28143450Y-75032380D01*
X28143450Y-75032380D02*
X28191069Y-74937142D01*
X28191069Y-74937142D02*
X28191069Y-74699047D01*
X28191069Y-74699047D02*
X28143450Y-74603809D01*
X28143450Y-74603809D02*
X28095831Y-74556190D01*
X28095831Y-74556190D02*
X28000593Y-74508571D01*
X28000593Y-74508571D02*
X27810117Y-74508571D01*
X27810117Y-74508571D02*
X27714879Y-74556190D01*
X27714879Y-74556190D02*
X27667260Y-74603809D01*
X27667260Y-74603809D02*
X27619641Y-74699047D01*
X29048212Y-74127619D02*
X28857736Y-74127619D01*
X28857736Y-74127619D02*
X28762498Y-74175238D01*
X28762498Y-74175238D02*
X28714879Y-74222857D01*
X28714879Y-74222857D02*
X28619641Y-74365714D01*
X28619641Y-74365714D02*
X28572022Y-74556190D01*
X28572022Y-74556190D02*
X28572022Y-74937142D01*
X28572022Y-74937142D02*
X28619641Y-75032380D01*
X28619641Y-75032380D02*
X28667260Y-75080000D01*
X28667260Y-75080000D02*
X28762498Y-75127619D01*
X28762498Y-75127619D02*
X28952974Y-75127619D01*
X28952974Y-75127619D02*
X29048212Y-75080000D01*
X29048212Y-75080000D02*
X29095831Y-75032380D01*
X29095831Y-75032380D02*
X29143450Y-74937142D01*
X29143450Y-74937142D02*
X29143450Y-74699047D01*
X29143450Y-74699047D02*
X29095831Y-74603809D01*
X29095831Y-74603809D02*
X29048212Y-74556190D01*
X29048212Y-74556190D02*
X28952974Y-74508571D01*
X28952974Y-74508571D02*
X28762498Y-74508571D01*
X28762498Y-74508571D02*
X28667260Y-74556190D01*
X28667260Y-74556190D02*
X28619641Y-74603809D01*
X28619641Y-74603809D02*
X28572022Y-74699047D01*
X29572022Y-75127619D02*
X29572022Y-74127619D01*
X29572022Y-74127619D02*
X29905355Y-74841904D01*
X29905355Y-74841904D02*
X30238688Y-74127619D01*
X30238688Y-74127619D02*
X30238688Y-75127619D01*
X30714879Y-75127619D02*
X30714879Y-74127619D01*
X30714879Y-74603809D02*
X31286307Y-74603809D01*
X31286307Y-75127619D02*
X31286307Y-74127619D01*
X31667260Y-74460952D02*
X32191069Y-74460952D01*
X32191069Y-74460952D02*
X31667260Y-75127619D01*
X31667260Y-75127619D02*
X32191069Y-75127619D01*
G04 #@! TO.C,FD*
X32730357Y-21190809D02*
X32397024Y-21190809D01*
X32397024Y-21714619D02*
X32397024Y-20714619D01*
X32397024Y-20714619D02*
X32873214Y-20714619D01*
X33254167Y-21714619D02*
X33254167Y-20714619D01*
X33254167Y-20714619D02*
X33492262Y-20714619D01*
X33492262Y-20714619D02*
X33635119Y-20762238D01*
X33635119Y-20762238D02*
X33730357Y-20857476D01*
X33730357Y-20857476D02*
X33777976Y-20952714D01*
X33777976Y-20952714D02*
X33825595Y-21143190D01*
X33825595Y-21143190D02*
X33825595Y-21286047D01*
X33825595Y-21286047D02*
X33777976Y-21476523D01*
X33777976Y-21476523D02*
X33730357Y-21571761D01*
X33730357Y-21571761D02*
X33635119Y-21667000D01*
X33635119Y-21667000D02*
X33492262Y-21714619D01*
X33492262Y-21714619D02*
X33254167Y-21714619D01*
G04 #@! TO.C,J1*
X50650119Y-19283333D02*
X51364404Y-19283333D01*
X51364404Y-19283333D02*
X51507261Y-19330952D01*
X51507261Y-19330952D02*
X51602500Y-19426190D01*
X51602500Y-19426190D02*
X51650119Y-19569047D01*
X51650119Y-19569047D02*
X51650119Y-19664285D01*
X51650119Y-18283333D02*
X51650119Y-18854761D01*
X51650119Y-18569047D02*
X50650119Y-18569047D01*
X50650119Y-18569047D02*
X50792976Y-18664285D01*
X50792976Y-18664285D02*
X50888214Y-18759523D01*
X50888214Y-18759523D02*
X50935833Y-18854761D01*
G04 #@! TO.C,VOUT*
X18925595Y-20714619D02*
X19258928Y-21714619D01*
X19258928Y-21714619D02*
X19592261Y-20714619D01*
X20116071Y-20714619D02*
X20306547Y-20714619D01*
X20306547Y-20714619D02*
X20401785Y-20762238D01*
X20401785Y-20762238D02*
X20497023Y-20857476D01*
X20497023Y-20857476D02*
X20544642Y-21047952D01*
X20544642Y-21047952D02*
X20544642Y-21381285D01*
X20544642Y-21381285D02*
X20497023Y-21571761D01*
X20497023Y-21571761D02*
X20401785Y-21667000D01*
X20401785Y-21667000D02*
X20306547Y-21714619D01*
X20306547Y-21714619D02*
X20116071Y-21714619D01*
X20116071Y-21714619D02*
X20020833Y-21667000D01*
X20020833Y-21667000D02*
X19925595Y-21571761D01*
X19925595Y-21571761D02*
X19877976Y-21381285D01*
X19877976Y-21381285D02*
X19877976Y-21047952D01*
X19877976Y-21047952D02*
X19925595Y-20857476D01*
X19925595Y-20857476D02*
X20020833Y-20762238D01*
X20020833Y-20762238D02*
X20116071Y-20714619D01*
X20973214Y-20714619D02*
X20973214Y-21524142D01*
X20973214Y-21524142D02*
X21020833Y-21619380D01*
X21020833Y-21619380D02*
X21068452Y-21667000D01*
X21068452Y-21667000D02*
X21163690Y-21714619D01*
X21163690Y-21714619D02*
X21354166Y-21714619D01*
X21354166Y-21714619D02*
X21449404Y-21667000D01*
X21449404Y-21667000D02*
X21497023Y-21619380D01*
X21497023Y-21619380D02*
X21544642Y-21524142D01*
X21544642Y-21524142D02*
X21544642Y-20714619D01*
X21877976Y-20714619D02*
X22449404Y-20714619D01*
X22163690Y-21714619D02*
X22163690Y-20714619D01*
G04 #@! TO.C,C1*
X29470833Y-18817380D02*
X29423214Y-18865000D01*
X29423214Y-18865000D02*
X29280357Y-18912619D01*
X29280357Y-18912619D02*
X29185119Y-18912619D01*
X29185119Y-18912619D02*
X29042262Y-18865000D01*
X29042262Y-18865000D02*
X28947024Y-18769761D01*
X28947024Y-18769761D02*
X28899405Y-18674523D01*
X28899405Y-18674523D02*
X28851786Y-18484047D01*
X28851786Y-18484047D02*
X28851786Y-18341190D01*
X28851786Y-18341190D02*
X28899405Y-18150714D01*
X28899405Y-18150714D02*
X28947024Y-18055476D01*
X28947024Y-18055476D02*
X29042262Y-17960238D01*
X29042262Y-17960238D02*
X29185119Y-17912619D01*
X29185119Y-17912619D02*
X29280357Y-17912619D01*
X29280357Y-17912619D02*
X29423214Y-17960238D01*
X29423214Y-17960238D02*
X29470833Y-18007857D01*
X30423214Y-18912619D02*
X29851786Y-18912619D01*
X30137500Y-18912619D02*
X30137500Y-17912619D01*
X30137500Y-17912619D02*
X30042262Y-18055476D01*
X30042262Y-18055476D02*
X29947024Y-18150714D01*
X29947024Y-18150714D02*
X29851786Y-18198333D01*
G04 #@! TO.C,U2*
X26225595Y-19762619D02*
X26225595Y-20572142D01*
X26225595Y-20572142D02*
X26273214Y-20667380D01*
X26273214Y-20667380D02*
X26320833Y-20715000D01*
X26320833Y-20715000D02*
X26416071Y-20762619D01*
X26416071Y-20762619D02*
X26606547Y-20762619D01*
X26606547Y-20762619D02*
X26701785Y-20715000D01*
X26701785Y-20715000D02*
X26749404Y-20667380D01*
X26749404Y-20667380D02*
X26797023Y-20572142D01*
X26797023Y-20572142D02*
X26797023Y-19762619D01*
X27225595Y-19857857D02*
X27273214Y-19810238D01*
X27273214Y-19810238D02*
X27368452Y-19762619D01*
X27368452Y-19762619D02*
X27606547Y-19762619D01*
X27606547Y-19762619D02*
X27701785Y-19810238D01*
X27701785Y-19810238D02*
X27749404Y-19857857D01*
X27749404Y-19857857D02*
X27797023Y-19953095D01*
X27797023Y-19953095D02*
X27797023Y-20048333D01*
X27797023Y-20048333D02*
X27749404Y-20191190D01*
X27749404Y-20191190D02*
X27177976Y-20762619D01*
X27177976Y-20762619D02*
X27797023Y-20762619D01*
G04 #@! TO.C,kibuzzard-645C118B*
G36*
X42012204Y-21533319D02*
G01*
X42033873Y-21616662D01*
X42031095Y-21656112D01*
X42019427Y-21686671D01*
X41990118Y-21710841D01*
X41935528Y-21718897D01*
X41879687Y-21713480D01*
X41846628Y-21697228D01*
X41830375Y-21665419D01*
X41824958Y-21613329D01*
X41830792Y-21560544D01*
X41848294Y-21531096D01*
X41933305Y-21511094D01*
X42012204Y-21533319D01*
G37*
G36*
X42012204Y-21887252D02*
G01*
X42028456Y-21919061D01*
X42033873Y-21971151D01*
X42031095Y-22010601D01*
X42019427Y-22041160D01*
X41990118Y-22065330D01*
X41935528Y-22073386D01*
X41879687Y-22067969D01*
X41846628Y-22051717D01*
X41830375Y-22019907D01*
X41824958Y-21967818D01*
X41830792Y-21915033D01*
X41848294Y-21885585D01*
X41933305Y-21865583D01*
X42012204Y-21887252D01*
G37*
G36*
X38647339Y-21220780D02*
G01*
X38675676Y-21243282D01*
X38686232Y-21272731D01*
X38687899Y-21311069D01*
X38686232Y-21349407D01*
X38676231Y-21378299D01*
X38646783Y-21401080D01*
X38590665Y-21407747D01*
X38534547Y-21401080D01*
X38505099Y-21377744D01*
X38495097Y-21348296D01*
X38493431Y-21309958D01*
X38495097Y-21271619D01*
X38504543Y-21243282D01*
X38533991Y-21220780D01*
X38591221Y-21213279D01*
X38647339Y-21220780D01*
G37*
G36*
X38666786Y-21506649D02*
G01*
X38686788Y-21554432D01*
X38687899Y-21586659D01*
X38687899Y-21975596D01*
X38686232Y-22013934D01*
X38675676Y-22043383D01*
X38647061Y-22065052D01*
X38590109Y-22072275D01*
X38533713Y-22064774D01*
X38504543Y-22042271D01*
X38495097Y-22013379D01*
X38493431Y-21974485D01*
X38493431Y-21584436D01*
X38495097Y-21546098D01*
X38504543Y-21516650D01*
X38533991Y-21494981D01*
X38591221Y-21487757D01*
X38666786Y-21506649D01*
G37*
G36*
X38001980Y-21268008D02*
G01*
X38032262Y-21298845D01*
X38037818Y-21356630D01*
X38037818Y-21907810D01*
X38340078Y-21907810D01*
X38393418Y-21916144D01*
X38415643Y-21942259D01*
X38421199Y-21989487D01*
X38415643Y-22036715D01*
X38396752Y-22061163D01*
X38338967Y-22072275D01*
X37938917Y-22072275D01*
X37877242Y-22061718D01*
X37847794Y-22030048D01*
X37841127Y-21973374D01*
X37841127Y-21355519D01*
X37842794Y-21317181D01*
X37853351Y-21287732D01*
X37882799Y-21265230D01*
X37940028Y-21257729D01*
X38001980Y-21268008D01*
G37*
G36*
X39142401Y-21491647D02*
G01*
X39201297Y-21514427D01*
X39219077Y-21525540D01*
X39250192Y-21546654D01*
X39279084Y-21597216D01*
X39255748Y-21661112D01*
X39216577Y-21706952D01*
X39179072Y-21722231D01*
X39119064Y-21697784D01*
X39061835Y-21678892D01*
X38992382Y-21705562D01*
X38960156Y-21779461D01*
X38991271Y-21852803D01*
X39057390Y-21878917D01*
X39122954Y-21858359D01*
X39172404Y-21837801D01*
X39209353Y-21852525D01*
X39253526Y-21896697D01*
X39279084Y-21954482D01*
X39263805Y-21995321D01*
X39217966Y-22033381D01*
X39147401Y-22066719D01*
X39062391Y-22077831D01*
X38994357Y-22069559D01*
X38928053Y-22044741D01*
X38863477Y-22003378D01*
X38822083Y-21961845D01*
X38789023Y-21908366D01*
X38767354Y-21845858D01*
X38760131Y-21777238D01*
X38767354Y-21708896D01*
X38789023Y-21647222D01*
X38822083Y-21594576D01*
X38863477Y-21553321D01*
X38926324Y-21512575D01*
X38991888Y-21488128D01*
X39060168Y-21479979D01*
X39142401Y-21491647D01*
G37*
G36*
X40383605Y-21496092D02*
G01*
X40445280Y-21524429D01*
X40498681Y-21571657D01*
X40539736Y-21632467D01*
X40564368Y-21701550D01*
X40572579Y-21778905D01*
X40572579Y-21974485D01*
X40570913Y-22012823D01*
X40561467Y-22041160D01*
X40532019Y-22063663D01*
X40474789Y-22071164D01*
X40412559Y-22060885D01*
X40383667Y-22030048D01*
X40376999Y-21973374D01*
X40376999Y-21777794D01*
X40350885Y-21706674D01*
X40280876Y-21681115D01*
X40209756Y-21707785D01*
X40182531Y-21777794D01*
X40182531Y-21974485D01*
X40180864Y-22012823D01*
X40170307Y-22041160D01*
X40141692Y-22063663D01*
X40084741Y-22071164D01*
X40028345Y-22063663D01*
X39999174Y-22041160D01*
X39989729Y-22011712D01*
X39988062Y-21973374D01*
X39988062Y-21579991D01*
X39989729Y-21542764D01*
X40000286Y-21514427D01*
X40029456Y-21493592D01*
X40085852Y-21486646D01*
X40140581Y-21493036D01*
X40169196Y-21512205D01*
X40180308Y-21557766D01*
X40200311Y-21535541D01*
X40230314Y-21512205D01*
X40313658Y-21486646D01*
X40383605Y-21496092D01*
G37*
G36*
X39543562Y-21843358D02*
G01*
X39580233Y-21895586D01*
X39653576Y-21916700D01*
X39711083Y-21913366D01*
X39754699Y-21903365D01*
X39766923Y-21898920D01*
X39811373Y-21886696D01*
X39872492Y-21936702D01*
X39886938Y-21987820D01*
X39872145Y-22031089D01*
X39827764Y-22061996D01*
X39753796Y-22080540D01*
X39650242Y-22086721D01*
X39572593Y-22079637D01*
X39504112Y-22058384D01*
X39447300Y-22025464D01*
X39404656Y-21983375D01*
X39365762Y-21921022D01*
X39342426Y-21853976D01*
X39334647Y-21782239D01*
X39339268Y-21742234D01*
X39541339Y-21742234D01*
X39681357Y-21742234D01*
X39723584Y-21706674D01*
X39704137Y-21665557D01*
X39648575Y-21650000D01*
X39576899Y-21679448D01*
X39541339Y-21742234D01*
X39339268Y-21742234D01*
X39344710Y-21695129D01*
X39374899Y-21620490D01*
X39425214Y-21558322D01*
X39490592Y-21511711D01*
X39565972Y-21483745D01*
X39651353Y-21474422D01*
X39723445Y-21481229D01*
X39785259Y-21501648D01*
X39836793Y-21535680D01*
X39878048Y-21583325D01*
X39906385Y-21643749D01*
X39915831Y-21709452D01*
X39907357Y-21768904D01*
X39881937Y-21810576D01*
X39806928Y-21843358D01*
X39681357Y-21843358D01*
X39543562Y-21843358D01*
G37*
G36*
X40985964Y-21484979D02*
G01*
X41068197Y-21513316D01*
X41107091Y-21557766D01*
X41082643Y-21623330D01*
X41032637Y-21662224D01*
X40983186Y-21645555D01*
X40904843Y-21628886D01*
X40839279Y-21653334D01*
X40858171Y-21680837D01*
X40914844Y-21696672D01*
X40987076Y-21711119D01*
X41057084Y-21738900D01*
X41110980Y-21792796D01*
X41127232Y-21835995D01*
X41132649Y-21888919D01*
X41127232Y-21942398D01*
X41110980Y-21987264D01*
X41050417Y-22047828D01*
X40998991Y-22066966D01*
X40939539Y-22078449D01*
X40872061Y-22082276D01*
X40801497Y-22075362D01*
X40732785Y-22054618D01*
X40665924Y-22020046D01*
X40644811Y-21977819D01*
X40655368Y-21941425D01*
X40687038Y-21890030D01*
X40726488Y-21871139D01*
X40800386Y-21898364D01*
X40884841Y-21925590D01*
X40935680Y-21918923D01*
X40952627Y-21898920D01*
X40934013Y-21880584D01*
X40878173Y-21867805D01*
X40808442Y-21849747D01*
X40739267Y-21815576D01*
X40685927Y-21752791D01*
X40670092Y-21705979D01*
X40664813Y-21651111D01*
X40674459Y-21587903D01*
X40703396Y-21538742D01*
X40751624Y-21503626D01*
X40819144Y-21482557D01*
X40905954Y-21475534D01*
X40985964Y-21484979D01*
G37*
G36*
X41397127Y-21843358D02*
G01*
X41433798Y-21895586D01*
X41507141Y-21916700D01*
X41564648Y-21913366D01*
X41608264Y-21903365D01*
X41620488Y-21898920D01*
X41664938Y-21886696D01*
X41726057Y-21936702D01*
X41740503Y-21987820D01*
X41725710Y-22031089D01*
X41681329Y-22061996D01*
X41607361Y-22080540D01*
X41503807Y-22086721D01*
X41426158Y-22079637D01*
X41357678Y-22058384D01*
X41300865Y-22025464D01*
X41258221Y-21983375D01*
X41219327Y-21921022D01*
X41195991Y-21853976D01*
X41188212Y-21782239D01*
X41192833Y-21742234D01*
X41394904Y-21742234D01*
X41534922Y-21742234D01*
X41577149Y-21706674D01*
X41557703Y-21665557D01*
X41502140Y-21650000D01*
X41430464Y-21679448D01*
X41394904Y-21742234D01*
X41192833Y-21742234D01*
X41198275Y-21695129D01*
X41228464Y-21620490D01*
X41278779Y-21558322D01*
X41344157Y-21511711D01*
X41419537Y-21483745D01*
X41504918Y-21474422D01*
X41577010Y-21481229D01*
X41638824Y-21501648D01*
X41690358Y-21535680D01*
X41731613Y-21583325D01*
X41759950Y-21643749D01*
X41769396Y-21709452D01*
X41760922Y-21768904D01*
X41735503Y-21810576D01*
X41660493Y-21843358D01*
X41534922Y-21843358D01*
X41397127Y-21843358D01*
G37*
D11*
G04 #@! TO.C,FD*
X33787500Y-22700000D02*
G75*
G03*
X33787500Y-22700000I-700000J0D01*
G01*
G04 #@! TO.C,kibuzzard-645C11AA*
G36*
X40496881Y-23375016D02*
G01*
X40531012Y-23414306D01*
X40540537Y-23487331D01*
X40531806Y-23559562D01*
X40504025Y-23598456D01*
X40424650Y-23612744D01*
X40046825Y-23612744D01*
X39975784Y-23599250D01*
X39940462Y-23558769D01*
X39932525Y-23485744D01*
X39942050Y-23414306D01*
X39972212Y-23376206D01*
X40048412Y-23361919D01*
X40426237Y-23361919D01*
X40496881Y-23375016D01*
G37*
G36*
X43298819Y-23375016D02*
G01*
X43332950Y-23414306D01*
X43342475Y-23487331D01*
X43333744Y-23559562D01*
X43305962Y-23598456D01*
X43226588Y-23612744D01*
X42848763Y-23612744D01*
X42777722Y-23599250D01*
X42742400Y-23558769D01*
X42734462Y-23485744D01*
X42743987Y-23414306D01*
X42774150Y-23376206D01*
X42850350Y-23361919D01*
X43228175Y-23361919D01*
X43298819Y-23375016D01*
G37*
G36*
X42593175Y-22691994D02*
G01*
X42651516Y-22745175D01*
X42670962Y-22796769D01*
X42634450Y-22880906D01*
X42291550Y-23393669D01*
X42291550Y-23696881D01*
X42289169Y-23751650D01*
X42274087Y-23793719D01*
X42231225Y-23827056D01*
X42150262Y-23836581D01*
X42069300Y-23827056D01*
X42026437Y-23792925D01*
X42011356Y-23750062D01*
X42008975Y-23693706D01*
X42008975Y-23393669D01*
X41666075Y-22880906D01*
X41629562Y-22796769D01*
X41647025Y-22746961D01*
X41699412Y-22699138D01*
X41799425Y-22652306D01*
X41847050Y-22665006D01*
X41904200Y-22730094D01*
X42150262Y-23123794D01*
X42396325Y-22730094D01*
X42448712Y-22667387D01*
X42500306Y-22652306D01*
X42593175Y-22691994D01*
G37*
G36*
X44695025Y-23585756D02*
G01*
X44612475Y-23757206D01*
X44587869Y-23803244D01*
X44559294Y-23832613D01*
X44508494Y-23847694D01*
X44423562Y-23820706D01*
X44354506Y-23773081D01*
X44331487Y-23719106D01*
X44358475Y-23638144D01*
X44497261Y-23350806D01*
X44809325Y-23350806D01*
X45020462Y-23350806D01*
X44914100Y-23133319D01*
X44809325Y-23350806D01*
X44497261Y-23350806D01*
X44787100Y-22750731D01*
X44840281Y-22691994D01*
X44915687Y-22669769D01*
X44990300Y-22690406D01*
X45042687Y-22752319D01*
X45471312Y-23638144D01*
X45498300Y-23719106D01*
X45475281Y-23773478D01*
X45406225Y-23822294D01*
X45321294Y-23849281D01*
X45270494Y-23834994D01*
X45241919Y-23804831D01*
X45217312Y-23757206D01*
X45134763Y-23585756D01*
X44809325Y-23585756D01*
X44695025Y-23585756D01*
G37*
G36*
X40783425Y-23831819D02*
G01*
X40695319Y-23816737D01*
X40653250Y-23771494D01*
X40643725Y-23688944D01*
X40643725Y-22949169D01*
X40924712Y-22949169D01*
X40924712Y-23550831D01*
X41185062Y-23550831D01*
X41260072Y-23523844D01*
X41285075Y-23442881D01*
X41276344Y-23382556D01*
X41246975Y-23350806D01*
X41158075Y-23338106D01*
X41072350Y-23315881D01*
X41043775Y-23224600D01*
X41073144Y-23133319D01*
X41170775Y-23111094D01*
X41246975Y-23077756D01*
X41251737Y-23020606D01*
X41225544Y-22965044D01*
X41146962Y-22949169D01*
X40924712Y-22949169D01*
X40643725Y-22949169D01*
X40643725Y-22807881D01*
X40646106Y-22752319D01*
X40661187Y-22711044D01*
X40703256Y-22678897D01*
X40785012Y-22668181D01*
X41185062Y-22668181D01*
X41277137Y-22679470D01*
X41358629Y-22713337D01*
X41429537Y-22769781D01*
X41486864Y-22843159D01*
X41521260Y-22925709D01*
X41532725Y-23017431D01*
X41517644Y-23117841D01*
X41472400Y-23209519D01*
X41524435Y-23286601D01*
X41555656Y-23369680D01*
X41566062Y-23458756D01*
X41552569Y-23558857D01*
X41516321Y-23647492D01*
X41457319Y-23724663D01*
X41381912Y-23784194D01*
X41296452Y-23819912D01*
X41200937Y-23831819D01*
X40924712Y-23831819D01*
X40783425Y-23831819D01*
G37*
G36*
X38458333Y-22664411D02*
G01*
X38534731Y-22681675D01*
X38651412Y-22728506D01*
X38689512Y-22750731D01*
X38733962Y-22779306D01*
X38775237Y-22854712D01*
X38741900Y-22942819D01*
X38683162Y-23007112D01*
X38630775Y-23028544D01*
X38549812Y-22993619D01*
X38472025Y-22953137D01*
X38372012Y-22939644D01*
X38269619Y-22957503D01*
X38168812Y-23011081D01*
X38089437Y-23109506D01*
X38065625Y-23177173D01*
X38057687Y-23253175D01*
X38065625Y-23329177D01*
X38089437Y-23396844D01*
X38170400Y-23496856D01*
X38269222Y-23549244D01*
X38372012Y-23566706D01*
X38464881Y-23554006D01*
X38527587Y-23528606D01*
X38556162Y-23507969D01*
X38632362Y-23476219D01*
X38683559Y-23498444D01*
X38738725Y-23565119D01*
X38773650Y-23654019D01*
X38752219Y-23709581D01*
X38702212Y-23749269D01*
X38647444Y-23782606D01*
X38540287Y-23823881D01*
X38460714Y-23842931D01*
X38383919Y-23849281D01*
X38308116Y-23844320D01*
X38231519Y-23829438D01*
X38153334Y-23802847D01*
X38072769Y-23762762D01*
X37995180Y-23710772D01*
X37925925Y-23648463D01*
X37866592Y-23571469D01*
X37818769Y-23475425D01*
X37787217Y-23365292D01*
X37776700Y-23246031D01*
X37787019Y-23127961D01*
X37817975Y-23021400D01*
X37865005Y-22929325D01*
X37923544Y-22854712D01*
X37992402Y-22794189D01*
X38070387Y-22744381D01*
X38174281Y-22696756D01*
X38278526Y-22668181D01*
X38383125Y-22658656D01*
X38458333Y-22664411D01*
G37*
G36*
X39536245Y-22664411D02*
G01*
X39612644Y-22681675D01*
X39729325Y-22728506D01*
X39767425Y-22750731D01*
X39811875Y-22779306D01*
X39853150Y-22854712D01*
X39819812Y-22942819D01*
X39761075Y-23007112D01*
X39708687Y-23028544D01*
X39627725Y-22993619D01*
X39549937Y-22953137D01*
X39449925Y-22939644D01*
X39347531Y-22957503D01*
X39246725Y-23011081D01*
X39167350Y-23109506D01*
X39143537Y-23177173D01*
X39135600Y-23253175D01*
X39143537Y-23329177D01*
X39167350Y-23396844D01*
X39248312Y-23496856D01*
X39347134Y-23549244D01*
X39449925Y-23566706D01*
X39542794Y-23554006D01*
X39605500Y-23528606D01*
X39634075Y-23507969D01*
X39710275Y-23476219D01*
X39761472Y-23498444D01*
X39816637Y-23565119D01*
X39851562Y-23654019D01*
X39830131Y-23709581D01*
X39780125Y-23749269D01*
X39725356Y-23782606D01*
X39618200Y-23823881D01*
X39538627Y-23842931D01*
X39461831Y-23849281D01*
X39386028Y-23844320D01*
X39309431Y-23829438D01*
X39231247Y-23802847D01*
X39150681Y-23762762D01*
X39073092Y-23710772D01*
X39003837Y-23648463D01*
X38944505Y-23571469D01*
X38896681Y-23475425D01*
X38865130Y-23365292D01*
X38854612Y-23246031D01*
X38864931Y-23127961D01*
X38895887Y-23021400D01*
X38942917Y-22929325D01*
X39001456Y-22854712D01*
X39070314Y-22794189D01*
X39148300Y-22744381D01*
X39252193Y-22696756D01*
X39356439Y-22668181D01*
X39461037Y-22658656D01*
X39536245Y-22664411D01*
G37*
G36*
X43920920Y-22656870D02*
G01*
X44003669Y-22675325D01*
X44112413Y-22725331D01*
X44152100Y-22755494D01*
X44201312Y-22833281D01*
X44163212Y-22920594D01*
X44108444Y-22980125D01*
X44052087Y-22999969D01*
X43969537Y-22968219D01*
X43951281Y-22952344D01*
X43926675Y-22931706D01*
X43841744Y-22911069D01*
X43756019Y-22935675D01*
X43721887Y-23003937D01*
X43762369Y-23074581D01*
X43863175Y-23111094D01*
X43926278Y-23123198D01*
X43994937Y-23140462D01*
X44063597Y-23162489D01*
X44126700Y-23188881D01*
X44182064Y-23227973D01*
X44227506Y-23288100D01*
X44257867Y-23366880D01*
X44267987Y-23461931D01*
X44257669Y-23558967D01*
X44226712Y-23643700D01*
X44179087Y-23713352D01*
X44118762Y-23765144D01*
X44031097Y-23811887D01*
X43939551Y-23839933D01*
X43844125Y-23849281D01*
X43771497Y-23844717D01*
X43702837Y-23831025D01*
X43594887Y-23785781D01*
X43523450Y-23735775D01*
X43477412Y-23687356D01*
X43463125Y-23669894D01*
X43421850Y-23578613D01*
X43438916Y-23531583D01*
X43490112Y-23471456D01*
X43574250Y-23433356D01*
X43627431Y-23453200D01*
X43698075Y-23512731D01*
X43761575Y-23564325D01*
X43837775Y-23588931D01*
X43919796Y-23575526D01*
X43969008Y-23535309D01*
X43985412Y-23468281D01*
X43944931Y-23407163D01*
X43844125Y-23371444D01*
X43781419Y-23356958D01*
X43713950Y-23335725D01*
X43646481Y-23308936D01*
X43583775Y-23277781D01*
X43528411Y-23234720D01*
X43482969Y-23172212D01*
X43452608Y-23092639D01*
X43442487Y-22998381D01*
X43454041Y-22909217D01*
X43488701Y-22827990D01*
X43546469Y-22754700D01*
X43624168Y-22696933D01*
X43718624Y-22662272D01*
X43829837Y-22650719D01*
X43920920Y-22656870D01*
G37*
G04 #@! TO.C,kibuzzard-645C1158*
G36*
X3030942Y-23617497D02*
G01*
X3082338Y-23642500D01*
X3109325Y-23753625D01*
X3109325Y-23759975D01*
X3106944Y-23816331D01*
X3090275Y-23859988D01*
X3048405Y-23894516D01*
X2970419Y-23906025D01*
X2890647Y-23898484D01*
X2843419Y-23875863D01*
X2812463Y-23761563D01*
X2812463Y-23755213D01*
X2814844Y-23699650D01*
X2829925Y-23656788D01*
X2871795Y-23621069D01*
X2949781Y-23609163D01*
X3030942Y-23617497D01*
G37*
G36*
X2637837Y-22747150D02*
G01*
X2679112Y-22765406D01*
X2701337Y-22799537D01*
X2709275Y-22883675D01*
X2709275Y-23767913D01*
X2706894Y-23822681D01*
X2691812Y-23864750D01*
X2649744Y-23896897D01*
X2567987Y-23907613D01*
X2488216Y-23897294D01*
X2445750Y-23866338D01*
X2430669Y-23822681D01*
X2428287Y-23764738D01*
X2428287Y-23198000D01*
X2407650Y-23217050D01*
X2296525Y-23266263D01*
X2200481Y-23210700D01*
X2150475Y-23112275D01*
X2207625Y-23018613D01*
X2467975Y-22783663D01*
X2472737Y-22780487D01*
X2562431Y-22739213D01*
X2637837Y-22747150D01*
G37*
G36*
X3531402Y-23916145D02*
G01*
X3441906Y-23884594D01*
X3367691Y-23837564D01*
X3311731Y-23780613D01*
X3269067Y-23712747D01*
X3234737Y-23632975D01*
X3209161Y-23537901D01*
X3193815Y-23434714D01*
X3188736Y-23324206D01*
X3469687Y-23324206D01*
X3479709Y-23464154D01*
X3509772Y-23564117D01*
X3559877Y-23624095D01*
X3630025Y-23644088D01*
X3701562Y-23624641D01*
X3752659Y-23566300D01*
X3783318Y-23469066D01*
X3793538Y-23332938D01*
X3793538Y-23323413D01*
X3783417Y-23183812D01*
X3753056Y-23084097D01*
X3702455Y-23024268D01*
X3631613Y-23004325D01*
X3560770Y-23024318D01*
X3510169Y-23084295D01*
X3479808Y-23184258D01*
X3469687Y-23324206D01*
X3188736Y-23324206D01*
X3188700Y-23323413D01*
X3192845Y-23222694D01*
X3205281Y-23132207D01*
X3226006Y-23051950D01*
X3265495Y-22951342D01*
X3309350Y-22874944D01*
X3364714Y-22815809D01*
X3438731Y-22766994D01*
X3528623Y-22734252D01*
X3631613Y-22723337D01*
X3734205Y-22734053D01*
X3822906Y-22766200D01*
X3895931Y-22814222D01*
X3951494Y-22872563D01*
X3993761Y-22941619D01*
X4026900Y-23021788D01*
X4053358Y-23118978D01*
X4069233Y-23220049D01*
X4074525Y-23325000D01*
X4066786Y-23461227D01*
X4043569Y-23582572D01*
X4004873Y-23689034D01*
X3950700Y-23780613D01*
X3895733Y-23838556D01*
X3822906Y-23885388D01*
X3734602Y-23916344D01*
X3633200Y-23926663D01*
X3630025Y-23926334D01*
X3531402Y-23916145D01*
G37*
G04 #@! TO.C,J1*
X48802500Y-22110000D02*
X48802500Y-21060000D01*
X51302500Y-22110000D02*
X48802500Y-22110000D01*
X48802500Y-21060000D02*
X47812500Y-21060000D01*
X53272500Y-20940000D02*
X53272500Y-17060000D01*
X48802500Y-15890000D02*
X48802500Y-16940000D01*
X51302500Y-15890000D02*
X48802500Y-15890000D01*
G04 #@! TO.C,kibuzzard-645C107E*
G36*
X8702359Y-17009414D02*
G01*
X8724028Y-17092758D01*
X8721250Y-17132207D01*
X8709582Y-17162767D01*
X8680273Y-17186937D01*
X8625683Y-17194993D01*
X8569842Y-17189576D01*
X8536783Y-17173324D01*
X8520530Y-17141514D01*
X8515113Y-17089424D01*
X8520947Y-17036640D01*
X8538449Y-17007192D01*
X8623460Y-16987189D01*
X8702359Y-17009414D01*
G37*
G36*
X8702359Y-17363348D02*
G01*
X8718611Y-17395157D01*
X8724028Y-17447247D01*
X8721250Y-17486696D01*
X8709582Y-17517256D01*
X8680273Y-17541425D01*
X8625683Y-17549482D01*
X8569842Y-17544065D01*
X8536783Y-17527813D01*
X8520530Y-17496003D01*
X8515113Y-17443913D01*
X8520947Y-17391129D01*
X8538449Y-17361681D01*
X8623460Y-17341678D01*
X8702359Y-17363348D01*
G37*
G36*
X4167348Y-16696875D02*
G01*
X4195684Y-16719378D01*
X4206241Y-16748826D01*
X4207908Y-16787164D01*
X4206241Y-16825502D01*
X4196240Y-16854395D01*
X4166792Y-16877176D01*
X4110674Y-16883843D01*
X4054556Y-16877176D01*
X4025108Y-16853839D01*
X4015106Y-16824391D01*
X4013439Y-16786053D01*
X4015106Y-16747715D01*
X4024552Y-16719378D01*
X4054000Y-16696875D01*
X4111229Y-16689374D01*
X4167348Y-16696875D01*
G37*
G36*
X4186794Y-16982744D02*
G01*
X4206797Y-17030528D01*
X4207908Y-17062754D01*
X4207908Y-17451692D01*
X4206241Y-17490030D01*
X4195684Y-17519478D01*
X4167070Y-17541148D01*
X4110118Y-17548371D01*
X4053722Y-17540870D01*
X4024552Y-17518367D01*
X4015106Y-17489474D01*
X4013439Y-17450581D01*
X4013439Y-17060532D01*
X4015106Y-17022194D01*
X4024552Y-16992746D01*
X4054000Y-16971076D01*
X4111229Y-16963853D01*
X4186794Y-16982744D01*
G37*
G36*
X7986158Y-16959408D02*
G01*
X8005605Y-16977744D01*
X8023941Y-17008303D01*
X8066724Y-17081090D01*
X8102839Y-17142270D01*
X8137844Y-17200611D01*
X8171737Y-17256112D01*
X8189517Y-17212912D01*
X8231744Y-17118872D01*
X8273555Y-17027333D01*
X8290085Y-16991634D01*
X8302864Y-16972743D01*
X8343425Y-16953852D01*
X8405099Y-16969409D01*
X8454272Y-17001358D01*
X8470663Y-17039418D01*
X8461773Y-17077201D01*
X8452883Y-17096092D01*
X8161736Y-17747284D01*
X8146734Y-17779511D01*
X8127287Y-17800624D01*
X8093949Y-17810626D01*
X8035053Y-17793957D01*
X7985880Y-17762286D01*
X7969489Y-17725059D01*
X7976157Y-17699153D01*
X7996159Y-17648105D01*
X8029497Y-17571915D01*
X8076169Y-17470583D01*
X7855031Y-17098314D01*
X7832806Y-17043863D01*
X7847808Y-17008303D01*
X7892813Y-16972743D01*
X7951709Y-16950518D01*
X7986158Y-16959408D01*
G37*
G36*
X5342433Y-16972187D02*
G01*
X5404107Y-17000524D01*
X5457509Y-17047752D01*
X5498563Y-17108563D01*
X5523196Y-17177645D01*
X5531407Y-17255001D01*
X5531407Y-17450581D01*
X5529740Y-17488919D01*
X5520294Y-17517256D01*
X5490846Y-17539758D01*
X5433617Y-17547259D01*
X5371387Y-17536980D01*
X5342494Y-17506143D01*
X5335827Y-17449469D01*
X5335827Y-17253889D01*
X5309713Y-17182769D01*
X5239704Y-17157211D01*
X5168584Y-17183881D01*
X5141358Y-17253889D01*
X5141358Y-17450581D01*
X5139691Y-17488919D01*
X5129134Y-17517256D01*
X5100520Y-17539758D01*
X5043568Y-17547259D01*
X4987172Y-17539758D01*
X4958002Y-17517256D01*
X4948556Y-17487807D01*
X4946889Y-17449469D01*
X4946889Y-17056087D01*
X4948556Y-17018860D01*
X4959113Y-16990523D01*
X4988283Y-16969687D01*
X5044679Y-16962742D01*
X5099408Y-16969132D01*
X5128023Y-16988301D01*
X5139136Y-17033862D01*
X5159138Y-17011637D01*
X5189142Y-16988301D01*
X5272486Y-16962742D01*
X5342433Y-16972187D01*
G37*
G36*
X2148762Y-17547259D02*
G01*
X2093755Y-17540314D01*
X2064307Y-17519478D01*
X2050972Y-17448358D01*
X2050972Y-16930516D01*
X2247663Y-16930516D01*
X2247663Y-17350568D01*
X2355454Y-17350568D01*
X2431575Y-17335705D01*
X2499917Y-17291116D01*
X2548256Y-17224025D01*
X2564369Y-17141653D01*
X2548673Y-17059004D01*
X2501584Y-16991079D01*
X2433381Y-16945656D01*
X2354343Y-16930516D01*
X2247663Y-16930516D01*
X2050972Y-16930516D01*
X2050972Y-16830503D01*
X2052639Y-16791609D01*
X2063196Y-16762717D01*
X2092644Y-16740214D01*
X2149873Y-16732713D01*
X2355454Y-16733824D01*
X2433589Y-16741082D01*
X2506862Y-16762856D01*
X2575274Y-16799145D01*
X2638823Y-16849950D01*
X2692302Y-16911347D01*
X2730501Y-16979411D01*
X2753421Y-17054142D01*
X2761061Y-17135541D01*
X2753594Y-17217253D01*
X2731196Y-17292922D01*
X2693865Y-17362549D01*
X2641601Y-17426133D01*
X2578711Y-17479126D01*
X2509501Y-17516978D01*
X2433971Y-17539689D01*
X2352121Y-17547259D01*
X2247663Y-17547259D01*
X2148762Y-17547259D01*
G37*
G36*
X6510418Y-17546148D02*
G01*
X6445719Y-17536456D01*
X6384970Y-17507378D01*
X6328173Y-17458915D01*
X6282488Y-17397549D01*
X6255078Y-17329763D01*
X6246009Y-17256112D01*
X6440409Y-17256112D01*
X6469302Y-17322787D01*
X6539311Y-17352791D01*
X6607653Y-17322787D01*
X6634878Y-17256667D01*
X6608764Y-17189437D01*
X6538199Y-17158322D01*
X6467079Y-17188881D01*
X6440409Y-17256112D01*
X6246009Y-17256112D01*
X6245941Y-17255556D01*
X6255139Y-17181288D01*
X6282735Y-17113316D01*
X6328729Y-17051642D01*
X6385711Y-17002870D01*
X6446274Y-16973607D01*
X6510418Y-16963853D01*
X6583483Y-16977744D01*
X6638212Y-17019416D01*
X6638212Y-16786053D01*
X6639879Y-16747715D01*
X6649880Y-16718822D01*
X6679328Y-16696042D01*
X6735446Y-16689374D01*
X6791564Y-16696042D01*
X6821013Y-16719378D01*
X6831014Y-16748826D01*
X6832681Y-16787164D01*
X6832681Y-17450581D01*
X6831014Y-17488919D01*
X6820457Y-17517256D01*
X6788647Y-17539758D01*
X6726556Y-17547259D01*
X6666410Y-17533647D01*
X6640434Y-17492808D01*
X6584594Y-17532813D01*
X6539311Y-17540954D01*
X6510418Y-17546148D01*
G37*
G36*
X7448591Y-17532813D02*
G01*
X7394973Y-17492808D01*
X7366636Y-17533647D01*
X7299406Y-17547259D01*
X7243010Y-17539758D01*
X7213839Y-17517256D01*
X7204394Y-17487807D01*
X7202727Y-17449469D01*
X7202727Y-17256667D01*
X7399418Y-17256667D01*
X7426644Y-17322787D01*
X7494986Y-17352791D01*
X7564994Y-17322787D01*
X7593887Y-17256112D01*
X7567217Y-17188881D01*
X7496097Y-17158322D01*
X7425533Y-17189437D01*
X7399418Y-17256667D01*
X7202727Y-17256667D01*
X7202727Y-16786053D01*
X7204394Y-16747715D01*
X7213839Y-16719378D01*
X7243288Y-16696875D01*
X7300517Y-16689374D01*
X7356635Y-16696875D01*
X7384972Y-16719378D01*
X7395529Y-16748826D01*
X7397196Y-16787164D01*
X7397196Y-17018304D01*
X7451091Y-16977466D01*
X7523878Y-16963853D01*
X7588022Y-16973607D01*
X7648585Y-17002870D01*
X7705568Y-17051642D01*
X7751561Y-17113316D01*
X7779157Y-17181288D01*
X7788356Y-17255556D01*
X7779219Y-17329763D01*
X7751808Y-17397549D01*
X7706123Y-17458915D01*
X7649943Y-17507378D01*
X7591047Y-17536456D01*
X7529434Y-17546148D01*
X7494986Y-17540466D01*
X7448591Y-17532813D01*
G37*
G36*
X3025538Y-17319453D02*
G01*
X3062209Y-17371682D01*
X3135552Y-17392796D01*
X3193059Y-17389462D01*
X3236676Y-17379461D01*
X3248899Y-17375016D01*
X3293349Y-17362792D01*
X3354468Y-17412798D01*
X3368914Y-17463916D01*
X3354121Y-17507185D01*
X3309740Y-17538092D01*
X3235773Y-17556636D01*
X3132218Y-17562817D01*
X3054570Y-17555733D01*
X2986089Y-17534480D01*
X2929276Y-17501559D01*
X2886632Y-17459471D01*
X2847738Y-17397117D01*
X2824402Y-17330072D01*
X2816623Y-17258334D01*
X2821244Y-17218329D01*
X3023316Y-17218329D01*
X3163333Y-17218329D01*
X3205561Y-17182769D01*
X3186114Y-17141653D01*
X3130551Y-17126096D01*
X3058876Y-17155544D01*
X3023316Y-17218329D01*
X2821244Y-17218329D01*
X2826686Y-17171225D01*
X2856875Y-17096586D01*
X2907190Y-17034417D01*
X2972569Y-16987807D01*
X3047948Y-16959840D01*
X3133329Y-16950518D01*
X3205422Y-16957325D01*
X3267235Y-16977744D01*
X3318769Y-17011776D01*
X3360024Y-17059421D01*
X3388361Y-17119845D01*
X3397807Y-17185548D01*
X3389334Y-17244999D01*
X3363914Y-17286671D01*
X3288904Y-17319453D01*
X3163333Y-17319453D01*
X3025538Y-17319453D01*
G37*
G36*
X3794523Y-16961075D02*
G01*
X3876756Y-16989412D01*
X3915649Y-17033862D01*
X3891202Y-17099426D01*
X3841196Y-17138319D01*
X3791745Y-17121651D01*
X3713402Y-17104982D01*
X3647838Y-17129429D01*
X3666729Y-17156933D01*
X3723403Y-17172768D01*
X3795634Y-17187214D01*
X3865643Y-17214996D01*
X3919539Y-17268891D01*
X3935791Y-17312091D01*
X3941208Y-17365014D01*
X3935791Y-17418493D01*
X3919539Y-17463360D01*
X3858976Y-17523923D01*
X3807549Y-17543061D01*
X3748098Y-17554544D01*
X3680620Y-17558372D01*
X3610056Y-17551457D01*
X3541343Y-17530714D01*
X3474483Y-17496142D01*
X3453369Y-17453914D01*
X3463926Y-17417521D01*
X3495597Y-17366126D01*
X3535046Y-17347234D01*
X3608944Y-17374460D01*
X3693399Y-17401686D01*
X3744239Y-17395018D01*
X3761186Y-17375016D01*
X3742572Y-17356680D01*
X3686732Y-17343901D01*
X3617001Y-17325843D01*
X3547826Y-17291672D01*
X3494486Y-17228886D01*
X3478650Y-17182075D01*
X3473372Y-17127207D01*
X3483018Y-17063999D01*
X3511954Y-17014837D01*
X3560183Y-16979722D01*
X3627702Y-16958652D01*
X3714513Y-16951629D01*
X3794523Y-16961075D01*
G37*
G36*
X5812553Y-17319453D02*
G01*
X5849224Y-17371682D01*
X5922567Y-17392796D01*
X5980074Y-17389462D01*
X6023691Y-17379461D01*
X6035914Y-17375016D01*
X6080364Y-17362792D01*
X6141483Y-17412798D01*
X6155929Y-17463916D01*
X6141136Y-17507185D01*
X6096755Y-17538092D01*
X6022788Y-17556636D01*
X5919233Y-17562817D01*
X5841585Y-17555733D01*
X5773104Y-17534480D01*
X5716291Y-17501559D01*
X5673647Y-17459471D01*
X5634753Y-17397117D01*
X5611417Y-17330072D01*
X5603638Y-17258334D01*
X5608259Y-17218329D01*
X5810331Y-17218329D01*
X5950348Y-17218329D01*
X5992576Y-17182769D01*
X5973129Y-17141653D01*
X5917566Y-17126096D01*
X5845891Y-17155544D01*
X5810331Y-17218329D01*
X5608259Y-17218329D01*
X5613701Y-17171225D01*
X5643890Y-17096586D01*
X5694205Y-17034417D01*
X5759584Y-16987807D01*
X5834963Y-16959840D01*
X5920344Y-16950518D01*
X5992437Y-16957325D01*
X6054250Y-16977744D01*
X6105784Y-17011776D01*
X6147039Y-17059421D01*
X6175376Y-17119845D01*
X6184822Y-17185548D01*
X6176349Y-17244999D01*
X6150929Y-17286671D01*
X6075919Y-17319453D01*
X5950348Y-17319453D01*
X5812553Y-17319453D01*
G37*
G36*
X4533504Y-17530591D02*
G01*
X4473312Y-17521145D01*
X4415712Y-17492808D01*
X4360705Y-17445580D01*
X4315946Y-17385758D01*
X4289091Y-17319638D01*
X4280208Y-17247777D01*
X4470163Y-17247777D01*
X4498500Y-17312786D01*
X4567398Y-17341678D01*
X4634628Y-17312230D01*
X4661298Y-17247777D01*
X4635739Y-17182214D01*
X4566842Y-17151654D01*
X4496833Y-17181658D01*
X4470163Y-17247777D01*
X4280208Y-17247777D01*
X4280139Y-17247222D01*
X4289153Y-17174744D01*
X4316193Y-17108439D01*
X4361261Y-17048308D01*
X4417070Y-17000771D01*
X4476337Y-16972249D01*
X4539061Y-16962742D01*
X4607958Y-16976632D01*
X4650741Y-17002191D01*
X4669077Y-17023861D01*
X4691858Y-16976632D01*
X4754643Y-16960519D01*
X4817984Y-16967187D01*
X4846321Y-16989967D01*
X4856323Y-17018304D01*
X4857989Y-17056087D01*
X4857989Y-17516144D01*
X4848112Y-17595846D01*
X4818478Y-17664558D01*
X4769089Y-17722281D01*
X4707353Y-17765805D01*
X4640678Y-17791920D01*
X4569064Y-17800624D01*
X4486554Y-17790345D01*
X4407933Y-17759508D01*
X4350426Y-17720337D01*
X4331257Y-17685054D01*
X4364594Y-17608378D01*
X4397376Y-17576152D01*
X4424602Y-17567262D01*
X4456828Y-17580597D01*
X4512391Y-17611434D01*
X4572398Y-17621713D01*
X4641296Y-17588376D01*
X4667966Y-17508366D01*
X4667966Y-17475028D01*
X4613237Y-17516700D01*
X4567398Y-17524686D01*
X4533504Y-17530591D01*
G37*
G04 #@! TO.C,VOUT*
X21387500Y-22700000D02*
G75*
G03*
X21387500Y-22700000I-700000J0D01*
G01*
G04 #@! TO.C,kibuzzard-645C1150*
G36*
X6710568Y-21608319D02*
G01*
X6732238Y-21691662D01*
X6729459Y-21731112D01*
X6717791Y-21761671D01*
X6688482Y-21785841D01*
X6633892Y-21793897D01*
X6578052Y-21788480D01*
X6544992Y-21772228D01*
X6528740Y-21740419D01*
X6523322Y-21688329D01*
X6529157Y-21635544D01*
X6546659Y-21606096D01*
X6631669Y-21586094D01*
X6710568Y-21608319D01*
G37*
G36*
X6710568Y-21962252D02*
G01*
X6726820Y-21994061D01*
X6732238Y-22046151D01*
X6729459Y-22085601D01*
X6717791Y-22116160D01*
X6688482Y-22140330D01*
X6633892Y-22148386D01*
X6578052Y-22142969D01*
X6544992Y-22126717D01*
X6528740Y-22094907D01*
X6523322Y-22042818D01*
X6529157Y-21990033D01*
X6546659Y-21960585D01*
X6631669Y-21940583D01*
X6710568Y-21962252D01*
G37*
G36*
X4243593Y-21295780D02*
G01*
X4271930Y-21318282D01*
X4282487Y-21347731D01*
X4284154Y-21386069D01*
X4282487Y-21424407D01*
X4272486Y-21453299D01*
X4243037Y-21476080D01*
X4186919Y-21482747D01*
X4130801Y-21476080D01*
X4101353Y-21452744D01*
X4091352Y-21423296D01*
X4089685Y-21384958D01*
X4091352Y-21346619D01*
X4100797Y-21318282D01*
X4130246Y-21295780D01*
X4187475Y-21288279D01*
X4243593Y-21295780D01*
G37*
G36*
X5070363Y-21295780D02*
G01*
X5098700Y-21318282D01*
X5109257Y-21347731D01*
X5110924Y-21386069D01*
X5109257Y-21424407D01*
X5099256Y-21453299D01*
X5069807Y-21476080D01*
X5013689Y-21482747D01*
X4957571Y-21476080D01*
X4928123Y-21452744D01*
X4918122Y-21423296D01*
X4916455Y-21384958D01*
X4918122Y-21346619D01*
X4927567Y-21318282D01*
X4957016Y-21295780D01*
X5014245Y-21288279D01*
X5070363Y-21295780D01*
G37*
G36*
X4263040Y-21581649D02*
G01*
X4283042Y-21629432D01*
X4284154Y-21661659D01*
X4284154Y-22050596D01*
X4282487Y-22088934D01*
X4271930Y-22118383D01*
X4243315Y-22140052D01*
X4186364Y-22147275D01*
X4129968Y-22139774D01*
X4100797Y-22117271D01*
X4091352Y-22088379D01*
X4089685Y-22049485D01*
X4089685Y-21659436D01*
X4091352Y-21621098D01*
X4100797Y-21591650D01*
X4130246Y-21569981D01*
X4187475Y-21562757D01*
X4263040Y-21581649D01*
G37*
G36*
X5089810Y-21581649D02*
G01*
X5109812Y-21629432D01*
X5110924Y-21661659D01*
X5110924Y-22050596D01*
X5109257Y-22088934D01*
X5098700Y-22118383D01*
X5070085Y-22140052D01*
X5013134Y-22147275D01*
X4956738Y-22139774D01*
X4927567Y-22117271D01*
X4918122Y-22088379D01*
X4916455Y-22049485D01*
X4916455Y-21659436D01*
X4918122Y-21621098D01*
X4927567Y-21591650D01*
X4957016Y-21569981D01*
X5014245Y-21562757D01*
X5089810Y-21581649D01*
G37*
G36*
X3515724Y-21565536D02*
G01*
X3545172Y-21610541D01*
X3690746Y-21890576D01*
X3836320Y-21610541D01*
X3854656Y-21579982D01*
X3874102Y-21561091D01*
X3909662Y-21551645D01*
X3970781Y-21574981D01*
X4014120Y-21610541D01*
X4028566Y-21648324D01*
X4006341Y-21709442D01*
X3776312Y-22103936D01*
X3740753Y-22137829D01*
X3692413Y-22152831D01*
X3646852Y-22141163D01*
X3616293Y-22117271D01*
X3606291Y-22105048D01*
X3375151Y-21709442D01*
X3352926Y-21649435D01*
X3367372Y-21610819D01*
X3410711Y-21574981D01*
X3477386Y-21550534D01*
X3515724Y-21565536D01*
G37*
G36*
X5416517Y-22148247D02*
G01*
X5346509Y-22121161D01*
X5283029Y-22076433D01*
X5230383Y-22014481D01*
X5194962Y-21939332D01*
X5183155Y-21855016D01*
X5183362Y-21853349D01*
X5379846Y-21853349D01*
X5388736Y-21900578D01*
X5415406Y-21934471D01*
X5487638Y-21961696D01*
X5560980Y-21933915D01*
X5588483Y-21899466D01*
X5597651Y-21851682D01*
X5589039Y-21804177D01*
X5563202Y-21770561D01*
X5488749Y-21743891D01*
X5414295Y-21771672D01*
X5388458Y-21805982D01*
X5379846Y-21853349D01*
X5183362Y-21853349D01*
X5193527Y-21771302D01*
X5224642Y-21697960D01*
X5276500Y-21634989D01*
X5341693Y-21586835D01*
X5412813Y-21557942D01*
X5489860Y-21548311D01*
X5566783Y-21557880D01*
X5637533Y-21586588D01*
X5702109Y-21634433D01*
X5753350Y-21697095D01*
X5784094Y-21770253D01*
X5794342Y-21853905D01*
X5782397Y-21940999D01*
X5746559Y-22017814D01*
X5693635Y-22080044D01*
X5630433Y-22123383D01*
X5560841Y-22148803D01*
X5488749Y-22157276D01*
X5487638Y-22157137D01*
X5416517Y-22148247D01*
G37*
G36*
X6262117Y-21571092D02*
G01*
X6323791Y-21599429D01*
X6377193Y-21646657D01*
X6418248Y-21707467D01*
X6442880Y-21776550D01*
X6451091Y-21853905D01*
X6451091Y-22049485D01*
X6449424Y-22087823D01*
X6439979Y-22116160D01*
X6410531Y-22138663D01*
X6353301Y-22146164D01*
X6291071Y-22135885D01*
X6262179Y-22105048D01*
X6255511Y-22048374D01*
X6255511Y-21852794D01*
X6229397Y-21781674D01*
X6159388Y-21756115D01*
X6088268Y-21782785D01*
X6061043Y-21852794D01*
X6061043Y-22049485D01*
X6059376Y-22087823D01*
X6048819Y-22116160D01*
X6020204Y-22138663D01*
X5963253Y-22146164D01*
X5906857Y-22138663D01*
X5877686Y-22116160D01*
X5868241Y-22086712D01*
X5866574Y-22048374D01*
X5866574Y-21654991D01*
X5868241Y-21617764D01*
X5878798Y-21589427D01*
X5907968Y-21568592D01*
X5964364Y-21561646D01*
X6019093Y-21568036D01*
X6047708Y-21587205D01*
X6058820Y-21632766D01*
X6078823Y-21610541D01*
X6108826Y-21587205D01*
X6192170Y-21561646D01*
X6262117Y-21571092D01*
G37*
G36*
X2936207Y-21918358D02*
G01*
X2972879Y-21970586D01*
X3046221Y-21991700D01*
X3103728Y-21988366D01*
X3147345Y-21978365D01*
X3159569Y-21973920D01*
X3204019Y-21961696D01*
X3265137Y-22011702D01*
X3279584Y-22062820D01*
X3264790Y-22106089D01*
X3220410Y-22136996D01*
X3146442Y-22155540D01*
X3042887Y-22161721D01*
X2965239Y-22154637D01*
X2896758Y-22133384D01*
X2839945Y-22100464D01*
X2797301Y-22058375D01*
X2758408Y-21996022D01*
X2735071Y-21928976D01*
X2727292Y-21857239D01*
X2731913Y-21817234D01*
X2933985Y-21817234D01*
X3074002Y-21817234D01*
X3116230Y-21781674D01*
X3096783Y-21740557D01*
X3041221Y-21725000D01*
X2969545Y-21754448D01*
X2933985Y-21817234D01*
X2731913Y-21817234D01*
X2737355Y-21770129D01*
X2767544Y-21695490D01*
X2817859Y-21633322D01*
X2883238Y-21586711D01*
X2958618Y-21558745D01*
X3043999Y-21549422D01*
X3116091Y-21556229D01*
X3177904Y-21576648D01*
X3229439Y-21610680D01*
X3270694Y-21658325D01*
X3299031Y-21718749D01*
X3308476Y-21784452D01*
X3300003Y-21843904D01*
X3274583Y-21885576D01*
X3199574Y-21918358D01*
X3074002Y-21918358D01*
X2936207Y-21918358D01*
G37*
G36*
X4697539Y-21559979D02*
G01*
X4779771Y-21588316D01*
X4818665Y-21632766D01*
X4794217Y-21698330D01*
X4744211Y-21737224D01*
X4694761Y-21720555D01*
X4616417Y-21703886D01*
X4550854Y-21728334D01*
X4569745Y-21755837D01*
X4626419Y-21771672D01*
X4698650Y-21786119D01*
X4768659Y-21813900D01*
X4822554Y-21867796D01*
X4838806Y-21910995D01*
X4844224Y-21963919D01*
X4838806Y-22017398D01*
X4822554Y-22062264D01*
X4761991Y-22122828D01*
X4710565Y-22141966D01*
X4651113Y-22153449D01*
X4583636Y-22157276D01*
X4513071Y-22150362D01*
X4444359Y-22129618D01*
X4377499Y-22095046D01*
X4356385Y-22052819D01*
X4366942Y-22016425D01*
X4398612Y-21965030D01*
X4438062Y-21946139D01*
X4511960Y-21973364D01*
X4596415Y-22000590D01*
X4647255Y-21993923D01*
X4664201Y-21973920D01*
X4645588Y-21955584D01*
X4589747Y-21942805D01*
X4520017Y-21924747D01*
X4450841Y-21890576D01*
X4397501Y-21827791D01*
X4381666Y-21780979D01*
X4376387Y-21726111D01*
X4386033Y-21662903D01*
X4414970Y-21613742D01*
X4463198Y-21578626D01*
X4530718Y-21557557D01*
X4617529Y-21550534D01*
X4697539Y-21559979D01*
G37*
G36*
X2239454Y-22048374D02*
G01*
X2237787Y-22086712D01*
X2227230Y-22116160D01*
X2197782Y-22138663D01*
X2140552Y-22146164D01*
X2078878Y-22135885D01*
X2049430Y-22105048D01*
X2042762Y-22047262D01*
X2042762Y-21529420D01*
X2239454Y-21529420D01*
X2239454Y-21726111D01*
X2381694Y-21726111D01*
X2446146Y-21701664D01*
X2478372Y-21628321D01*
X2446146Y-21554423D01*
X2379471Y-21529420D01*
X2239454Y-21529420D01*
X2042762Y-21529420D01*
X2042762Y-21430519D01*
X2044429Y-21392181D01*
X2054986Y-21362732D01*
X2084434Y-21340230D01*
X2141664Y-21332729D01*
X2381694Y-21332729D01*
X2446270Y-21340631D01*
X2509611Y-21364338D01*
X2571717Y-21403849D01*
X2612278Y-21444409D01*
X2645060Y-21497194D01*
X2666729Y-21559424D01*
X2673952Y-21628321D01*
X2664692Y-21707097D01*
X2636911Y-21775994D01*
X2590609Y-21835014D01*
X2609870Y-21880575D01*
X2635059Y-21938730D01*
X2666174Y-22009480D01*
X2682842Y-22067265D01*
X2665618Y-22106159D01*
X2613945Y-22138385D01*
X2556716Y-22153942D01*
X2521156Y-22143386D01*
X2500597Y-22121716D01*
X2486028Y-22089984D01*
X2457135Y-22022938D01*
X2413920Y-21920580D01*
X2379471Y-21922803D01*
X2239454Y-21922803D01*
X2239454Y-22048374D01*
G37*
G04 #@! TO.C,kibuzzard-645C104C*
G36*
X10154725Y-18192372D02*
G01*
X10196794Y-18224519D01*
X10211875Y-18267381D01*
X10214256Y-18322944D01*
X10214256Y-19057956D01*
X10223781Y-19130188D01*
X10265850Y-19145269D01*
X10309506Y-19147650D01*
X10336494Y-19161144D01*
X10368244Y-19273856D01*
X10360306Y-19354422D01*
X10336494Y-19396094D01*
X10266644Y-19412763D01*
X10139644Y-19405619D01*
X10038837Y-19377441D01*
X9980894Y-19324656D01*
X9947556Y-19223850D01*
X9936444Y-19077006D01*
X9936444Y-18321356D01*
X9938825Y-18266588D01*
X9952319Y-18224519D01*
X9994387Y-18192372D01*
X10076144Y-18181656D01*
X10154725Y-18192372D01*
G37*
G36*
X15541906Y-18571388D02*
G01*
X15597469Y-18584881D01*
X15647475Y-18617425D01*
X15667319Y-18691244D01*
X15637156Y-18802369D01*
X15549844Y-18862694D01*
X15495075Y-18849994D01*
X15426019Y-18837294D01*
X15345850Y-18867456D01*
X15308544Y-18940481D01*
X15308544Y-19273856D01*
X15306163Y-19328625D01*
X15291081Y-19370694D01*
X15248219Y-19401650D01*
X15167256Y-19411969D01*
X15057719Y-19384981D01*
X15029144Y-19316719D01*
X15029144Y-19270681D01*
X15029144Y-18713469D01*
X15031525Y-18658700D01*
X15045019Y-18618219D01*
X15087088Y-18586072D01*
X15168844Y-18575356D01*
X15246234Y-18584484D01*
X15287906Y-18611869D01*
X15305369Y-18664256D01*
X15328388Y-18637269D01*
X15392681Y-18594406D01*
X15479200Y-18567419D01*
X15541906Y-18571388D01*
G37*
G36*
X9722925Y-18184038D02*
G01*
X9764994Y-18199119D01*
X9797141Y-18239997D01*
X9807856Y-18321356D01*
X9780869Y-18430894D01*
X9711019Y-18459469D01*
X9666569Y-18459469D01*
X9607831Y-18499156D01*
X9607831Y-18586469D01*
X9711019Y-18576944D01*
X9797934Y-18592025D01*
X9839606Y-18637269D01*
X9849131Y-18716644D01*
X9838812Y-18795225D01*
X9806269Y-18837294D01*
X9709431Y-18856344D01*
X9607831Y-18849994D01*
X9607831Y-19275444D01*
X9592750Y-19365138D01*
X9546712Y-19404031D01*
X9466544Y-19413556D01*
X9387962Y-19403238D01*
X9345894Y-19369900D01*
X9330812Y-19327831D01*
X9328431Y-19272269D01*
X9328431Y-18851581D01*
X9271281Y-18851581D01*
X9212544Y-18832531D01*
X9182381Y-18716644D01*
X9205797Y-18619013D01*
X9276044Y-18586469D01*
X9328431Y-18586469D01*
X9328431Y-18502331D01*
X9350259Y-18385848D01*
X9415744Y-18280875D01*
X9482595Y-18225753D01*
X9566733Y-18192681D01*
X9668156Y-18181656D01*
X9722925Y-18184038D01*
G37*
G36*
X5505731Y-19413358D02*
G01*
X5405719Y-19374663D01*
X5315033Y-19310766D01*
X5239825Y-19222263D01*
X5189223Y-19114908D01*
X5172356Y-18994456D01*
X5172651Y-18992075D01*
X5453344Y-18992075D01*
X5466044Y-19059544D01*
X5504144Y-19107963D01*
X5607331Y-19146856D01*
X5712106Y-19107169D01*
X5751397Y-19057956D01*
X5764494Y-18989694D01*
X5752191Y-18921828D01*
X5715281Y-18873806D01*
X5608919Y-18835706D01*
X5502556Y-18875394D01*
X5465647Y-18924408D01*
X5453344Y-18992075D01*
X5172651Y-18992075D01*
X5187173Y-18874865D01*
X5231623Y-18770090D01*
X5305706Y-18680131D01*
X5398840Y-18611340D01*
X5500440Y-18570065D01*
X5610506Y-18556306D01*
X5720397Y-18569976D01*
X5821467Y-18610987D01*
X5913719Y-18679338D01*
X5986920Y-18768855D01*
X6030841Y-18873365D01*
X6045481Y-18992869D01*
X6028416Y-19117289D01*
X5977219Y-19227025D01*
X5901614Y-19315925D01*
X5811325Y-19377838D01*
X5711908Y-19414152D01*
X5608919Y-19426256D01*
X5607331Y-19426058D01*
X5505731Y-19413358D01*
G37*
G36*
X11233034Y-18584484D02*
G01*
X11274706Y-18616631D01*
X11288200Y-18658700D01*
X11290581Y-18713469D01*
X11290581Y-19275444D01*
X11288200Y-19328625D01*
X11273119Y-19369106D01*
X11230653Y-19400063D01*
X11150881Y-19410381D01*
X11072697Y-19400856D01*
X11031819Y-19372281D01*
X11015944Y-19307194D01*
X10987369Y-19338944D01*
X10944506Y-19373869D01*
X10827031Y-19408794D01*
X10726225Y-19395300D01*
X10637590Y-19354819D01*
X10561125Y-19287350D01*
X10502476Y-19200478D01*
X10467286Y-19101789D01*
X10455556Y-18991281D01*
X10455556Y-18713469D01*
X10457937Y-18657906D01*
X10471431Y-18616631D01*
X10513500Y-18584484D01*
X10595256Y-18573769D01*
X10683362Y-18588850D01*
X10725431Y-18634094D01*
X10734956Y-18715056D01*
X10734956Y-18992869D01*
X10772262Y-19094469D01*
X10872275Y-19130981D01*
X10973875Y-19092881D01*
X11012769Y-18992869D01*
X11012769Y-18711881D01*
X11015150Y-18657113D01*
X11030231Y-18615044D01*
X11071109Y-18584088D01*
X11152469Y-18573769D01*
X11233034Y-18584484D01*
G37*
G36*
X4455600Y-18195547D02*
G01*
X4496081Y-18227694D01*
X4511162Y-18269763D01*
X4513544Y-18324531D01*
X4513544Y-18675369D01*
X4599666Y-18602741D01*
X4699281Y-18578531D01*
X4799206Y-18591937D01*
X4887312Y-18632153D01*
X4963600Y-18699181D01*
X5022249Y-18785612D01*
X5057439Y-18884037D01*
X5069169Y-18994456D01*
X5069169Y-19273856D01*
X5066787Y-19328625D01*
X5051706Y-19370694D01*
X5010828Y-19401650D01*
X4929469Y-19411969D01*
X4850887Y-19401650D01*
X4808819Y-19370694D01*
X4793737Y-19327831D01*
X4791356Y-19270681D01*
X4791356Y-18992869D01*
X4754844Y-18891269D01*
X4661975Y-18854756D01*
X4562756Y-18888888D01*
X4513544Y-18965881D01*
X4513544Y-19273856D01*
X4511162Y-19328625D01*
X4496081Y-19370694D01*
X4455203Y-19401650D01*
X4373844Y-19411969D01*
X4293278Y-19401253D01*
X4251606Y-19369106D01*
X4238112Y-19327831D01*
X4235731Y-19272269D01*
X4235731Y-18322944D01*
X4238112Y-18268175D01*
X4251606Y-18227694D01*
X4293675Y-18195547D01*
X4375431Y-18184831D01*
X4455600Y-18195547D01*
G37*
G36*
X7848087Y-19408794D02*
G01*
X7758747Y-19394859D01*
X7673815Y-19353055D01*
X7593294Y-19283381D01*
X7528030Y-19195275D01*
X7488872Y-19098173D01*
X7476112Y-18994456D01*
X7753631Y-18994456D01*
X7794906Y-19088913D01*
X7894919Y-19130981D01*
X7992550Y-19088119D01*
X8031444Y-18993663D01*
X7994137Y-18897619D01*
X7894125Y-18853169D01*
X7792525Y-18897619D01*
X7753631Y-18994456D01*
X7476112Y-18994456D01*
X7475819Y-18992075D01*
X7488960Y-18886065D01*
X7528383Y-18789228D01*
X7594087Y-18701563D01*
X7675491Y-18632330D01*
X7762010Y-18590790D01*
X7853644Y-18576944D01*
X7952069Y-18595994D01*
X8013981Y-18631713D01*
X8042556Y-18664256D01*
X8078672Y-18597581D01*
X8167969Y-18575356D01*
X8260044Y-18584881D01*
X8302112Y-18618219D01*
X8316400Y-18660288D01*
X8318781Y-18715056D01*
X8318781Y-19270681D01*
X8316400Y-19325450D01*
X8302906Y-19367519D01*
X8264608Y-19398475D01*
X8194162Y-19408794D01*
X8078275Y-19387363D01*
X8044144Y-19324656D01*
X7965761Y-19387759D01*
X7894919Y-19400423D01*
X7848087Y-19408794D01*
G37*
G36*
X3855128Y-18304291D02*
G01*
X3897594Y-18348344D01*
X3905531Y-18429306D01*
X3905531Y-18584881D01*
X4011100Y-18578531D01*
X4065075Y-18580913D01*
X4107144Y-18595994D01*
X4138100Y-18636872D01*
X4148419Y-18718231D01*
X4137703Y-18798797D01*
X4105556Y-18840469D01*
X4063487Y-18853963D01*
X4008719Y-18856344D01*
X3905531Y-18849994D01*
X3905531Y-19069069D01*
X3919025Y-19130981D01*
X3969825Y-19150031D01*
X4026975Y-19152413D01*
X4069044Y-19167494D01*
X4105556Y-19273856D01*
X4094444Y-19354422D01*
X4061106Y-19396094D01*
X4019037Y-19409588D01*
X3965856Y-19411969D01*
X3864609Y-19403678D01*
X3781001Y-19378808D01*
X3715031Y-19337356D01*
X3667406Y-19276149D01*
X3638831Y-19192012D01*
X3629306Y-19084944D01*
X3629306Y-18849994D01*
X3564219Y-18854756D01*
X3506275Y-18827769D01*
X3483256Y-18735694D01*
X3491194Y-18641238D01*
X3513419Y-18599169D01*
X3576919Y-18578531D01*
X3629306Y-18584881D01*
X3629306Y-18421369D01*
X3631687Y-18367394D01*
X3646769Y-18329294D01*
X3687647Y-18299528D01*
X3769006Y-18289606D01*
X3855128Y-18304291D01*
G37*
G36*
X8909331Y-18572975D02*
G01*
X9026806Y-18613456D01*
X9082369Y-18676956D01*
X9047444Y-18770619D01*
X8976006Y-18826181D01*
X8905362Y-18802369D01*
X8793444Y-18778556D01*
X8699781Y-18813481D01*
X8726769Y-18852772D01*
X8807731Y-18875394D01*
X8910919Y-18896031D01*
X9010931Y-18935719D01*
X9087925Y-19012713D01*
X9111142Y-19074427D01*
X9118881Y-19150031D01*
X9111142Y-19226430D01*
X9087925Y-19290525D01*
X9001406Y-19377044D01*
X8927940Y-19404384D01*
X8843009Y-19420788D01*
X8746612Y-19426256D01*
X8645806Y-19416378D01*
X8547646Y-19386745D01*
X8452131Y-19337356D01*
X8421969Y-19277031D01*
X8437050Y-19225041D01*
X8482294Y-19151619D01*
X8538650Y-19124631D01*
X8644219Y-19163525D01*
X8764869Y-19202419D01*
X8837497Y-19192894D01*
X8861706Y-19164319D01*
X8835116Y-19138125D01*
X8755344Y-19119869D01*
X8655728Y-19094072D01*
X8556906Y-19045256D01*
X8480706Y-18955563D01*
X8458084Y-18888689D01*
X8450544Y-18810306D01*
X8464323Y-18720009D01*
X8505662Y-18649778D01*
X8574559Y-18599613D01*
X8671016Y-18569514D01*
X8795031Y-18559481D01*
X8909331Y-18572975D01*
G37*
G36*
X14394144Y-19084944D02*
G01*
X14446531Y-19159556D01*
X14551306Y-19189719D01*
X14633459Y-19184956D01*
X14695769Y-19170669D01*
X14713231Y-19164319D01*
X14776731Y-19146856D01*
X14864044Y-19218294D01*
X14884681Y-19291319D01*
X14863548Y-19353132D01*
X14800147Y-19397284D01*
X14694479Y-19423776D01*
X14546544Y-19432606D01*
X14435617Y-19422486D01*
X14337787Y-19392125D01*
X14256627Y-19345095D01*
X14195706Y-19284969D01*
X14140144Y-19195892D01*
X14106806Y-19100113D01*
X14095694Y-18997631D01*
X14102296Y-18940481D01*
X14390969Y-18940481D01*
X14590994Y-18940481D01*
X14651319Y-18889681D01*
X14623538Y-18830944D01*
X14544163Y-18808719D01*
X14441769Y-18850788D01*
X14390969Y-18940481D01*
X14102296Y-18940481D01*
X14110069Y-18873189D01*
X14153197Y-18766562D01*
X14225075Y-18677750D01*
X14318473Y-18611163D01*
X14426158Y-18571211D01*
X14548131Y-18557894D01*
X14651120Y-18567617D01*
X14739425Y-18596787D01*
X14813045Y-18645405D01*
X14871981Y-18713469D01*
X14912462Y-18799789D01*
X14925956Y-18893650D01*
X14913852Y-18978581D01*
X14877538Y-19038113D01*
X14770381Y-19084944D01*
X14590994Y-19084944D01*
X14394144Y-19084944D01*
G37*
G36*
X7190862Y-18598177D02*
G01*
X7286906Y-18671400D01*
X7334531Y-18750687D01*
X7363106Y-18858372D01*
X7372631Y-18994456D01*
X7372631Y-19272269D01*
X7370250Y-19327038D01*
X7355169Y-19369106D01*
X7314291Y-19401253D01*
X7232931Y-19411969D01*
X7152366Y-19400856D01*
X7110694Y-19367519D01*
X7097200Y-19325450D01*
X7094819Y-19270681D01*
X7094819Y-18992869D01*
X7070212Y-18889284D01*
X6996394Y-18854756D01*
X6920987Y-18891269D01*
X6901144Y-18994456D01*
X6901144Y-19272269D01*
X6898762Y-19327831D01*
X6883681Y-19369106D01*
X6841612Y-19401253D01*
X6759856Y-19411969D01*
X6679291Y-19400856D01*
X6637619Y-19367519D01*
X6624125Y-19325450D01*
X6621744Y-19270681D01*
X6621744Y-18992869D01*
X6597137Y-18889284D01*
X6523319Y-18854756D01*
X6451881Y-18889284D01*
X6428069Y-18992869D01*
X6428069Y-19273856D01*
X6425687Y-19328625D01*
X6410606Y-19370694D01*
X6367744Y-19401650D01*
X6286781Y-19411969D01*
X6206216Y-19401253D01*
X6164544Y-19369106D01*
X6151050Y-19327831D01*
X6148669Y-19272269D01*
X6148669Y-18713469D01*
X6151050Y-18658700D01*
X6166131Y-18618219D01*
X6206216Y-18586072D01*
X6278844Y-18575356D01*
X6394731Y-18603931D01*
X6421719Y-18686481D01*
X6503872Y-18601947D01*
X6601106Y-18573769D01*
X6699884Y-18589115D01*
X6780317Y-18635152D01*
X6842406Y-18711881D01*
X6884475Y-18661875D01*
X6963056Y-18604725D01*
X7074181Y-18573769D01*
X7190862Y-18598177D01*
G37*
G36*
X12459775Y-18598177D02*
G01*
X12555819Y-18671400D01*
X12603444Y-18750687D01*
X12632019Y-18858372D01*
X12641544Y-18994456D01*
X12641544Y-19272269D01*
X12639162Y-19327038D01*
X12624081Y-19369106D01*
X12583203Y-19401253D01*
X12501844Y-19411969D01*
X12421278Y-19400856D01*
X12379606Y-19367519D01*
X12366113Y-19325450D01*
X12363731Y-19270681D01*
X12363731Y-18992869D01*
X12339125Y-18889284D01*
X12265306Y-18854756D01*
X12189900Y-18891269D01*
X12170056Y-18994456D01*
X12170056Y-19272269D01*
X12167675Y-19327831D01*
X12152594Y-19369106D01*
X12110525Y-19401253D01*
X12028769Y-19411969D01*
X11948203Y-19400856D01*
X11906531Y-19367519D01*
X11893037Y-19325450D01*
X11890656Y-19270681D01*
X11890656Y-18992869D01*
X11866050Y-18889284D01*
X11792231Y-18854756D01*
X11720794Y-18889284D01*
X11696981Y-18992869D01*
X11696981Y-19273856D01*
X11694600Y-19328625D01*
X11679519Y-19370694D01*
X11636656Y-19401650D01*
X11555694Y-19411969D01*
X11475128Y-19401253D01*
X11433456Y-19369106D01*
X11419963Y-19327831D01*
X11417581Y-19272269D01*
X11417581Y-18713469D01*
X11419963Y-18658700D01*
X11435044Y-18618219D01*
X11475128Y-18586072D01*
X11547756Y-18575356D01*
X11663644Y-18603931D01*
X11690631Y-18686481D01*
X11772784Y-18601947D01*
X11870019Y-18573769D01*
X11968797Y-18589115D01*
X12049230Y-18635152D01*
X12111319Y-18711881D01*
X12153387Y-18661875D01*
X12231969Y-18604725D01*
X12343094Y-18573769D01*
X12459775Y-18598177D01*
G37*
G36*
X13810738Y-18598177D02*
G01*
X13906781Y-18671400D01*
X13954406Y-18750687D01*
X13982981Y-18858372D01*
X13992506Y-18994456D01*
X13992506Y-19272269D01*
X13990125Y-19327038D01*
X13975044Y-19369106D01*
X13934166Y-19401253D01*
X13852806Y-19411969D01*
X13772241Y-19400856D01*
X13730569Y-19367519D01*
X13717075Y-19325450D01*
X13714694Y-19270681D01*
X13714694Y-18992869D01*
X13690088Y-18889284D01*
X13616269Y-18854756D01*
X13540863Y-18891269D01*
X13521019Y-18994456D01*
X13521019Y-19272269D01*
X13518638Y-19327831D01*
X13503556Y-19369106D01*
X13461488Y-19401253D01*
X13379731Y-19411969D01*
X13299166Y-19400856D01*
X13257494Y-19367519D01*
X13244000Y-19325450D01*
X13241619Y-19270681D01*
X13241619Y-18992869D01*
X13217012Y-18889284D01*
X13143194Y-18854756D01*
X13071756Y-18889284D01*
X13047944Y-18992869D01*
X13047944Y-19273856D01*
X13045563Y-19328625D01*
X13030481Y-19370694D01*
X12987619Y-19401650D01*
X12906656Y-19411969D01*
X12826091Y-19401253D01*
X12784419Y-19369106D01*
X12770925Y-19327831D01*
X12768544Y-19272269D01*
X12768544Y-18713469D01*
X12770925Y-18658700D01*
X12786006Y-18618219D01*
X12826091Y-18586072D01*
X12898719Y-18575356D01*
X13014606Y-18603931D01*
X13041594Y-18686481D01*
X13123747Y-18601947D01*
X13220981Y-18573769D01*
X13319759Y-18589115D01*
X13400192Y-18635152D01*
X13462281Y-18711881D01*
X13504350Y-18661875D01*
X13582931Y-18604725D01*
X13694056Y-18573769D01*
X13810738Y-18598177D01*
G37*
G36*
X2619656Y-19259569D02*
G01*
X2532542Y-19239923D01*
X2455350Y-19180988D01*
X2401177Y-19094270D01*
X2383119Y-18991281D01*
X2386015Y-18969056D01*
X2586319Y-18969056D01*
X2611719Y-19031763D01*
X2678394Y-19057956D01*
X2752212Y-19027000D01*
X2789519Y-18957944D01*
X2789519Y-18948419D01*
X2766500Y-18884125D01*
X2699031Y-18856344D01*
X2622831Y-18887300D01*
X2586319Y-18957944D01*
X2586319Y-18969056D01*
X2386015Y-18969056D01*
X2394760Y-18901940D01*
X2429685Y-18822301D01*
X2487894Y-18752363D01*
X2590883Y-18679139D01*
X2690300Y-18654731D01*
X2773048Y-18670606D01*
X2826031Y-18718231D01*
X2856987Y-18669813D01*
X2933187Y-18653144D01*
X3006212Y-18669813D01*
X3026056Y-18707913D01*
X3022881Y-18754744D01*
X2968906Y-19161144D01*
X2957794Y-19245281D01*
X2969700Y-19271475D01*
X3007006Y-19278619D01*
X3056219Y-19272269D01*
X3110987Y-19246075D01*
X3165756Y-19194481D01*
X3208619Y-19105581D01*
X3222906Y-18991281D01*
X3212587Y-18874997D01*
X3181631Y-18780144D01*
X3132816Y-18704738D01*
X3068919Y-18646794D01*
X2964937Y-18592113D01*
X2847727Y-18559305D01*
X2717287Y-18548369D01*
X2588876Y-18561333D01*
X2477751Y-18600227D01*
X2383912Y-18665050D01*
X2312916Y-18752098D01*
X2270318Y-18857667D01*
X2256119Y-18981756D01*
X2267143Y-19106110D01*
X2300216Y-19212473D01*
X2355337Y-19300844D01*
X2433566Y-19366990D01*
X2535960Y-19406677D01*
X2662519Y-19419906D01*
X2692681Y-19419906D01*
X2745862Y-19438163D01*
X2760944Y-19505631D01*
X2753800Y-19576275D01*
X2729194Y-19605644D01*
X2660931Y-19618344D01*
X2528573Y-19607579D01*
X2410900Y-19575283D01*
X2307911Y-19521457D01*
X2219606Y-19446100D01*
X2148764Y-19352586D01*
X2098162Y-19244289D01*
X2067802Y-19121208D01*
X2057681Y-18983344D01*
X2067912Y-18859431D01*
X2098603Y-18745924D01*
X2149756Y-18642825D01*
X2217225Y-18553219D01*
X2296865Y-18480194D01*
X2388675Y-18423750D01*
X2488158Y-18383622D01*
X2590817Y-18359544D01*
X2696650Y-18351519D01*
X2800190Y-18355840D01*
X2895969Y-18368805D01*
X2983987Y-18390412D01*
X3103248Y-18438831D01*
X3208619Y-18506300D01*
X3296527Y-18595200D01*
X3363400Y-18707913D01*
X3394709Y-18792579D01*
X3413494Y-18880421D01*
X3419756Y-18971438D01*
X3410231Y-19099628D01*
X3381656Y-19206388D01*
X3337603Y-19292708D01*
X3281644Y-19359581D01*
X3195213Y-19424845D01*
X3103138Y-19464003D01*
X3005419Y-19477056D01*
X2909375Y-19461181D01*
X2830794Y-19413556D01*
X2778406Y-19338547D01*
X2760944Y-19240519D01*
X2764119Y-19202419D01*
X2701809Y-19245281D01*
X2678394Y-19249354D01*
X2619656Y-19259569D01*
G37*
G04 #@! TO.C,C1*
X27328080Y-18960000D02*
X27046920Y-18960000D01*
X27328080Y-17940000D02*
X27046920Y-17940000D01*
D10*
G04 #@! TO.C,U2*
X28612500Y-24325000D02*
X28612500Y-24200000D01*
X28612500Y-24325000D02*
X25362500Y-24325000D01*
X28612500Y-24200000D02*
X29687500Y-24200000D01*
X28612500Y-21075000D02*
X28612500Y-21300000D01*
X28612500Y-21075000D02*
X25362500Y-21075000D01*
X25362500Y-24325000D02*
X25362500Y-24100000D01*
X25362500Y-21075000D02*
X25362500Y-21300000D01*
G04 #@! TO.C,kibuzzard-6457B7F5*
G36*
X14003738Y-10802281D02*
G01*
X14141850Y-11118988D01*
X14003738Y-11433313D01*
X13722750Y-11538088D01*
X13122675Y-11538088D01*
X13122675Y-10695125D01*
X13717988Y-10695125D01*
X14003738Y-10802281D01*
G37*
G36*
X17018400Y-10802281D02*
G01*
X17156513Y-11118988D01*
X17018400Y-11433313D01*
X16742175Y-11538088D01*
X16132575Y-11538088D01*
X16132575Y-10695125D01*
X16732650Y-10695125D01*
X17018400Y-10802281D01*
G37*
G36*
X37630500Y-10802281D02*
G01*
X37768613Y-11118988D01*
X37630500Y-11433313D01*
X37349513Y-11538088D01*
X36749438Y-11538088D01*
X36749438Y-10695125D01*
X37344750Y-10695125D01*
X37630500Y-10802281D01*
G37*
G36*
X20269402Y-10717747D02*
G01*
X20559319Y-10914200D01*
X20711454Y-11107875D01*
X20802736Y-11339650D01*
X20833163Y-11609525D01*
X20803000Y-11878871D01*
X20712513Y-12109058D01*
X20561700Y-12300088D01*
X20273569Y-12492969D01*
X19952100Y-12557262D01*
X19630036Y-12491183D01*
X19340119Y-12292944D01*
X19187984Y-12099004D01*
X19096702Y-11869610D01*
X19066275Y-11604763D01*
X19096438Y-11339915D01*
X19186925Y-11110521D01*
X19337738Y-10916581D01*
X19625869Y-10718342D01*
X19947338Y-10652263D01*
X20269402Y-10717747D01*
G37*
G36*
X27441727Y-10717747D02*
G01*
X27731644Y-10914200D01*
X27883779Y-11107875D01*
X27975061Y-11339650D01*
X28005488Y-11609525D01*
X27975325Y-11878871D01*
X27884838Y-12109058D01*
X27734025Y-12300088D01*
X27445894Y-12492969D01*
X27124425Y-12557262D01*
X26802361Y-12491183D01*
X26512444Y-12292944D01*
X26360309Y-12099004D01*
X26269027Y-11869610D01*
X26238600Y-11604763D01*
X26268763Y-11339915D01*
X26359250Y-11110521D01*
X26510063Y-10916581D01*
X26798194Y-10718342D01*
X27119663Y-10652263D01*
X27441727Y-10717747D01*
G37*
G36*
X36325575Y-14392413D02*
G01*
X34082438Y-14392413D01*
X30705825Y-14392413D01*
X27133950Y-14392413D01*
X23533500Y-14392413D01*
X19961625Y-14392413D01*
X17492269Y-14392413D01*
X12698813Y-14392413D01*
X12279713Y-14392413D01*
X12279316Y-14392413D01*
X12005612Y-14378966D01*
X11734543Y-14338757D01*
X11468721Y-14272172D01*
X11210706Y-14179853D01*
X10962982Y-14062688D01*
X10727935Y-13921806D01*
X10507828Y-13758564D01*
X10304782Y-13574534D01*
X10120752Y-13371488D01*
X9957510Y-13151381D01*
X9816628Y-12916334D01*
X9815737Y-12914450D01*
X12279713Y-12914450D01*
X12308288Y-13162100D01*
X12434494Y-13294259D01*
X12698813Y-13338313D01*
X12944081Y-13306166D01*
X13070288Y-13209725D01*
X13115531Y-13083519D01*
X13122675Y-12919213D01*
X13122675Y-12914450D01*
X15289613Y-12914450D01*
X15318188Y-13162100D01*
X15444394Y-13294259D01*
X15708713Y-13338313D01*
X15953981Y-13306166D01*
X16080188Y-13209725D01*
X16125431Y-13083519D01*
X16132575Y-12919213D01*
X16132575Y-12381050D01*
X16732650Y-12381050D01*
X16880288Y-12371525D01*
X17065496Y-12810204D01*
X17189321Y-13097542D01*
X17251763Y-13233538D01*
X17339869Y-13326406D01*
X17492269Y-13371650D01*
X17737538Y-13304975D01*
X17958994Y-13166863D01*
X18032813Y-13000175D01*
X17961375Y-12752525D01*
X17828025Y-12449312D01*
X17720075Y-12200075D01*
X17637525Y-12004813D01*
X17835963Y-11751871D01*
X17885679Y-11628575D01*
X18223313Y-11628575D01*
X18255013Y-11978023D01*
X18350114Y-12302469D01*
X18508616Y-12601911D01*
X18730519Y-12876350D01*
X18997665Y-13105545D01*
X19291899Y-13269256D01*
X19613219Y-13367483D01*
X19961625Y-13400225D01*
X20309288Y-13367036D01*
X20628375Y-13267470D01*
X20918888Y-13101527D01*
X21180825Y-12869206D01*
X21397519Y-12589707D01*
X21552300Y-12282228D01*
X21645169Y-11946770D01*
X21676125Y-11583331D01*
X21643681Y-11221232D01*
X21546347Y-10889792D01*
X21384124Y-10589011D01*
X21157013Y-10318888D01*
X21000613Y-10190300D01*
X21866625Y-10190300D01*
X21890438Y-10390325D01*
X21985688Y-10502244D01*
X22209525Y-10537962D01*
X23123925Y-10537962D01*
X23123925Y-12928738D01*
X23131069Y-13093044D01*
X23173931Y-13216869D01*
X23297756Y-13314500D01*
X23533500Y-13343075D01*
X23771625Y-13314500D01*
X23897831Y-13216869D01*
X23940694Y-13095425D01*
X23947838Y-12933500D01*
X23947838Y-11628575D01*
X25395638Y-11628575D01*
X25427338Y-11978023D01*
X25522439Y-12302469D01*
X25680941Y-12601911D01*
X25902844Y-12876350D01*
X26169990Y-13105545D01*
X26464224Y-13269256D01*
X26785544Y-13367483D01*
X27133950Y-13400225D01*
X27481613Y-13367036D01*
X27800700Y-13267470D01*
X28091213Y-13101527D01*
X28353150Y-12869206D01*
X28569844Y-12589707D01*
X28724625Y-12282228D01*
X28817494Y-11946770D01*
X28848450Y-11583331D01*
X28816006Y-11221232D01*
X28718672Y-10889792D01*
X28556449Y-10589011D01*
X28329338Y-10318888D01*
X28172938Y-10190300D01*
X29038950Y-10190300D01*
X29062763Y-10390325D01*
X29158013Y-10502244D01*
X29381850Y-10537962D01*
X30296250Y-10537962D01*
X30296250Y-12928738D01*
X30303394Y-13093044D01*
X30346256Y-13216869D01*
X30470081Y-13314500D01*
X30705825Y-13343075D01*
X30943950Y-13314500D01*
X31070156Y-13216869D01*
X31113019Y-13095425D01*
X31120163Y-12933500D01*
X31120163Y-10537962D01*
X32029800Y-10537962D01*
X32272688Y-10495100D01*
X32353650Y-10392706D01*
X32372873Y-10233162D01*
X32520338Y-10233162D01*
X32629875Y-10485575D01*
X33658575Y-12023863D01*
X33658575Y-12923975D01*
X33665719Y-13093044D01*
X33710963Y-13221631D01*
X33839550Y-13324025D01*
X34082438Y-13352600D01*
X34325325Y-13324025D01*
X34453913Y-13224012D01*
X34499156Y-13097806D01*
X34506300Y-12933500D01*
X34506300Y-12914450D01*
X35906475Y-12914450D01*
X35935050Y-13162100D01*
X36061256Y-13294259D01*
X36325575Y-13338313D01*
X36570844Y-13306166D01*
X36697050Y-13209725D01*
X36742294Y-13083519D01*
X36749438Y-12919213D01*
X38916375Y-12919213D01*
X38944950Y-13162100D01*
X39071156Y-13297831D01*
X39335475Y-13343075D01*
X41221425Y-13343075D01*
X41469075Y-13314500D01*
X41601235Y-13188294D01*
X41645288Y-12923975D01*
X41613141Y-12678706D01*
X41516700Y-12552500D01*
X41390494Y-12507256D01*
X41226188Y-12500112D01*
X39759338Y-12500112D01*
X39759338Y-12019100D01*
X40692788Y-12019100D01*
X40940438Y-11990525D01*
X41076169Y-11864319D01*
X41121413Y-11600000D01*
X41089266Y-11354731D01*
X40992825Y-11228525D01*
X40866619Y-11183281D01*
X40702313Y-11176138D01*
X39759338Y-11176138D01*
X39759338Y-10695125D01*
X41221425Y-10695125D01*
X41469075Y-10666550D01*
X41601235Y-10540344D01*
X41645288Y-10276025D01*
X41613141Y-10030756D01*
X41516700Y-9904550D01*
X41390494Y-9859306D01*
X41226188Y-9852163D01*
X39349763Y-9852163D01*
X39006863Y-9940269D01*
X38916375Y-10271262D01*
X38916375Y-12919213D01*
X36749438Y-12919213D01*
X36749438Y-12381050D01*
X37344750Y-12381050D01*
X37624150Y-12347183D01*
X37897200Y-12245583D01*
X38163900Y-12076250D01*
X38341303Y-11903014D01*
X38482988Y-11678581D01*
X38575856Y-11413667D01*
X38606813Y-11118988D01*
X38575856Y-10823713D01*
X38482988Y-10557012D01*
X38341303Y-10330794D01*
X38163900Y-10156962D01*
X37897729Y-9987629D01*
X37626267Y-9886029D01*
X37349513Y-9852163D01*
X36330338Y-9852163D01*
X36085069Y-9884309D01*
X35958863Y-9980750D01*
X35913619Y-10106956D01*
X35906475Y-10271262D01*
X35906475Y-12914450D01*
X34506300Y-12914450D01*
X34506300Y-12023863D01*
X35535000Y-10485575D01*
X35644538Y-10233162D01*
X35586197Y-10078381D01*
X35411175Y-9918837D01*
X35132569Y-9799775D01*
X34977788Y-9845019D01*
X34820625Y-10033138D01*
X34082438Y-11214238D01*
X33344250Y-10033138D01*
X33172800Y-9837875D01*
X33029925Y-9799775D01*
X32729888Y-9940269D01*
X32572725Y-10083739D01*
X32520338Y-10233162D01*
X32372873Y-10233162D01*
X32377463Y-10195062D01*
X32353650Y-9995038D01*
X32258400Y-9883119D01*
X32034563Y-9847400D01*
X29386613Y-9847400D01*
X29143725Y-9890262D01*
X29062763Y-9992656D01*
X29038950Y-10190300D01*
X28172938Y-10190300D01*
X28058173Y-10095943D01*
X27763791Y-9936697D01*
X27446192Y-9841149D01*
X27105375Y-9809300D01*
X26781525Y-9842638D01*
X26467200Y-9942650D01*
X26175497Y-10101003D01*
X25919513Y-10309363D01*
X25705200Y-10570705D01*
X25538513Y-10888006D01*
X25431356Y-11245789D01*
X25395638Y-11628575D01*
X23947838Y-11628575D01*
X23947838Y-10537962D01*
X24857475Y-10537962D01*
X25100363Y-10495100D01*
X25181325Y-10392706D01*
X25205138Y-10195062D01*
X25181325Y-9995038D01*
X25086075Y-9883119D01*
X24862238Y-9847400D01*
X22214288Y-9847400D01*
X21971400Y-9890262D01*
X21890438Y-9992656D01*
X21866625Y-10190300D01*
X21000613Y-10190300D01*
X20885848Y-10095943D01*
X20591466Y-9936697D01*
X20273867Y-9841149D01*
X19933050Y-9809300D01*
X19609200Y-9842638D01*
X19294875Y-9942650D01*
X19003172Y-10101003D01*
X18747188Y-10309363D01*
X18532875Y-10570705D01*
X18366188Y-10888006D01*
X18259031Y-11245789D01*
X18223313Y-11628575D01*
X17885679Y-11628575D01*
X17955025Y-11456596D01*
X17994713Y-11118988D01*
X17963756Y-10823713D01*
X17870888Y-10557012D01*
X17730394Y-10330794D01*
X17556563Y-10156962D01*
X17290392Y-9987629D01*
X17018929Y-9886029D01*
X16742175Y-9852163D01*
X15713475Y-9852163D01*
X15468206Y-9884309D01*
X15342000Y-9980750D01*
X15296756Y-10106956D01*
X15289613Y-10271262D01*
X15289613Y-12914450D01*
X13122675Y-12914450D01*
X13122675Y-12381050D01*
X13717988Y-12381050D01*
X13997388Y-12347183D01*
X14270438Y-12245583D01*
X14537138Y-12076250D01*
X14714541Y-11903014D01*
X14856225Y-11678581D01*
X14949094Y-11413667D01*
X14980050Y-11118988D01*
X14949094Y-10823713D01*
X14856225Y-10557012D01*
X14714541Y-10330794D01*
X14537138Y-10156962D01*
X14270967Y-9987629D01*
X13999504Y-9886029D01*
X13722750Y-9852163D01*
X12703575Y-9852163D01*
X12458306Y-9884309D01*
X12332100Y-9980750D01*
X12286856Y-10106956D01*
X12279713Y-10271262D01*
X12279713Y-12914450D01*
X9815737Y-12914450D01*
X9699463Y-12668610D01*
X9607144Y-12410595D01*
X9540559Y-12144773D01*
X9500350Y-11873704D01*
X9486903Y-11600000D01*
X9500350Y-11326296D01*
X9540559Y-11055227D01*
X9607144Y-10789405D01*
X9699463Y-10531390D01*
X9816628Y-10283666D01*
X9957510Y-10048619D01*
X10120752Y-9828512D01*
X10304782Y-9625466D01*
X10507828Y-9441436D01*
X10727935Y-9278194D01*
X10962982Y-9137312D01*
X11210706Y-9020147D01*
X11468721Y-8927828D01*
X11734543Y-8861243D01*
X12005612Y-8821034D01*
X12279316Y-8807587D01*
X12279713Y-8807587D01*
X41645288Y-8807587D01*
X41645685Y-8807587D01*
X41645685Y-8807588D01*
X41919389Y-8821034D01*
X42190457Y-8861243D01*
X42456279Y-8927828D01*
X42714294Y-9020147D01*
X42962019Y-9137312D01*
X43197066Y-9278194D01*
X43417172Y-9441436D01*
X43620218Y-9625466D01*
X43804248Y-9828512D01*
X43967490Y-10048619D01*
X44108372Y-10283666D01*
X44225537Y-10531390D01*
X44317856Y-10789406D01*
X44384441Y-11055227D01*
X44424650Y-11326296D01*
X44438097Y-11600000D01*
X44424650Y-11873704D01*
X44384441Y-12144773D01*
X44317856Y-12410594D01*
X44225537Y-12668610D01*
X44108372Y-12916334D01*
X43967490Y-13151381D01*
X43804248Y-13371488D01*
X43620218Y-13574534D01*
X43417172Y-13758564D01*
X43197066Y-13921806D01*
X42962019Y-14062688D01*
X42714294Y-14179853D01*
X42456279Y-14272172D01*
X42190457Y-14338757D01*
X41919389Y-14378966D01*
X41645685Y-14392412D01*
X41645685Y-14392413D01*
X41645288Y-14392413D01*
X41221425Y-14392413D01*
X36325575Y-14392413D01*
G37*
G04 #@! TD*
%LPC*%
D12*
G04 #@! TO.C,FD*
X33087500Y-22700000D03*
G04 #@! TD*
D13*
G04 #@! TO.C,J1*
X48587500Y-20500000D03*
X48587500Y-19500000D03*
X48587500Y-18500000D03*
X48587500Y-17500000D03*
D14*
X52462500Y-21800000D03*
X52462500Y-16200000D03*
G04 #@! TD*
D12*
G04 #@! TO.C,VOUT*
X20687500Y-22700000D03*
G04 #@! TD*
D15*
G04 #@! TO.C,C1*
X27962500Y-18450000D03*
X26412500Y-18450000D03*
G04 #@! TD*
D16*
G04 #@! TO.C,U2*
X29137500Y-23675000D03*
X29137500Y-23025000D03*
X29137500Y-22375000D03*
X29137500Y-21725000D03*
X24837500Y-21725000D03*
X24837500Y-22375000D03*
X24837500Y-23025000D03*
X24837500Y-23675000D03*
G04 #@! TD*
M02*
