G04 #@! TF.GenerationSoftware,KiCad,Pcbnew,7.0.1-0*
G04 #@! TF.CreationDate,2023-05-11T23:21:43+02:00*
G04 #@! TF.ProjectId,nfc_card_emulation_large,6e66635f-6361-4726-945f-656d756c6174,1.0*
G04 #@! TF.SameCoordinates,PX354a940PY3072580*
G04 #@! TF.FileFunction,Legend,Bot*
G04 #@! TF.FilePolarity,Positive*
%FSLAX46Y46*%
G04 Gerber Fmt 4.6, Leading zero omitted, Abs format (unit mm)*
G04 Created by KiCad (PCBNEW 7.0.1-0) date 2023-05-11 23:21:43*
%MOMM*%
%LPD*%
G01*
G04 APERTURE LIST*
G04 APERTURE END LIST*
G04 #@! TO.C,G\u002A\u002A\u002A*
G36*
X54091256Y-85654441D02*
G01*
X54091256Y-85930067D01*
X53815630Y-85930067D01*
X53540004Y-85930067D01*
X53540004Y-85654441D01*
X53540004Y-85378815D01*
X53815630Y-85378815D01*
X54091256Y-85378815D01*
X54091256Y-85654441D01*
G37*
G36*
X54091256Y-167964D02*
G01*
X54091256Y-443590D01*
X53815630Y-443590D01*
X53540004Y-443590D01*
X53540004Y-167964D01*
X53540004Y107662D01*
X53815630Y107662D01*
X54091256Y107662D01*
X54091256Y-167964D01*
G37*
G36*
X492592Y-85654441D02*
G01*
X492592Y-85930067D01*
X238168Y-85930067D01*
X-16256Y-85930067D01*
X-16256Y-85654441D01*
X-16256Y-85378815D01*
X238168Y-85378815D01*
X492592Y-85378815D01*
X492592Y-85654441D01*
G37*
G36*
X492592Y-295176D02*
G01*
X492592Y-570802D01*
X238168Y-570802D01*
X-16256Y-570802D01*
X-16256Y-295176D01*
X-16256Y-19550D01*
X238168Y-19550D01*
X492592Y-19550D01*
X492592Y-295176D01*
G37*
G36*
X53741450Y-18368323D02*
G01*
X53868635Y-18389947D01*
X54091256Y-18434126D01*
X54091256Y-26307032D01*
X54091256Y-34179938D01*
X53898599Y-35026038D01*
X53886321Y-35079910D01*
X53827509Y-35336580D01*
X53774525Y-35565643D01*
X53730590Y-35753321D01*
X53698924Y-35885836D01*
X53682748Y-35949411D01*
X53660926Y-35990095D01*
X53610381Y-36009405D01*
X53578542Y-36001223D01*
X53470357Y-35975566D01*
X53294565Y-35934740D01*
X53059717Y-35880707D01*
X52774367Y-35815425D01*
X52447066Y-35740856D01*
X52086366Y-35658960D01*
X51700820Y-35571697D01*
X51398765Y-35502923D01*
X51034167Y-35418463D01*
X50702180Y-35339954D01*
X50411171Y-35269457D01*
X50169504Y-35209037D01*
X49985545Y-35160756D01*
X49867659Y-35126678D01*
X49824212Y-35108865D01*
X49828249Y-35083951D01*
X49849377Y-34981765D01*
X49887534Y-34805181D01*
X49941640Y-34558959D01*
X50010611Y-34247863D01*
X50093368Y-33876651D01*
X50188827Y-33450087D01*
X50295908Y-32972931D01*
X50413530Y-32449944D01*
X50540610Y-31885887D01*
X50676067Y-31285522D01*
X50818820Y-30653609D01*
X50967786Y-29994911D01*
X51121885Y-29314188D01*
X51280035Y-28616201D01*
X51441154Y-27905712D01*
X51604161Y-27187482D01*
X51767974Y-26466271D01*
X51931512Y-25746842D01*
X52093693Y-25033955D01*
X52253435Y-24332372D01*
X52409657Y-23646854D01*
X52561278Y-22982161D01*
X52707215Y-22343056D01*
X52846388Y-21734299D01*
X52977715Y-21160652D01*
X53100114Y-20626875D01*
X53212503Y-20137731D01*
X53313802Y-19697979D01*
X53402928Y-19312382D01*
X53478800Y-18985701D01*
X53540337Y-18722696D01*
X53586456Y-18528130D01*
X53616077Y-18406762D01*
X53628117Y-18363355D01*
X53652770Y-18360014D01*
X53741450Y-18368323D01*
G37*
G36*
X22843427Y-11296454D02*
G01*
X23693078Y-11341152D01*
X24502322Y-11454278D01*
X25282826Y-11638485D01*
X26046256Y-11896426D01*
X26804278Y-12230752D01*
X27420701Y-12561655D01*
X28087160Y-12994870D01*
X28706769Y-13487295D01*
X29295147Y-14050343D01*
X29306310Y-14061989D01*
X29795864Y-14610089D01*
X30219758Y-15167412D01*
X30595243Y-15758701D01*
X30939571Y-16408698D01*
X31052985Y-16648727D01*
X31343602Y-17352372D01*
X31562430Y-18043760D01*
X31713488Y-18740115D01*
X31800796Y-19458664D01*
X31828376Y-20216629D01*
X31821149Y-20601182D01*
X31794068Y-21014554D01*
X31743534Y-21422725D01*
X31666018Y-21853322D01*
X31557993Y-22333971D01*
X31410065Y-22882473D01*
X31173521Y-23566737D01*
X30885846Y-24207024D01*
X30538303Y-24822180D01*
X30122155Y-25431050D01*
X30082288Y-25483787D01*
X29880077Y-25730421D01*
X29633422Y-26006214D01*
X29360406Y-26292610D01*
X29079114Y-26571052D01*
X28807632Y-26822983D01*
X28564044Y-27029844D01*
X28056896Y-27406430D01*
X27309600Y-27871838D01*
X26522616Y-28263436D01*
X25699912Y-28579541D01*
X24845454Y-28818474D01*
X23963210Y-28978554D01*
X23929690Y-28982373D01*
X23774797Y-28992763D01*
X23558147Y-29000443D01*
X23297204Y-29005062D01*
X23009432Y-29006270D01*
X22712292Y-29003716D01*
X22458998Y-28998466D01*
X22060579Y-28981885D01*
X21707870Y-28952880D01*
X21376011Y-28907753D01*
X21040139Y-28842810D01*
X20675391Y-28754353D01*
X20256904Y-28638687D01*
X19596844Y-28420261D01*
X18809547Y-28081039D01*
X18059431Y-27669551D01*
X17351685Y-27190141D01*
X16691494Y-26647153D01*
X16084046Y-26044931D01*
X15534527Y-25387819D01*
X15048125Y-24680161D01*
X14630027Y-23926301D01*
X14599758Y-23863879D01*
X14536503Y-23725233D01*
X14496708Y-23625420D01*
X14487955Y-23582775D01*
X14514682Y-23573109D01*
X14615158Y-23541129D01*
X14782347Y-23489496D01*
X15008007Y-23420710D01*
X15283893Y-23337270D01*
X15601764Y-23241677D01*
X15953377Y-23136429D01*
X16330489Y-23024027D01*
X16620368Y-22937764D01*
X16980475Y-22830488D01*
X17309571Y-22732322D01*
X17599276Y-22645774D01*
X17841208Y-22573349D01*
X18026986Y-22517556D01*
X18148230Y-22480899D01*
X18196558Y-22465887D01*
X18210052Y-22470284D01*
X18262213Y-22527417D01*
X18336655Y-22636532D01*
X18422003Y-22781695D01*
X18458808Y-22847156D01*
X18757968Y-23306037D01*
X19108524Y-23735688D01*
X19493931Y-24117587D01*
X19897640Y-24433216D01*
X20403163Y-24728716D01*
X20963941Y-24968635D01*
X21560581Y-25145402D01*
X22178475Y-25254697D01*
X22803016Y-25292202D01*
X22849401Y-25292031D01*
X23406134Y-25258087D01*
X23931157Y-25162047D01*
X24439081Y-24999313D01*
X24944515Y-24765289D01*
X25462068Y-24455377D01*
X25624011Y-24343315D01*
X26104480Y-23943866D01*
X26530180Y-23481927D01*
X26898794Y-22961092D01*
X27208005Y-22384952D01*
X27455495Y-21757100D01*
X27638947Y-21081128D01*
X27665226Y-20940891D01*
X27704675Y-20625372D01*
X27728363Y-20274003D01*
X27736044Y-19910573D01*
X27727471Y-19558869D01*
X27702401Y-19242678D01*
X27660586Y-18985789D01*
X27507436Y-18437431D01*
X27261277Y-17821802D01*
X26950827Y-17259382D01*
X26578974Y-16752744D01*
X26148605Y-16304461D01*
X25662604Y-15917103D01*
X25123859Y-15593244D01*
X24535256Y-15335456D01*
X23899681Y-15146310D01*
X23220019Y-15028380D01*
X22941355Y-15004736D01*
X22331378Y-15013740D01*
X21729678Y-15105217D01*
X21142401Y-15277565D01*
X20575696Y-15529182D01*
X20035709Y-15858465D01*
X19698750Y-16094579D01*
X19577672Y-15997214D01*
X19556010Y-15979005D01*
X19469744Y-15903760D01*
X19331464Y-15781493D01*
X19148425Y-15618676D01*
X18927882Y-15421781D01*
X18677088Y-15197278D01*
X18403299Y-14951639D01*
X18113768Y-14691336D01*
X16770944Y-13482822D01*
X16953554Y-13321268D01*
X16995354Y-13285187D01*
X17216092Y-13112838D01*
X17490649Y-12920251D01*
X17800048Y-12719420D01*
X18125310Y-12522340D01*
X18447459Y-12341005D01*
X18747517Y-12187410D01*
X19065215Y-12040720D01*
X19767910Y-11761328D01*
X20463438Y-11551270D01*
X21170205Y-11406383D01*
X21906620Y-11322504D01*
X22691090Y-11295469D01*
X22843427Y-11296454D01*
G37*
G36*
X36124324Y-63798876D02*
G01*
X37369723Y-63798959D01*
X38544785Y-63799104D01*
X39651576Y-63799319D01*
X40692158Y-63799608D01*
X41668596Y-63799980D01*
X42582952Y-63800439D01*
X43437291Y-63800994D01*
X44233677Y-63801649D01*
X44974174Y-63802413D01*
X45660844Y-63803290D01*
X46295753Y-63804288D01*
X46880963Y-63805413D01*
X47418538Y-63806671D01*
X47910543Y-63808069D01*
X48359041Y-63809613D01*
X48766095Y-63811311D01*
X49133770Y-63813167D01*
X49464129Y-63815189D01*
X49759236Y-63817383D01*
X50021155Y-63819756D01*
X50251950Y-63822314D01*
X50453684Y-63825063D01*
X50628421Y-63828010D01*
X50778225Y-63831162D01*
X50905159Y-63834524D01*
X51011288Y-63838104D01*
X51098676Y-63841907D01*
X51169385Y-63845941D01*
X51225479Y-63850211D01*
X51269024Y-63854724D01*
X51302081Y-63859487D01*
X51326715Y-63864506D01*
X51344991Y-63869787D01*
X51358970Y-63875337D01*
X51535108Y-63973976D01*
X51771435Y-64181555D01*
X51947003Y-64441450D01*
X52055864Y-64659907D01*
X52055864Y-73783317D01*
X52055798Y-74609710D01*
X52055493Y-75657309D01*
X52054928Y-76624208D01*
X52054091Y-77512771D01*
X52052968Y-78325361D01*
X52051548Y-79064342D01*
X52049818Y-79732077D01*
X52047765Y-80330929D01*
X52045377Y-80863262D01*
X52042641Y-81331440D01*
X52039545Y-81737825D01*
X52036076Y-82084781D01*
X52032222Y-82374672D01*
X52027971Y-82609861D01*
X52023308Y-82792712D01*
X52018223Y-82925588D01*
X52012703Y-83010852D01*
X52006735Y-83050868D01*
X51950419Y-83187950D01*
X51780096Y-83444708D01*
X51546269Y-83648691D01*
X51255180Y-83793729D01*
X51243246Y-83796230D01*
X51202757Y-83800118D01*
X51134459Y-83803821D01*
X51036513Y-83807343D01*
X50907081Y-83810690D01*
X50744324Y-83813865D01*
X50546402Y-83816873D01*
X50311478Y-83819717D01*
X50037713Y-83822403D01*
X49723269Y-83824934D01*
X49366305Y-83827315D01*
X48964985Y-83829550D01*
X48517468Y-83831644D01*
X48021917Y-83833600D01*
X47476493Y-83835424D01*
X46879357Y-83837118D01*
X46228671Y-83838689D01*
X45522595Y-83840139D01*
X44759291Y-83841473D01*
X43936921Y-83842696D01*
X43053646Y-83843812D01*
X42107626Y-83844825D01*
X41097024Y-83845739D01*
X40020001Y-83846560D01*
X38874718Y-83847290D01*
X37659336Y-83847934D01*
X36372017Y-83848498D01*
X35010921Y-83848984D01*
X33574212Y-83849397D01*
X32060049Y-83849742D01*
X30466594Y-83850023D01*
X28792008Y-83850244D01*
X27034453Y-83850409D01*
X26505406Y-83850449D01*
X24817641Y-83850562D01*
X23212002Y-83850640D01*
X21686435Y-83850678D01*
X20238882Y-83850670D01*
X18867288Y-83850610D01*
X17569595Y-83850492D01*
X16343748Y-83850311D01*
X15187690Y-83850061D01*
X14099366Y-83849735D01*
X13076717Y-83849328D01*
X12117689Y-83848834D01*
X11220225Y-83848247D01*
X10382269Y-83847562D01*
X9601763Y-83846772D01*
X8876653Y-83845871D01*
X8204881Y-83844854D01*
X7584391Y-83843715D01*
X7013127Y-83842448D01*
X6489033Y-83841048D01*
X6010052Y-83839507D01*
X5574127Y-83837820D01*
X5179204Y-83835983D01*
X4823224Y-83833987D01*
X4504132Y-83831829D01*
X4219872Y-83829501D01*
X3968387Y-83826999D01*
X3747620Y-83824316D01*
X3555516Y-83821446D01*
X3390019Y-83818383D01*
X3249071Y-83815122D01*
X3130616Y-83811657D01*
X3032599Y-83807982D01*
X2952962Y-83804091D01*
X2889650Y-83799978D01*
X2840606Y-83795637D01*
X2803774Y-83791062D01*
X2777097Y-83786248D01*
X2758519Y-83781189D01*
X2555324Y-83678186D01*
X2333403Y-83493605D01*
X2322032Y-83482488D01*
X2282750Y-83447534D01*
X2246526Y-83418517D01*
X2213240Y-83392075D01*
X2182773Y-83364847D01*
X2155005Y-83333474D01*
X2129818Y-83294593D01*
X2107092Y-83244843D01*
X2086708Y-83180865D01*
X2068545Y-83099297D01*
X2052486Y-82996777D01*
X2038410Y-82869947D01*
X2026198Y-82715443D01*
X2015731Y-82529906D01*
X2006890Y-82309974D01*
X1999554Y-82052288D01*
X1993606Y-81753485D01*
X1988925Y-81410204D01*
X1985392Y-81019086D01*
X1982887Y-80576769D01*
X1981292Y-80079892D01*
X1980487Y-79525095D01*
X1980353Y-78909015D01*
X1980770Y-78228294D01*
X1981620Y-77479569D01*
X1982781Y-76659479D01*
X1984136Y-75764665D01*
X1985565Y-74791764D01*
X1986949Y-73737417D01*
X1997934Y-64622054D01*
X2125146Y-64391405D01*
X2274203Y-64184087D01*
X2497564Y-63986916D01*
X2753402Y-63851407D01*
X2774919Y-63848343D01*
X2837438Y-63844755D01*
X2941272Y-63841334D01*
X3087973Y-63838074D01*
X3279096Y-63834973D01*
X3516192Y-63832028D01*
X3800816Y-63829235D01*
X4134522Y-63826590D01*
X4518861Y-63824092D01*
X4955388Y-63821735D01*
X5445657Y-63819517D01*
X5991219Y-63817435D01*
X6593629Y-63815485D01*
X7254441Y-63813664D01*
X7975207Y-63811968D01*
X8757480Y-63810395D01*
X9602815Y-63808940D01*
X10512764Y-63807601D01*
X11488881Y-63806374D01*
X12532719Y-63805257D01*
X13645832Y-63804244D01*
X14829772Y-63803334D01*
X16086094Y-63802523D01*
X17416350Y-63801807D01*
X18822094Y-63801184D01*
X20304879Y-63800649D01*
X21866259Y-63800200D01*
X23507787Y-63799833D01*
X25231016Y-63799545D01*
X27037500Y-63799333D01*
X27059305Y-63799331D01*
X28770058Y-63799174D01*
X30398094Y-63799041D01*
X31945474Y-63798939D01*
X33414263Y-63798873D01*
X34806525Y-63798850D01*
X36124324Y-63798876D01*
G37*
G36*
X79153Y-6138959D02*
G01*
X85940Y-6140535D01*
X163334Y-6158236D01*
X313243Y-6192368D01*
X527419Y-6241058D01*
X797611Y-6302433D01*
X1115571Y-6374619D01*
X1473049Y-6455742D01*
X1861795Y-6543930D01*
X2273560Y-6637308D01*
X2387518Y-6663152D01*
X2789444Y-6754389D01*
X3163335Y-6839393D01*
X3501381Y-6916381D01*
X3795769Y-6983568D01*
X4038688Y-7039170D01*
X4222327Y-7081401D01*
X4338873Y-7108478D01*
X4380516Y-7118616D01*
X4381864Y-7122148D01*
X4402007Y-7184736D01*
X4444825Y-7321194D01*
X4508589Y-7525925D01*
X4591567Y-7793334D01*
X4692031Y-8117824D01*
X4808250Y-8493798D01*
X4938493Y-8915661D01*
X5081031Y-9377816D01*
X5234132Y-9874667D01*
X5396068Y-10400618D01*
X5565107Y-10950072D01*
X5614158Y-11109495D01*
X5781656Y-11652711D01*
X5941930Y-12170716D01*
X6093222Y-12657922D01*
X6233772Y-13108739D01*
X6361822Y-13517580D01*
X6475613Y-13878855D01*
X6573387Y-14186976D01*
X6653385Y-14436354D01*
X6713847Y-14621400D01*
X6753016Y-14736527D01*
X6769133Y-14776144D01*
X6784815Y-14768343D01*
X6862332Y-14719563D01*
X6996797Y-14630779D01*
X7180273Y-14507479D01*
X7404822Y-14355152D01*
X7662507Y-14179285D01*
X7945392Y-13985368D01*
X8245539Y-13778889D01*
X8555011Y-13565337D01*
X8865870Y-13350199D01*
X9170181Y-13138965D01*
X9460005Y-12937123D01*
X9727406Y-12750162D01*
X9964446Y-12583569D01*
X10163189Y-12442834D01*
X10315697Y-12333445D01*
X10414033Y-12260890D01*
X10450259Y-12230658D01*
X10453743Y-12217558D01*
X10474023Y-12133103D01*
X10510122Y-11978970D01*
X10559993Y-11764015D01*
X10621591Y-11497095D01*
X10692869Y-11187066D01*
X10771782Y-10842784D01*
X10856283Y-10473106D01*
X10896847Y-10295944D01*
X10979633Y-9937752D01*
X11056517Y-9609529D01*
X11125376Y-9320069D01*
X11184088Y-9078167D01*
X11230528Y-8892616D01*
X11262575Y-8772211D01*
X11278104Y-8725746D01*
X11289343Y-8725388D01*
X11369275Y-8737621D01*
X11517137Y-8765744D01*
X11722916Y-8807529D01*
X11976598Y-8860746D01*
X12268173Y-8923166D01*
X12587627Y-8992559D01*
X12924949Y-9066696D01*
X13270126Y-9143348D01*
X13613145Y-9220286D01*
X13943994Y-9295280D01*
X14252661Y-9366100D01*
X14529134Y-9430518D01*
X14763400Y-9486304D01*
X14945446Y-9531229D01*
X15065261Y-9563064D01*
X15112832Y-9579578D01*
X15110283Y-9595731D01*
X15091584Y-9685940D01*
X15055789Y-9851181D01*
X15003972Y-10086698D01*
X14937212Y-10387737D01*
X14856585Y-10749541D01*
X14763168Y-11167356D01*
X14658038Y-11636426D01*
X14542271Y-12151995D01*
X14416945Y-12709308D01*
X14283137Y-13303610D01*
X14141922Y-13930146D01*
X13994378Y-14584159D01*
X13841583Y-15260894D01*
X13684611Y-15955597D01*
X13524542Y-16663512D01*
X13362450Y-17379883D01*
X13199414Y-18099955D01*
X13036510Y-18818972D01*
X12874815Y-19532179D01*
X12715405Y-20234821D01*
X12559358Y-20922143D01*
X12407750Y-21589388D01*
X12261659Y-22231802D01*
X12122160Y-22844629D01*
X11990332Y-23423114D01*
X11867250Y-23962501D01*
X11753992Y-24458035D01*
X11651634Y-24904960D01*
X11561253Y-25298522D01*
X11483927Y-25633964D01*
X11420731Y-25906532D01*
X11372743Y-26111469D01*
X11341040Y-26244021D01*
X11326698Y-26299433D01*
X11317491Y-26319110D01*
X11275142Y-26352749D01*
X11262308Y-26350770D01*
X11179337Y-26333697D01*
X11028984Y-26300999D01*
X10821255Y-26254960D01*
X10566159Y-26197861D01*
X10273705Y-26131987D01*
X9953900Y-26059619D01*
X9616753Y-25983041D01*
X9272272Y-25904535D01*
X8930464Y-25826384D01*
X8601339Y-25750871D01*
X8294905Y-25680279D01*
X8021168Y-25616891D01*
X7790139Y-25562988D01*
X7611824Y-25520855D01*
X7496232Y-25492774D01*
X7453371Y-25481027D01*
X7453286Y-25480831D01*
X7461242Y-25434598D01*
X7486764Y-25311829D01*
X7528547Y-25118369D01*
X7585286Y-24860061D01*
X7655675Y-24542750D01*
X7738411Y-24172280D01*
X7832188Y-23754494D01*
X7935701Y-23295237D01*
X8047645Y-22800353D01*
X8166716Y-22275686D01*
X8291607Y-21727079D01*
X8298000Y-21699040D01*
X8422658Y-21151594D01*
X8541499Y-20628458D01*
X8653213Y-20135469D01*
X8756489Y-19678462D01*
X8850019Y-19263274D01*
X8932492Y-18895740D01*
X9002598Y-18581698D01*
X9059029Y-18326983D01*
X9100473Y-18137431D01*
X9125622Y-18018879D01*
X9133165Y-17977162D01*
X9115525Y-17988703D01*
X9035381Y-18046153D01*
X8894347Y-18149004D01*
X8696601Y-18294167D01*
X8446322Y-18478550D01*
X8147686Y-18699063D01*
X7804872Y-18952615D01*
X7422057Y-19236115D01*
X7003421Y-19546472D01*
X6553140Y-19880597D01*
X6075394Y-20235397D01*
X5574358Y-20607782D01*
X5054213Y-20994662D01*
X4573932Y-21351679D01*
X3991089Y-21783914D01*
X3450838Y-22183377D01*
X2955691Y-22548239D01*
X2508161Y-22876673D01*
X2110762Y-23166850D01*
X1766005Y-23416944D01*
X1476405Y-23625124D01*
X1244474Y-23789565D01*
X1072724Y-23908437D01*
X963670Y-23979913D01*
X919822Y-24002164D01*
X879962Y-23992074D01*
X766667Y-23965494D01*
X605871Y-23928918D01*
X418385Y-23887120D01*
X-16256Y-23791140D01*
X-16256Y-21815045D01*
X-16256Y-19838950D01*
X1740580Y-18574177D01*
X3497416Y-17309404D01*
X3314683Y-16795445D01*
X3314014Y-16793563D01*
X3274259Y-16682100D01*
X3208053Y-16496884D01*
X3117518Y-16243837D01*
X3004774Y-15928878D01*
X2871943Y-15557930D01*
X2721145Y-15136914D01*
X2554502Y-14671751D01*
X2374135Y-14168362D01*
X2182165Y-13632669D01*
X1980713Y-13070593D01*
X1771900Y-12488055D01*
X1557847Y-11890977D01*
X-16256Y-7500467D01*
X-16256Y-6808500D01*
X-16256Y-6116533D01*
X79153Y-6138959D01*
G37*
G36*
X46937811Y-26728653D02*
G01*
X47003609Y-27131176D01*
X47125018Y-27874157D01*
X47244078Y-28603034D01*
X47360033Y-29313176D01*
X47472125Y-29999952D01*
X47579596Y-30658732D01*
X47681690Y-31284885D01*
X47777648Y-31873780D01*
X47866715Y-32420788D01*
X47948131Y-32921278D01*
X48021141Y-33370619D01*
X48084986Y-33764181D01*
X48138910Y-34097333D01*
X48182154Y-34365445D01*
X48213963Y-34563887D01*
X48233578Y-34688027D01*
X48240241Y-34733235D01*
X48239332Y-34738333D01*
X48198358Y-34753899D01*
X48091275Y-34743968D01*
X47910873Y-34707986D01*
X47504686Y-34616790D01*
X46944304Y-34490460D01*
X46409457Y-34369296D01*
X45905869Y-34254625D01*
X45439267Y-34147772D01*
X45015373Y-34050064D01*
X44639913Y-33962827D01*
X44318612Y-33887386D01*
X44057194Y-33825069D01*
X43861384Y-33777200D01*
X43736906Y-33745107D01*
X43689486Y-33730115D01*
X43683970Y-33715601D01*
X43664807Y-33628507D01*
X43635608Y-33470966D01*
X43597849Y-33251831D01*
X43553005Y-32979957D01*
X43502549Y-32664197D01*
X43447958Y-32313406D01*
X43390705Y-31936439D01*
X43360415Y-31735308D01*
X43305104Y-31371795D01*
X43253815Y-31039495D01*
X43207947Y-30747189D01*
X43168900Y-30503657D01*
X43138072Y-30317679D01*
X43116861Y-30198036D01*
X43106667Y-30153506D01*
X43098119Y-30150525D01*
X43022385Y-30130963D01*
X42874617Y-30095222D01*
X42662180Y-30044982D01*
X42392440Y-29981918D01*
X42072762Y-29907708D01*
X41710511Y-29824029D01*
X41313054Y-29732559D01*
X40887756Y-29634974D01*
X40441983Y-29532952D01*
X39983099Y-29428170D01*
X39518471Y-29322305D01*
X39055463Y-29217034D01*
X38601443Y-29114035D01*
X38163775Y-29014984D01*
X37749824Y-28921560D01*
X37366957Y-28835438D01*
X37022539Y-28758297D01*
X36723936Y-28691813D01*
X36478512Y-28637665D01*
X36293634Y-28597527D01*
X36176667Y-28573079D01*
X36134977Y-28565998D01*
X36128360Y-28575662D01*
X36081935Y-28644108D01*
X35995461Y-28771835D01*
X35873924Y-28951468D01*
X35722312Y-29175634D01*
X35545613Y-29436958D01*
X35348815Y-29728067D01*
X35136905Y-30041586D01*
X35033463Y-30194596D01*
X34827201Y-30499411D01*
X34637857Y-30778855D01*
X34470517Y-31025441D01*
X34330270Y-31231682D01*
X34222205Y-31390090D01*
X34151410Y-31493179D01*
X34122974Y-31533461D01*
X34105465Y-31533396D01*
X34014640Y-31518890D01*
X33853322Y-31487792D01*
X33629085Y-31441718D01*
X33349501Y-31382287D01*
X33022144Y-31311118D01*
X32654584Y-31229827D01*
X32254397Y-31140034D01*
X31829153Y-31043356D01*
X31663142Y-31005326D01*
X31169639Y-30891547D01*
X30752646Y-30794078D01*
X30407269Y-30711664D01*
X30128619Y-30643054D01*
X29911803Y-30586992D01*
X29751931Y-30542226D01*
X29644110Y-30507502D01*
X29583449Y-30481567D01*
X29565057Y-30463167D01*
X29588633Y-30426455D01*
X29658323Y-30324120D01*
X29771429Y-30160051D01*
X29925255Y-29938097D01*
X30117101Y-29662103D01*
X30344270Y-29335917D01*
X30604064Y-28963387D01*
X30893786Y-28548361D01*
X31210736Y-28094684D01*
X31552217Y-27606206D01*
X31915531Y-27086772D01*
X32297980Y-26540231D01*
X32696866Y-25970430D01*
X32885135Y-25701588D01*
X37908674Y-25701588D01*
X37933008Y-25707861D01*
X38032333Y-25731395D01*
X38201377Y-25770742D01*
X38432779Y-25824209D01*
X38719180Y-25890102D01*
X39053218Y-25966731D01*
X39427532Y-26052400D01*
X39834763Y-26145418D01*
X40267550Y-26244092D01*
X40587188Y-26316922D01*
X41007033Y-26412645D01*
X41398180Y-26501893D01*
X41752916Y-26582902D01*
X42063527Y-26653909D01*
X42322300Y-26713150D01*
X42521520Y-26758861D01*
X42653475Y-26789280D01*
X42710450Y-26802641D01*
X42755971Y-26810593D01*
X42781565Y-26792893D01*
X42782769Y-26728653D01*
X42764503Y-26599369D01*
X42750846Y-26512621D01*
X42716225Y-26294138D01*
X42672413Y-26019000D01*
X42620667Y-25695008D01*
X42562241Y-25329961D01*
X42498393Y-24931658D01*
X42430380Y-24507900D01*
X42359457Y-24066485D01*
X42286881Y-23615214D01*
X42213908Y-23161886D01*
X42141794Y-22714301D01*
X42071797Y-22280258D01*
X42005172Y-21867557D01*
X41943175Y-21483998D01*
X41887063Y-21137380D01*
X41838093Y-20835503D01*
X41797521Y-20586167D01*
X41766602Y-20397170D01*
X41746594Y-20276314D01*
X41738753Y-20231396D01*
X41735484Y-20233336D01*
X41694854Y-20283741D01*
X41610826Y-20396978D01*
X41487060Y-20567886D01*
X41327215Y-20791300D01*
X41134952Y-21062057D01*
X40913929Y-21374992D01*
X40667807Y-21724943D01*
X40400244Y-22106746D01*
X40114899Y-22515237D01*
X39815434Y-22945253D01*
X39716525Y-23087511D01*
X39421351Y-23512284D01*
X39141897Y-23914774D01*
X38881802Y-24289724D01*
X38644701Y-24631875D01*
X38434233Y-24935971D01*
X38254034Y-25196752D01*
X38107741Y-25408963D01*
X37998992Y-25567344D01*
X37931424Y-25666638D01*
X37908674Y-25701588D01*
X32885135Y-25701588D01*
X33109491Y-25381216D01*
X33533157Y-24776436D01*
X33965166Y-24159939D01*
X34402820Y-23535570D01*
X34843421Y-22907178D01*
X35284272Y-22278610D01*
X35722673Y-21653714D01*
X36155928Y-21036336D01*
X36581338Y-20430323D01*
X36996205Y-19839524D01*
X37397831Y-19267786D01*
X37783519Y-18718956D01*
X38150569Y-18196881D01*
X38496285Y-17705408D01*
X38817968Y-17248386D01*
X39112921Y-16829661D01*
X39378444Y-16453081D01*
X39611841Y-16122493D01*
X39810413Y-15841744D01*
X39971463Y-15614682D01*
X40092292Y-15445155D01*
X40170202Y-15337008D01*
X40202496Y-15294091D01*
X40202836Y-15293992D01*
X40250146Y-15302357D01*
X40370826Y-15327645D01*
X40556210Y-15367887D01*
X40797627Y-15421116D01*
X41086409Y-15485364D01*
X41413888Y-15558662D01*
X41771396Y-15639042D01*
X42150263Y-15724537D01*
X42541820Y-15813178D01*
X42937400Y-15902997D01*
X43328334Y-15992026D01*
X43705953Y-16078297D01*
X44061589Y-16159842D01*
X44386572Y-16234694D01*
X44672235Y-16300883D01*
X44909909Y-16356442D01*
X45090925Y-16399402D01*
X45206614Y-16427797D01*
X45248308Y-16439657D01*
X45248536Y-16440487D01*
X45257876Y-16493162D01*
X45280014Y-16624342D01*
X45314192Y-16829396D01*
X45359654Y-17103694D01*
X45415642Y-17442606D01*
X45481399Y-17841501D01*
X45556167Y-18295749D01*
X45639189Y-18800718D01*
X45729708Y-19351780D01*
X45826967Y-19944302D01*
X45930207Y-20573655D01*
X46038673Y-21235207D01*
X46151605Y-21924330D01*
X46268248Y-22636392D01*
X46387844Y-23366762D01*
X46509635Y-24110810D01*
X46632865Y-24863906D01*
X46756775Y-25621420D01*
X46880609Y-26378719D01*
X46937811Y-26728653D01*
G37*
G04 #@! TD*
%LPC*%
M02*
