G04 #@! TF.GenerationSoftware,KiCad,Pcbnew,7.0.1-0*
G04 #@! TF.CreationDate,2023-06-22T21:26:39+02:00*
G04 #@! TF.ProjectId,nfc_card_emulation_large,6e66635f-6361-4726-945f-656d756c6174,1.1*
G04 #@! TF.SameCoordinates,PX354a940PY3072580*
G04 #@! TF.FileFunction,Legend,Top*
G04 #@! TF.FilePolarity,Positive*
%FSLAX46Y46*%
G04 Gerber Fmt 4.6, Leading zero omitted, Abs format (unit mm)*
G04 Created by KiCad (PCBNEW 7.0.1-0) date 2023-06-22 21:26:39*
%MOMM*%
%LPD*%
G01*
G04 APERTURE LIST*
G04 Aperture macros list*
%AMRoundRect*
0 Rectangle with rounded corners*
0 $1 Rounding radius*
0 $2 $3 $4 $5 $6 $7 $8 $9 X,Y pos of 4 corners*
0 Add a 4 corners polygon primitive as box body*
4,1,4,$2,$3,$4,$5,$6,$7,$8,$9,$2,$3,0*
0 Add four circle primitives for the rounded corners*
1,1,$1+$1,$2,$3*
1,1,$1+$1,$4,$5*
1,1,$1+$1,$6,$7*
1,1,$1+$1,$8,$9*
0 Add four rect primitives between the rounded corners*
20,1,$1+$1,$2,$3,$4,$5,0*
20,1,$1+$1,$4,$5,$6,$7,0*
20,1,$1+$1,$6,$7,$8,$9,0*
20,1,$1+$1,$8,$9,$2,$3,0*%
G04 Aperture macros list end*
%ADD10C,0.120000*%
%ADD11C,0.150000*%
%ADD12C,1.000000*%
%ADD13RoundRect,0.150000X0.625000X-0.150000X0.625000X0.150000X-0.625000X0.150000X-0.625000X-0.150000X0*%
%ADD14RoundRect,0.250000X0.650000X-0.350000X0.650000X0.350000X-0.650000X0.350000X-0.650000X-0.350000X0*%
%ADD15RoundRect,0.225000X0.225000X0.250000X-0.225000X0.250000X-0.225000X-0.250000X0.225000X-0.250000X0*%
%ADD16R,1.100000X0.400000*%
G04 APERTURE END LIST*
G04 #@! TO.C,kibuzzard-645C118B*
G36*
X13262204Y-21633319D02*
G01*
X13283873Y-21716662D01*
X13281095Y-21756112D01*
X13269427Y-21786671D01*
X13240118Y-21810841D01*
X13185528Y-21818897D01*
X13129687Y-21813480D01*
X13096628Y-21797228D01*
X13080375Y-21765419D01*
X13074958Y-21713329D01*
X13080792Y-21660544D01*
X13098294Y-21631096D01*
X13183305Y-21611094D01*
X13262204Y-21633319D01*
G37*
G36*
X13262204Y-21987252D02*
G01*
X13278456Y-22019061D01*
X13283873Y-22071151D01*
X13281095Y-22110601D01*
X13269427Y-22141160D01*
X13240118Y-22165330D01*
X13185528Y-22173386D01*
X13129687Y-22167969D01*
X13096628Y-22151717D01*
X13080375Y-22119907D01*
X13074958Y-22067818D01*
X13080792Y-22015033D01*
X13098294Y-21985585D01*
X13183305Y-21965583D01*
X13262204Y-21987252D01*
G37*
G36*
X9897339Y-21320780D02*
G01*
X9925676Y-21343282D01*
X9936232Y-21372731D01*
X9937899Y-21411069D01*
X9936232Y-21449407D01*
X9926231Y-21478299D01*
X9896783Y-21501080D01*
X9840665Y-21507747D01*
X9784547Y-21501080D01*
X9755099Y-21477744D01*
X9745097Y-21448296D01*
X9743431Y-21409958D01*
X9745097Y-21371619D01*
X9754543Y-21343282D01*
X9783991Y-21320780D01*
X9841221Y-21313279D01*
X9897339Y-21320780D01*
G37*
G36*
X9916786Y-21606649D02*
G01*
X9936788Y-21654432D01*
X9937899Y-21686659D01*
X9937899Y-22075596D01*
X9936232Y-22113934D01*
X9925676Y-22143383D01*
X9897061Y-22165052D01*
X9840109Y-22172275D01*
X9783713Y-22164774D01*
X9754543Y-22142271D01*
X9745097Y-22113379D01*
X9743431Y-22074485D01*
X9743431Y-21684436D01*
X9745097Y-21646098D01*
X9754543Y-21616650D01*
X9783991Y-21594981D01*
X9841221Y-21587757D01*
X9916786Y-21606649D01*
G37*
G36*
X9251980Y-21368008D02*
G01*
X9282262Y-21398845D01*
X9287818Y-21456630D01*
X9287818Y-22007810D01*
X9590078Y-22007810D01*
X9643418Y-22016144D01*
X9665643Y-22042259D01*
X9671199Y-22089487D01*
X9665643Y-22136715D01*
X9646752Y-22161163D01*
X9588967Y-22172275D01*
X9188917Y-22172275D01*
X9127242Y-22161718D01*
X9097794Y-22130048D01*
X9091127Y-22073374D01*
X9091127Y-21455519D01*
X9092794Y-21417181D01*
X9103351Y-21387732D01*
X9132799Y-21365230D01*
X9190028Y-21357729D01*
X9251980Y-21368008D01*
G37*
G36*
X10392401Y-21591647D02*
G01*
X10451297Y-21614427D01*
X10469077Y-21625540D01*
X10500192Y-21646654D01*
X10529084Y-21697216D01*
X10505748Y-21761112D01*
X10466577Y-21806952D01*
X10429072Y-21822231D01*
X10369064Y-21797784D01*
X10311835Y-21778892D01*
X10242382Y-21805562D01*
X10210156Y-21879461D01*
X10241271Y-21952803D01*
X10307390Y-21978917D01*
X10372954Y-21958359D01*
X10422404Y-21937801D01*
X10459353Y-21952525D01*
X10503526Y-21996697D01*
X10529084Y-22054482D01*
X10513805Y-22095321D01*
X10467966Y-22133381D01*
X10397401Y-22166719D01*
X10312391Y-22177831D01*
X10244357Y-22169559D01*
X10178053Y-22144741D01*
X10113477Y-22103378D01*
X10072083Y-22061845D01*
X10039023Y-22008366D01*
X10017354Y-21945858D01*
X10010131Y-21877238D01*
X10017354Y-21808896D01*
X10039023Y-21747222D01*
X10072083Y-21694576D01*
X10113477Y-21653321D01*
X10176324Y-21612575D01*
X10241888Y-21588128D01*
X10310168Y-21579979D01*
X10392401Y-21591647D01*
G37*
G36*
X11633605Y-21596092D02*
G01*
X11695280Y-21624429D01*
X11748681Y-21671657D01*
X11789736Y-21732467D01*
X11814368Y-21801550D01*
X11822579Y-21878905D01*
X11822579Y-22074485D01*
X11820913Y-22112823D01*
X11811467Y-22141160D01*
X11782019Y-22163663D01*
X11724789Y-22171164D01*
X11662559Y-22160885D01*
X11633667Y-22130048D01*
X11626999Y-22073374D01*
X11626999Y-21877794D01*
X11600885Y-21806674D01*
X11530876Y-21781115D01*
X11459756Y-21807785D01*
X11432531Y-21877794D01*
X11432531Y-22074485D01*
X11430864Y-22112823D01*
X11420307Y-22141160D01*
X11391692Y-22163663D01*
X11334741Y-22171164D01*
X11278345Y-22163663D01*
X11249174Y-22141160D01*
X11239729Y-22111712D01*
X11238062Y-22073374D01*
X11238062Y-21679991D01*
X11239729Y-21642764D01*
X11250286Y-21614427D01*
X11279456Y-21593592D01*
X11335852Y-21586646D01*
X11390581Y-21593036D01*
X11419196Y-21612205D01*
X11430308Y-21657766D01*
X11450311Y-21635541D01*
X11480314Y-21612205D01*
X11563658Y-21586646D01*
X11633605Y-21596092D01*
G37*
G36*
X10793562Y-21943358D02*
G01*
X10830233Y-21995586D01*
X10903576Y-22016700D01*
X10961083Y-22013366D01*
X11004699Y-22003365D01*
X11016923Y-21998920D01*
X11061373Y-21986696D01*
X11122492Y-22036702D01*
X11136938Y-22087820D01*
X11122145Y-22131089D01*
X11077764Y-22161996D01*
X11003796Y-22180540D01*
X10900242Y-22186721D01*
X10822593Y-22179637D01*
X10754112Y-22158384D01*
X10697300Y-22125464D01*
X10654656Y-22083375D01*
X10615762Y-22021022D01*
X10592426Y-21953976D01*
X10584647Y-21882239D01*
X10589268Y-21842234D01*
X10791339Y-21842234D01*
X10931357Y-21842234D01*
X10973584Y-21806674D01*
X10954137Y-21765557D01*
X10898575Y-21750000D01*
X10826899Y-21779448D01*
X10791339Y-21842234D01*
X10589268Y-21842234D01*
X10594710Y-21795129D01*
X10624899Y-21720490D01*
X10675214Y-21658322D01*
X10740592Y-21611711D01*
X10815972Y-21583745D01*
X10901353Y-21574422D01*
X10973445Y-21581229D01*
X11035259Y-21601648D01*
X11086793Y-21635680D01*
X11128048Y-21683325D01*
X11156385Y-21743749D01*
X11165831Y-21809452D01*
X11157357Y-21868904D01*
X11131937Y-21910576D01*
X11056928Y-21943358D01*
X10931357Y-21943358D01*
X10793562Y-21943358D01*
G37*
G36*
X12235964Y-21584979D02*
G01*
X12318197Y-21613316D01*
X12357091Y-21657766D01*
X12332643Y-21723330D01*
X12282637Y-21762224D01*
X12233186Y-21745555D01*
X12154843Y-21728886D01*
X12089279Y-21753334D01*
X12108171Y-21780837D01*
X12164844Y-21796672D01*
X12237076Y-21811119D01*
X12307084Y-21838900D01*
X12360980Y-21892796D01*
X12377232Y-21935995D01*
X12382649Y-21988919D01*
X12377232Y-22042398D01*
X12360980Y-22087264D01*
X12300417Y-22147828D01*
X12248991Y-22166966D01*
X12189539Y-22178449D01*
X12122061Y-22182276D01*
X12051497Y-22175362D01*
X11982785Y-22154618D01*
X11915924Y-22120046D01*
X11894811Y-22077819D01*
X11905368Y-22041425D01*
X11937038Y-21990030D01*
X11976488Y-21971139D01*
X12050386Y-21998364D01*
X12134841Y-22025590D01*
X12185680Y-22018923D01*
X12202627Y-21998920D01*
X12184013Y-21980584D01*
X12128173Y-21967805D01*
X12058442Y-21949747D01*
X11989267Y-21915576D01*
X11935927Y-21852791D01*
X11920092Y-21805979D01*
X11914813Y-21751111D01*
X11924459Y-21687903D01*
X11953396Y-21638742D01*
X12001624Y-21603626D01*
X12069144Y-21582557D01*
X12155954Y-21575534D01*
X12235964Y-21584979D01*
G37*
G36*
X12647127Y-21943358D02*
G01*
X12683798Y-21995586D01*
X12757141Y-22016700D01*
X12814648Y-22013366D01*
X12858264Y-22003365D01*
X12870488Y-21998920D01*
X12914938Y-21986696D01*
X12976057Y-22036702D01*
X12990503Y-22087820D01*
X12975710Y-22131089D01*
X12931329Y-22161996D01*
X12857361Y-22180540D01*
X12753807Y-22186721D01*
X12676158Y-22179637D01*
X12607678Y-22158384D01*
X12550865Y-22125464D01*
X12508221Y-22083375D01*
X12469327Y-22021022D01*
X12445991Y-21953976D01*
X12438212Y-21882239D01*
X12442833Y-21842234D01*
X12644904Y-21842234D01*
X12784922Y-21842234D01*
X12827149Y-21806674D01*
X12807703Y-21765557D01*
X12752140Y-21750000D01*
X12680464Y-21779448D01*
X12644904Y-21842234D01*
X12442833Y-21842234D01*
X12448275Y-21795129D01*
X12478464Y-21720490D01*
X12528779Y-21658322D01*
X12594157Y-21611711D01*
X12669537Y-21583745D01*
X12754918Y-21574422D01*
X12827010Y-21581229D01*
X12888824Y-21601648D01*
X12940358Y-21635680D01*
X12981613Y-21683325D01*
X13009950Y-21743749D01*
X13019396Y-21809452D01*
X13010922Y-21868904D01*
X12985503Y-21910576D01*
X12910493Y-21943358D01*
X12784922Y-21943358D01*
X12647127Y-21943358D01*
G37*
G04 #@! TO.C,kibuzzard-645C11AA*
G36*
X11746881Y-23475016D02*
G01*
X11781012Y-23514306D01*
X11790537Y-23587331D01*
X11781806Y-23659562D01*
X11754025Y-23698456D01*
X11674650Y-23712744D01*
X11296825Y-23712744D01*
X11225784Y-23699250D01*
X11190462Y-23658769D01*
X11182525Y-23585744D01*
X11192050Y-23514306D01*
X11222212Y-23476206D01*
X11298412Y-23461919D01*
X11676237Y-23461919D01*
X11746881Y-23475016D01*
G37*
G36*
X14548819Y-23475016D02*
G01*
X14582950Y-23514306D01*
X14592475Y-23587331D01*
X14583744Y-23659562D01*
X14555962Y-23698456D01*
X14476588Y-23712744D01*
X14098763Y-23712744D01*
X14027722Y-23699250D01*
X13992400Y-23658769D01*
X13984462Y-23585744D01*
X13993987Y-23514306D01*
X14024150Y-23476206D01*
X14100350Y-23461919D01*
X14478175Y-23461919D01*
X14548819Y-23475016D01*
G37*
G36*
X13843175Y-22791994D02*
G01*
X13901516Y-22845175D01*
X13920962Y-22896769D01*
X13884450Y-22980906D01*
X13541550Y-23493669D01*
X13541550Y-23796881D01*
X13539169Y-23851650D01*
X13524087Y-23893719D01*
X13481225Y-23927056D01*
X13400262Y-23936581D01*
X13319300Y-23927056D01*
X13276437Y-23892925D01*
X13261356Y-23850062D01*
X13258975Y-23793706D01*
X13258975Y-23493669D01*
X12916075Y-22980906D01*
X12879562Y-22896769D01*
X12897025Y-22846961D01*
X12949412Y-22799138D01*
X13049425Y-22752306D01*
X13097050Y-22765006D01*
X13154200Y-22830094D01*
X13400262Y-23223794D01*
X13646325Y-22830094D01*
X13698712Y-22767387D01*
X13750306Y-22752306D01*
X13843175Y-22791994D01*
G37*
G36*
X15945025Y-23685756D02*
G01*
X15862475Y-23857206D01*
X15837869Y-23903244D01*
X15809294Y-23932613D01*
X15758494Y-23947694D01*
X15673562Y-23920706D01*
X15604506Y-23873081D01*
X15581487Y-23819106D01*
X15608475Y-23738144D01*
X15747261Y-23450806D01*
X16059325Y-23450806D01*
X16270462Y-23450806D01*
X16164100Y-23233319D01*
X16059325Y-23450806D01*
X15747261Y-23450806D01*
X16037100Y-22850731D01*
X16090281Y-22791994D01*
X16165687Y-22769769D01*
X16240300Y-22790406D01*
X16292687Y-22852319D01*
X16721312Y-23738144D01*
X16748300Y-23819106D01*
X16725281Y-23873478D01*
X16656225Y-23922294D01*
X16571294Y-23949281D01*
X16520494Y-23934994D01*
X16491919Y-23904831D01*
X16467312Y-23857206D01*
X16384763Y-23685756D01*
X16059325Y-23685756D01*
X15945025Y-23685756D01*
G37*
G36*
X12033425Y-23931819D02*
G01*
X11945319Y-23916737D01*
X11903250Y-23871494D01*
X11893725Y-23788944D01*
X11893725Y-23049169D01*
X12174712Y-23049169D01*
X12174712Y-23650831D01*
X12435062Y-23650831D01*
X12510072Y-23623844D01*
X12535075Y-23542881D01*
X12526344Y-23482556D01*
X12496975Y-23450806D01*
X12408075Y-23438106D01*
X12322350Y-23415881D01*
X12293775Y-23324600D01*
X12323144Y-23233319D01*
X12420775Y-23211094D01*
X12496975Y-23177756D01*
X12501737Y-23120606D01*
X12475544Y-23065044D01*
X12396962Y-23049169D01*
X12174712Y-23049169D01*
X11893725Y-23049169D01*
X11893725Y-22907881D01*
X11896106Y-22852319D01*
X11911187Y-22811044D01*
X11953256Y-22778897D01*
X12035012Y-22768181D01*
X12435062Y-22768181D01*
X12527137Y-22779470D01*
X12608629Y-22813337D01*
X12679537Y-22869781D01*
X12736864Y-22943159D01*
X12771260Y-23025709D01*
X12782725Y-23117431D01*
X12767644Y-23217841D01*
X12722400Y-23309519D01*
X12774435Y-23386601D01*
X12805656Y-23469680D01*
X12816062Y-23558756D01*
X12802569Y-23658857D01*
X12766321Y-23747492D01*
X12707319Y-23824663D01*
X12631912Y-23884194D01*
X12546452Y-23919912D01*
X12450937Y-23931819D01*
X12174712Y-23931819D01*
X12033425Y-23931819D01*
G37*
G36*
X9708333Y-22764411D02*
G01*
X9784731Y-22781675D01*
X9901412Y-22828506D01*
X9939512Y-22850731D01*
X9983962Y-22879306D01*
X10025237Y-22954712D01*
X9991900Y-23042819D01*
X9933162Y-23107112D01*
X9880775Y-23128544D01*
X9799812Y-23093619D01*
X9722025Y-23053137D01*
X9622012Y-23039644D01*
X9519619Y-23057503D01*
X9418812Y-23111081D01*
X9339437Y-23209506D01*
X9315625Y-23277173D01*
X9307687Y-23353175D01*
X9315625Y-23429177D01*
X9339437Y-23496844D01*
X9420400Y-23596856D01*
X9519222Y-23649244D01*
X9622012Y-23666706D01*
X9714881Y-23654006D01*
X9777587Y-23628606D01*
X9806162Y-23607969D01*
X9882362Y-23576219D01*
X9933559Y-23598444D01*
X9988725Y-23665119D01*
X10023650Y-23754019D01*
X10002219Y-23809581D01*
X9952212Y-23849269D01*
X9897444Y-23882606D01*
X9790287Y-23923881D01*
X9710714Y-23942931D01*
X9633919Y-23949281D01*
X9558116Y-23944320D01*
X9481519Y-23929438D01*
X9403334Y-23902847D01*
X9322769Y-23862762D01*
X9245180Y-23810772D01*
X9175925Y-23748463D01*
X9116592Y-23671469D01*
X9068769Y-23575425D01*
X9037217Y-23465292D01*
X9026700Y-23346031D01*
X9037019Y-23227961D01*
X9067975Y-23121400D01*
X9115005Y-23029325D01*
X9173544Y-22954712D01*
X9242402Y-22894189D01*
X9320387Y-22844381D01*
X9424281Y-22796756D01*
X9528526Y-22768181D01*
X9633125Y-22758656D01*
X9708333Y-22764411D01*
G37*
G36*
X10786245Y-22764411D02*
G01*
X10862644Y-22781675D01*
X10979325Y-22828506D01*
X11017425Y-22850731D01*
X11061875Y-22879306D01*
X11103150Y-22954712D01*
X11069812Y-23042819D01*
X11011075Y-23107112D01*
X10958687Y-23128544D01*
X10877725Y-23093619D01*
X10799937Y-23053137D01*
X10699925Y-23039644D01*
X10597531Y-23057503D01*
X10496725Y-23111081D01*
X10417350Y-23209506D01*
X10393537Y-23277173D01*
X10385600Y-23353175D01*
X10393537Y-23429177D01*
X10417350Y-23496844D01*
X10498312Y-23596856D01*
X10597134Y-23649244D01*
X10699925Y-23666706D01*
X10792794Y-23654006D01*
X10855500Y-23628606D01*
X10884075Y-23607969D01*
X10960275Y-23576219D01*
X11011472Y-23598444D01*
X11066637Y-23665119D01*
X11101562Y-23754019D01*
X11080131Y-23809581D01*
X11030125Y-23849269D01*
X10975356Y-23882606D01*
X10868200Y-23923881D01*
X10788627Y-23942931D01*
X10711831Y-23949281D01*
X10636028Y-23944320D01*
X10559431Y-23929438D01*
X10481247Y-23902847D01*
X10400681Y-23862762D01*
X10323092Y-23810772D01*
X10253837Y-23748463D01*
X10194505Y-23671469D01*
X10146681Y-23575425D01*
X10115130Y-23465292D01*
X10104612Y-23346031D01*
X10114931Y-23227961D01*
X10145887Y-23121400D01*
X10192917Y-23029325D01*
X10251456Y-22954712D01*
X10320314Y-22894189D01*
X10398300Y-22844381D01*
X10502193Y-22796756D01*
X10606439Y-22768181D01*
X10711037Y-22758656D01*
X10786245Y-22764411D01*
G37*
G36*
X15170920Y-22756870D02*
G01*
X15253669Y-22775325D01*
X15362413Y-22825331D01*
X15402100Y-22855494D01*
X15451312Y-22933281D01*
X15413212Y-23020594D01*
X15358444Y-23080125D01*
X15302087Y-23099969D01*
X15219537Y-23068219D01*
X15201281Y-23052344D01*
X15176675Y-23031706D01*
X15091744Y-23011069D01*
X15006019Y-23035675D01*
X14971887Y-23103937D01*
X15012369Y-23174581D01*
X15113175Y-23211094D01*
X15176278Y-23223198D01*
X15244937Y-23240462D01*
X15313597Y-23262489D01*
X15376700Y-23288881D01*
X15432064Y-23327973D01*
X15477506Y-23388100D01*
X15507867Y-23466880D01*
X15517987Y-23561931D01*
X15507669Y-23658967D01*
X15476712Y-23743700D01*
X15429087Y-23813352D01*
X15368762Y-23865144D01*
X15281097Y-23911887D01*
X15189551Y-23939933D01*
X15094125Y-23949281D01*
X15021497Y-23944717D01*
X14952837Y-23931025D01*
X14844887Y-23885781D01*
X14773450Y-23835775D01*
X14727412Y-23787356D01*
X14713125Y-23769894D01*
X14671850Y-23678613D01*
X14688916Y-23631583D01*
X14740112Y-23571456D01*
X14824250Y-23533356D01*
X14877431Y-23553200D01*
X14948075Y-23612731D01*
X15011575Y-23664325D01*
X15087775Y-23688931D01*
X15169796Y-23675526D01*
X15219008Y-23635309D01*
X15235412Y-23568281D01*
X15194931Y-23507163D01*
X15094125Y-23471444D01*
X15031419Y-23456958D01*
X14963950Y-23435725D01*
X14896481Y-23408936D01*
X14833775Y-23377781D01*
X14778411Y-23334720D01*
X14732969Y-23272212D01*
X14702608Y-23192639D01*
X14692487Y-23098381D01*
X14704041Y-23009217D01*
X14738701Y-22927990D01*
X14796469Y-22854700D01*
X14874168Y-22796933D01*
X14968624Y-22762272D01*
X15079837Y-22750719D01*
X15170920Y-22756870D01*
G37*
G04 #@! TO.C,kibuzzard-64946969*
G36*
X2951128Y-16701876D02*
G01*
X2979465Y-16724379D01*
X2990022Y-16753827D01*
X2991689Y-16792165D01*
X2990022Y-16830503D01*
X2980021Y-16859396D01*
X2950572Y-16882176D01*
X2894454Y-16888844D01*
X2838336Y-16882176D01*
X2808888Y-16858840D01*
X2798887Y-16829392D01*
X2797220Y-16791054D01*
X2798887Y-16752716D01*
X2808332Y-16724379D01*
X2837781Y-16701876D01*
X2895010Y-16694375D01*
X2951128Y-16701876D01*
G37*
G36*
X5719391Y-17352513D02*
G01*
X5755367Y-17370015D01*
X5774259Y-17447802D01*
X5774259Y-17452247D01*
X5772592Y-17491697D01*
X5760924Y-17522256D01*
X5731615Y-17546426D01*
X5677024Y-17554483D01*
X5621184Y-17549204D01*
X5588124Y-17533369D01*
X5566455Y-17453359D01*
X5566455Y-17448914D01*
X5568122Y-17410020D01*
X5578679Y-17380016D01*
X5607988Y-17355013D01*
X5662578Y-17346679D01*
X5719391Y-17352513D01*
G37*
G36*
X2970575Y-16987745D02*
G01*
X2990577Y-17035529D01*
X2991689Y-17067755D01*
X2991689Y-17456692D01*
X2990022Y-17495031D01*
X2979465Y-17524479D01*
X2950850Y-17546148D01*
X2893899Y-17553371D01*
X2837503Y-17545870D01*
X2808332Y-17523368D01*
X2798887Y-17494475D01*
X2797220Y-17455581D01*
X2797220Y-17065532D01*
X2798887Y-17027194D01*
X2808332Y-16997746D01*
X2837781Y-16976077D01*
X2895010Y-16968854D01*
X2970575Y-16987745D01*
G37*
G36*
X6212091Y-16972743D02*
G01*
X6270987Y-16995524D01*
X6288767Y-17006636D01*
X6319882Y-17027750D01*
X6348775Y-17078312D01*
X6325439Y-17142209D01*
X6286267Y-17188048D01*
X6248762Y-17203327D01*
X6188755Y-17178880D01*
X6131526Y-17159989D01*
X6062072Y-17186659D01*
X6029846Y-17260557D01*
X6060961Y-17333899D01*
X6127081Y-17360014D01*
X6192644Y-17339456D01*
X6242095Y-17318897D01*
X6279044Y-17333622D01*
X6323216Y-17377794D01*
X6348775Y-17435579D01*
X6333495Y-17476417D01*
X6287656Y-17514478D01*
X6217092Y-17547815D01*
X6132081Y-17558928D01*
X6064048Y-17550655D01*
X5997743Y-17525837D01*
X5933167Y-17484474D01*
X5891773Y-17442941D01*
X5858714Y-17389462D01*
X5837044Y-17326954D01*
X5829821Y-17258334D01*
X5837044Y-17189993D01*
X5858714Y-17128318D01*
X5891773Y-17075673D01*
X5933167Y-17034417D01*
X5996015Y-16993672D01*
X6061579Y-16969224D01*
X6129859Y-16961075D01*
X6212091Y-16972743D01*
G37*
G36*
X4796081Y-16974132D02*
G01*
X4825251Y-16996635D01*
X4834697Y-17026083D01*
X4836364Y-17064421D01*
X4836364Y-17457804D01*
X4834697Y-17495031D01*
X4824140Y-17523368D01*
X4794414Y-17545037D01*
X4738574Y-17552260D01*
X4683845Y-17545593D01*
X4655230Y-17525590D01*
X4644117Y-17480029D01*
X4624115Y-17502254D01*
X4594111Y-17526701D01*
X4511879Y-17551149D01*
X4441314Y-17541703D01*
X4379270Y-17513366D01*
X4325744Y-17466138D01*
X4284690Y-17405328D01*
X4260057Y-17336245D01*
X4251846Y-17258890D01*
X4251846Y-17064421D01*
X4253513Y-17025527D01*
X4262959Y-16996635D01*
X4292407Y-16974132D01*
X4349636Y-16966631D01*
X4411311Y-16977188D01*
X4440759Y-17008859D01*
X4447426Y-17065532D01*
X4447426Y-17260001D01*
X4473541Y-17331121D01*
X4543549Y-17356680D01*
X4614669Y-17330010D01*
X4641895Y-17260001D01*
X4641895Y-17063310D01*
X4643562Y-17024972D01*
X4654119Y-16995524D01*
X4682733Y-16973854D01*
X4739685Y-16966631D01*
X4796081Y-16974132D01*
G37*
G36*
X6637700Y-17554344D02*
G01*
X6567691Y-17527257D01*
X6504211Y-17482529D01*
X6451566Y-17420577D01*
X6416145Y-17345429D01*
X6404337Y-17261112D01*
X6404543Y-17259446D01*
X6601029Y-17259446D01*
X6609919Y-17306674D01*
X6636589Y-17340567D01*
X6708820Y-17367793D01*
X6782163Y-17340011D01*
X6809666Y-17305562D01*
X6818834Y-17257779D01*
X6810222Y-17210273D01*
X6784385Y-17176657D01*
X6709931Y-17149987D01*
X6635477Y-17177769D01*
X6609641Y-17212079D01*
X6601029Y-17259446D01*
X6404543Y-17259446D01*
X6414709Y-17177398D01*
X6445824Y-17104056D01*
X6497682Y-17041085D01*
X6562876Y-16992931D01*
X6633996Y-16964038D01*
X6711043Y-16954407D01*
X6787966Y-16963977D01*
X6858715Y-16992684D01*
X6923291Y-17040529D01*
X6974532Y-17103192D01*
X7005277Y-17176349D01*
X7015525Y-17260001D01*
X7003579Y-17347095D01*
X6967741Y-17423911D01*
X6914818Y-17486141D01*
X6851616Y-17529479D01*
X6782024Y-17554899D01*
X6709931Y-17563373D01*
X6708820Y-17563234D01*
X6637700Y-17554344D01*
G37*
G36*
X3733448Y-16701876D02*
G01*
X3761785Y-16724379D01*
X3772342Y-16753827D01*
X3774009Y-16792165D01*
X3774009Y-17037751D01*
X3834294Y-16986912D01*
X3904025Y-16969965D01*
X3973972Y-16979349D01*
X4035646Y-17007501D01*
X4089048Y-17054420D01*
X4130103Y-17114921D01*
X4154735Y-17183819D01*
X4162946Y-17261112D01*
X4162946Y-17456692D01*
X4161279Y-17495031D01*
X4150722Y-17524479D01*
X4122108Y-17546148D01*
X4065156Y-17553371D01*
X4010149Y-17546148D01*
X3980701Y-17524479D01*
X3970144Y-17494475D01*
X3968477Y-17454470D01*
X3968477Y-17260001D01*
X3942919Y-17188881D01*
X3877911Y-17163323D01*
X3808457Y-17187214D01*
X3774009Y-17241110D01*
X3774009Y-17456692D01*
X3772342Y-17495031D01*
X3761785Y-17524479D01*
X3733170Y-17546148D01*
X3676219Y-17553371D01*
X3619823Y-17545870D01*
X3590652Y-17523368D01*
X3581207Y-17494475D01*
X3579540Y-17455581D01*
X3579540Y-16791054D01*
X3581207Y-16752716D01*
X3590652Y-16724379D01*
X3620101Y-16701876D01*
X3677330Y-16694375D01*
X3733448Y-16701876D01*
G37*
G36*
X3313118Y-16777997D02*
G01*
X3342844Y-16808834D01*
X3348400Y-16865507D01*
X3348400Y-16974410D01*
X3422298Y-16969965D01*
X3460081Y-16971632D01*
X3489529Y-16982189D01*
X3511198Y-17010803D01*
X3518421Y-17067755D01*
X3510920Y-17124151D01*
X3488417Y-17153321D01*
X3458969Y-17162767D01*
X3420631Y-17164434D01*
X3348400Y-17159989D01*
X3348400Y-17313341D01*
X3357846Y-17356680D01*
X3393406Y-17370015D01*
X3433411Y-17371682D01*
X3462859Y-17382239D01*
X3488417Y-17456692D01*
X3480639Y-17513088D01*
X3457302Y-17542259D01*
X3427854Y-17551704D01*
X3390627Y-17553371D01*
X3319754Y-17547568D01*
X3261229Y-17530158D01*
X3215050Y-17501143D01*
X3181712Y-17458298D01*
X3161710Y-17399401D01*
X3155042Y-17324454D01*
X3155042Y-17159989D01*
X3109481Y-17163323D01*
X3068921Y-17144431D01*
X3052807Y-17079979D01*
X3058364Y-17013859D01*
X3073921Y-16984411D01*
X3118371Y-16969965D01*
X3155042Y-16974410D01*
X3155042Y-16859951D01*
X3156709Y-16822169D01*
X3167266Y-16795499D01*
X3195881Y-16774663D01*
X3252832Y-16767717D01*
X3313118Y-16777997D01*
G37*
G36*
X5171128Y-17537814D02*
G01*
X5117510Y-17497809D01*
X5089173Y-17538647D01*
X5021942Y-17552260D01*
X4965547Y-17544759D01*
X4936376Y-17522256D01*
X4926931Y-17492808D01*
X4925264Y-17454470D01*
X4925264Y-17261668D01*
X5121955Y-17261668D01*
X5149181Y-17327787D01*
X5217522Y-17357791D01*
X5287531Y-17327787D01*
X5316424Y-17261112D01*
X5289754Y-17193882D01*
X5218634Y-17163323D01*
X5148069Y-17194438D01*
X5121955Y-17261668D01*
X4925264Y-17261668D01*
X4925264Y-16791054D01*
X4926931Y-16752716D01*
X4936376Y-16724379D01*
X4965824Y-16701876D01*
X5023054Y-16694375D01*
X5079172Y-16701876D01*
X5107509Y-16724379D01*
X5118066Y-16753827D01*
X5119732Y-16792165D01*
X5119732Y-17023305D01*
X5173628Y-16982467D01*
X5246415Y-16968854D01*
X5310559Y-16978608D01*
X5371122Y-17007871D01*
X5428104Y-17056642D01*
X5474098Y-17118317D01*
X5501694Y-17186288D01*
X5510892Y-17260557D01*
X5501756Y-17334764D01*
X5474345Y-17402550D01*
X5428660Y-17463916D01*
X5372480Y-17512378D01*
X5313584Y-17541456D01*
X5251971Y-17551149D01*
X5217522Y-17545466D01*
X5171128Y-17537814D01*
G37*
G36*
X2383835Y-17535591D02*
G01*
X2323642Y-17526146D01*
X2266042Y-17497809D01*
X2211036Y-17450581D01*
X2166277Y-17390758D01*
X2139422Y-17324639D01*
X2130539Y-17252778D01*
X2320494Y-17252778D01*
X2348831Y-17317786D01*
X2417728Y-17346679D01*
X2484959Y-17317231D01*
X2511629Y-17252778D01*
X2486070Y-17187214D01*
X2417172Y-17156655D01*
X2347164Y-17186659D01*
X2320494Y-17252778D01*
X2130539Y-17252778D01*
X2130470Y-17252222D01*
X2139483Y-17179744D01*
X2166524Y-17113440D01*
X2211591Y-17053309D01*
X2267401Y-17005772D01*
X2326667Y-16977250D01*
X2389391Y-16967742D01*
X2458289Y-16981633D01*
X2501072Y-17007192D01*
X2519407Y-17028861D01*
X2542188Y-16981633D01*
X2604974Y-16965520D01*
X2668315Y-16972187D01*
X2696652Y-16994968D01*
X2706653Y-17023305D01*
X2708320Y-17061087D01*
X2708320Y-17521145D01*
X2698442Y-17600846D01*
X2668809Y-17669559D01*
X2619420Y-17727282D01*
X2557684Y-17770806D01*
X2491009Y-17796920D01*
X2419395Y-17805625D01*
X2336885Y-17795346D01*
X2258264Y-17764509D01*
X2200757Y-17725337D01*
X2181587Y-17690055D01*
X2214925Y-17613379D01*
X2247707Y-17581153D01*
X2274932Y-17572263D01*
X2307159Y-17585598D01*
X2362721Y-17616435D01*
X2422729Y-17626714D01*
X2491626Y-17593376D01*
X2518296Y-17513366D01*
X2518296Y-17480029D01*
X2463567Y-17521701D01*
X2417728Y-17529687D01*
X2383835Y-17535591D01*
G37*
G36*
X7817292Y-16983717D02*
G01*
X7884523Y-17034973D01*
X7917860Y-17090474D01*
X7937863Y-17165854D01*
X7944530Y-17261112D01*
X7944530Y-17455581D01*
X7942863Y-17493919D01*
X7932306Y-17523368D01*
X7903692Y-17545870D01*
X7846740Y-17553371D01*
X7790344Y-17545593D01*
X7761174Y-17522256D01*
X7751728Y-17492808D01*
X7750061Y-17454470D01*
X7750061Y-17260001D01*
X7732837Y-17187492D01*
X7681164Y-17163323D01*
X7628379Y-17188881D01*
X7614489Y-17261112D01*
X7614489Y-17455581D01*
X7612822Y-17494475D01*
X7602265Y-17523368D01*
X7572817Y-17545870D01*
X7515588Y-17553371D01*
X7459192Y-17545593D01*
X7430021Y-17522256D01*
X7420576Y-17492808D01*
X7418909Y-17454470D01*
X7418909Y-17260001D01*
X7401684Y-17187492D01*
X7350011Y-17163323D01*
X7300005Y-17187492D01*
X7283336Y-17260001D01*
X7283336Y-17456692D01*
X7281669Y-17495031D01*
X7271113Y-17524479D01*
X7241109Y-17546148D01*
X7184435Y-17553371D01*
X7128039Y-17545870D01*
X7098869Y-17523368D01*
X7089423Y-17494475D01*
X7087756Y-17455581D01*
X7087756Y-17064421D01*
X7089423Y-17026083D01*
X7099980Y-16997746D01*
X7128039Y-16975243D01*
X7178879Y-16967742D01*
X7260000Y-16987745D01*
X7278891Y-17045530D01*
X7336398Y-16986356D01*
X7404463Y-16966631D01*
X7473607Y-16977373D01*
X7529910Y-17009600D01*
X7573373Y-17063310D01*
X7602821Y-17028306D01*
X7657828Y-16988301D01*
X7735615Y-16966631D01*
X7817292Y-16983717D01*
G37*
G04 #@! TO.C,kibuzzard-645C107E*
G36*
X8752359Y-12459414D02*
G01*
X8774028Y-12542758D01*
X8771250Y-12582207D01*
X8759582Y-12612767D01*
X8730273Y-12636937D01*
X8675683Y-12644993D01*
X8619842Y-12639576D01*
X8586783Y-12623324D01*
X8570530Y-12591514D01*
X8565113Y-12539424D01*
X8570947Y-12486640D01*
X8588449Y-12457192D01*
X8673460Y-12437189D01*
X8752359Y-12459414D01*
G37*
G36*
X8752359Y-12813348D02*
G01*
X8768611Y-12845157D01*
X8774028Y-12897247D01*
X8771250Y-12936696D01*
X8759582Y-12967256D01*
X8730273Y-12991425D01*
X8675683Y-12999482D01*
X8619842Y-12994065D01*
X8586783Y-12977813D01*
X8570530Y-12946003D01*
X8565113Y-12893913D01*
X8570947Y-12841129D01*
X8588449Y-12811681D01*
X8673460Y-12791678D01*
X8752359Y-12813348D01*
G37*
G36*
X4217348Y-12146875D02*
G01*
X4245684Y-12169378D01*
X4256241Y-12198826D01*
X4257908Y-12237164D01*
X4256241Y-12275502D01*
X4246240Y-12304395D01*
X4216792Y-12327176D01*
X4160674Y-12333843D01*
X4104556Y-12327176D01*
X4075108Y-12303839D01*
X4065106Y-12274391D01*
X4063439Y-12236053D01*
X4065106Y-12197715D01*
X4074552Y-12169378D01*
X4104000Y-12146875D01*
X4161229Y-12139374D01*
X4217348Y-12146875D01*
G37*
G36*
X4236794Y-12432744D02*
G01*
X4256797Y-12480528D01*
X4257908Y-12512754D01*
X4257908Y-12901692D01*
X4256241Y-12940030D01*
X4245684Y-12969478D01*
X4217070Y-12991148D01*
X4160118Y-12998371D01*
X4103722Y-12990870D01*
X4074552Y-12968367D01*
X4065106Y-12939474D01*
X4063439Y-12900581D01*
X4063439Y-12510532D01*
X4065106Y-12472194D01*
X4074552Y-12442746D01*
X4104000Y-12421076D01*
X4161229Y-12413853D01*
X4236794Y-12432744D01*
G37*
G36*
X8036158Y-12409408D02*
G01*
X8055605Y-12427744D01*
X8073941Y-12458303D01*
X8116724Y-12531090D01*
X8152839Y-12592270D01*
X8187844Y-12650611D01*
X8221737Y-12706112D01*
X8239517Y-12662912D01*
X8281744Y-12568872D01*
X8323555Y-12477333D01*
X8340085Y-12441634D01*
X8352864Y-12422743D01*
X8393425Y-12403852D01*
X8455099Y-12419409D01*
X8504272Y-12451358D01*
X8520663Y-12489418D01*
X8511773Y-12527201D01*
X8502883Y-12546092D01*
X8211736Y-13197284D01*
X8196734Y-13229511D01*
X8177287Y-13250624D01*
X8143949Y-13260626D01*
X8085053Y-13243957D01*
X8035880Y-13212286D01*
X8019489Y-13175059D01*
X8026157Y-13149153D01*
X8046159Y-13098105D01*
X8079497Y-13021915D01*
X8126169Y-12920583D01*
X7905031Y-12548314D01*
X7882806Y-12493863D01*
X7897808Y-12458303D01*
X7942813Y-12422743D01*
X8001709Y-12400518D01*
X8036158Y-12409408D01*
G37*
G36*
X5392433Y-12422187D02*
G01*
X5454107Y-12450524D01*
X5507509Y-12497752D01*
X5548563Y-12558563D01*
X5573196Y-12627645D01*
X5581407Y-12705001D01*
X5581407Y-12900581D01*
X5579740Y-12938919D01*
X5570294Y-12967256D01*
X5540846Y-12989758D01*
X5483617Y-12997259D01*
X5421387Y-12986980D01*
X5392494Y-12956143D01*
X5385827Y-12899469D01*
X5385827Y-12703889D01*
X5359713Y-12632769D01*
X5289704Y-12607211D01*
X5218584Y-12633881D01*
X5191358Y-12703889D01*
X5191358Y-12900581D01*
X5189691Y-12938919D01*
X5179134Y-12967256D01*
X5150520Y-12989758D01*
X5093568Y-12997259D01*
X5037172Y-12989758D01*
X5008002Y-12967256D01*
X4998556Y-12937807D01*
X4996889Y-12899469D01*
X4996889Y-12506087D01*
X4998556Y-12468860D01*
X5009113Y-12440523D01*
X5038283Y-12419687D01*
X5094679Y-12412742D01*
X5149408Y-12419132D01*
X5178023Y-12438301D01*
X5189136Y-12483862D01*
X5209138Y-12461637D01*
X5239142Y-12438301D01*
X5322486Y-12412742D01*
X5392433Y-12422187D01*
G37*
G36*
X2198762Y-12997259D02*
G01*
X2143755Y-12990314D01*
X2114307Y-12969478D01*
X2100972Y-12898358D01*
X2100972Y-12380516D01*
X2297663Y-12380516D01*
X2297663Y-12800568D01*
X2405454Y-12800568D01*
X2481575Y-12785705D01*
X2549917Y-12741116D01*
X2598256Y-12674025D01*
X2614369Y-12591653D01*
X2598673Y-12509004D01*
X2551584Y-12441079D01*
X2483381Y-12395656D01*
X2404343Y-12380516D01*
X2297663Y-12380516D01*
X2100972Y-12380516D01*
X2100972Y-12280503D01*
X2102639Y-12241609D01*
X2113196Y-12212717D01*
X2142644Y-12190214D01*
X2199873Y-12182713D01*
X2405454Y-12183824D01*
X2483589Y-12191082D01*
X2556862Y-12212856D01*
X2625274Y-12249145D01*
X2688823Y-12299950D01*
X2742302Y-12361347D01*
X2780501Y-12429411D01*
X2803421Y-12504142D01*
X2811061Y-12585541D01*
X2803594Y-12667253D01*
X2781196Y-12742922D01*
X2743865Y-12812549D01*
X2691601Y-12876133D01*
X2628711Y-12929126D01*
X2559501Y-12966978D01*
X2483971Y-12989689D01*
X2402121Y-12997259D01*
X2297663Y-12997259D01*
X2198762Y-12997259D01*
G37*
G36*
X6560418Y-12996148D02*
G01*
X6495719Y-12986456D01*
X6434970Y-12957378D01*
X6378173Y-12908915D01*
X6332488Y-12847549D01*
X6305078Y-12779763D01*
X6296009Y-12706112D01*
X6490409Y-12706112D01*
X6519302Y-12772787D01*
X6589311Y-12802791D01*
X6657653Y-12772787D01*
X6684878Y-12706667D01*
X6658764Y-12639437D01*
X6588199Y-12608322D01*
X6517079Y-12638881D01*
X6490409Y-12706112D01*
X6296009Y-12706112D01*
X6295941Y-12705556D01*
X6305139Y-12631288D01*
X6332735Y-12563316D01*
X6378729Y-12501642D01*
X6435711Y-12452870D01*
X6496274Y-12423607D01*
X6560418Y-12413853D01*
X6633483Y-12427744D01*
X6688212Y-12469416D01*
X6688212Y-12236053D01*
X6689879Y-12197715D01*
X6699880Y-12168822D01*
X6729328Y-12146042D01*
X6785446Y-12139374D01*
X6841564Y-12146042D01*
X6871013Y-12169378D01*
X6881014Y-12198826D01*
X6882681Y-12237164D01*
X6882681Y-12900581D01*
X6881014Y-12938919D01*
X6870457Y-12967256D01*
X6838647Y-12989758D01*
X6776556Y-12997259D01*
X6716410Y-12983647D01*
X6690434Y-12942808D01*
X6634594Y-12982813D01*
X6589311Y-12990954D01*
X6560418Y-12996148D01*
G37*
G36*
X7498591Y-12982813D02*
G01*
X7444973Y-12942808D01*
X7416636Y-12983647D01*
X7349406Y-12997259D01*
X7293010Y-12989758D01*
X7263839Y-12967256D01*
X7254394Y-12937807D01*
X7252727Y-12899469D01*
X7252727Y-12706667D01*
X7449418Y-12706667D01*
X7476644Y-12772787D01*
X7544986Y-12802791D01*
X7614994Y-12772787D01*
X7643887Y-12706112D01*
X7617217Y-12638881D01*
X7546097Y-12608322D01*
X7475533Y-12639437D01*
X7449418Y-12706667D01*
X7252727Y-12706667D01*
X7252727Y-12236053D01*
X7254394Y-12197715D01*
X7263839Y-12169378D01*
X7293288Y-12146875D01*
X7350517Y-12139374D01*
X7406635Y-12146875D01*
X7434972Y-12169378D01*
X7445529Y-12198826D01*
X7447196Y-12237164D01*
X7447196Y-12468304D01*
X7501091Y-12427466D01*
X7573878Y-12413853D01*
X7638022Y-12423607D01*
X7698585Y-12452870D01*
X7755568Y-12501642D01*
X7801561Y-12563316D01*
X7829157Y-12631288D01*
X7838356Y-12705556D01*
X7829219Y-12779763D01*
X7801808Y-12847549D01*
X7756123Y-12908915D01*
X7699943Y-12957378D01*
X7641047Y-12986456D01*
X7579434Y-12996148D01*
X7544986Y-12990466D01*
X7498591Y-12982813D01*
G37*
G36*
X3075538Y-12769453D02*
G01*
X3112209Y-12821682D01*
X3185552Y-12842796D01*
X3243059Y-12839462D01*
X3286676Y-12829461D01*
X3298899Y-12825016D01*
X3343349Y-12812792D01*
X3404468Y-12862798D01*
X3418914Y-12913916D01*
X3404121Y-12957185D01*
X3359740Y-12988092D01*
X3285773Y-13006636D01*
X3182218Y-13012817D01*
X3104570Y-13005733D01*
X3036089Y-12984480D01*
X2979276Y-12951559D01*
X2936632Y-12909471D01*
X2897738Y-12847117D01*
X2874402Y-12780072D01*
X2866623Y-12708334D01*
X2871244Y-12668329D01*
X3073316Y-12668329D01*
X3213333Y-12668329D01*
X3255561Y-12632769D01*
X3236114Y-12591653D01*
X3180551Y-12576096D01*
X3108876Y-12605544D01*
X3073316Y-12668329D01*
X2871244Y-12668329D01*
X2876686Y-12621225D01*
X2906875Y-12546586D01*
X2957190Y-12484417D01*
X3022569Y-12437807D01*
X3097948Y-12409840D01*
X3183329Y-12400518D01*
X3255422Y-12407325D01*
X3317235Y-12427744D01*
X3368769Y-12461776D01*
X3410024Y-12509421D01*
X3438361Y-12569845D01*
X3447807Y-12635548D01*
X3439334Y-12694999D01*
X3413914Y-12736671D01*
X3338904Y-12769453D01*
X3213333Y-12769453D01*
X3075538Y-12769453D01*
G37*
G36*
X3844523Y-12411075D02*
G01*
X3926756Y-12439412D01*
X3965649Y-12483862D01*
X3941202Y-12549426D01*
X3891196Y-12588319D01*
X3841745Y-12571651D01*
X3763402Y-12554982D01*
X3697838Y-12579429D01*
X3716729Y-12606933D01*
X3773403Y-12622768D01*
X3845634Y-12637214D01*
X3915643Y-12664996D01*
X3969539Y-12718891D01*
X3985791Y-12762091D01*
X3991208Y-12815014D01*
X3985791Y-12868493D01*
X3969539Y-12913360D01*
X3908976Y-12973923D01*
X3857549Y-12993061D01*
X3798098Y-13004544D01*
X3730620Y-13008372D01*
X3660056Y-13001457D01*
X3591343Y-12980714D01*
X3524483Y-12946142D01*
X3503369Y-12903914D01*
X3513926Y-12867521D01*
X3545597Y-12816126D01*
X3585046Y-12797234D01*
X3658944Y-12824460D01*
X3743399Y-12851686D01*
X3794239Y-12845018D01*
X3811186Y-12825016D01*
X3792572Y-12806680D01*
X3736732Y-12793901D01*
X3667001Y-12775843D01*
X3597826Y-12741672D01*
X3544486Y-12678886D01*
X3528650Y-12632075D01*
X3523372Y-12577207D01*
X3533018Y-12513999D01*
X3561954Y-12464837D01*
X3610183Y-12429722D01*
X3677702Y-12408652D01*
X3764513Y-12401629D01*
X3844523Y-12411075D01*
G37*
G36*
X5862553Y-12769453D02*
G01*
X5899224Y-12821682D01*
X5972567Y-12842796D01*
X6030074Y-12839462D01*
X6073691Y-12829461D01*
X6085914Y-12825016D01*
X6130364Y-12812792D01*
X6191483Y-12862798D01*
X6205929Y-12913916D01*
X6191136Y-12957185D01*
X6146755Y-12988092D01*
X6072788Y-13006636D01*
X5969233Y-13012817D01*
X5891585Y-13005733D01*
X5823104Y-12984480D01*
X5766291Y-12951559D01*
X5723647Y-12909471D01*
X5684753Y-12847117D01*
X5661417Y-12780072D01*
X5653638Y-12708334D01*
X5658259Y-12668329D01*
X5860331Y-12668329D01*
X6000348Y-12668329D01*
X6042576Y-12632769D01*
X6023129Y-12591653D01*
X5967566Y-12576096D01*
X5895891Y-12605544D01*
X5860331Y-12668329D01*
X5658259Y-12668329D01*
X5663701Y-12621225D01*
X5693890Y-12546586D01*
X5744205Y-12484417D01*
X5809584Y-12437807D01*
X5884963Y-12409840D01*
X5970344Y-12400518D01*
X6042437Y-12407325D01*
X6104250Y-12427744D01*
X6155784Y-12461776D01*
X6197039Y-12509421D01*
X6225376Y-12569845D01*
X6234822Y-12635548D01*
X6226349Y-12694999D01*
X6200929Y-12736671D01*
X6125919Y-12769453D01*
X6000348Y-12769453D01*
X5862553Y-12769453D01*
G37*
G36*
X4583504Y-12980591D02*
G01*
X4523312Y-12971145D01*
X4465712Y-12942808D01*
X4410705Y-12895580D01*
X4365946Y-12835758D01*
X4339091Y-12769638D01*
X4330208Y-12697777D01*
X4520163Y-12697777D01*
X4548500Y-12762786D01*
X4617398Y-12791678D01*
X4684628Y-12762230D01*
X4711298Y-12697777D01*
X4685739Y-12632214D01*
X4616842Y-12601654D01*
X4546833Y-12631658D01*
X4520163Y-12697777D01*
X4330208Y-12697777D01*
X4330139Y-12697222D01*
X4339153Y-12624744D01*
X4366193Y-12558439D01*
X4411261Y-12498308D01*
X4467070Y-12450771D01*
X4526337Y-12422249D01*
X4589061Y-12412742D01*
X4657958Y-12426632D01*
X4700741Y-12452191D01*
X4719077Y-12473861D01*
X4741858Y-12426632D01*
X4804643Y-12410519D01*
X4867984Y-12417187D01*
X4896321Y-12439967D01*
X4906323Y-12468304D01*
X4907989Y-12506087D01*
X4907989Y-12966144D01*
X4898112Y-13045846D01*
X4868478Y-13114558D01*
X4819089Y-13172281D01*
X4757353Y-13215805D01*
X4690678Y-13241920D01*
X4619064Y-13250624D01*
X4536554Y-13240345D01*
X4457933Y-13209508D01*
X4400426Y-13170337D01*
X4381257Y-13135054D01*
X4414594Y-13058378D01*
X4447376Y-13026152D01*
X4474602Y-13017262D01*
X4506828Y-13030597D01*
X4562391Y-13061434D01*
X4622398Y-13071713D01*
X4691296Y-13038376D01*
X4717966Y-12958366D01*
X4717966Y-12925028D01*
X4663237Y-12966700D01*
X4617398Y-12974686D01*
X4583504Y-12980591D01*
G37*
D10*
G04 #@! TO.C,J3*
X48802500Y-22110000D02*
X48802500Y-21060000D01*
X51302500Y-22110000D02*
X48802500Y-22110000D01*
X48802500Y-21060000D02*
X47812500Y-21060000D01*
X53272500Y-20940000D02*
X53272500Y-17060000D01*
X48802500Y-15890000D02*
X48802500Y-16940000D01*
X51302500Y-15890000D02*
X48802500Y-15890000D01*
G04 #@! TO.C,kibuzzard-645C104C*
G36*
X10204725Y-13642372D02*
G01*
X10246794Y-13674519D01*
X10261875Y-13717381D01*
X10264256Y-13772944D01*
X10264256Y-14507956D01*
X10273781Y-14580188D01*
X10315850Y-14595269D01*
X10359506Y-14597650D01*
X10386494Y-14611144D01*
X10418244Y-14723856D01*
X10410306Y-14804422D01*
X10386494Y-14846094D01*
X10316644Y-14862763D01*
X10189644Y-14855619D01*
X10088837Y-14827441D01*
X10030894Y-14774656D01*
X9997556Y-14673850D01*
X9986444Y-14527006D01*
X9986444Y-13771356D01*
X9988825Y-13716588D01*
X10002319Y-13674519D01*
X10044387Y-13642372D01*
X10126144Y-13631656D01*
X10204725Y-13642372D01*
G37*
G36*
X15591906Y-14021388D02*
G01*
X15647469Y-14034881D01*
X15697475Y-14067425D01*
X15717319Y-14141244D01*
X15687156Y-14252369D01*
X15599844Y-14312694D01*
X15545075Y-14299994D01*
X15476019Y-14287294D01*
X15395850Y-14317456D01*
X15358544Y-14390481D01*
X15358544Y-14723856D01*
X15356163Y-14778625D01*
X15341081Y-14820694D01*
X15298219Y-14851650D01*
X15217256Y-14861969D01*
X15107719Y-14834981D01*
X15079144Y-14766719D01*
X15079144Y-14720681D01*
X15079144Y-14163469D01*
X15081525Y-14108700D01*
X15095019Y-14068219D01*
X15137088Y-14036072D01*
X15218844Y-14025356D01*
X15296234Y-14034484D01*
X15337906Y-14061869D01*
X15355369Y-14114256D01*
X15378388Y-14087269D01*
X15442681Y-14044406D01*
X15529200Y-14017419D01*
X15591906Y-14021388D01*
G37*
G36*
X9772925Y-13634038D02*
G01*
X9814994Y-13649119D01*
X9847141Y-13689997D01*
X9857856Y-13771356D01*
X9830869Y-13880894D01*
X9761019Y-13909469D01*
X9716569Y-13909469D01*
X9657831Y-13949156D01*
X9657831Y-14036469D01*
X9761019Y-14026944D01*
X9847934Y-14042025D01*
X9889606Y-14087269D01*
X9899131Y-14166644D01*
X9888812Y-14245225D01*
X9856269Y-14287294D01*
X9759431Y-14306344D01*
X9657831Y-14299994D01*
X9657831Y-14725444D01*
X9642750Y-14815138D01*
X9596712Y-14854031D01*
X9516544Y-14863556D01*
X9437962Y-14853238D01*
X9395894Y-14819900D01*
X9380812Y-14777831D01*
X9378431Y-14722269D01*
X9378431Y-14301581D01*
X9321281Y-14301581D01*
X9262544Y-14282531D01*
X9232381Y-14166644D01*
X9255797Y-14069013D01*
X9326044Y-14036469D01*
X9378431Y-14036469D01*
X9378431Y-13952331D01*
X9400259Y-13835848D01*
X9465744Y-13730875D01*
X9532595Y-13675753D01*
X9616733Y-13642681D01*
X9718156Y-13631656D01*
X9772925Y-13634038D01*
G37*
G36*
X5555731Y-14863358D02*
G01*
X5455719Y-14824663D01*
X5365033Y-14760766D01*
X5289825Y-14672263D01*
X5239223Y-14564908D01*
X5222356Y-14444456D01*
X5222651Y-14442075D01*
X5503344Y-14442075D01*
X5516044Y-14509544D01*
X5554144Y-14557963D01*
X5657331Y-14596856D01*
X5762106Y-14557169D01*
X5801397Y-14507956D01*
X5814494Y-14439694D01*
X5802191Y-14371828D01*
X5765281Y-14323806D01*
X5658919Y-14285706D01*
X5552556Y-14325394D01*
X5515647Y-14374408D01*
X5503344Y-14442075D01*
X5222651Y-14442075D01*
X5237173Y-14324865D01*
X5281623Y-14220090D01*
X5355706Y-14130131D01*
X5448840Y-14061340D01*
X5550440Y-14020065D01*
X5660506Y-14006306D01*
X5770397Y-14019976D01*
X5871467Y-14060987D01*
X5963719Y-14129338D01*
X6036920Y-14218855D01*
X6080841Y-14323365D01*
X6095481Y-14442869D01*
X6078416Y-14567289D01*
X6027219Y-14677025D01*
X5951614Y-14765925D01*
X5861325Y-14827838D01*
X5761908Y-14864152D01*
X5658919Y-14876256D01*
X5657331Y-14876058D01*
X5555731Y-14863358D01*
G37*
G36*
X11283034Y-14034484D02*
G01*
X11324706Y-14066631D01*
X11338200Y-14108700D01*
X11340581Y-14163469D01*
X11340581Y-14725444D01*
X11338200Y-14778625D01*
X11323119Y-14819106D01*
X11280653Y-14850063D01*
X11200881Y-14860381D01*
X11122697Y-14850856D01*
X11081819Y-14822281D01*
X11065944Y-14757194D01*
X11037369Y-14788944D01*
X10994506Y-14823869D01*
X10877031Y-14858794D01*
X10776225Y-14845300D01*
X10687590Y-14804819D01*
X10611125Y-14737350D01*
X10552476Y-14650478D01*
X10517286Y-14551789D01*
X10505556Y-14441281D01*
X10505556Y-14163469D01*
X10507937Y-14107906D01*
X10521431Y-14066631D01*
X10563500Y-14034484D01*
X10645256Y-14023769D01*
X10733362Y-14038850D01*
X10775431Y-14084094D01*
X10784956Y-14165056D01*
X10784956Y-14442869D01*
X10822262Y-14544469D01*
X10922275Y-14580981D01*
X11023875Y-14542881D01*
X11062769Y-14442869D01*
X11062769Y-14161881D01*
X11065150Y-14107113D01*
X11080231Y-14065044D01*
X11121109Y-14034088D01*
X11202469Y-14023769D01*
X11283034Y-14034484D01*
G37*
G36*
X4505600Y-13645547D02*
G01*
X4546081Y-13677694D01*
X4561162Y-13719763D01*
X4563544Y-13774531D01*
X4563544Y-14125369D01*
X4649666Y-14052741D01*
X4749281Y-14028531D01*
X4849206Y-14041937D01*
X4937312Y-14082153D01*
X5013600Y-14149181D01*
X5072249Y-14235612D01*
X5107439Y-14334037D01*
X5119169Y-14444456D01*
X5119169Y-14723856D01*
X5116787Y-14778625D01*
X5101706Y-14820694D01*
X5060828Y-14851650D01*
X4979469Y-14861969D01*
X4900887Y-14851650D01*
X4858819Y-14820694D01*
X4843737Y-14777831D01*
X4841356Y-14720681D01*
X4841356Y-14442869D01*
X4804844Y-14341269D01*
X4711975Y-14304756D01*
X4612756Y-14338888D01*
X4563544Y-14415881D01*
X4563544Y-14723856D01*
X4561162Y-14778625D01*
X4546081Y-14820694D01*
X4505203Y-14851650D01*
X4423844Y-14861969D01*
X4343278Y-14851253D01*
X4301606Y-14819106D01*
X4288112Y-14777831D01*
X4285731Y-14722269D01*
X4285731Y-13772944D01*
X4288112Y-13718175D01*
X4301606Y-13677694D01*
X4343675Y-13645547D01*
X4425431Y-13634831D01*
X4505600Y-13645547D01*
G37*
G36*
X7898087Y-14858794D02*
G01*
X7808747Y-14844859D01*
X7723815Y-14803055D01*
X7643294Y-14733381D01*
X7578030Y-14645275D01*
X7538872Y-14548173D01*
X7526112Y-14444456D01*
X7803631Y-14444456D01*
X7844906Y-14538913D01*
X7944919Y-14580981D01*
X8042550Y-14538119D01*
X8081444Y-14443663D01*
X8044137Y-14347619D01*
X7944125Y-14303169D01*
X7842525Y-14347619D01*
X7803631Y-14444456D01*
X7526112Y-14444456D01*
X7525819Y-14442075D01*
X7538960Y-14336065D01*
X7578383Y-14239228D01*
X7644087Y-14151563D01*
X7725491Y-14082330D01*
X7812010Y-14040790D01*
X7903644Y-14026944D01*
X8002069Y-14045994D01*
X8063981Y-14081713D01*
X8092556Y-14114256D01*
X8128672Y-14047581D01*
X8217969Y-14025356D01*
X8310044Y-14034881D01*
X8352112Y-14068219D01*
X8366400Y-14110288D01*
X8368781Y-14165056D01*
X8368781Y-14720681D01*
X8366400Y-14775450D01*
X8352906Y-14817519D01*
X8314608Y-14848475D01*
X8244162Y-14858794D01*
X8128275Y-14837363D01*
X8094144Y-14774656D01*
X8015761Y-14837759D01*
X7944919Y-14850423D01*
X7898087Y-14858794D01*
G37*
G36*
X3905128Y-13754291D02*
G01*
X3947594Y-13798344D01*
X3955531Y-13879306D01*
X3955531Y-14034881D01*
X4061100Y-14028531D01*
X4115075Y-14030913D01*
X4157144Y-14045994D01*
X4188100Y-14086872D01*
X4198419Y-14168231D01*
X4187703Y-14248797D01*
X4155556Y-14290469D01*
X4113487Y-14303963D01*
X4058719Y-14306344D01*
X3955531Y-14299994D01*
X3955531Y-14519069D01*
X3969025Y-14580981D01*
X4019825Y-14600031D01*
X4076975Y-14602413D01*
X4119044Y-14617494D01*
X4155556Y-14723856D01*
X4144444Y-14804422D01*
X4111106Y-14846094D01*
X4069037Y-14859588D01*
X4015856Y-14861969D01*
X3914609Y-14853678D01*
X3831001Y-14828808D01*
X3765031Y-14787356D01*
X3717406Y-14726149D01*
X3688831Y-14642012D01*
X3679306Y-14534944D01*
X3679306Y-14299994D01*
X3614219Y-14304756D01*
X3556275Y-14277769D01*
X3533256Y-14185694D01*
X3541194Y-14091238D01*
X3563419Y-14049169D01*
X3626919Y-14028531D01*
X3679306Y-14034881D01*
X3679306Y-13871369D01*
X3681687Y-13817394D01*
X3696769Y-13779294D01*
X3737647Y-13749528D01*
X3819006Y-13739606D01*
X3905128Y-13754291D01*
G37*
G36*
X8959331Y-14022975D02*
G01*
X9076806Y-14063456D01*
X9132369Y-14126956D01*
X9097444Y-14220619D01*
X9026006Y-14276181D01*
X8955362Y-14252369D01*
X8843444Y-14228556D01*
X8749781Y-14263481D01*
X8776769Y-14302772D01*
X8857731Y-14325394D01*
X8960919Y-14346031D01*
X9060931Y-14385719D01*
X9137925Y-14462713D01*
X9161142Y-14524427D01*
X9168881Y-14600031D01*
X9161142Y-14676430D01*
X9137925Y-14740525D01*
X9051406Y-14827044D01*
X8977940Y-14854384D01*
X8893009Y-14870788D01*
X8796612Y-14876256D01*
X8695806Y-14866378D01*
X8597646Y-14836745D01*
X8502131Y-14787356D01*
X8471969Y-14727031D01*
X8487050Y-14675041D01*
X8532294Y-14601619D01*
X8588650Y-14574631D01*
X8694219Y-14613525D01*
X8814869Y-14652419D01*
X8887497Y-14642894D01*
X8911706Y-14614319D01*
X8885116Y-14588125D01*
X8805344Y-14569869D01*
X8705728Y-14544072D01*
X8606906Y-14495256D01*
X8530706Y-14405563D01*
X8508084Y-14338689D01*
X8500544Y-14260306D01*
X8514323Y-14170009D01*
X8555662Y-14099778D01*
X8624559Y-14049613D01*
X8721016Y-14019514D01*
X8845031Y-14009481D01*
X8959331Y-14022975D01*
G37*
G36*
X14444144Y-14534944D02*
G01*
X14496531Y-14609556D01*
X14601306Y-14639719D01*
X14683459Y-14634956D01*
X14745769Y-14620669D01*
X14763231Y-14614319D01*
X14826731Y-14596856D01*
X14914044Y-14668294D01*
X14934681Y-14741319D01*
X14913548Y-14803132D01*
X14850147Y-14847284D01*
X14744479Y-14873776D01*
X14596544Y-14882606D01*
X14485617Y-14872486D01*
X14387787Y-14842125D01*
X14306627Y-14795095D01*
X14245706Y-14734969D01*
X14190144Y-14645892D01*
X14156806Y-14550113D01*
X14145694Y-14447631D01*
X14152296Y-14390481D01*
X14440969Y-14390481D01*
X14640994Y-14390481D01*
X14701319Y-14339681D01*
X14673538Y-14280944D01*
X14594163Y-14258719D01*
X14491769Y-14300788D01*
X14440969Y-14390481D01*
X14152296Y-14390481D01*
X14160069Y-14323189D01*
X14203197Y-14216562D01*
X14275075Y-14127750D01*
X14368473Y-14061163D01*
X14476158Y-14021211D01*
X14598131Y-14007894D01*
X14701120Y-14017617D01*
X14789425Y-14046787D01*
X14863045Y-14095405D01*
X14921981Y-14163469D01*
X14962462Y-14249789D01*
X14975956Y-14343650D01*
X14963852Y-14428581D01*
X14927538Y-14488113D01*
X14820381Y-14534944D01*
X14640994Y-14534944D01*
X14444144Y-14534944D01*
G37*
G36*
X7240862Y-14048177D02*
G01*
X7336906Y-14121400D01*
X7384531Y-14200687D01*
X7413106Y-14308372D01*
X7422631Y-14444456D01*
X7422631Y-14722269D01*
X7420250Y-14777038D01*
X7405169Y-14819106D01*
X7364291Y-14851253D01*
X7282931Y-14861969D01*
X7202366Y-14850856D01*
X7160694Y-14817519D01*
X7147200Y-14775450D01*
X7144819Y-14720681D01*
X7144819Y-14442869D01*
X7120212Y-14339284D01*
X7046394Y-14304756D01*
X6970987Y-14341269D01*
X6951144Y-14444456D01*
X6951144Y-14722269D01*
X6948762Y-14777831D01*
X6933681Y-14819106D01*
X6891612Y-14851253D01*
X6809856Y-14861969D01*
X6729291Y-14850856D01*
X6687619Y-14817519D01*
X6674125Y-14775450D01*
X6671744Y-14720681D01*
X6671744Y-14442869D01*
X6647137Y-14339284D01*
X6573319Y-14304756D01*
X6501881Y-14339284D01*
X6478069Y-14442869D01*
X6478069Y-14723856D01*
X6475687Y-14778625D01*
X6460606Y-14820694D01*
X6417744Y-14851650D01*
X6336781Y-14861969D01*
X6256216Y-14851253D01*
X6214544Y-14819106D01*
X6201050Y-14777831D01*
X6198669Y-14722269D01*
X6198669Y-14163469D01*
X6201050Y-14108700D01*
X6216131Y-14068219D01*
X6256216Y-14036072D01*
X6328844Y-14025356D01*
X6444731Y-14053931D01*
X6471719Y-14136481D01*
X6553872Y-14051947D01*
X6651106Y-14023769D01*
X6749884Y-14039115D01*
X6830317Y-14085152D01*
X6892406Y-14161881D01*
X6934475Y-14111875D01*
X7013056Y-14054725D01*
X7124181Y-14023769D01*
X7240862Y-14048177D01*
G37*
G36*
X12509775Y-14048177D02*
G01*
X12605819Y-14121400D01*
X12653444Y-14200687D01*
X12682019Y-14308372D01*
X12691544Y-14444456D01*
X12691544Y-14722269D01*
X12689162Y-14777038D01*
X12674081Y-14819106D01*
X12633203Y-14851253D01*
X12551844Y-14861969D01*
X12471278Y-14850856D01*
X12429606Y-14817519D01*
X12416113Y-14775450D01*
X12413731Y-14720681D01*
X12413731Y-14442869D01*
X12389125Y-14339284D01*
X12315306Y-14304756D01*
X12239900Y-14341269D01*
X12220056Y-14444456D01*
X12220056Y-14722269D01*
X12217675Y-14777831D01*
X12202594Y-14819106D01*
X12160525Y-14851253D01*
X12078769Y-14861969D01*
X11998203Y-14850856D01*
X11956531Y-14817519D01*
X11943037Y-14775450D01*
X11940656Y-14720681D01*
X11940656Y-14442869D01*
X11916050Y-14339284D01*
X11842231Y-14304756D01*
X11770794Y-14339284D01*
X11746981Y-14442869D01*
X11746981Y-14723856D01*
X11744600Y-14778625D01*
X11729519Y-14820694D01*
X11686656Y-14851650D01*
X11605694Y-14861969D01*
X11525128Y-14851253D01*
X11483456Y-14819106D01*
X11469963Y-14777831D01*
X11467581Y-14722269D01*
X11467581Y-14163469D01*
X11469963Y-14108700D01*
X11485044Y-14068219D01*
X11525128Y-14036072D01*
X11597756Y-14025356D01*
X11713644Y-14053931D01*
X11740631Y-14136481D01*
X11822784Y-14051947D01*
X11920019Y-14023769D01*
X12018797Y-14039115D01*
X12099230Y-14085152D01*
X12161319Y-14161881D01*
X12203387Y-14111875D01*
X12281969Y-14054725D01*
X12393094Y-14023769D01*
X12509775Y-14048177D01*
G37*
G36*
X13860738Y-14048177D02*
G01*
X13956781Y-14121400D01*
X14004406Y-14200687D01*
X14032981Y-14308372D01*
X14042506Y-14444456D01*
X14042506Y-14722269D01*
X14040125Y-14777038D01*
X14025044Y-14819106D01*
X13984166Y-14851253D01*
X13902806Y-14861969D01*
X13822241Y-14850856D01*
X13780569Y-14817519D01*
X13767075Y-14775450D01*
X13764694Y-14720681D01*
X13764694Y-14442869D01*
X13740088Y-14339284D01*
X13666269Y-14304756D01*
X13590863Y-14341269D01*
X13571019Y-14444456D01*
X13571019Y-14722269D01*
X13568638Y-14777831D01*
X13553556Y-14819106D01*
X13511488Y-14851253D01*
X13429731Y-14861969D01*
X13349166Y-14850856D01*
X13307494Y-14817519D01*
X13294000Y-14775450D01*
X13291619Y-14720681D01*
X13291619Y-14442869D01*
X13267012Y-14339284D01*
X13193194Y-14304756D01*
X13121756Y-14339284D01*
X13097944Y-14442869D01*
X13097944Y-14723856D01*
X13095563Y-14778625D01*
X13080481Y-14820694D01*
X13037619Y-14851650D01*
X12956656Y-14861969D01*
X12876091Y-14851253D01*
X12834419Y-14819106D01*
X12820925Y-14777831D01*
X12818544Y-14722269D01*
X12818544Y-14163469D01*
X12820925Y-14108700D01*
X12836006Y-14068219D01*
X12876091Y-14036072D01*
X12948719Y-14025356D01*
X13064606Y-14053931D01*
X13091594Y-14136481D01*
X13173747Y-14051947D01*
X13270981Y-14023769D01*
X13369759Y-14039115D01*
X13450192Y-14085152D01*
X13512281Y-14161881D01*
X13554350Y-14111875D01*
X13632931Y-14054725D01*
X13744056Y-14023769D01*
X13860738Y-14048177D01*
G37*
G36*
X2669656Y-14709569D02*
G01*
X2582542Y-14689923D01*
X2505350Y-14630988D01*
X2451177Y-14544270D01*
X2433119Y-14441281D01*
X2436015Y-14419056D01*
X2636319Y-14419056D01*
X2661719Y-14481763D01*
X2728394Y-14507956D01*
X2802212Y-14477000D01*
X2839519Y-14407944D01*
X2839519Y-14398419D01*
X2816500Y-14334125D01*
X2749031Y-14306344D01*
X2672831Y-14337300D01*
X2636319Y-14407944D01*
X2636319Y-14419056D01*
X2436015Y-14419056D01*
X2444760Y-14351940D01*
X2479685Y-14272301D01*
X2537894Y-14202363D01*
X2640883Y-14129139D01*
X2740300Y-14104731D01*
X2823048Y-14120606D01*
X2876031Y-14168231D01*
X2906987Y-14119813D01*
X2983187Y-14103144D01*
X3056212Y-14119813D01*
X3076056Y-14157913D01*
X3072881Y-14204744D01*
X3018906Y-14611144D01*
X3007794Y-14695281D01*
X3019700Y-14721475D01*
X3057006Y-14728619D01*
X3106219Y-14722269D01*
X3160987Y-14696075D01*
X3215756Y-14644481D01*
X3258619Y-14555581D01*
X3272906Y-14441281D01*
X3262587Y-14324997D01*
X3231631Y-14230144D01*
X3182816Y-14154738D01*
X3118919Y-14096794D01*
X3014937Y-14042113D01*
X2897727Y-14009305D01*
X2767287Y-13998369D01*
X2638876Y-14011333D01*
X2527751Y-14050227D01*
X2433912Y-14115050D01*
X2362916Y-14202098D01*
X2320318Y-14307667D01*
X2306119Y-14431756D01*
X2317143Y-14556110D01*
X2350216Y-14662473D01*
X2405337Y-14750844D01*
X2483566Y-14816990D01*
X2585960Y-14856677D01*
X2712519Y-14869906D01*
X2742681Y-14869906D01*
X2795862Y-14888163D01*
X2810944Y-14955631D01*
X2803800Y-15026275D01*
X2779194Y-15055644D01*
X2710931Y-15068344D01*
X2578573Y-15057579D01*
X2460900Y-15025283D01*
X2357911Y-14971457D01*
X2269606Y-14896100D01*
X2198764Y-14802586D01*
X2148162Y-14694289D01*
X2117802Y-14571208D01*
X2107681Y-14433344D01*
X2117912Y-14309431D01*
X2148603Y-14195924D01*
X2199756Y-14092825D01*
X2267225Y-14003219D01*
X2346865Y-13930194D01*
X2438675Y-13873750D01*
X2538158Y-13833622D01*
X2640817Y-13809544D01*
X2746650Y-13801519D01*
X2850190Y-13805840D01*
X2945969Y-13818805D01*
X3033987Y-13840412D01*
X3153248Y-13888831D01*
X3258619Y-13956300D01*
X3346527Y-14045200D01*
X3413400Y-14157913D01*
X3444709Y-14242579D01*
X3463494Y-14330421D01*
X3469756Y-14421438D01*
X3460231Y-14549628D01*
X3431656Y-14656388D01*
X3387603Y-14742708D01*
X3331644Y-14809581D01*
X3245213Y-14874845D01*
X3153138Y-14914003D01*
X3055419Y-14927056D01*
X2959375Y-14911181D01*
X2880794Y-14863556D01*
X2828406Y-14788547D01*
X2810944Y-14690519D01*
X2814119Y-14652419D01*
X2751809Y-14695281D01*
X2728394Y-14699354D01*
X2669656Y-14709569D01*
G37*
G04 #@! TO.C,kibuzzard-649469D3*
G36*
X39002409Y-12459414D02*
G01*
X39024078Y-12542758D01*
X39021300Y-12582207D01*
X39009632Y-12612767D01*
X38980323Y-12636937D01*
X38925733Y-12644993D01*
X38869892Y-12639576D01*
X38836833Y-12623324D01*
X38820580Y-12591514D01*
X38815163Y-12539424D01*
X38820997Y-12486640D01*
X38838499Y-12457192D01*
X38923510Y-12437189D01*
X39002409Y-12459414D01*
G37*
G36*
X39002409Y-12813348D02*
G01*
X39018661Y-12845157D01*
X39024078Y-12897247D01*
X39021300Y-12936696D01*
X39009632Y-12967256D01*
X38980323Y-12991425D01*
X38925733Y-12999482D01*
X38869892Y-12994065D01*
X38836833Y-12977813D01*
X38820580Y-12946003D01*
X38815163Y-12893913D01*
X38820997Y-12841129D01*
X38838499Y-12811681D01*
X38923510Y-12791678D01*
X39002409Y-12813348D01*
G37*
G36*
X35771449Y-12409964D02*
G01*
X35810343Y-12419409D01*
X35845348Y-12442190D01*
X35859238Y-12493863D01*
X35838124Y-12571651D01*
X35777006Y-12613878D01*
X35738668Y-12604988D01*
X35690328Y-12596098D01*
X35634210Y-12617212D01*
X35608096Y-12668329D01*
X35608096Y-12901692D01*
X35606429Y-12940030D01*
X35595872Y-12969478D01*
X35565868Y-12991148D01*
X35509194Y-12998371D01*
X35432518Y-12979479D01*
X35412516Y-12931696D01*
X35412516Y-12899469D01*
X35412516Y-12509421D01*
X35414183Y-12471082D01*
X35423628Y-12442746D01*
X35453076Y-12420243D01*
X35510306Y-12412742D01*
X35564479Y-12419132D01*
X35593649Y-12438301D01*
X35605873Y-12474972D01*
X35621986Y-12456081D01*
X35666992Y-12426077D01*
X35727555Y-12407186D01*
X35771449Y-12409964D01*
G37*
G36*
X38286208Y-12409408D02*
G01*
X38305655Y-12427744D01*
X38323991Y-12458303D01*
X38366774Y-12531090D01*
X38402889Y-12592270D01*
X38437894Y-12650611D01*
X38471787Y-12706112D01*
X38489567Y-12662912D01*
X38531794Y-12568872D01*
X38573605Y-12477333D01*
X38590135Y-12441634D01*
X38602914Y-12422743D01*
X38643475Y-12403852D01*
X38705149Y-12419409D01*
X38754322Y-12451358D01*
X38770713Y-12489418D01*
X38761823Y-12527201D01*
X38752933Y-12546092D01*
X38461786Y-13197284D01*
X38446784Y-13229511D01*
X38427337Y-13250624D01*
X38393999Y-13260626D01*
X38335103Y-13243957D01*
X38285930Y-13212286D01*
X38269539Y-13175059D01*
X38276207Y-13149153D01*
X38296209Y-13098105D01*
X38329547Y-13021915D01*
X38376219Y-12920583D01*
X38155081Y-12548314D01*
X38132856Y-12493863D01*
X38147858Y-12458303D01*
X38192863Y-12422743D01*
X38251759Y-12400518D01*
X38286208Y-12409408D01*
G37*
G36*
X33078891Y-12999343D02*
G01*
X33008882Y-12972256D01*
X32945402Y-12927528D01*
X32892756Y-12865576D01*
X32857335Y-12790428D01*
X32845528Y-12706112D01*
X32845735Y-12704445D01*
X33042219Y-12704445D01*
X33051109Y-12751673D01*
X33077779Y-12785566D01*
X33150011Y-12812792D01*
X33223353Y-12785011D01*
X33250857Y-12750562D01*
X33260024Y-12702778D01*
X33251412Y-12655272D01*
X33225576Y-12621657D01*
X33151122Y-12594987D01*
X33076668Y-12622768D01*
X33050832Y-12657078D01*
X33042219Y-12704445D01*
X32845735Y-12704445D01*
X32855900Y-12622398D01*
X32887015Y-12549055D01*
X32938873Y-12486084D01*
X33004066Y-12437930D01*
X33075186Y-12409038D01*
X33152233Y-12399407D01*
X33229156Y-12408976D01*
X33299906Y-12437683D01*
X33364482Y-12485529D01*
X33415723Y-12548191D01*
X33446467Y-12621348D01*
X33456716Y-12705001D01*
X33444770Y-12792095D01*
X33408932Y-12868910D01*
X33356009Y-12931140D01*
X33292806Y-12974479D01*
X33223214Y-12999899D01*
X33151122Y-13008372D01*
X33150011Y-13008233D01*
X33078891Y-12999343D01*
G37*
G36*
X33924490Y-12422187D02*
G01*
X33986165Y-12450524D01*
X34039566Y-12497752D01*
X34080621Y-12558563D01*
X34105253Y-12627645D01*
X34113464Y-12705001D01*
X34113464Y-12900581D01*
X34111798Y-12938919D01*
X34102352Y-12967256D01*
X34072904Y-12989758D01*
X34015674Y-12997259D01*
X33953444Y-12986980D01*
X33924552Y-12956143D01*
X33917884Y-12899469D01*
X33917884Y-12703889D01*
X33891770Y-12632769D01*
X33821761Y-12607211D01*
X33750641Y-12633881D01*
X33723416Y-12703889D01*
X33723416Y-12900581D01*
X33721749Y-12938919D01*
X33711192Y-12967256D01*
X33682577Y-12989758D01*
X33625626Y-12997259D01*
X33569230Y-12989758D01*
X33540059Y-12967256D01*
X33530614Y-12937807D01*
X33528947Y-12899469D01*
X33528947Y-12506087D01*
X33530614Y-12468860D01*
X33541171Y-12440523D01*
X33570341Y-12419687D01*
X33626737Y-12412742D01*
X33681466Y-12419132D01*
X33710081Y-12438301D01*
X33721193Y-12483862D01*
X33741196Y-12461637D01*
X33771199Y-12438301D01*
X33854543Y-12412742D01*
X33924490Y-12422187D01*
G37*
G36*
X34962459Y-12999343D02*
G01*
X34892451Y-12972256D01*
X34828970Y-12927528D01*
X34776325Y-12865576D01*
X34740904Y-12790428D01*
X34729097Y-12706112D01*
X34729304Y-12704445D01*
X34925788Y-12704445D01*
X34934678Y-12751673D01*
X34961348Y-12785566D01*
X35033579Y-12812792D01*
X35106922Y-12785011D01*
X35134425Y-12750562D01*
X35143593Y-12702778D01*
X35134981Y-12655272D01*
X35109144Y-12621657D01*
X35034691Y-12594987D01*
X34960237Y-12622768D01*
X34934400Y-12657078D01*
X34925788Y-12704445D01*
X34729304Y-12704445D01*
X34739469Y-12622398D01*
X34770584Y-12549055D01*
X34822442Y-12486084D01*
X34887635Y-12437930D01*
X34958755Y-12409038D01*
X35035802Y-12399407D01*
X35112725Y-12408976D01*
X35183475Y-12437683D01*
X35248051Y-12485529D01*
X35299292Y-12548191D01*
X35330036Y-12621348D01*
X35340284Y-12705001D01*
X35328338Y-12792095D01*
X35292501Y-12868910D01*
X35239577Y-12931140D01*
X35176375Y-12974479D01*
X35106783Y-12999899D01*
X35034691Y-13008372D01*
X35033579Y-13008233D01*
X34962459Y-12999343D01*
G37*
G36*
X32459091Y-12970034D02*
G01*
X32405473Y-12931696D01*
X32405473Y-13156168D01*
X32403806Y-13193951D01*
X32393805Y-13222287D01*
X32365468Y-13245068D01*
X32311017Y-13251736D01*
X32256010Y-13245068D01*
X32227117Y-13222843D01*
X32217116Y-13195062D01*
X32215449Y-13157279D01*
X32215449Y-12699444D01*
X32409918Y-12699444D01*
X32436032Y-12764452D01*
X32502708Y-12793901D01*
X32571605Y-12765008D01*
X32599942Y-12699444D01*
X32573272Y-12633325D01*
X32503819Y-12603877D01*
X32435477Y-12633881D01*
X32409918Y-12699444D01*
X32215449Y-12699444D01*
X32215449Y-12508309D01*
X32217116Y-12470527D01*
X32226562Y-12442746D01*
X32252954Y-12420243D01*
X32301016Y-12412742D01*
X32380470Y-12427744D01*
X32404362Y-12471638D01*
X32458674Y-12428299D01*
X32537156Y-12413853D01*
X32596485Y-12423360D01*
X32653714Y-12451883D01*
X32708844Y-12499419D01*
X32753912Y-12559550D01*
X32780952Y-12625855D01*
X32789966Y-12698333D01*
X32781014Y-12770811D01*
X32754159Y-12837116D01*
X32709400Y-12897247D01*
X32654517Y-12944784D01*
X32597287Y-12973306D01*
X32537712Y-12982813D01*
X32502708Y-12977123D01*
X32459091Y-12970034D01*
G37*
G36*
X36810468Y-12996148D02*
G01*
X36745769Y-12986456D01*
X36685020Y-12957378D01*
X36628223Y-12908915D01*
X36582538Y-12847549D01*
X36555128Y-12779763D01*
X36546059Y-12706112D01*
X36740459Y-12706112D01*
X36769352Y-12772787D01*
X36839361Y-12802791D01*
X36907703Y-12772787D01*
X36934928Y-12706667D01*
X36908814Y-12639437D01*
X36838249Y-12608322D01*
X36767129Y-12638881D01*
X36740459Y-12706112D01*
X36546059Y-12706112D01*
X36545991Y-12705556D01*
X36555189Y-12631288D01*
X36582785Y-12563316D01*
X36628779Y-12501642D01*
X36685761Y-12452870D01*
X36746324Y-12423607D01*
X36810468Y-12413853D01*
X36883533Y-12427744D01*
X36938262Y-12469416D01*
X36938262Y-12236053D01*
X36939929Y-12197715D01*
X36949930Y-12168822D01*
X36979378Y-12146042D01*
X37035496Y-12139374D01*
X37091614Y-12146042D01*
X37121063Y-12169378D01*
X37131064Y-12198826D01*
X37132731Y-12237164D01*
X37132731Y-12900581D01*
X37131064Y-12938919D01*
X37120507Y-12967256D01*
X37088697Y-12989758D01*
X37026606Y-12997259D01*
X36966460Y-12983647D01*
X36940484Y-12942808D01*
X36884644Y-12982813D01*
X36839361Y-12990954D01*
X36810468Y-12996148D01*
G37*
G36*
X37748641Y-12982813D02*
G01*
X37695023Y-12942808D01*
X37666686Y-12983647D01*
X37599456Y-12997259D01*
X37543060Y-12989758D01*
X37513889Y-12967256D01*
X37504444Y-12937807D01*
X37502777Y-12899469D01*
X37502777Y-12706667D01*
X37699468Y-12706667D01*
X37726694Y-12772787D01*
X37795036Y-12802791D01*
X37865044Y-12772787D01*
X37893937Y-12706112D01*
X37867267Y-12638881D01*
X37796147Y-12608322D01*
X37725582Y-12639437D01*
X37699468Y-12706667D01*
X37502777Y-12706667D01*
X37502777Y-12236053D01*
X37504444Y-12197715D01*
X37513889Y-12169378D01*
X37543337Y-12146875D01*
X37600567Y-12139374D01*
X37656685Y-12146875D01*
X37685022Y-12169378D01*
X37695579Y-12198826D01*
X37697246Y-12237164D01*
X37697246Y-12468304D01*
X37751141Y-12427466D01*
X37823928Y-12413853D01*
X37888072Y-12423607D01*
X37948635Y-12452870D01*
X38005617Y-12501642D01*
X38051611Y-12563316D01*
X38079207Y-12631288D01*
X38088406Y-12705556D01*
X38079269Y-12779763D01*
X38051858Y-12847549D01*
X38006173Y-12908915D01*
X37949993Y-12957378D01*
X37891097Y-12986456D01*
X37829484Y-12996148D01*
X37795036Y-12990466D01*
X37748641Y-12982813D01*
G37*
G36*
X34526849Y-12411075D02*
G01*
X34609082Y-12439412D01*
X34647976Y-12483862D01*
X34623528Y-12549426D01*
X34573522Y-12588319D01*
X34524071Y-12571651D01*
X34445728Y-12554982D01*
X34380164Y-12579429D01*
X34399056Y-12606933D01*
X34455729Y-12622768D01*
X34527961Y-12637214D01*
X34597969Y-12664996D01*
X34651865Y-12718891D01*
X34668117Y-12762091D01*
X34673534Y-12815014D01*
X34668117Y-12868493D01*
X34651865Y-12913360D01*
X34591302Y-12973923D01*
X34539876Y-12993061D01*
X34480424Y-13004544D01*
X34412946Y-13008372D01*
X34342382Y-13001457D01*
X34273670Y-12980714D01*
X34206809Y-12946142D01*
X34185696Y-12903914D01*
X34196252Y-12867521D01*
X34227923Y-12816126D01*
X34267372Y-12797234D01*
X34341271Y-12824460D01*
X34425726Y-12851686D01*
X34476565Y-12845018D01*
X34493512Y-12825016D01*
X34474898Y-12806680D01*
X34419058Y-12793901D01*
X34349327Y-12775843D01*
X34280152Y-12741672D01*
X34226812Y-12678886D01*
X34210977Y-12632075D01*
X34205698Y-12577207D01*
X34215344Y-12513999D01*
X34244281Y-12464837D01*
X34292509Y-12429722D01*
X34360029Y-12408652D01*
X34446839Y-12401629D01*
X34526849Y-12411075D01*
G37*
G36*
X36112603Y-12769453D02*
G01*
X36149274Y-12821682D01*
X36222617Y-12842796D01*
X36280124Y-12839462D01*
X36323741Y-12829461D01*
X36335964Y-12825016D01*
X36380414Y-12812792D01*
X36441533Y-12862798D01*
X36455979Y-12913916D01*
X36441186Y-12957185D01*
X36396805Y-12988092D01*
X36322838Y-13006636D01*
X36219283Y-13012817D01*
X36141635Y-13005733D01*
X36073154Y-12984480D01*
X36016341Y-12951559D01*
X35973697Y-12909471D01*
X35934803Y-12847117D01*
X35911467Y-12780072D01*
X35903688Y-12708334D01*
X35908309Y-12668329D01*
X36110381Y-12668329D01*
X36250398Y-12668329D01*
X36292626Y-12632769D01*
X36273179Y-12591653D01*
X36217616Y-12576096D01*
X36145941Y-12605544D01*
X36110381Y-12668329D01*
X35908309Y-12668329D01*
X35913751Y-12621225D01*
X35943940Y-12546586D01*
X35994255Y-12484417D01*
X36059634Y-12437807D01*
X36135013Y-12409840D01*
X36220394Y-12400518D01*
X36292487Y-12407325D01*
X36354300Y-12427744D01*
X36405834Y-12461776D01*
X36447089Y-12509421D01*
X36475426Y-12569845D01*
X36484872Y-12635548D01*
X36476399Y-12694999D01*
X36450979Y-12736671D01*
X36375969Y-12769453D01*
X36250398Y-12769453D01*
X36112603Y-12769453D01*
G37*
G36*
X31900271Y-12174795D02*
G01*
X31958195Y-12187714D01*
X32034316Y-12222718D01*
X32062097Y-12243832D01*
X32096546Y-12298283D01*
X32069876Y-12359402D01*
X32031537Y-12401074D01*
X31992088Y-12414964D01*
X31934303Y-12392739D01*
X31921524Y-12381627D01*
X31904299Y-12367181D01*
X31844847Y-12352734D01*
X31784840Y-12369959D01*
X31760948Y-12417742D01*
X31789285Y-12467193D01*
X31859849Y-12492752D01*
X31904022Y-12501225D01*
X31952083Y-12513310D01*
X32000145Y-12528729D01*
X32044317Y-12547203D01*
X32083072Y-12574568D01*
X32114881Y-12616656D01*
X32136134Y-12671802D01*
X32143218Y-12738338D01*
X32135995Y-12806263D01*
X32114326Y-12865576D01*
X32080988Y-12914332D01*
X32038761Y-12950587D01*
X31977395Y-12983307D01*
X31913313Y-13002939D01*
X31846514Y-13009483D01*
X31795675Y-13006288D01*
X31747613Y-12996704D01*
X31672048Y-12965033D01*
X31622042Y-12930029D01*
X31589816Y-12896136D01*
X31579814Y-12883912D01*
X31550922Y-12820015D01*
X31562868Y-12787094D01*
X31598706Y-12745006D01*
X31657602Y-12718336D01*
X31694829Y-12732226D01*
X31744279Y-12773898D01*
X31788729Y-12810014D01*
X31842069Y-12827238D01*
X31899484Y-12817854D01*
X31933933Y-12789703D01*
X31945416Y-12742783D01*
X31917079Y-12700000D01*
X31846514Y-12674997D01*
X31802620Y-12664857D01*
X31755392Y-12649994D01*
X31708164Y-12631241D01*
X31664269Y-12609433D01*
X31625515Y-12579290D01*
X31593705Y-12535535D01*
X31572452Y-12479834D01*
X31565368Y-12413853D01*
X31573456Y-12351438D01*
X31597718Y-12294579D01*
X31638155Y-12243276D01*
X31692545Y-12202839D01*
X31758664Y-12178577D01*
X31836513Y-12170489D01*
X31900271Y-12174795D01*
G37*
G04 #@! TO.C,kibuzzard-645C1150*
G36*
X6710568Y-21608319D02*
G01*
X6732238Y-21691662D01*
X6729459Y-21731112D01*
X6717791Y-21761671D01*
X6688482Y-21785841D01*
X6633892Y-21793897D01*
X6578052Y-21788480D01*
X6544992Y-21772228D01*
X6528740Y-21740419D01*
X6523322Y-21688329D01*
X6529157Y-21635544D01*
X6546659Y-21606096D01*
X6631669Y-21586094D01*
X6710568Y-21608319D01*
G37*
G36*
X6710568Y-21962252D02*
G01*
X6726820Y-21994061D01*
X6732238Y-22046151D01*
X6729459Y-22085601D01*
X6717791Y-22116160D01*
X6688482Y-22140330D01*
X6633892Y-22148386D01*
X6578052Y-22142969D01*
X6544992Y-22126717D01*
X6528740Y-22094907D01*
X6523322Y-22042818D01*
X6529157Y-21990033D01*
X6546659Y-21960585D01*
X6631669Y-21940583D01*
X6710568Y-21962252D01*
G37*
G36*
X4243593Y-21295780D02*
G01*
X4271930Y-21318282D01*
X4282487Y-21347731D01*
X4284154Y-21386069D01*
X4282487Y-21424407D01*
X4272486Y-21453299D01*
X4243037Y-21476080D01*
X4186919Y-21482747D01*
X4130801Y-21476080D01*
X4101353Y-21452744D01*
X4091352Y-21423296D01*
X4089685Y-21384958D01*
X4091352Y-21346619D01*
X4100797Y-21318282D01*
X4130246Y-21295780D01*
X4187475Y-21288279D01*
X4243593Y-21295780D01*
G37*
G36*
X5070363Y-21295780D02*
G01*
X5098700Y-21318282D01*
X5109257Y-21347731D01*
X5110924Y-21386069D01*
X5109257Y-21424407D01*
X5099256Y-21453299D01*
X5069807Y-21476080D01*
X5013689Y-21482747D01*
X4957571Y-21476080D01*
X4928123Y-21452744D01*
X4918122Y-21423296D01*
X4916455Y-21384958D01*
X4918122Y-21346619D01*
X4927567Y-21318282D01*
X4957016Y-21295780D01*
X5014245Y-21288279D01*
X5070363Y-21295780D01*
G37*
G36*
X4263040Y-21581649D02*
G01*
X4283042Y-21629432D01*
X4284154Y-21661659D01*
X4284154Y-22050596D01*
X4282487Y-22088934D01*
X4271930Y-22118383D01*
X4243315Y-22140052D01*
X4186364Y-22147275D01*
X4129968Y-22139774D01*
X4100797Y-22117271D01*
X4091352Y-22088379D01*
X4089685Y-22049485D01*
X4089685Y-21659436D01*
X4091352Y-21621098D01*
X4100797Y-21591650D01*
X4130246Y-21569981D01*
X4187475Y-21562757D01*
X4263040Y-21581649D01*
G37*
G36*
X5089810Y-21581649D02*
G01*
X5109812Y-21629432D01*
X5110924Y-21661659D01*
X5110924Y-22050596D01*
X5109257Y-22088934D01*
X5098700Y-22118383D01*
X5070085Y-22140052D01*
X5013134Y-22147275D01*
X4956738Y-22139774D01*
X4927567Y-22117271D01*
X4918122Y-22088379D01*
X4916455Y-22049485D01*
X4916455Y-21659436D01*
X4918122Y-21621098D01*
X4927567Y-21591650D01*
X4957016Y-21569981D01*
X5014245Y-21562757D01*
X5089810Y-21581649D01*
G37*
G36*
X3515724Y-21565536D02*
G01*
X3545172Y-21610541D01*
X3690746Y-21890576D01*
X3836320Y-21610541D01*
X3854656Y-21579982D01*
X3874102Y-21561091D01*
X3909662Y-21551645D01*
X3970781Y-21574981D01*
X4014120Y-21610541D01*
X4028566Y-21648324D01*
X4006341Y-21709442D01*
X3776312Y-22103936D01*
X3740753Y-22137829D01*
X3692413Y-22152831D01*
X3646852Y-22141163D01*
X3616293Y-22117271D01*
X3606291Y-22105048D01*
X3375151Y-21709442D01*
X3352926Y-21649435D01*
X3367372Y-21610819D01*
X3410711Y-21574981D01*
X3477386Y-21550534D01*
X3515724Y-21565536D01*
G37*
G36*
X5416517Y-22148247D02*
G01*
X5346509Y-22121161D01*
X5283029Y-22076433D01*
X5230383Y-22014481D01*
X5194962Y-21939332D01*
X5183155Y-21855016D01*
X5183362Y-21853349D01*
X5379846Y-21853349D01*
X5388736Y-21900578D01*
X5415406Y-21934471D01*
X5487638Y-21961696D01*
X5560980Y-21933915D01*
X5588483Y-21899466D01*
X5597651Y-21851682D01*
X5589039Y-21804177D01*
X5563202Y-21770561D01*
X5488749Y-21743891D01*
X5414295Y-21771672D01*
X5388458Y-21805982D01*
X5379846Y-21853349D01*
X5183362Y-21853349D01*
X5193527Y-21771302D01*
X5224642Y-21697960D01*
X5276500Y-21634989D01*
X5341693Y-21586835D01*
X5412813Y-21557942D01*
X5489860Y-21548311D01*
X5566783Y-21557880D01*
X5637533Y-21586588D01*
X5702109Y-21634433D01*
X5753350Y-21697095D01*
X5784094Y-21770253D01*
X5794342Y-21853905D01*
X5782397Y-21940999D01*
X5746559Y-22017814D01*
X5693635Y-22080044D01*
X5630433Y-22123383D01*
X5560841Y-22148803D01*
X5488749Y-22157276D01*
X5487638Y-22157137D01*
X5416517Y-22148247D01*
G37*
G36*
X6262117Y-21571092D02*
G01*
X6323791Y-21599429D01*
X6377193Y-21646657D01*
X6418248Y-21707467D01*
X6442880Y-21776550D01*
X6451091Y-21853905D01*
X6451091Y-22049485D01*
X6449424Y-22087823D01*
X6439979Y-22116160D01*
X6410531Y-22138663D01*
X6353301Y-22146164D01*
X6291071Y-22135885D01*
X6262179Y-22105048D01*
X6255511Y-22048374D01*
X6255511Y-21852794D01*
X6229397Y-21781674D01*
X6159388Y-21756115D01*
X6088268Y-21782785D01*
X6061043Y-21852794D01*
X6061043Y-22049485D01*
X6059376Y-22087823D01*
X6048819Y-22116160D01*
X6020204Y-22138663D01*
X5963253Y-22146164D01*
X5906857Y-22138663D01*
X5877686Y-22116160D01*
X5868241Y-22086712D01*
X5866574Y-22048374D01*
X5866574Y-21654991D01*
X5868241Y-21617764D01*
X5878798Y-21589427D01*
X5907968Y-21568592D01*
X5964364Y-21561646D01*
X6019093Y-21568036D01*
X6047708Y-21587205D01*
X6058820Y-21632766D01*
X6078823Y-21610541D01*
X6108826Y-21587205D01*
X6192170Y-21561646D01*
X6262117Y-21571092D01*
G37*
G36*
X2936207Y-21918358D02*
G01*
X2972879Y-21970586D01*
X3046221Y-21991700D01*
X3103728Y-21988366D01*
X3147345Y-21978365D01*
X3159569Y-21973920D01*
X3204019Y-21961696D01*
X3265137Y-22011702D01*
X3279584Y-22062820D01*
X3264790Y-22106089D01*
X3220410Y-22136996D01*
X3146442Y-22155540D01*
X3042887Y-22161721D01*
X2965239Y-22154637D01*
X2896758Y-22133384D01*
X2839945Y-22100464D01*
X2797301Y-22058375D01*
X2758408Y-21996022D01*
X2735071Y-21928976D01*
X2727292Y-21857239D01*
X2731913Y-21817234D01*
X2933985Y-21817234D01*
X3074002Y-21817234D01*
X3116230Y-21781674D01*
X3096783Y-21740557D01*
X3041221Y-21725000D01*
X2969545Y-21754448D01*
X2933985Y-21817234D01*
X2731913Y-21817234D01*
X2737355Y-21770129D01*
X2767544Y-21695490D01*
X2817859Y-21633322D01*
X2883238Y-21586711D01*
X2958618Y-21558745D01*
X3043999Y-21549422D01*
X3116091Y-21556229D01*
X3177904Y-21576648D01*
X3229439Y-21610680D01*
X3270694Y-21658325D01*
X3299031Y-21718749D01*
X3308476Y-21784452D01*
X3300003Y-21843904D01*
X3274583Y-21885576D01*
X3199574Y-21918358D01*
X3074002Y-21918358D01*
X2936207Y-21918358D01*
G37*
G36*
X4697539Y-21559979D02*
G01*
X4779771Y-21588316D01*
X4818665Y-21632766D01*
X4794217Y-21698330D01*
X4744211Y-21737224D01*
X4694761Y-21720555D01*
X4616417Y-21703886D01*
X4550854Y-21728334D01*
X4569745Y-21755837D01*
X4626419Y-21771672D01*
X4698650Y-21786119D01*
X4768659Y-21813900D01*
X4822554Y-21867796D01*
X4838806Y-21910995D01*
X4844224Y-21963919D01*
X4838806Y-22017398D01*
X4822554Y-22062264D01*
X4761991Y-22122828D01*
X4710565Y-22141966D01*
X4651113Y-22153449D01*
X4583636Y-22157276D01*
X4513071Y-22150362D01*
X4444359Y-22129618D01*
X4377499Y-22095046D01*
X4356385Y-22052819D01*
X4366942Y-22016425D01*
X4398612Y-21965030D01*
X4438062Y-21946139D01*
X4511960Y-21973364D01*
X4596415Y-22000590D01*
X4647255Y-21993923D01*
X4664201Y-21973920D01*
X4645588Y-21955584D01*
X4589747Y-21942805D01*
X4520017Y-21924747D01*
X4450841Y-21890576D01*
X4397501Y-21827791D01*
X4381666Y-21780979D01*
X4376387Y-21726111D01*
X4386033Y-21662903D01*
X4414970Y-21613742D01*
X4463198Y-21578626D01*
X4530718Y-21557557D01*
X4617529Y-21550534D01*
X4697539Y-21559979D01*
G37*
G36*
X2239454Y-22048374D02*
G01*
X2237787Y-22086712D01*
X2227230Y-22116160D01*
X2197782Y-22138663D01*
X2140552Y-22146164D01*
X2078878Y-22135885D01*
X2049430Y-22105048D01*
X2042762Y-22047262D01*
X2042762Y-21529420D01*
X2239454Y-21529420D01*
X2239454Y-21726111D01*
X2381694Y-21726111D01*
X2446146Y-21701664D01*
X2478372Y-21628321D01*
X2446146Y-21554423D01*
X2379471Y-21529420D01*
X2239454Y-21529420D01*
X2042762Y-21529420D01*
X2042762Y-21430519D01*
X2044429Y-21392181D01*
X2054986Y-21362732D01*
X2084434Y-21340230D01*
X2141664Y-21332729D01*
X2381694Y-21332729D01*
X2446270Y-21340631D01*
X2509611Y-21364338D01*
X2571717Y-21403849D01*
X2612278Y-21444409D01*
X2645060Y-21497194D01*
X2666729Y-21559424D01*
X2673952Y-21628321D01*
X2664692Y-21707097D01*
X2636911Y-21775994D01*
X2590609Y-21835014D01*
X2609870Y-21880575D01*
X2635059Y-21938730D01*
X2666174Y-22009480D01*
X2682842Y-22067265D01*
X2665618Y-22106159D01*
X2613945Y-22138385D01*
X2556716Y-22153942D01*
X2521156Y-22143386D01*
X2500597Y-22121716D01*
X2486028Y-22089984D01*
X2457135Y-22022938D01*
X2413920Y-21920580D01*
X2379471Y-21922803D01*
X2239454Y-21922803D01*
X2239454Y-22048374D01*
G37*
G04 #@! TO.C,kibuzzard-649468E2*
G36*
X33468798Y-24555115D02*
G01*
X33537001Y-24600537D01*
X33584090Y-24668462D01*
X33599786Y-24751111D01*
X33583673Y-24833483D01*
X33535334Y-24900574D01*
X33466992Y-24945163D01*
X33390871Y-24960026D01*
X33283080Y-24960026D01*
X33283080Y-24539974D01*
X33389760Y-24539974D01*
X33468798Y-24555115D01*
G37*
G36*
X32476312Y-25389339D02*
G01*
X32378523Y-25389339D01*
X32378430Y-25389339D01*
X32315764Y-25386261D01*
X32253701Y-25377054D01*
X32192840Y-25361809D01*
X32133765Y-25340672D01*
X32077047Y-25313847D01*
X32023232Y-25281591D01*
X31972837Y-25244216D01*
X31926349Y-25202081D01*
X31884214Y-25155592D01*
X31846839Y-25105198D01*
X31819106Y-25058928D01*
X32378523Y-25058928D01*
X32385190Y-25115601D01*
X32414638Y-25147272D01*
X32476312Y-25157829D01*
X32533542Y-25150328D01*
X32562990Y-25127825D01*
X32573547Y-25098933D01*
X32575214Y-25060039D01*
X32575214Y-25057816D01*
X33086389Y-25057816D01*
X33099724Y-25128936D01*
X33129172Y-25149772D01*
X33184179Y-25156717D01*
X33387538Y-25156717D01*
X33469388Y-25149147D01*
X33544918Y-25126436D01*
X33614128Y-25088584D01*
X33677018Y-25035591D01*
X33729282Y-24972007D01*
X33766613Y-24902380D01*
X33789011Y-24826711D01*
X33796478Y-24744999D01*
X33788838Y-24663600D01*
X33765918Y-24588869D01*
X33727719Y-24520805D01*
X33674240Y-24459408D01*
X33610690Y-24408603D01*
X33542279Y-24372314D01*
X33469006Y-24350540D01*
X33390871Y-24343283D01*
X33185290Y-24342171D01*
X33128061Y-24349672D01*
X33098613Y-24372175D01*
X33088056Y-24401067D01*
X33086389Y-24439961D01*
X33086389Y-25057816D01*
X32575214Y-25057816D01*
X32575214Y-24850013D01*
X32793019Y-24850013D01*
X32849693Y-24844456D01*
X32881363Y-24814175D01*
X32891920Y-24752223D01*
X32884697Y-24694715D01*
X32863028Y-24664434D01*
X32833579Y-24653877D01*
X32794130Y-24652210D01*
X32575214Y-24652210D01*
X32575214Y-24539974D01*
X32915256Y-24539974D01*
X32954706Y-24538307D01*
X32984154Y-24528306D01*
X33007490Y-24498857D01*
X33014158Y-24442184D01*
X33007490Y-24385510D01*
X32984709Y-24355506D01*
X32955817Y-24344949D01*
X32917479Y-24343283D01*
X32479646Y-24343283D01*
X32399636Y-24363841D01*
X32378523Y-24441072D01*
X32378523Y-25058928D01*
X31819106Y-25058928D01*
X31814583Y-25051382D01*
X31787758Y-24994665D01*
X31766620Y-24935590D01*
X31751375Y-24874729D01*
X31742169Y-24812666D01*
X31739091Y-24750000D01*
X31742169Y-24687334D01*
X31751375Y-24625271D01*
X31766620Y-24564410D01*
X31787758Y-24505335D01*
X31814583Y-24448618D01*
X31846839Y-24394802D01*
X31884214Y-24344408D01*
X31926349Y-24297919D01*
X31972837Y-24255784D01*
X32023232Y-24218409D01*
X32077047Y-24186153D01*
X32133765Y-24159328D01*
X32192840Y-24138191D01*
X32253701Y-24122946D01*
X32315764Y-24113739D01*
X32378430Y-24110661D01*
X32378523Y-24110661D01*
X33796478Y-24110661D01*
X33796570Y-24110661D01*
X33859236Y-24113739D01*
X33921299Y-24122946D01*
X33982160Y-24138191D01*
X34041235Y-24159328D01*
X34097953Y-24186153D01*
X34151768Y-24218409D01*
X34202163Y-24255784D01*
X34248651Y-24297919D01*
X34290786Y-24344408D01*
X34328161Y-24394802D01*
X34360417Y-24448618D01*
X34387242Y-24505335D01*
X34408380Y-24564410D01*
X34423625Y-24625271D01*
X34432831Y-24687334D01*
X34435909Y-24750000D01*
X34432831Y-24812666D01*
X34423625Y-24874729D01*
X34408380Y-24935590D01*
X34387242Y-24994665D01*
X34360417Y-25051382D01*
X34328161Y-25105198D01*
X34290786Y-25155592D01*
X34248651Y-25202081D01*
X34202163Y-25244216D01*
X34151768Y-25281591D01*
X34097953Y-25313847D01*
X34041235Y-25340672D01*
X33982160Y-25361809D01*
X33921299Y-25377054D01*
X33859236Y-25386261D01*
X33796570Y-25389339D01*
X33796478Y-25389339D01*
X33387538Y-25389339D01*
X32476312Y-25389339D01*
G37*
G04 #@! TO.C,kibuzzard-647C9608*
G36*
X2927392Y-23619084D02*
G01*
X2978788Y-23644087D01*
X3005775Y-23755213D01*
X3005775Y-23761562D01*
X3003394Y-23817919D01*
X2986725Y-23861575D01*
X2944855Y-23896103D01*
X2866869Y-23907613D01*
X2787097Y-23900072D01*
X2739869Y-23877450D01*
X2708913Y-23763150D01*
X2708913Y-23756800D01*
X2711294Y-23701238D01*
X2726375Y-23658375D01*
X2768245Y-23622656D01*
X2846231Y-23610750D01*
X2927392Y-23619084D01*
G37*
G36*
X2534287Y-22748738D02*
G01*
X2575563Y-22766994D01*
X2597788Y-22801125D01*
X2605725Y-22885262D01*
X2605725Y-23769500D01*
X2603344Y-23824269D01*
X2588263Y-23866337D01*
X2546194Y-23898484D01*
X2464438Y-23909200D01*
X2384666Y-23898881D01*
X2342200Y-23867925D01*
X2327119Y-23824269D01*
X2324738Y-23766325D01*
X2324738Y-23199588D01*
X2304100Y-23218638D01*
X2192975Y-23267850D01*
X2096931Y-23212288D01*
X2046925Y-23113862D01*
X2104075Y-23020200D01*
X2364425Y-22785250D01*
X2369188Y-22782075D01*
X2458881Y-22740800D01*
X2534287Y-22748738D01*
G37*
G36*
X3556637Y-22748738D02*
G01*
X3597913Y-22766994D01*
X3620138Y-22801125D01*
X3628075Y-22885262D01*
X3628075Y-23769500D01*
X3625694Y-23824269D01*
X3610613Y-23866337D01*
X3568544Y-23898484D01*
X3486788Y-23909200D01*
X3407016Y-23898881D01*
X3364550Y-23867925D01*
X3349469Y-23824269D01*
X3347088Y-23766325D01*
X3347088Y-23199588D01*
X3326450Y-23218638D01*
X3215325Y-23267850D01*
X3119281Y-23212288D01*
X3069275Y-23113862D01*
X3126425Y-23020200D01*
X3386775Y-22785250D01*
X3391538Y-22782075D01*
X3481231Y-22740800D01*
X3556637Y-22748738D01*
G37*
G04 #@! TO.C,kibuzzard-649468CC*
G36*
X20387601Y-24493030D02*
G01*
X20455249Y-24538869D01*
X20490747Y-24584060D01*
X20512046Y-24638140D01*
X20519146Y-24701111D01*
X20512108Y-24763959D01*
X20490994Y-24817669D01*
X20455804Y-24862242D01*
X20388574Y-24907248D01*
X20313564Y-24922250D01*
X20238416Y-24906831D01*
X20170769Y-24860576D01*
X20135270Y-24815323D01*
X20113972Y-24761798D01*
X20106872Y-24700000D01*
X20113910Y-24638202D01*
X20135024Y-24584677D01*
X20170213Y-24539424D01*
X20237444Y-24493169D01*
X20312453Y-24477750D01*
X20387601Y-24493030D01*
G37*
G36*
X21145335Y-25350452D02*
G01*
X20315787Y-25350452D01*
X19453457Y-25350452D01*
X19028959Y-25350452D01*
X19028867Y-25350452D01*
X18965111Y-25347320D01*
X18901970Y-25337953D01*
X18840051Y-25322443D01*
X18779950Y-25300939D01*
X18722246Y-25273647D01*
X18667495Y-25240831D01*
X18616225Y-25202806D01*
X18568928Y-25159939D01*
X18526061Y-25112642D01*
X18488036Y-25061372D01*
X18455220Y-25006621D01*
X18427928Y-24948917D01*
X18406423Y-24888816D01*
X18390913Y-24826897D01*
X18381547Y-24763755D01*
X18378415Y-24700000D01*
X18381547Y-24636245D01*
X18390913Y-24573103D01*
X18406423Y-24511184D01*
X18427928Y-24451083D01*
X18455220Y-24393379D01*
X18466593Y-24374404D01*
X19028959Y-24374404D01*
X19045628Y-24427744D01*
X19352333Y-25050044D01*
X19389560Y-25089493D01*
X19442344Y-25104495D01*
X19453457Y-25104495D01*
X19505130Y-25089493D01*
X19542357Y-25050044D01*
X19712140Y-24705556D01*
X19910181Y-24705556D01*
X19917577Y-24787094D01*
X19939768Y-24862798D01*
X19976751Y-24932668D01*
X20028529Y-24996704D01*
X20090863Y-25050183D01*
X20159517Y-25088382D01*
X20234492Y-25111301D01*
X20315787Y-25118941D01*
X20396908Y-25111197D01*
X20471362Y-25087965D01*
X20539148Y-25049245D01*
X20600267Y-24995037D01*
X20650829Y-24929820D01*
X20686944Y-24858075D01*
X20708614Y-24779802D01*
X20713423Y-24723336D01*
X20788068Y-24723336D01*
X20793694Y-24795845D01*
X20810571Y-24864465D01*
X20838699Y-24929195D01*
X20878079Y-24990036D01*
X20927947Y-25042265D01*
X20990871Y-25083381D01*
X21064214Y-25110051D01*
X21145335Y-25118941D01*
X21226595Y-25110190D01*
X21300354Y-25083937D01*
X21363973Y-25043515D01*
X21414813Y-24992259D01*
X21454679Y-24930584D01*
X21483155Y-24865576D01*
X21500240Y-24797234D01*
X21505936Y-24725559D01*
X21505936Y-24389961D01*
X21503628Y-24369959D01*
X21567054Y-24369959D01*
X21572611Y-24416631D01*
X21594836Y-24442746D01*
X21647064Y-24451080D01*
X21860424Y-24451080D01*
X21860424Y-25008927D01*
X21862091Y-25047266D01*
X21872092Y-25076158D01*
X21900985Y-25098939D01*
X21955992Y-25105606D01*
X22011554Y-25098939D01*
X22041002Y-25076158D01*
X22051004Y-25047821D01*
X22052671Y-25010039D01*
X22052671Y-24451080D01*
X22264919Y-24451080D01*
X22321593Y-24441079D01*
X22340484Y-24417187D01*
X22346041Y-24371070D01*
X22340484Y-24324397D01*
X22318259Y-24298283D01*
X22266031Y-24289949D01*
X21648176Y-24289949D01*
X21591502Y-24299950D01*
X21572611Y-24323842D01*
X21567054Y-24369959D01*
X21503628Y-24369959D01*
X21499268Y-24332176D01*
X21484822Y-24308840D01*
X21455929Y-24295505D01*
X21405367Y-24289949D01*
X21352583Y-24296616D01*
X21320357Y-24321064D01*
X21309244Y-24382182D01*
X21309244Y-24722225D01*
X21299243Y-24796401D01*
X21269239Y-24861131D01*
X21218955Y-24906137D01*
X21148113Y-24921139D01*
X21069214Y-24902248D01*
X21019208Y-24852241D01*
X20994205Y-24789456D01*
X20985871Y-24723336D01*
X20985871Y-24389961D01*
X20972536Y-24319952D01*
X20943643Y-24296616D01*
X20886969Y-24289949D01*
X20830296Y-24296616D01*
X20800292Y-24319952D01*
X20789735Y-24349401D01*
X20788068Y-24388850D01*
X20788068Y-24723336D01*
X20713423Y-24723336D01*
X20715837Y-24694999D01*
X20708266Y-24610510D01*
X20685555Y-24533174D01*
X20647703Y-24462991D01*
X20594711Y-24399962D01*
X20531439Y-24347942D01*
X20462750Y-24310785D01*
X20388643Y-24288490D01*
X20309119Y-24281059D01*
X20233554Y-24288837D01*
X20160212Y-24312174D01*
X20092148Y-24349123D01*
X20032418Y-24397740D01*
X19982412Y-24458720D01*
X19943518Y-24532757D01*
X19918515Y-24616240D01*
X19910181Y-24705556D01*
X19712140Y-24705556D01*
X19849062Y-24427744D01*
X19865731Y-24374404D01*
X19849340Y-24337177D01*
X19800167Y-24303284D01*
X19734603Y-24284392D01*
X19685708Y-24314396D01*
X19670151Y-24347734D01*
X19447901Y-24834461D01*
X19435816Y-24808764D01*
X19408451Y-24749451D01*
X19372336Y-24670969D01*
X19333997Y-24587764D01*
X19295798Y-24504559D01*
X19260099Y-24426077D01*
X19232179Y-24364958D01*
X19217316Y-24333843D01*
X19198981Y-24304395D01*
X19180089Y-24288837D01*
X19150641Y-24284392D01*
X19094523Y-24303284D01*
X19045350Y-24337177D01*
X19028959Y-24374404D01*
X18466593Y-24374404D01*
X18488036Y-24338628D01*
X18526061Y-24287358D01*
X18568928Y-24240061D01*
X18616225Y-24197194D01*
X18667495Y-24159169D01*
X18722246Y-24126353D01*
X18779950Y-24099061D01*
X18840051Y-24077557D01*
X18901970Y-24062047D01*
X18965111Y-24052680D01*
X19028867Y-24049548D01*
X19028959Y-24049548D01*
X22346041Y-24049548D01*
X22346133Y-24049548D01*
X22409889Y-24052680D01*
X22473030Y-24062047D01*
X22534949Y-24077557D01*
X22595050Y-24099061D01*
X22652754Y-24126353D01*
X22707505Y-24159169D01*
X22758775Y-24197194D01*
X22806072Y-24240061D01*
X22848939Y-24287358D01*
X22886964Y-24338628D01*
X22919780Y-24393379D01*
X22947072Y-24451083D01*
X22968577Y-24511184D01*
X22984087Y-24573103D01*
X22993453Y-24636245D01*
X22996585Y-24700000D01*
X22993453Y-24763755D01*
X22984087Y-24826897D01*
X22968577Y-24888816D01*
X22947072Y-24948917D01*
X22919780Y-25006621D01*
X22886964Y-25061372D01*
X22848939Y-25112642D01*
X22806072Y-25159939D01*
X22758775Y-25202806D01*
X22707505Y-25240831D01*
X22652754Y-25273647D01*
X22595050Y-25300939D01*
X22534949Y-25322443D01*
X22473030Y-25337953D01*
X22409889Y-25347320D01*
X22346133Y-25350452D01*
X22346041Y-25350452D01*
X21955992Y-25350452D01*
X21145335Y-25350452D01*
G37*
G04 #@! TO.C,C33*
X27328080Y-18960000D02*
X27046920Y-18960000D01*
X27328080Y-17940000D02*
X27046920Y-17940000D01*
D11*
G04 #@! TO.C,U2*
X28612500Y-24325000D02*
X28612500Y-24200000D01*
X28612500Y-24325000D02*
X25362500Y-24325000D01*
X28612500Y-24200000D02*
X29687500Y-24200000D01*
X28612500Y-21075000D02*
X28612500Y-21300000D01*
X28612500Y-21075000D02*
X25362500Y-21075000D01*
X25362500Y-24325000D02*
X25362500Y-24100000D01*
X25362500Y-21075000D02*
X25362500Y-21300000D01*
G04 #@! TO.C,kibuzzard-64946977*
G36*
X2688094Y-18124506D02*
G01*
X2752387Y-18167766D01*
X2773819Y-18214994D01*
X2751594Y-18294369D01*
X2242006Y-19353231D01*
X2222162Y-19392919D01*
X2198350Y-19417525D01*
X2154694Y-19429431D01*
X2075319Y-19405619D01*
X2004675Y-19363550D01*
X1986419Y-19323069D01*
X2005469Y-19243694D01*
X2516644Y-18175306D01*
X2570619Y-18105456D01*
X2607925Y-18099106D01*
X2688094Y-18124506D01*
G37*
G36*
X10681156Y-18124506D02*
G01*
X10745450Y-18167766D01*
X10766881Y-18214994D01*
X10744656Y-18294369D01*
X10235069Y-19353231D01*
X10215225Y-19392919D01*
X10191412Y-19417525D01*
X10147756Y-19429431D01*
X10068381Y-19405619D01*
X9997737Y-19363550D01*
X9979481Y-19323069D01*
X9998531Y-19243694D01*
X10509706Y-18175306D01*
X10563681Y-18105456D01*
X10600987Y-18099106D01*
X10681156Y-18124506D01*
G37*
G36*
X5266194Y-18499950D02*
G01*
X5321756Y-18513444D01*
X5371762Y-18545987D01*
X5391606Y-18619806D01*
X5361444Y-18730931D01*
X5274131Y-18791256D01*
X5219362Y-18778556D01*
X5150306Y-18765856D01*
X5070137Y-18796019D01*
X5032831Y-18869044D01*
X5032831Y-19202419D01*
X5030450Y-19257187D01*
X5015369Y-19299256D01*
X4972506Y-19330213D01*
X4891544Y-19340531D01*
X4782006Y-19313544D01*
X4753431Y-19245281D01*
X4753431Y-19199244D01*
X4753431Y-18642031D01*
X4755812Y-18587262D01*
X4769306Y-18546781D01*
X4811375Y-18514634D01*
X4893131Y-18503919D01*
X4970522Y-18513047D01*
X5012194Y-18540431D01*
X5029656Y-18592819D01*
X5052675Y-18565831D01*
X5116969Y-18522969D01*
X5203487Y-18495981D01*
X5266194Y-18499950D01*
G37*
G36*
X8869819Y-18511062D02*
G01*
X8953956Y-18543606D01*
X8979356Y-18559481D01*
X9023806Y-18589644D01*
X9065081Y-18661875D01*
X9031744Y-18753156D01*
X8975784Y-18818641D01*
X8922206Y-18840469D01*
X8836481Y-18805544D01*
X8754725Y-18778556D01*
X8655506Y-18816656D01*
X8609469Y-18922225D01*
X8653919Y-19027000D01*
X8748375Y-19064306D01*
X8842037Y-19034937D01*
X8912681Y-19005569D01*
X8965466Y-19026603D01*
X9028569Y-19089706D01*
X9065081Y-19172256D01*
X9043253Y-19230597D01*
X8977769Y-19284969D01*
X8876962Y-19332594D01*
X8755519Y-19348469D01*
X8658328Y-19336651D01*
X8563608Y-19301197D01*
X8471356Y-19242106D01*
X8412222Y-19182773D01*
X8364994Y-19106375D01*
X8334037Y-19017078D01*
X8323719Y-18919050D01*
X8334037Y-18821419D01*
X8364994Y-18733313D01*
X8412222Y-18658105D01*
X8471356Y-18599169D01*
X8561138Y-18540960D01*
X8654801Y-18506035D01*
X8752344Y-18494394D01*
X8869819Y-18511062D01*
G37*
G36*
X9415919Y-18137206D02*
G01*
X9444494Y-18207056D01*
X9446081Y-18251506D01*
X9446081Y-18754744D01*
X9532600Y-18673781D01*
X9619119Y-18592819D01*
X9638169Y-18580119D01*
X9733419Y-18537256D01*
X9824700Y-18601550D01*
X9876294Y-18702356D01*
X9817556Y-18788081D01*
X9660394Y-18921431D01*
X9871531Y-19096056D01*
X9921537Y-19146856D01*
X9931856Y-19180194D01*
X9882644Y-19283381D01*
X9787394Y-19350056D01*
X9690556Y-19304019D01*
X9674681Y-19292906D01*
X9628247Y-19251433D01*
X9561969Y-19187338D01*
X9494897Y-19122845D01*
X9446081Y-19080181D01*
X9446081Y-19202419D01*
X9443700Y-19257187D01*
X9428619Y-19299256D01*
X9387741Y-19330213D01*
X9306381Y-19340531D01*
X9225816Y-19329816D01*
X9184144Y-19297669D01*
X9170650Y-19255600D01*
X9168269Y-19200831D01*
X9168269Y-18249919D01*
X9170650Y-18195150D01*
X9184144Y-18153081D01*
X9226212Y-18120934D01*
X9307969Y-18110219D01*
X9415919Y-18137206D01*
G37*
G36*
X4110494Y-19341920D02*
G01*
X4010481Y-19303225D01*
X3919795Y-19239328D01*
X3844587Y-19150825D01*
X3793986Y-19043470D01*
X3777119Y-18923019D01*
X3777414Y-18920638D01*
X4058106Y-18920638D01*
X4070806Y-18988106D01*
X4108906Y-19036525D01*
X4212094Y-19075419D01*
X4316869Y-19035731D01*
X4356159Y-18986519D01*
X4369256Y-18918256D01*
X4356953Y-18850391D01*
X4320044Y-18802369D01*
X4213681Y-18764269D01*
X4107319Y-18803956D01*
X4070409Y-18852970D01*
X4058106Y-18920638D01*
X3777414Y-18920638D01*
X3791935Y-18803427D01*
X3836385Y-18698652D01*
X3910469Y-18608694D01*
X4003602Y-18539902D01*
X4105202Y-18498627D01*
X4215269Y-18484869D01*
X4325159Y-18498539D01*
X4426230Y-18539549D01*
X4518481Y-18607900D01*
X4591683Y-18697417D01*
X4635603Y-18801928D01*
X4650244Y-18921431D01*
X4633178Y-19045852D01*
X4581981Y-19155588D01*
X4506377Y-19244488D01*
X4416087Y-19306400D01*
X4316670Y-19342714D01*
X4213681Y-19354819D01*
X4212094Y-19354620D01*
X4110494Y-19341920D01*
G37*
G36*
X6043981Y-18517413D02*
G01*
X6132087Y-18557894D01*
X6208375Y-18625362D01*
X6267024Y-18712234D01*
X6302214Y-18810924D01*
X6313944Y-18921431D01*
X6313944Y-19200831D01*
X6311562Y-19255600D01*
X6298069Y-19296081D01*
X6256000Y-19328228D01*
X6174244Y-19338944D01*
X6085344Y-19324259D01*
X6044069Y-19280206D01*
X6034544Y-19199244D01*
X6034544Y-18919844D01*
X5997237Y-18818244D01*
X5897225Y-18781731D01*
X5795625Y-18819831D01*
X5756731Y-18919844D01*
X5756731Y-19200831D01*
X5754350Y-19255600D01*
X5739269Y-19296081D01*
X5698391Y-19328228D01*
X5617031Y-19338944D01*
X5536466Y-19328228D01*
X5494794Y-19296081D01*
X5481300Y-19254013D01*
X5478919Y-19199244D01*
X5478919Y-18637269D01*
X5481300Y-18584087D01*
X5496381Y-18543606D01*
X5538053Y-18513841D01*
X5618619Y-18503919D01*
X5696803Y-18513047D01*
X5737681Y-18540431D01*
X5753556Y-18605519D01*
X5782131Y-18573769D01*
X5824994Y-18540431D01*
X5944056Y-18503919D01*
X6043981Y-18517413D01*
G37*
G36*
X6660812Y-18124109D02*
G01*
X6701294Y-18156256D01*
X6716375Y-18198325D01*
X6718756Y-18253094D01*
X6718756Y-18603931D01*
X6804878Y-18531303D01*
X6904494Y-18507094D01*
X7004418Y-18520499D01*
X7092524Y-18560716D01*
X7168812Y-18627744D01*
X7227462Y-18714174D01*
X7262651Y-18812599D01*
X7274381Y-18923019D01*
X7274381Y-19202419D01*
X7272000Y-19257187D01*
X7256919Y-19299256D01*
X7216041Y-19330213D01*
X7134681Y-19340531D01*
X7056100Y-19330213D01*
X7014031Y-19299256D01*
X6998950Y-19256394D01*
X6996569Y-19199244D01*
X6996569Y-18921431D01*
X6960056Y-18819831D01*
X6867187Y-18783319D01*
X6767969Y-18817450D01*
X6718756Y-18894444D01*
X6718756Y-19202419D01*
X6716375Y-19257187D01*
X6701294Y-19299256D01*
X6660416Y-19330213D01*
X6579056Y-19340531D01*
X6498491Y-19329816D01*
X6456819Y-19297669D01*
X6443325Y-19256394D01*
X6440944Y-19200831D01*
X6440944Y-18251506D01*
X6443325Y-18196737D01*
X6456819Y-18156256D01*
X6498887Y-18124109D01*
X6580644Y-18113394D01*
X6660812Y-18124109D01*
G37*
G36*
X7749837Y-19337356D02*
G01*
X7660497Y-19323422D01*
X7575565Y-19281617D01*
X7495044Y-19211944D01*
X7429780Y-19123838D01*
X7390622Y-19026735D01*
X7377862Y-18923019D01*
X7655381Y-18923019D01*
X7696656Y-19017475D01*
X7796669Y-19059544D01*
X7894300Y-19016681D01*
X7933194Y-18922225D01*
X7895887Y-18826181D01*
X7795875Y-18781731D01*
X7694275Y-18826181D01*
X7655381Y-18923019D01*
X7377862Y-18923019D01*
X7377569Y-18920638D01*
X7390710Y-18814628D01*
X7430133Y-18717790D01*
X7495837Y-18630125D01*
X7577241Y-18560892D01*
X7663760Y-18519353D01*
X7755394Y-18505506D01*
X7853819Y-18524556D01*
X7915731Y-18560275D01*
X7944306Y-18592819D01*
X7980422Y-18526144D01*
X8069719Y-18503919D01*
X8161794Y-18513444D01*
X8203862Y-18546781D01*
X8218150Y-18588850D01*
X8220531Y-18643619D01*
X8220531Y-19199244D01*
X8218150Y-19254013D01*
X8204656Y-19296081D01*
X8166358Y-19327037D01*
X8095912Y-19337356D01*
X7980025Y-19315925D01*
X7945894Y-19253219D01*
X7867511Y-19316322D01*
X7796669Y-19328985D01*
X7749837Y-19337356D01*
G37*
G36*
X12142450Y-19337356D02*
G01*
X12053109Y-19323422D01*
X11968178Y-19281617D01*
X11887656Y-19211944D01*
X11822392Y-19123838D01*
X11783234Y-19026735D01*
X11770474Y-18923019D01*
X12047994Y-18923019D01*
X12089269Y-19017475D01*
X12189281Y-19059544D01*
X12286912Y-19016681D01*
X12325806Y-18922225D01*
X12288500Y-18826181D01*
X12188487Y-18781731D01*
X12086887Y-18826181D01*
X12047994Y-18923019D01*
X11770474Y-18923019D01*
X11770181Y-18920638D01*
X11783322Y-18814628D01*
X11822745Y-18717790D01*
X11888450Y-18630125D01*
X11969853Y-18560892D01*
X12056372Y-18519353D01*
X12148006Y-18505506D01*
X12246431Y-18524556D01*
X12308344Y-18560275D01*
X12336919Y-18592819D01*
X12373034Y-18526144D01*
X12462331Y-18503919D01*
X12554406Y-18513444D01*
X12596475Y-18546781D01*
X12610762Y-18588850D01*
X12613144Y-18643619D01*
X12613144Y-19199244D01*
X12610762Y-19254013D01*
X12597269Y-19296081D01*
X12558970Y-19327037D01*
X12488525Y-19337356D01*
X12372637Y-19315925D01*
X12338506Y-19253219D01*
X12260123Y-19316322D01*
X12189281Y-19328985D01*
X12142450Y-19337356D01*
G37*
G36*
X3212366Y-19318306D02*
G01*
X3135769Y-19261156D01*
X3095287Y-19319497D01*
X2999244Y-19338944D01*
X2918678Y-19328228D01*
X2877006Y-19296081D01*
X2863512Y-19254013D01*
X2861131Y-19199244D01*
X2861131Y-18923812D01*
X3142119Y-18923812D01*
X3181012Y-19018269D01*
X3278644Y-19061131D01*
X3378656Y-19018269D01*
X3419931Y-18923019D01*
X3381831Y-18826975D01*
X3280231Y-18783319D01*
X3179425Y-18827769D01*
X3142119Y-18923812D01*
X2861131Y-18923812D01*
X2861131Y-18251506D01*
X2863512Y-18196737D01*
X2877006Y-18156256D01*
X2919075Y-18124109D01*
X3000831Y-18113394D01*
X3081000Y-18124109D01*
X3121481Y-18156256D01*
X3136562Y-18198325D01*
X3138944Y-18253094D01*
X3138944Y-18583294D01*
X3215937Y-18524953D01*
X3319919Y-18505506D01*
X3411553Y-18519441D01*
X3498072Y-18561245D01*
X3579475Y-18630919D01*
X3645180Y-18719025D01*
X3684603Y-18816127D01*
X3697744Y-18922225D01*
X3684691Y-19028235D01*
X3645533Y-19125072D01*
X3580269Y-19212738D01*
X3500012Y-19281970D01*
X3415874Y-19323510D01*
X3327856Y-19337356D01*
X3278644Y-19329239D01*
X3212366Y-19318306D01*
G37*
G36*
X11205428Y-19318306D02*
G01*
X11128831Y-19261156D01*
X11088350Y-19319497D01*
X10992306Y-19338944D01*
X10911741Y-19328228D01*
X10870069Y-19296081D01*
X10856575Y-19254013D01*
X10854194Y-19199244D01*
X10854194Y-18923812D01*
X11135181Y-18923812D01*
X11174075Y-19018269D01*
X11271706Y-19061131D01*
X11371719Y-19018269D01*
X11412994Y-18923019D01*
X11374894Y-18826975D01*
X11273294Y-18783319D01*
X11172487Y-18827769D01*
X11135181Y-18923812D01*
X10854194Y-18923812D01*
X10854194Y-18251506D01*
X10856575Y-18196737D01*
X10870069Y-18156256D01*
X10912137Y-18124109D01*
X10993894Y-18113394D01*
X11074062Y-18124109D01*
X11114544Y-18156256D01*
X11129625Y-18198325D01*
X11132006Y-18253094D01*
X11132006Y-18583294D01*
X11209000Y-18524953D01*
X11312981Y-18505506D01*
X11404615Y-18519441D01*
X11491134Y-18561245D01*
X11572537Y-18630919D01*
X11638242Y-18719025D01*
X11677665Y-18816127D01*
X11690806Y-18922225D01*
X11677753Y-19028235D01*
X11638595Y-19125072D01*
X11573331Y-19212738D01*
X11493074Y-19281970D01*
X11408937Y-19323510D01*
X11320919Y-19337356D01*
X11271706Y-19329239D01*
X11205428Y-19318306D01*
G37*
G36*
X13102094Y-19337356D02*
G01*
X13009666Y-19323510D01*
X12922883Y-19281970D01*
X12841744Y-19212738D01*
X12776480Y-19125072D01*
X12737322Y-19028235D01*
X12724367Y-18923019D01*
X13002081Y-18923019D01*
X13043356Y-19018269D01*
X13143369Y-19061131D01*
X13241000Y-19018269D01*
X13279894Y-18923812D01*
X13242587Y-18827769D01*
X13141781Y-18783319D01*
X13040181Y-18826975D01*
X13002081Y-18923019D01*
X12724367Y-18923019D01*
X12724269Y-18922225D01*
X12737410Y-18816127D01*
X12776833Y-18719025D01*
X12842537Y-18630919D01*
X12923941Y-18561245D01*
X13010460Y-18519441D01*
X13102094Y-18505506D01*
X13206472Y-18525350D01*
X13284656Y-18584881D01*
X13284656Y-18251506D01*
X13287037Y-18196737D01*
X13301325Y-18155462D01*
X13343394Y-18122919D01*
X13423562Y-18113394D01*
X13503731Y-18122919D01*
X13545800Y-18156256D01*
X13560087Y-18198325D01*
X13562469Y-18253094D01*
X13562469Y-19200831D01*
X13560087Y-19255600D01*
X13545006Y-19296081D01*
X13499564Y-19328228D01*
X13410862Y-19338944D01*
X13324939Y-19319497D01*
X13287831Y-19261156D01*
X13208059Y-19318306D01*
X13143369Y-19329936D01*
X13102094Y-19337356D01*
G37*
G36*
X14892794Y-19013506D02*
G01*
X14945181Y-19088119D01*
X15049956Y-19118281D01*
X15132109Y-19113519D01*
X15194419Y-19099231D01*
X15211881Y-19092881D01*
X15275381Y-19075419D01*
X15362694Y-19146856D01*
X15383331Y-19219881D01*
X15362198Y-19281695D01*
X15298797Y-19325847D01*
X15193129Y-19352338D01*
X15045194Y-19361169D01*
X14934267Y-19351048D01*
X14836437Y-19320688D01*
X14755277Y-19273658D01*
X14694356Y-19213531D01*
X14638794Y-19124455D01*
X14605456Y-19028676D01*
X14594344Y-18926194D01*
X14600946Y-18869044D01*
X14889619Y-18869044D01*
X15089644Y-18869044D01*
X15149969Y-18818244D01*
X15122187Y-18759506D01*
X15042812Y-18737281D01*
X14940419Y-18779350D01*
X14889619Y-18869044D01*
X14600946Y-18869044D01*
X14608719Y-18801751D01*
X14651847Y-18695124D01*
X14723725Y-18606312D01*
X14817123Y-18539726D01*
X14924808Y-18499774D01*
X15046781Y-18486456D01*
X15149770Y-18496180D01*
X15238075Y-18525350D01*
X15311695Y-18573967D01*
X15370631Y-18642031D01*
X15411112Y-18728352D01*
X15424606Y-18822213D01*
X15412502Y-18907144D01*
X15376187Y-18966675D01*
X15269031Y-19013506D01*
X15089644Y-19013506D01*
X14892794Y-19013506D01*
G37*
G36*
X14027606Y-19315131D02*
G01*
X13941617Y-19301637D01*
X13859331Y-19261156D01*
X13780750Y-19193688D01*
X13716809Y-19108227D01*
X13678444Y-19013771D01*
X13665754Y-18911112D01*
X13937119Y-18911112D01*
X13977600Y-19003981D01*
X14076025Y-19045256D01*
X14172069Y-19003187D01*
X14210169Y-18911112D01*
X14173656Y-18817450D01*
X14075231Y-18773794D01*
X13975219Y-18816656D01*
X13937119Y-18911112D01*
X13665754Y-18911112D01*
X13665656Y-18910319D01*
X13678533Y-18806778D01*
X13717162Y-18712058D01*
X13781544Y-18626156D01*
X13861272Y-18558247D01*
X13945938Y-18517501D01*
X14035544Y-18503919D01*
X14133969Y-18523762D01*
X14195087Y-18560275D01*
X14221281Y-18591231D01*
X14253825Y-18523762D01*
X14343519Y-18500744D01*
X14434006Y-18510269D01*
X14474487Y-18542812D01*
X14488775Y-18583294D01*
X14491156Y-18637269D01*
X14491156Y-19294494D01*
X14477045Y-19408353D01*
X14434712Y-19506513D01*
X14364156Y-19588975D01*
X14275962Y-19651152D01*
X14180712Y-19688458D01*
X14078406Y-19700894D01*
X13960534Y-19686209D01*
X13848219Y-19642156D01*
X13766066Y-19586197D01*
X13738681Y-19535794D01*
X13786306Y-19426256D01*
X13833137Y-19380219D01*
X13872031Y-19367519D01*
X13918069Y-19386569D01*
X13997444Y-19430622D01*
X14083169Y-19445306D01*
X14181594Y-19397681D01*
X14219694Y-19283381D01*
X14219694Y-19235756D01*
X14141509Y-19295287D01*
X14076025Y-19306696D01*
X14027606Y-19315131D01*
G37*
G36*
X16051316Y-18174160D02*
G01*
X16154768Y-18218345D01*
X16242169Y-18291987D01*
X16308315Y-18384503D01*
X16348002Y-18485310D01*
X16361231Y-18594406D01*
X16351309Y-18682512D01*
X16321544Y-18765856D01*
X16277887Y-18838881D01*
X16226294Y-18896031D01*
X16115169Y-18983741D01*
X16016744Y-19037319D01*
X15977056Y-19053194D01*
X15977056Y-19061131D01*
X16267569Y-19061131D01*
X16360437Y-19076213D01*
X16397744Y-19122250D01*
X16407269Y-19203213D01*
X16396950Y-19283381D01*
X16362819Y-19324656D01*
X16264394Y-19343706D01*
X15643681Y-19343706D01*
X15545256Y-19300844D01*
X15503981Y-19200831D01*
X15518864Y-19118480D01*
X15563512Y-19042875D01*
X15629195Y-18975803D01*
X15707181Y-18919050D01*
X15791319Y-18867853D01*
X15875456Y-18817450D01*
X15953442Y-18764070D01*
X16019125Y-18703944D01*
X16063773Y-18638459D01*
X16078656Y-18569006D01*
X16067544Y-18528525D01*
X16042937Y-18485663D01*
X16000869Y-18454706D01*
X15921494Y-18440419D01*
X15833388Y-18477725D01*
X15791319Y-18551544D01*
X15784969Y-18588056D01*
X15784969Y-18597581D01*
X15782588Y-18649969D01*
X15767506Y-18689656D01*
X15724644Y-18718231D01*
X15643681Y-18727756D01*
X15555178Y-18712675D01*
X15511919Y-18667431D01*
X15503981Y-18586469D01*
X15517122Y-18480194D01*
X15556545Y-18381505D01*
X15622250Y-18290400D01*
X15709210Y-18217640D01*
X15812397Y-18173983D01*
X15931812Y-18159431D01*
X16051316Y-18174160D01*
G37*
G36*
X16813470Y-19352239D02*
G01*
X16723975Y-19320688D01*
X16649759Y-19273658D01*
X16593800Y-19216706D01*
X16551136Y-19148841D01*
X16516806Y-19069069D01*
X16491230Y-18973995D01*
X16475884Y-18870808D01*
X16470805Y-18760300D01*
X16751756Y-18760300D01*
X16761777Y-18900248D01*
X16791841Y-19000211D01*
X16841946Y-19060189D01*
X16912094Y-19080181D01*
X16983630Y-19060734D01*
X17034728Y-19002394D01*
X17065387Y-18905159D01*
X17075606Y-18769031D01*
X17075606Y-18759506D01*
X17065486Y-18619905D01*
X17035125Y-18520191D01*
X16984523Y-18460362D01*
X16913681Y-18440419D01*
X16842839Y-18460411D01*
X16792237Y-18520389D01*
X16761877Y-18620352D01*
X16751756Y-18760300D01*
X16470805Y-18760300D01*
X16470769Y-18759506D01*
X16474914Y-18658788D01*
X16487349Y-18568301D01*
X16508075Y-18488044D01*
X16547564Y-18387436D01*
X16591419Y-18311037D01*
X16646783Y-18251903D01*
X16720800Y-18203087D01*
X16810692Y-18170345D01*
X16913681Y-18159431D01*
X17016273Y-18170147D01*
X17104975Y-18202294D01*
X17178000Y-18250316D01*
X17233562Y-18308656D01*
X17275830Y-18377712D01*
X17308969Y-18457881D01*
X17335427Y-18555072D01*
X17351302Y-18656142D01*
X17356594Y-18761094D01*
X17348855Y-18897321D01*
X17325637Y-19018666D01*
X17286942Y-19125127D01*
X17232769Y-19216706D01*
X17177802Y-19274650D01*
X17104975Y-19321481D01*
X17016670Y-19352438D01*
X16915269Y-19362756D01*
X16912094Y-19362428D01*
X16813470Y-19352239D01*
G37*
G36*
X17983303Y-18174160D02*
G01*
X18086756Y-18218345D01*
X18174156Y-18291987D01*
X18240302Y-18384503D01*
X18279990Y-18485310D01*
X18293219Y-18594406D01*
X18283297Y-18682512D01*
X18253531Y-18765856D01*
X18209875Y-18838881D01*
X18158281Y-18896031D01*
X18047156Y-18983741D01*
X17948731Y-19037319D01*
X17909044Y-19053194D01*
X17909044Y-19061131D01*
X18199556Y-19061131D01*
X18292425Y-19076213D01*
X18329731Y-19122250D01*
X18339256Y-19203213D01*
X18328937Y-19283381D01*
X18294806Y-19324656D01*
X18196381Y-19343706D01*
X17575669Y-19343706D01*
X17477244Y-19300844D01*
X17435969Y-19200831D01*
X17450852Y-19118480D01*
X17495500Y-19042875D01*
X17561183Y-18975803D01*
X17639169Y-18919050D01*
X17723306Y-18867853D01*
X17807444Y-18817450D01*
X17885430Y-18764070D01*
X17951112Y-18703944D01*
X17995761Y-18638459D01*
X18010644Y-18569006D01*
X17999531Y-18528525D01*
X17974925Y-18485663D01*
X17932856Y-18454706D01*
X17853481Y-18440419D01*
X17765375Y-18477725D01*
X17723306Y-18551544D01*
X17716956Y-18588056D01*
X17716956Y-18597581D01*
X17714575Y-18649969D01*
X17699494Y-18689656D01*
X17656631Y-18718231D01*
X17575669Y-18727756D01*
X17487166Y-18712675D01*
X17443906Y-18667431D01*
X17435969Y-18586469D01*
X17449110Y-18480194D01*
X17488533Y-18381505D01*
X17554237Y-18290400D01*
X17641197Y-18217640D01*
X17744385Y-18173983D01*
X17863800Y-18159431D01*
X17983303Y-18174160D01*
G37*
G36*
X18963497Y-18171778D02*
G01*
X19066155Y-18208820D01*
X19150469Y-18270556D01*
X19213087Y-18347726D01*
X19250658Y-18431070D01*
X19263181Y-18520587D01*
X19249423Y-18604637D01*
X19208148Y-18671576D01*
X19139356Y-18721406D01*
X19139356Y-18732519D01*
X19186188Y-18766650D01*
X19236194Y-18818244D01*
X19275484Y-18889681D01*
X19288581Y-18970644D01*
X19274470Y-19077271D01*
X19232137Y-19170669D01*
X19161581Y-19250837D01*
X19069683Y-19312133D01*
X18963320Y-19348910D01*
X18842494Y-19361169D01*
X18722549Y-19348822D01*
X18616716Y-19311780D01*
X18524994Y-19250044D01*
X18480147Y-19200434D01*
X18440856Y-19137331D01*
X18423394Y-19096056D01*
X18420219Y-19080181D01*
X18402756Y-18994456D01*
X18441650Y-18925400D01*
X18558331Y-18902381D01*
X18642469Y-18918256D01*
X18690094Y-19000806D01*
X18777406Y-19077006D01*
X18844081Y-19086531D01*
X18917106Y-19077998D01*
X18967906Y-19052400D01*
X19007594Y-18975406D01*
X18968700Y-18900000D01*
X18876625Y-18867456D01*
X18804394Y-18864281D01*
X18763119Y-18848406D01*
X18730972Y-18807528D01*
X18720256Y-18726169D01*
X18734941Y-18637666D01*
X18778994Y-18594406D01*
X18861544Y-18586469D01*
X18952031Y-18570991D01*
X18982194Y-18524556D01*
X18950444Y-18461056D01*
X18862338Y-18430894D01*
X18772644Y-18449944D01*
X18731369Y-18488044D01*
X18721844Y-18507094D01*
X18677394Y-18566625D01*
X18617069Y-18586469D01*
X18529756Y-18557894D01*
X18470225Y-18508284D01*
X18450381Y-18451531D01*
X18486894Y-18343581D01*
X18521819Y-18293575D01*
X18587700Y-18230869D01*
X18692475Y-18181656D01*
X18763714Y-18164987D01*
X18842494Y-18159431D01*
X18963497Y-18171778D01*
G37*
G04 #@! TD*
%LPC*%
D12*
G04 #@! TO.C,TP2*
X33087500Y-22700000D03*
G04 #@! TD*
D13*
G04 #@! TO.C,J3*
X48587500Y-20500000D03*
X48587500Y-19500000D03*
X48587500Y-18500000D03*
X48587500Y-17500000D03*
D14*
X52462500Y-21800000D03*
X52462500Y-16200000D03*
G04 #@! TD*
D12*
G04 #@! TO.C,TP1*
X20687500Y-22700000D03*
G04 #@! TD*
D15*
G04 #@! TO.C,C33*
X27962500Y-18450000D03*
X26412500Y-18450000D03*
G04 #@! TD*
D16*
G04 #@! TO.C,U2*
X29137500Y-23675000D03*
X29137500Y-23025000D03*
X29137500Y-22375000D03*
X29137500Y-21725000D03*
X24837500Y-21725000D03*
X24837500Y-22375000D03*
X24837500Y-23025000D03*
X24837500Y-23675000D03*
G04 #@! TD*
M02*
