M48
; DRILL file {KiCad 7.0.1-0} date 2023 May 11, Thursday 23:17:30
; FORMAT={-:-/ absolute / inch / decimal}
; #@! TF.CreationDate,2023-05-11T23:17:30+02:00
; #@! TF.GenerationSoftware,Kicad,Pcbnew,7.0.1-0
; #@! TF.FileFunction,Plated,1,2,PTH
FMAT,2
INCH
; #@! TA.AperFunction,Plated,PTH,ViaDrill
T1C0.0118
; #@! TA.AperFunction,Plated,PTH,ViaDrill
T2C0.0157
; #@! TA.AperFunction,Plated,PTH,ViaDrill
T3C0.0236
; #@! TA.AperFunction,Plated,PTH,ComponentDrill
T4C0.0236
%
G90
G05
T1
X0.0389Y-1.9213
X0.0782Y-1.9213
X0.1176Y-1.9213
X0.157Y-1.9213
X0.1964Y-1.9213
X0.2357Y-1.9213
X0.2751Y-1.9213
X0.3145Y-1.9213
X0.3538Y-1.9213
X0.3558Y-0.438
X0.3814Y-0.5659
X0.3932Y-1.9213
X0.4326Y-1.9213
X0.4719Y-1.9213
X0.5113Y-1.9213
X0.5507Y-1.9213
X0.5901Y-1.9213
X0.6294Y-1.9213
X0.6688Y-1.9213
X0.7082Y-1.9213
X0.7475Y-1.9213
X0.7554Y-1.8228
X0.7731Y-1.2638
X0.7869Y-1.9213
X0.8105Y-1.3031
X0.8263Y-1.9213
X0.8558Y-0.8317
X0.8608Y-1.315
X0.8617Y-1.2539
X0.8656Y-1.9213
X0.8658Y-1.3721
X0.8745Y-1.5128
X0.8834Y-1.437
X0.8844Y-1.4092
X0.8853Y-0.6959
X0.9031Y-1.4587
X0.905Y-1.9213
X0.907Y-1.1122
X0.9326Y-1.4902
X0.9444Y-1.9213
X0.9759Y-0.9956
X0.9877Y-1.5709
X0.9936Y-1.5197
X1.0015Y-0.9941
X1.0113Y-0.8297
X1.033Y-1.0394
X1.033Y-1.5157
X1.0349Y-1.622
X1.0468Y-0.7313
X1.0561Y-1.0057
X1.0625Y-1.6949
X1.0625Y-1.7618
X1.0803Y-1.0139
X1.092Y-1.622
X1.0979Y-1.5354
X1.1038Y-1.2028
X1.1079Y-1.003
X1.1255Y-1.5512
X1.1373Y-1.0059
X1.1481Y-1.5187
X1.1629Y-1.0335
X1.1727Y-0.7313
X1.1786Y-1.5217
X1.1806Y-0.8219
X1.1806Y-1.9213
X1.1924Y-1.5591
X1.218Y-1.4291
X1.22Y-1.9213
X1.2397Y-1.3169
X1.2397Y-1.3504
X1.2456Y-0.9646
X1.2594Y-1.9213
X1.2771Y-1.4646
X1.283Y-0.9685
X1.2948Y-0.7933
X1.2987Y-1.9213
X1.3164Y-0.9035
X1.3381Y-1.9213
X1.342Y-0.6171
X1.3676Y-1.8268
X1.3755Y-1.4252
X1.3775Y-1.2835
X1.3775Y-1.9213
X1.4168Y-1.9213
X1.4405Y-0.5207
X1.4562Y-1.9213
X1.4956Y-1.9213
X1.5182Y-0.5276
X1.5349Y-1.9213
X1.5684Y-0.7707
X1.5743Y-1.9213
X1.6137Y-1.9213
X1.6275Y-0.8425
X1.6324Y-0.815
X1.6531Y-1.9213
X1.6924Y-1.9213
X1.7318Y-1.9213
X1.7712Y-1.9213
X1.8105Y-1.9213
X1.8499Y-1.9213
X1.8893Y-1.9213
X1.9286Y-1.9213
X1.968Y-1.9213
X2.0074Y-1.9213
X2.0468Y-1.9213
X2.0861Y-1.9213
T2
X0.4158Y-0.9557
X0.657Y-1.2274
X0.716Y-0.94
X0.7357Y-0.4478
X0.8499Y-0.2943
X0.8971Y-0.5699
X0.9208Y-0.4951
X0.9523Y-0.6722
X0.9583Y-1.0167
X1.0153Y-0.3691
X1.0153Y-0.5344
X1.0271Y-0.6053
X1.1176Y-0.503
X1.1746Y-0.8946
X1.216Y-0.5344
X1.3381Y-0.9715
X1.4916Y-0.7116
X1.6964Y-0.7441
X1.9129Y-0.6093
T3
X0.9995Y-3.1102
X1.0034Y-2.1457
X1.0034Y-3.2283
X1.1216Y-2.2047
X1.1216Y-3.0512
X1.1216Y-3.1693
T4
G00X0.1265Y-0.3368
M15
G01X0.1029Y-0.3368
M16
G05
G00X0.1265Y-0.677
M15
G01X0.1029Y-0.677
M16
G05
G00X0.3009Y-0.3368
M15
G01X0.2576Y-0.3368
M16
G05
G00X0.3009Y-0.677
M15
G01X0.2576Y-0.677
M16
G05
T0
M30
