G04 #@! TF.GenerationSoftware,KiCad,Pcbnew,7.0.1-0*
G04 #@! TF.CreationDate,2023-05-11T23:17:20+02:00*
G04 #@! TF.ProjectId,nfc_reader,6e66635f-7265-4616-9465-722e6b696361,1.0*
G04 #@! TF.SameCoordinates,PX354a940PY3072580*
G04 #@! TF.FileFunction,Legend,Top*
G04 #@! TF.FilePolarity,Positive*
%FSLAX46Y46*%
G04 Gerber Fmt 4.6, Leading zero omitted, Abs format (unit mm)*
G04 Created by KiCad (PCBNEW 7.0.1-0) date 2023-05-11 23:17:20*
%MOMM*%
%LPD*%
G01*
G04 APERTURE LIST*
G04 Aperture macros list*
%AMRoundRect*
0 Rectangle with rounded corners*
0 $1 Rounding radius*
0 $2 $3 $4 $5 $6 $7 $8 $9 X,Y pos of 4 corners*
0 Add a 4 corners polygon primitive as box body*
4,1,4,$2,$3,$4,$5,$6,$7,$8,$9,$2,$3,0*
0 Add four circle primitives for the rounded corners*
1,1,$1+$1,$2,$3*
1,1,$1+$1,$4,$5*
1,1,$1+$1,$6,$7*
1,1,$1+$1,$8,$9*
0 Add four rect primitives between the rounded corners*
20,1,$1+$1,$2,$3,$4,$5,0*
20,1,$1+$1,$4,$5,$6,$7,0*
20,1,$1+$1,$6,$7,$8,$9,0*
20,1,$1+$1,$8,$9,$2,$3,0*%
G04 Aperture macros list end*
%ADD10C,0.150000*%
%ADD11C,0.120000*%
%ADD12RoundRect,0.200000X0.275000X-0.200000X0.275000X0.200000X-0.275000X0.200000X-0.275000X-0.200000X0*%
%ADD13R,1.400000X1.200000*%
%ADD14RoundRect,0.218750X0.218750X0.256250X-0.218750X0.256250X-0.218750X-0.256250X0.218750X-0.256250X0*%
%ADD15RoundRect,0.225000X0.250000X-0.225000X0.250000X0.225000X-0.250000X0.225000X-0.250000X-0.225000X0*%
%ADD16RoundRect,0.225000X0.225000X0.250000X-0.225000X0.250000X-0.225000X-0.250000X0.225000X-0.250000X0*%
%ADD17RoundRect,0.225000X-0.250000X0.225000X-0.250000X-0.225000X0.250000X-0.225000X0.250000X0.225000X0*%
%ADD18RoundRect,0.200000X0.200000X0.275000X-0.200000X0.275000X-0.200000X-0.275000X0.200000X-0.275000X0*%
%ADD19RoundRect,0.250000X0.312500X0.625000X-0.312500X0.625000X-0.312500X-0.625000X0.312500X-0.625000X0*%
%ADD20RoundRect,0.425000X0.425000X-0.425000X0.425000X0.425000X-0.425000X0.425000X-0.425000X-0.425000X0*%
%ADD21RoundRect,0.225000X-0.225000X-0.250000X0.225000X-0.250000X0.225000X0.250000X-0.225000X0.250000X0*%
%ADD22R,1.300000X1.600000*%
%ADD23RoundRect,0.150000X0.625000X-0.150000X0.625000X0.150000X-0.625000X0.150000X-0.625000X-0.150000X0*%
%ADD24RoundRect,0.250000X0.650000X-0.350000X0.650000X0.350000X-0.650000X0.350000X-0.650000X-0.350000X0*%
%ADD25C,0.650000*%
%ADD26R,1.150000X0.300000*%
%ADD27O,2.100000X1.000000*%
%ADD28O,1.600000X1.000000*%
%ADD29RoundRect,0.200000X-0.200000X-0.275000X0.200000X-0.275000X0.200000X0.275000X-0.200000X0.275000X0*%
%ADD30R,1.000000X1.700000*%
%ADD31RoundRect,0.200000X-0.275000X0.200000X-0.275000X-0.200000X0.275000X-0.200000X0.275000X0.200000X0*%
%ADD32RoundRect,0.218750X-0.256250X0.218750X-0.256250X-0.218750X0.256250X-0.218750X0.256250X0.218750X0*%
%ADD33O,0.200000X0.875000*%
%ADD34O,0.875000X0.200000*%
%ADD35R,0.800000X0.800000*%
%ADD36RoundRect,0.150000X-0.150000X0.512500X-0.150000X-0.512500X0.150000X-0.512500X0.150000X0.512500X0*%
%ADD37RoundRect,0.062500X-0.375000X-0.062500X0.375000X-0.062500X0.375000X0.062500X-0.375000X0.062500X0*%
%ADD38RoundRect,0.062500X-0.062500X-0.375000X0.062500X-0.375000X0.062500X0.375000X-0.062500X0.375000X0*%
%ADD39R,4.100000X4.100000*%
%ADD40RoundRect,0.150000X0.150000X-0.650000X0.150000X0.650000X-0.150000X0.650000X-0.150000X-0.650000X0*%
%ADD41RoundRect,0.218750X-0.218750X-0.256250X0.218750X-0.256250X0.218750X0.256250X-0.218750X0.256250X0*%
%ADD42RoundRect,0.250000X-0.312500X-0.625000X0.312500X-0.625000X0.312500X0.625000X-0.312500X0.625000X0*%
G04 APERTURE END LIST*
D10*
X10154166Y-66590952D02*
X10154166Y-67257619D01*
X9916071Y-66210000D02*
X9677976Y-66924285D01*
X9677976Y-66924285D02*
X10297023Y-66924285D01*
X10582738Y-66257619D02*
X11249404Y-66257619D01*
X11249404Y-66257619D02*
X10820833Y-67257619D01*
X11535119Y-67257619D02*
X12058928Y-66590952D01*
X11535119Y-66590952D02*
X12058928Y-67257619D01*
X12344643Y-66257619D02*
X12963690Y-66257619D01*
X12963690Y-66257619D02*
X12630357Y-66638571D01*
X12630357Y-66638571D02*
X12773214Y-66638571D01*
X12773214Y-66638571D02*
X12868452Y-66686190D01*
X12868452Y-66686190D02*
X12916071Y-66733809D01*
X12916071Y-66733809D02*
X12963690Y-66829047D01*
X12963690Y-66829047D02*
X12963690Y-67067142D01*
X12963690Y-67067142D02*
X12916071Y-67162380D01*
X12916071Y-67162380D02*
X12868452Y-67210000D01*
X12868452Y-67210000D02*
X12773214Y-67257619D01*
X12773214Y-67257619D02*
X12487500Y-67257619D01*
X12487500Y-67257619D02*
X12392262Y-67210000D01*
X12392262Y-67210000D02*
X12344643Y-67162380D01*
X13582738Y-66257619D02*
X13677976Y-66257619D01*
X13677976Y-66257619D02*
X13773214Y-66305238D01*
X13773214Y-66305238D02*
X13820833Y-66352857D01*
X13820833Y-66352857D02*
X13868452Y-66448095D01*
X13868452Y-66448095D02*
X13916071Y-66638571D01*
X13916071Y-66638571D02*
X13916071Y-66876666D01*
X13916071Y-66876666D02*
X13868452Y-67067142D01*
X13868452Y-67067142D02*
X13820833Y-67162380D01*
X13820833Y-67162380D02*
X13773214Y-67210000D01*
X13773214Y-67210000D02*
X13677976Y-67257619D01*
X13677976Y-67257619D02*
X13582738Y-67257619D01*
X13582738Y-67257619D02*
X13487500Y-67210000D01*
X13487500Y-67210000D02*
X13439881Y-67162380D01*
X13439881Y-67162380D02*
X13392262Y-67067142D01*
X13392262Y-67067142D02*
X13344643Y-66876666D01*
X13344643Y-66876666D02*
X13344643Y-66638571D01*
X13344643Y-66638571D02*
X13392262Y-66448095D01*
X13392262Y-66448095D02*
X13439881Y-66352857D01*
X13439881Y-66352857D02*
X13487500Y-66305238D01*
X13487500Y-66305238D02*
X13582738Y-66257619D01*
X14344643Y-67257619D02*
X14344643Y-66590952D01*
X14344643Y-66686190D02*
X14392262Y-66638571D01*
X14392262Y-66638571D02*
X14487500Y-66590952D01*
X14487500Y-66590952D02*
X14630357Y-66590952D01*
X14630357Y-66590952D02*
X14725595Y-66638571D01*
X14725595Y-66638571D02*
X14773214Y-66733809D01*
X14773214Y-66733809D02*
X14773214Y-67257619D01*
X14773214Y-66733809D02*
X14820833Y-66638571D01*
X14820833Y-66638571D02*
X14916071Y-66590952D01*
X14916071Y-66590952D02*
X15058928Y-66590952D01*
X15058928Y-66590952D02*
X15154167Y-66638571D01*
X15154167Y-66638571D02*
X15201786Y-66733809D01*
X15201786Y-66733809D02*
X15201786Y-67257619D01*
X15677976Y-67257619D02*
X15677976Y-66590952D01*
X15677976Y-66686190D02*
X15725595Y-66638571D01*
X15725595Y-66638571D02*
X15820833Y-66590952D01*
X15820833Y-66590952D02*
X15963690Y-66590952D01*
X15963690Y-66590952D02*
X16058928Y-66638571D01*
X16058928Y-66638571D02*
X16106547Y-66733809D01*
X16106547Y-66733809D02*
X16106547Y-67257619D01*
X16106547Y-66733809D02*
X16154166Y-66638571D01*
X16154166Y-66638571D02*
X16249404Y-66590952D01*
X16249404Y-66590952D02*
X16392261Y-66590952D01*
X16392261Y-66590952D02*
X16487500Y-66638571D01*
X16487500Y-66638571D02*
X16535119Y-66733809D01*
X16535119Y-66733809D02*
X16535119Y-67257619D01*
X17058928Y-67210000D02*
X17058928Y-67257619D01*
X17058928Y-67257619D02*
X17011309Y-67352857D01*
X17011309Y-67352857D02*
X16963690Y-67400476D01*
X18773213Y-67257619D02*
X18201785Y-67257619D01*
X18487499Y-67257619D02*
X18487499Y-66257619D01*
X18487499Y-66257619D02*
X18392261Y-66400476D01*
X18392261Y-66400476D02*
X18297023Y-66495714D01*
X18297023Y-66495714D02*
X18201785Y-66543333D01*
X19201785Y-67257619D02*
X19201785Y-66590952D01*
X19201785Y-66686190D02*
X19249404Y-66638571D01*
X19249404Y-66638571D02*
X19344642Y-66590952D01*
X19344642Y-66590952D02*
X19487499Y-66590952D01*
X19487499Y-66590952D02*
X19582737Y-66638571D01*
X19582737Y-66638571D02*
X19630356Y-66733809D01*
X19630356Y-66733809D02*
X19630356Y-67257619D01*
X19630356Y-66733809D02*
X19677975Y-66638571D01*
X19677975Y-66638571D02*
X19773213Y-66590952D01*
X19773213Y-66590952D02*
X19916070Y-66590952D01*
X19916070Y-66590952D02*
X20011309Y-66638571D01*
X20011309Y-66638571D02*
X20058928Y-66733809D01*
X20058928Y-66733809D02*
X20058928Y-67257619D01*
X20535118Y-67257619D02*
X20535118Y-66590952D01*
X20535118Y-66686190D02*
X20582737Y-66638571D01*
X20582737Y-66638571D02*
X20677975Y-66590952D01*
X20677975Y-66590952D02*
X20820832Y-66590952D01*
X20820832Y-66590952D02*
X20916070Y-66638571D01*
X20916070Y-66638571D02*
X20963689Y-66733809D01*
X20963689Y-66733809D02*
X20963689Y-67257619D01*
X20963689Y-66733809D02*
X21011308Y-66638571D01*
X21011308Y-66638571D02*
X21106546Y-66590952D01*
X21106546Y-66590952D02*
X21249403Y-66590952D01*
X21249403Y-66590952D02*
X21344642Y-66638571D01*
X21344642Y-66638571D02*
X21392261Y-66733809D01*
X21392261Y-66733809D02*
X21392261Y-67257619D01*
X22487499Y-66590952D02*
X22868451Y-66590952D01*
X22630356Y-66257619D02*
X22630356Y-67114761D01*
X22630356Y-67114761D02*
X22677975Y-67210000D01*
X22677975Y-67210000D02*
X22773213Y-67257619D01*
X22773213Y-67257619D02*
X22868451Y-67257619D01*
X23201785Y-67257619D02*
X23201785Y-66590952D01*
X23201785Y-66781428D02*
X23249404Y-66686190D01*
X23249404Y-66686190D02*
X23297023Y-66638571D01*
X23297023Y-66638571D02*
X23392261Y-66590952D01*
X23392261Y-66590952D02*
X23487499Y-66590952D01*
X24249404Y-67257619D02*
X24249404Y-66733809D01*
X24249404Y-66733809D02*
X24201785Y-66638571D01*
X24201785Y-66638571D02*
X24106547Y-66590952D01*
X24106547Y-66590952D02*
X23916071Y-66590952D01*
X23916071Y-66590952D02*
X23820833Y-66638571D01*
X24249404Y-67210000D02*
X24154166Y-67257619D01*
X24154166Y-67257619D02*
X23916071Y-67257619D01*
X23916071Y-67257619D02*
X23820833Y-67210000D01*
X23820833Y-67210000D02*
X23773214Y-67114761D01*
X23773214Y-67114761D02*
X23773214Y-67019523D01*
X23773214Y-67019523D02*
X23820833Y-66924285D01*
X23820833Y-66924285D02*
X23916071Y-66876666D01*
X23916071Y-66876666D02*
X24154166Y-66876666D01*
X24154166Y-66876666D02*
X24249404Y-66829047D01*
X25154166Y-67210000D02*
X25058928Y-67257619D01*
X25058928Y-67257619D02*
X24868452Y-67257619D01*
X24868452Y-67257619D02*
X24773214Y-67210000D01*
X24773214Y-67210000D02*
X24725595Y-67162380D01*
X24725595Y-67162380D02*
X24677976Y-67067142D01*
X24677976Y-67067142D02*
X24677976Y-66781428D01*
X24677976Y-66781428D02*
X24725595Y-66686190D01*
X24725595Y-66686190D02*
X24773214Y-66638571D01*
X24773214Y-66638571D02*
X24868452Y-66590952D01*
X24868452Y-66590952D02*
X25058928Y-66590952D01*
X25058928Y-66590952D02*
X25154166Y-66638571D01*
X25963690Y-67210000D02*
X25868452Y-67257619D01*
X25868452Y-67257619D02*
X25677976Y-67257619D01*
X25677976Y-67257619D02*
X25582738Y-67210000D01*
X25582738Y-67210000D02*
X25535119Y-67114761D01*
X25535119Y-67114761D02*
X25535119Y-66733809D01*
X25535119Y-66733809D02*
X25582738Y-66638571D01*
X25582738Y-66638571D02*
X25677976Y-66590952D01*
X25677976Y-66590952D02*
X25868452Y-66590952D01*
X25868452Y-66590952D02*
X25963690Y-66638571D01*
X25963690Y-66638571D02*
X26011309Y-66733809D01*
X26011309Y-66733809D02*
X26011309Y-66829047D01*
X26011309Y-66829047D02*
X25535119Y-66924285D01*
X26487500Y-67210000D02*
X26487500Y-67257619D01*
X26487500Y-67257619D02*
X26439881Y-67352857D01*
X26439881Y-67352857D02*
X26392262Y-67400476D01*
X27868452Y-66257619D02*
X27963690Y-66257619D01*
X27963690Y-66257619D02*
X28058928Y-66305238D01*
X28058928Y-66305238D02*
X28106547Y-66352857D01*
X28106547Y-66352857D02*
X28154166Y-66448095D01*
X28154166Y-66448095D02*
X28201785Y-66638571D01*
X28201785Y-66638571D02*
X28201785Y-66876666D01*
X28201785Y-66876666D02*
X28154166Y-67067142D01*
X28154166Y-67067142D02*
X28106547Y-67162380D01*
X28106547Y-67162380D02*
X28058928Y-67210000D01*
X28058928Y-67210000D02*
X27963690Y-67257619D01*
X27963690Y-67257619D02*
X27868452Y-67257619D01*
X27868452Y-67257619D02*
X27773214Y-67210000D01*
X27773214Y-67210000D02*
X27725595Y-67162380D01*
X27725595Y-67162380D02*
X27677976Y-67067142D01*
X27677976Y-67067142D02*
X27630357Y-66876666D01*
X27630357Y-66876666D02*
X27630357Y-66638571D01*
X27630357Y-66638571D02*
X27677976Y-66448095D01*
X27677976Y-66448095D02*
X27725595Y-66352857D01*
X27725595Y-66352857D02*
X27773214Y-66305238D01*
X27773214Y-66305238D02*
X27868452Y-66257619D01*
X28630357Y-67162380D02*
X28677976Y-67210000D01*
X28677976Y-67210000D02*
X28630357Y-67257619D01*
X28630357Y-67257619D02*
X28582738Y-67210000D01*
X28582738Y-67210000D02*
X28630357Y-67162380D01*
X28630357Y-67162380D02*
X28630357Y-67257619D01*
X29582737Y-66257619D02*
X29106547Y-66257619D01*
X29106547Y-66257619D02*
X29058928Y-66733809D01*
X29058928Y-66733809D02*
X29106547Y-66686190D01*
X29106547Y-66686190D02*
X29201785Y-66638571D01*
X29201785Y-66638571D02*
X29439880Y-66638571D01*
X29439880Y-66638571D02*
X29535118Y-66686190D01*
X29535118Y-66686190D02*
X29582737Y-66733809D01*
X29582737Y-66733809D02*
X29630356Y-66829047D01*
X29630356Y-66829047D02*
X29630356Y-67067142D01*
X29630356Y-67067142D02*
X29582737Y-67162380D01*
X29582737Y-67162380D02*
X29535118Y-67210000D01*
X29535118Y-67210000D02*
X29439880Y-67257619D01*
X29439880Y-67257619D02*
X29201785Y-67257619D01*
X29201785Y-67257619D02*
X29106547Y-67210000D01*
X29106547Y-67210000D02*
X29058928Y-67162380D01*
X30058928Y-67257619D02*
X30058928Y-66590952D01*
X30058928Y-66686190D02*
X30106547Y-66638571D01*
X30106547Y-66638571D02*
X30201785Y-66590952D01*
X30201785Y-66590952D02*
X30344642Y-66590952D01*
X30344642Y-66590952D02*
X30439880Y-66638571D01*
X30439880Y-66638571D02*
X30487499Y-66733809D01*
X30487499Y-66733809D02*
X30487499Y-67257619D01*
X30487499Y-66733809D02*
X30535118Y-66638571D01*
X30535118Y-66638571D02*
X30630356Y-66590952D01*
X30630356Y-66590952D02*
X30773213Y-66590952D01*
X30773213Y-66590952D02*
X30868452Y-66638571D01*
X30868452Y-66638571D02*
X30916071Y-66733809D01*
X30916071Y-66733809D02*
X30916071Y-67257619D01*
X31392261Y-67257619D02*
X31392261Y-66590952D01*
X31392261Y-66686190D02*
X31439880Y-66638571D01*
X31439880Y-66638571D02*
X31535118Y-66590952D01*
X31535118Y-66590952D02*
X31677975Y-66590952D01*
X31677975Y-66590952D02*
X31773213Y-66638571D01*
X31773213Y-66638571D02*
X31820832Y-66733809D01*
X31820832Y-66733809D02*
X31820832Y-67257619D01*
X31820832Y-66733809D02*
X31868451Y-66638571D01*
X31868451Y-66638571D02*
X31963689Y-66590952D01*
X31963689Y-66590952D02*
X32106546Y-66590952D01*
X32106546Y-66590952D02*
X32201785Y-66638571D01*
X32201785Y-66638571D02*
X32249404Y-66733809D01*
X32249404Y-66733809D02*
X32249404Y-67257619D01*
X33439880Y-67210000D02*
X33535118Y-67257619D01*
X33535118Y-67257619D02*
X33725594Y-67257619D01*
X33725594Y-67257619D02*
X33820832Y-67210000D01*
X33820832Y-67210000D02*
X33868451Y-67114761D01*
X33868451Y-67114761D02*
X33868451Y-67067142D01*
X33868451Y-67067142D02*
X33820832Y-66971904D01*
X33820832Y-66971904D02*
X33725594Y-66924285D01*
X33725594Y-66924285D02*
X33582737Y-66924285D01*
X33582737Y-66924285D02*
X33487499Y-66876666D01*
X33487499Y-66876666D02*
X33439880Y-66781428D01*
X33439880Y-66781428D02*
X33439880Y-66733809D01*
X33439880Y-66733809D02*
X33487499Y-66638571D01*
X33487499Y-66638571D02*
X33582737Y-66590952D01*
X33582737Y-66590952D02*
X33725594Y-66590952D01*
X33725594Y-66590952D02*
X33820832Y-66638571D01*
X34297023Y-66590952D02*
X34297023Y-67590952D01*
X34297023Y-66638571D02*
X34392261Y-66590952D01*
X34392261Y-66590952D02*
X34582737Y-66590952D01*
X34582737Y-66590952D02*
X34677975Y-66638571D01*
X34677975Y-66638571D02*
X34725594Y-66686190D01*
X34725594Y-66686190D02*
X34773213Y-66781428D01*
X34773213Y-66781428D02*
X34773213Y-67067142D01*
X34773213Y-67067142D02*
X34725594Y-67162380D01*
X34725594Y-67162380D02*
X34677975Y-67210000D01*
X34677975Y-67210000D02*
X34582737Y-67257619D01*
X34582737Y-67257619D02*
X34392261Y-67257619D01*
X34392261Y-67257619D02*
X34297023Y-67210000D01*
X35630356Y-67257619D02*
X35630356Y-66733809D01*
X35630356Y-66733809D02*
X35582737Y-66638571D01*
X35582737Y-66638571D02*
X35487499Y-66590952D01*
X35487499Y-66590952D02*
X35297023Y-66590952D01*
X35297023Y-66590952D02*
X35201785Y-66638571D01*
X35630356Y-67210000D02*
X35535118Y-67257619D01*
X35535118Y-67257619D02*
X35297023Y-67257619D01*
X35297023Y-67257619D02*
X35201785Y-67210000D01*
X35201785Y-67210000D02*
X35154166Y-67114761D01*
X35154166Y-67114761D02*
X35154166Y-67019523D01*
X35154166Y-67019523D02*
X35201785Y-66924285D01*
X35201785Y-66924285D02*
X35297023Y-66876666D01*
X35297023Y-66876666D02*
X35535118Y-66876666D01*
X35535118Y-66876666D02*
X35630356Y-66829047D01*
X36535118Y-67210000D02*
X36439880Y-67257619D01*
X36439880Y-67257619D02*
X36249404Y-67257619D01*
X36249404Y-67257619D02*
X36154166Y-67210000D01*
X36154166Y-67210000D02*
X36106547Y-67162380D01*
X36106547Y-67162380D02*
X36058928Y-67067142D01*
X36058928Y-67067142D02*
X36058928Y-66781428D01*
X36058928Y-66781428D02*
X36106547Y-66686190D01*
X36106547Y-66686190D02*
X36154166Y-66638571D01*
X36154166Y-66638571D02*
X36249404Y-66590952D01*
X36249404Y-66590952D02*
X36439880Y-66590952D01*
X36439880Y-66590952D02*
X36535118Y-66638571D01*
X37344642Y-67210000D02*
X37249404Y-67257619D01*
X37249404Y-67257619D02*
X37058928Y-67257619D01*
X37058928Y-67257619D02*
X36963690Y-67210000D01*
X36963690Y-67210000D02*
X36916071Y-67114761D01*
X36916071Y-67114761D02*
X36916071Y-66733809D01*
X36916071Y-66733809D02*
X36963690Y-66638571D01*
X36963690Y-66638571D02*
X37058928Y-66590952D01*
X37058928Y-66590952D02*
X37249404Y-66590952D01*
X37249404Y-66590952D02*
X37344642Y-66638571D01*
X37344642Y-66638571D02*
X37392261Y-66733809D01*
X37392261Y-66733809D02*
X37392261Y-66829047D01*
X37392261Y-66829047D02*
X36916071Y-66924285D01*
X37868452Y-67210000D02*
X37868452Y-67257619D01*
X37868452Y-67257619D02*
X37820833Y-67352857D01*
X37820833Y-67352857D02*
X37773214Y-67400476D01*
X39487499Y-66590952D02*
X39487499Y-67257619D01*
X39249404Y-66210000D02*
X39011309Y-66924285D01*
X39011309Y-66924285D02*
X39630356Y-66924285D01*
X40630357Y-66590952D02*
X41011309Y-66590952D01*
X40773214Y-66257619D02*
X40773214Y-67114761D01*
X40773214Y-67114761D02*
X40820833Y-67210000D01*
X40820833Y-67210000D02*
X40916071Y-67257619D01*
X40916071Y-67257619D02*
X41011309Y-67257619D01*
X41773214Y-66590952D02*
X41773214Y-67257619D01*
X41344643Y-66590952D02*
X41344643Y-67114761D01*
X41344643Y-67114761D02*
X41392262Y-67210000D01*
X41392262Y-67210000D02*
X41487500Y-67257619D01*
X41487500Y-67257619D02*
X41630357Y-67257619D01*
X41630357Y-67257619D02*
X41725595Y-67210000D01*
X41725595Y-67210000D02*
X41773214Y-67162380D01*
X42249405Y-67257619D02*
X42249405Y-66590952D01*
X42249405Y-66781428D02*
X42297024Y-66686190D01*
X42297024Y-66686190D02*
X42344643Y-66638571D01*
X42344643Y-66638571D02*
X42439881Y-66590952D01*
X42439881Y-66590952D02*
X42535119Y-66590952D01*
X42868453Y-66590952D02*
X42868453Y-67257619D01*
X42868453Y-66686190D02*
X42916072Y-66638571D01*
X42916072Y-66638571D02*
X43011310Y-66590952D01*
X43011310Y-66590952D02*
X43154167Y-66590952D01*
X43154167Y-66590952D02*
X43249405Y-66638571D01*
X43249405Y-66638571D02*
X43297024Y-66733809D01*
X43297024Y-66733809D02*
X43297024Y-67257619D01*
X43725596Y-67210000D02*
X43820834Y-67257619D01*
X43820834Y-67257619D02*
X44011310Y-67257619D01*
X44011310Y-67257619D02*
X44106548Y-67210000D01*
X44106548Y-67210000D02*
X44154167Y-67114761D01*
X44154167Y-67114761D02*
X44154167Y-67067142D01*
X44154167Y-67067142D02*
X44106548Y-66971904D01*
X44106548Y-66971904D02*
X44011310Y-66924285D01*
X44011310Y-66924285D02*
X43868453Y-66924285D01*
X43868453Y-66924285D02*
X43773215Y-66876666D01*
X43773215Y-66876666D02*
X43725596Y-66781428D01*
X43725596Y-66781428D02*
X43725596Y-66733809D01*
X43725596Y-66733809D02*
X43773215Y-66638571D01*
X43773215Y-66638571D02*
X43868453Y-66590952D01*
X43868453Y-66590952D02*
X44011310Y-66590952D01*
X44011310Y-66590952D02*
X44106548Y-66638571D01*
X10249404Y-68877619D02*
X9677976Y-68877619D01*
X9963690Y-68877619D02*
X9963690Y-67877619D01*
X9963690Y-67877619D02*
X9868452Y-68020476D01*
X9868452Y-68020476D02*
X9773214Y-68115714D01*
X9773214Y-68115714D02*
X9677976Y-68163333D01*
X10677976Y-68782380D02*
X10725595Y-68830000D01*
X10725595Y-68830000D02*
X10677976Y-68877619D01*
X10677976Y-68877619D02*
X10630357Y-68830000D01*
X10630357Y-68830000D02*
X10677976Y-68782380D01*
X10677976Y-68782380D02*
X10677976Y-68877619D01*
X11677975Y-68877619D02*
X11106547Y-68877619D01*
X11392261Y-68877619D02*
X11392261Y-67877619D01*
X11392261Y-67877619D02*
X11297023Y-68020476D01*
X11297023Y-68020476D02*
X11201785Y-68115714D01*
X11201785Y-68115714D02*
X11106547Y-68163333D01*
X12535118Y-68210952D02*
X12535118Y-68877619D01*
X12106547Y-68210952D02*
X12106547Y-68734761D01*
X12106547Y-68734761D02*
X12154166Y-68830000D01*
X12154166Y-68830000D02*
X12249404Y-68877619D01*
X12249404Y-68877619D02*
X12392261Y-68877619D01*
X12392261Y-68877619D02*
X12487499Y-68830000D01*
X12487499Y-68830000D02*
X12535118Y-68782380D01*
X13011309Y-68877619D02*
X13011309Y-67877619D01*
X13011309Y-68353809D02*
X13582737Y-68353809D01*
X13582737Y-68877619D02*
X13582737Y-67877619D01*
X14106547Y-68830000D02*
X14106547Y-68877619D01*
X14106547Y-68877619D02*
X14058928Y-68972857D01*
X14058928Y-68972857D02*
X14011309Y-69020476D01*
X15249404Y-67972857D02*
X15297023Y-67925238D01*
X15297023Y-67925238D02*
X15392261Y-67877619D01*
X15392261Y-67877619D02*
X15630356Y-67877619D01*
X15630356Y-67877619D02*
X15725594Y-67925238D01*
X15725594Y-67925238D02*
X15773213Y-67972857D01*
X15773213Y-67972857D02*
X15820832Y-68068095D01*
X15820832Y-68068095D02*
X15820832Y-68163333D01*
X15820832Y-68163333D02*
X15773213Y-68306190D01*
X15773213Y-68306190D02*
X15201785Y-68877619D01*
X15201785Y-68877619D02*
X15820832Y-68877619D01*
X16249404Y-68210952D02*
X16249404Y-69210952D01*
X16249404Y-68258571D02*
X16344642Y-68210952D01*
X16344642Y-68210952D02*
X16535118Y-68210952D01*
X16535118Y-68210952D02*
X16630356Y-68258571D01*
X16630356Y-68258571D02*
X16677975Y-68306190D01*
X16677975Y-68306190D02*
X16725594Y-68401428D01*
X16725594Y-68401428D02*
X16725594Y-68687142D01*
X16725594Y-68687142D02*
X16677975Y-68782380D01*
X16677975Y-68782380D02*
X16630356Y-68830000D01*
X16630356Y-68830000D02*
X16535118Y-68877619D01*
X16535118Y-68877619D02*
X16344642Y-68877619D01*
X16344642Y-68877619D02*
X16249404Y-68830000D01*
X17487499Y-68353809D02*
X17154166Y-68353809D01*
X17154166Y-68877619D02*
X17154166Y-67877619D01*
X17154166Y-67877619D02*
X17630356Y-67877619D01*
X18058928Y-68830000D02*
X18058928Y-68877619D01*
X18058928Y-68877619D02*
X18011309Y-68972857D01*
X18011309Y-68972857D02*
X17963690Y-69020476D01*
X19439880Y-67877619D02*
X19535118Y-67877619D01*
X19535118Y-67877619D02*
X19630356Y-67925238D01*
X19630356Y-67925238D02*
X19677975Y-67972857D01*
X19677975Y-67972857D02*
X19725594Y-68068095D01*
X19725594Y-68068095D02*
X19773213Y-68258571D01*
X19773213Y-68258571D02*
X19773213Y-68496666D01*
X19773213Y-68496666D02*
X19725594Y-68687142D01*
X19725594Y-68687142D02*
X19677975Y-68782380D01*
X19677975Y-68782380D02*
X19630356Y-68830000D01*
X19630356Y-68830000D02*
X19535118Y-68877619D01*
X19535118Y-68877619D02*
X19439880Y-68877619D01*
X19439880Y-68877619D02*
X19344642Y-68830000D01*
X19344642Y-68830000D02*
X19297023Y-68782380D01*
X19297023Y-68782380D02*
X19249404Y-68687142D01*
X19249404Y-68687142D02*
X19201785Y-68496666D01*
X19201785Y-68496666D02*
X19201785Y-68258571D01*
X19201785Y-68258571D02*
X19249404Y-68068095D01*
X19249404Y-68068095D02*
X19297023Y-67972857D01*
X19297023Y-67972857D02*
X19344642Y-67925238D01*
X19344642Y-67925238D02*
X19439880Y-67877619D01*
X20201785Y-68782380D02*
X20249404Y-68830000D01*
X20249404Y-68830000D02*
X20201785Y-68877619D01*
X20201785Y-68877619D02*
X20154166Y-68830000D01*
X20154166Y-68830000D02*
X20201785Y-68782380D01*
X20201785Y-68782380D02*
X20201785Y-68877619D01*
X20820832Y-68306190D02*
X20725594Y-68258571D01*
X20725594Y-68258571D02*
X20677975Y-68210952D01*
X20677975Y-68210952D02*
X20630356Y-68115714D01*
X20630356Y-68115714D02*
X20630356Y-68068095D01*
X20630356Y-68068095D02*
X20677975Y-67972857D01*
X20677975Y-67972857D02*
X20725594Y-67925238D01*
X20725594Y-67925238D02*
X20820832Y-67877619D01*
X20820832Y-67877619D02*
X21011308Y-67877619D01*
X21011308Y-67877619D02*
X21106546Y-67925238D01*
X21106546Y-67925238D02*
X21154165Y-67972857D01*
X21154165Y-67972857D02*
X21201784Y-68068095D01*
X21201784Y-68068095D02*
X21201784Y-68115714D01*
X21201784Y-68115714D02*
X21154165Y-68210952D01*
X21154165Y-68210952D02*
X21106546Y-68258571D01*
X21106546Y-68258571D02*
X21011308Y-68306190D01*
X21011308Y-68306190D02*
X20820832Y-68306190D01*
X20820832Y-68306190D02*
X20725594Y-68353809D01*
X20725594Y-68353809D02*
X20677975Y-68401428D01*
X20677975Y-68401428D02*
X20630356Y-68496666D01*
X20630356Y-68496666D02*
X20630356Y-68687142D01*
X20630356Y-68687142D02*
X20677975Y-68782380D01*
X20677975Y-68782380D02*
X20725594Y-68830000D01*
X20725594Y-68830000D02*
X20820832Y-68877619D01*
X20820832Y-68877619D02*
X21011308Y-68877619D01*
X21011308Y-68877619D02*
X21106546Y-68830000D01*
X21106546Y-68830000D02*
X21154165Y-68782380D01*
X21154165Y-68782380D02*
X21201784Y-68687142D01*
X21201784Y-68687142D02*
X21201784Y-68496666D01*
X21201784Y-68496666D02*
X21154165Y-68401428D01*
X21154165Y-68401428D02*
X21106546Y-68353809D01*
X21106546Y-68353809D02*
X21011308Y-68306190D01*
X21535118Y-67877619D02*
X22201784Y-67877619D01*
X22201784Y-67877619D02*
X21773213Y-68877619D01*
X22725594Y-68877619D02*
X22630356Y-68830000D01*
X22630356Y-68830000D02*
X22582737Y-68782380D01*
X22582737Y-68782380D02*
X22535118Y-68687142D01*
X22535118Y-68687142D02*
X22535118Y-68401428D01*
X22535118Y-68401428D02*
X22582737Y-68306190D01*
X22582737Y-68306190D02*
X22630356Y-68258571D01*
X22630356Y-68258571D02*
X22725594Y-68210952D01*
X22725594Y-68210952D02*
X22868451Y-68210952D01*
X22868451Y-68210952D02*
X22963689Y-68258571D01*
X22963689Y-68258571D02*
X23011308Y-68306190D01*
X23011308Y-68306190D02*
X23058927Y-68401428D01*
X23058927Y-68401428D02*
X23058927Y-68687142D01*
X23058927Y-68687142D02*
X23011308Y-68782380D01*
X23011308Y-68782380D02*
X22963689Y-68830000D01*
X22963689Y-68830000D02*
X22868451Y-68877619D01*
X22868451Y-68877619D02*
X22725594Y-68877619D01*
X23487499Y-68877619D02*
X23487499Y-67877619D01*
X23916070Y-68877619D02*
X23916070Y-68353809D01*
X23916070Y-68353809D02*
X23868451Y-68258571D01*
X23868451Y-68258571D02*
X23773213Y-68210952D01*
X23773213Y-68210952D02*
X23630356Y-68210952D01*
X23630356Y-68210952D02*
X23535118Y-68258571D01*
X23535118Y-68258571D02*
X23487499Y-68306190D01*
X24392261Y-68877619D02*
X24392261Y-68210952D01*
X24392261Y-68306190D02*
X24439880Y-68258571D01*
X24439880Y-68258571D02*
X24535118Y-68210952D01*
X24535118Y-68210952D02*
X24677975Y-68210952D01*
X24677975Y-68210952D02*
X24773213Y-68258571D01*
X24773213Y-68258571D02*
X24820832Y-68353809D01*
X24820832Y-68353809D02*
X24820832Y-68877619D01*
X24820832Y-68353809D02*
X24868451Y-68258571D01*
X24868451Y-68258571D02*
X24963689Y-68210952D01*
X24963689Y-68210952D02*
X25106546Y-68210952D01*
X25106546Y-68210952D02*
X25201785Y-68258571D01*
X25201785Y-68258571D02*
X25249404Y-68353809D01*
X25249404Y-68353809D02*
X25249404Y-68877619D01*
X25773213Y-68830000D02*
X25773213Y-68877619D01*
X25773213Y-68877619D02*
X25725594Y-68972857D01*
X25725594Y-68972857D02*
X25677975Y-69020476D01*
X27487498Y-68877619D02*
X26916070Y-68877619D01*
X27201784Y-68877619D02*
X27201784Y-67877619D01*
X27201784Y-67877619D02*
X27106546Y-68020476D01*
X27106546Y-68020476D02*
X27011308Y-68115714D01*
X27011308Y-68115714D02*
X26916070Y-68163333D01*
X28106546Y-67877619D02*
X28201784Y-67877619D01*
X28201784Y-67877619D02*
X28297022Y-67925238D01*
X28297022Y-67925238D02*
X28344641Y-67972857D01*
X28344641Y-67972857D02*
X28392260Y-68068095D01*
X28392260Y-68068095D02*
X28439879Y-68258571D01*
X28439879Y-68258571D02*
X28439879Y-68496666D01*
X28439879Y-68496666D02*
X28392260Y-68687142D01*
X28392260Y-68687142D02*
X28344641Y-68782380D01*
X28344641Y-68782380D02*
X28297022Y-68830000D01*
X28297022Y-68830000D02*
X28201784Y-68877619D01*
X28201784Y-68877619D02*
X28106546Y-68877619D01*
X28106546Y-68877619D02*
X28011308Y-68830000D01*
X28011308Y-68830000D02*
X27963689Y-68782380D01*
X27963689Y-68782380D02*
X27916070Y-68687142D01*
X27916070Y-68687142D02*
X27868451Y-68496666D01*
X27868451Y-68496666D02*
X27868451Y-68258571D01*
X27868451Y-68258571D02*
X27916070Y-68068095D01*
X27916070Y-68068095D02*
X27963689Y-67972857D01*
X27963689Y-67972857D02*
X28011308Y-67925238D01*
X28011308Y-67925238D02*
X28106546Y-67877619D01*
X29297022Y-67877619D02*
X29106546Y-67877619D01*
X29106546Y-67877619D02*
X29011308Y-67925238D01*
X29011308Y-67925238D02*
X28963689Y-67972857D01*
X28963689Y-67972857D02*
X28868451Y-68115714D01*
X28868451Y-68115714D02*
X28820832Y-68306190D01*
X28820832Y-68306190D02*
X28820832Y-68687142D01*
X28820832Y-68687142D02*
X28868451Y-68782380D01*
X28868451Y-68782380D02*
X28916070Y-68830000D01*
X28916070Y-68830000D02*
X29011308Y-68877619D01*
X29011308Y-68877619D02*
X29201784Y-68877619D01*
X29201784Y-68877619D02*
X29297022Y-68830000D01*
X29297022Y-68830000D02*
X29344641Y-68782380D01*
X29344641Y-68782380D02*
X29392260Y-68687142D01*
X29392260Y-68687142D02*
X29392260Y-68449047D01*
X29392260Y-68449047D02*
X29344641Y-68353809D01*
X29344641Y-68353809D02*
X29297022Y-68306190D01*
X29297022Y-68306190D02*
X29201784Y-68258571D01*
X29201784Y-68258571D02*
X29011308Y-68258571D01*
X29011308Y-68258571D02*
X28916070Y-68306190D01*
X28916070Y-68306190D02*
X28868451Y-68353809D01*
X28868451Y-68353809D02*
X28820832Y-68449047D01*
X29820832Y-68877619D02*
X29820832Y-67877619D01*
X29820832Y-67877619D02*
X30154165Y-68591904D01*
X30154165Y-68591904D02*
X30487498Y-67877619D01*
X30487498Y-67877619D02*
X30487498Y-68877619D01*
X30963689Y-68877619D02*
X30963689Y-67877619D01*
X30963689Y-68353809D02*
X31535117Y-68353809D01*
X31535117Y-68877619D02*
X31535117Y-67877619D01*
X31916070Y-68210952D02*
X32439879Y-68210952D01*
X32439879Y-68210952D02*
X31916070Y-68877619D01*
X31916070Y-68877619D02*
X32439879Y-68877619D01*
X23192261Y-84402095D02*
X23192261Y-84973523D01*
X23192261Y-84973523D02*
X23154166Y-85087809D01*
X23154166Y-85087809D02*
X23077975Y-85164000D01*
X23077975Y-85164000D02*
X22963690Y-85202095D01*
X22963690Y-85202095D02*
X22887499Y-85202095D01*
X23954166Y-85202095D02*
X23573214Y-85202095D01*
X23573214Y-85202095D02*
X23573214Y-84402095D01*
X24677976Y-85125904D02*
X24639880Y-85164000D01*
X24639880Y-85164000D02*
X24525595Y-85202095D01*
X24525595Y-85202095D02*
X24449404Y-85202095D01*
X24449404Y-85202095D02*
X24335118Y-85164000D01*
X24335118Y-85164000D02*
X24258928Y-85087809D01*
X24258928Y-85087809D02*
X24220833Y-85011619D01*
X24220833Y-85011619D02*
X24182737Y-84859238D01*
X24182737Y-84859238D02*
X24182737Y-84744952D01*
X24182737Y-84744952D02*
X24220833Y-84592571D01*
X24220833Y-84592571D02*
X24258928Y-84516380D01*
X24258928Y-84516380D02*
X24335118Y-84440190D01*
X24335118Y-84440190D02*
X24449404Y-84402095D01*
X24449404Y-84402095D02*
X24525595Y-84402095D01*
X24525595Y-84402095D02*
X24639880Y-84440190D01*
X24639880Y-84440190D02*
X24677976Y-84478285D01*
X25249404Y-84402095D02*
X25249404Y-84973523D01*
X25249404Y-84973523D02*
X25211309Y-85087809D01*
X25211309Y-85087809D02*
X25135118Y-85164000D01*
X25135118Y-85164000D02*
X25020833Y-85202095D01*
X25020833Y-85202095D02*
X24944642Y-85202095D01*
X26011309Y-85202095D02*
X25630357Y-85202095D01*
X25630357Y-85202095D02*
X25630357Y-84402095D01*
X26735119Y-85125904D02*
X26697023Y-85164000D01*
X26697023Y-85164000D02*
X26582738Y-85202095D01*
X26582738Y-85202095D02*
X26506547Y-85202095D01*
X26506547Y-85202095D02*
X26392261Y-85164000D01*
X26392261Y-85164000D02*
X26316071Y-85087809D01*
X26316071Y-85087809D02*
X26277976Y-85011619D01*
X26277976Y-85011619D02*
X26239880Y-84859238D01*
X26239880Y-84859238D02*
X26239880Y-84744952D01*
X26239880Y-84744952D02*
X26277976Y-84592571D01*
X26277976Y-84592571D02*
X26316071Y-84516380D01*
X26316071Y-84516380D02*
X26392261Y-84440190D01*
X26392261Y-84440190D02*
X26506547Y-84402095D01*
X26506547Y-84402095D02*
X26582738Y-84402095D01*
X26582738Y-84402095D02*
X26697023Y-84440190D01*
X26697023Y-84440190D02*
X26735119Y-84478285D01*
X27306547Y-84402095D02*
X27306547Y-84973523D01*
X27306547Y-84973523D02*
X27268452Y-85087809D01*
X27268452Y-85087809D02*
X27192261Y-85164000D01*
X27192261Y-85164000D02*
X27077976Y-85202095D01*
X27077976Y-85202095D02*
X27001785Y-85202095D01*
X28068452Y-85202095D02*
X27687500Y-85202095D01*
X27687500Y-85202095D02*
X27687500Y-84402095D01*
X28792262Y-85125904D02*
X28754166Y-85164000D01*
X28754166Y-85164000D02*
X28639881Y-85202095D01*
X28639881Y-85202095D02*
X28563690Y-85202095D01*
X28563690Y-85202095D02*
X28449404Y-85164000D01*
X28449404Y-85164000D02*
X28373214Y-85087809D01*
X28373214Y-85087809D02*
X28335119Y-85011619D01*
X28335119Y-85011619D02*
X28297023Y-84859238D01*
X28297023Y-84859238D02*
X28297023Y-84744952D01*
X28297023Y-84744952D02*
X28335119Y-84592571D01*
X28335119Y-84592571D02*
X28373214Y-84516380D01*
X28373214Y-84516380D02*
X28449404Y-84440190D01*
X28449404Y-84440190D02*
X28563690Y-84402095D01*
X28563690Y-84402095D02*
X28639881Y-84402095D01*
X28639881Y-84402095D02*
X28754166Y-84440190D01*
X28754166Y-84440190D02*
X28792262Y-84478285D01*
X29363690Y-84402095D02*
X29363690Y-84973523D01*
X29363690Y-84973523D02*
X29325595Y-85087809D01*
X29325595Y-85087809D02*
X29249404Y-85164000D01*
X29249404Y-85164000D02*
X29135119Y-85202095D01*
X29135119Y-85202095D02*
X29058928Y-85202095D01*
X30125595Y-85202095D02*
X29744643Y-85202095D01*
X29744643Y-85202095D02*
X29744643Y-84402095D01*
X30849405Y-85125904D02*
X30811309Y-85164000D01*
X30811309Y-85164000D02*
X30697024Y-85202095D01*
X30697024Y-85202095D02*
X30620833Y-85202095D01*
X30620833Y-85202095D02*
X30506547Y-85164000D01*
X30506547Y-85164000D02*
X30430357Y-85087809D01*
X30430357Y-85087809D02*
X30392262Y-85011619D01*
X30392262Y-85011619D02*
X30354166Y-84859238D01*
X30354166Y-84859238D02*
X30354166Y-84744952D01*
X30354166Y-84744952D02*
X30392262Y-84592571D01*
X30392262Y-84592571D02*
X30430357Y-84516380D01*
X30430357Y-84516380D02*
X30506547Y-84440190D01*
X30506547Y-84440190D02*
X30620833Y-84402095D01*
X30620833Y-84402095D02*
X30697024Y-84402095D01*
X30697024Y-84402095D02*
X30811309Y-84440190D01*
X30811309Y-84440190D02*
X30849405Y-84478285D01*
D11*
G04 #@! TO.C,R2*
X44165000Y-16837258D02*
X44165000Y-16362742D01*
X45210000Y-16837258D02*
X45210000Y-16362742D01*
G04 #@! TO.C,kibuzzard-645C1158*
G36*
X3005942Y-41742497D02*
G01*
X3057338Y-41767500D01*
X3084325Y-41878625D01*
X3084325Y-41884975D01*
X3081944Y-41941331D01*
X3065275Y-41984988D01*
X3023405Y-42019516D01*
X2945419Y-42031025D01*
X2865647Y-42023484D01*
X2818419Y-42000863D01*
X2787463Y-41886563D01*
X2787463Y-41880213D01*
X2789844Y-41824650D01*
X2804925Y-41781788D01*
X2846795Y-41746069D01*
X2924781Y-41734163D01*
X3005942Y-41742497D01*
G37*
G36*
X2612837Y-40872150D02*
G01*
X2654112Y-40890406D01*
X2676337Y-40924537D01*
X2684275Y-41008675D01*
X2684275Y-41892913D01*
X2681894Y-41947681D01*
X2666812Y-41989750D01*
X2624744Y-42021897D01*
X2542987Y-42032613D01*
X2463216Y-42022294D01*
X2420750Y-41991338D01*
X2405669Y-41947681D01*
X2403287Y-41889738D01*
X2403287Y-41323000D01*
X2382650Y-41342050D01*
X2271525Y-41391263D01*
X2175481Y-41335700D01*
X2125475Y-41237275D01*
X2182625Y-41143613D01*
X2442975Y-40908663D01*
X2447737Y-40905487D01*
X2537431Y-40864213D01*
X2612837Y-40872150D01*
G37*
G36*
X3506402Y-42041145D02*
G01*
X3416906Y-42009594D01*
X3342691Y-41962564D01*
X3286731Y-41905613D01*
X3244067Y-41837747D01*
X3209737Y-41757975D01*
X3184161Y-41662901D01*
X3168815Y-41559714D01*
X3163736Y-41449206D01*
X3444687Y-41449206D01*
X3454709Y-41589154D01*
X3484772Y-41689117D01*
X3534877Y-41749095D01*
X3605025Y-41769088D01*
X3676562Y-41749641D01*
X3727659Y-41691300D01*
X3758318Y-41594066D01*
X3768538Y-41457938D01*
X3768538Y-41448413D01*
X3758417Y-41308812D01*
X3728056Y-41209097D01*
X3677455Y-41149268D01*
X3606613Y-41129325D01*
X3535770Y-41149318D01*
X3485169Y-41209295D01*
X3454808Y-41309258D01*
X3444687Y-41449206D01*
X3163736Y-41449206D01*
X3163700Y-41448413D01*
X3167845Y-41347694D01*
X3180281Y-41257207D01*
X3201006Y-41176950D01*
X3240495Y-41076342D01*
X3284350Y-40999944D01*
X3339714Y-40940809D01*
X3413731Y-40891994D01*
X3503623Y-40859252D01*
X3606613Y-40848337D01*
X3709205Y-40859053D01*
X3797906Y-40891200D01*
X3870931Y-40939222D01*
X3926494Y-40997563D01*
X3968761Y-41066619D01*
X4001900Y-41146788D01*
X4028358Y-41243978D01*
X4044233Y-41345049D01*
X4049525Y-41450000D01*
X4041786Y-41586227D01*
X4018569Y-41707572D01*
X3979873Y-41814034D01*
X3925700Y-41905613D01*
X3870733Y-41963556D01*
X3797906Y-42010388D01*
X3709602Y-42041344D01*
X3608200Y-42051663D01*
X3605025Y-42051334D01*
X3506402Y-42041145D01*
G37*
G04 #@! TO.C,Y2*
X28987500Y-30050000D02*
X28987500Y-26750000D01*
X28987500Y-26750000D02*
X24987500Y-26750000D01*
G04 #@! TO.C,L2*
X25675279Y-42810000D02*
X25349721Y-42810000D01*
X25675279Y-41790000D02*
X25349721Y-41790000D01*
G04 #@! TO.C,C10*
X29177500Y-13515580D02*
X29177500Y-13234420D01*
X30197500Y-13515580D02*
X30197500Y-13234420D01*
G04 #@! TO.C,C27*
X28653080Y-44360000D02*
X28371920Y-44360000D01*
X28653080Y-43340000D02*
X28371920Y-43340000D01*
G04 #@! TO.C,C8*
X22697500Y-26359420D02*
X22697500Y-26640580D01*
X21677500Y-26359420D02*
X21677500Y-26640580D01*
G04 #@! TO.C,C12*
X20977500Y-15315580D02*
X20977500Y-15034420D01*
X21997500Y-15315580D02*
X21997500Y-15034420D01*
G04 #@! TO.C,C14*
X19828080Y-21785000D02*
X19546920Y-21785000D01*
X19828080Y-20765000D02*
X19546920Y-20765000D01*
G04 #@! TO.C,C23*
X23477500Y-28540580D02*
X23477500Y-28259420D01*
X24497500Y-28540580D02*
X24497500Y-28259420D01*
G04 #@! TO.C,kibuzzard-6457AC4A*
G36*
X27081639Y-7871069D02*
G01*
X27158315Y-7926314D01*
X27209274Y-8004419D01*
X27226260Y-8091414D01*
X27226260Y-8214604D01*
X26746200Y-8214604D01*
X26746200Y-8092684D01*
X26763504Y-8002356D01*
X26815415Y-7924409D01*
X26893044Y-7870593D01*
X26987500Y-7852654D01*
X27081639Y-7871069D01*
G37*
G36*
X27719443Y-7243054D02*
G01*
X27719443Y-8095224D01*
X27719443Y-8439394D01*
X27719443Y-8952025D01*
X26255557Y-8952025D01*
X26255557Y-8439394D01*
X26255557Y-8326364D01*
X26520140Y-8326364D01*
X26528713Y-8391769D01*
X26554430Y-8425424D01*
X26587450Y-8437489D01*
X26631900Y-8439394D01*
X27338020Y-8439394D01*
X27419300Y-8424154D01*
X27443113Y-8390499D01*
X27451050Y-8327634D01*
X27451050Y-8095224D01*
X27442398Y-8001681D01*
X27416443Y-7915361D01*
X27373183Y-7836264D01*
X27312620Y-7764389D01*
X27239952Y-7704660D01*
X27160379Y-7661996D01*
X27073900Y-7636397D01*
X26980515Y-7627864D01*
X26887488Y-7636596D01*
X26802080Y-7662789D01*
X26724292Y-7706446D01*
X26654125Y-7767564D01*
X26596062Y-7840193D01*
X26554589Y-7918377D01*
X26529705Y-8002118D01*
X26521410Y-8091414D01*
X26520140Y-8326364D01*
X26255557Y-8326364D01*
X26255557Y-7247499D01*
X26520140Y-7247499D01*
X26553160Y-7319254D01*
X26555700Y-7323064D01*
X26743660Y-7531344D01*
X26818590Y-7577064D01*
X26897330Y-7537059D01*
X26941780Y-7460224D01*
X26902410Y-7371324D01*
X26887170Y-7354814D01*
X27340560Y-7354814D01*
X27386915Y-7352909D01*
X27421840Y-7340844D01*
X27446605Y-7306872D01*
X27454860Y-7243054D01*
X27446287Y-7177649D01*
X27420570Y-7143994D01*
X27386915Y-7131929D01*
X27343100Y-7130024D01*
X26635710Y-7130024D01*
X26568400Y-7136374D01*
X26541095Y-7154154D01*
X26526490Y-7187174D01*
X26520140Y-7247499D01*
X26255557Y-7247499D01*
X26255557Y-7130024D01*
X26255557Y-7129919D01*
X26259081Y-7058176D01*
X26269621Y-6987124D01*
X26287074Y-6917447D01*
X26311273Y-6849816D01*
X26341984Y-6784883D01*
X26378911Y-6723273D01*
X26421700Y-6665579D01*
X26469938Y-6612357D01*
X26523160Y-6564119D01*
X26580854Y-6521330D01*
X26642464Y-6484402D01*
X26707397Y-6453691D01*
X26775028Y-6429493D01*
X26844705Y-6412039D01*
X26915757Y-6401500D01*
X26987500Y-6397975D01*
X27059243Y-6401500D01*
X27130295Y-6412039D01*
X27199972Y-6429493D01*
X27267603Y-6453691D01*
X27332536Y-6484402D01*
X27394146Y-6521330D01*
X27451840Y-6564119D01*
X27505062Y-6612357D01*
X27553300Y-6665579D01*
X27596089Y-6723273D01*
X27633016Y-6784883D01*
X27663727Y-6849816D01*
X27687926Y-6917447D01*
X27705379Y-6987124D01*
X27715919Y-7058176D01*
X27719443Y-7129919D01*
X27719443Y-7130024D01*
X27719443Y-7243054D01*
G37*
G04 #@! TO.C,R3*
X31799758Y-42822500D02*
X31325242Y-42822500D01*
X31799758Y-41777500D02*
X31325242Y-41777500D01*
G04 #@! TO.C,C11*
X33897500Y-26409420D02*
X33897500Y-26690580D01*
X32877500Y-26409420D02*
X32877500Y-26690580D01*
G04 #@! TO.C,kibuzzard-6457ABA7*
G36*
X49402995Y-20342380D02*
G01*
X49425220Y-20389370D01*
X49376960Y-20430010D01*
X49216940Y-20430010D01*
X49257580Y-20358255D01*
X49339495Y-20324600D01*
X49402995Y-20342380D01*
G37*
G36*
X50751735Y-20342380D02*
G01*
X50773960Y-20389370D01*
X50725700Y-20430010D01*
X50565680Y-20430010D01*
X50606320Y-20358255D01*
X50688235Y-20324600D01*
X50751735Y-20342380D01*
G37*
G36*
X48659410Y-20129655D02*
G01*
X48696240Y-20214110D01*
X48659410Y-20297930D01*
X48585750Y-20325870D01*
X48423190Y-20325870D01*
X48423190Y-20101080D01*
X48583210Y-20101080D01*
X48659410Y-20129655D01*
G37*
G36*
X50690140Y-21088293D02*
G01*
X49968145Y-21088293D01*
X49341400Y-21088293D01*
X48785775Y-21088293D01*
X48198400Y-21088293D01*
X48198294Y-21088293D01*
X48125929Y-21084738D01*
X48054260Y-21074107D01*
X47983979Y-21056503D01*
X47915762Y-21032094D01*
X47850265Y-21001117D01*
X47788120Y-20963868D01*
X47729926Y-20920708D01*
X47676242Y-20872052D01*
X47627586Y-20818368D01*
X47584426Y-20760174D01*
X47547178Y-20698029D01*
X47544752Y-20692900D01*
X48198400Y-20692900D01*
X48206020Y-20758940D01*
X48239675Y-20794182D01*
X48310160Y-20805930D01*
X48375565Y-20797357D01*
X48409220Y-20771640D01*
X48421285Y-20737985D01*
X48423190Y-20694170D01*
X48423190Y-20550660D01*
X48583210Y-20550660D01*
X48622580Y-20548120D01*
X48671969Y-20665101D01*
X48704989Y-20741724D01*
X48721640Y-20777990D01*
X48745135Y-20802755D01*
X48785775Y-20814820D01*
X48851180Y-20797040D01*
X48910235Y-20760210D01*
X48929920Y-20715760D01*
X48910870Y-20649720D01*
X48875310Y-20568863D01*
X48846523Y-20502400D01*
X48835248Y-20475730D01*
X48980720Y-20475730D01*
X48989610Y-20557716D01*
X49016280Y-20634339D01*
X49060730Y-20705600D01*
X49109466Y-20753701D01*
X49174395Y-20791325D01*
X49252659Y-20815614D01*
X49341400Y-20823710D01*
X49459748Y-20816646D01*
X49544282Y-20795452D01*
X49595003Y-20760131D01*
X49611910Y-20710680D01*
X49608680Y-20699250D01*
X49708430Y-20699250D01*
X49732560Y-20747510D01*
X49808972Y-20787021D01*
X49887500Y-20810728D01*
X49968145Y-20818630D01*
X50045262Y-20814256D01*
X50113207Y-20801132D01*
X50171980Y-20779260D01*
X50241195Y-20710045D01*
X50259769Y-20658769D01*
X50265960Y-20597650D01*
X50259769Y-20537166D01*
X50241195Y-20487795D01*
X50229130Y-20475730D01*
X50329460Y-20475730D01*
X50338350Y-20557716D01*
X50365020Y-20634339D01*
X50409470Y-20705600D01*
X50458206Y-20753701D01*
X50523135Y-20791325D01*
X50601399Y-20815614D01*
X50690140Y-20823710D01*
X50808488Y-20816646D01*
X50893022Y-20795452D01*
X50943743Y-20760131D01*
X50960650Y-20710680D01*
X50944140Y-20652260D01*
X50874290Y-20595110D01*
X50823490Y-20609080D01*
X50809520Y-20614160D01*
X50759672Y-20625590D01*
X50693950Y-20629400D01*
X50610130Y-20605270D01*
X50568220Y-20545580D01*
X50869210Y-20545580D01*
X50954935Y-20508115D01*
X50983986Y-20460490D01*
X50993670Y-20392545D01*
X50982875Y-20317456D01*
X50958828Y-20266180D01*
X51044470Y-20266180D01*
X51062885Y-20339840D01*
X51109240Y-20361430D01*
X51161310Y-20357620D01*
X51161310Y-20545580D01*
X51168930Y-20631234D01*
X51191790Y-20698544D01*
X51229890Y-20747510D01*
X51282666Y-20780671D01*
X51349552Y-20800568D01*
X51430550Y-20807200D01*
X51473095Y-20805295D01*
X51506750Y-20794500D01*
X51533420Y-20761162D01*
X51542310Y-20696710D01*
X51513100Y-20611620D01*
X51479445Y-20599555D01*
X51433725Y-20597650D01*
X51393085Y-20582410D01*
X51382290Y-20532880D01*
X51382290Y-20357620D01*
X51464840Y-20362700D01*
X51508655Y-20360795D01*
X51542310Y-20350000D01*
X51568027Y-20316662D01*
X51576600Y-20252210D01*
X51568345Y-20187122D01*
X51543580Y-20154420D01*
X51509925Y-20142355D01*
X51466745Y-20140450D01*
X51382290Y-20145530D01*
X51382290Y-20021070D01*
X51375940Y-19956300D01*
X51341967Y-19921057D01*
X51273070Y-19909310D01*
X51207982Y-19917247D01*
X51175280Y-19941060D01*
X51163215Y-19971540D01*
X51161310Y-20014720D01*
X51161310Y-20145530D01*
X51119400Y-20140450D01*
X51068600Y-20156960D01*
X51050820Y-20190615D01*
X51044470Y-20266180D01*
X50958828Y-20266180D01*
X50950490Y-20248400D01*
X50903341Y-20193949D01*
X50844445Y-20155055D01*
X50773801Y-20131719D01*
X50691410Y-20123940D01*
X50593832Y-20134594D01*
X50507683Y-20166556D01*
X50432965Y-20219825D01*
X50375462Y-20290874D01*
X50340961Y-20376176D01*
X50329460Y-20475730D01*
X50229130Y-20475730D01*
X50179600Y-20426200D01*
X50099590Y-20394450D01*
X50017040Y-20377940D01*
X49952270Y-20359842D01*
X49930680Y-20328410D01*
X50005610Y-20300470D01*
X50095145Y-20319520D01*
X50151660Y-20338570D01*
X50208810Y-20294120D01*
X50236750Y-20219190D01*
X50192300Y-20168390D01*
X50098320Y-20136005D01*
X50006880Y-20125210D01*
X49907668Y-20133236D01*
X49830502Y-20157316D01*
X49775384Y-20197448D01*
X49742314Y-20253632D01*
X49731290Y-20325870D01*
X49737322Y-20388576D01*
X49755420Y-20442075D01*
X49816380Y-20513830D01*
X49895437Y-20552882D01*
X49975130Y-20573520D01*
X50038947Y-20588125D01*
X50060220Y-20609080D01*
X50040852Y-20631940D01*
X49982750Y-20639560D01*
X49886230Y-20608445D01*
X49801775Y-20577330D01*
X49756690Y-20598920D01*
X49720495Y-20657657D01*
X49708430Y-20699250D01*
X49608680Y-20699250D01*
X49595400Y-20652260D01*
X49525550Y-20595110D01*
X49474750Y-20609080D01*
X49460780Y-20614160D01*
X49410932Y-20625590D01*
X49345210Y-20629400D01*
X49261390Y-20605270D01*
X49219480Y-20545580D01*
X49520470Y-20545580D01*
X49606195Y-20508115D01*
X49635246Y-20460490D01*
X49644930Y-20392545D01*
X49634135Y-20317456D01*
X49601750Y-20248400D01*
X49554601Y-20193949D01*
X49495705Y-20155055D01*
X49425061Y-20131719D01*
X49342670Y-20123940D01*
X49245092Y-20134594D01*
X49158943Y-20166556D01*
X49084225Y-20219825D01*
X49026722Y-20290874D01*
X48992221Y-20376176D01*
X48980720Y-20475730D01*
X48835248Y-20475730D01*
X48824510Y-20450330D01*
X48877427Y-20382879D01*
X48909177Y-20304139D01*
X48919760Y-20214110D01*
X48911505Y-20135370D01*
X48886740Y-20064250D01*
X48849275Y-20003925D01*
X48802920Y-19957570D01*
X48731941Y-19912414D01*
X48659551Y-19885321D01*
X48585750Y-19876290D01*
X48311430Y-19876290D01*
X48246025Y-19884862D01*
X48212370Y-19910580D01*
X48200305Y-19944235D01*
X48198400Y-19988050D01*
X48198400Y-20692900D01*
X47544752Y-20692900D01*
X47516200Y-20632533D01*
X47491792Y-20564315D01*
X47474187Y-20494034D01*
X47463556Y-20422365D01*
X47460001Y-20350000D01*
X47463556Y-20277635D01*
X47474187Y-20205966D01*
X47491792Y-20135685D01*
X47516200Y-20067467D01*
X47547178Y-20001971D01*
X47584426Y-19939826D01*
X47627586Y-19881632D01*
X47676242Y-19827948D01*
X47729926Y-19779292D01*
X47788120Y-19736132D01*
X47850265Y-19698883D01*
X47915762Y-19667906D01*
X47983979Y-19643497D01*
X48054260Y-19625893D01*
X48125929Y-19615262D01*
X48198294Y-19611707D01*
X48198400Y-19611707D01*
X51576600Y-19611707D01*
X51576706Y-19611707D01*
X51649071Y-19615262D01*
X51720740Y-19625893D01*
X51791021Y-19643497D01*
X51859238Y-19667906D01*
X51924735Y-19698883D01*
X51986880Y-19736132D01*
X52045074Y-19779292D01*
X52098758Y-19827948D01*
X52147414Y-19881632D01*
X52190574Y-19939826D01*
X52227822Y-20001971D01*
X52258800Y-20067467D01*
X52283208Y-20135685D01*
X52300813Y-20205966D01*
X52311444Y-20277635D01*
X52314999Y-20350000D01*
X52311444Y-20422365D01*
X52300813Y-20494034D01*
X52283208Y-20564315D01*
X52258800Y-20632533D01*
X52227822Y-20698029D01*
X52190574Y-20760174D01*
X52147414Y-20818368D01*
X52098758Y-20872052D01*
X52045074Y-20920708D01*
X51986880Y-20963868D01*
X51924735Y-21001117D01*
X51859238Y-21032094D01*
X51791021Y-21056503D01*
X51720740Y-21074107D01*
X51649071Y-21084738D01*
X51576706Y-21088293D01*
X51576600Y-21088293D01*
X51430550Y-21088293D01*
X50690140Y-21088293D01*
G37*
G04 #@! TO.C,R15*
X30677064Y-48310000D02*
X29222936Y-48310000D01*
X30677064Y-46490000D02*
X29222936Y-46490000D01*
G04 #@! TO.C,C3*
X23977500Y-10315580D02*
X23977500Y-10034420D01*
X24997500Y-10315580D02*
X24997500Y-10034420D01*
G04 #@! TO.C,C28*
X25653080Y-44360000D02*
X25371920Y-44360000D01*
X25653080Y-43340000D02*
X25371920Y-43340000D01*
G04 #@! TO.C,C29*
X33796920Y-46890000D02*
X34078080Y-46890000D01*
X33796920Y-47910000D02*
X34078080Y-47910000D01*
G04 #@! TO.C,C5*
X32297500Y-26409420D02*
X32297500Y-26690580D01*
X31277500Y-26409420D02*
X31277500Y-26690580D01*
G04 #@! TO.C,R1*
X42565000Y-16837258D02*
X42565000Y-16362742D01*
X43610000Y-16837258D02*
X43610000Y-16362742D01*
G04 #@! TO.C,Y1*
X37837500Y-18725000D02*
X34137500Y-18725000D01*
X34137500Y-18725000D02*
X34137500Y-24025000D01*
G04 #@! TO.C,C9*
X21097500Y-26359420D02*
X21097500Y-26640580D01*
X20077500Y-26359420D02*
X20077500Y-26640580D01*
G04 #@! TO.C,J2*
X48802500Y-15985000D02*
X48802500Y-14935000D01*
X51302500Y-15985000D02*
X48802500Y-15985000D01*
X48802500Y-14935000D02*
X47812500Y-14935000D01*
X53272500Y-14815000D02*
X53272500Y-10935000D01*
X48802500Y-9765000D02*
X48802500Y-10815000D01*
X51302500Y-9765000D02*
X48802500Y-9765000D01*
G04 #@! TO.C,C19*
X20528080Y-36510000D02*
X20246920Y-36510000D01*
X20528080Y-35490000D02*
X20246920Y-35490000D01*
G04 #@! TO.C,C17*
X9477500Y-21415580D02*
X9477500Y-21134420D01*
X10497500Y-21415580D02*
X10497500Y-21134420D01*
G04 #@! TO.C,R7*
X12024758Y-10697500D02*
X11550242Y-10697500D01*
X12024758Y-9652500D02*
X11550242Y-9652500D01*
G04 #@! TO.C,R8*
X12024758Y-16197500D02*
X11550242Y-16197500D01*
X12024758Y-15152500D02*
X11550242Y-15152500D01*
G04 #@! TO.C,C2*
X20528080Y-38260000D02*
X20246920Y-38260000D01*
X20528080Y-37240000D02*
X20246920Y-37240000D01*
G04 #@! TO.C,C31*
X31322500Y-44459420D02*
X31322500Y-44740580D01*
X30302500Y-44459420D02*
X30302500Y-44740580D01*
G04 #@! TO.C,kibuzzard-645C107E*
G36*
X8677359Y-35134414D02*
G01*
X8699028Y-35217758D01*
X8696250Y-35257207D01*
X8684582Y-35287767D01*
X8655273Y-35311937D01*
X8600683Y-35319993D01*
X8544842Y-35314576D01*
X8511783Y-35298324D01*
X8495530Y-35266514D01*
X8490113Y-35214424D01*
X8495947Y-35161640D01*
X8513449Y-35132192D01*
X8598460Y-35112189D01*
X8677359Y-35134414D01*
G37*
G36*
X8677359Y-35488348D02*
G01*
X8693611Y-35520157D01*
X8699028Y-35572247D01*
X8696250Y-35611696D01*
X8684582Y-35642256D01*
X8655273Y-35666425D01*
X8600683Y-35674482D01*
X8544842Y-35669065D01*
X8511783Y-35652813D01*
X8495530Y-35621003D01*
X8490113Y-35568913D01*
X8495947Y-35516129D01*
X8513449Y-35486681D01*
X8598460Y-35466678D01*
X8677359Y-35488348D01*
G37*
G36*
X4142348Y-34821875D02*
G01*
X4170684Y-34844378D01*
X4181241Y-34873826D01*
X4182908Y-34912164D01*
X4181241Y-34950502D01*
X4171240Y-34979395D01*
X4141792Y-35002176D01*
X4085674Y-35008843D01*
X4029556Y-35002176D01*
X4000108Y-34978839D01*
X3990106Y-34949391D01*
X3988439Y-34911053D01*
X3990106Y-34872715D01*
X3999552Y-34844378D01*
X4029000Y-34821875D01*
X4086229Y-34814374D01*
X4142348Y-34821875D01*
G37*
G36*
X4161794Y-35107744D02*
G01*
X4181797Y-35155528D01*
X4182908Y-35187754D01*
X4182908Y-35576692D01*
X4181241Y-35615030D01*
X4170684Y-35644478D01*
X4142070Y-35666148D01*
X4085118Y-35673371D01*
X4028722Y-35665870D01*
X3999552Y-35643367D01*
X3990106Y-35614474D01*
X3988439Y-35575581D01*
X3988439Y-35185532D01*
X3990106Y-35147194D01*
X3999552Y-35117746D01*
X4029000Y-35096076D01*
X4086229Y-35088853D01*
X4161794Y-35107744D01*
G37*
G36*
X7961158Y-35084408D02*
G01*
X7980605Y-35102744D01*
X7998941Y-35133303D01*
X8041724Y-35206090D01*
X8077839Y-35267270D01*
X8112844Y-35325611D01*
X8146737Y-35381112D01*
X8164517Y-35337912D01*
X8206744Y-35243872D01*
X8248555Y-35152333D01*
X8265085Y-35116634D01*
X8277864Y-35097743D01*
X8318425Y-35078852D01*
X8380099Y-35094409D01*
X8429272Y-35126358D01*
X8445663Y-35164418D01*
X8436773Y-35202201D01*
X8427883Y-35221092D01*
X8136736Y-35872284D01*
X8121734Y-35904511D01*
X8102287Y-35925624D01*
X8068949Y-35935626D01*
X8010053Y-35918957D01*
X7960880Y-35887286D01*
X7944489Y-35850059D01*
X7951157Y-35824153D01*
X7971159Y-35773105D01*
X8004497Y-35696915D01*
X8051169Y-35595583D01*
X7830031Y-35223314D01*
X7807806Y-35168863D01*
X7822808Y-35133303D01*
X7867813Y-35097743D01*
X7926709Y-35075518D01*
X7961158Y-35084408D01*
G37*
G36*
X5317433Y-35097187D02*
G01*
X5379107Y-35125524D01*
X5432509Y-35172752D01*
X5473563Y-35233563D01*
X5498196Y-35302645D01*
X5506407Y-35380001D01*
X5506407Y-35575581D01*
X5504740Y-35613919D01*
X5495294Y-35642256D01*
X5465846Y-35664758D01*
X5408617Y-35672259D01*
X5346387Y-35661980D01*
X5317494Y-35631143D01*
X5310827Y-35574469D01*
X5310827Y-35378889D01*
X5284713Y-35307769D01*
X5214704Y-35282211D01*
X5143584Y-35308881D01*
X5116358Y-35378889D01*
X5116358Y-35575581D01*
X5114691Y-35613919D01*
X5104134Y-35642256D01*
X5075520Y-35664758D01*
X5018568Y-35672259D01*
X4962172Y-35664758D01*
X4933002Y-35642256D01*
X4923556Y-35612807D01*
X4921889Y-35574469D01*
X4921889Y-35181087D01*
X4923556Y-35143860D01*
X4934113Y-35115523D01*
X4963283Y-35094687D01*
X5019679Y-35087742D01*
X5074408Y-35094132D01*
X5103023Y-35113301D01*
X5114136Y-35158862D01*
X5134138Y-35136637D01*
X5164142Y-35113301D01*
X5247486Y-35087742D01*
X5317433Y-35097187D01*
G37*
G36*
X2123762Y-35672259D02*
G01*
X2068755Y-35665314D01*
X2039307Y-35644478D01*
X2025972Y-35573358D01*
X2025972Y-35055516D01*
X2222663Y-35055516D01*
X2222663Y-35475568D01*
X2330454Y-35475568D01*
X2406575Y-35460705D01*
X2474917Y-35416116D01*
X2523256Y-35349025D01*
X2539369Y-35266653D01*
X2523673Y-35184004D01*
X2476584Y-35116079D01*
X2408381Y-35070656D01*
X2329343Y-35055516D01*
X2222663Y-35055516D01*
X2025972Y-35055516D01*
X2025972Y-34955503D01*
X2027639Y-34916609D01*
X2038196Y-34887717D01*
X2067644Y-34865214D01*
X2124873Y-34857713D01*
X2330454Y-34858824D01*
X2408589Y-34866082D01*
X2481862Y-34887856D01*
X2550274Y-34924145D01*
X2613823Y-34974950D01*
X2667302Y-35036347D01*
X2705501Y-35104411D01*
X2728421Y-35179142D01*
X2736061Y-35260541D01*
X2728594Y-35342253D01*
X2706196Y-35417922D01*
X2668865Y-35487549D01*
X2616601Y-35551133D01*
X2553711Y-35604126D01*
X2484501Y-35641978D01*
X2408971Y-35664689D01*
X2327121Y-35672259D01*
X2222663Y-35672259D01*
X2123762Y-35672259D01*
G37*
G36*
X6485418Y-35671148D02*
G01*
X6420719Y-35661456D01*
X6359970Y-35632378D01*
X6303173Y-35583915D01*
X6257488Y-35522549D01*
X6230078Y-35454763D01*
X6221009Y-35381112D01*
X6415409Y-35381112D01*
X6444302Y-35447787D01*
X6514311Y-35477791D01*
X6582653Y-35447787D01*
X6609878Y-35381667D01*
X6583764Y-35314437D01*
X6513199Y-35283322D01*
X6442079Y-35313881D01*
X6415409Y-35381112D01*
X6221009Y-35381112D01*
X6220941Y-35380556D01*
X6230139Y-35306288D01*
X6257735Y-35238316D01*
X6303729Y-35176642D01*
X6360711Y-35127870D01*
X6421274Y-35098607D01*
X6485418Y-35088853D01*
X6558483Y-35102744D01*
X6613212Y-35144416D01*
X6613212Y-34911053D01*
X6614879Y-34872715D01*
X6624880Y-34843822D01*
X6654328Y-34821042D01*
X6710446Y-34814374D01*
X6766564Y-34821042D01*
X6796013Y-34844378D01*
X6806014Y-34873826D01*
X6807681Y-34912164D01*
X6807681Y-35575581D01*
X6806014Y-35613919D01*
X6795457Y-35642256D01*
X6763647Y-35664758D01*
X6701556Y-35672259D01*
X6641410Y-35658647D01*
X6615434Y-35617808D01*
X6559594Y-35657813D01*
X6514311Y-35665954D01*
X6485418Y-35671148D01*
G37*
G36*
X7423591Y-35657813D02*
G01*
X7369973Y-35617808D01*
X7341636Y-35658647D01*
X7274406Y-35672259D01*
X7218010Y-35664758D01*
X7188839Y-35642256D01*
X7179394Y-35612807D01*
X7177727Y-35574469D01*
X7177727Y-35381667D01*
X7374418Y-35381667D01*
X7401644Y-35447787D01*
X7469986Y-35477791D01*
X7539994Y-35447787D01*
X7568887Y-35381112D01*
X7542217Y-35313881D01*
X7471097Y-35283322D01*
X7400533Y-35314437D01*
X7374418Y-35381667D01*
X7177727Y-35381667D01*
X7177727Y-34911053D01*
X7179394Y-34872715D01*
X7188839Y-34844378D01*
X7218288Y-34821875D01*
X7275517Y-34814374D01*
X7331635Y-34821875D01*
X7359972Y-34844378D01*
X7370529Y-34873826D01*
X7372196Y-34912164D01*
X7372196Y-35143304D01*
X7426091Y-35102466D01*
X7498878Y-35088853D01*
X7563022Y-35098607D01*
X7623585Y-35127870D01*
X7680568Y-35176642D01*
X7726561Y-35238316D01*
X7754157Y-35306288D01*
X7763356Y-35380556D01*
X7754219Y-35454763D01*
X7726808Y-35522549D01*
X7681123Y-35583915D01*
X7624943Y-35632378D01*
X7566047Y-35661456D01*
X7504434Y-35671148D01*
X7469986Y-35665466D01*
X7423591Y-35657813D01*
G37*
G36*
X3000538Y-35444453D02*
G01*
X3037209Y-35496682D01*
X3110552Y-35517796D01*
X3168059Y-35514462D01*
X3211676Y-35504461D01*
X3223899Y-35500016D01*
X3268349Y-35487792D01*
X3329468Y-35537798D01*
X3343914Y-35588916D01*
X3329121Y-35632185D01*
X3284740Y-35663092D01*
X3210773Y-35681636D01*
X3107218Y-35687817D01*
X3029570Y-35680733D01*
X2961089Y-35659480D01*
X2904276Y-35626559D01*
X2861632Y-35584471D01*
X2822738Y-35522117D01*
X2799402Y-35455072D01*
X2791623Y-35383334D01*
X2796244Y-35343329D01*
X2998316Y-35343329D01*
X3138333Y-35343329D01*
X3180561Y-35307769D01*
X3161114Y-35266653D01*
X3105551Y-35251096D01*
X3033876Y-35280544D01*
X2998316Y-35343329D01*
X2796244Y-35343329D01*
X2801686Y-35296225D01*
X2831875Y-35221586D01*
X2882190Y-35159417D01*
X2947569Y-35112807D01*
X3022948Y-35084840D01*
X3108329Y-35075518D01*
X3180422Y-35082325D01*
X3242235Y-35102744D01*
X3293769Y-35136776D01*
X3335024Y-35184421D01*
X3363361Y-35244845D01*
X3372807Y-35310548D01*
X3364334Y-35369999D01*
X3338914Y-35411671D01*
X3263904Y-35444453D01*
X3138333Y-35444453D01*
X3000538Y-35444453D01*
G37*
G36*
X3769523Y-35086075D02*
G01*
X3851756Y-35114412D01*
X3890649Y-35158862D01*
X3866202Y-35224426D01*
X3816196Y-35263319D01*
X3766745Y-35246651D01*
X3688402Y-35229982D01*
X3622838Y-35254429D01*
X3641729Y-35281933D01*
X3698403Y-35297768D01*
X3770634Y-35312214D01*
X3840643Y-35339996D01*
X3894539Y-35393891D01*
X3910791Y-35437091D01*
X3916208Y-35490014D01*
X3910791Y-35543493D01*
X3894539Y-35588360D01*
X3833976Y-35648923D01*
X3782549Y-35668061D01*
X3723098Y-35679544D01*
X3655620Y-35683372D01*
X3585056Y-35676457D01*
X3516343Y-35655714D01*
X3449483Y-35621142D01*
X3428369Y-35578914D01*
X3438926Y-35542521D01*
X3470597Y-35491126D01*
X3510046Y-35472234D01*
X3583944Y-35499460D01*
X3668399Y-35526686D01*
X3719239Y-35520018D01*
X3736186Y-35500016D01*
X3717572Y-35481680D01*
X3661732Y-35468901D01*
X3592001Y-35450843D01*
X3522826Y-35416672D01*
X3469486Y-35353886D01*
X3453650Y-35307075D01*
X3448372Y-35252207D01*
X3458018Y-35188999D01*
X3486954Y-35139837D01*
X3535183Y-35104722D01*
X3602702Y-35083652D01*
X3689513Y-35076629D01*
X3769523Y-35086075D01*
G37*
G36*
X5787553Y-35444453D02*
G01*
X5824224Y-35496682D01*
X5897567Y-35517796D01*
X5955074Y-35514462D01*
X5998691Y-35504461D01*
X6010914Y-35500016D01*
X6055364Y-35487792D01*
X6116483Y-35537798D01*
X6130929Y-35588916D01*
X6116136Y-35632185D01*
X6071755Y-35663092D01*
X5997788Y-35681636D01*
X5894233Y-35687817D01*
X5816585Y-35680733D01*
X5748104Y-35659480D01*
X5691291Y-35626559D01*
X5648647Y-35584471D01*
X5609753Y-35522117D01*
X5586417Y-35455072D01*
X5578638Y-35383334D01*
X5583259Y-35343329D01*
X5785331Y-35343329D01*
X5925348Y-35343329D01*
X5967576Y-35307769D01*
X5948129Y-35266653D01*
X5892566Y-35251096D01*
X5820891Y-35280544D01*
X5785331Y-35343329D01*
X5583259Y-35343329D01*
X5588701Y-35296225D01*
X5618890Y-35221586D01*
X5669205Y-35159417D01*
X5734584Y-35112807D01*
X5809963Y-35084840D01*
X5895344Y-35075518D01*
X5967437Y-35082325D01*
X6029250Y-35102744D01*
X6080784Y-35136776D01*
X6122039Y-35184421D01*
X6150376Y-35244845D01*
X6159822Y-35310548D01*
X6151349Y-35369999D01*
X6125929Y-35411671D01*
X6050919Y-35444453D01*
X5925348Y-35444453D01*
X5787553Y-35444453D01*
G37*
G36*
X4508504Y-35655591D02*
G01*
X4448312Y-35646145D01*
X4390712Y-35617808D01*
X4335705Y-35570580D01*
X4290946Y-35510758D01*
X4264091Y-35444638D01*
X4255208Y-35372777D01*
X4445163Y-35372777D01*
X4473500Y-35437786D01*
X4542398Y-35466678D01*
X4609628Y-35437230D01*
X4636298Y-35372777D01*
X4610739Y-35307214D01*
X4541842Y-35276654D01*
X4471833Y-35306658D01*
X4445163Y-35372777D01*
X4255208Y-35372777D01*
X4255139Y-35372222D01*
X4264153Y-35299744D01*
X4291193Y-35233439D01*
X4336261Y-35173308D01*
X4392070Y-35125771D01*
X4451337Y-35097249D01*
X4514061Y-35087742D01*
X4582958Y-35101632D01*
X4625741Y-35127191D01*
X4644077Y-35148861D01*
X4666858Y-35101632D01*
X4729643Y-35085519D01*
X4792984Y-35092187D01*
X4821321Y-35114967D01*
X4831323Y-35143304D01*
X4832989Y-35181087D01*
X4832989Y-35641144D01*
X4823112Y-35720846D01*
X4793478Y-35789558D01*
X4744089Y-35847281D01*
X4682353Y-35890805D01*
X4615678Y-35916920D01*
X4544064Y-35925624D01*
X4461554Y-35915345D01*
X4382933Y-35884508D01*
X4325426Y-35845337D01*
X4306257Y-35810054D01*
X4339594Y-35733378D01*
X4372376Y-35701152D01*
X4399602Y-35692262D01*
X4431828Y-35705597D01*
X4487391Y-35736434D01*
X4547398Y-35746713D01*
X4616296Y-35713376D01*
X4642966Y-35633366D01*
X4642966Y-35600028D01*
X4588237Y-35641700D01*
X4542398Y-35649686D01*
X4508504Y-35655591D01*
G37*
G04 #@! TO.C,C25*
X22578080Y-41260000D02*
X22296920Y-41260000D01*
X22578080Y-40240000D02*
X22296920Y-40240000D01*
G04 #@! TO.C,kibuzzard-6457AB78*
G36*
X4000810Y-20379845D02*
G01*
X4030337Y-20418262D01*
X4040180Y-20472555D01*
X4029702Y-20527165D01*
X3998270Y-20566535D01*
X3914450Y-20598285D01*
X3831900Y-20567170D01*
X3801420Y-20528435D01*
X3791260Y-20474460D01*
X3801102Y-20420326D01*
X3830630Y-20381115D01*
X3915720Y-20349365D01*
X4000810Y-20379845D01*
G37*
G36*
X4762810Y-20379845D02*
G01*
X4792338Y-20418262D01*
X4802180Y-20472555D01*
X4791703Y-20527165D01*
X4760270Y-20566535D01*
X4676450Y-20598285D01*
X4593900Y-20567170D01*
X4563420Y-20528435D01*
X4553260Y-20474460D01*
X4563102Y-20420326D01*
X4592630Y-20381115D01*
X4677720Y-20349365D01*
X4762810Y-20379845D01*
G37*
G36*
X3230555Y-20115685D02*
G01*
X3251510Y-20160135D01*
X3247700Y-20205855D01*
X3186740Y-20232525D01*
X3108635Y-20250305D01*
X3085140Y-20323330D01*
X3108000Y-20396355D01*
X3176580Y-20414135D01*
X3247700Y-20424295D01*
X3271195Y-20449695D01*
X3278180Y-20497955D01*
X3258177Y-20562725D01*
X3198170Y-20584315D01*
X2989890Y-20584315D01*
X2989890Y-20102985D01*
X3167690Y-20102985D01*
X3230555Y-20115685D01*
G37*
G36*
X4677720Y-21086388D02*
G01*
X3915720Y-21086388D01*
X3210870Y-21086388D01*
X2765100Y-21086388D01*
X2764994Y-21086388D01*
X2692815Y-21082842D01*
X2621332Y-21072239D01*
X2551232Y-21054680D01*
X2483191Y-21030334D01*
X2417863Y-20999437D01*
X2355879Y-20962285D01*
X2297834Y-20919236D01*
X2244289Y-20870705D01*
X2195758Y-20817160D01*
X2152710Y-20759115D01*
X2115558Y-20697131D01*
X2114458Y-20694805D01*
X2765100Y-20694805D01*
X2772720Y-20760845D01*
X2806375Y-20797040D01*
X2876860Y-20809105D01*
X3210870Y-20809105D01*
X3287282Y-20799580D01*
X3355650Y-20771005D01*
X3415975Y-20723380D01*
X3463177Y-20661644D01*
X3492175Y-20590736D01*
X3502970Y-20510655D01*
X3498964Y-20476365D01*
X3566470Y-20476365D01*
X3579964Y-20572726D01*
X3620445Y-20658610D01*
X3680611Y-20729412D01*
X3753160Y-20780530D01*
X3833170Y-20811486D01*
X3915720Y-20821805D01*
X3998111Y-20812121D01*
X4077645Y-20783070D01*
X4149876Y-20733540D01*
X4210360Y-20662420D01*
X4251317Y-20574631D01*
X4264796Y-20476365D01*
X4328470Y-20476365D01*
X4341964Y-20572726D01*
X4382445Y-20658610D01*
X4442611Y-20729412D01*
X4515160Y-20780530D01*
X4595170Y-20811486D01*
X4677720Y-20821805D01*
X4760111Y-20812121D01*
X4839645Y-20783070D01*
X4911876Y-20733540D01*
X4972360Y-20662420D01*
X5013317Y-20574631D01*
X5026970Y-20475095D01*
X5015258Y-20379492D01*
X4980121Y-20295884D01*
X4958427Y-20269355D01*
X5077770Y-20269355D01*
X5096185Y-20343015D01*
X5142540Y-20364605D01*
X5194610Y-20360795D01*
X5194610Y-20548755D01*
X5202230Y-20634409D01*
X5225090Y-20701719D01*
X5263190Y-20750685D01*
X5315966Y-20783846D01*
X5382852Y-20803743D01*
X5463850Y-20810375D01*
X5506395Y-20808470D01*
X5540050Y-20797675D01*
X5566720Y-20764337D01*
X5575610Y-20699885D01*
X5546400Y-20614795D01*
X5512745Y-20602730D01*
X5467025Y-20600825D01*
X5426385Y-20585585D01*
X5415590Y-20536055D01*
X5415590Y-20360795D01*
X5498140Y-20365875D01*
X5541955Y-20363970D01*
X5575610Y-20353175D01*
X5601327Y-20319837D01*
X5609900Y-20255385D01*
X5601645Y-20190297D01*
X5576880Y-20157595D01*
X5543225Y-20145530D01*
X5500045Y-20143625D01*
X5415590Y-20148705D01*
X5415590Y-20024245D01*
X5409240Y-19959475D01*
X5375267Y-19924232D01*
X5306370Y-19912485D01*
X5241283Y-19920422D01*
X5208580Y-19944235D01*
X5196515Y-19974715D01*
X5194610Y-20017895D01*
X5194610Y-20148705D01*
X5152700Y-20143625D01*
X5101900Y-20160135D01*
X5084120Y-20193790D01*
X5077770Y-20269355D01*
X4958427Y-20269355D01*
X4921560Y-20224270D01*
X4847759Y-20169589D01*
X4766902Y-20136781D01*
X4678990Y-20125845D01*
X4590937Y-20136852D01*
X4509657Y-20169872D01*
X4435150Y-20224905D01*
X4375883Y-20296872D01*
X4340323Y-20380692D01*
X4328470Y-20476365D01*
X4264796Y-20476365D01*
X4264970Y-20475095D01*
X4253258Y-20379492D01*
X4218121Y-20295884D01*
X4159560Y-20224270D01*
X4085759Y-20169589D01*
X4004902Y-20136781D01*
X3916990Y-20125845D01*
X3828937Y-20136852D01*
X3747657Y-20169872D01*
X3673150Y-20224905D01*
X3613883Y-20296872D01*
X3578323Y-20380692D01*
X3566470Y-20476365D01*
X3498964Y-20476365D01*
X3494644Y-20439394D01*
X3469668Y-20372931D01*
X3428040Y-20311265D01*
X3464235Y-20237922D01*
X3476300Y-20157595D01*
X3467128Y-20084217D01*
X3439611Y-20018177D01*
X3393750Y-19959475D01*
X3337023Y-19914319D01*
X3271830Y-19887226D01*
X3198170Y-19878195D01*
X2878130Y-19878195D01*
X2812725Y-19886767D01*
X2779070Y-19912485D01*
X2767005Y-19945505D01*
X2765100Y-19989955D01*
X2765100Y-20694805D01*
X2114458Y-20694805D01*
X2084660Y-20631804D01*
X2060314Y-20563762D01*
X2042755Y-20493662D01*
X2032152Y-20422179D01*
X2028606Y-20350000D01*
X2032152Y-20277821D01*
X2042755Y-20206338D01*
X2060314Y-20136238D01*
X2084660Y-20068196D01*
X2115558Y-20002869D01*
X2152710Y-19940885D01*
X2195758Y-19882840D01*
X2244289Y-19829295D01*
X2297834Y-19780764D01*
X2355879Y-19737715D01*
X2417863Y-19700563D01*
X2483191Y-19669666D01*
X2551232Y-19645320D01*
X2621332Y-19627761D01*
X2692815Y-19617158D01*
X2764994Y-19613612D01*
X2765100Y-19613612D01*
X5609900Y-19613612D01*
X5610006Y-19613612D01*
X5682185Y-19617158D01*
X5753668Y-19627761D01*
X5823768Y-19645320D01*
X5891809Y-19669666D01*
X5957137Y-19700563D01*
X6019121Y-19737715D01*
X6077166Y-19780764D01*
X6130711Y-19829295D01*
X6179242Y-19882840D01*
X6222290Y-19940885D01*
X6259442Y-20002869D01*
X6290340Y-20068196D01*
X6314686Y-20136238D01*
X6332245Y-20206338D01*
X6342848Y-20277821D01*
X6346394Y-20350000D01*
X6342848Y-20422179D01*
X6332245Y-20493662D01*
X6314686Y-20563762D01*
X6290340Y-20631804D01*
X6259442Y-20697131D01*
X6222290Y-20759115D01*
X6179242Y-20817160D01*
X6130711Y-20870705D01*
X6077166Y-20919236D01*
X6019121Y-20962285D01*
X5957137Y-20999437D01*
X5891809Y-21030334D01*
X5823768Y-21054680D01*
X5753668Y-21072239D01*
X5682185Y-21082842D01*
X5610006Y-21086388D01*
X5609900Y-21086388D01*
X5463850Y-21086388D01*
X4677720Y-21086388D01*
G37*
G04 #@! TO.C,J1*
X5837500Y-8295000D02*
X3917500Y-8295000D01*
X202500Y-8295000D02*
X1907500Y-8295000D01*
X3917500Y-17455000D02*
X5837500Y-17455000D01*
X1907500Y-17455000D02*
X202500Y-17455000D01*
X202500Y-17455000D02*
X202500Y-8295000D01*
G04 #@! TO.C,R14*
X11550242Y-13152500D02*
X12024758Y-13152500D01*
X11550242Y-14197500D02*
X12024758Y-14197500D01*
G04 #@! TO.C,C13*
X35821921Y-15165000D02*
X36103081Y-15165000D01*
X35821921Y-16185000D02*
X36103081Y-16185000D01*
G04 #@! TO.C,kibuzzard-6457ABE9*
G36*
X35145305Y-9035369D02*
G01*
X35166895Y-9095377D01*
X35166895Y-9303657D01*
X34685565Y-9303657D01*
X34685565Y-9125857D01*
X34698265Y-9062992D01*
X34742715Y-9042037D01*
X34788435Y-9045847D01*
X34815105Y-9106807D01*
X34832885Y-9184912D01*
X34905910Y-9208407D01*
X34978935Y-9185547D01*
X34996715Y-9116967D01*
X35006875Y-9045847D01*
X35032275Y-9022352D01*
X35080535Y-9015367D01*
X35145305Y-9035369D01*
G37*
G36*
X35672778Y-7467237D02*
G01*
X35672778Y-8299722D01*
X35672778Y-9082677D01*
X35672778Y-10069467D01*
X35672778Y-10554607D01*
X35672778Y-11067237D01*
X34182222Y-11067237D01*
X34182222Y-10554607D01*
X34182222Y-10415542D01*
X34454425Y-10415542D01*
X34476015Y-10479677D01*
X34514750Y-10535874D01*
X34557295Y-10554607D01*
X34618255Y-10535557D01*
X35329455Y-10185037D01*
X35374540Y-10142492D01*
X35391685Y-10082167D01*
X35391685Y-10069467D01*
X35374540Y-10010412D01*
X35329455Y-9967867D01*
X34618255Y-9617347D01*
X34557295Y-9598297D01*
X34514750Y-9617029D01*
X34476015Y-9673227D01*
X34454425Y-9748157D01*
X34488715Y-9804037D01*
X34526815Y-9821817D01*
X35083075Y-10075817D01*
X35053706Y-10089628D01*
X34985920Y-10120902D01*
X34896226Y-10162177D01*
X34801135Y-10205992D01*
X34706044Y-10249648D01*
X34616350Y-10290447D01*
X34546500Y-10322356D01*
X34510940Y-10339342D01*
X34477285Y-10360297D01*
X34459505Y-10381887D01*
X34454425Y-10415542D01*
X34182222Y-10415542D01*
X34182222Y-9415417D01*
X34460775Y-9415417D01*
X34469347Y-9480822D01*
X34495065Y-9514477D01*
X34528085Y-9526542D01*
X34572535Y-9528447D01*
X35277385Y-9528447D01*
X35343425Y-9520827D01*
X35379620Y-9487172D01*
X35391685Y-9416687D01*
X35391685Y-9082677D01*
X35382160Y-9006265D01*
X35353585Y-8937897D01*
X35305960Y-8877572D01*
X35244224Y-8830370D01*
X35173316Y-8801372D01*
X35093235Y-8790577D01*
X35021974Y-8798903D01*
X34955511Y-8823879D01*
X34893845Y-8865507D01*
X34820502Y-8829312D01*
X34740175Y-8817247D01*
X34666797Y-8826419D01*
X34600757Y-8853936D01*
X34542055Y-8899797D01*
X34496899Y-8956524D01*
X34469806Y-9021717D01*
X34460775Y-9095377D01*
X34460775Y-9415417D01*
X34182222Y-9415417D01*
X34182222Y-8594997D01*
X34460775Y-8594997D01*
X34468395Y-8659767D01*
X34495065Y-8694057D01*
X34528720Y-8706122D01*
X34573805Y-8708027D01*
X34956075Y-8708027D01*
X35038943Y-8701598D01*
X35117365Y-8682309D01*
X35191343Y-8650163D01*
X35260875Y-8605157D01*
X35320565Y-8548166D01*
X35367555Y-8476252D01*
X35398035Y-8392432D01*
X35408195Y-8299722D01*
X35398194Y-8206853D01*
X35368190Y-8122557D01*
X35321994Y-8049849D01*
X35263415Y-7991747D01*
X35192930Y-7946186D01*
X35118635Y-7913642D01*
X35040530Y-7894116D01*
X34958615Y-7887607D01*
X34575075Y-7887607D01*
X34509035Y-7895227D01*
X34482365Y-7911737D01*
X34467125Y-7944757D01*
X34460775Y-8002542D01*
X34468395Y-8062867D01*
X34496335Y-8099697D01*
X34566185Y-8112397D01*
X34954805Y-8112397D01*
X35039577Y-8123827D01*
X35113555Y-8158117D01*
X35164990Y-8215584D01*
X35182135Y-8296547D01*
X35160545Y-8386717D01*
X35103395Y-8443867D01*
X35031640Y-8472442D01*
X34956075Y-8481967D01*
X34575075Y-8481967D01*
X34495065Y-8497207D01*
X34468395Y-8530227D01*
X34460775Y-8594997D01*
X34182222Y-8594997D01*
X34182222Y-7478667D01*
X34446805Y-7478667D01*
X34456048Y-7567638D01*
X34483776Y-7643203D01*
X34529990Y-7705362D01*
X34588622Y-7751576D01*
X34653603Y-7779304D01*
X34724935Y-7788547D01*
X34800341Y-7780451D01*
X34864000Y-7756162D01*
X34914006Y-7719808D01*
X34948455Y-7675517D01*
X34973379Y-7625352D01*
X34994810Y-7571377D01*
X35011796Y-7517402D01*
X35023385Y-7467237D01*
X35051960Y-7386592D01*
X35100855Y-7354207D01*
X35154477Y-7367330D01*
X35186651Y-7406700D01*
X35197375Y-7472317D01*
X35177690Y-7533277D01*
X35136415Y-7584077D01*
X35088790Y-7640592D01*
X35072915Y-7683137D01*
X35103395Y-7750447D01*
X35151496Y-7791404D01*
X35189120Y-7805057D01*
X35262145Y-7772037D01*
X35276115Y-7760607D01*
X35314850Y-7723777D01*
X35354855Y-7666627D01*
X35391050Y-7580267D01*
X35402004Y-7525339D01*
X35405655Y-7467237D01*
X35398176Y-7390896D01*
X35375739Y-7317659D01*
X35338345Y-7247527D01*
X35296911Y-7199267D01*
X35241190Y-7161167D01*
X35173404Y-7136402D01*
X35095775Y-7128147D01*
X35019734Y-7136243D01*
X34956710Y-7160532D01*
X34908609Y-7196886D01*
X34877335Y-7241177D01*
X34856221Y-7291659D01*
X34838600Y-7346587D01*
X34824789Y-7401514D01*
X34815105Y-7451997D01*
X34785895Y-7532642D01*
X34729380Y-7565027D01*
X34674770Y-7537722D01*
X34655085Y-7469142D01*
X34671595Y-7401197D01*
X34688105Y-7381512D01*
X34700805Y-7366907D01*
X34726205Y-7300867D01*
X34710330Y-7255782D01*
X34662705Y-7211967D01*
X34592855Y-7181487D01*
X34530625Y-7220857D01*
X34506495Y-7252607D01*
X34466490Y-7339602D01*
X34451726Y-7405801D01*
X34446805Y-7478667D01*
X34182222Y-7478667D01*
X34182222Y-7128147D01*
X34182222Y-7128041D01*
X34185810Y-7054991D01*
X34196542Y-6982645D01*
X34214313Y-6911698D01*
X34238953Y-6842835D01*
X34270223Y-6776719D01*
X34307824Y-6713987D01*
X34351392Y-6655242D01*
X34400509Y-6601050D01*
X34454700Y-6551933D01*
X34513446Y-6508365D01*
X34576178Y-6470764D01*
X34642294Y-6439494D01*
X34711157Y-6414854D01*
X34782103Y-6397083D01*
X34854450Y-6386352D01*
X34927500Y-6382763D01*
X35000550Y-6386352D01*
X35072897Y-6397083D01*
X35143843Y-6414854D01*
X35212706Y-6439494D01*
X35278822Y-6470764D01*
X35341554Y-6508365D01*
X35400300Y-6551933D01*
X35454491Y-6601050D01*
X35503608Y-6655242D01*
X35547176Y-6713987D01*
X35584777Y-6776719D01*
X35616047Y-6842835D01*
X35640687Y-6911698D01*
X35658458Y-6982645D01*
X35669190Y-7054991D01*
X35672778Y-7128041D01*
X35672778Y-7128147D01*
X35672778Y-7467237D01*
G37*
G04 #@! TO.C,SW7*
X3187500Y-28400000D02*
X5187500Y-28400000D01*
X1887500Y-27350000D02*
X1437500Y-26900000D01*
X6487500Y-27350000D02*
X6937500Y-26900000D01*
X1437500Y-26900000D02*
X1437500Y-24400000D01*
X6937500Y-26900000D02*
X6937500Y-24400000D01*
X1887500Y-23950000D02*
X1437500Y-24400000D01*
X6487500Y-23950000D02*
X6937500Y-24400000D01*
X3187500Y-22900000D02*
X5187500Y-22900000D01*
G04 #@! TO.C,kibuzzard-6457AC15*
G36*
X40148544Y-7992412D02*
G01*
X40225220Y-8047657D01*
X40276179Y-8125762D01*
X40293165Y-8212757D01*
X40293165Y-8335947D01*
X39813105Y-8335947D01*
X39813105Y-8214027D01*
X39830409Y-8123698D01*
X39882320Y-8045752D01*
X39959949Y-7991936D01*
X40054405Y-7973997D01*
X40148544Y-7992412D01*
G37*
G36*
X40796508Y-5476542D02*
G01*
X40796508Y-6235367D01*
X40796508Y-7199932D01*
X40796508Y-8216567D01*
X40796508Y-8996982D01*
X40796508Y-10251107D01*
X40796508Y-10588927D01*
X40796508Y-11101557D01*
X39308492Y-11101557D01*
X39308492Y-10588927D01*
X39308492Y-10262537D01*
X39573075Y-10262537D01*
X39582318Y-10351508D01*
X39610046Y-10427073D01*
X39656260Y-10489232D01*
X39714892Y-10535446D01*
X39779873Y-10563174D01*
X39851205Y-10572417D01*
X39926611Y-10564321D01*
X39990270Y-10540032D01*
X40040276Y-10503678D01*
X40074725Y-10459387D01*
X40099649Y-10409222D01*
X40121080Y-10355247D01*
X40138066Y-10301272D01*
X40149655Y-10251107D01*
X40178230Y-10170462D01*
X40227125Y-10138077D01*
X40280747Y-10151200D01*
X40312921Y-10190570D01*
X40323645Y-10256187D01*
X40303960Y-10317147D01*
X40262685Y-10367947D01*
X40215060Y-10424462D01*
X40199185Y-10467007D01*
X40229665Y-10534317D01*
X40277766Y-10575274D01*
X40315390Y-10588927D01*
X40388415Y-10555907D01*
X40402385Y-10544477D01*
X40441120Y-10507647D01*
X40481125Y-10450497D01*
X40517320Y-10364137D01*
X40528274Y-10309209D01*
X40531925Y-10251107D01*
X40524446Y-10174766D01*
X40502009Y-10101529D01*
X40464615Y-10031397D01*
X40423181Y-9983137D01*
X40367460Y-9945037D01*
X40299674Y-9920272D01*
X40222045Y-9912017D01*
X40146004Y-9920113D01*
X40082980Y-9944402D01*
X40034879Y-9980756D01*
X40003605Y-10025047D01*
X39982491Y-10075529D01*
X39964870Y-10130457D01*
X39951059Y-10185384D01*
X39941375Y-10235867D01*
X39912165Y-10316512D01*
X39855650Y-10348897D01*
X39801040Y-10321592D01*
X39781355Y-10253012D01*
X39797865Y-10185067D01*
X39814375Y-10165382D01*
X39827075Y-10150777D01*
X39852475Y-10084737D01*
X39836600Y-10039652D01*
X39788975Y-9995837D01*
X39719125Y-9965357D01*
X39656895Y-10004727D01*
X39632765Y-10036477D01*
X39592760Y-10123472D01*
X39577996Y-10189671D01*
X39573075Y-10262537D01*
X39308492Y-10262537D01*
X39308492Y-8775367D01*
X39580695Y-8775367D01*
X39594030Y-8817912D01*
X39621335Y-8841407D01*
X39664515Y-8857917D01*
X40091235Y-8997617D01*
X39650545Y-9143667D01*
X39609270Y-9179227D01*
X39588315Y-9239552D01*
X39597205Y-9292257D01*
X39625780Y-9331944D01*
X39670865Y-9357027D01*
X40088695Y-9495457D01*
X39664515Y-9635157D01*
X39602285Y-9663732D01*
X39581965Y-9709452D01*
X39594665Y-9776127D01*
X39629272Y-9839944D01*
X39674675Y-9861217D01*
X39736905Y-9847247D01*
X40441755Y-9602137D01*
X40460805Y-9593247D01*
X40498905Y-9558322D01*
X40517955Y-9491647D01*
X40488745Y-9421797D01*
X40463345Y-9401477D01*
X40441755Y-9390047D01*
X40422349Y-9383494D01*
X40370229Y-9365866D01*
X40285393Y-9337164D01*
X40167841Y-9297388D01*
X40017575Y-9246537D01*
X40455725Y-9097947D01*
X40497000Y-9061752D01*
X40517955Y-8996982D01*
X40497000Y-8932212D01*
X40463345Y-8898557D01*
X40441755Y-8889667D01*
X39736905Y-8645827D01*
X39674675Y-8630587D01*
X39628955Y-8651859D01*
X39593395Y-8715677D01*
X39580695Y-8775367D01*
X39308492Y-8775367D01*
X39308492Y-8447707D01*
X39587045Y-8447707D01*
X39595617Y-8513112D01*
X39621335Y-8546767D01*
X39654355Y-8558832D01*
X39698805Y-8560737D01*
X40404925Y-8560737D01*
X40486205Y-8545497D01*
X40510018Y-8511842D01*
X40517955Y-8448977D01*
X40517955Y-8216567D01*
X40509303Y-8123024D01*
X40483348Y-8036703D01*
X40440088Y-7957606D01*
X40379525Y-7885732D01*
X40306857Y-7826002D01*
X40227284Y-7783338D01*
X40140805Y-7757740D01*
X40047420Y-7749207D01*
X39954393Y-7757938D01*
X39868985Y-7784132D01*
X39791197Y-7827788D01*
X39721030Y-7888907D01*
X39662967Y-7961535D01*
X39621494Y-8039719D01*
X39596610Y-8123460D01*
X39588315Y-8212757D01*
X39587045Y-8447707D01*
X39308492Y-8447707D01*
X39308492Y-7200567D01*
X39579425Y-7200567D01*
X39587045Y-7284246D01*
X39609905Y-7367643D01*
X39648005Y-7450757D01*
X39687851Y-7513146D01*
X39736270Y-7568232D01*
X39795960Y-7615063D01*
X39869620Y-7652687D01*
X39954869Y-7677452D01*
X40049325Y-7685707D01*
X40144734Y-7677293D01*
X40232840Y-7652052D01*
X40309675Y-7613793D01*
X40371270Y-7566327D01*
X40421118Y-7510923D01*
X40462710Y-7448852D01*
X40494778Y-7384399D01*
X40516050Y-7321852D01*
X40527956Y-7260574D01*
X40531925Y-7199932D01*
X40526845Y-7138496D01*
X40511605Y-7074837D01*
X40478585Y-6989112D01*
X40451915Y-6945297D01*
X40420165Y-6905292D01*
X40375715Y-6888147D01*
X40304595Y-6916087D01*
X40251255Y-6960219D01*
X40233475Y-7001177D01*
X40258875Y-7062137D01*
X40275385Y-7084997D01*
X40295705Y-7135162D01*
X40305865Y-7209457D01*
X40291895Y-7291689D01*
X40249985Y-7370747D01*
X40169975Y-7435517D01*
X40115841Y-7454567D01*
X40055040Y-7460917D01*
X39994239Y-7454567D01*
X39940105Y-7435517D01*
X39861365Y-7372017D01*
X39818502Y-7291372D01*
X39804215Y-7209457D01*
X39815010Y-7129447D01*
X39847395Y-7067217D01*
X39875335Y-7002447D01*
X39858190Y-6960537D01*
X39806755Y-6913547D01*
X39736270Y-6886877D01*
X39675945Y-6919897D01*
X39653085Y-6955457D01*
X39635305Y-6985937D01*
X39597840Y-7079282D01*
X39584029Y-7140401D01*
X39579425Y-7200567D01*
X39308492Y-7200567D01*
X39308492Y-6691297D01*
X39588315Y-6691297D01*
X39596887Y-6756702D01*
X39622605Y-6790357D01*
X39656260Y-6802422D01*
X39700075Y-6804327D01*
X40406195Y-6804327D01*
X40470965Y-6796707D01*
X40507160Y-6763052D01*
X40519225Y-6692567D01*
X40519225Y-6235367D01*
X40506525Y-6169327D01*
X40478585Y-6147737D01*
X40424610Y-6141387D01*
X40370635Y-6147737D01*
X40340790Y-6173137D01*
X40331265Y-6234097D01*
X40331265Y-6579537D01*
X39701345Y-6579537D01*
X39635305Y-6585887D01*
X39600063Y-6620494D01*
X39588315Y-6691297D01*
X39308492Y-6691297D01*
X39308492Y-5477177D01*
X39573075Y-5477177D01*
X39625145Y-5554647D01*
X39677723Y-5599961D01*
X39735889Y-5650557D01*
X39799643Y-5706437D01*
X39868985Y-5767601D01*
X39943915Y-5834047D01*
X39701345Y-5834047D01*
X39635305Y-5840397D01*
X39600063Y-5875004D01*
X39588315Y-5945807D01*
X39596887Y-6011212D01*
X39622605Y-6044867D01*
X39656260Y-6056932D01*
X39700075Y-6058837D01*
X40406195Y-6058837D01*
X40470965Y-6051217D01*
X40507160Y-6017562D01*
X40519225Y-5947077D01*
X40510653Y-5881672D01*
X40484935Y-5848017D01*
X40451915Y-5835952D01*
X40407465Y-5834047D01*
X40159815Y-5834047D01*
X40478585Y-5554647D01*
X40531925Y-5476542D01*
X40488110Y-5393357D01*
X40411910Y-5342557D01*
X40332535Y-5384467D01*
X40279751Y-5432171D01*
X40215377Y-5494004D01*
X40139416Y-5569966D01*
X40051865Y-5660057D01*
X40003605Y-5609257D01*
X39933279Y-5536867D01*
X39870890Y-5474637D01*
X39816439Y-5422567D01*
X39769925Y-5380657D01*
X39693090Y-5342557D01*
X39616890Y-5393357D01*
X39573075Y-5477177D01*
X39308492Y-5477177D01*
X39308492Y-5342557D01*
X39308492Y-5342451D01*
X39312074Y-5269526D01*
X39322788Y-5197302D01*
X39340528Y-5126477D01*
X39365126Y-5057731D01*
X39396343Y-4991728D01*
X39433880Y-4929102D01*
X39477374Y-4870457D01*
X39526407Y-4816358D01*
X39580506Y-4767325D01*
X39639151Y-4723831D01*
X39701777Y-4686294D01*
X39767780Y-4655077D01*
X39836526Y-4630480D01*
X39907351Y-4612739D01*
X39979574Y-4602025D01*
X40052500Y-4598443D01*
X40125426Y-4602025D01*
X40197649Y-4612739D01*
X40268474Y-4630480D01*
X40337220Y-4655077D01*
X40403223Y-4686294D01*
X40465849Y-4723831D01*
X40524494Y-4767325D01*
X40578593Y-4816358D01*
X40627626Y-4870457D01*
X40671120Y-4929102D01*
X40708657Y-4991728D01*
X40739874Y-5057731D01*
X40764472Y-5126477D01*
X40782212Y-5197302D01*
X40792926Y-5269526D01*
X40796508Y-5342451D01*
X40796508Y-5342557D01*
X40796508Y-5476542D01*
G37*
G04 #@! TO.C,R6*
X32885000Y-44362742D02*
X32885000Y-44837258D01*
X31840000Y-44362742D02*
X31840000Y-44837258D01*
G04 #@! TO.C,R11*
X10410000Y-25537742D02*
X10410000Y-26012258D01*
X9365000Y-25537742D02*
X9365000Y-26012258D01*
G04 #@! TO.C,D1*
X27722500Y-8965000D02*
X26252500Y-8965000D01*
X26252500Y-8965000D02*
X26252500Y-11250000D01*
X27722500Y-11250000D02*
X27722500Y-8965000D01*
G04 #@! TO.C,R13*
X11550242Y-11552500D02*
X12024758Y-11552500D01*
X11550242Y-12597500D02*
X12024758Y-12597500D01*
G04 #@! TO.C,kibuzzard-6457AC2E*
G36*
X45199179Y-8183384D02*
G01*
X45275855Y-8238629D01*
X45326814Y-8316734D01*
X45343800Y-8403729D01*
X45343800Y-8526919D01*
X44863740Y-8526919D01*
X44863740Y-8404999D01*
X44881044Y-8314671D01*
X44932955Y-8236724D01*
X45010584Y-8182908D01*
X45105040Y-8164969D01*
X45199179Y-8183384D01*
G37*
G36*
X45847143Y-8407539D02*
G01*
X45847143Y-8966339D01*
X45847143Y-10123309D01*
X45847143Y-10591939D01*
X45847143Y-11104570D01*
X44357857Y-11104570D01*
X44357857Y-10591939D01*
X44357857Y-10114419D01*
X44622440Y-10114419D01*
X44630893Y-10207764D01*
X44656254Y-10294759D01*
X44698521Y-10375404D01*
X44757695Y-10449699D01*
X44829490Y-10511929D01*
X44909619Y-10556379D01*
X44998082Y-10583049D01*
X45094880Y-10591939D01*
X45192154Y-10583208D01*
X45282046Y-10557014D01*
X45364557Y-10513358D01*
X45439685Y-10452239D01*
X45502193Y-10379294D01*
X45546841Y-10300157D01*
X45573630Y-10214829D01*
X45582560Y-10123309D01*
X45575654Y-10023297D01*
X45554937Y-9936619D01*
X45520409Y-9863277D01*
X45472070Y-9803269D01*
X45394600Y-9767709D01*
X45115200Y-9767709D01*
X45044080Y-9780409D01*
X45008520Y-9864229D01*
X45008520Y-10087749D01*
X45019950Y-10148709D01*
X45047890Y-10169664D01*
X45101865Y-10175379D01*
X45155205Y-10170299D01*
X45185050Y-10148709D01*
X45195210Y-10092829D01*
X45195210Y-9992499D01*
X45333640Y-9992499D01*
X45350785Y-10051872D01*
X45356500Y-10118229D01*
X45337291Y-10209669D01*
X45279665Y-10290949D01*
X45224773Y-10333283D01*
X45162543Y-10358683D01*
X45092975Y-10367149D01*
X44993597Y-10348417D01*
X44915175Y-10292219D01*
X44864216Y-10211892D01*
X44847230Y-10120769D01*
X44855961Y-10052189D01*
X44882155Y-9993769D01*
X44917080Y-9916299D01*
X44900253Y-9873437D01*
X44849770Y-9826129D01*
X44778015Y-9796919D01*
X44721500Y-9831209D01*
X44666467Y-9921944D01*
X44633447Y-10016347D01*
X44622440Y-10114419D01*
X44357857Y-10114419D01*
X44357857Y-9555619D01*
X44640220Y-9555619D01*
X44647840Y-9617849D01*
X44677685Y-9654044D01*
X44748170Y-9666109D01*
X45456830Y-9666109D01*
X45501280Y-9664204D01*
X45535570Y-9652139D01*
X45561288Y-9619119D01*
X45569860Y-9555619D01*
X45561288Y-9490214D01*
X45535570Y-9456559D01*
X45502550Y-9444494D01*
X45458100Y-9442589D01*
X45040270Y-9442589D01*
X45086554Y-9407100D01*
X45147514Y-9360745D01*
X45223150Y-9303524D01*
X45313461Y-9235438D01*
X45418448Y-9156487D01*
X45538110Y-9066669D01*
X45562240Y-9034919D01*
X45569860Y-8966339D01*
X45561288Y-8900934D01*
X45535570Y-8867279D01*
X45502550Y-8855214D01*
X45458100Y-8853309D01*
X44753250Y-8853309D01*
X44688480Y-8860929D01*
X44661810Y-8876804D01*
X44646570Y-8909824D01*
X44640220Y-8968244D01*
X44647840Y-9028569D01*
X44677685Y-9064764D01*
X44748170Y-9076829D01*
X45177430Y-9076829D01*
X45131604Y-9111825D01*
X45072020Y-9156698D01*
X44998678Y-9211449D01*
X44911577Y-9276078D01*
X44810718Y-9350585D01*
X44696100Y-9434969D01*
X44663080Y-9464179D01*
X44647205Y-9495294D01*
X44640220Y-9555619D01*
X44357857Y-9555619D01*
X44357857Y-8638679D01*
X44637680Y-8638679D01*
X44646252Y-8704084D01*
X44671970Y-8737739D01*
X44704990Y-8749804D01*
X44749440Y-8751709D01*
X45455560Y-8751709D01*
X45536840Y-8736469D01*
X45560653Y-8702814D01*
X45568590Y-8639949D01*
X45568590Y-8407539D01*
X45559938Y-8313996D01*
X45533983Y-8227676D01*
X45490723Y-8148579D01*
X45430160Y-8076704D01*
X45357492Y-8016975D01*
X45277919Y-7974311D01*
X45191440Y-7948712D01*
X45098055Y-7940179D01*
X45005028Y-7948911D01*
X44919620Y-7975104D01*
X44841832Y-8018761D01*
X44771665Y-8079879D01*
X44713602Y-8152508D01*
X44672129Y-8230692D01*
X44647245Y-8314433D01*
X44638950Y-8403729D01*
X44637680Y-8638679D01*
X44357857Y-8638679D01*
X44357857Y-7940179D01*
X44357857Y-7940074D01*
X44361442Y-7867086D01*
X44372165Y-7794801D01*
X44389921Y-7723915D01*
X44414539Y-7655111D01*
X44445783Y-7589051D01*
X44483352Y-7526372D01*
X44526883Y-7467677D01*
X44575958Y-7413531D01*
X44630103Y-7364457D01*
X44688798Y-7320925D01*
X44751478Y-7283357D01*
X44817537Y-7252113D01*
X44886341Y-7227494D01*
X44957227Y-7209738D01*
X45029512Y-7199016D01*
X45102500Y-7195430D01*
X45175488Y-7199016D01*
X45247773Y-7209738D01*
X45318659Y-7227494D01*
X45387463Y-7252113D01*
X45453522Y-7283357D01*
X45516202Y-7320925D01*
X45574897Y-7364457D01*
X45629042Y-7413531D01*
X45678117Y-7467677D01*
X45721648Y-7526372D01*
X45759217Y-7589051D01*
X45790461Y-7655111D01*
X45815079Y-7723915D01*
X45832835Y-7794801D01*
X45843558Y-7867086D01*
X45847143Y-7940074D01*
X45847143Y-7940179D01*
X45847143Y-8407539D01*
G37*
G04 #@! TO.C,kibuzzard-645C1150*
G36*
X6685568Y-39733319D02*
G01*
X6707238Y-39816662D01*
X6704459Y-39856112D01*
X6692791Y-39886671D01*
X6663482Y-39910841D01*
X6608892Y-39918897D01*
X6553052Y-39913480D01*
X6519992Y-39897228D01*
X6503740Y-39865419D01*
X6498322Y-39813329D01*
X6504157Y-39760544D01*
X6521659Y-39731096D01*
X6606669Y-39711094D01*
X6685568Y-39733319D01*
G37*
G36*
X6685568Y-40087252D02*
G01*
X6701820Y-40119061D01*
X6707238Y-40171151D01*
X6704459Y-40210601D01*
X6692791Y-40241160D01*
X6663482Y-40265330D01*
X6608892Y-40273386D01*
X6553052Y-40267969D01*
X6519992Y-40251717D01*
X6503740Y-40219907D01*
X6498322Y-40167818D01*
X6504157Y-40115033D01*
X6521659Y-40085585D01*
X6606669Y-40065583D01*
X6685568Y-40087252D01*
G37*
G36*
X4218593Y-39420780D02*
G01*
X4246930Y-39443282D01*
X4257487Y-39472731D01*
X4259154Y-39511069D01*
X4257487Y-39549407D01*
X4247486Y-39578299D01*
X4218037Y-39601080D01*
X4161919Y-39607747D01*
X4105801Y-39601080D01*
X4076353Y-39577744D01*
X4066352Y-39548296D01*
X4064685Y-39509958D01*
X4066352Y-39471619D01*
X4075797Y-39443282D01*
X4105246Y-39420780D01*
X4162475Y-39413279D01*
X4218593Y-39420780D01*
G37*
G36*
X5045363Y-39420780D02*
G01*
X5073700Y-39443282D01*
X5084257Y-39472731D01*
X5085924Y-39511069D01*
X5084257Y-39549407D01*
X5074256Y-39578299D01*
X5044807Y-39601080D01*
X4988689Y-39607747D01*
X4932571Y-39601080D01*
X4903123Y-39577744D01*
X4893122Y-39548296D01*
X4891455Y-39509958D01*
X4893122Y-39471619D01*
X4902567Y-39443282D01*
X4932016Y-39420780D01*
X4989245Y-39413279D01*
X5045363Y-39420780D01*
G37*
G36*
X4238040Y-39706649D02*
G01*
X4258042Y-39754432D01*
X4259154Y-39786659D01*
X4259154Y-40175596D01*
X4257487Y-40213934D01*
X4246930Y-40243383D01*
X4218315Y-40265052D01*
X4161364Y-40272275D01*
X4104968Y-40264774D01*
X4075797Y-40242271D01*
X4066352Y-40213379D01*
X4064685Y-40174485D01*
X4064685Y-39784436D01*
X4066352Y-39746098D01*
X4075797Y-39716650D01*
X4105246Y-39694981D01*
X4162475Y-39687757D01*
X4238040Y-39706649D01*
G37*
G36*
X5064810Y-39706649D02*
G01*
X5084812Y-39754432D01*
X5085924Y-39786659D01*
X5085924Y-40175596D01*
X5084257Y-40213934D01*
X5073700Y-40243383D01*
X5045085Y-40265052D01*
X4988134Y-40272275D01*
X4931738Y-40264774D01*
X4902567Y-40242271D01*
X4893122Y-40213379D01*
X4891455Y-40174485D01*
X4891455Y-39784436D01*
X4893122Y-39746098D01*
X4902567Y-39716650D01*
X4932016Y-39694981D01*
X4989245Y-39687757D01*
X5064810Y-39706649D01*
G37*
G36*
X3490724Y-39690536D02*
G01*
X3520172Y-39735541D01*
X3665746Y-40015576D01*
X3811320Y-39735541D01*
X3829656Y-39704982D01*
X3849102Y-39686091D01*
X3884662Y-39676645D01*
X3945781Y-39699981D01*
X3989120Y-39735541D01*
X4003566Y-39773324D01*
X3981341Y-39834442D01*
X3751312Y-40228936D01*
X3715753Y-40262829D01*
X3667413Y-40277831D01*
X3621852Y-40266163D01*
X3591293Y-40242271D01*
X3581291Y-40230048D01*
X3350151Y-39834442D01*
X3327926Y-39774435D01*
X3342372Y-39735819D01*
X3385711Y-39699981D01*
X3452386Y-39675534D01*
X3490724Y-39690536D01*
G37*
G36*
X5391517Y-40273247D02*
G01*
X5321509Y-40246161D01*
X5258029Y-40201433D01*
X5205383Y-40139481D01*
X5169962Y-40064332D01*
X5158155Y-39980016D01*
X5158362Y-39978349D01*
X5354846Y-39978349D01*
X5363736Y-40025578D01*
X5390406Y-40059471D01*
X5462638Y-40086696D01*
X5535980Y-40058915D01*
X5563483Y-40024466D01*
X5572651Y-39976682D01*
X5564039Y-39929177D01*
X5538202Y-39895561D01*
X5463749Y-39868891D01*
X5389295Y-39896672D01*
X5363458Y-39930982D01*
X5354846Y-39978349D01*
X5158362Y-39978349D01*
X5168527Y-39896302D01*
X5199642Y-39822960D01*
X5251500Y-39759989D01*
X5316693Y-39711835D01*
X5387813Y-39682942D01*
X5464860Y-39673311D01*
X5541783Y-39682880D01*
X5612533Y-39711588D01*
X5677109Y-39759433D01*
X5728350Y-39822095D01*
X5759094Y-39895253D01*
X5769342Y-39978905D01*
X5757397Y-40065999D01*
X5721559Y-40142814D01*
X5668635Y-40205044D01*
X5605433Y-40248383D01*
X5535841Y-40273803D01*
X5463749Y-40282276D01*
X5462638Y-40282137D01*
X5391517Y-40273247D01*
G37*
G36*
X6237117Y-39696092D02*
G01*
X6298791Y-39724429D01*
X6352193Y-39771657D01*
X6393248Y-39832467D01*
X6417880Y-39901550D01*
X6426091Y-39978905D01*
X6426091Y-40174485D01*
X6424424Y-40212823D01*
X6414979Y-40241160D01*
X6385531Y-40263663D01*
X6328301Y-40271164D01*
X6266071Y-40260885D01*
X6237179Y-40230048D01*
X6230511Y-40173374D01*
X6230511Y-39977794D01*
X6204397Y-39906674D01*
X6134388Y-39881115D01*
X6063268Y-39907785D01*
X6036043Y-39977794D01*
X6036043Y-40174485D01*
X6034376Y-40212823D01*
X6023819Y-40241160D01*
X5995204Y-40263663D01*
X5938253Y-40271164D01*
X5881857Y-40263663D01*
X5852686Y-40241160D01*
X5843241Y-40211712D01*
X5841574Y-40173374D01*
X5841574Y-39779991D01*
X5843241Y-39742764D01*
X5853798Y-39714427D01*
X5882968Y-39693592D01*
X5939364Y-39686646D01*
X5994093Y-39693036D01*
X6022708Y-39712205D01*
X6033820Y-39757766D01*
X6053823Y-39735541D01*
X6083826Y-39712205D01*
X6167170Y-39686646D01*
X6237117Y-39696092D01*
G37*
G36*
X2911207Y-40043358D02*
G01*
X2947879Y-40095586D01*
X3021221Y-40116700D01*
X3078728Y-40113366D01*
X3122345Y-40103365D01*
X3134569Y-40098920D01*
X3179019Y-40086696D01*
X3240137Y-40136702D01*
X3254584Y-40187820D01*
X3239790Y-40231089D01*
X3195410Y-40261996D01*
X3121442Y-40280540D01*
X3017887Y-40286721D01*
X2940239Y-40279637D01*
X2871758Y-40258384D01*
X2814945Y-40225464D01*
X2772301Y-40183375D01*
X2733408Y-40121022D01*
X2710071Y-40053976D01*
X2702292Y-39982239D01*
X2706913Y-39942234D01*
X2908985Y-39942234D01*
X3049002Y-39942234D01*
X3091230Y-39906674D01*
X3071783Y-39865557D01*
X3016221Y-39850000D01*
X2944545Y-39879448D01*
X2908985Y-39942234D01*
X2706913Y-39942234D01*
X2712355Y-39895129D01*
X2742544Y-39820490D01*
X2792859Y-39758322D01*
X2858238Y-39711711D01*
X2933618Y-39683745D01*
X3018999Y-39674422D01*
X3091091Y-39681229D01*
X3152904Y-39701648D01*
X3204439Y-39735680D01*
X3245694Y-39783325D01*
X3274031Y-39843749D01*
X3283476Y-39909452D01*
X3275003Y-39968904D01*
X3249583Y-40010576D01*
X3174574Y-40043358D01*
X3049002Y-40043358D01*
X2911207Y-40043358D01*
G37*
G36*
X4672539Y-39684979D02*
G01*
X4754771Y-39713316D01*
X4793665Y-39757766D01*
X4769217Y-39823330D01*
X4719211Y-39862224D01*
X4669761Y-39845555D01*
X4591417Y-39828886D01*
X4525854Y-39853334D01*
X4544745Y-39880837D01*
X4601419Y-39896672D01*
X4673650Y-39911119D01*
X4743659Y-39938900D01*
X4797554Y-39992796D01*
X4813806Y-40035995D01*
X4819224Y-40088919D01*
X4813806Y-40142398D01*
X4797554Y-40187264D01*
X4736991Y-40247828D01*
X4685565Y-40266966D01*
X4626113Y-40278449D01*
X4558636Y-40282276D01*
X4488071Y-40275362D01*
X4419359Y-40254618D01*
X4352499Y-40220046D01*
X4331385Y-40177819D01*
X4341942Y-40141425D01*
X4373612Y-40090030D01*
X4413062Y-40071139D01*
X4486960Y-40098364D01*
X4571415Y-40125590D01*
X4622255Y-40118923D01*
X4639201Y-40098920D01*
X4620588Y-40080584D01*
X4564747Y-40067805D01*
X4495017Y-40049747D01*
X4425841Y-40015576D01*
X4372501Y-39952791D01*
X4356666Y-39905979D01*
X4351387Y-39851111D01*
X4361033Y-39787903D01*
X4389970Y-39738742D01*
X4438198Y-39703626D01*
X4505718Y-39682557D01*
X4592529Y-39675534D01*
X4672539Y-39684979D01*
G37*
G36*
X2214454Y-40173374D02*
G01*
X2212787Y-40211712D01*
X2202230Y-40241160D01*
X2172782Y-40263663D01*
X2115552Y-40271164D01*
X2053878Y-40260885D01*
X2024430Y-40230048D01*
X2017762Y-40172262D01*
X2017762Y-39654420D01*
X2214454Y-39654420D01*
X2214454Y-39851111D01*
X2356694Y-39851111D01*
X2421146Y-39826664D01*
X2453372Y-39753321D01*
X2421146Y-39679423D01*
X2354471Y-39654420D01*
X2214454Y-39654420D01*
X2017762Y-39654420D01*
X2017762Y-39555519D01*
X2019429Y-39517181D01*
X2029986Y-39487732D01*
X2059434Y-39465230D01*
X2116664Y-39457729D01*
X2356694Y-39457729D01*
X2421270Y-39465631D01*
X2484611Y-39489338D01*
X2546717Y-39528849D01*
X2587278Y-39569409D01*
X2620060Y-39622194D01*
X2641729Y-39684424D01*
X2648952Y-39753321D01*
X2639692Y-39832097D01*
X2611911Y-39900994D01*
X2565609Y-39960014D01*
X2584870Y-40005575D01*
X2610059Y-40063730D01*
X2641174Y-40134480D01*
X2657842Y-40192265D01*
X2640618Y-40231159D01*
X2588945Y-40263385D01*
X2531716Y-40278942D01*
X2496156Y-40268386D01*
X2475597Y-40246716D01*
X2461028Y-40214984D01*
X2432135Y-40147938D01*
X2388920Y-40045580D01*
X2354471Y-40047803D01*
X2214454Y-40047803D01*
X2214454Y-40173374D01*
G37*
G04 #@! TO.C,kibuzzard-645C104C*
G36*
X10129725Y-36317372D02*
G01*
X10171794Y-36349519D01*
X10186875Y-36392381D01*
X10189256Y-36447944D01*
X10189256Y-37182956D01*
X10198781Y-37255188D01*
X10240850Y-37270269D01*
X10284506Y-37272650D01*
X10311494Y-37286144D01*
X10343244Y-37398856D01*
X10335306Y-37479422D01*
X10311494Y-37521094D01*
X10241644Y-37537763D01*
X10114644Y-37530619D01*
X10013837Y-37502441D01*
X9955894Y-37449656D01*
X9922556Y-37348850D01*
X9911444Y-37202006D01*
X9911444Y-36446356D01*
X9913825Y-36391588D01*
X9927319Y-36349519D01*
X9969387Y-36317372D01*
X10051144Y-36306656D01*
X10129725Y-36317372D01*
G37*
G36*
X15516906Y-36696388D02*
G01*
X15572469Y-36709881D01*
X15622475Y-36742425D01*
X15642319Y-36816244D01*
X15612156Y-36927369D01*
X15524844Y-36987694D01*
X15470075Y-36974994D01*
X15401019Y-36962294D01*
X15320850Y-36992456D01*
X15283544Y-37065481D01*
X15283544Y-37398856D01*
X15281163Y-37453625D01*
X15266081Y-37495694D01*
X15223219Y-37526650D01*
X15142256Y-37536969D01*
X15032719Y-37509981D01*
X15004144Y-37441719D01*
X15004144Y-37395681D01*
X15004144Y-36838469D01*
X15006525Y-36783700D01*
X15020019Y-36743219D01*
X15062088Y-36711072D01*
X15143844Y-36700356D01*
X15221234Y-36709484D01*
X15262906Y-36736869D01*
X15280369Y-36789256D01*
X15303388Y-36762269D01*
X15367681Y-36719406D01*
X15454200Y-36692419D01*
X15516906Y-36696388D01*
G37*
G36*
X9697925Y-36309038D02*
G01*
X9739994Y-36324119D01*
X9772141Y-36364997D01*
X9782856Y-36446356D01*
X9755869Y-36555894D01*
X9686019Y-36584469D01*
X9641569Y-36584469D01*
X9582831Y-36624156D01*
X9582831Y-36711469D01*
X9686019Y-36701944D01*
X9772934Y-36717025D01*
X9814606Y-36762269D01*
X9824131Y-36841644D01*
X9813812Y-36920225D01*
X9781269Y-36962294D01*
X9684431Y-36981344D01*
X9582831Y-36974994D01*
X9582831Y-37400444D01*
X9567750Y-37490138D01*
X9521712Y-37529031D01*
X9441544Y-37538556D01*
X9362962Y-37528238D01*
X9320894Y-37494900D01*
X9305812Y-37452831D01*
X9303431Y-37397269D01*
X9303431Y-36976581D01*
X9246281Y-36976581D01*
X9187544Y-36957531D01*
X9157381Y-36841644D01*
X9180797Y-36744013D01*
X9251044Y-36711469D01*
X9303431Y-36711469D01*
X9303431Y-36627331D01*
X9325259Y-36510848D01*
X9390744Y-36405875D01*
X9457595Y-36350753D01*
X9541733Y-36317681D01*
X9643156Y-36306656D01*
X9697925Y-36309038D01*
G37*
G36*
X5480731Y-37538358D02*
G01*
X5380719Y-37499663D01*
X5290033Y-37435766D01*
X5214825Y-37347263D01*
X5164223Y-37239908D01*
X5147356Y-37119456D01*
X5147651Y-37117075D01*
X5428344Y-37117075D01*
X5441044Y-37184544D01*
X5479144Y-37232963D01*
X5582331Y-37271856D01*
X5687106Y-37232169D01*
X5726397Y-37182956D01*
X5739494Y-37114694D01*
X5727191Y-37046828D01*
X5690281Y-36998806D01*
X5583919Y-36960706D01*
X5477556Y-37000394D01*
X5440647Y-37049408D01*
X5428344Y-37117075D01*
X5147651Y-37117075D01*
X5162173Y-36999865D01*
X5206623Y-36895090D01*
X5280706Y-36805131D01*
X5373840Y-36736340D01*
X5475440Y-36695065D01*
X5585506Y-36681306D01*
X5695397Y-36694976D01*
X5796467Y-36735987D01*
X5888719Y-36804338D01*
X5961920Y-36893855D01*
X6005841Y-36998365D01*
X6020481Y-37117869D01*
X6003416Y-37242289D01*
X5952219Y-37352025D01*
X5876614Y-37440925D01*
X5786325Y-37502838D01*
X5686908Y-37539152D01*
X5583919Y-37551256D01*
X5582331Y-37551058D01*
X5480731Y-37538358D01*
G37*
G36*
X11208034Y-36709484D02*
G01*
X11249706Y-36741631D01*
X11263200Y-36783700D01*
X11265581Y-36838469D01*
X11265581Y-37400444D01*
X11263200Y-37453625D01*
X11248119Y-37494106D01*
X11205653Y-37525063D01*
X11125881Y-37535381D01*
X11047697Y-37525856D01*
X11006819Y-37497281D01*
X10990944Y-37432194D01*
X10962369Y-37463944D01*
X10919506Y-37498869D01*
X10802031Y-37533794D01*
X10701225Y-37520300D01*
X10612590Y-37479819D01*
X10536125Y-37412350D01*
X10477476Y-37325478D01*
X10442286Y-37226789D01*
X10430556Y-37116281D01*
X10430556Y-36838469D01*
X10432937Y-36782906D01*
X10446431Y-36741631D01*
X10488500Y-36709484D01*
X10570256Y-36698769D01*
X10658362Y-36713850D01*
X10700431Y-36759094D01*
X10709956Y-36840056D01*
X10709956Y-37117869D01*
X10747262Y-37219469D01*
X10847275Y-37255981D01*
X10948875Y-37217881D01*
X10987769Y-37117869D01*
X10987769Y-36836881D01*
X10990150Y-36782113D01*
X11005231Y-36740044D01*
X11046109Y-36709088D01*
X11127469Y-36698769D01*
X11208034Y-36709484D01*
G37*
G36*
X4430600Y-36320547D02*
G01*
X4471081Y-36352694D01*
X4486162Y-36394763D01*
X4488544Y-36449531D01*
X4488544Y-36800369D01*
X4574666Y-36727741D01*
X4674281Y-36703531D01*
X4774206Y-36716937D01*
X4862312Y-36757153D01*
X4938600Y-36824181D01*
X4997249Y-36910612D01*
X5032439Y-37009037D01*
X5044169Y-37119456D01*
X5044169Y-37398856D01*
X5041787Y-37453625D01*
X5026706Y-37495694D01*
X4985828Y-37526650D01*
X4904469Y-37536969D01*
X4825887Y-37526650D01*
X4783819Y-37495694D01*
X4768737Y-37452831D01*
X4766356Y-37395681D01*
X4766356Y-37117869D01*
X4729844Y-37016269D01*
X4636975Y-36979756D01*
X4537756Y-37013888D01*
X4488544Y-37090881D01*
X4488544Y-37398856D01*
X4486162Y-37453625D01*
X4471081Y-37495694D01*
X4430203Y-37526650D01*
X4348844Y-37536969D01*
X4268278Y-37526253D01*
X4226606Y-37494106D01*
X4213112Y-37452831D01*
X4210731Y-37397269D01*
X4210731Y-36447944D01*
X4213112Y-36393175D01*
X4226606Y-36352694D01*
X4268675Y-36320547D01*
X4350431Y-36309831D01*
X4430600Y-36320547D01*
G37*
G36*
X7823087Y-37533794D02*
G01*
X7733747Y-37519859D01*
X7648815Y-37478055D01*
X7568294Y-37408381D01*
X7503030Y-37320275D01*
X7463872Y-37223173D01*
X7451112Y-37119456D01*
X7728631Y-37119456D01*
X7769906Y-37213913D01*
X7869919Y-37255981D01*
X7967550Y-37213119D01*
X8006444Y-37118663D01*
X7969137Y-37022619D01*
X7869125Y-36978169D01*
X7767525Y-37022619D01*
X7728631Y-37119456D01*
X7451112Y-37119456D01*
X7450819Y-37117075D01*
X7463960Y-37011065D01*
X7503383Y-36914228D01*
X7569087Y-36826563D01*
X7650491Y-36757330D01*
X7737010Y-36715790D01*
X7828644Y-36701944D01*
X7927069Y-36720994D01*
X7988981Y-36756713D01*
X8017556Y-36789256D01*
X8053672Y-36722581D01*
X8142969Y-36700356D01*
X8235044Y-36709881D01*
X8277112Y-36743219D01*
X8291400Y-36785288D01*
X8293781Y-36840056D01*
X8293781Y-37395681D01*
X8291400Y-37450450D01*
X8277906Y-37492519D01*
X8239608Y-37523475D01*
X8169162Y-37533794D01*
X8053275Y-37512363D01*
X8019144Y-37449656D01*
X7940761Y-37512759D01*
X7869919Y-37525423D01*
X7823087Y-37533794D01*
G37*
G36*
X3830128Y-36429291D02*
G01*
X3872594Y-36473344D01*
X3880531Y-36554306D01*
X3880531Y-36709881D01*
X3986100Y-36703531D01*
X4040075Y-36705913D01*
X4082144Y-36720994D01*
X4113100Y-36761872D01*
X4123419Y-36843231D01*
X4112703Y-36923797D01*
X4080556Y-36965469D01*
X4038487Y-36978963D01*
X3983719Y-36981344D01*
X3880531Y-36974994D01*
X3880531Y-37194069D01*
X3894025Y-37255981D01*
X3944825Y-37275031D01*
X4001975Y-37277413D01*
X4044044Y-37292494D01*
X4080556Y-37398856D01*
X4069444Y-37479422D01*
X4036106Y-37521094D01*
X3994037Y-37534588D01*
X3940856Y-37536969D01*
X3839609Y-37528678D01*
X3756001Y-37503808D01*
X3690031Y-37462356D01*
X3642406Y-37401149D01*
X3613831Y-37317012D01*
X3604306Y-37209944D01*
X3604306Y-36974994D01*
X3539219Y-36979756D01*
X3481275Y-36952769D01*
X3458256Y-36860694D01*
X3466194Y-36766238D01*
X3488419Y-36724169D01*
X3551919Y-36703531D01*
X3604306Y-36709881D01*
X3604306Y-36546369D01*
X3606687Y-36492394D01*
X3621769Y-36454294D01*
X3662647Y-36424528D01*
X3744006Y-36414606D01*
X3830128Y-36429291D01*
G37*
G36*
X8884331Y-36697975D02*
G01*
X9001806Y-36738456D01*
X9057369Y-36801956D01*
X9022444Y-36895619D01*
X8951006Y-36951181D01*
X8880362Y-36927369D01*
X8768444Y-36903556D01*
X8674781Y-36938481D01*
X8701769Y-36977772D01*
X8782731Y-37000394D01*
X8885919Y-37021031D01*
X8985931Y-37060719D01*
X9062925Y-37137713D01*
X9086142Y-37199427D01*
X9093881Y-37275031D01*
X9086142Y-37351430D01*
X9062925Y-37415525D01*
X8976406Y-37502044D01*
X8902940Y-37529384D01*
X8818009Y-37545788D01*
X8721612Y-37551256D01*
X8620806Y-37541378D01*
X8522646Y-37511745D01*
X8427131Y-37462356D01*
X8396969Y-37402031D01*
X8412050Y-37350041D01*
X8457294Y-37276619D01*
X8513650Y-37249631D01*
X8619219Y-37288525D01*
X8739869Y-37327419D01*
X8812497Y-37317894D01*
X8836706Y-37289319D01*
X8810116Y-37263125D01*
X8730344Y-37244869D01*
X8630728Y-37219072D01*
X8531906Y-37170256D01*
X8455706Y-37080563D01*
X8433084Y-37013689D01*
X8425544Y-36935306D01*
X8439323Y-36845009D01*
X8480662Y-36774778D01*
X8549559Y-36724613D01*
X8646016Y-36694514D01*
X8770031Y-36684481D01*
X8884331Y-36697975D01*
G37*
G36*
X14369144Y-37209944D02*
G01*
X14421531Y-37284556D01*
X14526306Y-37314719D01*
X14608459Y-37309956D01*
X14670769Y-37295669D01*
X14688231Y-37289319D01*
X14751731Y-37271856D01*
X14839044Y-37343294D01*
X14859681Y-37416319D01*
X14838548Y-37478132D01*
X14775147Y-37522284D01*
X14669479Y-37548776D01*
X14521544Y-37557606D01*
X14410617Y-37547486D01*
X14312787Y-37517125D01*
X14231627Y-37470095D01*
X14170706Y-37409969D01*
X14115144Y-37320892D01*
X14081806Y-37225113D01*
X14070694Y-37122631D01*
X14077296Y-37065481D01*
X14365969Y-37065481D01*
X14565994Y-37065481D01*
X14626319Y-37014681D01*
X14598538Y-36955944D01*
X14519163Y-36933719D01*
X14416769Y-36975788D01*
X14365969Y-37065481D01*
X14077296Y-37065481D01*
X14085069Y-36998189D01*
X14128197Y-36891562D01*
X14200075Y-36802750D01*
X14293473Y-36736163D01*
X14401158Y-36696211D01*
X14523131Y-36682894D01*
X14626120Y-36692617D01*
X14714425Y-36721787D01*
X14788045Y-36770405D01*
X14846981Y-36838469D01*
X14887462Y-36924789D01*
X14900956Y-37018650D01*
X14888852Y-37103581D01*
X14852538Y-37163113D01*
X14745381Y-37209944D01*
X14565994Y-37209944D01*
X14369144Y-37209944D01*
G37*
G36*
X7165862Y-36723177D02*
G01*
X7261906Y-36796400D01*
X7309531Y-36875687D01*
X7338106Y-36983372D01*
X7347631Y-37119456D01*
X7347631Y-37397269D01*
X7345250Y-37452038D01*
X7330169Y-37494106D01*
X7289291Y-37526253D01*
X7207931Y-37536969D01*
X7127366Y-37525856D01*
X7085694Y-37492519D01*
X7072200Y-37450450D01*
X7069819Y-37395681D01*
X7069819Y-37117869D01*
X7045212Y-37014284D01*
X6971394Y-36979756D01*
X6895987Y-37016269D01*
X6876144Y-37119456D01*
X6876144Y-37397269D01*
X6873762Y-37452831D01*
X6858681Y-37494106D01*
X6816612Y-37526253D01*
X6734856Y-37536969D01*
X6654291Y-37525856D01*
X6612619Y-37492519D01*
X6599125Y-37450450D01*
X6596744Y-37395681D01*
X6596744Y-37117869D01*
X6572137Y-37014284D01*
X6498319Y-36979756D01*
X6426881Y-37014284D01*
X6403069Y-37117869D01*
X6403069Y-37398856D01*
X6400687Y-37453625D01*
X6385606Y-37495694D01*
X6342744Y-37526650D01*
X6261781Y-37536969D01*
X6181216Y-37526253D01*
X6139544Y-37494106D01*
X6126050Y-37452831D01*
X6123669Y-37397269D01*
X6123669Y-36838469D01*
X6126050Y-36783700D01*
X6141131Y-36743219D01*
X6181216Y-36711072D01*
X6253844Y-36700356D01*
X6369731Y-36728931D01*
X6396719Y-36811481D01*
X6478872Y-36726947D01*
X6576106Y-36698769D01*
X6674884Y-36714115D01*
X6755317Y-36760152D01*
X6817406Y-36836881D01*
X6859475Y-36786875D01*
X6938056Y-36729725D01*
X7049181Y-36698769D01*
X7165862Y-36723177D01*
G37*
G36*
X12434775Y-36723177D02*
G01*
X12530819Y-36796400D01*
X12578444Y-36875687D01*
X12607019Y-36983372D01*
X12616544Y-37119456D01*
X12616544Y-37397269D01*
X12614162Y-37452038D01*
X12599081Y-37494106D01*
X12558203Y-37526253D01*
X12476844Y-37536969D01*
X12396278Y-37525856D01*
X12354606Y-37492519D01*
X12341113Y-37450450D01*
X12338731Y-37395681D01*
X12338731Y-37117869D01*
X12314125Y-37014284D01*
X12240306Y-36979756D01*
X12164900Y-37016269D01*
X12145056Y-37119456D01*
X12145056Y-37397269D01*
X12142675Y-37452831D01*
X12127594Y-37494106D01*
X12085525Y-37526253D01*
X12003769Y-37536969D01*
X11923203Y-37525856D01*
X11881531Y-37492519D01*
X11868037Y-37450450D01*
X11865656Y-37395681D01*
X11865656Y-37117869D01*
X11841050Y-37014284D01*
X11767231Y-36979756D01*
X11695794Y-37014284D01*
X11671981Y-37117869D01*
X11671981Y-37398856D01*
X11669600Y-37453625D01*
X11654519Y-37495694D01*
X11611656Y-37526650D01*
X11530694Y-37536969D01*
X11450128Y-37526253D01*
X11408456Y-37494106D01*
X11394963Y-37452831D01*
X11392581Y-37397269D01*
X11392581Y-36838469D01*
X11394963Y-36783700D01*
X11410044Y-36743219D01*
X11450128Y-36711072D01*
X11522756Y-36700356D01*
X11638644Y-36728931D01*
X11665631Y-36811481D01*
X11747784Y-36726947D01*
X11845019Y-36698769D01*
X11943797Y-36714115D01*
X12024230Y-36760152D01*
X12086319Y-36836881D01*
X12128387Y-36786875D01*
X12206969Y-36729725D01*
X12318094Y-36698769D01*
X12434775Y-36723177D01*
G37*
G36*
X13785738Y-36723177D02*
G01*
X13881781Y-36796400D01*
X13929406Y-36875687D01*
X13957981Y-36983372D01*
X13967506Y-37119456D01*
X13967506Y-37397269D01*
X13965125Y-37452038D01*
X13950044Y-37494106D01*
X13909166Y-37526253D01*
X13827806Y-37536969D01*
X13747241Y-37525856D01*
X13705569Y-37492519D01*
X13692075Y-37450450D01*
X13689694Y-37395681D01*
X13689694Y-37117869D01*
X13665088Y-37014284D01*
X13591269Y-36979756D01*
X13515863Y-37016269D01*
X13496019Y-37119456D01*
X13496019Y-37397269D01*
X13493638Y-37452831D01*
X13478556Y-37494106D01*
X13436488Y-37526253D01*
X13354731Y-37536969D01*
X13274166Y-37525856D01*
X13232494Y-37492519D01*
X13219000Y-37450450D01*
X13216619Y-37395681D01*
X13216619Y-37117869D01*
X13192012Y-37014284D01*
X13118194Y-36979756D01*
X13046756Y-37014284D01*
X13022944Y-37117869D01*
X13022944Y-37398856D01*
X13020563Y-37453625D01*
X13005481Y-37495694D01*
X12962619Y-37526650D01*
X12881656Y-37536969D01*
X12801091Y-37526253D01*
X12759419Y-37494106D01*
X12745925Y-37452831D01*
X12743544Y-37397269D01*
X12743544Y-36838469D01*
X12745925Y-36783700D01*
X12761006Y-36743219D01*
X12801091Y-36711072D01*
X12873719Y-36700356D01*
X12989606Y-36728931D01*
X13016594Y-36811481D01*
X13098747Y-36726947D01*
X13195981Y-36698769D01*
X13294759Y-36714115D01*
X13375192Y-36760152D01*
X13437281Y-36836881D01*
X13479350Y-36786875D01*
X13557931Y-36729725D01*
X13669056Y-36698769D01*
X13785738Y-36723177D01*
G37*
G36*
X2594656Y-37384569D02*
G01*
X2507542Y-37364923D01*
X2430350Y-37305988D01*
X2376177Y-37219270D01*
X2358119Y-37116281D01*
X2361015Y-37094056D01*
X2561319Y-37094056D01*
X2586719Y-37156763D01*
X2653394Y-37182956D01*
X2727212Y-37152000D01*
X2764519Y-37082944D01*
X2764519Y-37073419D01*
X2741500Y-37009125D01*
X2674031Y-36981344D01*
X2597831Y-37012300D01*
X2561319Y-37082944D01*
X2561319Y-37094056D01*
X2361015Y-37094056D01*
X2369760Y-37026940D01*
X2404685Y-36947301D01*
X2462894Y-36877363D01*
X2565883Y-36804139D01*
X2665300Y-36779731D01*
X2748048Y-36795606D01*
X2801031Y-36843231D01*
X2831987Y-36794813D01*
X2908187Y-36778144D01*
X2981212Y-36794813D01*
X3001056Y-36832913D01*
X2997881Y-36879744D01*
X2943906Y-37286144D01*
X2932794Y-37370281D01*
X2944700Y-37396475D01*
X2982006Y-37403619D01*
X3031219Y-37397269D01*
X3085987Y-37371075D01*
X3140756Y-37319481D01*
X3183619Y-37230581D01*
X3197906Y-37116281D01*
X3187587Y-36999997D01*
X3156631Y-36905144D01*
X3107816Y-36829738D01*
X3043919Y-36771794D01*
X2939937Y-36717113D01*
X2822727Y-36684305D01*
X2692287Y-36673369D01*
X2563876Y-36686333D01*
X2452751Y-36725227D01*
X2358912Y-36790050D01*
X2287916Y-36877098D01*
X2245318Y-36982667D01*
X2231119Y-37106756D01*
X2242143Y-37231110D01*
X2275216Y-37337473D01*
X2330337Y-37425844D01*
X2408566Y-37491990D01*
X2510960Y-37531677D01*
X2637519Y-37544906D01*
X2667681Y-37544906D01*
X2720862Y-37563163D01*
X2735944Y-37630631D01*
X2728800Y-37701275D01*
X2704194Y-37730644D01*
X2635931Y-37743344D01*
X2503573Y-37732579D01*
X2385900Y-37700283D01*
X2282911Y-37646457D01*
X2194606Y-37571100D01*
X2123764Y-37477586D01*
X2073162Y-37369289D01*
X2042802Y-37246208D01*
X2032681Y-37108344D01*
X2042912Y-36984431D01*
X2073603Y-36870924D01*
X2124756Y-36767825D01*
X2192225Y-36678219D01*
X2271865Y-36605194D01*
X2363675Y-36548750D01*
X2463158Y-36508622D01*
X2565817Y-36484544D01*
X2671650Y-36476519D01*
X2775190Y-36480840D01*
X2870969Y-36493805D01*
X2958987Y-36515412D01*
X3078248Y-36563831D01*
X3183619Y-36631300D01*
X3271527Y-36720200D01*
X3338400Y-36832913D01*
X3369709Y-36917579D01*
X3388494Y-37005421D01*
X3394756Y-37096438D01*
X3385231Y-37224628D01*
X3356656Y-37331388D01*
X3312603Y-37417708D01*
X3256644Y-37484581D01*
X3170213Y-37549845D01*
X3078138Y-37589003D01*
X2980419Y-37602056D01*
X2884375Y-37586181D01*
X2805794Y-37538556D01*
X2753406Y-37463547D01*
X2735944Y-37365519D01*
X2739119Y-37327419D01*
X2676809Y-37370281D01*
X2653394Y-37374354D01*
X2594656Y-37384569D01*
G37*
G04 #@! TO.C,kibuzzard-645C0F6F*
G36*
X41951375Y-43264175D02*
G01*
X42021225Y-43451500D01*
X42021225Y-43851550D01*
X41459250Y-43851550D01*
X41459250Y-43454675D01*
X41530688Y-43264175D01*
X41741825Y-43172100D01*
X41951375Y-43264175D01*
G37*
G36*
X41951375Y-41254400D02*
G01*
X42021225Y-41438550D01*
X42021225Y-41844950D01*
X41459250Y-41844950D01*
X41459250Y-41444900D01*
X41530688Y-41254400D01*
X41741825Y-41162325D01*
X41951375Y-41254400D01*
G37*
G36*
X41951375Y-27513000D02*
G01*
X42021225Y-27700325D01*
X42021225Y-28100375D01*
X41459250Y-28100375D01*
X41459250Y-27703500D01*
X41530688Y-27513000D01*
X41741825Y-27420925D01*
X41951375Y-27513000D01*
G37*
G36*
X42248414Y-38731333D02*
G01*
X42401872Y-38791658D01*
X42529225Y-38892200D01*
X42657813Y-39084287D01*
X42700675Y-39298600D01*
X42656622Y-39513309D01*
X42524462Y-39706587D01*
X42395169Y-39808011D01*
X42242240Y-39868865D01*
X42065675Y-39889150D01*
X41889110Y-39869042D01*
X41736181Y-39808717D01*
X41606888Y-39708175D01*
X41474728Y-39516087D01*
X41430675Y-39301775D01*
X41474331Y-39087066D01*
X41605300Y-38893787D01*
X41734417Y-38792364D01*
X41888933Y-38731510D01*
X42068850Y-38711225D01*
X42248414Y-38731333D01*
G37*
G36*
X42248414Y-33949783D02*
G01*
X42401872Y-34010108D01*
X42529225Y-34110650D01*
X42657813Y-34302737D01*
X42700675Y-34517050D01*
X42656622Y-34731759D01*
X42524462Y-34925037D01*
X42395169Y-35026461D01*
X42242240Y-35087315D01*
X42065675Y-35107600D01*
X41889110Y-35087492D01*
X41736181Y-35027167D01*
X41606888Y-34926625D01*
X41474728Y-34734537D01*
X41430675Y-34520225D01*
X41474331Y-34305516D01*
X41605300Y-34112237D01*
X41734417Y-34010814D01*
X41888933Y-33949960D01*
X42068850Y-33929675D01*
X42248414Y-33949783D01*
G37*
G36*
X43924108Y-25119050D02*
G01*
X43924108Y-28382950D01*
X43924108Y-29878375D01*
X43924108Y-32129450D01*
X43924108Y-34510700D01*
X43924108Y-36911000D01*
X43924108Y-39292250D01*
X43924108Y-40938487D01*
X43924108Y-44134125D01*
X43924108Y-44413525D01*
X43924108Y-44413789D01*
X43915144Y-44596259D01*
X43888338Y-44776971D01*
X43843948Y-44954186D01*
X43782402Y-45126196D01*
X43704292Y-45291346D01*
X43610371Y-45448044D01*
X43501543Y-45594781D01*
X43378856Y-45730145D01*
X43243492Y-45852832D01*
X43096754Y-45961660D01*
X42940056Y-46055581D01*
X42774907Y-46133691D01*
X42602896Y-46195238D01*
X42425682Y-46239628D01*
X42244970Y-46266434D01*
X42062500Y-46275398D01*
X41880030Y-46266434D01*
X41699318Y-46239628D01*
X41522104Y-46195238D01*
X41350093Y-46133691D01*
X41184944Y-46055581D01*
X41028246Y-45961660D01*
X40881508Y-45852832D01*
X40746144Y-45730145D01*
X40623457Y-45594781D01*
X40514629Y-45448044D01*
X40420708Y-45291346D01*
X40342598Y-45126196D01*
X40281052Y-44954186D01*
X40236662Y-44776971D01*
X40209856Y-44596259D01*
X40200892Y-44413789D01*
X40200892Y-44413525D01*
X40200892Y-44130950D01*
X40897275Y-44130950D01*
X40918706Y-44294462D01*
X40983000Y-44378600D01*
X41067138Y-44408762D01*
X41176675Y-44413525D01*
X42938800Y-44413525D01*
X43103900Y-44394475D01*
X43192006Y-44310337D01*
X43221375Y-44134125D01*
X43199944Y-43970612D01*
X43135650Y-43886475D01*
X43051513Y-43856312D01*
X42941975Y-43851550D01*
X42583200Y-43851550D01*
X42583200Y-43454675D01*
X42560622Y-43268408D01*
X42492889Y-43086375D01*
X42380000Y-42908575D01*
X42264509Y-42790306D01*
X42114888Y-42695850D01*
X41938278Y-42633937D01*
X41741825Y-42613300D01*
X41544975Y-42633937D01*
X41367175Y-42695850D01*
X41216362Y-42790306D01*
X41100475Y-42908575D01*
X40987586Y-43086022D01*
X40919853Y-43266997D01*
X40897275Y-43451500D01*
X40897275Y-44130950D01*
X40200892Y-44130950D01*
X40200892Y-42124350D01*
X40897275Y-42124350D01*
X40918706Y-42287862D01*
X40983000Y-42372000D01*
X41067138Y-42402162D01*
X41176675Y-42406925D01*
X42938800Y-42406925D01*
X43103900Y-42387875D01*
X43192006Y-42303737D01*
X43221375Y-42127525D01*
X43199944Y-41964012D01*
X43135650Y-41879875D01*
X43051513Y-41849712D01*
X42941975Y-41844950D01*
X42583200Y-41844950D01*
X42583200Y-41444900D01*
X42576850Y-41346475D01*
X42869303Y-41223003D01*
X43060861Y-41140453D01*
X43151525Y-41098825D01*
X43213438Y-41040087D01*
X43243600Y-40938487D01*
X43199150Y-40774975D01*
X43107075Y-40627337D01*
X42995950Y-40578125D01*
X42830850Y-40625750D01*
X42628708Y-40714650D01*
X42462550Y-40786617D01*
X42332375Y-40841650D01*
X42163747Y-40709358D01*
X41966897Y-40629983D01*
X41741825Y-40603525D01*
X41544975Y-40624162D01*
X41367175Y-40686075D01*
X41216362Y-40779737D01*
X41100475Y-40895625D01*
X40987586Y-41073072D01*
X40919853Y-41254047D01*
X40897275Y-41438550D01*
X40897275Y-42124350D01*
X40200892Y-42124350D01*
X40200892Y-39311300D01*
X40868700Y-39311300D01*
X40890925Y-39527200D01*
X40957600Y-39736750D01*
X41063169Y-39931219D01*
X41202075Y-40101875D01*
X41376303Y-40244750D01*
X41587838Y-40355875D01*
X41826359Y-40427312D01*
X42081550Y-40451125D01*
X42314516Y-40429991D01*
X42530813Y-40366591D01*
X42730441Y-40260923D01*
X42913400Y-40112987D01*
X43066197Y-39934890D01*
X43175338Y-39738734D01*
X43240822Y-39524521D01*
X43262650Y-39292250D01*
X43240524Y-39060475D01*
X43174147Y-38847750D01*
X43063518Y-38654075D01*
X42908638Y-38479450D01*
X42722305Y-38334987D01*
X42517319Y-38231800D01*
X42293680Y-38169887D01*
X42051388Y-38149250D01*
X41809988Y-38170880D01*
X41589028Y-38235769D01*
X41388507Y-38343917D01*
X41208425Y-38495325D01*
X41059795Y-38676101D01*
X40953631Y-38872356D01*
X40889933Y-39084089D01*
X40868700Y-39311300D01*
X40200892Y-39311300D01*
X40200892Y-37790475D01*
X40894100Y-37790475D01*
X40922675Y-37952400D01*
X40990937Y-38006375D01*
X41122700Y-38022250D01*
X41256050Y-38006375D01*
X41330662Y-37942875D01*
X41354475Y-37793650D01*
X41354475Y-37184050D01*
X42948325Y-37184050D01*
X43057862Y-37179287D01*
X43140413Y-37150712D01*
X43205500Y-37068162D01*
X43224550Y-36911000D01*
X43205500Y-36752250D01*
X43140413Y-36668112D01*
X43059450Y-36639537D01*
X42951500Y-36634775D01*
X41354475Y-36634775D01*
X41354475Y-36028350D01*
X41325900Y-35866425D01*
X41257638Y-35812450D01*
X41125875Y-35796575D01*
X40992525Y-35812450D01*
X40917913Y-35875950D01*
X40894100Y-36025175D01*
X40894100Y-37790475D01*
X40200892Y-37790475D01*
X40200892Y-34529750D01*
X40868700Y-34529750D01*
X40890925Y-34745650D01*
X40957600Y-34955200D01*
X41063169Y-35149669D01*
X41202075Y-35320325D01*
X41376303Y-35463200D01*
X41587838Y-35574325D01*
X41826359Y-35645762D01*
X42081550Y-35669575D01*
X42314516Y-35648441D01*
X42530813Y-35585041D01*
X42730441Y-35479373D01*
X42913400Y-35331437D01*
X43066197Y-35153340D01*
X43175338Y-34957184D01*
X43240822Y-34742971D01*
X43262650Y-34510700D01*
X43240524Y-34278925D01*
X43174147Y-34066200D01*
X43063518Y-33872525D01*
X42908638Y-33697900D01*
X42722305Y-33553437D01*
X42517319Y-33450250D01*
X42293680Y-33388337D01*
X42051388Y-33367700D01*
X41809988Y-33389330D01*
X41589028Y-33454219D01*
X41388507Y-33562367D01*
X41208425Y-33713775D01*
X41059795Y-33894551D01*
X40953631Y-34090806D01*
X40889933Y-34302539D01*
X40868700Y-34529750D01*
X40200892Y-34529750D01*
X40200892Y-33008925D01*
X40894100Y-33008925D01*
X40922675Y-33170850D01*
X40990937Y-33224825D01*
X41122700Y-33240700D01*
X41256050Y-33224825D01*
X41330662Y-33161325D01*
X41354475Y-33012100D01*
X41354475Y-32402500D01*
X42948325Y-32402500D01*
X43057862Y-32397737D01*
X43140413Y-32369162D01*
X43205500Y-32286612D01*
X43224550Y-32129450D01*
X43205500Y-31970700D01*
X43140413Y-31886562D01*
X43059450Y-31857987D01*
X42951500Y-31853225D01*
X41354475Y-31853225D01*
X41354475Y-31246800D01*
X41325900Y-31084875D01*
X41257638Y-31030900D01*
X41125875Y-31015025D01*
X40992525Y-31030900D01*
X40917913Y-31094400D01*
X40894100Y-31243625D01*
X40894100Y-33008925D01*
X40200892Y-33008925D01*
X40200892Y-30580050D01*
X40862350Y-30580050D01*
X40956013Y-30780075D01*
X41051659Y-30884850D01*
X41151275Y-30919775D01*
X41319550Y-30846750D01*
X42345075Y-30160950D01*
X42945150Y-30160950D01*
X43057862Y-30156187D01*
X43143588Y-30126025D01*
X43211850Y-30040300D01*
X43230900Y-29878375D01*
X43211850Y-29716450D01*
X43145175Y-29630725D01*
X43061038Y-29600562D01*
X42951500Y-29595800D01*
X42345075Y-29595800D01*
X41319550Y-28910000D01*
X41151275Y-28836975D01*
X41048088Y-28875869D01*
X40941725Y-28992550D01*
X40862350Y-29178287D01*
X40892512Y-29281475D01*
X41017925Y-29386250D01*
X41805325Y-29878375D01*
X41017925Y-30370500D01*
X40887750Y-30484800D01*
X40862350Y-30580050D01*
X40200892Y-30580050D01*
X40200892Y-28379775D01*
X40897275Y-28379775D01*
X40918706Y-28543287D01*
X40983000Y-28627425D01*
X41067138Y-28657587D01*
X41176675Y-28662350D01*
X42938800Y-28662350D01*
X43103900Y-28643300D01*
X43192006Y-28559162D01*
X43221375Y-28382950D01*
X43199944Y-28219437D01*
X43135650Y-28135300D01*
X43051513Y-28105137D01*
X42941975Y-28100375D01*
X42583200Y-28100375D01*
X42583200Y-27703500D01*
X42560622Y-27517233D01*
X42492889Y-27335200D01*
X42380000Y-27157400D01*
X42264509Y-27039131D01*
X42114888Y-26944675D01*
X41938278Y-26882762D01*
X41741825Y-26862125D01*
X41544975Y-26882762D01*
X41367175Y-26944675D01*
X41216362Y-27039131D01*
X41100475Y-27157400D01*
X40987586Y-27334847D01*
X40919853Y-27515822D01*
X40897275Y-27700325D01*
X40897275Y-28379775D01*
X40200892Y-28379775D01*
X40200892Y-26366825D01*
X40897275Y-26366825D01*
X40956013Y-26595425D01*
X41176675Y-26655750D01*
X42941975Y-26655750D01*
X43103900Y-26636700D01*
X43194388Y-26552562D01*
X43224550Y-26376350D01*
X43224550Y-25119050D01*
X43205500Y-24953950D01*
X43121363Y-24865844D01*
X42945150Y-24836475D01*
X42781637Y-24857906D01*
X42697500Y-24922200D01*
X42667338Y-25006337D01*
X42662575Y-25115875D01*
X42662575Y-26093775D01*
X42341900Y-26093775D01*
X42341900Y-25471475D01*
X42322850Y-25306375D01*
X42238713Y-25215887D01*
X42062500Y-25185725D01*
X41898988Y-25207156D01*
X41814850Y-25271450D01*
X41784688Y-25355587D01*
X41779925Y-25465125D01*
X41779925Y-26093775D01*
X41459250Y-26093775D01*
X41459250Y-25119050D01*
X41440200Y-24953950D01*
X41356063Y-24865844D01*
X41179850Y-24836475D01*
X41016338Y-24857906D01*
X40932200Y-24922200D01*
X40902037Y-25006337D01*
X40897275Y-25115875D01*
X40897275Y-26366825D01*
X40200892Y-26366825D01*
X40200892Y-24836475D01*
X40200892Y-24836210D01*
X40209856Y-24653741D01*
X40236662Y-24473029D01*
X40281052Y-24295814D01*
X40342598Y-24123804D01*
X40420708Y-23958654D01*
X40514629Y-23801956D01*
X40623457Y-23655219D01*
X40746144Y-23519855D01*
X40881508Y-23397168D01*
X41028246Y-23288340D01*
X41184944Y-23194419D01*
X41350093Y-23116309D01*
X41522104Y-23054762D01*
X41699318Y-23010372D01*
X41880030Y-22983566D01*
X42062500Y-22974602D01*
X42244970Y-22983566D01*
X42425682Y-23010372D01*
X42602896Y-23054762D01*
X42774907Y-23116309D01*
X42940056Y-23194419D01*
X43096754Y-23288340D01*
X43243492Y-23397168D01*
X43378856Y-23519855D01*
X43501543Y-23655219D01*
X43610371Y-23801956D01*
X43704292Y-23958654D01*
X43782402Y-24123804D01*
X43843948Y-24295814D01*
X43888338Y-24473029D01*
X43915144Y-24653741D01*
X43924108Y-24836210D01*
X43924108Y-24836475D01*
X43924108Y-25119050D01*
G37*
G04 #@! TO.C,C16*
X36128080Y-17885000D02*
X35846920Y-17885000D01*
X36128080Y-16865000D02*
X35846920Y-16865000D01*
G04 #@! TO.C,C21*
X34046920Y-33090000D02*
X34328080Y-33090000D01*
X34046920Y-34110000D02*
X34328080Y-34110000D01*
G04 #@! TO.C,U5*
X31387500Y-24275000D02*
X30737500Y-24275000D01*
X24087500Y-23625000D02*
X24087500Y-24562500D01*
X31387500Y-23625000D02*
X31387500Y-24275000D01*
X24087500Y-17625000D02*
X24087500Y-16975000D01*
X31387500Y-17625000D02*
X31387500Y-16975000D01*
X24087500Y-16975000D02*
X24737500Y-16975000D01*
X31387500Y-16975000D02*
X30737500Y-16975000D01*
G04 #@! TO.C,C18*
X11277500Y-21415580D02*
X11277500Y-21134420D01*
X12297500Y-21415580D02*
X12297500Y-21134420D01*
G04 #@! TO.C,SW6*
X50887500Y-22900000D02*
X48887500Y-22900000D01*
X52187500Y-23950000D02*
X52637500Y-24400000D01*
X47587500Y-23950000D02*
X47137500Y-24400000D01*
X52637500Y-24400000D02*
X52637500Y-26900000D01*
X47137500Y-24400000D02*
X47137500Y-26900000D01*
X52187500Y-27350000D02*
X52637500Y-26900000D01*
X47587500Y-27350000D02*
X47137500Y-26900000D01*
X50887500Y-28400000D02*
X48887500Y-28400000D01*
G04 #@! TO.C,U1*
X23147500Y-9775000D02*
X23147500Y-7975000D01*
X23147500Y-9775000D02*
X23147500Y-10575000D01*
X20027500Y-9775000D02*
X20027500Y-8975000D01*
X20027500Y-9775000D02*
X20027500Y-10575000D01*
G04 #@! TO.C,C30*
X19846920Y-46840000D02*
X20128080Y-46840000D01*
X19846920Y-47860000D02*
X20128080Y-47860000D01*
G04 #@! TO.C,U3*
X23877500Y-37660000D02*
X23877500Y-37185000D01*
X24352500Y-31440000D02*
X23877500Y-31440000D01*
X24352500Y-37660000D02*
X23877500Y-37660000D01*
X29622500Y-31440000D02*
X30097500Y-31440000D01*
X29622500Y-37660000D02*
X30097500Y-37660000D01*
X30097500Y-31440000D02*
X30097500Y-31915000D01*
X30097500Y-37660000D02*
X30097500Y-37185000D01*
G04 #@! TO.C,C6*
X19828080Y-20185000D02*
X19546920Y-20185000D01*
X19828080Y-19165000D02*
X19546920Y-19165000D01*
G04 #@! TO.C,C7*
X24177500Y-13440580D02*
X24177500Y-13159420D01*
X25197500Y-13440580D02*
X25197500Y-13159420D01*
G04 #@! TO.C,C24*
X30497500Y-28259420D02*
X30497500Y-28540580D01*
X29477500Y-28259420D02*
X29477500Y-28540580D01*
G04 #@! TO.C,C15*
X35846920Y-24865000D02*
X36128080Y-24865000D01*
X35846920Y-25885000D02*
X36128080Y-25885000D01*
G04 #@! TO.C,R9*
X9365000Y-29312258D02*
X9365000Y-28837742D01*
X10410000Y-29312258D02*
X10410000Y-28837742D01*
G04 #@! TO.C,R5*
X22185000Y-44362742D02*
X22185000Y-44837258D01*
X21140000Y-44362742D02*
X21140000Y-44837258D01*
G04 #@! TO.C,kibuzzard-645C11AA*
G36*
X4721881Y-45900016D02*
G01*
X4756012Y-45939306D01*
X4765537Y-46012331D01*
X4756806Y-46084562D01*
X4729025Y-46123456D01*
X4649650Y-46137744D01*
X4271825Y-46137744D01*
X4200784Y-46124250D01*
X4165462Y-46083769D01*
X4157525Y-46010744D01*
X4167050Y-45939306D01*
X4197212Y-45901206D01*
X4273412Y-45886919D01*
X4651237Y-45886919D01*
X4721881Y-45900016D01*
G37*
G36*
X7523819Y-45900016D02*
G01*
X7557950Y-45939306D01*
X7567475Y-46012331D01*
X7558744Y-46084562D01*
X7530962Y-46123456D01*
X7451588Y-46137744D01*
X7073763Y-46137744D01*
X7002722Y-46124250D01*
X6967400Y-46083769D01*
X6959462Y-46010744D01*
X6968987Y-45939306D01*
X6999150Y-45901206D01*
X7075350Y-45886919D01*
X7453175Y-45886919D01*
X7523819Y-45900016D01*
G37*
G36*
X6818175Y-45216994D02*
G01*
X6876516Y-45270175D01*
X6895962Y-45321769D01*
X6859450Y-45405906D01*
X6516550Y-45918669D01*
X6516550Y-46221881D01*
X6514169Y-46276650D01*
X6499087Y-46318719D01*
X6456225Y-46352056D01*
X6375262Y-46361581D01*
X6294300Y-46352056D01*
X6251437Y-46317925D01*
X6236356Y-46275062D01*
X6233975Y-46218706D01*
X6233975Y-45918669D01*
X5891075Y-45405906D01*
X5854562Y-45321769D01*
X5872025Y-45271961D01*
X5924412Y-45224138D01*
X6024425Y-45177306D01*
X6072050Y-45190006D01*
X6129200Y-45255094D01*
X6375262Y-45648794D01*
X6621325Y-45255094D01*
X6673712Y-45192387D01*
X6725306Y-45177306D01*
X6818175Y-45216994D01*
G37*
G36*
X8920025Y-46110756D02*
G01*
X8837475Y-46282206D01*
X8812869Y-46328244D01*
X8784294Y-46357613D01*
X8733494Y-46372694D01*
X8648562Y-46345706D01*
X8579506Y-46298081D01*
X8556487Y-46244106D01*
X8583475Y-46163144D01*
X8722261Y-45875806D01*
X9034325Y-45875806D01*
X9245462Y-45875806D01*
X9139100Y-45658319D01*
X9034325Y-45875806D01*
X8722261Y-45875806D01*
X9012100Y-45275731D01*
X9065281Y-45216994D01*
X9140687Y-45194769D01*
X9215300Y-45215406D01*
X9267687Y-45277319D01*
X9696312Y-46163144D01*
X9723300Y-46244106D01*
X9700281Y-46298478D01*
X9631225Y-46347294D01*
X9546294Y-46374281D01*
X9495494Y-46359994D01*
X9466919Y-46329831D01*
X9442312Y-46282206D01*
X9359763Y-46110756D01*
X9034325Y-46110756D01*
X8920025Y-46110756D01*
G37*
G36*
X5008425Y-46356819D02*
G01*
X4920319Y-46341737D01*
X4878250Y-46296494D01*
X4868725Y-46213944D01*
X4868725Y-45474169D01*
X5149712Y-45474169D01*
X5149712Y-46075831D01*
X5410062Y-46075831D01*
X5485072Y-46048844D01*
X5510075Y-45967881D01*
X5501344Y-45907556D01*
X5471975Y-45875806D01*
X5383075Y-45863106D01*
X5297350Y-45840881D01*
X5268775Y-45749600D01*
X5298144Y-45658319D01*
X5395775Y-45636094D01*
X5471975Y-45602756D01*
X5476737Y-45545606D01*
X5450544Y-45490044D01*
X5371962Y-45474169D01*
X5149712Y-45474169D01*
X4868725Y-45474169D01*
X4868725Y-45332881D01*
X4871106Y-45277319D01*
X4886187Y-45236044D01*
X4928256Y-45203897D01*
X5010012Y-45193181D01*
X5410062Y-45193181D01*
X5502137Y-45204470D01*
X5583629Y-45238337D01*
X5654537Y-45294781D01*
X5711864Y-45368159D01*
X5746260Y-45450709D01*
X5757725Y-45542431D01*
X5742644Y-45642841D01*
X5697400Y-45734519D01*
X5749435Y-45811601D01*
X5780656Y-45894680D01*
X5791062Y-45983756D01*
X5777569Y-46083857D01*
X5741321Y-46172492D01*
X5682319Y-46249663D01*
X5606912Y-46309194D01*
X5521452Y-46344912D01*
X5425937Y-46356819D01*
X5149712Y-46356819D01*
X5008425Y-46356819D01*
G37*
G36*
X2683333Y-45189411D02*
G01*
X2759731Y-45206675D01*
X2876412Y-45253506D01*
X2914512Y-45275731D01*
X2958962Y-45304306D01*
X3000237Y-45379712D01*
X2966900Y-45467819D01*
X2908162Y-45532112D01*
X2855775Y-45553544D01*
X2774812Y-45518619D01*
X2697025Y-45478137D01*
X2597012Y-45464644D01*
X2494619Y-45482503D01*
X2393812Y-45536081D01*
X2314437Y-45634506D01*
X2290625Y-45702173D01*
X2282687Y-45778175D01*
X2290625Y-45854177D01*
X2314437Y-45921844D01*
X2395400Y-46021856D01*
X2494222Y-46074244D01*
X2597012Y-46091706D01*
X2689881Y-46079006D01*
X2752587Y-46053606D01*
X2781162Y-46032969D01*
X2857362Y-46001219D01*
X2908559Y-46023444D01*
X2963725Y-46090119D01*
X2998650Y-46179019D01*
X2977219Y-46234581D01*
X2927212Y-46274269D01*
X2872444Y-46307606D01*
X2765287Y-46348881D01*
X2685714Y-46367931D01*
X2608919Y-46374281D01*
X2533116Y-46369320D01*
X2456519Y-46354438D01*
X2378334Y-46327847D01*
X2297769Y-46287762D01*
X2220180Y-46235772D01*
X2150925Y-46173463D01*
X2091592Y-46096469D01*
X2043769Y-46000425D01*
X2012217Y-45890292D01*
X2001700Y-45771031D01*
X2012019Y-45652961D01*
X2042975Y-45546400D01*
X2090005Y-45454325D01*
X2148544Y-45379712D01*
X2217402Y-45319189D01*
X2295387Y-45269381D01*
X2399281Y-45221756D01*
X2503526Y-45193181D01*
X2608125Y-45183656D01*
X2683333Y-45189411D01*
G37*
G36*
X3761245Y-45189411D02*
G01*
X3837644Y-45206675D01*
X3954325Y-45253506D01*
X3992425Y-45275731D01*
X4036875Y-45304306D01*
X4078150Y-45379712D01*
X4044812Y-45467819D01*
X3986075Y-45532112D01*
X3933687Y-45553544D01*
X3852725Y-45518619D01*
X3774937Y-45478137D01*
X3674925Y-45464644D01*
X3572531Y-45482503D01*
X3471725Y-45536081D01*
X3392350Y-45634506D01*
X3368537Y-45702173D01*
X3360600Y-45778175D01*
X3368537Y-45854177D01*
X3392350Y-45921844D01*
X3473312Y-46021856D01*
X3572134Y-46074244D01*
X3674925Y-46091706D01*
X3767794Y-46079006D01*
X3830500Y-46053606D01*
X3859075Y-46032969D01*
X3935275Y-46001219D01*
X3986472Y-46023444D01*
X4041637Y-46090119D01*
X4076562Y-46179019D01*
X4055131Y-46234581D01*
X4005125Y-46274269D01*
X3950356Y-46307606D01*
X3843200Y-46348881D01*
X3763627Y-46367931D01*
X3686831Y-46374281D01*
X3611028Y-46369320D01*
X3534431Y-46354438D01*
X3456247Y-46327847D01*
X3375681Y-46287762D01*
X3298092Y-46235772D01*
X3228837Y-46173463D01*
X3169505Y-46096469D01*
X3121681Y-46000425D01*
X3090130Y-45890292D01*
X3079612Y-45771031D01*
X3089931Y-45652961D01*
X3120887Y-45546400D01*
X3167917Y-45454325D01*
X3226456Y-45379712D01*
X3295314Y-45319189D01*
X3373300Y-45269381D01*
X3477193Y-45221756D01*
X3581439Y-45193181D01*
X3686037Y-45183656D01*
X3761245Y-45189411D01*
G37*
G36*
X8145920Y-45181870D02*
G01*
X8228669Y-45200325D01*
X8337413Y-45250331D01*
X8377100Y-45280494D01*
X8426312Y-45358281D01*
X8388212Y-45445594D01*
X8333444Y-45505125D01*
X8277087Y-45524969D01*
X8194537Y-45493219D01*
X8176281Y-45477344D01*
X8151675Y-45456706D01*
X8066744Y-45436069D01*
X7981019Y-45460675D01*
X7946887Y-45528937D01*
X7987369Y-45599581D01*
X8088175Y-45636094D01*
X8151278Y-45648198D01*
X8219937Y-45665462D01*
X8288597Y-45687489D01*
X8351700Y-45713881D01*
X8407064Y-45752973D01*
X8452506Y-45813100D01*
X8482867Y-45891880D01*
X8492987Y-45986931D01*
X8482669Y-46083967D01*
X8451712Y-46168700D01*
X8404087Y-46238352D01*
X8343762Y-46290144D01*
X8256097Y-46336887D01*
X8164551Y-46364933D01*
X8069125Y-46374281D01*
X7996497Y-46369717D01*
X7927837Y-46356025D01*
X7819887Y-46310781D01*
X7748450Y-46260775D01*
X7702412Y-46212356D01*
X7688125Y-46194894D01*
X7646850Y-46103613D01*
X7663916Y-46056583D01*
X7715112Y-45996456D01*
X7799250Y-45958356D01*
X7852431Y-45978200D01*
X7923075Y-46037731D01*
X7986575Y-46089325D01*
X8062775Y-46113931D01*
X8144796Y-46100526D01*
X8194008Y-46060309D01*
X8210412Y-45993281D01*
X8169931Y-45932163D01*
X8069125Y-45896444D01*
X8006419Y-45881958D01*
X7938950Y-45860725D01*
X7871481Y-45833936D01*
X7808775Y-45802781D01*
X7753411Y-45759720D01*
X7707969Y-45697212D01*
X7677608Y-45617639D01*
X7667487Y-45523381D01*
X7679041Y-45434217D01*
X7713701Y-45352990D01*
X7771469Y-45279700D01*
X7849168Y-45221933D01*
X7943624Y-45187272D01*
X8054837Y-45175719D01*
X8145920Y-45181870D01*
G37*
G04 #@! TO.C,C32*
X23722500Y-44459420D02*
X23722500Y-44740580D01*
X22702500Y-44459420D02*
X22702500Y-44740580D01*
G04 #@! TO.C,kibuzzard-6457AC22*
G36*
X42534955Y-10115142D02*
G01*
X42562895Y-10188802D01*
X42562895Y-10351362D01*
X42338105Y-10351362D01*
X42338105Y-10191342D01*
X42366680Y-10115142D01*
X42451135Y-10078312D01*
X42534955Y-10115142D01*
G37*
G36*
X43321508Y-7001102D02*
G01*
X43321508Y-7609432D01*
X43321508Y-8645752D01*
X43321508Y-9160102D01*
X43321508Y-9988777D01*
X43321508Y-10576152D01*
X43321508Y-11088782D01*
X41833492Y-11088782D01*
X41833492Y-10576152D01*
X41833492Y-10463122D01*
X42113315Y-10463122D01*
X42121887Y-10528527D01*
X42147605Y-10562182D01*
X42181260Y-10574247D01*
X42225075Y-10576152D01*
X42929925Y-10576152D01*
X42995965Y-10568532D01*
X43031207Y-10534877D01*
X43042955Y-10464392D01*
X43034383Y-10398987D01*
X43008665Y-10365332D01*
X42975010Y-10353267D01*
X42931195Y-10351362D01*
X42787685Y-10351362D01*
X42787685Y-10191342D01*
X42785145Y-10151972D01*
X42902126Y-10102583D01*
X42978749Y-10069563D01*
X43015015Y-10052912D01*
X43039780Y-10029417D01*
X43051845Y-9988777D01*
X43034065Y-9923372D01*
X42997235Y-9864317D01*
X42952785Y-9844632D01*
X42886745Y-9863682D01*
X42805888Y-9899242D01*
X42739425Y-9928029D01*
X42687355Y-9950042D01*
X42619904Y-9897125D01*
X42541164Y-9865375D01*
X42451135Y-9854792D01*
X42372395Y-9863047D01*
X42301275Y-9887812D01*
X42240950Y-9925277D01*
X42194595Y-9971632D01*
X42149439Y-10042611D01*
X42122346Y-10115001D01*
X42113315Y-10188802D01*
X42113315Y-10463122D01*
X41833492Y-10463122D01*
X41833492Y-9659212D01*
X42113315Y-9659212D01*
X42136810Y-9750652D01*
X42225075Y-9774782D01*
X42931195Y-9774782D01*
X42995965Y-9767162D01*
X43032160Y-9733507D01*
X43044225Y-9663022D01*
X43044225Y-9160102D01*
X43036605Y-9094062D01*
X43002950Y-9058819D01*
X42932465Y-9047072D01*
X42867060Y-9055644D01*
X42833405Y-9081362D01*
X42821340Y-9115017D01*
X42819435Y-9158832D01*
X42819435Y-9549992D01*
X42691165Y-9549992D01*
X42691165Y-9301072D01*
X42683545Y-9235032D01*
X42649890Y-9198837D01*
X42579405Y-9186772D01*
X42514000Y-9195344D01*
X42480345Y-9221062D01*
X42468280Y-9254717D01*
X42466375Y-9298532D01*
X42466375Y-9549992D01*
X42338105Y-9549992D01*
X42338105Y-9160102D01*
X42330485Y-9094062D01*
X42296830Y-9058819D01*
X42226345Y-9047072D01*
X42160940Y-9055644D01*
X42127285Y-9081362D01*
X42115220Y-9115017D01*
X42113315Y-9158832D01*
X42113315Y-9659212D01*
X41833492Y-9659212D01*
X41833492Y-8657182D01*
X42098075Y-8657182D01*
X42107318Y-8746153D01*
X42135046Y-8821718D01*
X42181260Y-8883877D01*
X42239892Y-8930091D01*
X42304873Y-8957819D01*
X42376205Y-8967062D01*
X42451611Y-8958966D01*
X42515270Y-8934677D01*
X42565276Y-8898323D01*
X42599725Y-8854032D01*
X42624649Y-8803867D01*
X42646080Y-8749892D01*
X42663066Y-8695917D01*
X42674655Y-8645752D01*
X42703230Y-8565107D01*
X42752125Y-8532722D01*
X42805747Y-8545845D01*
X42837921Y-8585215D01*
X42848645Y-8650832D01*
X42828960Y-8711792D01*
X42787685Y-8762592D01*
X42740060Y-8819107D01*
X42724185Y-8861652D01*
X42754665Y-8928962D01*
X42802766Y-8969919D01*
X42840390Y-8983572D01*
X42913415Y-8950552D01*
X42927385Y-8939122D01*
X42966120Y-8902292D01*
X43006125Y-8845142D01*
X43042320Y-8758782D01*
X43053274Y-8703854D01*
X43056925Y-8645752D01*
X43049446Y-8569411D01*
X43027009Y-8496174D01*
X42989615Y-8426042D01*
X42948181Y-8377782D01*
X42892460Y-8339682D01*
X42824674Y-8314917D01*
X42747045Y-8306662D01*
X42671004Y-8314758D01*
X42607980Y-8339047D01*
X42559879Y-8375401D01*
X42528605Y-8419692D01*
X42507491Y-8470174D01*
X42489870Y-8525102D01*
X42476059Y-8580029D01*
X42466375Y-8630512D01*
X42437165Y-8711157D01*
X42380650Y-8743542D01*
X42326040Y-8716237D01*
X42306355Y-8647657D01*
X42322865Y-8579712D01*
X42339375Y-8560027D01*
X42352075Y-8545422D01*
X42377475Y-8479382D01*
X42361600Y-8434297D01*
X42313975Y-8390482D01*
X42244125Y-8360002D01*
X42181895Y-8399372D01*
X42157765Y-8431122D01*
X42117760Y-8518117D01*
X42102996Y-8584316D01*
X42098075Y-8657182D01*
X41833492Y-8657182D01*
X41833492Y-8108542D01*
X42113315Y-8108542D01*
X42136810Y-8199982D01*
X42225075Y-8224112D01*
X42931195Y-8224112D01*
X42995965Y-8216492D01*
X43032160Y-8182837D01*
X43044225Y-8112352D01*
X43044225Y-7609432D01*
X43036605Y-7543392D01*
X43002950Y-7508149D01*
X42932465Y-7496402D01*
X42867060Y-7504974D01*
X42833405Y-7530692D01*
X42821340Y-7564347D01*
X42819435Y-7608162D01*
X42819435Y-7999322D01*
X42691165Y-7999322D01*
X42691165Y-7750402D01*
X42683545Y-7684362D01*
X42649890Y-7648167D01*
X42579405Y-7636102D01*
X42514000Y-7644674D01*
X42480345Y-7670392D01*
X42468280Y-7704047D01*
X42466375Y-7747862D01*
X42466375Y-7999322D01*
X42338105Y-7999322D01*
X42338105Y-7609432D01*
X42330485Y-7543392D01*
X42296830Y-7508149D01*
X42226345Y-7496402D01*
X42160940Y-7504974D01*
X42127285Y-7530692D01*
X42115220Y-7564347D01*
X42113315Y-7608162D01*
X42113315Y-8108542D01*
X41833492Y-8108542D01*
X41833492Y-7352892D01*
X42112045Y-7352892D01*
X42123475Y-7417662D01*
X42150780Y-7439252D01*
X42203485Y-7445602D01*
X42256825Y-7439252D01*
X42286670Y-7413852D01*
X42296195Y-7354162D01*
X42296195Y-7110322D01*
X42933735Y-7110322D01*
X42977550Y-7108417D01*
X43010570Y-7096987D01*
X43036605Y-7063967D01*
X43044225Y-7001102D01*
X43036605Y-6937602D01*
X43010570Y-6903947D01*
X42978185Y-6892517D01*
X42935005Y-6890612D01*
X42296195Y-6890612D01*
X42296195Y-6648042D01*
X42284765Y-6583272D01*
X42257460Y-6561682D01*
X42204755Y-6555332D01*
X42151415Y-6561682D01*
X42121570Y-6587082D01*
X42112045Y-6646772D01*
X42112045Y-7352892D01*
X41833492Y-7352892D01*
X41833492Y-6555332D01*
X41833492Y-6555226D01*
X41837074Y-6482301D01*
X41847788Y-6410077D01*
X41865528Y-6339252D01*
X41890126Y-6270506D01*
X41921343Y-6204503D01*
X41958880Y-6141877D01*
X42002374Y-6083232D01*
X42051407Y-6029133D01*
X42105506Y-5980100D01*
X42164151Y-5936606D01*
X42226777Y-5899069D01*
X42292780Y-5867852D01*
X42361526Y-5843255D01*
X42432351Y-5825514D01*
X42504574Y-5814800D01*
X42577500Y-5811218D01*
X42650426Y-5814800D01*
X42722649Y-5825514D01*
X42793474Y-5843255D01*
X42862220Y-5867852D01*
X42928223Y-5899069D01*
X42990849Y-5936606D01*
X43049494Y-5980100D01*
X43103593Y-6029133D01*
X43152626Y-6083232D01*
X43196120Y-6141877D01*
X43233657Y-6204503D01*
X43264874Y-6270506D01*
X43289472Y-6339252D01*
X43307212Y-6410077D01*
X43317926Y-6482301D01*
X43321508Y-6555226D01*
X43321508Y-6555332D01*
X43321508Y-7001102D01*
G37*
G04 #@! TO.C,R4*
X22699758Y-42822500D02*
X22225242Y-42822500D01*
X22699758Y-41777500D02*
X22225242Y-41777500D01*
G04 #@! TO.C,R10*
X39315000Y-16862258D02*
X39315000Y-16387742D01*
X40360000Y-16862258D02*
X40360000Y-16387742D01*
G04 #@! TO.C,U4*
X11012500Y-30600000D02*
X11272500Y-30600000D01*
X11272500Y-30600000D02*
X11272500Y-32275000D01*
X16462500Y-30600000D02*
X16202500Y-30600000D01*
X11012500Y-27875000D02*
X11012500Y-30600000D01*
X11012500Y-27875000D02*
X11012500Y-25150000D01*
X16462500Y-27875000D02*
X16462500Y-30600000D01*
X16462500Y-27875000D02*
X16462500Y-25150000D01*
X11012500Y-25150000D02*
X11272500Y-25150000D01*
X16462500Y-25150000D02*
X16202500Y-25150000D01*
G04 #@! TO.C,kibuzzard-6457ABCE*
G36*
X33168333Y-8218074D02*
G01*
X33168333Y-9080404D01*
X33168333Y-10088149D01*
X33168333Y-10573289D01*
X33168333Y-11085920D01*
X31686667Y-11085920D01*
X31686667Y-10573289D01*
X31686667Y-10434224D01*
X31952520Y-10434224D01*
X31974110Y-10498359D01*
X32012845Y-10554557D01*
X32055390Y-10573289D01*
X32116350Y-10554239D01*
X32827550Y-10203719D01*
X32872635Y-10161174D01*
X32889780Y-10100849D01*
X32889780Y-10088149D01*
X32872635Y-10029094D01*
X32827550Y-9986549D01*
X32116350Y-9636029D01*
X32055390Y-9616979D01*
X32012845Y-9635712D01*
X31974110Y-9691909D01*
X31952520Y-9766839D01*
X31986810Y-9822719D01*
X32024910Y-9840499D01*
X32581170Y-10094499D01*
X32551801Y-10108311D01*
X32484015Y-10139584D01*
X32394321Y-10180859D01*
X32299230Y-10224674D01*
X32204139Y-10268331D01*
X32114445Y-10309129D01*
X32044595Y-10341038D01*
X32009035Y-10358024D01*
X31975380Y-10378979D01*
X31957600Y-10400569D01*
X31952520Y-10434224D01*
X31686667Y-10434224D01*
X31686667Y-9081039D01*
X31951250Y-9081039D01*
X31958870Y-9164718D01*
X31981730Y-9248115D01*
X32019830Y-9331229D01*
X32059676Y-9393618D01*
X32108095Y-9448704D01*
X32167785Y-9495536D01*
X32241445Y-9533159D01*
X32326694Y-9557924D01*
X32421150Y-9566179D01*
X32516559Y-9557766D01*
X32604665Y-9532524D01*
X32681500Y-9494266D01*
X32743095Y-9446799D01*
X32792943Y-9391396D01*
X32834535Y-9329324D01*
X32866603Y-9264872D01*
X32887875Y-9202324D01*
X32899781Y-9141047D01*
X32903750Y-9080404D01*
X32898670Y-9018968D01*
X32883430Y-8955309D01*
X32850410Y-8869584D01*
X32823740Y-8825769D01*
X32791990Y-8785764D01*
X32747540Y-8768619D01*
X32676420Y-8796559D01*
X32623080Y-8840692D01*
X32605300Y-8881649D01*
X32630700Y-8942609D01*
X32647210Y-8965469D01*
X32667530Y-9015634D01*
X32677690Y-9089929D01*
X32663720Y-9172162D01*
X32621810Y-9251219D01*
X32541800Y-9315989D01*
X32487666Y-9335039D01*
X32426865Y-9341389D01*
X32366064Y-9335039D01*
X32311930Y-9315989D01*
X32233190Y-9252489D01*
X32190327Y-9171844D01*
X32176040Y-9089929D01*
X32186835Y-9009919D01*
X32219220Y-8947689D01*
X32247160Y-8882919D01*
X32230015Y-8841009D01*
X32178580Y-8794019D01*
X32108095Y-8767349D01*
X32047770Y-8800369D01*
X32024910Y-8835929D01*
X32007130Y-8866409D01*
X31969665Y-8959754D01*
X31955854Y-9020873D01*
X31951250Y-9081039D01*
X31686667Y-9081039D01*
X31686667Y-8218709D01*
X31951250Y-8218709D01*
X31958870Y-8302388D01*
X31981730Y-8385785D01*
X32019830Y-8468899D01*
X32059676Y-8531288D01*
X32108095Y-8586374D01*
X32167785Y-8633206D01*
X32241445Y-8670829D01*
X32326694Y-8695594D01*
X32421150Y-8703849D01*
X32516559Y-8695436D01*
X32604665Y-8670194D01*
X32681500Y-8631936D01*
X32743095Y-8584469D01*
X32792943Y-8529066D01*
X32834535Y-8466994D01*
X32866603Y-8402542D01*
X32887875Y-8339994D01*
X32899781Y-8278717D01*
X32903750Y-8218074D01*
X32898670Y-8156638D01*
X32883430Y-8092979D01*
X32850410Y-8007254D01*
X32823740Y-7963439D01*
X32791990Y-7923434D01*
X32747540Y-7906289D01*
X32676420Y-7934229D01*
X32623080Y-7978362D01*
X32605300Y-8019319D01*
X32630700Y-8080279D01*
X32647210Y-8103139D01*
X32667530Y-8153304D01*
X32677690Y-8227599D01*
X32663720Y-8309832D01*
X32621810Y-8388889D01*
X32541800Y-8453659D01*
X32487666Y-8472709D01*
X32426865Y-8479059D01*
X32366064Y-8472709D01*
X32311930Y-8453659D01*
X32233190Y-8390159D01*
X32190327Y-8309514D01*
X32176040Y-8227599D01*
X32186835Y-8147589D01*
X32219220Y-8085359D01*
X32247160Y-8020589D01*
X32230015Y-7978679D01*
X32178580Y-7931689D01*
X32108095Y-7905019D01*
X32047770Y-7938039D01*
X32024910Y-7973599D01*
X32007130Y-8004079D01*
X31969665Y-8097424D01*
X31955854Y-8158543D01*
X31951250Y-8218709D01*
X31686667Y-8218709D01*
X31686667Y-7905019D01*
X31686667Y-7904914D01*
X31690234Y-7832299D01*
X31700902Y-7760384D01*
X31718567Y-7689861D01*
X31743059Y-7621409D01*
X31774143Y-7555687D01*
X31811520Y-7493329D01*
X31854828Y-7434934D01*
X31903652Y-7381065D01*
X31957520Y-7332242D01*
X32015915Y-7288933D01*
X32078274Y-7251557D01*
X32143995Y-7220473D01*
X32212447Y-7195980D01*
X32282971Y-7178315D01*
X32354886Y-7167648D01*
X32427500Y-7164080D01*
X32500114Y-7167648D01*
X32572029Y-7178315D01*
X32642553Y-7195980D01*
X32711005Y-7220473D01*
X32776726Y-7251557D01*
X32839085Y-7288933D01*
X32897480Y-7332242D01*
X32951348Y-7381065D01*
X33000172Y-7434934D01*
X33043480Y-7493329D01*
X33080857Y-7555687D01*
X33111941Y-7621409D01*
X33136433Y-7689861D01*
X33154098Y-7760384D01*
X33164766Y-7832299D01*
X33168333Y-7904914D01*
X33168333Y-7905019D01*
X33168333Y-8218074D01*
G37*
G04 #@! TO.C,R12*
X27510000Y-13462742D02*
X27510000Y-13937258D01*
X26465000Y-13462742D02*
X26465000Y-13937258D01*
G04 #@! TO.C,C4*
X34046920Y-36690000D02*
X34328080Y-36690000D01*
X34046920Y-37710000D02*
X34328080Y-37710000D01*
G04 #@! TO.C,kibuzzard-645C118B*
G36*
X6237204Y-44058319D02*
G01*
X6258873Y-44141662D01*
X6256095Y-44181112D01*
X6244427Y-44211671D01*
X6215118Y-44235841D01*
X6160528Y-44243897D01*
X6104687Y-44238480D01*
X6071628Y-44222228D01*
X6055375Y-44190419D01*
X6049958Y-44138329D01*
X6055792Y-44085544D01*
X6073294Y-44056096D01*
X6158305Y-44036094D01*
X6237204Y-44058319D01*
G37*
G36*
X6237204Y-44412252D02*
G01*
X6253456Y-44444061D01*
X6258873Y-44496151D01*
X6256095Y-44535601D01*
X6244427Y-44566160D01*
X6215118Y-44590330D01*
X6160528Y-44598386D01*
X6104687Y-44592969D01*
X6071628Y-44576717D01*
X6055375Y-44544907D01*
X6049958Y-44492818D01*
X6055792Y-44440033D01*
X6073294Y-44410585D01*
X6158305Y-44390583D01*
X6237204Y-44412252D01*
G37*
G36*
X2872339Y-43745780D02*
G01*
X2900676Y-43768282D01*
X2911232Y-43797731D01*
X2912899Y-43836069D01*
X2911232Y-43874407D01*
X2901231Y-43903299D01*
X2871783Y-43926080D01*
X2815665Y-43932747D01*
X2759547Y-43926080D01*
X2730099Y-43902744D01*
X2720097Y-43873296D01*
X2718431Y-43834958D01*
X2720097Y-43796619D01*
X2729543Y-43768282D01*
X2758991Y-43745780D01*
X2816221Y-43738279D01*
X2872339Y-43745780D01*
G37*
G36*
X2891786Y-44031649D02*
G01*
X2911788Y-44079432D01*
X2912899Y-44111659D01*
X2912899Y-44500596D01*
X2911232Y-44538934D01*
X2900676Y-44568383D01*
X2872061Y-44590052D01*
X2815109Y-44597275D01*
X2758713Y-44589774D01*
X2729543Y-44567271D01*
X2720097Y-44538379D01*
X2718431Y-44499485D01*
X2718431Y-44109436D01*
X2720097Y-44071098D01*
X2729543Y-44041650D01*
X2758991Y-44019981D01*
X2816221Y-44012757D01*
X2891786Y-44031649D01*
G37*
G36*
X2226980Y-43793008D02*
G01*
X2257262Y-43823845D01*
X2262818Y-43881630D01*
X2262818Y-44432810D01*
X2565078Y-44432810D01*
X2618418Y-44441144D01*
X2640643Y-44467259D01*
X2646199Y-44514487D01*
X2640643Y-44561715D01*
X2621752Y-44586163D01*
X2563967Y-44597275D01*
X2163917Y-44597275D01*
X2102242Y-44586718D01*
X2072794Y-44555048D01*
X2066127Y-44498374D01*
X2066127Y-43880519D01*
X2067794Y-43842181D01*
X2078351Y-43812732D01*
X2107799Y-43790230D01*
X2165028Y-43782729D01*
X2226980Y-43793008D01*
G37*
G36*
X3367401Y-44016647D02*
G01*
X3426297Y-44039427D01*
X3444077Y-44050540D01*
X3475192Y-44071654D01*
X3504084Y-44122216D01*
X3480748Y-44186112D01*
X3441577Y-44231952D01*
X3404072Y-44247231D01*
X3344064Y-44222784D01*
X3286835Y-44203892D01*
X3217382Y-44230562D01*
X3185156Y-44304461D01*
X3216271Y-44377803D01*
X3282390Y-44403917D01*
X3347954Y-44383359D01*
X3397404Y-44362801D01*
X3434353Y-44377525D01*
X3478526Y-44421697D01*
X3504084Y-44479482D01*
X3488805Y-44520321D01*
X3442966Y-44558381D01*
X3372401Y-44591719D01*
X3287391Y-44602831D01*
X3219357Y-44594559D01*
X3153053Y-44569741D01*
X3088477Y-44528378D01*
X3047083Y-44486845D01*
X3014023Y-44433366D01*
X2992354Y-44370858D01*
X2985131Y-44302238D01*
X2992354Y-44233896D01*
X3014023Y-44172222D01*
X3047083Y-44119576D01*
X3088477Y-44078321D01*
X3151324Y-44037575D01*
X3216888Y-44013128D01*
X3285168Y-44004979D01*
X3367401Y-44016647D01*
G37*
G36*
X4608605Y-44021092D02*
G01*
X4670280Y-44049429D01*
X4723681Y-44096657D01*
X4764736Y-44157467D01*
X4789368Y-44226550D01*
X4797579Y-44303905D01*
X4797579Y-44499485D01*
X4795913Y-44537823D01*
X4786467Y-44566160D01*
X4757019Y-44588663D01*
X4699789Y-44596164D01*
X4637559Y-44585885D01*
X4608667Y-44555048D01*
X4601999Y-44498374D01*
X4601999Y-44302794D01*
X4575885Y-44231674D01*
X4505876Y-44206115D01*
X4434756Y-44232785D01*
X4407531Y-44302794D01*
X4407531Y-44499485D01*
X4405864Y-44537823D01*
X4395307Y-44566160D01*
X4366692Y-44588663D01*
X4309741Y-44596164D01*
X4253345Y-44588663D01*
X4224174Y-44566160D01*
X4214729Y-44536712D01*
X4213062Y-44498374D01*
X4213062Y-44104991D01*
X4214729Y-44067764D01*
X4225286Y-44039427D01*
X4254456Y-44018592D01*
X4310852Y-44011646D01*
X4365581Y-44018036D01*
X4394196Y-44037205D01*
X4405308Y-44082766D01*
X4425311Y-44060541D01*
X4455314Y-44037205D01*
X4538658Y-44011646D01*
X4608605Y-44021092D01*
G37*
G36*
X3768562Y-44368358D02*
G01*
X3805233Y-44420586D01*
X3878576Y-44441700D01*
X3936083Y-44438366D01*
X3979699Y-44428365D01*
X3991923Y-44423920D01*
X4036373Y-44411696D01*
X4097492Y-44461702D01*
X4111938Y-44512820D01*
X4097145Y-44556089D01*
X4052764Y-44586996D01*
X3978796Y-44605540D01*
X3875242Y-44611721D01*
X3797593Y-44604637D01*
X3729112Y-44583384D01*
X3672300Y-44550464D01*
X3629656Y-44508375D01*
X3590762Y-44446022D01*
X3567426Y-44378976D01*
X3559647Y-44307239D01*
X3564268Y-44267234D01*
X3766339Y-44267234D01*
X3906357Y-44267234D01*
X3948584Y-44231674D01*
X3929137Y-44190557D01*
X3873575Y-44175000D01*
X3801899Y-44204448D01*
X3766339Y-44267234D01*
X3564268Y-44267234D01*
X3569710Y-44220129D01*
X3599899Y-44145490D01*
X3650214Y-44083322D01*
X3715592Y-44036711D01*
X3790972Y-44008745D01*
X3876353Y-43999422D01*
X3948445Y-44006229D01*
X4010259Y-44026648D01*
X4061793Y-44060680D01*
X4103048Y-44108325D01*
X4131385Y-44168749D01*
X4140831Y-44234452D01*
X4132357Y-44293904D01*
X4106937Y-44335576D01*
X4031928Y-44368358D01*
X3906357Y-44368358D01*
X3768562Y-44368358D01*
G37*
G36*
X5210964Y-44009979D02*
G01*
X5293197Y-44038316D01*
X5332091Y-44082766D01*
X5307643Y-44148330D01*
X5257637Y-44187224D01*
X5208186Y-44170555D01*
X5129843Y-44153886D01*
X5064279Y-44178334D01*
X5083171Y-44205837D01*
X5139844Y-44221672D01*
X5212076Y-44236119D01*
X5282084Y-44263900D01*
X5335980Y-44317796D01*
X5352232Y-44360995D01*
X5357649Y-44413919D01*
X5352232Y-44467398D01*
X5335980Y-44512264D01*
X5275417Y-44572828D01*
X5223991Y-44591966D01*
X5164539Y-44603449D01*
X5097061Y-44607276D01*
X5026497Y-44600362D01*
X4957785Y-44579618D01*
X4890924Y-44545046D01*
X4869811Y-44502819D01*
X4880368Y-44466425D01*
X4912038Y-44415030D01*
X4951488Y-44396139D01*
X5025386Y-44423364D01*
X5109841Y-44450590D01*
X5160680Y-44443923D01*
X5177627Y-44423920D01*
X5159013Y-44405584D01*
X5103173Y-44392805D01*
X5033442Y-44374747D01*
X4964267Y-44340576D01*
X4910927Y-44277791D01*
X4895092Y-44230979D01*
X4889813Y-44176111D01*
X4899459Y-44112903D01*
X4928396Y-44063742D01*
X4976624Y-44028626D01*
X5044144Y-44007557D01*
X5130954Y-44000534D01*
X5210964Y-44009979D01*
G37*
G36*
X5622127Y-44368358D02*
G01*
X5658798Y-44420586D01*
X5732141Y-44441700D01*
X5789648Y-44438366D01*
X5833264Y-44428365D01*
X5845488Y-44423920D01*
X5889938Y-44411696D01*
X5951057Y-44461702D01*
X5965503Y-44512820D01*
X5950710Y-44556089D01*
X5906329Y-44586996D01*
X5832361Y-44605540D01*
X5728807Y-44611721D01*
X5651158Y-44604637D01*
X5582678Y-44583384D01*
X5525865Y-44550464D01*
X5483221Y-44508375D01*
X5444327Y-44446022D01*
X5420991Y-44378976D01*
X5413212Y-44307239D01*
X5417833Y-44267234D01*
X5619904Y-44267234D01*
X5759922Y-44267234D01*
X5802149Y-44231674D01*
X5782703Y-44190557D01*
X5727140Y-44175000D01*
X5655464Y-44204448D01*
X5619904Y-44267234D01*
X5417833Y-44267234D01*
X5423275Y-44220129D01*
X5453464Y-44145490D01*
X5503779Y-44083322D01*
X5569157Y-44036711D01*
X5644537Y-44008745D01*
X5729918Y-43999422D01*
X5802010Y-44006229D01*
X5863824Y-44026648D01*
X5915358Y-44060680D01*
X5956613Y-44108325D01*
X5984950Y-44168749D01*
X5994396Y-44234452D01*
X5985922Y-44293904D01*
X5960503Y-44335576D01*
X5885493Y-44368358D01*
X5759922Y-44368358D01*
X5622127Y-44368358D01*
G37*
G04 #@! TO.C,C22*
X20528080Y-34710000D02*
X20246920Y-34710000D01*
X20528080Y-33690000D02*
X20246920Y-33690000D01*
G04 #@! TO.C,C26*
X31678080Y-41260000D02*
X31396920Y-41260000D01*
X31678080Y-40240000D02*
X31396920Y-40240000D01*
G04 #@! TO.C,kibuzzard-6457ABF7*
G36*
X37597274Y-8020042D02*
G01*
X37673950Y-8075287D01*
X37724909Y-8153392D01*
X37741895Y-8240387D01*
X37741895Y-8363577D01*
X37261835Y-8363577D01*
X37261835Y-8241657D01*
X37279139Y-8151328D01*
X37331050Y-8073382D01*
X37408679Y-8019566D01*
X37503135Y-8001627D01*
X37597274Y-8020042D01*
G37*
G36*
X37577501Y-6699030D02*
G01*
X37638884Y-6723160D01*
X37689825Y-6763377D01*
X37741260Y-6840212D01*
X37758405Y-6925937D01*
X37740784Y-7011821D01*
X37687920Y-7089132D01*
X37636203Y-7129701D01*
X37575031Y-7154043D01*
X37504405Y-7162157D01*
X37433779Y-7154114D01*
X37372607Y-7129984D01*
X37320890Y-7089767D01*
X37268026Y-7012932D01*
X37250405Y-6927207D01*
X37267867Y-6841323D01*
X37320255Y-6764012D01*
X37371902Y-6723443D01*
X37433708Y-6699101D01*
X37505675Y-6690987D01*
X37577501Y-6699030D01*
G37*
G36*
X38247778Y-6923397D02*
G01*
X38247778Y-7582527D01*
X38247778Y-8244197D01*
X38247778Y-9024612D01*
X38247778Y-10278737D01*
X38247778Y-10616557D01*
X38247778Y-11129187D01*
X36757222Y-11129187D01*
X36757222Y-10616557D01*
X36757222Y-10290167D01*
X37021805Y-10290167D01*
X37031048Y-10379138D01*
X37058776Y-10454703D01*
X37104990Y-10516862D01*
X37163622Y-10563076D01*
X37228603Y-10590804D01*
X37299935Y-10600047D01*
X37375341Y-10591951D01*
X37439000Y-10567662D01*
X37489006Y-10531308D01*
X37523455Y-10487017D01*
X37548379Y-10436852D01*
X37569810Y-10382877D01*
X37586796Y-10328902D01*
X37598385Y-10278737D01*
X37626960Y-10198092D01*
X37675855Y-10165707D01*
X37729477Y-10178830D01*
X37761651Y-10218200D01*
X37772375Y-10283817D01*
X37752690Y-10344777D01*
X37711415Y-10395577D01*
X37663790Y-10452092D01*
X37647915Y-10494637D01*
X37678395Y-10561947D01*
X37726496Y-10602904D01*
X37764120Y-10616557D01*
X37837145Y-10583537D01*
X37851115Y-10572107D01*
X37889850Y-10535277D01*
X37929855Y-10478127D01*
X37966050Y-10391767D01*
X37977004Y-10336839D01*
X37980655Y-10278737D01*
X37973176Y-10202396D01*
X37950739Y-10129159D01*
X37913345Y-10059027D01*
X37871911Y-10010767D01*
X37816190Y-9972667D01*
X37748404Y-9947902D01*
X37670775Y-9939647D01*
X37594734Y-9947743D01*
X37531710Y-9972032D01*
X37483609Y-10008386D01*
X37452335Y-10052677D01*
X37431221Y-10103159D01*
X37413600Y-10158087D01*
X37399789Y-10213014D01*
X37390105Y-10263497D01*
X37360895Y-10344142D01*
X37304380Y-10376527D01*
X37249770Y-10349222D01*
X37230085Y-10280642D01*
X37246595Y-10212697D01*
X37263105Y-10193012D01*
X37275805Y-10178407D01*
X37301205Y-10112367D01*
X37285330Y-10067282D01*
X37237705Y-10023467D01*
X37167855Y-9992987D01*
X37105625Y-10032357D01*
X37081495Y-10064107D01*
X37041490Y-10151102D01*
X37026726Y-10217301D01*
X37021805Y-10290167D01*
X36757222Y-10290167D01*
X36757222Y-8802997D01*
X37029425Y-8802997D01*
X37042760Y-8845542D01*
X37070065Y-8869037D01*
X37113245Y-8885547D01*
X37539965Y-9025247D01*
X37099275Y-9171297D01*
X37058000Y-9206857D01*
X37037045Y-9267182D01*
X37045935Y-9319887D01*
X37074510Y-9359574D01*
X37119595Y-9384657D01*
X37537425Y-9523087D01*
X37113245Y-9662787D01*
X37051015Y-9691362D01*
X37030695Y-9737082D01*
X37043395Y-9803757D01*
X37078002Y-9867574D01*
X37123405Y-9888847D01*
X37185635Y-9874877D01*
X37890485Y-9629767D01*
X37909535Y-9620877D01*
X37947635Y-9585952D01*
X37966685Y-9519277D01*
X37937475Y-9449427D01*
X37912075Y-9429107D01*
X37890485Y-9417677D01*
X37871079Y-9411124D01*
X37818959Y-9393496D01*
X37734123Y-9364794D01*
X37616571Y-9325018D01*
X37466305Y-9274167D01*
X37904455Y-9125577D01*
X37945730Y-9089382D01*
X37966685Y-9024612D01*
X37945730Y-8959842D01*
X37912075Y-8926187D01*
X37890485Y-8917297D01*
X37185635Y-8673457D01*
X37123405Y-8658217D01*
X37077685Y-8679489D01*
X37042125Y-8743307D01*
X37029425Y-8802997D01*
X36757222Y-8802997D01*
X36757222Y-8475337D01*
X37035775Y-8475337D01*
X37044347Y-8540742D01*
X37070065Y-8574397D01*
X37103085Y-8586462D01*
X37147535Y-8588367D01*
X37853655Y-8588367D01*
X37934935Y-8573127D01*
X37958748Y-8539472D01*
X37966685Y-8476607D01*
X37966685Y-8244197D01*
X37958033Y-8150654D01*
X37932077Y-8064333D01*
X37888818Y-7985236D01*
X37828255Y-7913362D01*
X37755587Y-7853632D01*
X37676014Y-7810968D01*
X37589535Y-7785370D01*
X37496150Y-7776837D01*
X37403122Y-7785568D01*
X37317715Y-7811762D01*
X37239927Y-7855418D01*
X37169760Y-7916537D01*
X37111697Y-7989165D01*
X37070224Y-8067349D01*
X37045340Y-8151090D01*
X37037045Y-8240387D01*
X37035775Y-8475337D01*
X36757222Y-8475337D01*
X36757222Y-7581257D01*
X37037045Y-7581257D01*
X37045617Y-7646662D01*
X37071335Y-7680317D01*
X37104990Y-7692382D01*
X37148805Y-7694287D01*
X37854925Y-7694287D01*
X37919695Y-7686667D01*
X37955890Y-7653012D01*
X37967955Y-7582527D01*
X37959383Y-7517122D01*
X37933665Y-7483467D01*
X37900645Y-7471402D01*
X37856195Y-7469497D01*
X37150075Y-7469497D01*
X37084035Y-7475847D01*
X37048792Y-7510454D01*
X37037045Y-7581257D01*
X36757222Y-7581257D01*
X36757222Y-6931017D01*
X37025615Y-6931017D01*
X37034505Y-7017377D01*
X37061175Y-7101197D01*
X37103402Y-7178984D01*
X37158965Y-7247247D01*
X37228656Y-7304397D01*
X37313270Y-7348847D01*
X37408679Y-7377422D01*
X37510755Y-7386947D01*
X37603941Y-7378494D01*
X37690460Y-7353133D01*
X37770311Y-7310866D01*
X37843495Y-7251692D01*
X37904614Y-7180453D01*
X37948270Y-7101991D01*
X37974464Y-7016305D01*
X37983195Y-6923397D01*
X37974345Y-6830687D01*
X37947794Y-6745597D01*
X37903542Y-6668127D01*
X37841590Y-6598277D01*
X37767057Y-6540492D01*
X37685062Y-6499217D01*
X37595607Y-6474452D01*
X37498690Y-6466197D01*
X37402130Y-6474849D01*
X37313746Y-6500804D01*
X37233538Y-6544064D01*
X37161505Y-6604627D01*
X37102053Y-6676938D01*
X37059587Y-6755439D01*
X37034108Y-6840133D01*
X37025615Y-6931017D01*
X36757222Y-6931017D01*
X36757222Y-6466197D01*
X36757222Y-6466091D01*
X36760810Y-6393041D01*
X36771542Y-6320695D01*
X36789313Y-6249748D01*
X36813953Y-6180885D01*
X36845223Y-6114769D01*
X36882824Y-6052037D01*
X36926392Y-5993292D01*
X36975509Y-5939100D01*
X37029700Y-5889983D01*
X37088446Y-5846415D01*
X37151178Y-5808814D01*
X37217294Y-5777544D01*
X37286157Y-5752904D01*
X37357103Y-5735133D01*
X37429450Y-5724402D01*
X37502500Y-5720813D01*
X37575550Y-5724402D01*
X37647897Y-5735133D01*
X37718843Y-5752904D01*
X37787706Y-5777544D01*
X37853822Y-5808814D01*
X37916554Y-5846415D01*
X37975300Y-5889983D01*
X38029491Y-5939100D01*
X38078608Y-5993292D01*
X38122176Y-6052037D01*
X38159777Y-6114769D01*
X38191047Y-6180885D01*
X38215687Y-6249748D01*
X38233458Y-6320695D01*
X38244190Y-6393041D01*
X38247778Y-6466091D01*
X38247778Y-6466197D01*
X38247778Y-6923397D01*
G37*
G04 #@! TO.C,C1*
X19197500Y-9234420D02*
X19197500Y-9515580D01*
X18177500Y-9234420D02*
X18177500Y-9515580D01*
G04 #@! TO.C,L1*
X28349721Y-41790000D02*
X28675279Y-41790000D01*
X28349721Y-42810000D02*
X28675279Y-42810000D01*
G04 #@! TO.C,C20*
X34046920Y-31090000D02*
X34328080Y-31090000D01*
X34046920Y-32110000D02*
X34328080Y-32110000D01*
G04 #@! TO.C,R16*
X23297936Y-46490000D02*
X24752064Y-46490000D01*
X23297936Y-48310000D02*
X24752064Y-48310000D01*
G04 #@! TD*
%LPC*%
D12*
G04 #@! TO.C,R2*
X44687500Y-17425000D03*
X44687500Y-15775000D03*
G04 #@! TD*
D13*
G04 #@! TO.C,Y2*
X28087500Y-27550000D03*
X25887500Y-27550000D03*
X25887500Y-29250000D03*
X28087500Y-29250000D03*
G04 #@! TD*
D14*
G04 #@! TO.C,L2*
X26300000Y-42300000D03*
X24725000Y-42300000D03*
G04 #@! TD*
D15*
G04 #@! TO.C,C10*
X29687500Y-14150000D03*
X29687500Y-12600000D03*
G04 #@! TD*
D16*
G04 #@! TO.C,C27*
X29287500Y-43850000D03*
X27737500Y-43850000D03*
G04 #@! TD*
D17*
G04 #@! TO.C,C8*
X22187500Y-25725000D03*
X22187500Y-27275000D03*
G04 #@! TD*
D15*
G04 #@! TO.C,C12*
X21487500Y-15950000D03*
X21487500Y-14400000D03*
G04 #@! TD*
D16*
G04 #@! TO.C,C14*
X20462500Y-21275000D03*
X18912500Y-21275000D03*
G04 #@! TD*
D15*
G04 #@! TO.C,C23*
X23987500Y-29175000D03*
X23987500Y-27625000D03*
G04 #@! TD*
D18*
G04 #@! TO.C,R3*
X32387500Y-42300000D03*
X30737500Y-42300000D03*
G04 #@! TD*
D17*
G04 #@! TO.C,C11*
X33387500Y-25775000D03*
X33387500Y-27325000D03*
G04 #@! TD*
D19*
G04 #@! TO.C,R15*
X31412500Y-47400000D03*
X28487500Y-47400000D03*
G04 #@! TD*
D15*
G04 #@! TO.C,C3*
X24487500Y-10950000D03*
X24487500Y-9400000D03*
G04 #@! TD*
D16*
G04 #@! TO.C,C28*
X26287500Y-43850000D03*
X24737500Y-43850000D03*
G04 #@! TD*
D20*
G04 #@! TO.C,J3*
X32427500Y-11850000D03*
X34967500Y-11850000D03*
X37507500Y-11850000D03*
X40047500Y-11850000D03*
X42587500Y-11850000D03*
X45127500Y-11850000D03*
G04 #@! TD*
D21*
G04 #@! TO.C,C29*
X33162500Y-47400000D03*
X34712500Y-47400000D03*
G04 #@! TD*
D17*
G04 #@! TO.C,C5*
X31787500Y-25775000D03*
X31787500Y-27325000D03*
G04 #@! TD*
D12*
G04 #@! TO.C,R1*
X43087500Y-17425000D03*
X43087500Y-15775000D03*
G04 #@! TD*
D22*
G04 #@! TO.C,Y1*
X34987500Y-19725000D03*
X34987500Y-23025000D03*
X36987500Y-23025000D03*
X36987500Y-19725000D03*
G04 #@! TD*
D17*
G04 #@! TO.C,C9*
X20587500Y-25725000D03*
X20587500Y-27275000D03*
G04 #@! TD*
D23*
G04 #@! TO.C,J2*
X48587500Y-14375000D03*
X48587500Y-13375000D03*
X48587500Y-12375000D03*
X48587500Y-11375000D03*
D24*
X52462500Y-15675000D03*
X52462500Y-10075000D03*
G04 #@! TD*
D16*
G04 #@! TO.C,C19*
X21162500Y-36000000D03*
X19612500Y-36000000D03*
G04 #@! TD*
D15*
G04 #@! TO.C,C17*
X9987500Y-22050000D03*
X9987500Y-20500000D03*
G04 #@! TD*
D18*
G04 #@! TO.C,R7*
X12612500Y-10175000D03*
X10962500Y-10175000D03*
G04 #@! TD*
G04 #@! TO.C,R8*
X12612500Y-15675000D03*
X10962500Y-15675000D03*
G04 #@! TD*
D16*
G04 #@! TO.C,C2*
X21162500Y-37750000D03*
X19612500Y-37750000D03*
G04 #@! TD*
D17*
G04 #@! TO.C,C31*
X30812500Y-43825000D03*
X30812500Y-45375000D03*
G04 #@! TD*
D16*
G04 #@! TO.C,C25*
X23212500Y-40750000D03*
X21662500Y-40750000D03*
G04 #@! TD*
D25*
G04 #@! TO.C,J1*
X6592500Y-9985000D03*
X6592500Y-15765000D03*
D26*
X7657500Y-9525000D03*
X7657500Y-10325000D03*
X7657500Y-11625000D03*
X7657500Y-12625000D03*
X7657500Y-13125000D03*
X7657500Y-14125000D03*
X7657500Y-15425000D03*
X7657500Y-16225000D03*
X7657500Y-15925000D03*
X7657500Y-15125000D03*
X7657500Y-14625000D03*
X7657500Y-13625000D03*
X7657500Y-12125000D03*
X7657500Y-11125000D03*
X7657500Y-10625000D03*
X7657500Y-9825000D03*
D27*
X7092500Y-8555000D03*
D28*
X2912500Y-8555000D03*
D27*
X7092500Y-17195000D03*
D28*
X2912500Y-17195000D03*
G04 #@! TD*
D29*
G04 #@! TO.C,R14*
X10962500Y-13675000D03*
X12612500Y-13675000D03*
G04 #@! TD*
D21*
G04 #@! TO.C,C13*
X35187501Y-15675000D03*
X36737501Y-15675000D03*
G04 #@! TD*
D30*
G04 #@! TO.C,SW7*
X2287500Y-28800000D03*
X2287500Y-22500000D03*
X6087500Y-28800000D03*
X6087500Y-22500000D03*
G04 #@! TD*
D31*
G04 #@! TO.C,R6*
X32362500Y-43775000D03*
X32362500Y-45425000D03*
G04 #@! TD*
G04 #@! TO.C,R11*
X9887500Y-24950000D03*
X9887500Y-26600000D03*
G04 #@! TD*
D32*
G04 #@! TO.C,D1*
X26987500Y-9662500D03*
X26987500Y-11237500D03*
G04 #@! TD*
D29*
G04 #@! TO.C,R13*
X10962500Y-12075000D03*
X12612500Y-12075000D03*
G04 #@! TD*
D16*
G04 #@! TO.C,C16*
X36762500Y-17375000D03*
X35212500Y-17375000D03*
G04 #@! TD*
D21*
G04 #@! TO.C,C21*
X33412500Y-33600000D03*
X34962500Y-33600000D03*
G04 #@! TD*
D33*
G04 #@! TO.C,U5*
X25137500Y-24062500D03*
X25537500Y-24062500D03*
X25937500Y-24062500D03*
X26337500Y-24062500D03*
X26737500Y-24062500D03*
X27137500Y-24062500D03*
X27537500Y-24062500D03*
X27937500Y-24062500D03*
X28337500Y-24062500D03*
X28737500Y-24062500D03*
X29137500Y-24062500D03*
X29537500Y-24062500D03*
X29937500Y-24062500D03*
X30337500Y-24062500D03*
D34*
X31175000Y-23225000D03*
X31175000Y-22825000D03*
X31175000Y-22425000D03*
X31175000Y-22025000D03*
X31175000Y-21625000D03*
X31175000Y-21225000D03*
X31175000Y-20825000D03*
X31175000Y-20425000D03*
X31175000Y-20025000D03*
X31175000Y-19625000D03*
X31175000Y-19225000D03*
X31175000Y-18825000D03*
X31175000Y-18425000D03*
X31175000Y-18025000D03*
D33*
X30337500Y-17187500D03*
X29937500Y-17187500D03*
X29537500Y-17187500D03*
X29137500Y-17187500D03*
X28737500Y-17187500D03*
X28337500Y-17187500D03*
X27937500Y-17187500D03*
X27537500Y-17187500D03*
X27137500Y-17187500D03*
X26737500Y-17187500D03*
X26337500Y-17187500D03*
X25937500Y-17187500D03*
X25537500Y-17187500D03*
X25137500Y-17187500D03*
D34*
X24300000Y-18025000D03*
X24300000Y-18425000D03*
X24300000Y-18825000D03*
X24300000Y-19225000D03*
X24300000Y-19625000D03*
X24300000Y-20025000D03*
X24300000Y-20425000D03*
X24300000Y-20825000D03*
X24300000Y-21225000D03*
X24300000Y-21625000D03*
X24300000Y-22025000D03*
X24300000Y-22425000D03*
X24300000Y-22825000D03*
X24300000Y-23225000D03*
D35*
X26537500Y-21825000D03*
X27337500Y-21825000D03*
X28137500Y-21825000D03*
X28937500Y-21825000D03*
X26537500Y-21025000D03*
X27337500Y-21025000D03*
X28137500Y-21025000D03*
X28937500Y-21025000D03*
X26537500Y-20225000D03*
X27337500Y-20225000D03*
X28137500Y-20225000D03*
X28937500Y-20225000D03*
X26537500Y-19425000D03*
X27337500Y-19425000D03*
X28137500Y-19425000D03*
X28937500Y-19425000D03*
G04 #@! TD*
D15*
G04 #@! TO.C,C18*
X11787500Y-22050000D03*
X11787500Y-20500000D03*
G04 #@! TD*
D30*
G04 #@! TO.C,SW6*
X51787500Y-22500000D03*
X51787500Y-28800000D03*
X47987500Y-22500000D03*
X47987500Y-28800000D03*
G04 #@! TD*
D36*
G04 #@! TO.C,U1*
X22537500Y-8637500D03*
X21587500Y-8637500D03*
X20637500Y-8637500D03*
X20637500Y-10912500D03*
X22537500Y-10912500D03*
G04 #@! TD*
D21*
G04 #@! TO.C,C30*
X19212500Y-47350000D03*
X20762500Y-47350000D03*
G04 #@! TD*
D37*
G04 #@! TO.C,U3*
X24050000Y-32300000D03*
X24050000Y-32800000D03*
X24050000Y-33300000D03*
X24050000Y-33800000D03*
X24050000Y-34300000D03*
X24050000Y-34800000D03*
X24050000Y-35300000D03*
X24050000Y-35800000D03*
X24050000Y-36300000D03*
X24050000Y-36800000D03*
D38*
X24737500Y-37487500D03*
X25237500Y-37487500D03*
X25737500Y-37487500D03*
X26237500Y-37487500D03*
X26737500Y-37487500D03*
X27237500Y-37487500D03*
X27737500Y-37487500D03*
X28237500Y-37487500D03*
X28737500Y-37487500D03*
X29237500Y-37487500D03*
D37*
X29925000Y-36800000D03*
X29925000Y-36300000D03*
X29925000Y-35800000D03*
X29925000Y-35300000D03*
X29925000Y-34800000D03*
X29925000Y-34300000D03*
X29925000Y-33800000D03*
X29925000Y-33300000D03*
X29925000Y-32800000D03*
X29925000Y-32300000D03*
D38*
X29237500Y-31612500D03*
X28737500Y-31612500D03*
X28237500Y-31612500D03*
X27737500Y-31612500D03*
X27237500Y-31612500D03*
X26737500Y-31612500D03*
X26237500Y-31612500D03*
X25737500Y-31612500D03*
X25237500Y-31612500D03*
X24737500Y-31612500D03*
D39*
X26987500Y-34550000D03*
G04 #@! TD*
D16*
G04 #@! TO.C,C6*
X20462500Y-19675000D03*
X18912500Y-19675000D03*
G04 #@! TD*
D15*
G04 #@! TO.C,C7*
X24687500Y-14075000D03*
X24687500Y-12525000D03*
G04 #@! TD*
D17*
G04 #@! TO.C,C24*
X29987500Y-27625000D03*
X29987500Y-29175000D03*
G04 #@! TD*
D21*
G04 #@! TO.C,C15*
X35212500Y-25375000D03*
X36762500Y-25375000D03*
G04 #@! TD*
D12*
G04 #@! TO.C,R9*
X9887500Y-29900000D03*
X9887500Y-28250000D03*
G04 #@! TD*
D31*
G04 #@! TO.C,R5*
X21662500Y-43775000D03*
X21662500Y-45425000D03*
G04 #@! TD*
D17*
G04 #@! TO.C,C32*
X23212500Y-43825000D03*
X23212500Y-45375000D03*
G04 #@! TD*
D18*
G04 #@! TO.C,R4*
X23287500Y-42300000D03*
X21637500Y-42300000D03*
G04 #@! TD*
D12*
G04 #@! TO.C,R10*
X39837500Y-17450000D03*
X39837500Y-15800000D03*
G04 #@! TD*
D40*
G04 #@! TO.C,U4*
X11832500Y-31475000D03*
X13102500Y-31475000D03*
X14372500Y-31475000D03*
X15642500Y-31475000D03*
X15642500Y-24275000D03*
X14372500Y-24275000D03*
X13102500Y-24275000D03*
X11832500Y-24275000D03*
G04 #@! TD*
D31*
G04 #@! TO.C,R12*
X26987500Y-12875000D03*
X26987500Y-14525000D03*
G04 #@! TD*
D21*
G04 #@! TO.C,C4*
X33412500Y-37200000D03*
X34962500Y-37200000D03*
G04 #@! TD*
D16*
G04 #@! TO.C,C22*
X21162500Y-34200000D03*
X19612500Y-34200000D03*
G04 #@! TD*
G04 #@! TO.C,C26*
X32312500Y-40750000D03*
X30762500Y-40750000D03*
G04 #@! TD*
D17*
G04 #@! TO.C,C1*
X18687500Y-8600000D03*
X18687500Y-10150000D03*
G04 #@! TD*
D41*
G04 #@! TO.C,L1*
X27725000Y-42300000D03*
X29300000Y-42300000D03*
G04 #@! TD*
D21*
G04 #@! TO.C,C20*
X33412500Y-31600000D03*
X34962500Y-31600000D03*
G04 #@! TD*
D42*
G04 #@! TO.C,R16*
X22562500Y-47400000D03*
X25487500Y-47400000D03*
G04 #@! TD*
M02*
