G04 #@! TF.GenerationSoftware,KiCad,Pcbnew,7.0.1-0*
G04 #@! TF.CreationDate,2023-05-11T23:17:20+02:00*
G04 #@! TF.ProjectId,nfc_reader,6e66635f-7265-4616-9465-722e6b696361,1.0*
G04 #@! TF.SameCoordinates,PX354a940PY3072580*
G04 #@! TF.FileFunction,Copper,L2,Bot*
G04 #@! TF.FilePolarity,Positive*
%FSLAX46Y46*%
G04 Gerber Fmt 4.6, Leading zero omitted, Abs format (unit mm)*
G04 Created by KiCad (PCBNEW 7.0.1-0) date 2023-05-11 23:17:20*
%MOMM*%
%LPD*%
G01*
G04 APERTURE LIST*
G04 #@! TA.AperFunction,ComponentPad*
%ADD10O,2.100000X1.000000*%
G04 #@! TD*
G04 #@! TA.AperFunction,ComponentPad*
%ADD11O,1.600000X1.000000*%
G04 #@! TD*
G04 #@! TA.AperFunction,ViaPad*
%ADD12C,0.500000*%
G04 #@! TD*
G04 #@! TA.AperFunction,ViaPad*
%ADD13C,0.800000*%
G04 #@! TD*
G04 #@! TA.AperFunction,ViaPad*
%ADD14C,0.600000*%
G04 #@! TD*
G04 #@! TA.AperFunction,ViaPad*
%ADD15C,1.000000*%
G04 #@! TD*
G04 #@! TA.AperFunction,Conductor*
%ADD16C,0.500000*%
G04 #@! TD*
G04 #@! TA.AperFunction,Conductor*
%ADD17C,0.200000*%
G04 #@! TD*
G04 #@! TA.AperFunction,Conductor*
%ADD18C,0.150000*%
G04 #@! TD*
G04 #@! TA.AperFunction,Conductor*
%ADD19C,1.000000*%
G04 #@! TD*
G04 APERTURE END LIST*
D10*
G04 #@! TO.P,J1,S1,SHIELD*
G04 #@! TO.N,GND*
X7092500Y-8555000D03*
D11*
X2912500Y-8555000D03*
D10*
X7092500Y-17195000D03*
D11*
X2912500Y-17195000D03*
G04 #@! TD*
D12*
G04 #@! TO.N,GND*
X34737500Y-46400000D03*
X29162500Y-38575000D03*
D13*
X25787500Y-9375000D03*
D12*
X17987500Y-48800000D03*
X28037500Y-30550000D03*
X34987500Y-48800000D03*
X38987500Y-48800000D03*
X4987500Y-48800000D03*
X26587500Y-18575000D03*
X51987500Y-48800000D03*
X45987500Y-48800000D03*
X5987500Y-48800000D03*
D13*
X21587500Y-7475000D03*
D12*
X43987500Y-48800000D03*
X987500Y-48800000D03*
D13*
X26087500Y-15375000D03*
D12*
X46987500Y-48800000D03*
X16987500Y-48800000D03*
X3987500Y-48800000D03*
X22437500Y-36500000D03*
X29987500Y-48800000D03*
X33437500Y-22950000D03*
X31487500Y-33450000D03*
D13*
X18187500Y-23875000D03*
X29834668Y-22722168D03*
D12*
X41987500Y-48800000D03*
X36587500Y-13225000D03*
X49987500Y-48800000D03*
X36987500Y-48800000D03*
X25087500Y-39900000D03*
D13*
X28387500Y-12775000D03*
D12*
X48987500Y-48800000D03*
X29987500Y-20875000D03*
X39987500Y-48800000D03*
X34987500Y-32600000D03*
D13*
X24187500Y-17075000D03*
D12*
X21887500Y-31850000D03*
X26237500Y-26400000D03*
X2987500Y-48800000D03*
X21987500Y-48800000D03*
D13*
X37887500Y-18075000D03*
D12*
X6987500Y-48800000D03*
X33987500Y-48800000D03*
X35987500Y-48800000D03*
X19637500Y-32100000D03*
X23687500Y-37850000D03*
X18987500Y-48800000D03*
X23987500Y-48800000D03*
X22987500Y-48800000D03*
X29537500Y-26250000D03*
X52987500Y-48800000D03*
X40987500Y-48800000D03*
X50987500Y-48800000D03*
X30287500Y-39600000D03*
X44987500Y-48800000D03*
X25687500Y-21075000D03*
X42987500Y-48800000D03*
X13987500Y-48800000D03*
X10987500Y-48800000D03*
X9987500Y-48800000D03*
X11987500Y-48800000D03*
X15987500Y-48800000D03*
X14987500Y-48800000D03*
D13*
X33987500Y-24675000D03*
D12*
X26987500Y-44750000D03*
X19987500Y-48800000D03*
X26987500Y-43050000D03*
X32987500Y-48800000D03*
D13*
X48587500Y-15475000D03*
D12*
X8987500Y-48800000D03*
X31987500Y-48800000D03*
D13*
X16687500Y-31175000D03*
D12*
X1987500Y-48800000D03*
X34937500Y-36200000D03*
X20987500Y-48800000D03*
X37987500Y-48800000D03*
D13*
X22787500Y-14475000D03*
D12*
X38562500Y-13400000D03*
X23037500Y-28250000D03*
X32887500Y-20150000D03*
X22212500Y-38425000D03*
D13*
X23387500Y-12575000D03*
D12*
X30987500Y-48800000D03*
X19187500Y-46300000D03*
X47987500Y-48800000D03*
X29787500Y-18575000D03*
X7987500Y-48800000D03*
X12987500Y-48800000D03*
X31637500Y-24500000D03*
D13*
X18687500Y-11375000D03*
D14*
G04 #@! TO.N,VCC*
X30887500Y-13575000D03*
D12*
X32587499Y-24600001D03*
D14*
X25787500Y-13575000D03*
X10562500Y-24275000D03*
D12*
X39837500Y-19575000D03*
D14*
X43087500Y-18900000D03*
D12*
X20587500Y-33100000D03*
D14*
X24339852Y-25824247D03*
D12*
G04 #@! TO.N,+1V1*
X22487500Y-17675000D03*
X21737500Y-21125000D03*
X34087500Y-15675000D03*
G04 #@! TO.N,/rp2040/SBU1*
X9687500Y-14375000D03*
X24789116Y-25288089D03*
G04 #@! TO.N,/rp2040/SBU2*
X9037499Y-11125001D03*
X25437500Y-25250000D03*
G04 #@! TO.N,Net-(U3-VCC(TX))*
X26237500Y-38500000D03*
X30937500Y-36300000D03*
G04 #@! TO.N,Net-(U3-VCC(MID))*
X27887500Y-39000000D03*
X32437500Y-37200000D03*
G04 #@! TO.N,/SCL*
X27440198Y-25752698D03*
X41337500Y-21400000D03*
X21990190Y-34850299D03*
G04 #@! TO.N,/SDA*
X26824981Y-25544465D03*
X21863998Y-33400000D03*
X41462000Y-20700000D03*
G04 #@! TO.N,/PN7150 reader/VBAT*
X31487500Y-34300000D03*
X25237498Y-38600000D03*
G04 #@! TO.N,Net-(U3-TX1)*
X29937500Y-38650000D03*
X27737500Y-41200000D03*
G04 #@! TO.N,Net-(U3-TX2)*
X26287500Y-41200000D03*
X28587500Y-39400000D03*
D15*
G04 #@! TO.N,/PN7150 reader/COIL*
X28487500Y-77500000D03*
X28487500Y-56000000D03*
X25387500Y-79000000D03*
X28487500Y-80500000D03*
X25487500Y-54500000D03*
X25487500Y-82000000D03*
D12*
G04 #@! TO.N,/PN7150 reader/IRQ*
X22463000Y-35794363D03*
X28141455Y-25475000D03*
G04 #@! TO.N,/PN7150 reader/VEN*
X22937500Y-37050000D03*
X28887500Y-25550000D03*
G04 #@! TD*
D16*
G04 #@! TO.N,VCC*
X25556739Y-26050000D02*
X26175481Y-25431258D01*
X34987500Y-19575000D02*
X39837500Y-19575000D01*
X25787500Y-13575000D02*
X30887500Y-13575000D01*
X30887500Y-13575000D02*
X30887500Y-15475000D01*
X30862500Y-23700000D02*
X31650000Y-22912500D01*
X26175481Y-24612019D02*
X27087500Y-23700000D01*
X24339852Y-25824247D02*
X24565605Y-26050000D01*
X32587499Y-23849999D02*
X32587499Y-24600001D01*
X26175481Y-25431258D02*
X26175481Y-24612019D01*
X43087500Y-18900000D02*
X42412500Y-19575000D01*
X20587500Y-25824247D02*
X20587500Y-33100000D01*
X42412500Y-19575000D02*
X39837500Y-19575000D01*
X10562500Y-24275000D02*
X12111747Y-25824247D01*
X30887500Y-15475000D02*
X34987500Y-19575000D01*
X27087500Y-23700000D02*
X30862500Y-23700000D01*
X31650000Y-22912500D02*
X34987500Y-19575000D01*
X20587500Y-25824247D02*
X24339852Y-25824247D01*
X24565605Y-26050000D02*
X25556739Y-26050000D01*
X31650000Y-22912500D02*
X32587499Y-23849999D01*
X12111747Y-25824247D02*
X20587500Y-25824247D01*
D17*
G04 #@! TO.N,+1V1*
X34087500Y-15675000D02*
X34087500Y-14275000D01*
X23687500Y-16275000D02*
X22487500Y-17475000D01*
X22487500Y-17675000D02*
X21737500Y-18425000D01*
X26287500Y-11475000D02*
X23687500Y-14075000D01*
X21737500Y-18425000D02*
X21737500Y-21125000D01*
X34087500Y-14275000D02*
X31287500Y-11475000D01*
X31287500Y-11475000D02*
X26287500Y-11475000D01*
X23687500Y-14075000D02*
X23687500Y-16275000D01*
X22487500Y-17475000D02*
X22487500Y-17675000D01*
D18*
G04 #@! TO.N,/rp2040/SBU1*
X24251027Y-24750000D02*
X24789116Y-25288089D01*
X9687500Y-14375000D02*
X11912500Y-14375000D01*
X11912500Y-14375000D02*
X22287500Y-24750000D01*
X22287500Y-24750000D02*
X24251027Y-24750000D01*
G04 #@! TO.N,/rp2040/SBU2*
X24614634Y-24427134D02*
X25437500Y-25250000D01*
X9037499Y-11125001D02*
X9086059Y-11125001D01*
X9086059Y-11125001D02*
X22388192Y-24427134D01*
X22388192Y-24427134D02*
X24614634Y-24427134D01*
D17*
G04 #@! TO.N,Net-(U3-VCC(TX))*
X26237500Y-37700000D02*
X27637500Y-36300000D01*
X26237500Y-38500000D02*
X26237500Y-37700000D01*
X27637500Y-36300000D02*
X30937500Y-36300000D01*
G04 #@! TO.N,Net-(U3-VCC(MID))*
X29687500Y-37200000D02*
X32437500Y-37200000D01*
X27887500Y-39000000D02*
X29687500Y-37200000D01*
D18*
G04 #@! TO.N,/SCL*
X27440198Y-25752698D02*
X27124482Y-26068414D01*
X27124482Y-26068414D02*
X27124482Y-27915902D01*
X27440198Y-25505212D02*
X27944910Y-25000500D01*
X22338498Y-34501991D02*
X21990190Y-34850299D01*
X41112500Y-21400000D02*
X41337500Y-21400000D01*
X29888000Y-25000500D02*
X30687500Y-25800000D01*
X30687500Y-25800000D02*
X36712500Y-25800000D01*
X27124482Y-27915902D02*
X22338498Y-32701886D01*
X27440198Y-25752698D02*
X27440198Y-25505212D01*
X22338498Y-32701886D02*
X22338498Y-34501991D01*
X36712500Y-25800000D02*
X41112500Y-21400000D01*
X27944910Y-25000500D02*
X29888000Y-25000500D01*
G04 #@! TO.N,/SDA*
X21863998Y-32752828D02*
X21863998Y-33400000D01*
X41366455Y-20700000D02*
X41462000Y-20700000D01*
X26824981Y-25544465D02*
X27669446Y-24700000D01*
X27669446Y-24700000D02*
X30011058Y-24700000D01*
X36565956Y-25500499D02*
X41366455Y-20700000D01*
X30811557Y-25500499D02*
X36565956Y-25500499D01*
X26824981Y-27791845D02*
X21863998Y-32752828D01*
X30011058Y-24700000D02*
X30811557Y-25500499D01*
X26824981Y-25544465D02*
X26824981Y-27791845D01*
D17*
G04 #@! TO.N,/PN7150 reader/VBAT*
X25237498Y-38205733D02*
X25237498Y-38600000D01*
X31487500Y-34300000D02*
X29143231Y-34300000D01*
X29143231Y-34300000D02*
X25237498Y-38205733D01*
G04 #@! TO.N,Net-(U3-TX1)*
X27737500Y-41200000D02*
X29937500Y-39000000D01*
X29937500Y-39000000D02*
X29937500Y-38650000D01*
G04 #@! TO.N,Net-(U3-TX2)*
X26287500Y-41200000D02*
X27287500Y-40200000D01*
X27787500Y-40200000D02*
X28587500Y-39400000D01*
X27287500Y-40200000D02*
X27787500Y-40200000D01*
D19*
G04 #@! TO.N,/PN7150 reader/COIL*
X26676840Y-81560660D02*
X27298160Y-80939340D01*
X26676840Y-78560660D02*
X27298160Y-77939340D01*
X25387500Y-79000000D02*
X25616180Y-79000000D01*
X28358820Y-56000000D02*
X28487500Y-56000000D01*
X25487500Y-54500000D02*
X25616180Y-54500000D01*
X26676840Y-54939340D02*
X27298160Y-55560660D01*
X28358820Y-80500000D02*
X28487500Y-80500000D01*
X28358820Y-77500000D02*
X28487500Y-77500000D01*
X25487500Y-82000000D02*
X25616180Y-82000000D01*
X28358820Y-77500015D02*
G75*
G03*
X27298160Y-77939340I-20J-1499985D01*
G01*
X26676850Y-54939330D02*
G75*
G03*
X25616180Y-54500000I-1060650J-1060670D01*
G01*
X28358820Y-80500015D02*
G75*
G03*
X27298160Y-80939340I-20J-1499985D01*
G01*
X25616180Y-81999985D02*
G75*
G03*
X26676840Y-81560660I20J1499985D01*
G01*
X27298150Y-55560670D02*
G75*
G03*
X28358820Y-56000000I1060650J1060670D01*
G01*
X25616180Y-78999985D02*
G75*
G03*
X26676840Y-78560660I20J1499985D01*
G01*
D18*
G04 #@! TO.N,/PN7150 reader/IRQ*
X22637999Y-32825943D02*
X22637999Y-34950000D01*
X22637999Y-34950000D02*
X22463000Y-35124999D01*
X27423983Y-26439959D02*
X27423983Y-28039959D01*
X28141455Y-25722487D02*
X27423983Y-26439959D01*
X27423983Y-28039959D02*
X22637999Y-32825943D01*
X28141455Y-25475000D02*
X28141455Y-25722487D01*
X22463000Y-35124999D02*
X22463000Y-35794363D01*
G04 #@! TO.N,/PN7150 reader/VEN*
X22937500Y-32950000D02*
X27723484Y-28164016D01*
X28737500Y-25550000D02*
X28887500Y-25550000D01*
X27723484Y-28164016D02*
X27723484Y-26564016D01*
X22937500Y-37050000D02*
X22937500Y-32950000D01*
X27723484Y-26564016D02*
X28737500Y-25550000D01*
G04 #@! TD*
G04 #@! TA.AperFunction,Conductor*
G04 #@! TO.N,GND*
G36*
X50803244Y-200670D02*
G01*
X51104433Y-216455D01*
X51117340Y-217812D01*
X51176810Y-227231D01*
X51412022Y-264484D01*
X51424690Y-267176D01*
X51712901Y-344402D01*
X51725228Y-348407D01*
X52003781Y-455334D01*
X52015617Y-460603D01*
X52281477Y-596065D01*
X52292683Y-602535D01*
X52542923Y-765044D01*
X52553414Y-772666D01*
X52785282Y-960429D01*
X52794927Y-969114D01*
X53005885Y-1180072D01*
X53014570Y-1189717D01*
X53202333Y-1421585D01*
X53209958Y-1432079D01*
X53372460Y-1682310D01*
X53378941Y-1693535D01*
X53514391Y-1959372D01*
X53519670Y-1971229D01*
X53626589Y-2249762D01*
X53630600Y-2262107D01*
X53645978Y-2319500D01*
X53700149Y-2521670D01*
X53707819Y-2550293D01*
X53710517Y-2562989D01*
X53757187Y-2857659D01*
X53758544Y-2870566D01*
X53774330Y-3171756D01*
X53774500Y-3178246D01*
X53774500Y-49276000D01*
X53757887Y-49338000D01*
X53712500Y-49383387D01*
X53650500Y-49400000D01*
X324500Y-49400000D01*
X262500Y-49383387D01*
X217113Y-49338000D01*
X200500Y-49276000D01*
X200500Y-41199999D01*
X25882007Y-41199999D01*
X25901853Y-41325302D01*
X25959450Y-41438343D01*
X26049156Y-41528049D01*
X26049158Y-41528050D01*
X26162196Y-41585646D01*
X26287500Y-41605492D01*
X26412804Y-41585646D01*
X26525842Y-41528050D01*
X26615550Y-41438342D01*
X26673146Y-41325304D01*
X26680355Y-41279782D01*
X26696065Y-41180602D01*
X26698794Y-41181034D01*
X26700409Y-41160473D01*
X26730661Y-41111098D01*
X27354941Y-40486819D01*
X27395170Y-40459939D01*
X27442623Y-40450500D01*
X27750615Y-40450500D01*
X27774805Y-40452882D01*
X27787500Y-40455408D01*
X27811419Y-40450650D01*
X27873926Y-40454336D01*
X27926664Y-40488095D01*
X27956183Y-40543319D01*
X27954954Y-40605925D01*
X27923290Y-40659948D01*
X27826401Y-40756837D01*
X27777056Y-40787081D01*
X27756463Y-40788706D01*
X27756896Y-40791436D01*
X27612197Y-40814353D01*
X27499156Y-40871950D01*
X27409450Y-40961656D01*
X27351853Y-41074697D01*
X27332007Y-41199999D01*
X27351853Y-41325302D01*
X27409450Y-41438343D01*
X27499156Y-41528049D01*
X27499158Y-41528050D01*
X27612196Y-41585646D01*
X27737500Y-41605492D01*
X27862804Y-41585646D01*
X27975842Y-41528050D01*
X28065550Y-41438342D01*
X28123146Y-41325304D01*
X28130355Y-41279782D01*
X28146065Y-41180602D01*
X28148793Y-41181034D01*
X28150411Y-41160464D01*
X28180661Y-41111097D01*
X30088551Y-39203208D01*
X30107327Y-39187799D01*
X30118101Y-39180601D01*
X30173466Y-39097740D01*
X30188000Y-39024674D01*
X30192908Y-39000000D01*
X30192907Y-38999997D01*
X30195256Y-38988190D01*
X30207516Y-38953927D01*
X30229194Y-38924698D01*
X30265549Y-38888343D01*
X30265550Y-38888342D01*
X30323146Y-38775304D01*
X30342992Y-38650000D01*
X30323146Y-38524696D01*
X30265550Y-38411658D01*
X30265549Y-38411656D01*
X30175843Y-38321950D01*
X30062802Y-38264353D01*
X29937500Y-38244507D01*
X29812197Y-38264353D01*
X29699156Y-38321950D01*
X29609450Y-38411656D01*
X29551853Y-38524697D01*
X29532007Y-38650000D01*
X29551853Y-38775304D01*
X29597390Y-38864676D01*
X29610735Y-38914481D01*
X29602669Y-38965408D01*
X29574586Y-39008651D01*
X29191088Y-39392149D01*
X29132354Y-39425042D01*
X29065089Y-39422399D01*
X29009117Y-39384999D01*
X28980934Y-39323866D01*
X28973146Y-39274697D01*
X28973146Y-39274696D01*
X28915550Y-39161658D01*
X28915549Y-39161656D01*
X28825843Y-39071950D01*
X28712802Y-39014353D01*
X28587501Y-38994507D01*
X28560151Y-38998839D01*
X28498750Y-38993034D01*
X28447741Y-38958367D01*
X28419741Y-38903414D01*
X28421679Y-38841770D01*
X28453072Y-38788686D01*
X29754940Y-37486819D01*
X29795169Y-37459939D01*
X29842622Y-37450500D01*
X32070246Y-37450500D01*
X32117699Y-37459939D01*
X32157928Y-37486820D01*
X32199156Y-37528049D01*
X32199158Y-37528050D01*
X32312196Y-37585646D01*
X32437500Y-37605492D01*
X32562804Y-37585646D01*
X32675842Y-37528050D01*
X32765550Y-37438342D01*
X32823146Y-37325304D01*
X32842992Y-37200000D01*
X32823146Y-37074696D01*
X32765550Y-36961658D01*
X32765549Y-36961656D01*
X32675843Y-36871950D01*
X32562802Y-36814353D01*
X32437500Y-36794507D01*
X32312197Y-36814353D01*
X32199156Y-36871950D01*
X32157928Y-36913180D01*
X32117699Y-36940061D01*
X32070246Y-36949500D01*
X30972465Y-36949500D01*
X30937500Y-36940619D01*
X30902535Y-36949500D01*
X29724386Y-36949500D01*
X29700194Y-36947117D01*
X29687500Y-36944592D01*
X29674807Y-36947117D01*
X29674802Y-36947117D01*
X29589761Y-36964033D01*
X29589759Y-36964034D01*
X29589760Y-36964034D01*
X29506899Y-37019399D01*
X29506898Y-37019400D01*
X29506897Y-37019401D01*
X29499700Y-37030171D01*
X29484283Y-37048955D01*
X27976401Y-38556837D01*
X27927056Y-38587081D01*
X27906463Y-38588706D01*
X27906896Y-38591436D01*
X27762197Y-38614353D01*
X27649156Y-38671950D01*
X27559450Y-38761656D01*
X27501853Y-38874697D01*
X27482007Y-38999999D01*
X27501853Y-39125302D01*
X27559450Y-39238343D01*
X27649156Y-39328049D01*
X27649158Y-39328050D01*
X27762196Y-39385646D01*
X27793522Y-39390607D01*
X27887497Y-39405492D01*
X27887498Y-39405491D01*
X27887500Y-39405492D01*
X27914843Y-39401161D01*
X27976243Y-39406964D01*
X28027254Y-39441630D01*
X28055254Y-39496583D01*
X28053318Y-39558228D01*
X28021923Y-39611315D01*
X27911324Y-39721914D01*
X27720056Y-39913183D01*
X27679831Y-39940061D01*
X27632378Y-39949500D01*
X27324390Y-39949500D01*
X27300198Y-39947117D01*
X27287500Y-39944591D01*
X27287499Y-39944591D01*
X27184610Y-39965057D01*
X27174465Y-39974253D01*
X27106897Y-40019400D01*
X27099702Y-40030168D01*
X27084285Y-40048952D01*
X26376401Y-40756836D01*
X26327056Y-40787080D01*
X26306464Y-40788705D01*
X26306897Y-40791435D01*
X26162197Y-40814353D01*
X26049156Y-40871950D01*
X25959450Y-40961656D01*
X25901853Y-41074697D01*
X25882007Y-41199999D01*
X200500Y-41199999D01*
X200500Y-38600000D01*
X24832005Y-38600000D01*
X24851851Y-38725302D01*
X24909448Y-38838343D01*
X24999154Y-38928049D01*
X24999156Y-38928050D01*
X25112194Y-38985646D01*
X25237498Y-39005492D01*
X25362802Y-38985646D01*
X25475840Y-38928050D01*
X25565548Y-38838342D01*
X25623144Y-38725304D01*
X25629761Y-38683522D01*
X25654254Y-38626923D01*
X25702987Y-38589122D01*
X25763903Y-38579473D01*
X25821932Y-38600365D01*
X25862719Y-38646628D01*
X25909450Y-38738343D01*
X25999156Y-38828049D01*
X25999158Y-38828050D01*
X26112196Y-38885646D01*
X26237500Y-38905492D01*
X26362804Y-38885646D01*
X26475842Y-38828050D01*
X26565550Y-38738342D01*
X26623146Y-38625304D01*
X26642992Y-38500000D01*
X26623146Y-38374696D01*
X26565550Y-38261658D01*
X26565549Y-38261656D01*
X26524320Y-38220428D01*
X26497439Y-38180199D01*
X26488000Y-38132746D01*
X26488000Y-37855122D01*
X26497439Y-37807669D01*
X26524319Y-37767441D01*
X27704941Y-36586819D01*
X27745169Y-36559939D01*
X27792622Y-36550500D01*
X30570246Y-36550500D01*
X30617699Y-36559939D01*
X30657928Y-36586820D01*
X30699156Y-36628049D01*
X30699158Y-36628050D01*
X30812196Y-36685646D01*
X30836897Y-36689558D01*
X30921933Y-36703027D01*
X30937500Y-36709715D01*
X30953067Y-36703027D01*
X31022477Y-36692033D01*
X31062804Y-36685646D01*
X31175842Y-36628050D01*
X31265550Y-36538342D01*
X31323146Y-36425304D01*
X31342992Y-36300000D01*
X31323146Y-36174696D01*
X31265550Y-36061658D01*
X31265549Y-36061656D01*
X31175843Y-35971950D01*
X31062802Y-35914353D01*
X30937500Y-35894507D01*
X30812197Y-35914353D01*
X30699156Y-35971950D01*
X30657928Y-36013180D01*
X30617699Y-36040061D01*
X30570246Y-36049500D01*
X28047354Y-36049500D01*
X27991059Y-36035985D01*
X27947036Y-35998385D01*
X27924881Y-35944898D01*
X27929423Y-35887182D01*
X27959673Y-35837819D01*
X29210673Y-34586819D01*
X29250901Y-34559939D01*
X29298354Y-34550500D01*
X31120246Y-34550500D01*
X31167699Y-34559939D01*
X31207928Y-34586820D01*
X31249156Y-34628049D01*
X31249158Y-34628050D01*
X31362196Y-34685646D01*
X31487500Y-34705492D01*
X31612804Y-34685646D01*
X31725842Y-34628050D01*
X31815550Y-34538342D01*
X31873146Y-34425304D01*
X31892992Y-34300000D01*
X31873146Y-34174696D01*
X31815550Y-34061658D01*
X31815549Y-34061656D01*
X31725843Y-33971950D01*
X31612802Y-33914353D01*
X31487500Y-33894507D01*
X31362197Y-33914353D01*
X31249156Y-33971950D01*
X31207928Y-34013180D01*
X31167699Y-34040061D01*
X31120246Y-34049500D01*
X29180121Y-34049500D01*
X29155929Y-34047117D01*
X29143231Y-34044591D01*
X29143230Y-34044591D01*
X29040341Y-34065057D01*
X29030196Y-34074253D01*
X28962628Y-34119400D01*
X28955433Y-34130168D01*
X28940016Y-34148952D01*
X25086453Y-38002516D01*
X25067668Y-38017934D01*
X25056898Y-38025131D01*
X25021446Y-38078185D01*
X25021441Y-38078193D01*
X25021440Y-38078196D01*
X25011451Y-38093145D01*
X25001530Y-38107994D01*
X24982090Y-38205731D01*
X24982977Y-38210191D01*
X24980021Y-38270378D01*
X24949041Y-38322064D01*
X24909448Y-38361656D01*
X24851851Y-38474697D01*
X24832005Y-38600000D01*
X200500Y-38600000D01*
X200500Y-17320000D01*
X1969665Y-17320000D01*
X2019688Y-17473955D01*
X2107687Y-17612621D01*
X2227399Y-17725037D01*
X2371319Y-17804159D01*
X2530384Y-17845000D01*
X2787500Y-17845000D01*
X2787500Y-17320000D01*
X3037500Y-17320000D01*
X3037500Y-17845000D01*
X3253396Y-17845000D01*
X3375432Y-17829583D01*
X3528127Y-17769127D01*
X3660993Y-17672593D01*
X3765674Y-17546056D01*
X3835599Y-17397458D01*
X3850375Y-17320000D01*
X5899665Y-17320000D01*
X5949688Y-17473955D01*
X6037687Y-17612621D01*
X6157399Y-17725037D01*
X6301319Y-17804159D01*
X6460384Y-17845000D01*
X6967500Y-17845000D01*
X6967500Y-17320000D01*
X7217500Y-17320000D01*
X7217500Y-17845000D01*
X7683396Y-17845000D01*
X7805432Y-17829583D01*
X7958127Y-17769127D01*
X8090993Y-17672593D01*
X8195674Y-17546056D01*
X8265599Y-17397458D01*
X8280375Y-17320000D01*
X7217500Y-17320000D01*
X6967500Y-17320000D01*
X5899665Y-17320000D01*
X3850375Y-17320000D01*
X3037500Y-17320000D01*
X2787500Y-17320000D01*
X1969665Y-17320000D01*
X200500Y-17320000D01*
X200500Y-17070000D01*
X1974625Y-17070000D01*
X2787500Y-17070000D01*
X2787500Y-16545000D01*
X3037500Y-16545000D01*
X3037500Y-17070000D01*
X3855335Y-17070000D01*
X5904625Y-17070000D01*
X6967500Y-17070000D01*
X6967500Y-16545000D01*
X7217500Y-16545000D01*
X7217500Y-17070000D01*
X8285335Y-17070000D01*
X8285334Y-17069999D01*
X8235311Y-16916044D01*
X8147312Y-16777378D01*
X8027600Y-16664962D01*
X7883680Y-16585840D01*
X7724616Y-16545000D01*
X7217500Y-16545000D01*
X6967500Y-16545000D01*
X6501604Y-16545000D01*
X6379567Y-16560416D01*
X6226872Y-16620872D01*
X6094006Y-16717406D01*
X5989325Y-16843943D01*
X5919400Y-16992541D01*
X5904625Y-17070000D01*
X3855335Y-17070000D01*
X3855334Y-17069999D01*
X3805311Y-16916044D01*
X3717312Y-16777378D01*
X3597600Y-16664962D01*
X3453680Y-16585840D01*
X3294616Y-16545000D01*
X3037500Y-16545000D01*
X2787500Y-16545000D01*
X2571604Y-16545000D01*
X2449567Y-16560416D01*
X2296872Y-16620872D01*
X2164006Y-16717406D01*
X2059325Y-16843943D01*
X1989400Y-16992541D01*
X1974625Y-17070000D01*
X200500Y-17070000D01*
X200500Y-15833367D01*
X6117000Y-15833367D01*
X6155522Y-15964562D01*
X6229443Y-16079587D01*
X6332782Y-16169130D01*
X6457157Y-16225931D01*
X6558489Y-16240500D01*
X6626511Y-16240500D01*
X6727842Y-16225931D01*
X6727842Y-16225930D01*
X6852218Y-16169130D01*
X6955555Y-16079589D01*
X7029478Y-15964561D01*
X7068000Y-15833367D01*
X7068000Y-15696633D01*
X7029478Y-15565439D01*
X7025666Y-15559507D01*
X6955556Y-15450412D01*
X6852217Y-15360869D01*
X6727842Y-15304068D01*
X6626511Y-15289500D01*
X6558489Y-15289500D01*
X6457157Y-15304068D01*
X6332782Y-15360869D01*
X6229443Y-15450412D01*
X6155522Y-15565437D01*
X6117000Y-15696633D01*
X6117000Y-15833367D01*
X200500Y-15833367D01*
X200500Y-11125000D01*
X8632006Y-11125000D01*
X8651852Y-11250303D01*
X8709449Y-11363344D01*
X8799155Y-11453050D01*
X8799157Y-11453051D01*
X8912195Y-11510647D01*
X8953963Y-11517262D01*
X9037497Y-11530493D01*
X9037497Y-11530492D01*
X9037499Y-11530493D01*
X9091762Y-11521898D01*
X9149478Y-11526440D01*
X9198842Y-11556690D01*
X11579971Y-13937819D01*
X11610221Y-13987182D01*
X11614763Y-14044898D01*
X11592608Y-14098385D01*
X11548585Y-14135985D01*
X11492290Y-14149500D01*
X10079754Y-14149500D01*
X10032301Y-14140061D01*
X9992075Y-14113183D01*
X9925842Y-14046950D01*
X9925841Y-14046949D01*
X9812802Y-13989353D01*
X9687500Y-13969507D01*
X9562197Y-13989353D01*
X9449156Y-14046950D01*
X9359450Y-14136656D01*
X9301853Y-14249697D01*
X9282007Y-14375000D01*
X9301853Y-14500302D01*
X9359450Y-14613343D01*
X9449156Y-14703049D01*
X9449158Y-14703050D01*
X9562196Y-14760646D01*
X9687500Y-14780492D01*
X9812804Y-14760646D01*
X9925842Y-14703050D01*
X9992075Y-14636816D01*
X10032301Y-14609939D01*
X10079754Y-14600500D01*
X11767732Y-14600500D01*
X11815185Y-14609939D01*
X11855413Y-14636819D01*
X22121575Y-24902981D01*
X22126044Y-24907690D01*
X22151993Y-24936509D01*
X22170653Y-24944817D01*
X22187746Y-24954097D01*
X22204883Y-24965226D01*
X22205434Y-24965313D01*
X22206769Y-24965525D01*
X22237816Y-24974721D01*
X22239566Y-24975500D01*
X22239568Y-24975500D01*
X22259995Y-24975500D01*
X22279392Y-24977027D01*
X22283231Y-24977634D01*
X22299566Y-24980222D01*
X22301421Y-24979724D01*
X22333513Y-24975500D01*
X24106259Y-24975500D01*
X24153712Y-24984939D01*
X24193940Y-25011819D01*
X24344356Y-25162235D01*
X24376257Y-25217111D01*
X24376823Y-25280582D01*
X24345907Y-25336019D01*
X24291609Y-25368893D01*
X24139820Y-25413461D01*
X24128297Y-25418724D01*
X24093361Y-25423747D01*
X20628776Y-25423747D01*
X20609378Y-25422220D01*
X20607274Y-25421886D01*
X20587500Y-25418754D01*
X20567725Y-25421886D01*
X20565621Y-25422220D01*
X20546224Y-25423747D01*
X12329001Y-25423747D01*
X12281548Y-25414308D01*
X12241320Y-25387428D01*
X11635713Y-24781821D01*
X11013780Y-24159887D01*
X10988667Y-24123717D01*
X10945382Y-24028936D01*
X10860549Y-23931033D01*
X10751568Y-23860994D01*
X10627273Y-23824500D01*
X10627272Y-23824500D01*
X10497728Y-23824500D01*
X10497727Y-23824500D01*
X10373431Y-23860994D01*
X10264450Y-23931033D01*
X10179618Y-24028935D01*
X10125802Y-24146773D01*
X10107367Y-24275000D01*
X10125802Y-24403226D01*
X10179618Y-24521064D01*
X10248016Y-24600000D01*
X10264451Y-24618967D01*
X10373431Y-24689004D01*
X10394989Y-24695333D01*
X10447737Y-24726630D01*
X11127403Y-25406295D01*
X11783697Y-26062589D01*
X11873405Y-26152297D01*
X11893142Y-26162353D01*
X11909737Y-26172522D01*
X11927657Y-26185543D01*
X11948731Y-26192389D01*
X11966705Y-26199835D01*
X11986443Y-26209893D01*
X12008327Y-26213359D01*
X12027241Y-26217900D01*
X12048314Y-26224747D01*
X12080228Y-26224747D01*
X12175180Y-26224747D01*
X20063000Y-26224747D01*
X20125000Y-26241360D01*
X20170387Y-26286747D01*
X20187000Y-26348747D01*
X20187000Y-33058724D01*
X20185473Y-33078123D01*
X20182007Y-33099999D01*
X20187000Y-33131516D01*
X20187000Y-33131520D01*
X20201853Y-33225302D01*
X20259450Y-33338343D01*
X20349156Y-33428049D01*
X20349158Y-33428050D01*
X20462196Y-33485646D01*
X20587500Y-33505492D01*
X20712804Y-33485646D01*
X20825842Y-33428050D01*
X20915550Y-33338342D01*
X20973146Y-33225304D01*
X20988000Y-33131519D01*
X20992992Y-33100000D01*
X20989526Y-33078121D01*
X20988000Y-33058724D01*
X20988000Y-26348747D01*
X21004613Y-26286747D01*
X21050000Y-26241360D01*
X21112000Y-26224747D01*
X24093361Y-26224747D01*
X24128297Y-26229770D01*
X24139817Y-26235031D01*
X24150782Y-26238250D01*
X24150783Y-26238251D01*
X24172341Y-26244580D01*
X24225089Y-26275877D01*
X24313375Y-26364163D01*
X24313380Y-26364167D01*
X24327263Y-26378050D01*
X24346997Y-26388105D01*
X24346999Y-26388106D01*
X24363587Y-26398271D01*
X24381515Y-26411296D01*
X24402584Y-26418141D01*
X24420563Y-26425588D01*
X24440301Y-26435646D01*
X24462185Y-26439112D01*
X24481099Y-26443653D01*
X24502172Y-26450500D01*
X24534086Y-26450500D01*
X24629038Y-26450500D01*
X25493306Y-26450500D01*
X25588258Y-26450500D01*
X25620172Y-26450500D01*
X25641238Y-26443655D01*
X25660153Y-26439112D01*
X25682043Y-26435646D01*
X25701781Y-26425587D01*
X25719755Y-26418142D01*
X25740829Y-26411296D01*
X25758760Y-26398267D01*
X25775337Y-26388109D01*
X25795081Y-26378050D01*
X25803413Y-26369717D01*
X25803419Y-26369713D01*
X25938101Y-26235031D01*
X26355946Y-25817183D01*
X26411533Y-25785090D01*
X26475720Y-25785090D01*
X26531308Y-25817184D01*
X26563162Y-25849038D01*
X26590042Y-25889266D01*
X26599481Y-25936719D01*
X26599481Y-27647078D01*
X26590042Y-27694531D01*
X26563162Y-27734759D01*
X21711022Y-32586897D01*
X21706316Y-32591364D01*
X21677486Y-32617323D01*
X21669177Y-32635985D01*
X21659897Y-32653076D01*
X21648771Y-32670209D01*
X21648470Y-32672111D01*
X21639282Y-32703132D01*
X21638498Y-32704893D01*
X21638498Y-32725322D01*
X21636971Y-32744719D01*
X21633776Y-32764892D01*
X21634273Y-32766747D01*
X21638498Y-32798840D01*
X21638498Y-33007746D01*
X21629059Y-33055199D01*
X21602181Y-33095424D01*
X21569062Y-33128543D01*
X21535947Y-33161658D01*
X21478351Y-33274697D01*
X21458505Y-33399999D01*
X21478351Y-33525302D01*
X21535948Y-33638343D01*
X21625654Y-33728049D01*
X21625656Y-33728050D01*
X21738694Y-33785646D01*
X21863998Y-33805492D01*
X21969600Y-33788767D01*
X22022657Y-33791896D01*
X22069530Y-33816950D01*
X22101608Y-33859326D01*
X22112998Y-33911240D01*
X22112998Y-34319450D01*
X22099483Y-34375745D01*
X22061883Y-34419768D01*
X22008396Y-34441923D01*
X21864887Y-34464652D01*
X21751846Y-34522249D01*
X21662140Y-34611955D01*
X21604543Y-34724996D01*
X21584697Y-34850299D01*
X21604543Y-34975601D01*
X21662140Y-35088642D01*
X21751846Y-35178348D01*
X21751848Y-35178349D01*
X21864886Y-35235945D01*
X21990190Y-35255791D01*
X22094102Y-35239334D01*
X22147159Y-35242463D01*
X22194032Y-35267517D01*
X22226110Y-35309893D01*
X22237500Y-35361807D01*
X22237500Y-35402109D01*
X22228061Y-35449562D01*
X22201183Y-35489787D01*
X22168064Y-35522906D01*
X22134949Y-35556021D01*
X22077353Y-35669060D01*
X22057507Y-35794363D01*
X22077353Y-35919665D01*
X22134950Y-36032706D01*
X22224656Y-36122412D01*
X22224658Y-36122413D01*
X22337696Y-36180009D01*
X22463000Y-36199855D01*
X22568602Y-36183130D01*
X22621659Y-36186259D01*
X22668532Y-36211313D01*
X22700610Y-36253689D01*
X22712000Y-36305603D01*
X22712000Y-36657746D01*
X22702561Y-36705199D01*
X22675683Y-36745424D01*
X22642564Y-36778543D01*
X22609449Y-36811658D01*
X22551853Y-36924697D01*
X22532007Y-37049999D01*
X22551853Y-37175302D01*
X22609450Y-37288343D01*
X22699156Y-37378049D01*
X22699158Y-37378050D01*
X22812196Y-37435646D01*
X22937500Y-37455492D01*
X23062804Y-37435646D01*
X23175842Y-37378050D01*
X23265550Y-37288342D01*
X23323146Y-37175304D01*
X23342992Y-37050000D01*
X23342826Y-37048955D01*
X23329000Y-36961656D01*
X23323146Y-36924696D01*
X23265550Y-36811658D01*
X23199316Y-36745424D01*
X23172439Y-36705199D01*
X23163000Y-36657746D01*
X23163000Y-33094768D01*
X23172439Y-33047315D01*
X23199319Y-33007087D01*
X23619509Y-32586897D01*
X27876473Y-28329930D01*
X27881142Y-28325499D01*
X27909993Y-28299523D01*
X27918305Y-28280852D01*
X27927580Y-28263769D01*
X27938709Y-28246634D01*
X27939009Y-28244738D01*
X27948204Y-28213699D01*
X27948984Y-28211948D01*
X27948984Y-28191522D01*
X27950511Y-28172122D01*
X27953706Y-28151951D01*
X27953208Y-28150094D01*
X27948984Y-28118003D01*
X27948984Y-26708784D01*
X27958423Y-26661331D01*
X27985303Y-26621103D01*
X28257658Y-26348747D01*
X28638587Y-25967817D01*
X28687947Y-25937569D01*
X28745664Y-25933027D01*
X28762194Y-25935645D01*
X28762196Y-25935646D01*
X28887500Y-25955492D01*
X29012804Y-25935646D01*
X29125842Y-25878050D01*
X29215550Y-25788342D01*
X29273146Y-25675304D01*
X29292992Y-25550000D01*
X29273146Y-25424696D01*
X29263769Y-25406294D01*
X29250351Y-25345132D01*
X29268528Y-25285210D01*
X29313666Y-25241811D01*
X29374255Y-25226000D01*
X29743232Y-25226000D01*
X29790685Y-25235439D01*
X29830913Y-25262319D01*
X30521575Y-25952981D01*
X30526044Y-25957690D01*
X30551993Y-25986509D01*
X30570653Y-25994817D01*
X30587746Y-26004097D01*
X30604883Y-26015226D01*
X30605434Y-26015313D01*
X30606769Y-26015525D01*
X30637816Y-26024721D01*
X30639566Y-26025500D01*
X30639568Y-26025500D01*
X30659995Y-26025500D01*
X30679392Y-26027027D01*
X30683231Y-26027634D01*
X30699566Y-26030222D01*
X30701421Y-26029724D01*
X30733513Y-26025500D01*
X36703338Y-26025500D01*
X36709829Y-26025670D01*
X36748562Y-26027700D01*
X36748562Y-26027699D01*
X36748564Y-26027700D01*
X36767638Y-26020377D01*
X36786282Y-26014854D01*
X36806268Y-26010607D01*
X36807815Y-26009482D01*
X36836266Y-25994034D01*
X36838060Y-25993346D01*
X36852502Y-25978903D01*
X36867297Y-25966265D01*
X36883823Y-25954260D01*
X36884785Y-25952592D01*
X36904485Y-25926919D01*
X41038236Y-21793168D01*
X41081478Y-21765087D01*
X41132406Y-21757021D01*
X41182207Y-21770365D01*
X41212196Y-21785646D01*
X41295731Y-21798876D01*
X41337499Y-21805492D01*
X41337499Y-21805491D01*
X41337500Y-21805492D01*
X41462804Y-21785646D01*
X41575842Y-21728050D01*
X41665550Y-21638342D01*
X41723146Y-21525304D01*
X41742992Y-21400000D01*
X41723146Y-21274696D01*
X41673095Y-21176467D01*
X41659751Y-21126663D01*
X41667817Y-21075735D01*
X41695900Y-21032491D01*
X41700339Y-21028051D01*
X41700342Y-21028050D01*
X41790050Y-20938342D01*
X41847646Y-20825304D01*
X41867492Y-20700000D01*
X41847646Y-20574696D01*
X41790050Y-20461658D01*
X41790049Y-20461656D01*
X41700343Y-20371950D01*
X41587302Y-20314353D01*
X41462000Y-20294507D01*
X41336697Y-20314353D01*
X41223656Y-20371950D01*
X41133950Y-20461656D01*
X41076353Y-20574697D01*
X41064495Y-20649563D01*
X41052507Y-20686459D01*
X41029703Y-20717845D01*
X36508870Y-25238680D01*
X36468642Y-25265560D01*
X36421189Y-25274999D01*
X30956324Y-25274999D01*
X30908871Y-25265560D01*
X30868643Y-25238680D01*
X30176990Y-24547027D01*
X30172521Y-24542318D01*
X30146565Y-24513490D01*
X30127908Y-24505184D01*
X30110810Y-24495900D01*
X30093675Y-24484772D01*
X30091770Y-24484471D01*
X30060742Y-24475280D01*
X30058990Y-24474500D01*
X30038564Y-24474500D01*
X30019167Y-24472973D01*
X29998993Y-24469778D01*
X29997137Y-24470275D01*
X29965046Y-24474500D01*
X27678607Y-24474500D01*
X27672118Y-24474330D01*
X27654527Y-24473408D01*
X27633382Y-24472300D01*
X27633381Y-24472300D01*
X27614308Y-24479621D01*
X27595661Y-24485144D01*
X27575679Y-24489392D01*
X27574121Y-24490524D01*
X27545691Y-24505960D01*
X27543889Y-24506651D01*
X27535273Y-24515267D01*
X27529438Y-24521101D01*
X27514651Y-24533731D01*
X27498122Y-24545740D01*
X27497159Y-24547409D01*
X27477457Y-24573082D01*
X26944404Y-25106135D01*
X26895042Y-25136385D01*
X26837327Y-25140928D01*
X26824979Y-25138972D01*
X26719379Y-25155698D01*
X26666322Y-25152569D01*
X26619449Y-25127515D01*
X26587371Y-25085139D01*
X26575981Y-25033225D01*
X26575981Y-24829274D01*
X26585420Y-24781821D01*
X26612300Y-24741593D01*
X27217074Y-24136819D01*
X27257302Y-24109939D01*
X27304755Y-24100500D01*
X30925933Y-24100500D01*
X30946999Y-24093655D01*
X30965914Y-24089112D01*
X30987804Y-24085646D01*
X31007542Y-24075587D01*
X31025516Y-24068142D01*
X31046590Y-24061296D01*
X31064521Y-24048267D01*
X31081098Y-24038109D01*
X31100842Y-24028050D01*
X31109174Y-24019717D01*
X31109180Y-24019713D01*
X31149320Y-23979573D01*
X31562320Y-23566571D01*
X31617905Y-23534479D01*
X31682092Y-23534479D01*
X31737680Y-23566573D01*
X32150680Y-23979573D01*
X32177560Y-24019801D01*
X32186999Y-24067254D01*
X32186999Y-24558725D01*
X32185472Y-24578124D01*
X32182006Y-24600000D01*
X32186999Y-24631517D01*
X32186999Y-24631521D01*
X32201852Y-24725303D01*
X32259449Y-24838344D01*
X32349155Y-24928050D01*
X32349157Y-24928051D01*
X32462195Y-24985647D01*
X32524847Y-24995570D01*
X32587498Y-25005493D01*
X32587498Y-25005492D01*
X32587499Y-25005493D01*
X32712803Y-24985647D01*
X32825841Y-24928051D01*
X32915549Y-24838343D01*
X32973145Y-24725305D01*
X32987999Y-24631520D01*
X32992991Y-24600001D01*
X32989525Y-24578122D01*
X32987999Y-24558725D01*
X32987999Y-23786566D01*
X32981153Y-23765496D01*
X32976611Y-23746576D01*
X32973145Y-23724698D01*
X32973145Y-23724695D01*
X32963081Y-23704944D01*
X32955643Y-23686986D01*
X32948795Y-23665910D01*
X32935773Y-23647986D01*
X32925608Y-23631399D01*
X32915548Y-23611656D01*
X32901667Y-23597775D01*
X32901665Y-23597772D01*
X32304074Y-23000181D01*
X32271980Y-22944594D01*
X32271980Y-22880406D01*
X32304074Y-22824819D01*
X35117074Y-20011819D01*
X35157302Y-19984939D01*
X35204755Y-19975500D01*
X39796224Y-19975500D01*
X39815621Y-19977026D01*
X39837500Y-19980492D01*
X39859378Y-19977026D01*
X39878776Y-19975500D01*
X42475933Y-19975500D01*
X42496999Y-19968655D01*
X42515914Y-19964112D01*
X42537804Y-19960646D01*
X42557542Y-19950587D01*
X42575516Y-19943142D01*
X42596590Y-19936296D01*
X42614521Y-19923267D01*
X42631098Y-19913109D01*
X42650842Y-19903050D01*
X42659174Y-19894717D01*
X42659180Y-19894713D01*
X42673409Y-19880484D01*
X43202264Y-19351626D01*
X43255008Y-19320334D01*
X43276569Y-19314004D01*
X43385549Y-19243967D01*
X43470382Y-19146063D01*
X43524197Y-19028226D01*
X43542633Y-18900000D01*
X43526514Y-18787891D01*
X43524197Y-18771773D01*
X43470381Y-18653935D01*
X43385549Y-18556033D01*
X43276568Y-18485994D01*
X43152273Y-18449500D01*
X43152272Y-18449500D01*
X43022728Y-18449500D01*
X43022727Y-18449500D01*
X42898431Y-18485994D01*
X42789450Y-18556033D01*
X42704619Y-18653934D01*
X42661331Y-18748720D01*
X42636218Y-18784888D01*
X42282926Y-19138181D01*
X42242698Y-19165061D01*
X42195245Y-19174500D01*
X39878776Y-19174500D01*
X39859378Y-19172973D01*
X39857274Y-19172639D01*
X39837500Y-19169507D01*
X39817725Y-19172639D01*
X39815621Y-19172973D01*
X39796224Y-19174500D01*
X35204755Y-19174500D01*
X35157302Y-19165061D01*
X35117074Y-19138181D01*
X31324319Y-15345426D01*
X31297439Y-15305198D01*
X31288000Y-15257745D01*
X31288000Y-13809460D01*
X31299206Y-13757948D01*
X31324197Y-13703226D01*
X31324196Y-13703226D01*
X31342633Y-13575000D01*
X31324197Y-13446774D01*
X31270382Y-13328937D01*
X31270381Y-13328936D01*
X31270381Y-13328935D01*
X31185549Y-13231033D01*
X31076568Y-13160994D01*
X30952273Y-13124500D01*
X30952272Y-13124500D01*
X30822728Y-13124500D01*
X30822727Y-13124500D01*
X30687468Y-13164214D01*
X30675945Y-13169477D01*
X30641009Y-13174500D01*
X26033991Y-13174500D01*
X25999055Y-13169477D01*
X25987531Y-13164214D01*
X25852273Y-13124500D01*
X25852272Y-13124500D01*
X25722728Y-13124500D01*
X25722727Y-13124500D01*
X25598431Y-13160994D01*
X25489450Y-13231033D01*
X25404618Y-13328935D01*
X25350802Y-13446773D01*
X25332367Y-13574999D01*
X25350802Y-13703226D01*
X25404618Y-13821064D01*
X25448566Y-13871783D01*
X25489451Y-13918967D01*
X25518140Y-13937404D01*
X25598431Y-13989005D01*
X25722727Y-14025500D01*
X25722728Y-14025500D01*
X25852272Y-14025500D01*
X25852273Y-14025500D01*
X25965980Y-13992113D01*
X25976569Y-13989004D01*
X25976569Y-13989003D01*
X25987531Y-13985785D01*
X25999055Y-13980523D01*
X26033991Y-13975500D01*
X30363000Y-13975500D01*
X30425000Y-13992113D01*
X30470387Y-14037500D01*
X30487000Y-14099500D01*
X30487000Y-15538435D01*
X30493846Y-15559507D01*
X30498386Y-15578418D01*
X30501853Y-15600302D01*
X30511912Y-15620044D01*
X30519358Y-15638020D01*
X30526204Y-15659090D01*
X30539226Y-15677014D01*
X30549389Y-15693599D01*
X30559447Y-15713339D01*
X30559449Y-15713341D01*
X30559450Y-15713342D01*
X30575783Y-15729675D01*
X30575796Y-15729690D01*
X34333425Y-19487318D01*
X34365519Y-19542905D01*
X34365519Y-19607093D01*
X34333425Y-19662680D01*
X31395988Y-22600117D01*
X31381196Y-22612752D01*
X31363273Y-22625774D01*
X31350247Y-22643702D01*
X31337613Y-22658493D01*
X30732926Y-23263181D01*
X30692698Y-23290061D01*
X30645245Y-23299500D01*
X27024067Y-23299500D01*
X27002991Y-23306347D01*
X26984080Y-23310887D01*
X26962193Y-23314354D01*
X26942452Y-23324412D01*
X26924487Y-23331854D01*
X26903410Y-23338703D01*
X26885482Y-23351728D01*
X26868902Y-23361888D01*
X26849158Y-23371948D01*
X26826595Y-23394512D01*
X25869993Y-24351114D01*
X25847430Y-24373676D01*
X25837373Y-24393415D01*
X25827212Y-24409998D01*
X25814183Y-24427932D01*
X25807335Y-24449006D01*
X25799893Y-24466973D01*
X25789834Y-24486716D01*
X25786367Y-24508601D01*
X25781828Y-24527510D01*
X25774981Y-24548586D01*
X25774981Y-24770114D01*
X25759170Y-24830703D01*
X25715771Y-24875841D01*
X25655849Y-24894018D01*
X25594686Y-24880599D01*
X25562802Y-24864353D01*
X25437500Y-24844507D01*
X25425150Y-24846463D01*
X25367436Y-24841919D01*
X25318075Y-24811670D01*
X24780566Y-24274161D01*
X24776097Y-24269452D01*
X24750141Y-24240624D01*
X24731484Y-24232318D01*
X24714386Y-24223034D01*
X24697251Y-24211906D01*
X24695346Y-24211605D01*
X24664318Y-24202414D01*
X24662566Y-24201634D01*
X24642140Y-24201634D01*
X24622743Y-24200107D01*
X24602569Y-24196912D01*
X24600713Y-24197409D01*
X24568622Y-24201634D01*
X22532959Y-24201634D01*
X22485506Y-24192195D01*
X22445278Y-24165315D01*
X19404963Y-21125000D01*
X21332007Y-21125000D01*
X21351853Y-21250302D01*
X21409450Y-21363343D01*
X21499156Y-21453049D01*
X21499158Y-21453050D01*
X21612196Y-21510646D01*
X21737500Y-21530492D01*
X21862804Y-21510646D01*
X21975842Y-21453050D01*
X22065550Y-21363342D01*
X22123146Y-21250304D01*
X22142992Y-21125000D01*
X22123146Y-20999696D01*
X22065550Y-20886658D01*
X22065549Y-20886656D01*
X22024320Y-20845428D01*
X21997439Y-20805199D01*
X21988000Y-20757746D01*
X21988000Y-18580122D01*
X21997439Y-18532669D01*
X22024319Y-18492441D01*
X22091761Y-18424999D01*
X22398597Y-18118161D01*
X22447964Y-18087911D01*
X22468534Y-18086293D01*
X22468102Y-18083565D01*
X22567282Y-18067855D01*
X22612804Y-18060646D01*
X22725842Y-18003050D01*
X22815550Y-17913342D01*
X22873146Y-17800304D01*
X22892992Y-17675000D01*
X22873146Y-17549696D01*
X22870074Y-17530298D01*
X22870350Y-17530254D01*
X22864893Y-17509896D01*
X22872957Y-17458964D01*
X22901040Y-17415718D01*
X23838548Y-16478210D01*
X23857328Y-16462798D01*
X23868101Y-16455601D01*
X23903557Y-16402536D01*
X23923466Y-16372741D01*
X23942908Y-16275000D01*
X23940382Y-16262305D01*
X23938000Y-16238115D01*
X23938000Y-14230122D01*
X23947439Y-14182669D01*
X23974319Y-14142441D01*
X26354941Y-11761819D01*
X26395169Y-11734939D01*
X26442622Y-11725500D01*
X31132378Y-11725500D01*
X31179831Y-11734939D01*
X31220059Y-11761819D01*
X33800681Y-14342441D01*
X33827561Y-14382669D01*
X33837000Y-14430122D01*
X33837000Y-15307746D01*
X33827561Y-15355199D01*
X33800680Y-15395428D01*
X33759450Y-15436656D01*
X33701853Y-15549697D01*
X33682007Y-15675000D01*
X33701853Y-15800302D01*
X33759450Y-15913343D01*
X33849156Y-16003049D01*
X33849158Y-16003050D01*
X33962196Y-16060646D01*
X34087500Y-16080492D01*
X34212804Y-16060646D01*
X34325842Y-16003050D01*
X34415550Y-15913342D01*
X34473146Y-15800304D01*
X34492992Y-15675000D01*
X34473146Y-15549696D01*
X34415550Y-15436658D01*
X34415549Y-15436656D01*
X34374320Y-15395428D01*
X34347439Y-15355199D01*
X34338000Y-15307746D01*
X34338000Y-14311885D01*
X34340383Y-14287693D01*
X34342908Y-14275000D01*
X34323466Y-14177259D01*
X34296338Y-14136659D01*
X34296337Y-14136657D01*
X34268102Y-14094399D01*
X34257333Y-14087204D01*
X34238542Y-14071782D01*
X31490716Y-11323956D01*
X31475294Y-11305165D01*
X31468101Y-11294399D01*
X31468099Y-11294398D01*
X31468099Y-11294397D01*
X31402110Y-11250305D01*
X31402109Y-11250305D01*
X31385240Y-11239033D01*
X31287500Y-11219592D01*
X31274805Y-11222117D01*
X31250615Y-11224500D01*
X26324385Y-11224500D01*
X26300194Y-11222117D01*
X26287500Y-11219592D01*
X26287499Y-11219592D01*
X26189759Y-11239033D01*
X26172891Y-11250305D01*
X26172890Y-11250306D01*
X26106898Y-11294399D01*
X26099702Y-11305169D01*
X26084283Y-11323955D01*
X23536455Y-13871783D01*
X23517670Y-13887201D01*
X23506900Y-13894398D01*
X23471448Y-13947452D01*
X23471443Y-13947460D01*
X23471442Y-13947463D01*
X23461453Y-13962412D01*
X23451532Y-13977261D01*
X23432091Y-14074999D01*
X23434617Y-14087693D01*
X23437000Y-14111885D01*
X23437000Y-16119878D01*
X23427561Y-16167331D01*
X23400681Y-16207559D01*
X22336455Y-17271783D01*
X22317670Y-17287201D01*
X22306898Y-17294398D01*
X22301440Y-17302568D01*
X22254641Y-17344156D01*
X22249159Y-17346949D01*
X22159449Y-17436658D01*
X22101853Y-17549697D01*
X22078936Y-17694396D01*
X22076206Y-17693963D01*
X22074581Y-17714556D01*
X22044337Y-17763901D01*
X21586455Y-18221783D01*
X21567670Y-18237201D01*
X21556900Y-18244398D01*
X21521448Y-18297452D01*
X21521443Y-18297460D01*
X21521442Y-18297463D01*
X21511453Y-18312412D01*
X21501532Y-18327261D01*
X21482091Y-18424999D01*
X21484617Y-18437693D01*
X21487000Y-18461885D01*
X21487000Y-20757746D01*
X21477561Y-20805199D01*
X21450680Y-20845428D01*
X21409450Y-20886656D01*
X21351853Y-20999697D01*
X21332007Y-21125000D01*
X19404963Y-21125000D01*
X9478637Y-11198674D01*
X9455833Y-11167288D01*
X9443845Y-11130391D01*
X9423145Y-10999698D01*
X9423145Y-10999697D01*
X9365549Y-10886659D01*
X9365548Y-10886657D01*
X9275842Y-10796951D01*
X9162801Y-10739354D01*
X9037499Y-10719508D01*
X8912196Y-10739354D01*
X8799155Y-10796951D01*
X8709449Y-10886657D01*
X8651852Y-10999698D01*
X8632006Y-11125000D01*
X200500Y-11125000D01*
X200500Y-10053367D01*
X6117000Y-10053367D01*
X6155522Y-10184562D01*
X6229443Y-10299587D01*
X6332782Y-10389130D01*
X6457157Y-10445931D01*
X6558489Y-10460500D01*
X6626511Y-10460500D01*
X6727842Y-10445931D01*
X6727841Y-10445931D01*
X6852218Y-10389130D01*
X6955555Y-10299589D01*
X7029478Y-10184561D01*
X7068000Y-10053367D01*
X7068000Y-9916633D01*
X7029478Y-9785439D01*
X6955555Y-9670411D01*
X6852218Y-9580870D01*
X6852217Y-9580869D01*
X6727842Y-9524068D01*
X6626511Y-9509500D01*
X6558489Y-9509500D01*
X6457157Y-9524068D01*
X6332782Y-9580869D01*
X6229443Y-9670412D01*
X6155522Y-9785437D01*
X6117000Y-9916633D01*
X6117000Y-10053367D01*
X200500Y-10053367D01*
X200500Y-8680000D01*
X1969665Y-8680000D01*
X2019688Y-8833955D01*
X2107687Y-8972621D01*
X2227399Y-9085037D01*
X2371319Y-9164159D01*
X2530384Y-9205000D01*
X2787500Y-9205000D01*
X2787500Y-8680000D01*
X3037500Y-8680000D01*
X3037500Y-9205000D01*
X3253396Y-9205000D01*
X3375432Y-9189583D01*
X3528127Y-9129127D01*
X3660993Y-9032593D01*
X3765674Y-8906056D01*
X3835599Y-8757458D01*
X3850375Y-8680000D01*
X5899665Y-8680000D01*
X5949688Y-8833955D01*
X6037687Y-8972621D01*
X6157399Y-9085037D01*
X6301319Y-9164159D01*
X6460384Y-9205000D01*
X6967500Y-9205000D01*
X6967500Y-8680000D01*
X7217500Y-8680000D01*
X7217500Y-9205000D01*
X7683396Y-9205000D01*
X7805432Y-9189583D01*
X7958127Y-9129127D01*
X8090993Y-9032593D01*
X8195674Y-8906056D01*
X8265599Y-8757458D01*
X8280375Y-8680000D01*
X7217500Y-8680000D01*
X6967500Y-8680000D01*
X5899665Y-8680000D01*
X3850375Y-8680000D01*
X3037500Y-8680000D01*
X2787500Y-8680000D01*
X1969665Y-8680000D01*
X200500Y-8680000D01*
X200500Y-8430000D01*
X1974625Y-8430000D01*
X2787500Y-8430000D01*
X2787500Y-7905000D01*
X3037500Y-7905000D01*
X3037500Y-8430000D01*
X3855335Y-8430000D01*
X5904625Y-8430000D01*
X6967500Y-8430000D01*
X6967500Y-7905000D01*
X7217500Y-7905000D01*
X7217500Y-8430000D01*
X8285335Y-8430000D01*
X8285334Y-8429999D01*
X8235311Y-8276044D01*
X8147312Y-8137378D01*
X8027600Y-8024962D01*
X7883680Y-7945840D01*
X7724616Y-7905000D01*
X7217500Y-7905000D01*
X6967500Y-7905000D01*
X6501604Y-7905000D01*
X6379567Y-7920416D01*
X6226872Y-7980872D01*
X6094006Y-8077406D01*
X5989325Y-8203943D01*
X5919400Y-8352541D01*
X5904625Y-8430000D01*
X3855335Y-8430000D01*
X3855334Y-8429999D01*
X3805311Y-8276044D01*
X3717312Y-8137378D01*
X3597600Y-8024962D01*
X3453680Y-7945840D01*
X3294616Y-7905000D01*
X3037500Y-7905000D01*
X2787500Y-7905000D01*
X2571604Y-7905000D01*
X2449567Y-7920416D01*
X2296872Y-7980872D01*
X2164006Y-8077406D01*
X2059325Y-8203943D01*
X1989400Y-8352541D01*
X1974625Y-8430000D01*
X200500Y-8430000D01*
X200500Y-4300000D01*
X18334871Y-4300000D01*
X18353362Y-4570312D01*
X18408485Y-4835580D01*
X18499216Y-5090873D01*
X18623867Y-5331441D01*
X18780115Y-5552792D01*
X18950277Y-5734990D01*
X18965045Y-5750803D01*
X19175216Y-5921790D01*
X19406712Y-6062566D01*
X19655221Y-6170509D01*
X19916114Y-6243607D01*
X20184530Y-6280500D01*
X20297410Y-6280500D01*
X20320000Y-6280500D01*
X20359882Y-6280500D01*
X20411238Y-6280500D01*
X20411241Y-6280498D01*
X33651099Y-6280498D01*
X33654118Y-6280535D01*
X33787758Y-6283789D01*
X33787758Y-6283788D01*
X33787762Y-6283789D01*
X34061123Y-6252266D01*
X34271071Y-6197877D01*
X34327504Y-6183258D01*
X34581781Y-6078092D01*
X34581780Y-6078092D01*
X34581786Y-6078090D01*
X34819089Y-5938781D01*
X35034857Y-5768005D01*
X35224947Y-5569043D01*
X35385708Y-5345714D01*
X35514054Y-5102306D01*
X35607521Y-4843493D01*
X35664313Y-4574245D01*
X35683341Y-4299731D01*
X35664239Y-4025222D01*
X35607373Y-3755989D01*
X35607373Y-3755988D01*
X35513838Y-3497202D01*
X35410873Y-3302060D01*
X35385424Y-3253828D01*
X35224603Y-3030543D01*
X35034459Y-2831632D01*
X34818645Y-2660915D01*
X34818642Y-2660913D01*
X34581302Y-2521669D01*
X34326995Y-2416572D01*
X34326993Y-2416571D01*
X34326992Y-2416571D01*
X34060594Y-2347635D01*
X33842403Y-2322534D01*
X33787217Y-2316186D01*
X33653618Y-2319474D01*
X33650568Y-2319512D01*
X20359882Y-2319500D01*
X20320000Y-2319500D01*
X20184530Y-2319500D01*
X19916116Y-2356392D01*
X19724657Y-2410036D01*
X19655221Y-2429491D01*
X19655219Y-2429491D01*
X19655218Y-2429492D01*
X19406711Y-2537434D01*
X19175216Y-2678209D01*
X18965044Y-2849197D01*
X18780115Y-3047207D01*
X18623867Y-3268558D01*
X18499216Y-3509126D01*
X18408485Y-3764419D01*
X18353362Y-4029687D01*
X18334871Y-4300000D01*
X200500Y-4300000D01*
X200500Y-3178246D01*
X200670Y-3171756D01*
X207197Y-3047210D01*
X216455Y-2870564D01*
X217812Y-2857659D01*
X229895Y-2781367D01*
X264485Y-2562973D01*
X267175Y-2550312D01*
X344403Y-2262092D01*
X348404Y-2249777D01*
X455336Y-1971211D01*
X460600Y-1959389D01*
X596069Y-1693514D01*
X602530Y-1682324D01*
X765050Y-1432066D01*
X772659Y-1421594D01*
X960437Y-1189707D01*
X969104Y-1180082D01*
X1180082Y-969104D01*
X1189707Y-960437D01*
X1421594Y-772659D01*
X1432066Y-765050D01*
X1682324Y-602530D01*
X1693514Y-596069D01*
X1959389Y-460600D01*
X1971211Y-455336D01*
X2249777Y-348404D01*
X2262092Y-344403D01*
X2550312Y-267175D01*
X2562973Y-264485D01*
X2857658Y-217812D01*
X2870564Y-216455D01*
X3171756Y-200669D01*
X3178246Y-200500D01*
X3214882Y-200500D01*
X50760118Y-200500D01*
X50796754Y-200500D01*
X50803244Y-200670D01*
G37*
G04 #@! TD.AperFunction*
G04 #@! TD*
M02*
