G04 #@! TF.GenerationSoftware,KiCad,Pcbnew,7.0.1-0*
G04 #@! TF.CreationDate,2023-05-11T23:17:20+02:00*
G04 #@! TF.ProjectId,nfc_reader,6e66635f-7265-4616-9465-722e6b696361,1.0*
G04 #@! TF.SameCoordinates,PX354a940PY3072580*
G04 #@! TF.FileFunction,Legend,Bot*
G04 #@! TF.FilePolarity,Positive*
%FSLAX46Y46*%
G04 Gerber Fmt 4.6, Leading zero omitted, Abs format (unit mm)*
G04 Created by KiCad (PCBNEW 7.0.1-0) date 2023-05-11 23:17:20*
%MOMM*%
%LPD*%
G01*
G04 APERTURE LIST*
%ADD10C,0.650000*%
%ADD11O,2.100000X1.000000*%
%ADD12O,1.600000X1.000000*%
G04 APERTURE END LIST*
G04 #@! TO.C,G\u002A\u002A\u002A*
G36*
X54141256Y-85679633D02*
G01*
X54141256Y-85955259D01*
X53865630Y-85955259D01*
X53590004Y-85955259D01*
X53590004Y-85679633D01*
X53590004Y-85404007D01*
X53865630Y-85404007D01*
X54141256Y-85404007D01*
X54141256Y-85679633D01*
G37*
G36*
X54141256Y-320368D02*
G01*
X54141256Y-595994D01*
X53865630Y-595994D01*
X53590004Y-595994D01*
X53590004Y-320368D01*
X53590004Y-44742D01*
X53865630Y-44742D01*
X54141256Y-44742D01*
X54141256Y-320368D01*
G37*
G36*
X542592Y-85679633D02*
G01*
X542592Y-85955259D01*
X288168Y-85955259D01*
X33744Y-85955259D01*
X33744Y-85679633D01*
X33744Y-85404007D01*
X288168Y-85404007D01*
X542592Y-85404007D01*
X542592Y-85679633D01*
G37*
G36*
X542592Y-320368D02*
G01*
X542592Y-595994D01*
X288168Y-595994D01*
X33744Y-595994D01*
X33744Y-320368D01*
X33744Y-44742D01*
X288168Y-44742D01*
X542592Y-44742D01*
X542592Y-320368D01*
G37*
G36*
X102751Y-30935699D02*
G01*
X225461Y-30959627D01*
X405885Y-30997430D01*
X632366Y-31046452D01*
X893246Y-31104042D01*
X1176869Y-31167545D01*
X1471575Y-31234307D01*
X1765708Y-31301675D01*
X2047609Y-31366996D01*
X2305622Y-31427616D01*
X2528089Y-31480881D01*
X2703352Y-31524137D01*
X2819753Y-31554732D01*
X2865636Y-31570011D01*
X2865578Y-31572478D01*
X2854186Y-31632489D01*
X2825512Y-31768483D01*
X2780793Y-31974974D01*
X2721266Y-32246473D01*
X2648167Y-32577493D01*
X2562733Y-32962545D01*
X2466201Y-33396142D01*
X2359807Y-33872796D01*
X2244787Y-34387018D01*
X2122380Y-34933322D01*
X1993820Y-35506220D01*
X1860346Y-36100222D01*
X1723193Y-36709842D01*
X1583598Y-37329592D01*
X1442798Y-37953983D01*
X1302029Y-38577529D01*
X1162529Y-39194740D01*
X1025533Y-39800130D01*
X892279Y-40388210D01*
X764003Y-40953492D01*
X641942Y-41490489D01*
X527332Y-41993713D01*
X421410Y-42457675D01*
X325413Y-42876889D01*
X240578Y-43245865D01*
X168140Y-43559117D01*
X109337Y-43811156D01*
X65406Y-43996494D01*
X64873Y-43990206D01*
X63611Y-43916836D01*
X62259Y-43765219D01*
X60832Y-43539883D01*
X59343Y-43245359D01*
X57809Y-42886175D01*
X56243Y-42466860D01*
X54661Y-41991944D01*
X53076Y-41465956D01*
X51504Y-40893424D01*
X49959Y-40278880D01*
X48456Y-39626850D01*
X47010Y-38941866D01*
X45635Y-38228455D01*
X44346Y-37491148D01*
X43827Y-37167767D01*
X42790Y-36438930D01*
X41972Y-35735332D01*
X41369Y-35061555D01*
X40979Y-34422180D01*
X40799Y-33821790D01*
X40826Y-33264967D01*
X41058Y-32756294D01*
X41492Y-32300353D01*
X42125Y-31901726D01*
X42956Y-31564996D01*
X43980Y-31294744D01*
X45195Y-31095553D01*
X46599Y-30972005D01*
X48189Y-30928683D01*
X49414Y-30928298D01*
X102751Y-30935699D01*
G37*
G36*
X38993873Y-46562295D02*
G01*
X38996386Y-46819650D01*
X38992759Y-47144616D01*
X38981669Y-47428927D01*
X38962662Y-47653131D01*
X38933303Y-47870470D01*
X38766595Y-48722427D01*
X38523284Y-49541103D01*
X38205885Y-50322957D01*
X37816914Y-51064446D01*
X37358888Y-51762030D01*
X36834322Y-52412168D01*
X36245733Y-53011319D01*
X35595637Y-53555940D01*
X34886550Y-54042492D01*
X34120987Y-54467432D01*
X33688898Y-54664963D01*
X33018089Y-54917897D01*
X32315041Y-55126400D01*
X31607288Y-55282626D01*
X30922366Y-55378730D01*
X30833614Y-55386171D01*
X30510766Y-55401429D01*
X30138389Y-55405178D01*
X29742501Y-55398108D01*
X29349125Y-55380913D01*
X28984280Y-55354285D01*
X28673987Y-55318915D01*
X28609100Y-55309355D01*
X27719870Y-55133856D01*
X26860714Y-54880541D01*
X26035363Y-54551091D01*
X25247549Y-54147186D01*
X24501000Y-53670508D01*
X23799449Y-53122737D01*
X23443981Y-52800216D01*
X22853630Y-52178959D01*
X22326764Y-51507971D01*
X21866771Y-50793394D01*
X21477043Y-50041371D01*
X21160969Y-49258042D01*
X20921939Y-48449550D01*
X20763343Y-47622037D01*
X20738008Y-47396424D01*
X20714386Y-47018569D01*
X20705441Y-46599749D01*
X20707508Y-46430329D01*
X24801458Y-46430329D01*
X24803421Y-46830065D01*
X24827663Y-47225195D01*
X24873187Y-47589726D01*
X24938993Y-47897663D01*
X24997234Y-48094147D01*
X25231792Y-48714187D01*
X25529973Y-49280956D01*
X25895069Y-49800079D01*
X26330368Y-50277186D01*
X26613069Y-50531433D01*
X27102291Y-50886467D01*
X27636116Y-51174677D01*
X28220271Y-51398970D01*
X28860479Y-51562254D01*
X29094374Y-51602149D01*
X29409434Y-51640360D01*
X29729442Y-51665007D01*
X30025273Y-51673961D01*
X30267801Y-51665094D01*
X30846553Y-51580842D01*
X31470676Y-51412778D01*
X32060144Y-51170843D01*
X32610040Y-50858772D01*
X33115449Y-50480303D01*
X33571456Y-50039170D01*
X33973144Y-49539111D01*
X34315599Y-48983860D01*
X34593904Y-48377154D01*
X34696835Y-48072889D01*
X34813314Y-47592714D01*
X34891960Y-47080712D01*
X34930192Y-46562295D01*
X34925431Y-46062870D01*
X34875096Y-45607847D01*
X34724091Y-44975020D01*
X34499857Y-44378057D01*
X34207520Y-43823845D01*
X33851696Y-43316343D01*
X33436999Y-42859505D01*
X32968045Y-42457288D01*
X32449451Y-42113650D01*
X31885831Y-41832546D01*
X31281801Y-41617932D01*
X30641976Y-41473766D01*
X29970973Y-41404004D01*
X29952243Y-41403183D01*
X29320907Y-41416565D01*
X28712756Y-41511275D01*
X28124773Y-41687992D01*
X27553944Y-41947394D01*
X27347958Y-42063287D01*
X26803212Y-42433443D01*
X26317441Y-42862902D01*
X25893059Y-43348234D01*
X25532478Y-43886010D01*
X25238111Y-44472799D01*
X25012371Y-45105174D01*
X24857671Y-45779703D01*
X24822771Y-46051979D01*
X24801458Y-46430329D01*
X20707508Y-46430329D01*
X20710745Y-46164934D01*
X20729873Y-45739091D01*
X20762398Y-45347187D01*
X20807893Y-45014191D01*
X20944607Y-44362482D01*
X21190361Y-43529815D01*
X21508229Y-42741617D01*
X21898401Y-41997495D01*
X22361062Y-41297056D01*
X22896401Y-40639908D01*
X22983221Y-40544762D01*
X23600079Y-39939954D01*
X24268410Y-39401801D01*
X24985753Y-38931617D01*
X25749646Y-38530716D01*
X26557629Y-38200413D01*
X27407239Y-37942021D01*
X28296014Y-37756856D01*
X28298850Y-37756395D01*
X28552918Y-37725299D01*
X28870185Y-37701906D01*
X29229653Y-37686400D01*
X29610324Y-37678967D01*
X29991198Y-37679792D01*
X30351278Y-37689059D01*
X30669566Y-37706955D01*
X30925063Y-37733665D01*
X31465667Y-37825524D01*
X32341835Y-38037143D01*
X33184893Y-38320139D01*
X33988343Y-38671874D01*
X34745688Y-39089710D01*
X35450432Y-39571010D01*
X35546484Y-39646096D01*
X35800680Y-39861020D01*
X36081177Y-40116269D01*
X36369352Y-40393650D01*
X36646583Y-40674967D01*
X36894249Y-40942025D01*
X37093726Y-41176628D01*
X37155115Y-41254522D01*
X37652258Y-41959144D01*
X38074930Y-42702425D01*
X38424020Y-43486323D01*
X38700411Y-44312797D01*
X38904989Y-45183807D01*
X38918484Y-45265695D01*
X38945356Y-45502204D01*
X38967036Y-45795304D01*
X38983071Y-46125544D01*
X38993006Y-46473476D01*
X38993873Y-46562295D01*
G37*
G36*
X36174324Y-63951280D02*
G01*
X37419723Y-63951363D01*
X38594785Y-63951508D01*
X39701576Y-63951723D01*
X40742158Y-63952012D01*
X41718596Y-63952384D01*
X42632952Y-63952843D01*
X43487291Y-63953398D01*
X44283677Y-63954053D01*
X45024174Y-63954817D01*
X45710844Y-63955694D01*
X46345753Y-63956692D01*
X46930963Y-63957817D01*
X47468538Y-63959075D01*
X47960543Y-63960473D01*
X48409041Y-63962017D01*
X48816095Y-63963715D01*
X49183770Y-63965571D01*
X49514129Y-63967593D01*
X49809236Y-63969787D01*
X50071155Y-63972160D01*
X50301950Y-63974718D01*
X50503684Y-63977467D01*
X50678421Y-63980414D01*
X50828225Y-63983566D01*
X50955159Y-63986928D01*
X51061288Y-63990508D01*
X51148676Y-63994311D01*
X51219385Y-63998345D01*
X51275479Y-64002615D01*
X51319024Y-64007128D01*
X51352081Y-64011891D01*
X51376715Y-64016910D01*
X51394991Y-64022191D01*
X51408970Y-64027741D01*
X51585108Y-64126380D01*
X51821435Y-64333959D01*
X51997003Y-64593854D01*
X52105864Y-64812311D01*
X52105864Y-73935721D01*
X52105798Y-74762114D01*
X52105493Y-75809713D01*
X52104928Y-76776612D01*
X52104091Y-77665175D01*
X52102968Y-78477765D01*
X52101548Y-79216746D01*
X52099818Y-79884481D01*
X52097765Y-80483333D01*
X52095377Y-81015666D01*
X52092641Y-81483844D01*
X52089545Y-81890229D01*
X52086076Y-82237185D01*
X52082222Y-82527076D01*
X52077971Y-82762265D01*
X52073308Y-82945116D01*
X52068223Y-83077992D01*
X52062703Y-83163256D01*
X52056735Y-83203272D01*
X52000419Y-83340354D01*
X51830096Y-83597112D01*
X51596269Y-83801095D01*
X51305180Y-83946133D01*
X51293246Y-83948634D01*
X51252757Y-83952522D01*
X51184459Y-83956225D01*
X51086513Y-83959747D01*
X50957081Y-83963094D01*
X50794324Y-83966269D01*
X50596402Y-83969277D01*
X50361478Y-83972121D01*
X50087713Y-83974807D01*
X49773269Y-83977338D01*
X49416305Y-83979719D01*
X49014985Y-83981954D01*
X48567468Y-83984048D01*
X48071917Y-83986004D01*
X47526493Y-83987828D01*
X46929357Y-83989522D01*
X46278671Y-83991093D01*
X45572595Y-83992543D01*
X44809291Y-83993877D01*
X43986921Y-83995100D01*
X43103646Y-83996216D01*
X42157626Y-83997229D01*
X41147024Y-83998143D01*
X40070001Y-83998964D01*
X38924718Y-83999694D01*
X37709336Y-84000338D01*
X36422017Y-84000902D01*
X35060921Y-84001388D01*
X33624212Y-84001801D01*
X32110049Y-84002146D01*
X30516594Y-84002427D01*
X28842008Y-84002648D01*
X27084453Y-84002813D01*
X26555406Y-84002853D01*
X24867641Y-84002966D01*
X23262002Y-84003044D01*
X21736435Y-84003082D01*
X20288882Y-84003074D01*
X18917288Y-84003014D01*
X17619595Y-84002896D01*
X16393748Y-84002715D01*
X15237690Y-84002465D01*
X14149366Y-84002139D01*
X13126717Y-84001732D01*
X12167689Y-84001238D01*
X11270225Y-84000651D01*
X10432269Y-83999966D01*
X9651763Y-83999176D01*
X8926653Y-83998275D01*
X8254881Y-83997258D01*
X7634391Y-83996119D01*
X7063127Y-83994852D01*
X6539033Y-83993452D01*
X6060052Y-83991911D01*
X5624127Y-83990224D01*
X5229204Y-83988387D01*
X4873224Y-83986391D01*
X4554132Y-83984233D01*
X4269872Y-83981905D01*
X4018387Y-83979403D01*
X3797620Y-83976720D01*
X3605516Y-83973850D01*
X3440019Y-83970787D01*
X3299071Y-83967526D01*
X3180616Y-83964061D01*
X3082599Y-83960386D01*
X3002962Y-83956495D01*
X2939650Y-83952382D01*
X2890606Y-83948041D01*
X2853774Y-83943466D01*
X2827097Y-83938652D01*
X2808519Y-83933593D01*
X2605324Y-83830590D01*
X2383403Y-83646009D01*
X2372032Y-83634892D01*
X2332750Y-83599938D01*
X2296526Y-83570921D01*
X2263240Y-83544479D01*
X2232773Y-83517251D01*
X2205005Y-83485878D01*
X2179818Y-83446997D01*
X2157092Y-83397247D01*
X2136708Y-83333269D01*
X2118545Y-83251701D01*
X2102486Y-83149181D01*
X2088410Y-83022351D01*
X2076198Y-82867847D01*
X2065731Y-82682310D01*
X2056890Y-82462378D01*
X2049554Y-82204692D01*
X2043606Y-81905889D01*
X2038925Y-81562608D01*
X2035392Y-81171490D01*
X2032887Y-80729173D01*
X2031292Y-80232296D01*
X2030487Y-79677499D01*
X2030353Y-79061419D01*
X2030770Y-78380698D01*
X2031620Y-77631973D01*
X2032781Y-76811883D01*
X2034136Y-75917069D01*
X2035565Y-74944168D01*
X2036949Y-73889821D01*
X2047934Y-64774458D01*
X2175146Y-64543809D01*
X2324203Y-64336491D01*
X2547564Y-64139320D01*
X2803402Y-64003811D01*
X2824919Y-64000747D01*
X2887438Y-63997159D01*
X2991272Y-63993738D01*
X3137973Y-63990478D01*
X3329096Y-63987377D01*
X3566192Y-63984432D01*
X3850816Y-63981639D01*
X4184522Y-63978994D01*
X4568861Y-63976496D01*
X5005388Y-63974139D01*
X5495657Y-63971921D01*
X6041219Y-63969839D01*
X6643629Y-63967889D01*
X7304441Y-63966068D01*
X8025207Y-63964372D01*
X8807480Y-63962799D01*
X9652815Y-63961344D01*
X10562764Y-63960005D01*
X11538881Y-63958778D01*
X12582719Y-63957661D01*
X13695832Y-63956648D01*
X14879772Y-63955738D01*
X16136094Y-63954927D01*
X17466350Y-63954211D01*
X18872094Y-63953588D01*
X20354879Y-63953053D01*
X21916259Y-63952604D01*
X23557787Y-63952237D01*
X25281016Y-63951949D01*
X27087500Y-63951737D01*
X27109305Y-63951735D01*
X28820058Y-63951578D01*
X30448094Y-63951445D01*
X31995474Y-63951343D01*
X33464263Y-63951277D01*
X34856525Y-63951254D01*
X36174324Y-63951280D01*
G37*
G36*
X54140967Y-46235047D02*
G01*
X54141026Y-50463105D01*
X54141056Y-52630672D01*
X54141127Y-57692989D01*
X53801960Y-59175062D01*
X53728290Y-59497790D01*
X53656042Y-59815998D01*
X53592153Y-60099167D01*
X53538754Y-60337774D01*
X53497973Y-60522297D01*
X53471943Y-60643215D01*
X53462792Y-60691005D01*
X53456449Y-60705952D01*
X53401374Y-60724875D01*
X53389299Y-60722957D01*
X53304995Y-60705543D01*
X53145634Y-60670949D01*
X52916461Y-60620357D01*
X52622724Y-60554946D01*
X52269665Y-60475897D01*
X51862533Y-60384388D01*
X51406571Y-60281601D01*
X50907025Y-60168716D01*
X50369142Y-60046911D01*
X49798166Y-59917368D01*
X49199343Y-59781267D01*
X48577918Y-59639787D01*
X48277541Y-59571279D01*
X47434584Y-59378266D01*
X46663948Y-59200625D01*
X45966807Y-59038638D01*
X45344337Y-58892586D01*
X44797714Y-58762747D01*
X44328112Y-58649404D01*
X43936708Y-58552836D01*
X43624675Y-58473324D01*
X43393189Y-58411148D01*
X43243427Y-58366590D01*
X43127655Y-58327721D01*
X42431810Y-58055464D01*
X41804489Y-57739951D01*
X41246903Y-57382287D01*
X40760265Y-56983576D01*
X40345787Y-56544921D01*
X40004679Y-56067427D01*
X39738156Y-55552197D01*
X39547428Y-55000334D01*
X39514461Y-54852216D01*
X39472388Y-54545449D01*
X39448920Y-54193619D01*
X39444111Y-53820573D01*
X39448967Y-53691234D01*
X43675341Y-53691234D01*
X43703358Y-53936970D01*
X43800619Y-54269150D01*
X43970023Y-54574099D01*
X44217903Y-54865521D01*
X44244299Y-54891267D01*
X44490944Y-55091017D01*
X44796229Y-55282314D01*
X45137184Y-55452132D01*
X45490839Y-55587442D01*
X45522173Y-55596791D01*
X45649375Y-55630605D01*
X45846666Y-55680007D01*
X46105242Y-55742901D01*
X46416297Y-55817192D01*
X46771023Y-55900787D01*
X47160617Y-55991590D01*
X47576271Y-56087508D01*
X48009181Y-56186445D01*
X48242119Y-56239382D01*
X48652707Y-56332494D01*
X49034217Y-56418763D01*
X49378992Y-56496470D01*
X49679373Y-56563900D01*
X49927702Y-56619334D01*
X50116321Y-56661056D01*
X50237573Y-56687349D01*
X50283799Y-56696494D01*
X50308627Y-56675366D01*
X50337661Y-56601085D01*
X50500757Y-55889837D01*
X50651340Y-55227507D01*
X50784112Y-54637199D01*
X50898793Y-54120210D01*
X50995105Y-53677839D01*
X51072767Y-53311383D01*
X51131503Y-53022140D01*
X51171031Y-52811409D01*
X51191073Y-52680487D01*
X51191351Y-52630672D01*
X51182485Y-52626822D01*
X51105270Y-52604760D01*
X50955692Y-52566600D01*
X50741249Y-52514084D01*
X50469435Y-52448953D01*
X50147745Y-52372947D01*
X49783675Y-52287807D01*
X49384720Y-52195276D01*
X48958376Y-52097093D01*
X48512138Y-51994999D01*
X48053501Y-51890737D01*
X47589960Y-51786046D01*
X47129012Y-51682668D01*
X46678151Y-51582344D01*
X46436286Y-51541809D01*
X46136167Y-51515841D01*
X45821666Y-51508657D01*
X45517102Y-51520032D01*
X45246799Y-51549741D01*
X45035075Y-51597558D01*
X44771269Y-51703544D01*
X44433879Y-51911001D01*
X44152786Y-52176608D01*
X43932187Y-52493899D01*
X43776281Y-52856410D01*
X43689266Y-53257676D01*
X43675341Y-53691234D01*
X39448967Y-53691234D01*
X39458019Y-53450155D01*
X39490701Y-53106211D01*
X39542214Y-52812587D01*
X39635724Y-52462128D01*
X39844212Y-51886898D01*
X40107431Y-51360993D01*
X40421350Y-50890959D01*
X40781936Y-50483342D01*
X41185157Y-50144692D01*
X41521124Y-49933131D01*
X41969417Y-49713048D01*
X42450376Y-49532946D01*
X42937392Y-49402574D01*
X43403859Y-49331682D01*
X43423498Y-49329969D01*
X43572471Y-49313501D01*
X43681716Y-49295473D01*
X43728788Y-49279490D01*
X43717794Y-49259030D01*
X43654025Y-49194303D01*
X43545761Y-49098602D01*
X43406284Y-48984090D01*
X43219487Y-48825672D01*
X42838286Y-48430324D01*
X42518233Y-47991050D01*
X42267038Y-47519338D01*
X42115192Y-47090940D01*
X45899390Y-47090940D01*
X45915140Y-47440412D01*
X45997334Y-47762692D01*
X46049734Y-47875604D01*
X46201228Y-48106715D01*
X46403539Y-48338445D01*
X46638146Y-48550775D01*
X46886527Y-48723688D01*
X46961231Y-48766215D01*
X47091787Y-48833346D01*
X47236296Y-48897572D01*
X47402438Y-48961125D01*
X47597889Y-49026231D01*
X47830328Y-49095122D01*
X48107431Y-49170027D01*
X48436877Y-49253175D01*
X48826343Y-49346795D01*
X49283508Y-49453118D01*
X49816048Y-49574372D01*
X50135744Y-49646692D01*
X50505511Y-49730498D01*
X50843994Y-49807388D01*
X51142619Y-49875404D01*
X51392813Y-49932589D01*
X51585999Y-49976987D01*
X51713604Y-50006642D01*
X51767054Y-50019596D01*
X51772564Y-50019857D01*
X51792208Y-50001939D01*
X51816722Y-49950817D01*
X51847745Y-49860279D01*
X51886914Y-49724116D01*
X51935866Y-49536119D01*
X51996238Y-49290079D01*
X52069668Y-48979784D01*
X52157794Y-48599027D01*
X52262252Y-48141597D01*
X52338648Y-47804685D01*
X52421023Y-47439376D01*
X52495396Y-47107382D01*
X52559948Y-46816928D01*
X52612862Y-46576241D01*
X52652320Y-46393548D01*
X52676503Y-46277074D01*
X52683594Y-46235047D01*
X52656873Y-46226854D01*
X52556052Y-46201622D01*
X52389365Y-46161899D01*
X52166385Y-46109841D01*
X51896688Y-46047608D01*
X51589848Y-45977356D01*
X51255440Y-45901244D01*
X50903039Y-45821430D01*
X50542218Y-45740070D01*
X50182553Y-45659324D01*
X49833618Y-45581349D01*
X49504989Y-45508303D01*
X49206238Y-45442344D01*
X48946942Y-45385629D01*
X48736674Y-45340316D01*
X48585010Y-45308564D01*
X48501524Y-45292529D01*
X48326561Y-45269746D01*
X47997787Y-45250305D01*
X47674563Y-45257267D01*
X47394390Y-45290695D01*
X47186380Y-45345915D01*
X46929505Y-45447339D01*
X46689261Y-45573581D01*
X46499594Y-45708780D01*
X46409096Y-45796294D01*
X46204938Y-46066953D01*
X46048876Y-46385452D01*
X45945498Y-46733034D01*
X45899390Y-47090940D01*
X42115192Y-47090940D01*
X42092412Y-47026672D01*
X42069399Y-46936646D01*
X42033396Y-46761388D01*
X42011102Y-46580282D01*
X41999820Y-46367069D01*
X41996857Y-46095493D01*
X42006772Y-45724005D01*
X42052137Y-45275763D01*
X42139180Y-44848341D01*
X42273287Y-44408878D01*
X42469870Y-43927329D01*
X42750746Y-43424092D01*
X43086458Y-42985467D01*
X43476849Y-42611545D01*
X43921760Y-42302416D01*
X44421035Y-42058170D01*
X44974514Y-41878898D01*
X45582041Y-41764688D01*
X46243457Y-41715632D01*
X46958605Y-41731820D01*
X46977540Y-41733071D01*
X47121517Y-41743075D01*
X47256655Y-41753979D01*
X47389491Y-41767067D01*
X47526561Y-41783623D01*
X47674403Y-41804932D01*
X47839554Y-41832279D01*
X48028550Y-41866948D01*
X48247930Y-41910224D01*
X48504229Y-41963391D01*
X48803985Y-42027735D01*
X49153734Y-42104539D01*
X49560015Y-42195089D01*
X50029363Y-42300668D01*
X50568316Y-42422563D01*
X51183411Y-42562056D01*
X54140925Y-43233222D01*
X54140967Y-46235047D01*
G37*
G36*
X18763204Y-43121877D02*
G01*
X18753294Y-43165878D01*
X18591016Y-43885715D01*
X18428502Y-44605929D01*
X18266823Y-45321762D01*
X18107052Y-46028458D01*
X17950263Y-46721260D01*
X17797528Y-47395410D01*
X17649919Y-48046151D01*
X17508510Y-48668727D01*
X17374372Y-49258381D01*
X17248580Y-49810355D01*
X17132206Y-50319893D01*
X17026321Y-50782238D01*
X16932000Y-51192632D01*
X16850315Y-51546318D01*
X16782338Y-51838540D01*
X16729143Y-52064541D01*
X16691802Y-52219564D01*
X16671388Y-52298851D01*
X16648298Y-52339720D01*
X16578488Y-52353046D01*
X16571929Y-52351311D01*
X16498076Y-52333681D01*
X16349057Y-52298961D01*
X16130692Y-52248485D01*
X15848804Y-52183589D01*
X15509213Y-52105606D01*
X15117742Y-52015873D01*
X14680211Y-51915723D01*
X14202443Y-51806490D01*
X13690258Y-51689511D01*
X13149478Y-51566120D01*
X12585925Y-51437651D01*
X12499131Y-51417867D01*
X11925569Y-51286793D01*
X11367590Y-51158711D01*
X10831906Y-51035195D01*
X10325231Y-50917816D01*
X9854279Y-50808146D01*
X9425764Y-50707757D01*
X9046398Y-50618221D01*
X8722896Y-50541110D01*
X8461971Y-50477997D01*
X8270337Y-50430452D01*
X8154706Y-50400049D01*
X7798914Y-50295868D01*
X6982818Y-50025298D01*
X6246225Y-49732315D01*
X5587102Y-49415345D01*
X5003412Y-49072816D01*
X4493123Y-48703155D01*
X4054198Y-48304788D01*
X3684604Y-47876143D01*
X3382305Y-47415647D01*
X3145268Y-46921726D01*
X2971456Y-46392808D01*
X2965054Y-46367881D01*
X2878628Y-45901194D01*
X2837899Y-45378787D01*
X2841238Y-44891246D01*
X7014016Y-44891246D01*
X7038423Y-45172301D01*
X7091411Y-45395827D01*
X7239003Y-45710512D01*
X7458294Y-46008987D01*
X7746399Y-46276259D01*
X8106666Y-46514918D01*
X8542443Y-46727557D01*
X9057080Y-46916765D01*
X9167734Y-46949379D01*
X9365100Y-47002369D01*
X9625601Y-47068893D01*
X9938635Y-47146363D01*
X10293598Y-47232191D01*
X10679887Y-47323790D01*
X11086898Y-47418571D01*
X11504028Y-47513947D01*
X11520918Y-47517773D01*
X11919491Y-47608164D01*
X12293180Y-47693139D01*
X12633722Y-47770805D01*
X12932854Y-47839265D01*
X13182313Y-47896624D01*
X13373836Y-47940988D01*
X13499160Y-47970462D01*
X13550021Y-47983151D01*
X13571139Y-47989195D01*
X13603026Y-47988135D01*
X13609998Y-47955512D01*
X13634242Y-47846946D01*
X13674263Y-47669347D01*
X13728407Y-47430014D01*
X13795017Y-47136243D01*
X13872441Y-46795331D01*
X13959022Y-46414575D01*
X14053107Y-46001272D01*
X14153040Y-45562718D01*
X14239671Y-45180682D01*
X14333312Y-44762794D01*
X14418786Y-44376070D01*
X14494527Y-44027863D01*
X14558971Y-43725525D01*
X14610554Y-43476405D01*
X14647711Y-43287857D01*
X14668877Y-43167230D01*
X14672489Y-43121877D01*
X14656904Y-43115771D01*
X14569248Y-43091555D01*
X14413178Y-43052391D01*
X14198057Y-43000406D01*
X13933252Y-42937728D01*
X13628126Y-42866483D01*
X13292044Y-42788801D01*
X12934371Y-42706808D01*
X12564471Y-42622632D01*
X12191709Y-42538400D01*
X11825449Y-42456241D01*
X11475057Y-42378281D01*
X11149896Y-42306649D01*
X10859332Y-42243471D01*
X10612729Y-42190876D01*
X10419451Y-42150991D01*
X10288864Y-42125944D01*
X10133439Y-42102003D01*
X9811380Y-42069606D01*
X9479037Y-42055324D01*
X9159681Y-42059218D01*
X8876581Y-42081347D01*
X8653009Y-42121770D01*
X8293943Y-42248546D01*
X7968649Y-42436918D01*
X7693145Y-42685878D01*
X7463728Y-42999593D01*
X7276696Y-43382231D01*
X7128346Y-43837959D01*
X7107030Y-43924175D01*
X7048844Y-44245056D01*
X7017664Y-44574788D01*
X7014016Y-44891246D01*
X2841238Y-44891246D01*
X2841762Y-44814807D01*
X2889112Y-44223402D01*
X2978845Y-43618719D01*
X3109858Y-43014906D01*
X3281046Y-42426110D01*
X3405884Y-42075461D01*
X3676550Y-41458111D01*
X3989580Y-40912596D01*
X4346973Y-40436743D01*
X4750726Y-40028380D01*
X5202837Y-39685335D01*
X5705303Y-39405435D01*
X6260123Y-39186507D01*
X6460338Y-39128027D01*
X6742785Y-39058990D01*
X7043082Y-38996637D01*
X7328460Y-38947685D01*
X7566153Y-38918847D01*
X7699064Y-38908014D01*
X6383951Y-35503516D01*
X6230077Y-35104710D01*
X6039793Y-34610211D01*
X5860603Y-34143070D01*
X5694685Y-33709032D01*
X5544213Y-33313842D01*
X5411364Y-32963246D01*
X5298312Y-32662989D01*
X5207234Y-32418817D01*
X5140305Y-32236474D01*
X5099702Y-32121706D01*
X5087599Y-32080258D01*
X5116118Y-32080598D01*
X5219228Y-32097310D01*
X5388332Y-32130495D01*
X5614147Y-32177973D01*
X5887390Y-32237564D01*
X6198775Y-32307091D01*
X6539020Y-32384373D01*
X6898840Y-32467233D01*
X7268951Y-32553491D01*
X7640071Y-32640968D01*
X8002915Y-32727486D01*
X8348198Y-32810864D01*
X8666639Y-32888926D01*
X8948951Y-32959490D01*
X9185853Y-33020379D01*
X9368060Y-33069414D01*
X9486287Y-33104415D01*
X9531252Y-33123204D01*
X9532063Y-33124911D01*
X9554748Y-33182463D01*
X9604059Y-33312621D01*
X9677670Y-33509115D01*
X9773257Y-33765676D01*
X9888494Y-34076034D01*
X10021056Y-34433921D01*
X10168618Y-34833066D01*
X10328855Y-35267201D01*
X10499442Y-35730055D01*
X10678053Y-36215359D01*
X10701269Y-36278476D01*
X10878717Y-36760304D01*
X11047730Y-37218225D01*
X11206000Y-37646048D01*
X11351222Y-38037584D01*
X11481087Y-38386640D01*
X11593290Y-38687027D01*
X11685522Y-38932553D01*
X11755478Y-39117028D01*
X11800850Y-39234261D01*
X11819331Y-39278061D01*
X11845369Y-39290788D01*
X11941219Y-39319633D01*
X12088566Y-39356036D01*
X12268432Y-39395054D01*
X12317508Y-39405205D01*
X12494213Y-39442888D01*
X12733809Y-39495045D01*
X13022081Y-39558536D01*
X13344814Y-39630222D01*
X13687790Y-39706962D01*
X14036794Y-39785618D01*
X14241359Y-39831642D01*
X14550429Y-39900155D01*
X14826056Y-39960008D01*
X15058396Y-40009133D01*
X15237610Y-40045463D01*
X15353854Y-40066928D01*
X15397288Y-40071463D01*
X15399178Y-40065902D01*
X15416739Y-39996606D01*
X15450853Y-39853840D01*
X15499915Y-39644558D01*
X15562319Y-39375715D01*
X15636459Y-39054264D01*
X15720731Y-38687159D01*
X15813529Y-38281356D01*
X15913248Y-37843808D01*
X16018282Y-37381469D01*
X16053861Y-37224657D01*
X16157087Y-36770221D01*
X16254278Y-36343113D01*
X16343848Y-35950255D01*
X16424212Y-35598571D01*
X16493783Y-35294985D01*
X16550977Y-35046421D01*
X16594206Y-34859802D01*
X16621886Y-34742052D01*
X16632431Y-34700094D01*
X16643993Y-34700724D01*
X16724026Y-34715464D01*
X16871623Y-34746261D01*
X17076800Y-34790818D01*
X17329577Y-34846838D01*
X17619971Y-34912023D01*
X17938002Y-34984076D01*
X18273687Y-35060700D01*
X18617045Y-35139598D01*
X18958094Y-35218472D01*
X19286853Y-35295025D01*
X19593339Y-35366959D01*
X19867573Y-35431978D01*
X20099571Y-35487784D01*
X20279352Y-35532080D01*
X20396935Y-35562569D01*
X20442337Y-35576952D01*
X20442125Y-35581396D01*
X20429535Y-35648258D01*
X20399544Y-35791608D01*
X20353224Y-36006690D01*
X20291649Y-36288746D01*
X20215891Y-36633019D01*
X20127023Y-37034753D01*
X20026118Y-37489190D01*
X19914248Y-37991574D01*
X19792486Y-38537147D01*
X19661905Y-39121153D01*
X19523578Y-39738834D01*
X19378577Y-40385434D01*
X19227976Y-41056195D01*
X19072846Y-41746361D01*
X18914261Y-42451174D01*
X18763204Y-43121877D01*
G37*
G04 #@! TD*
%LPC*%
D10*
G04 #@! TO.C,J1*
X6592500Y-9985000D03*
X6592500Y-15765000D03*
D11*
X7092500Y-8555000D03*
D12*
X2912500Y-8555000D03*
D11*
X7092500Y-17195000D03*
D12*
X2912500Y-17195000D03*
G04 #@! TD*
M02*
