G04 #@! TF.GenerationSoftware,KiCad,Pcbnew,7.0.1-0*
G04 #@! TF.CreationDate,2023-06-22T23:02:25+02:00*
G04 #@! TF.ProjectId,nfc_reader,6e66635f-7265-4616-9465-722e6b696361,1.1*
G04 #@! TF.SameCoordinates,PX354a940PY3072580*
G04 #@! TF.FileFunction,Soldermask,Top*
G04 #@! TF.FilePolarity,Negative*
%FSLAX46Y46*%
G04 Gerber Fmt 4.6, Leading zero omitted, Abs format (unit mm)*
G04 Created by KiCad (PCBNEW 7.0.1-0) date 2023-06-22 23:02:25*
%MOMM*%
%LPD*%
G01*
G04 APERTURE LIST*
G04 Aperture macros list*
%AMRoundRect*
0 Rectangle with rounded corners*
0 $1 Rounding radius*
0 $2 $3 $4 $5 $6 $7 $8 $9 X,Y pos of 4 corners*
0 Add a 4 corners polygon primitive as box body*
4,1,4,$2,$3,$4,$5,$6,$7,$8,$9,$2,$3,0*
0 Add four circle primitives for the rounded corners*
1,1,$1+$1,$2,$3*
1,1,$1+$1,$4,$5*
1,1,$1+$1,$6,$7*
1,1,$1+$1,$8,$9*
0 Add four rect primitives between the rounded corners*
20,1,$1+$1,$2,$3,$4,$5,0*
20,1,$1+$1,$4,$5,$6,$7,0*
20,1,$1+$1,$6,$7,$8,$9,0*
20,1,$1+$1,$8,$9,$2,$3,0*%
G04 Aperture macros list end*
%ADD10C,0.650000*%
%ADD11R,1.150000X0.300000*%
%ADD12O,2.100000X1.000000*%
%ADD13O,1.600000X1.000000*%
%ADD14RoundRect,0.200000X0.275000X-0.200000X0.275000X0.200000X-0.275000X0.200000X-0.275000X-0.200000X0*%
%ADD15R,1.400000X1.200000*%
%ADD16RoundRect,0.218750X0.218750X0.256250X-0.218750X0.256250X-0.218750X-0.256250X0.218750X-0.256250X0*%
%ADD17RoundRect,0.225000X0.250000X-0.225000X0.250000X0.225000X-0.250000X0.225000X-0.250000X-0.225000X0*%
%ADD18R,1.700000X1.000000*%
%ADD19RoundRect,0.225000X0.225000X0.250000X-0.225000X0.250000X-0.225000X-0.250000X0.225000X-0.250000X0*%
%ADD20RoundRect,0.225000X-0.250000X0.225000X-0.250000X-0.225000X0.250000X-0.225000X0.250000X0.225000X0*%
%ADD21RoundRect,0.200000X0.200000X0.275000X-0.200000X0.275000X-0.200000X-0.275000X0.200000X-0.275000X0*%
%ADD22RoundRect,0.250000X0.312500X0.625000X-0.312500X0.625000X-0.312500X-0.625000X0.312500X-0.625000X0*%
%ADD23RoundRect,0.425000X0.425000X-0.425000X0.425000X0.425000X-0.425000X0.425000X-0.425000X-0.425000X0*%
%ADD24RoundRect,0.225000X-0.225000X-0.250000X0.225000X-0.250000X0.225000X0.250000X-0.225000X0.250000X0*%
%ADD25R,1.300000X1.600000*%
%ADD26RoundRect,0.150000X0.625000X-0.150000X0.625000X0.150000X-0.625000X0.150000X-0.625000X-0.150000X0*%
%ADD27RoundRect,0.250000X0.650000X-0.350000X0.650000X0.350000X-0.650000X0.350000X-0.650000X-0.350000X0*%
%ADD28RoundRect,0.200000X-0.200000X-0.275000X0.200000X-0.275000X0.200000X0.275000X-0.200000X0.275000X0*%
%ADD29RoundRect,0.200000X-0.275000X0.200000X-0.275000X-0.200000X0.275000X-0.200000X0.275000X0.200000X0*%
%ADD30RoundRect,0.218750X-0.256250X0.218750X-0.256250X-0.218750X0.256250X-0.218750X0.256250X0.218750X0*%
%ADD31O,0.200000X0.875000*%
%ADD32O,0.875000X0.200000*%
%ADD33R,0.800000X0.800000*%
%ADD34RoundRect,0.150000X-0.150000X0.512500X-0.150000X-0.512500X0.150000X-0.512500X0.150000X0.512500X0*%
%ADD35RoundRect,0.062500X-0.375000X-0.062500X0.375000X-0.062500X0.375000X0.062500X-0.375000X0.062500X0*%
%ADD36RoundRect,0.062500X-0.062500X-0.375000X0.062500X-0.375000X0.062500X0.375000X-0.062500X0.375000X0*%
%ADD37R,4.100000X4.100000*%
%ADD38RoundRect,0.150000X0.150000X-0.650000X0.150000X0.650000X-0.150000X0.650000X-0.150000X-0.650000X0*%
%ADD39RoundRect,0.218750X-0.218750X-0.256250X0.218750X-0.256250X0.218750X0.256250X-0.218750X0.256250X0*%
%ADD40RoundRect,0.250000X-0.312500X-0.625000X0.312500X-0.625000X0.312500X0.625000X-0.312500X0.625000X0*%
G04 APERTURE END LIST*
D10*
G04 #@! TO.C,J1*
X6592500Y-9985000D03*
X6592500Y-15765000D03*
D11*
X7657500Y-9525000D03*
X7657500Y-10325000D03*
X7657500Y-11625000D03*
X7657500Y-12625000D03*
X7657500Y-13125000D03*
X7657500Y-14125000D03*
X7657500Y-15425000D03*
X7657500Y-16225000D03*
X7657500Y-15925000D03*
X7657500Y-15125000D03*
X7657500Y-14625000D03*
X7657500Y-13625000D03*
X7657500Y-12125000D03*
X7657500Y-11125000D03*
X7657500Y-10625000D03*
X7657500Y-9825000D03*
D12*
X7092500Y-8555000D03*
D13*
X2912500Y-8555000D03*
D12*
X7092500Y-17195000D03*
D13*
X2912500Y-17195000D03*
G04 #@! TD*
D14*
G04 #@! TO.C,R2*
X44687500Y-17425000D03*
X44687500Y-15775000D03*
G04 #@! TD*
D15*
G04 #@! TO.C,Y2*
X28087500Y-27550000D03*
X25887500Y-27550000D03*
X25887500Y-29250000D03*
X28087500Y-29250000D03*
G04 #@! TD*
D16*
G04 #@! TO.C,L2*
X26300000Y-42300000D03*
X24725000Y-42300000D03*
G04 #@! TD*
D17*
G04 #@! TO.C,C10*
X29687500Y-14150000D03*
X29687500Y-12600000D03*
G04 #@! TD*
D18*
G04 #@! TO.C,SW2*
X46237500Y-29650000D03*
X52537500Y-29650000D03*
X46237500Y-33450000D03*
X52537500Y-33450000D03*
G04 #@! TD*
D19*
G04 #@! TO.C,C27*
X29287500Y-43850000D03*
X27737500Y-43850000D03*
G04 #@! TD*
D20*
G04 #@! TO.C,C8*
X22187500Y-25725000D03*
X22187500Y-27275000D03*
G04 #@! TD*
D17*
G04 #@! TO.C,C12*
X21487500Y-15950000D03*
X21487500Y-14400000D03*
G04 #@! TD*
D19*
G04 #@! TO.C,C14*
X20462500Y-21275000D03*
X18912500Y-21275000D03*
G04 #@! TD*
D17*
G04 #@! TO.C,C23*
X23987500Y-29175000D03*
X23987500Y-27625000D03*
G04 #@! TD*
D21*
G04 #@! TO.C,R3*
X32387500Y-42300000D03*
X30737500Y-42300000D03*
G04 #@! TD*
D20*
G04 #@! TO.C,C11*
X33387500Y-25775000D03*
X33387500Y-27325000D03*
G04 #@! TD*
D22*
G04 #@! TO.C,R15*
X31412500Y-47400000D03*
X28487500Y-47400000D03*
G04 #@! TD*
D17*
G04 #@! TO.C,C3*
X24487500Y-10950000D03*
X24487500Y-9400000D03*
G04 #@! TD*
D19*
G04 #@! TO.C,C28*
X26287500Y-43850000D03*
X24737500Y-43850000D03*
G04 #@! TD*
D23*
G04 #@! TO.C,J3*
X32427500Y-11850000D03*
X34967500Y-11850000D03*
X37507500Y-11850000D03*
X40047500Y-11850000D03*
X42587500Y-11850000D03*
X45127500Y-11850000D03*
G04 #@! TD*
D24*
G04 #@! TO.C,C29*
X33162500Y-47400000D03*
X34712500Y-47400000D03*
G04 #@! TD*
D20*
G04 #@! TO.C,C5*
X31787500Y-25775000D03*
X31787500Y-27325000D03*
G04 #@! TD*
D14*
G04 #@! TO.C,R1*
X43087500Y-17425000D03*
X43087500Y-15775000D03*
G04 #@! TD*
D25*
G04 #@! TO.C,Y1*
X34987500Y-19725000D03*
X34987500Y-23025000D03*
X36987500Y-23025000D03*
X36987500Y-19725000D03*
G04 #@! TD*
D20*
G04 #@! TO.C,C9*
X20587500Y-25725000D03*
X20587500Y-27275000D03*
G04 #@! TD*
D26*
G04 #@! TO.C,J2*
X48587500Y-14375000D03*
X48587500Y-13375000D03*
X48587500Y-12375000D03*
X48587500Y-11375000D03*
D27*
X52462500Y-15675000D03*
X52462500Y-10075000D03*
G04 #@! TD*
D19*
G04 #@! TO.C,C19*
X21162500Y-36000000D03*
X19612500Y-36000000D03*
G04 #@! TD*
D17*
G04 #@! TO.C,C17*
X9987500Y-22050000D03*
X9987500Y-20500000D03*
G04 #@! TD*
D21*
G04 #@! TO.C,R7*
X12612500Y-10175000D03*
X10962500Y-10175000D03*
G04 #@! TD*
G04 #@! TO.C,R8*
X12612500Y-15675000D03*
X10962500Y-15675000D03*
G04 #@! TD*
D19*
G04 #@! TO.C,C2*
X21162500Y-37750000D03*
X19612500Y-37750000D03*
G04 #@! TD*
D20*
G04 #@! TO.C,C31*
X30812500Y-43825000D03*
X30812500Y-45375000D03*
G04 #@! TD*
D19*
G04 #@! TO.C,C25*
X23212500Y-40750000D03*
X21662500Y-40750000D03*
G04 #@! TD*
D28*
G04 #@! TO.C,R14*
X10962500Y-13675000D03*
X12612500Y-13675000D03*
G04 #@! TD*
D24*
G04 #@! TO.C,C13*
X35187501Y-15675000D03*
X36737501Y-15675000D03*
G04 #@! TD*
D18*
G04 #@! TO.C,SW7*
X7787500Y-33450000D03*
X1487500Y-33450000D03*
X7787500Y-29650000D03*
X1487500Y-29650000D03*
G04 #@! TD*
D29*
G04 #@! TO.C,R6*
X32362500Y-43775000D03*
X32362500Y-45425000D03*
G04 #@! TD*
G04 #@! TO.C,R11*
X9887500Y-24950000D03*
X9887500Y-26600000D03*
G04 #@! TD*
D30*
G04 #@! TO.C,D0*
X26987500Y-9662500D03*
X26987500Y-11237500D03*
G04 #@! TD*
D28*
G04 #@! TO.C,R13*
X10962500Y-12075000D03*
X12612500Y-12075000D03*
G04 #@! TD*
D19*
G04 #@! TO.C,C16*
X36762500Y-17375000D03*
X35212500Y-17375000D03*
G04 #@! TD*
D30*
G04 #@! TO.C,D1*
X43693750Y-22675000D03*
X43693750Y-24250000D03*
G04 #@! TD*
D24*
G04 #@! TO.C,C21*
X33412500Y-33600000D03*
X34962500Y-33600000D03*
G04 #@! TD*
D31*
G04 #@! TO.C,U5*
X25137500Y-24062500D03*
X25537500Y-24062500D03*
X25937500Y-24062500D03*
X26337500Y-24062500D03*
X26737500Y-24062500D03*
X27137500Y-24062500D03*
X27537500Y-24062500D03*
X27937500Y-24062500D03*
X28337500Y-24062500D03*
X28737500Y-24062500D03*
X29137500Y-24062500D03*
X29537500Y-24062500D03*
X29937500Y-24062500D03*
X30337500Y-24062500D03*
D32*
X31175000Y-23225000D03*
X31175000Y-22825000D03*
X31175000Y-22425000D03*
X31175000Y-22025000D03*
X31175000Y-21625000D03*
X31175000Y-21225000D03*
X31175000Y-20825000D03*
X31175000Y-20425000D03*
X31175000Y-20025000D03*
X31175000Y-19625000D03*
X31175000Y-19225000D03*
X31175000Y-18825000D03*
X31175000Y-18425000D03*
X31175000Y-18025000D03*
D31*
X30337500Y-17187500D03*
X29937500Y-17187500D03*
X29537500Y-17187500D03*
X29137500Y-17187500D03*
X28737500Y-17187500D03*
X28337500Y-17187500D03*
X27937500Y-17187500D03*
X27537500Y-17187500D03*
X27137500Y-17187500D03*
X26737500Y-17187500D03*
X26337500Y-17187500D03*
X25937500Y-17187500D03*
X25537500Y-17187500D03*
X25137500Y-17187500D03*
D32*
X24300000Y-18025000D03*
X24300000Y-18425000D03*
X24300000Y-18825000D03*
X24300000Y-19225000D03*
X24300000Y-19625000D03*
X24300000Y-20025000D03*
X24300000Y-20425000D03*
X24300000Y-20825000D03*
X24300000Y-21225000D03*
X24300000Y-21625000D03*
X24300000Y-22025000D03*
X24300000Y-22425000D03*
X24300000Y-22825000D03*
X24300000Y-23225000D03*
D33*
X26537500Y-21825000D03*
X27337500Y-21825000D03*
X28137500Y-21825000D03*
X28937500Y-21825000D03*
X26537500Y-21025000D03*
X27337500Y-21025000D03*
X28137500Y-21025000D03*
X28937500Y-21025000D03*
X26537500Y-20225000D03*
X27337500Y-20225000D03*
X28137500Y-20225000D03*
X28937500Y-20225000D03*
X26537500Y-19425000D03*
X27337500Y-19425000D03*
X28137500Y-19425000D03*
X28937500Y-19425000D03*
G04 #@! TD*
D17*
G04 #@! TO.C,C18*
X11787500Y-22050000D03*
X11787500Y-20500000D03*
G04 #@! TD*
D18*
G04 #@! TO.C,SW6*
X7737500Y-25350000D03*
X1437500Y-25350000D03*
X7737500Y-21550000D03*
X1437500Y-21550000D03*
G04 #@! TD*
D34*
G04 #@! TO.C,U1*
X22537500Y-8637500D03*
X21587500Y-8637500D03*
X20637500Y-8637500D03*
X20637500Y-10912500D03*
X22537500Y-10912500D03*
G04 #@! TD*
D24*
G04 #@! TO.C,C30*
X19212500Y-47350000D03*
X20762500Y-47350000D03*
G04 #@! TD*
D35*
G04 #@! TO.C,U3*
X24050000Y-32300000D03*
X24050000Y-32800000D03*
X24050000Y-33300000D03*
X24050000Y-33800000D03*
X24050000Y-34300000D03*
X24050000Y-34800000D03*
X24050000Y-35300000D03*
X24050000Y-35800000D03*
X24050000Y-36300000D03*
X24050000Y-36800000D03*
D36*
X24737500Y-37487500D03*
X25237500Y-37487500D03*
X25737500Y-37487500D03*
X26237500Y-37487500D03*
X26737500Y-37487500D03*
X27237500Y-37487500D03*
X27737500Y-37487500D03*
X28237500Y-37487500D03*
X28737500Y-37487500D03*
X29237500Y-37487500D03*
D35*
X29925000Y-36800000D03*
X29925000Y-36300000D03*
X29925000Y-35800000D03*
X29925000Y-35300000D03*
X29925000Y-34800000D03*
X29925000Y-34300000D03*
X29925000Y-33800000D03*
X29925000Y-33300000D03*
X29925000Y-32800000D03*
X29925000Y-32300000D03*
D36*
X29237500Y-31612500D03*
X28737500Y-31612500D03*
X28237500Y-31612500D03*
X27737500Y-31612500D03*
X27237500Y-31612500D03*
X26737500Y-31612500D03*
X26237500Y-31612500D03*
X25737500Y-31612500D03*
X25237500Y-31612500D03*
X24737500Y-31612500D03*
D37*
X26987500Y-34550000D03*
G04 #@! TD*
D19*
G04 #@! TO.C,C6*
X20462500Y-19675000D03*
X18912500Y-19675000D03*
G04 #@! TD*
D17*
G04 #@! TO.C,C7*
X24687500Y-14075000D03*
X24687500Y-12525000D03*
G04 #@! TD*
D20*
G04 #@! TO.C,C24*
X29987500Y-27625000D03*
X29987500Y-29175000D03*
G04 #@! TD*
D24*
G04 #@! TO.C,C15*
X35212500Y-25375000D03*
X36762500Y-25375000D03*
G04 #@! TD*
D14*
G04 #@! TO.C,R9*
X9887500Y-29900000D03*
X9887500Y-28250000D03*
G04 #@! TD*
D29*
G04 #@! TO.C,R5*
X21662500Y-43775000D03*
X21662500Y-45425000D03*
G04 #@! TD*
D18*
G04 #@! TO.C,SW1*
X46237500Y-21550000D03*
X52537500Y-21550000D03*
X46237500Y-25350000D03*
X52537500Y-25350000D03*
G04 #@! TD*
D20*
G04 #@! TO.C,C32*
X23212500Y-43825000D03*
X23212500Y-45375000D03*
G04 #@! TD*
D21*
G04 #@! TO.C,R4*
X23287500Y-42300000D03*
X21637500Y-42300000D03*
G04 #@! TD*
D14*
G04 #@! TO.C,R10*
X39837500Y-17450000D03*
X39837500Y-15800000D03*
G04 #@! TD*
D38*
G04 #@! TO.C,U4*
X11832500Y-31475000D03*
X13102500Y-31475000D03*
X14372500Y-31475000D03*
X15642500Y-31475000D03*
X15642500Y-24275000D03*
X14372500Y-24275000D03*
X13102500Y-24275000D03*
X11832500Y-24275000D03*
G04 #@! TD*
D29*
G04 #@! TO.C,R12*
X26987500Y-12875000D03*
X26987500Y-14525000D03*
G04 #@! TD*
D24*
G04 #@! TO.C,C4*
X33412500Y-37200000D03*
X34962500Y-37200000D03*
G04 #@! TD*
D14*
G04 #@! TO.C,R17*
X41843750Y-24287500D03*
X41843750Y-22637500D03*
G04 #@! TD*
G04 #@! TO.C,R18*
X41843750Y-32387500D03*
X41843750Y-30737500D03*
G04 #@! TD*
D19*
G04 #@! TO.C,C22*
X21162500Y-34200000D03*
X19612500Y-34200000D03*
G04 #@! TD*
D30*
G04 #@! TO.C,D2*
X43693750Y-30775000D03*
X43693750Y-32350000D03*
G04 #@! TD*
D19*
G04 #@! TO.C,C26*
X32312500Y-40750000D03*
X30762500Y-40750000D03*
G04 #@! TD*
D20*
G04 #@! TO.C,C1*
X18687500Y-8600000D03*
X18687500Y-10150000D03*
G04 #@! TD*
D39*
G04 #@! TO.C,L1*
X27725000Y-42300000D03*
X29300000Y-42300000D03*
G04 #@! TD*
D24*
G04 #@! TO.C,C20*
X33412500Y-31600000D03*
X34962500Y-31600000D03*
G04 #@! TD*
D40*
G04 #@! TO.C,R16*
X22562500Y-47400000D03*
X25487500Y-47400000D03*
G04 #@! TD*
M02*
