G04 #@! TF.GenerationSoftware,KiCad,Pcbnew,7.0.1-0*
G04 #@! TF.CreationDate,2023-06-22T23:02:25+02:00*
G04 #@! TF.ProjectId,nfc_reader,6e66635f-7265-4616-9465-722e6b696361,1.1*
G04 #@! TF.SameCoordinates,PX354a940PY3072580*
G04 #@! TF.FileFunction,Legend,Top*
G04 #@! TF.FilePolarity,Positive*
%FSLAX46Y46*%
G04 Gerber Fmt 4.6, Leading zero omitted, Abs format (unit mm)*
G04 Created by KiCad (PCBNEW 7.0.1-0) date 2023-06-22 23:02:25*
%MOMM*%
%LPD*%
G01*
G04 APERTURE LIST*
G04 Aperture macros list*
%AMRoundRect*
0 Rectangle with rounded corners*
0 $1 Rounding radius*
0 $2 $3 $4 $5 $6 $7 $8 $9 X,Y pos of 4 corners*
0 Add a 4 corners polygon primitive as box body*
4,1,4,$2,$3,$4,$5,$6,$7,$8,$9,$2,$3,0*
0 Add four circle primitives for the rounded corners*
1,1,$1+$1,$2,$3*
1,1,$1+$1,$4,$5*
1,1,$1+$1,$6,$7*
1,1,$1+$1,$8,$9*
0 Add four rect primitives between the rounded corners*
20,1,$1+$1,$2,$3,$4,$5,0*
20,1,$1+$1,$4,$5,$6,$7,0*
20,1,$1+$1,$6,$7,$8,$9,0*
20,1,$1+$1,$8,$9,$2,$3,0*%
G04 Aperture macros list end*
%ADD10C,0.120000*%
%ADD11C,0.650000*%
%ADD12R,1.150000X0.300000*%
%ADD13O,2.100000X1.000000*%
%ADD14O,1.600000X1.000000*%
%ADD15RoundRect,0.200000X0.275000X-0.200000X0.275000X0.200000X-0.275000X0.200000X-0.275000X-0.200000X0*%
%ADD16R,1.400000X1.200000*%
%ADD17RoundRect,0.218750X0.218750X0.256250X-0.218750X0.256250X-0.218750X-0.256250X0.218750X-0.256250X0*%
%ADD18RoundRect,0.225000X0.250000X-0.225000X0.250000X0.225000X-0.250000X0.225000X-0.250000X-0.225000X0*%
%ADD19R,1.700000X1.000000*%
%ADD20RoundRect,0.225000X0.225000X0.250000X-0.225000X0.250000X-0.225000X-0.250000X0.225000X-0.250000X0*%
%ADD21RoundRect,0.225000X-0.250000X0.225000X-0.250000X-0.225000X0.250000X-0.225000X0.250000X0.225000X0*%
%ADD22RoundRect,0.200000X0.200000X0.275000X-0.200000X0.275000X-0.200000X-0.275000X0.200000X-0.275000X0*%
%ADD23RoundRect,0.250000X0.312500X0.625000X-0.312500X0.625000X-0.312500X-0.625000X0.312500X-0.625000X0*%
%ADD24RoundRect,0.425000X0.425000X-0.425000X0.425000X0.425000X-0.425000X0.425000X-0.425000X-0.425000X0*%
%ADD25RoundRect,0.225000X-0.225000X-0.250000X0.225000X-0.250000X0.225000X0.250000X-0.225000X0.250000X0*%
%ADD26R,1.300000X1.600000*%
%ADD27RoundRect,0.150000X0.625000X-0.150000X0.625000X0.150000X-0.625000X0.150000X-0.625000X-0.150000X0*%
%ADD28RoundRect,0.250000X0.650000X-0.350000X0.650000X0.350000X-0.650000X0.350000X-0.650000X-0.350000X0*%
%ADD29RoundRect,0.200000X-0.200000X-0.275000X0.200000X-0.275000X0.200000X0.275000X-0.200000X0.275000X0*%
%ADD30RoundRect,0.200000X-0.275000X0.200000X-0.275000X-0.200000X0.275000X-0.200000X0.275000X0.200000X0*%
%ADD31RoundRect,0.218750X-0.256250X0.218750X-0.256250X-0.218750X0.256250X-0.218750X0.256250X0.218750X0*%
%ADD32O,0.200000X0.875000*%
%ADD33O,0.875000X0.200000*%
%ADD34R,0.800000X0.800000*%
%ADD35RoundRect,0.150000X-0.150000X0.512500X-0.150000X-0.512500X0.150000X-0.512500X0.150000X0.512500X0*%
%ADD36RoundRect,0.062500X-0.375000X-0.062500X0.375000X-0.062500X0.375000X0.062500X-0.375000X0.062500X0*%
%ADD37RoundRect,0.062500X-0.062500X-0.375000X0.062500X-0.375000X0.062500X0.375000X-0.062500X0.375000X0*%
%ADD38R,4.100000X4.100000*%
%ADD39RoundRect,0.150000X0.150000X-0.650000X0.150000X0.650000X-0.150000X0.650000X-0.150000X-0.650000X0*%
%ADD40RoundRect,0.218750X-0.218750X-0.256250X0.218750X-0.256250X0.218750X0.256250X-0.218750X0.256250X0*%
%ADD41RoundRect,0.250000X-0.312500X-0.625000X0.312500X-0.625000X0.312500X0.625000X-0.312500X0.625000X0*%
G04 APERTURE END LIST*
D10*
G04 #@! TO.C,J1*
X5837500Y-8295000D02*
X3917500Y-8295000D01*
X202500Y-8295000D02*
X1907500Y-8295000D01*
X3917500Y-17455000D02*
X5837500Y-17455000D01*
X1907500Y-17455000D02*
X202500Y-17455000D01*
X202500Y-17455000D02*
X202500Y-8295000D01*
G04 #@! TO.C,R2*
X44165000Y-16837258D02*
X44165000Y-16362742D01*
X45210000Y-16837258D02*
X45210000Y-16362742D01*
G04 #@! TO.C,Y2*
X28987500Y-30050000D02*
X28987500Y-26750000D01*
X28987500Y-26750000D02*
X24987500Y-26750000D01*
G04 #@! TO.C,L2*
X25675279Y-42810000D02*
X25349721Y-42810000D01*
X25675279Y-41790000D02*
X25349721Y-41790000D01*
G04 #@! TO.C,C10*
X29177500Y-13515580D02*
X29177500Y-13234420D01*
X30197500Y-13515580D02*
X30197500Y-13234420D01*
G04 #@! TO.C,kibuzzard-647C89AC*
G36*
X48565175Y-19370130D02*
G01*
X48586130Y-19414580D01*
X48582320Y-19460300D01*
X48521360Y-19486970D01*
X48443255Y-19504750D01*
X48419760Y-19577775D01*
X48442620Y-19650800D01*
X48511200Y-19668580D01*
X48582320Y-19678740D01*
X48605815Y-19704140D01*
X48612800Y-19752400D01*
X48592797Y-19817170D01*
X48532790Y-19838760D01*
X48324510Y-19838760D01*
X48324510Y-19357430D01*
X48502310Y-19357430D01*
X48565175Y-19370130D01*
G37*
G36*
X50046630Y-20331943D02*
G01*
X49274470Y-20331943D01*
X48545490Y-20331943D01*
X48099720Y-20331943D01*
X48099614Y-20331943D01*
X48027871Y-20328419D01*
X47956819Y-20317879D01*
X47887142Y-20300426D01*
X47819512Y-20276227D01*
X47754578Y-20245516D01*
X47692968Y-20208589D01*
X47635274Y-20165800D01*
X47582052Y-20117562D01*
X47533814Y-20064340D01*
X47491026Y-20006646D01*
X47456624Y-19949250D01*
X48099720Y-19949250D01*
X48107340Y-20015290D01*
X48140995Y-20051485D01*
X48211480Y-20063550D01*
X48545490Y-20063550D01*
X48621902Y-20054025D01*
X48690270Y-20025450D01*
X48750595Y-19977825D01*
X48797797Y-19916089D01*
X48826795Y-19845181D01*
X48837590Y-19765100D01*
X48829264Y-19693839D01*
X48804288Y-19627376D01*
X48762660Y-19565710D01*
X48783343Y-19523800D01*
X48888390Y-19523800D01*
X48906805Y-19597460D01*
X48953160Y-19619050D01*
X49005230Y-19615240D01*
X49005230Y-19803200D01*
X49012850Y-19888854D01*
X49035710Y-19956164D01*
X49073810Y-20005130D01*
X49126586Y-20038291D01*
X49193472Y-20058188D01*
X49274470Y-20064820D01*
X49317015Y-20062915D01*
X49350670Y-20052120D01*
X49377340Y-20018783D01*
X49386230Y-19954330D01*
X49385358Y-19951790D01*
X49490370Y-19951790D01*
X49492275Y-19995605D01*
X49503070Y-20029260D01*
X49536407Y-20054978D01*
X49600860Y-20063550D01*
X49665947Y-20054978D01*
X49698650Y-20029260D01*
X49710715Y-19996875D01*
X49712620Y-19953060D01*
X49712620Y-19728270D01*
X49743735Y-19648260D01*
X49825015Y-19617780D01*
X49905025Y-19646990D01*
X49934870Y-19728270D01*
X49934870Y-19951790D01*
X49942490Y-20016560D01*
X49975510Y-20051802D01*
X50046630Y-20063550D01*
X50112035Y-20054978D01*
X50145690Y-20029260D01*
X50156485Y-19996875D01*
X50158390Y-19953060D01*
X50158390Y-19729540D01*
X50149006Y-19641134D01*
X50120854Y-19562182D01*
X50073935Y-19492685D01*
X50012904Y-19438710D01*
X49996319Y-19431090D01*
X50228240Y-19431090D01*
X50268245Y-19509830D01*
X50345080Y-19554280D01*
X50433980Y-19514910D01*
X50450490Y-19499670D01*
X50450490Y-19953060D01*
X50452395Y-19999415D01*
X50464460Y-20034340D01*
X50498432Y-20059105D01*
X50562250Y-20067360D01*
X50627655Y-20058787D01*
X50661310Y-20033070D01*
X50673375Y-19999415D01*
X50675280Y-19955600D01*
X50675280Y-19248210D01*
X50668930Y-19180900D01*
X50651150Y-19153595D01*
X50618130Y-19138990D01*
X50557805Y-19132640D01*
X50486050Y-19165660D01*
X50482240Y-19168200D01*
X50273960Y-19356160D01*
X50228240Y-19431090D01*
X49996319Y-19431090D01*
X49942419Y-19406325D01*
X49862480Y-19395530D01*
X49767230Y-19424740D01*
X49732940Y-19451410D01*
X49710080Y-19476810D01*
X49697380Y-19424740D01*
X49664677Y-19402833D01*
X49602130Y-19395530D01*
X49537677Y-19403468D01*
X49504340Y-19427280D01*
X49492275Y-19459665D01*
X49490370Y-19502210D01*
X49490370Y-19951790D01*
X49385358Y-19951790D01*
X49357020Y-19869240D01*
X49323365Y-19857175D01*
X49277645Y-19855270D01*
X49237005Y-19840030D01*
X49226210Y-19790500D01*
X49226210Y-19615240D01*
X49308760Y-19620320D01*
X49352575Y-19618415D01*
X49386230Y-19607620D01*
X49411947Y-19574283D01*
X49420520Y-19509830D01*
X49412265Y-19444743D01*
X49387500Y-19412040D01*
X49353845Y-19399975D01*
X49310665Y-19398070D01*
X49226210Y-19403150D01*
X49226210Y-19278690D01*
X49219860Y-19213920D01*
X49185887Y-19178677D01*
X49116990Y-19166930D01*
X49051902Y-19174868D01*
X49019200Y-19198680D01*
X49007135Y-19229160D01*
X49005230Y-19272340D01*
X49005230Y-19403150D01*
X48963320Y-19398070D01*
X48912520Y-19414580D01*
X48894740Y-19448235D01*
X48888390Y-19523800D01*
X48783343Y-19523800D01*
X48798855Y-19492367D01*
X48810920Y-19412040D01*
X48801748Y-19338662D01*
X48774231Y-19272622D01*
X48728370Y-19213920D01*
X48671643Y-19168764D01*
X48606450Y-19141671D01*
X48532790Y-19132640D01*
X48212750Y-19132640D01*
X48147345Y-19141213D01*
X48113690Y-19166930D01*
X48101625Y-19199950D01*
X48099720Y-19244400D01*
X48099720Y-19949250D01*
X47456624Y-19949250D01*
X47454098Y-19945036D01*
X47423387Y-19880103D01*
X47399188Y-19812472D01*
X47381735Y-19742795D01*
X47371195Y-19671743D01*
X47367671Y-19600000D01*
X47371195Y-19528257D01*
X47381735Y-19457205D01*
X47399188Y-19387528D01*
X47423387Y-19319897D01*
X47454098Y-19254964D01*
X47491026Y-19193354D01*
X47533814Y-19135660D01*
X47582052Y-19082438D01*
X47635274Y-19034200D01*
X47692968Y-18991411D01*
X47754578Y-18954484D01*
X47819512Y-18923773D01*
X47887142Y-18899574D01*
X47956819Y-18882121D01*
X48027871Y-18871581D01*
X48099614Y-18868057D01*
X48099720Y-18868057D01*
X50675280Y-18868057D01*
X50675386Y-18868057D01*
X50747129Y-18871581D01*
X50818181Y-18882121D01*
X50887858Y-18899574D01*
X50955488Y-18923773D01*
X51020422Y-18954484D01*
X51082032Y-18991411D01*
X51139726Y-19034200D01*
X51192948Y-19082438D01*
X51241186Y-19135660D01*
X51283974Y-19193354D01*
X51320902Y-19254964D01*
X51351613Y-19319897D01*
X51375812Y-19387528D01*
X51393265Y-19457205D01*
X51403805Y-19528257D01*
X51407329Y-19600000D01*
X51403805Y-19671743D01*
X51393265Y-19742795D01*
X51375812Y-19812472D01*
X51351613Y-19880103D01*
X51320902Y-19945036D01*
X51283974Y-20006646D01*
X51241186Y-20064340D01*
X51192948Y-20117562D01*
X51139726Y-20165800D01*
X51082032Y-20208589D01*
X51020422Y-20245516D01*
X50955488Y-20276227D01*
X50887858Y-20300426D01*
X50818181Y-20317879D01*
X50747129Y-20328419D01*
X50675386Y-20331943D01*
X50675280Y-20331943D01*
X50562250Y-20331943D01*
X50046630Y-20331943D01*
G37*
G04 #@! TO.C,SW2*
X46637500Y-30550000D02*
X46637500Y-32550000D01*
X47687500Y-29250000D02*
X48137500Y-28800000D01*
X47687500Y-33850000D02*
X48137500Y-34300000D01*
X48137500Y-28800000D02*
X50637500Y-28800000D01*
X48137500Y-34300000D02*
X50637500Y-34300000D01*
X51087500Y-29250000D02*
X50637500Y-28800000D01*
X51087500Y-33850000D02*
X50637500Y-34300000D01*
X52137500Y-30550000D02*
X52137500Y-32550000D01*
G04 #@! TO.C,C27*
X28653080Y-44360000D02*
X28371920Y-44360000D01*
X28653080Y-43340000D02*
X28371920Y-43340000D01*
G04 #@! TO.C,C8*
X22697500Y-26359420D02*
X22697500Y-26640580D01*
X21677500Y-26359420D02*
X21677500Y-26640580D01*
G04 #@! TO.C,C12*
X20977500Y-15315580D02*
X20977500Y-15034420D01*
X21997500Y-15315580D02*
X21997500Y-15034420D01*
G04 #@! TO.C,C14*
X19828080Y-21785000D02*
X19546920Y-21785000D01*
X19828080Y-20765000D02*
X19546920Y-20765000D01*
G04 #@! TO.C,C23*
X23477500Y-28540580D02*
X23477500Y-28259420D01*
X24497500Y-28540580D02*
X24497500Y-28259420D01*
G04 #@! TO.C,R3*
X31799758Y-42822500D02*
X31325242Y-42822500D01*
X31799758Y-41777500D02*
X31325242Y-41777500D01*
G04 #@! TO.C,C11*
X33897500Y-26409420D02*
X33897500Y-26690580D01*
X32877500Y-26409420D02*
X32877500Y-26690580D01*
G04 #@! TO.C,kibuzzard-6457ABA7*
G36*
X4102995Y-19592380D02*
G01*
X4125220Y-19639370D01*
X4076960Y-19680010D01*
X3916940Y-19680010D01*
X3957580Y-19608255D01*
X4039495Y-19574600D01*
X4102995Y-19592380D01*
G37*
G36*
X5451735Y-19592380D02*
G01*
X5473960Y-19639370D01*
X5425700Y-19680010D01*
X5265680Y-19680010D01*
X5306320Y-19608255D01*
X5388235Y-19574600D01*
X5451735Y-19592380D01*
G37*
G36*
X3359410Y-19379655D02*
G01*
X3396240Y-19464110D01*
X3359410Y-19547930D01*
X3285750Y-19575870D01*
X3123190Y-19575870D01*
X3123190Y-19351080D01*
X3283210Y-19351080D01*
X3359410Y-19379655D01*
G37*
G36*
X5390140Y-20338293D02*
G01*
X4668145Y-20338293D01*
X4041400Y-20338293D01*
X3485775Y-20338293D01*
X2898400Y-20338293D01*
X2898294Y-20338293D01*
X2825929Y-20334738D01*
X2754260Y-20324107D01*
X2683979Y-20306503D01*
X2615762Y-20282094D01*
X2550265Y-20251117D01*
X2488120Y-20213868D01*
X2429926Y-20170708D01*
X2376242Y-20122052D01*
X2327586Y-20068368D01*
X2284426Y-20010174D01*
X2247178Y-19948029D01*
X2244752Y-19942900D01*
X2898400Y-19942900D01*
X2906020Y-20008940D01*
X2939675Y-20044182D01*
X3010160Y-20055930D01*
X3075565Y-20047357D01*
X3109220Y-20021640D01*
X3121285Y-19987985D01*
X3123190Y-19944170D01*
X3123190Y-19800660D01*
X3283210Y-19800660D01*
X3322580Y-19798120D01*
X3371969Y-19915101D01*
X3404989Y-19991724D01*
X3421640Y-20027990D01*
X3445135Y-20052755D01*
X3485775Y-20064820D01*
X3551180Y-20047040D01*
X3610235Y-20010210D01*
X3629920Y-19965760D01*
X3610870Y-19899720D01*
X3575310Y-19818863D01*
X3546523Y-19752400D01*
X3535248Y-19725730D01*
X3680720Y-19725730D01*
X3689610Y-19807716D01*
X3716280Y-19884339D01*
X3760730Y-19955600D01*
X3809466Y-20003701D01*
X3874395Y-20041325D01*
X3952659Y-20065614D01*
X4041400Y-20073710D01*
X4159748Y-20066646D01*
X4244282Y-20045452D01*
X4295003Y-20010131D01*
X4311910Y-19960680D01*
X4308680Y-19949250D01*
X4408430Y-19949250D01*
X4432560Y-19997510D01*
X4508972Y-20037021D01*
X4587500Y-20060728D01*
X4668145Y-20068630D01*
X4745262Y-20064256D01*
X4813207Y-20051132D01*
X4871980Y-20029260D01*
X4941195Y-19960045D01*
X4959769Y-19908769D01*
X4965960Y-19847650D01*
X4959769Y-19787166D01*
X4941195Y-19737795D01*
X4929130Y-19725730D01*
X5029460Y-19725730D01*
X5038350Y-19807716D01*
X5065020Y-19884339D01*
X5109470Y-19955600D01*
X5158206Y-20003701D01*
X5223135Y-20041325D01*
X5301399Y-20065614D01*
X5390140Y-20073710D01*
X5508488Y-20066646D01*
X5593022Y-20045452D01*
X5643743Y-20010131D01*
X5660650Y-19960680D01*
X5644140Y-19902260D01*
X5574290Y-19845110D01*
X5523490Y-19859080D01*
X5509520Y-19864160D01*
X5459672Y-19875590D01*
X5393950Y-19879400D01*
X5310130Y-19855270D01*
X5268220Y-19795580D01*
X5569210Y-19795580D01*
X5654935Y-19758115D01*
X5683986Y-19710490D01*
X5693670Y-19642545D01*
X5682875Y-19567456D01*
X5658828Y-19516180D01*
X5744470Y-19516180D01*
X5762885Y-19589840D01*
X5809240Y-19611430D01*
X5861310Y-19607620D01*
X5861310Y-19795580D01*
X5868930Y-19881234D01*
X5891790Y-19948544D01*
X5929890Y-19997510D01*
X5982666Y-20030671D01*
X6049552Y-20050568D01*
X6130550Y-20057200D01*
X6173095Y-20055295D01*
X6206750Y-20044500D01*
X6233420Y-20011162D01*
X6242310Y-19946710D01*
X6213100Y-19861620D01*
X6179445Y-19849555D01*
X6133725Y-19847650D01*
X6093085Y-19832410D01*
X6082290Y-19782880D01*
X6082290Y-19607620D01*
X6164840Y-19612700D01*
X6208655Y-19610795D01*
X6242310Y-19600000D01*
X6268027Y-19566662D01*
X6276600Y-19502210D01*
X6268345Y-19437122D01*
X6243580Y-19404420D01*
X6209925Y-19392355D01*
X6166745Y-19390450D01*
X6082290Y-19395530D01*
X6082290Y-19271070D01*
X6075940Y-19206300D01*
X6041967Y-19171057D01*
X5973070Y-19159310D01*
X5907982Y-19167247D01*
X5875280Y-19191060D01*
X5863215Y-19221540D01*
X5861310Y-19264720D01*
X5861310Y-19395530D01*
X5819400Y-19390450D01*
X5768600Y-19406960D01*
X5750820Y-19440615D01*
X5744470Y-19516180D01*
X5658828Y-19516180D01*
X5650490Y-19498400D01*
X5603341Y-19443949D01*
X5544445Y-19405055D01*
X5473801Y-19381719D01*
X5391410Y-19373940D01*
X5293832Y-19384594D01*
X5207683Y-19416556D01*
X5132965Y-19469825D01*
X5075462Y-19540874D01*
X5040961Y-19626176D01*
X5029460Y-19725730D01*
X4929130Y-19725730D01*
X4879600Y-19676200D01*
X4799590Y-19644450D01*
X4717040Y-19627940D01*
X4652270Y-19609842D01*
X4630680Y-19578410D01*
X4705610Y-19550470D01*
X4795145Y-19569520D01*
X4851660Y-19588570D01*
X4908810Y-19544120D01*
X4936750Y-19469190D01*
X4892300Y-19418390D01*
X4798320Y-19386005D01*
X4706880Y-19375210D01*
X4607668Y-19383236D01*
X4530502Y-19407316D01*
X4475384Y-19447448D01*
X4442314Y-19503632D01*
X4431290Y-19575870D01*
X4437322Y-19638576D01*
X4455420Y-19692075D01*
X4516380Y-19763830D01*
X4595437Y-19802882D01*
X4675130Y-19823520D01*
X4738947Y-19838125D01*
X4760220Y-19859080D01*
X4740852Y-19881940D01*
X4682750Y-19889560D01*
X4586230Y-19858445D01*
X4501775Y-19827330D01*
X4456690Y-19848920D01*
X4420495Y-19907657D01*
X4408430Y-19949250D01*
X4308680Y-19949250D01*
X4295400Y-19902260D01*
X4225550Y-19845110D01*
X4174750Y-19859080D01*
X4160780Y-19864160D01*
X4110932Y-19875590D01*
X4045210Y-19879400D01*
X3961390Y-19855270D01*
X3919480Y-19795580D01*
X4220470Y-19795580D01*
X4306195Y-19758115D01*
X4335246Y-19710490D01*
X4344930Y-19642545D01*
X4334135Y-19567456D01*
X4301750Y-19498400D01*
X4254601Y-19443949D01*
X4195705Y-19405055D01*
X4125061Y-19381719D01*
X4042670Y-19373940D01*
X3945092Y-19384594D01*
X3858943Y-19416556D01*
X3784225Y-19469825D01*
X3726722Y-19540874D01*
X3692221Y-19626176D01*
X3680720Y-19725730D01*
X3535248Y-19725730D01*
X3524510Y-19700330D01*
X3577427Y-19632879D01*
X3609177Y-19554139D01*
X3619760Y-19464110D01*
X3611505Y-19385370D01*
X3586740Y-19314250D01*
X3549275Y-19253925D01*
X3502920Y-19207570D01*
X3431941Y-19162414D01*
X3359551Y-19135321D01*
X3285750Y-19126290D01*
X3011430Y-19126290D01*
X2946025Y-19134862D01*
X2912370Y-19160580D01*
X2900305Y-19194235D01*
X2898400Y-19238050D01*
X2898400Y-19942900D01*
X2244752Y-19942900D01*
X2216200Y-19882533D01*
X2191792Y-19814315D01*
X2174187Y-19744034D01*
X2163556Y-19672365D01*
X2160001Y-19600000D01*
X2163556Y-19527635D01*
X2174187Y-19455966D01*
X2191792Y-19385685D01*
X2216200Y-19317467D01*
X2247178Y-19251971D01*
X2284426Y-19189826D01*
X2327586Y-19131632D01*
X2376242Y-19077948D01*
X2429926Y-19029292D01*
X2488120Y-18986132D01*
X2550265Y-18948883D01*
X2615762Y-18917906D01*
X2683979Y-18893497D01*
X2754260Y-18875893D01*
X2825929Y-18865262D01*
X2898294Y-18861707D01*
X2898400Y-18861707D01*
X6276600Y-18861707D01*
X6276706Y-18861707D01*
X6349071Y-18865262D01*
X6420740Y-18875893D01*
X6491021Y-18893497D01*
X6559238Y-18917906D01*
X6624735Y-18948883D01*
X6686880Y-18986132D01*
X6745074Y-19029292D01*
X6798758Y-19077948D01*
X6847414Y-19131632D01*
X6890574Y-19189826D01*
X6927822Y-19251971D01*
X6958800Y-19317467D01*
X6983208Y-19385685D01*
X7000813Y-19455966D01*
X7011444Y-19527635D01*
X7014999Y-19600000D01*
X7011444Y-19672365D01*
X7000813Y-19744034D01*
X6983208Y-19814315D01*
X6958800Y-19882533D01*
X6927822Y-19948029D01*
X6890574Y-20010174D01*
X6847414Y-20068368D01*
X6798758Y-20122052D01*
X6745074Y-20170708D01*
X6686880Y-20213868D01*
X6624735Y-20251117D01*
X6559238Y-20282094D01*
X6491021Y-20306503D01*
X6420740Y-20324107D01*
X6349071Y-20334738D01*
X6276706Y-20338293D01*
X6276600Y-20338293D01*
X6130550Y-20338293D01*
X5390140Y-20338293D01*
G37*
G04 #@! TO.C,R15*
X30677064Y-48310000D02*
X29222936Y-48310000D01*
X30677064Y-46490000D02*
X29222936Y-46490000D01*
G04 #@! TO.C,kibuzzard-647C8669*
G36*
X27080369Y-8015214D02*
G01*
X27157045Y-8070459D01*
X27208004Y-8148564D01*
X27224990Y-8235559D01*
X27224990Y-8358749D01*
X26744930Y-8358749D01*
X26744930Y-8236829D01*
X26762234Y-8146501D01*
X26814145Y-8068554D01*
X26891774Y-8014738D01*
X26986230Y-7996799D01*
X27080369Y-8015214D01*
G37*
G36*
X27102753Y-7232815D02*
G01*
X27180540Y-7257342D01*
X27227213Y-7298220D01*
X27242770Y-7355449D01*
X27226776Y-7411568D01*
X27178794Y-7451652D01*
X27098823Y-7475703D01*
X26986865Y-7483719D01*
X26874907Y-7475623D01*
X26794936Y-7451334D01*
X26746954Y-7410853D01*
X26730960Y-7354179D01*
X26746914Y-7297506D01*
X26794778Y-7257024D01*
X26874549Y-7232736D01*
X26986230Y-7224639D01*
X26993850Y-7224639D01*
X27102753Y-7232815D01*
G37*
G36*
X27733413Y-7352909D02*
G01*
X27733413Y-8239369D01*
X27733413Y-8583539D01*
X27733413Y-9096170D01*
X26241587Y-9096170D01*
X26241587Y-8583539D01*
X26241587Y-8470509D01*
X26518870Y-8470509D01*
X26527443Y-8535914D01*
X26553160Y-8569569D01*
X26586180Y-8581634D01*
X26630630Y-8583539D01*
X27336750Y-8583539D01*
X27418030Y-8568299D01*
X27441843Y-8534644D01*
X27449780Y-8471779D01*
X27449780Y-8239369D01*
X27441128Y-8145826D01*
X27415173Y-8059506D01*
X27371913Y-7980409D01*
X27311350Y-7908534D01*
X27238682Y-7848805D01*
X27159109Y-7806141D01*
X27072630Y-7780542D01*
X26979245Y-7772009D01*
X26886218Y-7780741D01*
X26800810Y-7806934D01*
X26723022Y-7850591D01*
X26652855Y-7911709D01*
X26594792Y-7984338D01*
X26553319Y-8062522D01*
X26528435Y-8146263D01*
X26520140Y-8235559D01*
X26518870Y-8470509D01*
X26241587Y-8470509D01*
X26241587Y-7354179D01*
X26506170Y-7354179D01*
X26514901Y-7436571D01*
X26541095Y-7508484D01*
X26580147Y-7567698D01*
X26627455Y-7611989D01*
X26688574Y-7647073D01*
X26769060Y-7678664D01*
X26833266Y-7695245D01*
X26905656Y-7705193D01*
X26986230Y-7708509D01*
X27075271Y-7704417D01*
X27157821Y-7692141D01*
X27233880Y-7671679D01*
X27297698Y-7644216D01*
X27351990Y-7610084D01*
X27397551Y-7565317D01*
X27435175Y-7505944D01*
X27460416Y-7434348D01*
X27468830Y-7352909D01*
X27460575Y-7271788D01*
X27435810Y-7201144D01*
X27398345Y-7142883D01*
X27351990Y-7098909D01*
X27278727Y-7055571D01*
X27193558Y-7024614D01*
X27096482Y-7006041D01*
X26987500Y-6999849D01*
X26903539Y-7004083D01*
X26822682Y-7016783D01*
X26744930Y-7037949D01*
X26680795Y-7064461D01*
X26625550Y-7098274D01*
X26578878Y-7142724D01*
X26540460Y-7201144D01*
X26514742Y-7272106D01*
X26506170Y-7354179D01*
X26241587Y-7354179D01*
X26241587Y-6999849D01*
X26241587Y-6999744D01*
X26245178Y-6926631D01*
X26255919Y-6854223D01*
X26273705Y-6783216D01*
X26298366Y-6714295D01*
X26329663Y-6648123D01*
X26367296Y-6585336D01*
X26410901Y-6526541D01*
X26460060Y-6472303D01*
X26514298Y-6423145D01*
X26573093Y-6379539D01*
X26635879Y-6341907D01*
X26702051Y-6310610D01*
X26770973Y-6285949D01*
X26841980Y-6268163D01*
X26914388Y-6257422D01*
X26987500Y-6253830D01*
X27060612Y-6257422D01*
X27133020Y-6268163D01*
X27204027Y-6285949D01*
X27272949Y-6310610D01*
X27339121Y-6341907D01*
X27401907Y-6379539D01*
X27460702Y-6423145D01*
X27514940Y-6472303D01*
X27564099Y-6526541D01*
X27607704Y-6585336D01*
X27645337Y-6648123D01*
X27676634Y-6714295D01*
X27701295Y-6783216D01*
X27719081Y-6854223D01*
X27729822Y-6926631D01*
X27733413Y-6999744D01*
X27733413Y-6999849D01*
X27733413Y-7352909D01*
G37*
G04 #@! TO.C,C3*
X23977500Y-10315580D02*
X23977500Y-10034420D01*
X24997500Y-10315580D02*
X24997500Y-10034420D01*
G04 #@! TO.C,C28*
X25653080Y-44360000D02*
X25371920Y-44360000D01*
X25653080Y-43340000D02*
X25371920Y-43340000D01*
G04 #@! TO.C,kibuzzard-64946152*
G36*
X43302409Y-40859414D02*
G01*
X43324078Y-40942758D01*
X43321300Y-40982207D01*
X43309632Y-41012767D01*
X43280323Y-41036937D01*
X43225733Y-41044993D01*
X43169892Y-41039576D01*
X43136833Y-41023324D01*
X43120580Y-40991514D01*
X43115163Y-40939424D01*
X43120997Y-40886640D01*
X43138499Y-40857192D01*
X43223510Y-40837189D01*
X43302409Y-40859414D01*
G37*
G36*
X43302409Y-41213348D02*
G01*
X43318661Y-41245157D01*
X43324078Y-41297247D01*
X43321300Y-41336696D01*
X43309632Y-41367256D01*
X43280323Y-41391425D01*
X43225733Y-41399482D01*
X43169892Y-41394065D01*
X43136833Y-41377813D01*
X43120580Y-41346003D01*
X43115163Y-41293913D01*
X43120997Y-41241129D01*
X43138499Y-41211681D01*
X43223510Y-41191678D01*
X43302409Y-41213348D01*
G37*
G36*
X40071449Y-40809964D02*
G01*
X40110343Y-40819409D01*
X40145348Y-40842190D01*
X40159238Y-40893863D01*
X40138124Y-40971651D01*
X40077006Y-41013878D01*
X40038668Y-41004988D01*
X39990328Y-40996098D01*
X39934210Y-41017212D01*
X39908096Y-41068329D01*
X39908096Y-41301692D01*
X39906429Y-41340030D01*
X39895872Y-41369478D01*
X39865868Y-41391148D01*
X39809194Y-41398371D01*
X39732518Y-41379479D01*
X39712516Y-41331696D01*
X39712516Y-41299469D01*
X39712516Y-40909421D01*
X39714183Y-40871082D01*
X39723628Y-40842746D01*
X39753076Y-40820243D01*
X39810306Y-40812742D01*
X39864479Y-40819132D01*
X39893649Y-40838301D01*
X39905873Y-40874972D01*
X39921986Y-40856081D01*
X39966992Y-40826077D01*
X40027555Y-40807186D01*
X40071449Y-40809964D01*
G37*
G36*
X42586208Y-40809408D02*
G01*
X42605655Y-40827744D01*
X42623991Y-40858303D01*
X42666774Y-40931090D01*
X42702889Y-40992270D01*
X42737894Y-41050611D01*
X42771787Y-41106112D01*
X42789567Y-41062912D01*
X42831794Y-40968872D01*
X42873605Y-40877333D01*
X42890135Y-40841634D01*
X42902914Y-40822743D01*
X42943475Y-40803852D01*
X43005149Y-40819409D01*
X43054322Y-40851358D01*
X43070713Y-40889418D01*
X43061823Y-40927201D01*
X43052933Y-40946092D01*
X42761786Y-41597284D01*
X42746784Y-41629511D01*
X42727337Y-41650624D01*
X42693999Y-41660626D01*
X42635103Y-41643957D01*
X42585930Y-41612286D01*
X42569539Y-41575059D01*
X42576207Y-41549153D01*
X42596209Y-41498105D01*
X42629547Y-41421915D01*
X42676219Y-41320583D01*
X42455081Y-40948314D01*
X42432856Y-40893863D01*
X42447858Y-40858303D01*
X42492863Y-40822743D01*
X42551759Y-40800518D01*
X42586208Y-40809408D01*
G37*
G36*
X37378891Y-41399343D02*
G01*
X37308882Y-41372256D01*
X37245402Y-41327528D01*
X37192756Y-41265576D01*
X37157335Y-41190428D01*
X37145528Y-41106112D01*
X37145735Y-41104445D01*
X37342219Y-41104445D01*
X37351109Y-41151673D01*
X37377779Y-41185566D01*
X37450011Y-41212792D01*
X37523353Y-41185011D01*
X37550857Y-41150562D01*
X37560024Y-41102778D01*
X37551412Y-41055272D01*
X37525576Y-41021657D01*
X37451122Y-40994987D01*
X37376668Y-41022768D01*
X37350832Y-41057078D01*
X37342219Y-41104445D01*
X37145735Y-41104445D01*
X37155900Y-41022398D01*
X37187015Y-40949055D01*
X37238873Y-40886084D01*
X37304066Y-40837930D01*
X37375186Y-40809038D01*
X37452233Y-40799407D01*
X37529156Y-40808976D01*
X37599906Y-40837683D01*
X37664482Y-40885529D01*
X37715723Y-40948191D01*
X37746467Y-41021348D01*
X37756716Y-41105001D01*
X37744770Y-41192095D01*
X37708932Y-41268910D01*
X37656009Y-41331140D01*
X37592806Y-41374479D01*
X37523214Y-41399899D01*
X37451122Y-41408372D01*
X37450011Y-41408233D01*
X37378891Y-41399343D01*
G37*
G36*
X38224490Y-40822187D02*
G01*
X38286165Y-40850524D01*
X38339566Y-40897752D01*
X38380621Y-40958563D01*
X38405253Y-41027645D01*
X38413464Y-41105001D01*
X38413464Y-41300581D01*
X38411798Y-41338919D01*
X38402352Y-41367256D01*
X38372904Y-41389758D01*
X38315674Y-41397259D01*
X38253444Y-41386980D01*
X38224552Y-41356143D01*
X38217884Y-41299469D01*
X38217884Y-41103889D01*
X38191770Y-41032769D01*
X38121761Y-41007211D01*
X38050641Y-41033881D01*
X38023416Y-41103889D01*
X38023416Y-41300581D01*
X38021749Y-41338919D01*
X38011192Y-41367256D01*
X37982577Y-41389758D01*
X37925626Y-41397259D01*
X37869230Y-41389758D01*
X37840059Y-41367256D01*
X37830614Y-41337807D01*
X37828947Y-41299469D01*
X37828947Y-40906087D01*
X37830614Y-40868860D01*
X37841171Y-40840523D01*
X37870341Y-40819687D01*
X37926737Y-40812742D01*
X37981466Y-40819132D01*
X38010081Y-40838301D01*
X38021193Y-40883862D01*
X38041196Y-40861637D01*
X38071199Y-40838301D01*
X38154543Y-40812742D01*
X38224490Y-40822187D01*
G37*
G36*
X39262459Y-41399343D02*
G01*
X39192451Y-41372256D01*
X39128970Y-41327528D01*
X39076325Y-41265576D01*
X39040904Y-41190428D01*
X39029097Y-41106112D01*
X39029304Y-41104445D01*
X39225788Y-41104445D01*
X39234678Y-41151673D01*
X39261348Y-41185566D01*
X39333579Y-41212792D01*
X39406922Y-41185011D01*
X39434425Y-41150562D01*
X39443593Y-41102778D01*
X39434981Y-41055272D01*
X39409144Y-41021657D01*
X39334691Y-40994987D01*
X39260237Y-41022768D01*
X39234400Y-41057078D01*
X39225788Y-41104445D01*
X39029304Y-41104445D01*
X39039469Y-41022398D01*
X39070584Y-40949055D01*
X39122442Y-40886084D01*
X39187635Y-40837930D01*
X39258755Y-40809038D01*
X39335802Y-40799407D01*
X39412725Y-40808976D01*
X39483475Y-40837683D01*
X39548051Y-40885529D01*
X39599292Y-40948191D01*
X39630036Y-41021348D01*
X39640284Y-41105001D01*
X39628338Y-41192095D01*
X39592501Y-41268910D01*
X39539577Y-41331140D01*
X39476375Y-41374479D01*
X39406783Y-41399899D01*
X39334691Y-41408372D01*
X39333579Y-41408233D01*
X39262459Y-41399343D01*
G37*
G36*
X36759091Y-41370034D02*
G01*
X36705473Y-41331696D01*
X36705473Y-41556168D01*
X36703806Y-41593951D01*
X36693805Y-41622287D01*
X36665468Y-41645068D01*
X36611017Y-41651736D01*
X36556010Y-41645068D01*
X36527117Y-41622843D01*
X36517116Y-41595062D01*
X36515449Y-41557279D01*
X36515449Y-41099444D01*
X36709918Y-41099444D01*
X36736032Y-41164452D01*
X36802708Y-41193901D01*
X36871605Y-41165008D01*
X36899942Y-41099444D01*
X36873272Y-41033325D01*
X36803819Y-41003877D01*
X36735477Y-41033881D01*
X36709918Y-41099444D01*
X36515449Y-41099444D01*
X36515449Y-40908309D01*
X36517116Y-40870527D01*
X36526562Y-40842746D01*
X36552954Y-40820243D01*
X36601016Y-40812742D01*
X36680470Y-40827744D01*
X36704362Y-40871638D01*
X36758674Y-40828299D01*
X36837156Y-40813853D01*
X36896485Y-40823360D01*
X36953714Y-40851883D01*
X37008844Y-40899419D01*
X37053912Y-40959550D01*
X37080952Y-41025855D01*
X37089966Y-41098333D01*
X37081014Y-41170811D01*
X37054159Y-41237116D01*
X37009400Y-41297247D01*
X36954517Y-41344784D01*
X36897287Y-41373306D01*
X36837712Y-41382813D01*
X36802708Y-41377123D01*
X36759091Y-41370034D01*
G37*
G36*
X41110468Y-41396148D02*
G01*
X41045769Y-41386456D01*
X40985020Y-41357378D01*
X40928223Y-41308915D01*
X40882538Y-41247549D01*
X40855128Y-41179763D01*
X40846059Y-41106112D01*
X41040459Y-41106112D01*
X41069352Y-41172787D01*
X41139361Y-41202791D01*
X41207703Y-41172787D01*
X41234928Y-41106667D01*
X41208814Y-41039437D01*
X41138249Y-41008322D01*
X41067129Y-41038881D01*
X41040459Y-41106112D01*
X40846059Y-41106112D01*
X40845991Y-41105556D01*
X40855189Y-41031288D01*
X40882785Y-40963316D01*
X40928779Y-40901642D01*
X40985761Y-40852870D01*
X41046324Y-40823607D01*
X41110468Y-40813853D01*
X41183533Y-40827744D01*
X41238262Y-40869416D01*
X41238262Y-40636053D01*
X41239929Y-40597715D01*
X41249930Y-40568822D01*
X41279378Y-40546042D01*
X41335496Y-40539374D01*
X41391614Y-40546042D01*
X41421063Y-40569378D01*
X41431064Y-40598826D01*
X41432731Y-40637164D01*
X41432731Y-41300581D01*
X41431064Y-41338919D01*
X41420507Y-41367256D01*
X41388697Y-41389758D01*
X41326606Y-41397259D01*
X41266460Y-41383647D01*
X41240484Y-41342808D01*
X41184644Y-41382813D01*
X41139361Y-41390954D01*
X41110468Y-41396148D01*
G37*
G36*
X42048641Y-41382813D02*
G01*
X41995023Y-41342808D01*
X41966686Y-41383647D01*
X41899456Y-41397259D01*
X41843060Y-41389758D01*
X41813889Y-41367256D01*
X41804444Y-41337807D01*
X41802777Y-41299469D01*
X41802777Y-41106667D01*
X41999468Y-41106667D01*
X42026694Y-41172787D01*
X42095036Y-41202791D01*
X42165044Y-41172787D01*
X42193937Y-41106112D01*
X42167267Y-41038881D01*
X42096147Y-41008322D01*
X42025582Y-41039437D01*
X41999468Y-41106667D01*
X41802777Y-41106667D01*
X41802777Y-40636053D01*
X41804444Y-40597715D01*
X41813889Y-40569378D01*
X41843337Y-40546875D01*
X41900567Y-40539374D01*
X41956685Y-40546875D01*
X41985022Y-40569378D01*
X41995579Y-40598826D01*
X41997246Y-40637164D01*
X41997246Y-40868304D01*
X42051141Y-40827466D01*
X42123928Y-40813853D01*
X42188072Y-40823607D01*
X42248635Y-40852870D01*
X42305617Y-40901642D01*
X42351611Y-40963316D01*
X42379207Y-41031288D01*
X42388406Y-41105556D01*
X42379269Y-41179763D01*
X42351858Y-41247549D01*
X42306173Y-41308915D01*
X42249993Y-41357378D01*
X42191097Y-41386456D01*
X42129484Y-41396148D01*
X42095036Y-41390466D01*
X42048641Y-41382813D01*
G37*
G36*
X38826849Y-40811075D02*
G01*
X38909082Y-40839412D01*
X38947976Y-40883862D01*
X38923528Y-40949426D01*
X38873522Y-40988319D01*
X38824071Y-40971651D01*
X38745728Y-40954982D01*
X38680164Y-40979429D01*
X38699056Y-41006933D01*
X38755729Y-41022768D01*
X38827961Y-41037214D01*
X38897969Y-41064996D01*
X38951865Y-41118891D01*
X38968117Y-41162091D01*
X38973534Y-41215014D01*
X38968117Y-41268493D01*
X38951865Y-41313360D01*
X38891302Y-41373923D01*
X38839876Y-41393061D01*
X38780424Y-41404544D01*
X38712946Y-41408372D01*
X38642382Y-41401457D01*
X38573670Y-41380714D01*
X38506809Y-41346142D01*
X38485696Y-41303914D01*
X38496252Y-41267521D01*
X38527923Y-41216126D01*
X38567372Y-41197234D01*
X38641271Y-41224460D01*
X38725726Y-41251686D01*
X38776565Y-41245018D01*
X38793512Y-41225016D01*
X38774898Y-41206680D01*
X38719058Y-41193901D01*
X38649327Y-41175843D01*
X38580152Y-41141672D01*
X38526812Y-41078886D01*
X38510977Y-41032075D01*
X38505698Y-40977207D01*
X38515344Y-40913999D01*
X38544281Y-40864837D01*
X38592509Y-40829722D01*
X38660029Y-40808652D01*
X38746839Y-40801629D01*
X38826849Y-40811075D01*
G37*
G36*
X40412603Y-41169453D02*
G01*
X40449274Y-41221682D01*
X40522617Y-41242796D01*
X40580124Y-41239462D01*
X40623741Y-41229461D01*
X40635964Y-41225016D01*
X40680414Y-41212792D01*
X40741533Y-41262798D01*
X40755979Y-41313916D01*
X40741186Y-41357185D01*
X40696805Y-41388092D01*
X40622838Y-41406636D01*
X40519283Y-41412817D01*
X40441635Y-41405733D01*
X40373154Y-41384480D01*
X40316341Y-41351559D01*
X40273697Y-41309471D01*
X40234803Y-41247117D01*
X40211467Y-41180072D01*
X40203688Y-41108334D01*
X40208309Y-41068329D01*
X40410381Y-41068329D01*
X40550398Y-41068329D01*
X40592626Y-41032769D01*
X40573179Y-40991653D01*
X40517616Y-40976096D01*
X40445941Y-41005544D01*
X40410381Y-41068329D01*
X40208309Y-41068329D01*
X40213751Y-41021225D01*
X40243940Y-40946586D01*
X40294255Y-40884417D01*
X40359634Y-40837807D01*
X40435013Y-40809840D01*
X40520394Y-40800518D01*
X40592487Y-40807325D01*
X40654300Y-40827744D01*
X40705834Y-40861776D01*
X40747089Y-40909421D01*
X40775426Y-40969845D01*
X40784872Y-41035548D01*
X40776399Y-41094999D01*
X40750979Y-41136671D01*
X40675969Y-41169453D01*
X40550398Y-41169453D01*
X40412603Y-41169453D01*
G37*
G36*
X36200271Y-40574795D02*
G01*
X36258195Y-40587714D01*
X36334316Y-40622718D01*
X36362097Y-40643832D01*
X36396546Y-40698283D01*
X36369876Y-40759402D01*
X36331537Y-40801074D01*
X36292088Y-40814964D01*
X36234303Y-40792739D01*
X36221524Y-40781627D01*
X36204299Y-40767181D01*
X36144847Y-40752734D01*
X36084840Y-40769959D01*
X36060948Y-40817742D01*
X36089285Y-40867193D01*
X36159849Y-40892752D01*
X36204022Y-40901225D01*
X36252083Y-40913310D01*
X36300145Y-40928729D01*
X36344317Y-40947203D01*
X36383072Y-40974568D01*
X36414881Y-41016656D01*
X36436134Y-41071802D01*
X36443218Y-41138338D01*
X36435995Y-41206263D01*
X36414326Y-41265576D01*
X36380988Y-41314332D01*
X36338761Y-41350587D01*
X36277395Y-41383307D01*
X36213313Y-41402939D01*
X36146514Y-41409483D01*
X36095675Y-41406288D01*
X36047613Y-41396704D01*
X35972048Y-41365033D01*
X35922042Y-41330029D01*
X35889816Y-41296136D01*
X35879814Y-41283912D01*
X35850922Y-41220015D01*
X35862868Y-41187094D01*
X35898706Y-41145006D01*
X35957602Y-41118336D01*
X35994829Y-41132226D01*
X36044279Y-41173898D01*
X36088729Y-41210014D01*
X36142069Y-41227238D01*
X36199484Y-41217854D01*
X36233933Y-41189703D01*
X36245416Y-41142783D01*
X36217079Y-41100000D01*
X36146514Y-41074997D01*
X36102620Y-41064857D01*
X36055392Y-41049994D01*
X36008164Y-41031241D01*
X35964269Y-41009433D01*
X35925515Y-40979290D01*
X35893705Y-40935535D01*
X35872452Y-40879834D01*
X35865368Y-40813853D01*
X35873456Y-40751438D01*
X35897718Y-40694579D01*
X35938155Y-40643276D01*
X35992545Y-40602839D01*
X36058664Y-40578577D01*
X36136513Y-40570489D01*
X36200271Y-40574795D01*
G37*
G04 #@! TO.C,C29*
X33796920Y-46890000D02*
X34078080Y-46890000D01*
X33796920Y-47910000D02*
X34078080Y-47910000D01*
G04 #@! TO.C,C5*
X32297500Y-26409420D02*
X32297500Y-26690580D01*
X31277500Y-26409420D02*
X31277500Y-26690580D01*
G04 #@! TO.C,R1*
X42565000Y-16837258D02*
X42565000Y-16362742D01*
X43610000Y-16837258D02*
X43610000Y-16362742D01*
G04 #@! TO.C,Y1*
X37837500Y-18725000D02*
X34137500Y-18725000D01*
X34137500Y-18725000D02*
X34137500Y-24025000D01*
G04 #@! TO.C,kibuzzard-647C89B2*
G36*
X48371030Y-27526480D02*
G01*
X48391985Y-27570930D01*
X48388175Y-27616650D01*
X48327215Y-27643320D01*
X48249110Y-27661100D01*
X48225615Y-27734125D01*
X48248475Y-27807150D01*
X48317055Y-27824930D01*
X48388175Y-27835090D01*
X48411670Y-27860490D01*
X48418655Y-27908750D01*
X48398652Y-27973520D01*
X48338645Y-27995110D01*
X48130365Y-27995110D01*
X48130365Y-27513780D01*
X48308165Y-27513780D01*
X48371030Y-27526480D01*
G37*
G36*
X49852485Y-28488293D02*
G01*
X49080325Y-28488293D01*
X48351345Y-28488293D01*
X47905575Y-28488293D01*
X47905469Y-28488293D01*
X47833104Y-28484738D01*
X47761435Y-28474107D01*
X47691154Y-28456503D01*
X47622937Y-28432094D01*
X47557440Y-28401117D01*
X47495295Y-28363868D01*
X47437101Y-28320708D01*
X47383417Y-28272052D01*
X47334761Y-28218368D01*
X47291601Y-28160174D01*
X47258891Y-28105600D01*
X47905575Y-28105600D01*
X47913195Y-28171640D01*
X47946850Y-28207835D01*
X48017335Y-28219900D01*
X48351345Y-28219900D01*
X48427757Y-28210375D01*
X48496125Y-28181800D01*
X48556450Y-28134175D01*
X48603652Y-28072439D01*
X48632650Y-28001531D01*
X48643445Y-27921450D01*
X48635119Y-27850189D01*
X48610143Y-27783726D01*
X48568515Y-27722060D01*
X48589198Y-27680150D01*
X48694245Y-27680150D01*
X48712660Y-27753810D01*
X48759015Y-27775400D01*
X48811085Y-27771590D01*
X48811085Y-27959550D01*
X48818705Y-28045204D01*
X48841565Y-28112514D01*
X48879665Y-28161480D01*
X48932441Y-28194641D01*
X48999327Y-28214538D01*
X49080325Y-28221170D01*
X49122870Y-28219265D01*
X49156525Y-28208470D01*
X49183195Y-28175132D01*
X49192085Y-28110680D01*
X49191213Y-28108140D01*
X49296225Y-28108140D01*
X49298130Y-28151955D01*
X49308925Y-28185610D01*
X49342262Y-28211328D01*
X49406715Y-28219900D01*
X49471802Y-28211328D01*
X49504505Y-28185610D01*
X49516570Y-28153225D01*
X49518475Y-28109410D01*
X49518475Y-27884620D01*
X49549590Y-27804610D01*
X49630870Y-27774130D01*
X49710880Y-27803340D01*
X49740725Y-27884620D01*
X49740725Y-28108140D01*
X49748345Y-28172910D01*
X49781365Y-28208152D01*
X49852485Y-28219900D01*
X49917890Y-28211328D01*
X49951545Y-28185610D01*
X49962340Y-28153225D01*
X49964245Y-28109410D01*
X50046795Y-28109410D01*
X50079815Y-28189420D01*
X50158555Y-28223710D01*
X50655125Y-28223710D01*
X50733865Y-28208470D01*
X50761170Y-28175450D01*
X50769425Y-28111315D01*
X50761805Y-28046545D01*
X50731960Y-28009715D01*
X50657665Y-27997650D01*
X50425255Y-27997650D01*
X50425255Y-27991300D01*
X50457005Y-27978600D01*
X50535745Y-27935738D01*
X50624645Y-27865570D01*
X50665920Y-27819850D01*
X50700845Y-27761430D01*
X50724657Y-27694755D01*
X50732595Y-27624270D01*
X50722012Y-27536993D01*
X50690262Y-27456348D01*
X50637345Y-27382335D01*
X50567424Y-27323421D01*
X50484663Y-27288073D01*
X50389060Y-27276290D01*
X50293528Y-27287932D01*
X50210978Y-27322857D01*
X50141410Y-27381065D01*
X50088846Y-27453949D01*
X50057308Y-27532901D01*
X50046795Y-27617920D01*
X50053145Y-27682690D01*
X50087752Y-27718885D01*
X50158555Y-27730950D01*
X50223325Y-27723330D01*
X50257615Y-27700470D01*
X50269680Y-27668720D01*
X50271585Y-27626810D01*
X50271585Y-27619190D01*
X50276665Y-27589980D01*
X50310320Y-27530925D01*
X50380805Y-27501080D01*
X50444305Y-27512510D01*
X50477960Y-27537275D01*
X50497645Y-27571565D01*
X50506535Y-27603950D01*
X50494629Y-27659513D01*
X50458910Y-27711900D01*
X50406364Y-27760001D01*
X50343975Y-27802705D01*
X50276665Y-27843027D01*
X50209355Y-27883985D01*
X50146966Y-27929388D01*
X50094420Y-27983045D01*
X50058701Y-28043529D01*
X50046795Y-28109410D01*
X49964245Y-28109410D01*
X49964245Y-27885890D01*
X49954861Y-27797484D01*
X49926709Y-27718532D01*
X49879790Y-27649035D01*
X49818759Y-27595060D01*
X49748274Y-27562675D01*
X49668335Y-27551880D01*
X49573085Y-27581090D01*
X49538795Y-27607760D01*
X49515935Y-27633160D01*
X49503235Y-27581090D01*
X49470532Y-27559182D01*
X49407985Y-27551880D01*
X49343532Y-27559818D01*
X49310195Y-27583630D01*
X49298130Y-27616015D01*
X49296225Y-27658560D01*
X49296225Y-28108140D01*
X49191213Y-28108140D01*
X49162875Y-28025590D01*
X49129220Y-28013525D01*
X49083500Y-28011620D01*
X49042860Y-27996380D01*
X49032065Y-27946850D01*
X49032065Y-27771590D01*
X49114615Y-27776670D01*
X49158430Y-27774765D01*
X49192085Y-27763970D01*
X49217802Y-27730633D01*
X49226375Y-27666180D01*
X49218120Y-27601092D01*
X49193355Y-27568390D01*
X49159700Y-27556325D01*
X49116520Y-27554420D01*
X49032065Y-27559500D01*
X49032065Y-27435040D01*
X49025715Y-27370270D01*
X48991742Y-27335027D01*
X48922845Y-27323280D01*
X48857757Y-27331217D01*
X48825055Y-27355030D01*
X48812990Y-27385510D01*
X48811085Y-27428690D01*
X48811085Y-27559500D01*
X48769175Y-27554420D01*
X48718375Y-27570930D01*
X48700595Y-27604585D01*
X48694245Y-27680150D01*
X48589198Y-27680150D01*
X48604710Y-27648717D01*
X48616775Y-27568390D01*
X48607603Y-27495012D01*
X48580086Y-27428972D01*
X48534225Y-27370270D01*
X48477498Y-27325114D01*
X48412305Y-27298021D01*
X48338645Y-27288990D01*
X48018605Y-27288990D01*
X47953200Y-27297562D01*
X47919545Y-27323280D01*
X47907480Y-27356300D01*
X47905575Y-27400750D01*
X47905575Y-28105600D01*
X47258891Y-28105600D01*
X47254353Y-28098029D01*
X47223375Y-28032533D01*
X47198967Y-27964315D01*
X47181362Y-27894034D01*
X47170731Y-27822365D01*
X47167176Y-27750000D01*
X47170731Y-27677635D01*
X47181362Y-27605966D01*
X47198967Y-27535685D01*
X47223375Y-27467467D01*
X47254353Y-27401971D01*
X47291601Y-27339826D01*
X47334761Y-27281632D01*
X47383417Y-27227948D01*
X47437101Y-27179292D01*
X47495295Y-27136132D01*
X47557440Y-27098883D01*
X47622937Y-27067906D01*
X47691154Y-27043497D01*
X47761435Y-27025893D01*
X47833104Y-27015262D01*
X47905469Y-27011707D01*
X47905575Y-27011707D01*
X50769425Y-27011707D01*
X50769531Y-27011707D01*
X50841896Y-27015262D01*
X50913565Y-27025893D01*
X50983846Y-27043497D01*
X51052063Y-27067906D01*
X51117560Y-27098883D01*
X51179705Y-27136132D01*
X51237899Y-27179292D01*
X51291583Y-27227948D01*
X51340239Y-27281632D01*
X51383399Y-27339826D01*
X51420647Y-27401971D01*
X51451625Y-27467467D01*
X51476033Y-27535685D01*
X51493638Y-27605966D01*
X51504269Y-27677635D01*
X51507824Y-27750000D01*
X51504269Y-27822365D01*
X51493638Y-27894034D01*
X51476033Y-27964315D01*
X51451625Y-28032533D01*
X51420647Y-28098029D01*
X51383399Y-28160174D01*
X51340239Y-28218368D01*
X51291583Y-28272052D01*
X51237899Y-28320708D01*
X51179705Y-28363868D01*
X51117560Y-28401117D01*
X51052063Y-28432094D01*
X50983846Y-28456503D01*
X50913565Y-28474107D01*
X50841896Y-28484738D01*
X50769531Y-28488293D01*
X50769425Y-28488293D01*
X50655125Y-28488293D01*
X49852485Y-28488293D01*
G37*
G04 #@! TO.C,C9*
X21097500Y-26359420D02*
X21097500Y-26640580D01*
X20077500Y-26359420D02*
X20077500Y-26640580D01*
G04 #@! TO.C,kibuzzard-647C8670*
G36*
X43781639Y-20846069D02*
G01*
X43858315Y-20901314D01*
X43909274Y-20979419D01*
X43926260Y-21066414D01*
X43926260Y-21189604D01*
X43446200Y-21189604D01*
X43446200Y-21067684D01*
X43463504Y-20977356D01*
X43515415Y-20899409D01*
X43593044Y-20845593D01*
X43687500Y-20827654D01*
X43781639Y-20846069D01*
G37*
G36*
X44419443Y-20218054D02*
G01*
X44419443Y-21070224D01*
X44419443Y-21414394D01*
X44419443Y-21927025D01*
X42955557Y-21927025D01*
X42955557Y-21414394D01*
X42955557Y-21301364D01*
X43220140Y-21301364D01*
X43228713Y-21366769D01*
X43254430Y-21400424D01*
X43287450Y-21412489D01*
X43331900Y-21414394D01*
X44038020Y-21414394D01*
X44119300Y-21399154D01*
X44143113Y-21365499D01*
X44151050Y-21302634D01*
X44151050Y-21070224D01*
X44142398Y-20976681D01*
X44116443Y-20890361D01*
X44073183Y-20811264D01*
X44012620Y-20739389D01*
X43939952Y-20679660D01*
X43860379Y-20636996D01*
X43773900Y-20611397D01*
X43680515Y-20602864D01*
X43587488Y-20611596D01*
X43502080Y-20637789D01*
X43424292Y-20681446D01*
X43354125Y-20742564D01*
X43296062Y-20815193D01*
X43254589Y-20893377D01*
X43229705Y-20977118D01*
X43221410Y-21066414D01*
X43220140Y-21301364D01*
X42955557Y-21301364D01*
X42955557Y-20222499D01*
X43220140Y-20222499D01*
X43253160Y-20294254D01*
X43255700Y-20298064D01*
X43443660Y-20506344D01*
X43518590Y-20552064D01*
X43597330Y-20512059D01*
X43641780Y-20435224D01*
X43602410Y-20346324D01*
X43587170Y-20329814D01*
X44040560Y-20329814D01*
X44086915Y-20327909D01*
X44121840Y-20315844D01*
X44146605Y-20281872D01*
X44154860Y-20218054D01*
X44146287Y-20152649D01*
X44120570Y-20118994D01*
X44086915Y-20106929D01*
X44043100Y-20105024D01*
X43335710Y-20105024D01*
X43268400Y-20111374D01*
X43241095Y-20129154D01*
X43226490Y-20162174D01*
X43220140Y-20222499D01*
X42955557Y-20222499D01*
X42955557Y-20105024D01*
X42955557Y-20104919D01*
X42959081Y-20033176D01*
X42969621Y-19962124D01*
X42987074Y-19892447D01*
X43011273Y-19824816D01*
X43041984Y-19759883D01*
X43078911Y-19698273D01*
X43121700Y-19640579D01*
X43169938Y-19587357D01*
X43223160Y-19539119D01*
X43280854Y-19496330D01*
X43342464Y-19459402D01*
X43407397Y-19428691D01*
X43475028Y-19404493D01*
X43544705Y-19387039D01*
X43615757Y-19376500D01*
X43687500Y-19372975D01*
X43759243Y-19376500D01*
X43830295Y-19387039D01*
X43899972Y-19404493D01*
X43967603Y-19428691D01*
X44032536Y-19459402D01*
X44094146Y-19496330D01*
X44151840Y-19539119D01*
X44205062Y-19587357D01*
X44253300Y-19640579D01*
X44296089Y-19698273D01*
X44333016Y-19759883D01*
X44363727Y-19824816D01*
X44387926Y-19892447D01*
X44405379Y-19962124D01*
X44415919Y-20033176D01*
X44419443Y-20104919D01*
X44419443Y-20105024D01*
X44419443Y-20218054D01*
G37*
G04 #@! TO.C,J2*
X48802500Y-15985000D02*
X48802500Y-14935000D01*
X51302500Y-15985000D02*
X48802500Y-15985000D01*
X48802500Y-14935000D02*
X47812500Y-14935000D01*
X53272500Y-14815000D02*
X53272500Y-10935000D01*
X48802500Y-9765000D02*
X48802500Y-10815000D01*
X51302500Y-9765000D02*
X48802500Y-9765000D01*
G04 #@! TO.C,C19*
X20528080Y-36510000D02*
X20246920Y-36510000D01*
X20528080Y-35490000D02*
X20246920Y-35490000D01*
G04 #@! TO.C,C17*
X9477500Y-21415580D02*
X9477500Y-21134420D01*
X10497500Y-21415580D02*
X10497500Y-21134420D01*
G04 #@! TO.C,R7*
X12024758Y-10697500D02*
X11550242Y-10697500D01*
X12024758Y-9652500D02*
X11550242Y-9652500D01*
G04 #@! TO.C,R8*
X12024758Y-16197500D02*
X11550242Y-16197500D01*
X12024758Y-15152500D02*
X11550242Y-15152500D01*
G04 #@! TO.C,C2*
X20528080Y-38260000D02*
X20246920Y-38260000D01*
X20528080Y-37240000D02*
X20246920Y-37240000D01*
G04 #@! TO.C,C31*
X31322500Y-44459420D02*
X31322500Y-44740580D01*
X30302500Y-44459420D02*
X30302500Y-44740580D01*
G04 #@! TO.C,kibuzzard-645C107E*
G36*
X8352359Y-36309414D02*
G01*
X8374028Y-36392758D01*
X8371250Y-36432207D01*
X8359582Y-36462767D01*
X8330273Y-36486937D01*
X8275683Y-36494993D01*
X8219842Y-36489576D01*
X8186783Y-36473324D01*
X8170530Y-36441514D01*
X8165113Y-36389424D01*
X8170947Y-36336640D01*
X8188449Y-36307192D01*
X8273460Y-36287189D01*
X8352359Y-36309414D01*
G37*
G36*
X8352359Y-36663348D02*
G01*
X8368611Y-36695157D01*
X8374028Y-36747247D01*
X8371250Y-36786696D01*
X8359582Y-36817256D01*
X8330273Y-36841425D01*
X8275683Y-36849482D01*
X8219842Y-36844065D01*
X8186783Y-36827813D01*
X8170530Y-36796003D01*
X8165113Y-36743913D01*
X8170947Y-36691129D01*
X8188449Y-36661681D01*
X8273460Y-36641678D01*
X8352359Y-36663348D01*
G37*
G36*
X3817348Y-35996875D02*
G01*
X3845684Y-36019378D01*
X3856241Y-36048826D01*
X3857908Y-36087164D01*
X3856241Y-36125502D01*
X3846240Y-36154395D01*
X3816792Y-36177176D01*
X3760674Y-36183843D01*
X3704556Y-36177176D01*
X3675108Y-36153839D01*
X3665106Y-36124391D01*
X3663439Y-36086053D01*
X3665106Y-36047715D01*
X3674552Y-36019378D01*
X3704000Y-35996875D01*
X3761229Y-35989374D01*
X3817348Y-35996875D01*
G37*
G36*
X3836794Y-36282744D02*
G01*
X3856797Y-36330528D01*
X3857908Y-36362754D01*
X3857908Y-36751692D01*
X3856241Y-36790030D01*
X3845684Y-36819478D01*
X3817070Y-36841148D01*
X3760118Y-36848371D01*
X3703722Y-36840870D01*
X3674552Y-36818367D01*
X3665106Y-36789474D01*
X3663439Y-36750581D01*
X3663439Y-36360532D01*
X3665106Y-36322194D01*
X3674552Y-36292746D01*
X3704000Y-36271076D01*
X3761229Y-36263853D01*
X3836794Y-36282744D01*
G37*
G36*
X7636158Y-36259408D02*
G01*
X7655605Y-36277744D01*
X7673941Y-36308303D01*
X7716724Y-36381090D01*
X7752839Y-36442270D01*
X7787844Y-36500611D01*
X7821737Y-36556112D01*
X7839517Y-36512912D01*
X7881744Y-36418872D01*
X7923555Y-36327333D01*
X7940085Y-36291634D01*
X7952864Y-36272743D01*
X7993425Y-36253852D01*
X8055099Y-36269409D01*
X8104272Y-36301358D01*
X8120663Y-36339418D01*
X8111773Y-36377201D01*
X8102883Y-36396092D01*
X7811736Y-37047284D01*
X7796734Y-37079511D01*
X7777287Y-37100624D01*
X7743949Y-37110626D01*
X7685053Y-37093957D01*
X7635880Y-37062286D01*
X7619489Y-37025059D01*
X7626157Y-36999153D01*
X7646159Y-36948105D01*
X7679497Y-36871915D01*
X7726169Y-36770583D01*
X7505031Y-36398314D01*
X7482806Y-36343863D01*
X7497808Y-36308303D01*
X7542813Y-36272743D01*
X7601709Y-36250518D01*
X7636158Y-36259408D01*
G37*
G36*
X4992433Y-36272187D02*
G01*
X5054107Y-36300524D01*
X5107509Y-36347752D01*
X5148563Y-36408563D01*
X5173196Y-36477645D01*
X5181407Y-36555001D01*
X5181407Y-36750581D01*
X5179740Y-36788919D01*
X5170294Y-36817256D01*
X5140846Y-36839758D01*
X5083617Y-36847259D01*
X5021387Y-36836980D01*
X4992494Y-36806143D01*
X4985827Y-36749469D01*
X4985827Y-36553889D01*
X4959713Y-36482769D01*
X4889704Y-36457211D01*
X4818584Y-36483881D01*
X4791358Y-36553889D01*
X4791358Y-36750581D01*
X4789691Y-36788919D01*
X4779134Y-36817256D01*
X4750520Y-36839758D01*
X4693568Y-36847259D01*
X4637172Y-36839758D01*
X4608002Y-36817256D01*
X4598556Y-36787807D01*
X4596889Y-36749469D01*
X4596889Y-36356087D01*
X4598556Y-36318860D01*
X4609113Y-36290523D01*
X4638283Y-36269687D01*
X4694679Y-36262742D01*
X4749408Y-36269132D01*
X4778023Y-36288301D01*
X4789136Y-36333862D01*
X4809138Y-36311637D01*
X4839142Y-36288301D01*
X4922486Y-36262742D01*
X4992433Y-36272187D01*
G37*
G36*
X1798762Y-36847259D02*
G01*
X1743755Y-36840314D01*
X1714307Y-36819478D01*
X1700972Y-36748358D01*
X1700972Y-36230516D01*
X1897663Y-36230516D01*
X1897663Y-36650568D01*
X2005454Y-36650568D01*
X2081575Y-36635705D01*
X2149917Y-36591116D01*
X2198256Y-36524025D01*
X2214369Y-36441653D01*
X2198673Y-36359004D01*
X2151584Y-36291079D01*
X2083381Y-36245656D01*
X2004343Y-36230516D01*
X1897663Y-36230516D01*
X1700972Y-36230516D01*
X1700972Y-36130503D01*
X1702639Y-36091609D01*
X1713196Y-36062717D01*
X1742644Y-36040214D01*
X1799873Y-36032713D01*
X2005454Y-36033824D01*
X2083589Y-36041082D01*
X2156862Y-36062856D01*
X2225274Y-36099145D01*
X2288823Y-36149950D01*
X2342302Y-36211347D01*
X2380501Y-36279411D01*
X2403421Y-36354142D01*
X2411061Y-36435541D01*
X2403594Y-36517253D01*
X2381196Y-36592922D01*
X2343865Y-36662549D01*
X2291601Y-36726133D01*
X2228711Y-36779126D01*
X2159501Y-36816978D01*
X2083971Y-36839689D01*
X2002121Y-36847259D01*
X1897663Y-36847259D01*
X1798762Y-36847259D01*
G37*
G36*
X6160418Y-36846148D02*
G01*
X6095719Y-36836456D01*
X6034970Y-36807378D01*
X5978173Y-36758915D01*
X5932488Y-36697549D01*
X5905078Y-36629763D01*
X5896009Y-36556112D01*
X6090409Y-36556112D01*
X6119302Y-36622787D01*
X6189311Y-36652791D01*
X6257653Y-36622787D01*
X6284878Y-36556667D01*
X6258764Y-36489437D01*
X6188199Y-36458322D01*
X6117079Y-36488881D01*
X6090409Y-36556112D01*
X5896009Y-36556112D01*
X5895941Y-36555556D01*
X5905139Y-36481288D01*
X5932735Y-36413316D01*
X5978729Y-36351642D01*
X6035711Y-36302870D01*
X6096274Y-36273607D01*
X6160418Y-36263853D01*
X6233483Y-36277744D01*
X6288212Y-36319416D01*
X6288212Y-36086053D01*
X6289879Y-36047715D01*
X6299880Y-36018822D01*
X6329328Y-35996042D01*
X6385446Y-35989374D01*
X6441564Y-35996042D01*
X6471013Y-36019378D01*
X6481014Y-36048826D01*
X6482681Y-36087164D01*
X6482681Y-36750581D01*
X6481014Y-36788919D01*
X6470457Y-36817256D01*
X6438647Y-36839758D01*
X6376556Y-36847259D01*
X6316410Y-36833647D01*
X6290434Y-36792808D01*
X6234594Y-36832813D01*
X6189311Y-36840954D01*
X6160418Y-36846148D01*
G37*
G36*
X7098591Y-36832813D02*
G01*
X7044973Y-36792808D01*
X7016636Y-36833647D01*
X6949406Y-36847259D01*
X6893010Y-36839758D01*
X6863839Y-36817256D01*
X6854394Y-36787807D01*
X6852727Y-36749469D01*
X6852727Y-36556667D01*
X7049418Y-36556667D01*
X7076644Y-36622787D01*
X7144986Y-36652791D01*
X7214994Y-36622787D01*
X7243887Y-36556112D01*
X7217217Y-36488881D01*
X7146097Y-36458322D01*
X7075533Y-36489437D01*
X7049418Y-36556667D01*
X6852727Y-36556667D01*
X6852727Y-36086053D01*
X6854394Y-36047715D01*
X6863839Y-36019378D01*
X6893288Y-35996875D01*
X6950517Y-35989374D01*
X7006635Y-35996875D01*
X7034972Y-36019378D01*
X7045529Y-36048826D01*
X7047196Y-36087164D01*
X7047196Y-36318304D01*
X7101091Y-36277466D01*
X7173878Y-36263853D01*
X7238022Y-36273607D01*
X7298585Y-36302870D01*
X7355568Y-36351642D01*
X7401561Y-36413316D01*
X7429157Y-36481288D01*
X7438356Y-36555556D01*
X7429219Y-36629763D01*
X7401808Y-36697549D01*
X7356123Y-36758915D01*
X7299943Y-36807378D01*
X7241047Y-36836456D01*
X7179434Y-36846148D01*
X7144986Y-36840466D01*
X7098591Y-36832813D01*
G37*
G36*
X2675538Y-36619453D02*
G01*
X2712209Y-36671682D01*
X2785552Y-36692796D01*
X2843059Y-36689462D01*
X2886676Y-36679461D01*
X2898899Y-36675016D01*
X2943349Y-36662792D01*
X3004468Y-36712798D01*
X3018914Y-36763916D01*
X3004121Y-36807185D01*
X2959740Y-36838092D01*
X2885773Y-36856636D01*
X2782218Y-36862817D01*
X2704570Y-36855733D01*
X2636089Y-36834480D01*
X2579276Y-36801559D01*
X2536632Y-36759471D01*
X2497738Y-36697117D01*
X2474402Y-36630072D01*
X2466623Y-36558334D01*
X2471244Y-36518329D01*
X2673316Y-36518329D01*
X2813333Y-36518329D01*
X2855561Y-36482769D01*
X2836114Y-36441653D01*
X2780551Y-36426096D01*
X2708876Y-36455544D01*
X2673316Y-36518329D01*
X2471244Y-36518329D01*
X2476686Y-36471225D01*
X2506875Y-36396586D01*
X2557190Y-36334417D01*
X2622569Y-36287807D01*
X2697948Y-36259840D01*
X2783329Y-36250518D01*
X2855422Y-36257325D01*
X2917235Y-36277744D01*
X2968769Y-36311776D01*
X3010024Y-36359421D01*
X3038361Y-36419845D01*
X3047807Y-36485548D01*
X3039334Y-36544999D01*
X3013914Y-36586671D01*
X2938904Y-36619453D01*
X2813333Y-36619453D01*
X2675538Y-36619453D01*
G37*
G36*
X3444523Y-36261075D02*
G01*
X3526756Y-36289412D01*
X3565649Y-36333862D01*
X3541202Y-36399426D01*
X3491196Y-36438319D01*
X3441745Y-36421651D01*
X3363402Y-36404982D01*
X3297838Y-36429429D01*
X3316729Y-36456933D01*
X3373403Y-36472768D01*
X3445634Y-36487214D01*
X3515643Y-36514996D01*
X3569539Y-36568891D01*
X3585791Y-36612091D01*
X3591208Y-36665014D01*
X3585791Y-36718493D01*
X3569539Y-36763360D01*
X3508976Y-36823923D01*
X3457549Y-36843061D01*
X3398098Y-36854544D01*
X3330620Y-36858372D01*
X3260056Y-36851457D01*
X3191343Y-36830714D01*
X3124483Y-36796142D01*
X3103369Y-36753914D01*
X3113926Y-36717521D01*
X3145597Y-36666126D01*
X3185046Y-36647234D01*
X3258944Y-36674460D01*
X3343399Y-36701686D01*
X3394239Y-36695018D01*
X3411186Y-36675016D01*
X3392572Y-36656680D01*
X3336732Y-36643901D01*
X3267001Y-36625843D01*
X3197826Y-36591672D01*
X3144486Y-36528886D01*
X3128650Y-36482075D01*
X3123372Y-36427207D01*
X3133018Y-36363999D01*
X3161954Y-36314837D01*
X3210183Y-36279722D01*
X3277702Y-36258652D01*
X3364513Y-36251629D01*
X3444523Y-36261075D01*
G37*
G36*
X5462553Y-36619453D02*
G01*
X5499224Y-36671682D01*
X5572567Y-36692796D01*
X5630074Y-36689462D01*
X5673691Y-36679461D01*
X5685914Y-36675016D01*
X5730364Y-36662792D01*
X5791483Y-36712798D01*
X5805929Y-36763916D01*
X5791136Y-36807185D01*
X5746755Y-36838092D01*
X5672788Y-36856636D01*
X5569233Y-36862817D01*
X5491585Y-36855733D01*
X5423104Y-36834480D01*
X5366291Y-36801559D01*
X5323647Y-36759471D01*
X5284753Y-36697117D01*
X5261417Y-36630072D01*
X5253638Y-36558334D01*
X5258259Y-36518329D01*
X5460331Y-36518329D01*
X5600348Y-36518329D01*
X5642576Y-36482769D01*
X5623129Y-36441653D01*
X5567566Y-36426096D01*
X5495891Y-36455544D01*
X5460331Y-36518329D01*
X5258259Y-36518329D01*
X5263701Y-36471225D01*
X5293890Y-36396586D01*
X5344205Y-36334417D01*
X5409584Y-36287807D01*
X5484963Y-36259840D01*
X5570344Y-36250518D01*
X5642437Y-36257325D01*
X5704250Y-36277744D01*
X5755784Y-36311776D01*
X5797039Y-36359421D01*
X5825376Y-36419845D01*
X5834822Y-36485548D01*
X5826349Y-36544999D01*
X5800929Y-36586671D01*
X5725919Y-36619453D01*
X5600348Y-36619453D01*
X5462553Y-36619453D01*
G37*
G36*
X4183504Y-36830591D02*
G01*
X4123312Y-36821145D01*
X4065712Y-36792808D01*
X4010705Y-36745580D01*
X3965946Y-36685758D01*
X3939091Y-36619638D01*
X3930208Y-36547777D01*
X4120163Y-36547777D01*
X4148500Y-36612786D01*
X4217398Y-36641678D01*
X4284628Y-36612230D01*
X4311298Y-36547777D01*
X4285739Y-36482214D01*
X4216842Y-36451654D01*
X4146833Y-36481658D01*
X4120163Y-36547777D01*
X3930208Y-36547777D01*
X3930139Y-36547222D01*
X3939153Y-36474744D01*
X3966193Y-36408439D01*
X4011261Y-36348308D01*
X4067070Y-36300771D01*
X4126337Y-36272249D01*
X4189061Y-36262742D01*
X4257958Y-36276632D01*
X4300741Y-36302191D01*
X4319077Y-36323861D01*
X4341858Y-36276632D01*
X4404643Y-36260519D01*
X4467984Y-36267187D01*
X4496321Y-36289967D01*
X4506323Y-36318304D01*
X4507989Y-36356087D01*
X4507989Y-36816144D01*
X4498112Y-36895846D01*
X4468478Y-36964558D01*
X4419089Y-37022281D01*
X4357353Y-37065805D01*
X4290678Y-37091920D01*
X4219064Y-37100624D01*
X4136554Y-37090345D01*
X4057933Y-37059508D01*
X4000426Y-37020337D01*
X3981257Y-36985054D01*
X4014594Y-36908378D01*
X4047376Y-36876152D01*
X4074602Y-36867262D01*
X4106828Y-36880597D01*
X4162391Y-36911434D01*
X4222398Y-36921713D01*
X4291296Y-36888376D01*
X4317966Y-36808366D01*
X4317966Y-36775028D01*
X4263237Y-36816700D01*
X4217398Y-36824686D01*
X4183504Y-36830591D01*
G37*
G04 #@! TO.C,C25*
X22578080Y-41260000D02*
X22296920Y-41260000D01*
X22578080Y-40240000D02*
X22296920Y-40240000D01*
G04 #@! TO.C,kibuzzard-6457AB78*
G36*
X4350810Y-27779845D02*
G01*
X4380337Y-27818262D01*
X4390180Y-27872555D01*
X4379702Y-27927165D01*
X4348270Y-27966535D01*
X4264450Y-27998285D01*
X4181900Y-27967170D01*
X4151420Y-27928435D01*
X4141260Y-27874460D01*
X4151102Y-27820326D01*
X4180630Y-27781115D01*
X4265720Y-27749365D01*
X4350810Y-27779845D01*
G37*
G36*
X5112810Y-27779845D02*
G01*
X5142338Y-27818262D01*
X5152180Y-27872555D01*
X5141703Y-27927165D01*
X5110270Y-27966535D01*
X5026450Y-27998285D01*
X4943900Y-27967170D01*
X4913420Y-27928435D01*
X4903260Y-27874460D01*
X4913102Y-27820326D01*
X4942630Y-27781115D01*
X5027720Y-27749365D01*
X5112810Y-27779845D01*
G37*
G36*
X3580555Y-27515685D02*
G01*
X3601510Y-27560135D01*
X3597700Y-27605855D01*
X3536740Y-27632525D01*
X3458635Y-27650305D01*
X3435140Y-27723330D01*
X3458000Y-27796355D01*
X3526580Y-27814135D01*
X3597700Y-27824295D01*
X3621195Y-27849695D01*
X3628180Y-27897955D01*
X3608177Y-27962725D01*
X3548170Y-27984315D01*
X3339890Y-27984315D01*
X3339890Y-27502985D01*
X3517690Y-27502985D01*
X3580555Y-27515685D01*
G37*
G36*
X5027720Y-28486388D02*
G01*
X4265720Y-28486388D01*
X3560870Y-28486388D01*
X3115100Y-28486388D01*
X3114994Y-28486388D01*
X3042815Y-28482842D01*
X2971332Y-28472239D01*
X2901232Y-28454680D01*
X2833191Y-28430334D01*
X2767863Y-28399437D01*
X2705879Y-28362285D01*
X2647834Y-28319236D01*
X2594289Y-28270705D01*
X2545758Y-28217160D01*
X2502710Y-28159115D01*
X2465558Y-28097131D01*
X2464458Y-28094805D01*
X3115100Y-28094805D01*
X3122720Y-28160845D01*
X3156375Y-28197040D01*
X3226860Y-28209105D01*
X3560870Y-28209105D01*
X3637282Y-28199580D01*
X3705650Y-28171005D01*
X3765975Y-28123380D01*
X3813177Y-28061644D01*
X3842175Y-27990736D01*
X3852970Y-27910655D01*
X3848964Y-27876365D01*
X3916470Y-27876365D01*
X3929964Y-27972726D01*
X3970445Y-28058610D01*
X4030611Y-28129412D01*
X4103160Y-28180530D01*
X4183170Y-28211486D01*
X4265720Y-28221805D01*
X4348111Y-28212121D01*
X4427645Y-28183070D01*
X4499876Y-28133540D01*
X4560360Y-28062420D01*
X4601317Y-27974631D01*
X4614796Y-27876365D01*
X4678470Y-27876365D01*
X4691964Y-27972726D01*
X4732445Y-28058610D01*
X4792611Y-28129412D01*
X4865160Y-28180530D01*
X4945170Y-28211486D01*
X5027720Y-28221805D01*
X5110111Y-28212121D01*
X5189645Y-28183070D01*
X5261876Y-28133540D01*
X5322360Y-28062420D01*
X5363317Y-27974631D01*
X5376970Y-27875095D01*
X5365258Y-27779492D01*
X5330121Y-27695884D01*
X5308427Y-27669355D01*
X5427770Y-27669355D01*
X5446185Y-27743015D01*
X5492540Y-27764605D01*
X5544610Y-27760795D01*
X5544610Y-27948755D01*
X5552230Y-28034409D01*
X5575090Y-28101719D01*
X5613190Y-28150685D01*
X5665966Y-28183846D01*
X5732852Y-28203743D01*
X5813850Y-28210375D01*
X5856395Y-28208470D01*
X5890050Y-28197675D01*
X5916720Y-28164337D01*
X5925610Y-28099885D01*
X5896400Y-28014795D01*
X5862745Y-28002730D01*
X5817025Y-28000825D01*
X5776385Y-27985585D01*
X5765590Y-27936055D01*
X5765590Y-27760795D01*
X5848140Y-27765875D01*
X5891955Y-27763970D01*
X5925610Y-27753175D01*
X5951327Y-27719837D01*
X5959900Y-27655385D01*
X5951645Y-27590297D01*
X5926880Y-27557595D01*
X5893225Y-27545530D01*
X5850045Y-27543625D01*
X5765590Y-27548705D01*
X5765590Y-27424245D01*
X5759240Y-27359475D01*
X5725267Y-27324232D01*
X5656370Y-27312485D01*
X5591283Y-27320422D01*
X5558580Y-27344235D01*
X5546515Y-27374715D01*
X5544610Y-27417895D01*
X5544610Y-27548705D01*
X5502700Y-27543625D01*
X5451900Y-27560135D01*
X5434120Y-27593790D01*
X5427770Y-27669355D01*
X5308427Y-27669355D01*
X5271560Y-27624270D01*
X5197759Y-27569589D01*
X5116902Y-27536781D01*
X5028990Y-27525845D01*
X4940937Y-27536852D01*
X4859657Y-27569872D01*
X4785150Y-27624905D01*
X4725883Y-27696872D01*
X4690323Y-27780692D01*
X4678470Y-27876365D01*
X4614796Y-27876365D01*
X4614970Y-27875095D01*
X4603258Y-27779492D01*
X4568121Y-27695884D01*
X4509560Y-27624270D01*
X4435759Y-27569589D01*
X4354902Y-27536781D01*
X4266990Y-27525845D01*
X4178937Y-27536852D01*
X4097657Y-27569872D01*
X4023150Y-27624905D01*
X3963883Y-27696872D01*
X3928323Y-27780692D01*
X3916470Y-27876365D01*
X3848964Y-27876365D01*
X3844644Y-27839394D01*
X3819668Y-27772931D01*
X3778040Y-27711265D01*
X3814235Y-27637922D01*
X3826300Y-27557595D01*
X3817128Y-27484217D01*
X3789611Y-27418177D01*
X3743750Y-27359475D01*
X3687023Y-27314319D01*
X3621830Y-27287226D01*
X3548170Y-27278195D01*
X3228130Y-27278195D01*
X3162725Y-27286767D01*
X3129070Y-27312485D01*
X3117005Y-27345505D01*
X3115100Y-27389955D01*
X3115100Y-28094805D01*
X2464458Y-28094805D01*
X2434660Y-28031804D01*
X2410314Y-27963762D01*
X2392755Y-27893662D01*
X2382152Y-27822179D01*
X2378606Y-27750000D01*
X2382152Y-27677821D01*
X2392755Y-27606338D01*
X2410314Y-27536238D01*
X2434660Y-27468196D01*
X2465558Y-27402869D01*
X2502710Y-27340885D01*
X2545758Y-27282840D01*
X2594289Y-27229295D01*
X2647834Y-27180764D01*
X2705879Y-27137715D01*
X2767863Y-27100563D01*
X2833191Y-27069666D01*
X2901232Y-27045320D01*
X2971332Y-27027761D01*
X3042815Y-27017158D01*
X3114994Y-27013612D01*
X3115100Y-27013612D01*
X5959900Y-27013612D01*
X5960006Y-27013612D01*
X6032185Y-27017158D01*
X6103668Y-27027761D01*
X6173768Y-27045320D01*
X6241809Y-27069666D01*
X6307137Y-27100563D01*
X6369121Y-27137715D01*
X6427166Y-27180764D01*
X6480711Y-27229295D01*
X6529242Y-27282840D01*
X6572290Y-27340885D01*
X6609442Y-27402869D01*
X6640340Y-27468196D01*
X6664686Y-27536238D01*
X6682245Y-27606338D01*
X6692848Y-27677821D01*
X6696394Y-27750000D01*
X6692848Y-27822179D01*
X6682245Y-27893662D01*
X6664686Y-27963762D01*
X6640340Y-28031804D01*
X6609442Y-28097131D01*
X6572290Y-28159115D01*
X6529242Y-28217160D01*
X6480711Y-28270705D01*
X6427166Y-28319236D01*
X6369121Y-28362285D01*
X6307137Y-28399437D01*
X6241809Y-28430334D01*
X6173768Y-28454680D01*
X6103668Y-28472239D01*
X6032185Y-28482842D01*
X5960006Y-28486388D01*
X5959900Y-28486388D01*
X5813850Y-28486388D01*
X5027720Y-28486388D01*
G37*
G04 #@! TO.C,R14*
X11550242Y-13152500D02*
X12024758Y-13152500D01*
X11550242Y-14197500D02*
X12024758Y-14197500D01*
G04 #@! TO.C,C13*
X35821921Y-15165000D02*
X36103081Y-15165000D01*
X35821921Y-16185000D02*
X36103081Y-16185000D01*
G04 #@! TO.C,kibuzzard-6457ABE9*
G36*
X35145305Y-9035369D02*
G01*
X35166895Y-9095377D01*
X35166895Y-9303657D01*
X34685565Y-9303657D01*
X34685565Y-9125857D01*
X34698265Y-9062992D01*
X34742715Y-9042037D01*
X34788435Y-9045847D01*
X34815105Y-9106807D01*
X34832885Y-9184912D01*
X34905910Y-9208407D01*
X34978935Y-9185547D01*
X34996715Y-9116967D01*
X35006875Y-9045847D01*
X35032275Y-9022352D01*
X35080535Y-9015367D01*
X35145305Y-9035369D01*
G37*
G36*
X35672778Y-7467237D02*
G01*
X35672778Y-8299722D01*
X35672778Y-9082677D01*
X35672778Y-10069467D01*
X35672778Y-10554607D01*
X35672778Y-11067237D01*
X34182222Y-11067237D01*
X34182222Y-10554607D01*
X34182222Y-10415542D01*
X34454425Y-10415542D01*
X34476015Y-10479677D01*
X34514750Y-10535874D01*
X34557295Y-10554607D01*
X34618255Y-10535557D01*
X35329455Y-10185037D01*
X35374540Y-10142492D01*
X35391685Y-10082167D01*
X35391685Y-10069467D01*
X35374540Y-10010412D01*
X35329455Y-9967867D01*
X34618255Y-9617347D01*
X34557295Y-9598297D01*
X34514750Y-9617029D01*
X34476015Y-9673227D01*
X34454425Y-9748157D01*
X34488715Y-9804037D01*
X34526815Y-9821817D01*
X35083075Y-10075817D01*
X35053706Y-10089628D01*
X34985920Y-10120902D01*
X34896226Y-10162177D01*
X34801135Y-10205992D01*
X34706044Y-10249648D01*
X34616350Y-10290447D01*
X34546500Y-10322356D01*
X34510940Y-10339342D01*
X34477285Y-10360297D01*
X34459505Y-10381887D01*
X34454425Y-10415542D01*
X34182222Y-10415542D01*
X34182222Y-9415417D01*
X34460775Y-9415417D01*
X34469347Y-9480822D01*
X34495065Y-9514477D01*
X34528085Y-9526542D01*
X34572535Y-9528447D01*
X35277385Y-9528447D01*
X35343425Y-9520827D01*
X35379620Y-9487172D01*
X35391685Y-9416687D01*
X35391685Y-9082677D01*
X35382160Y-9006265D01*
X35353585Y-8937897D01*
X35305960Y-8877572D01*
X35244224Y-8830370D01*
X35173316Y-8801372D01*
X35093235Y-8790577D01*
X35021974Y-8798903D01*
X34955511Y-8823879D01*
X34893845Y-8865507D01*
X34820502Y-8829312D01*
X34740175Y-8817247D01*
X34666797Y-8826419D01*
X34600757Y-8853936D01*
X34542055Y-8899797D01*
X34496899Y-8956524D01*
X34469806Y-9021717D01*
X34460775Y-9095377D01*
X34460775Y-9415417D01*
X34182222Y-9415417D01*
X34182222Y-8594997D01*
X34460775Y-8594997D01*
X34468395Y-8659767D01*
X34495065Y-8694057D01*
X34528720Y-8706122D01*
X34573805Y-8708027D01*
X34956075Y-8708027D01*
X35038943Y-8701598D01*
X35117365Y-8682309D01*
X35191343Y-8650163D01*
X35260875Y-8605157D01*
X35320565Y-8548166D01*
X35367555Y-8476252D01*
X35398035Y-8392432D01*
X35408195Y-8299722D01*
X35398194Y-8206853D01*
X35368190Y-8122557D01*
X35321994Y-8049849D01*
X35263415Y-7991747D01*
X35192930Y-7946186D01*
X35118635Y-7913642D01*
X35040530Y-7894116D01*
X34958615Y-7887607D01*
X34575075Y-7887607D01*
X34509035Y-7895227D01*
X34482365Y-7911737D01*
X34467125Y-7944757D01*
X34460775Y-8002542D01*
X34468395Y-8062867D01*
X34496335Y-8099697D01*
X34566185Y-8112397D01*
X34954805Y-8112397D01*
X35039577Y-8123827D01*
X35113555Y-8158117D01*
X35164990Y-8215584D01*
X35182135Y-8296547D01*
X35160545Y-8386717D01*
X35103395Y-8443867D01*
X35031640Y-8472442D01*
X34956075Y-8481967D01*
X34575075Y-8481967D01*
X34495065Y-8497207D01*
X34468395Y-8530227D01*
X34460775Y-8594997D01*
X34182222Y-8594997D01*
X34182222Y-7478667D01*
X34446805Y-7478667D01*
X34456048Y-7567638D01*
X34483776Y-7643203D01*
X34529990Y-7705362D01*
X34588622Y-7751576D01*
X34653603Y-7779304D01*
X34724935Y-7788547D01*
X34800341Y-7780451D01*
X34864000Y-7756162D01*
X34914006Y-7719808D01*
X34948455Y-7675517D01*
X34973379Y-7625352D01*
X34994810Y-7571377D01*
X35011796Y-7517402D01*
X35023385Y-7467237D01*
X35051960Y-7386592D01*
X35100855Y-7354207D01*
X35154477Y-7367330D01*
X35186651Y-7406700D01*
X35197375Y-7472317D01*
X35177690Y-7533277D01*
X35136415Y-7584077D01*
X35088790Y-7640592D01*
X35072915Y-7683137D01*
X35103395Y-7750447D01*
X35151496Y-7791404D01*
X35189120Y-7805057D01*
X35262145Y-7772037D01*
X35276115Y-7760607D01*
X35314850Y-7723777D01*
X35354855Y-7666627D01*
X35391050Y-7580267D01*
X35402004Y-7525339D01*
X35405655Y-7467237D01*
X35398176Y-7390896D01*
X35375739Y-7317659D01*
X35338345Y-7247527D01*
X35296911Y-7199267D01*
X35241190Y-7161167D01*
X35173404Y-7136402D01*
X35095775Y-7128147D01*
X35019734Y-7136243D01*
X34956710Y-7160532D01*
X34908609Y-7196886D01*
X34877335Y-7241177D01*
X34856221Y-7291659D01*
X34838600Y-7346587D01*
X34824789Y-7401514D01*
X34815105Y-7451997D01*
X34785895Y-7532642D01*
X34729380Y-7565027D01*
X34674770Y-7537722D01*
X34655085Y-7469142D01*
X34671595Y-7401197D01*
X34688105Y-7381512D01*
X34700805Y-7366907D01*
X34726205Y-7300867D01*
X34710330Y-7255782D01*
X34662705Y-7211967D01*
X34592855Y-7181487D01*
X34530625Y-7220857D01*
X34506495Y-7252607D01*
X34466490Y-7339602D01*
X34451726Y-7405801D01*
X34446805Y-7478667D01*
X34182222Y-7478667D01*
X34182222Y-7128147D01*
X34182222Y-7128041D01*
X34185810Y-7054991D01*
X34196542Y-6982645D01*
X34214313Y-6911698D01*
X34238953Y-6842835D01*
X34270223Y-6776719D01*
X34307824Y-6713987D01*
X34351392Y-6655242D01*
X34400509Y-6601050D01*
X34454700Y-6551933D01*
X34513446Y-6508365D01*
X34576178Y-6470764D01*
X34642294Y-6439494D01*
X34711157Y-6414854D01*
X34782103Y-6397083D01*
X34854450Y-6386352D01*
X34927500Y-6382763D01*
X35000550Y-6386352D01*
X35072897Y-6397083D01*
X35143843Y-6414854D01*
X35212706Y-6439494D01*
X35278822Y-6470764D01*
X35341554Y-6508365D01*
X35400300Y-6551933D01*
X35454491Y-6601050D01*
X35503608Y-6655242D01*
X35547176Y-6713987D01*
X35584777Y-6776719D01*
X35616047Y-6842835D01*
X35640687Y-6911698D01*
X35658458Y-6982645D01*
X35669190Y-7054991D01*
X35672778Y-7128041D01*
X35672778Y-7128147D01*
X35672778Y-7467237D01*
G37*
G04 #@! TO.C,kibuzzard-64945DF1*
G36*
X2388094Y-41974506D02*
G01*
X2452387Y-42017766D01*
X2473819Y-42064994D01*
X2451594Y-42144369D01*
X1942006Y-43203231D01*
X1922162Y-43242919D01*
X1898350Y-43267525D01*
X1854694Y-43279431D01*
X1775319Y-43255619D01*
X1704675Y-43213550D01*
X1686419Y-43173069D01*
X1705469Y-43093694D01*
X2216644Y-42025306D01*
X2270619Y-41955456D01*
X2307925Y-41949106D01*
X2388094Y-41974506D01*
G37*
G36*
X10381156Y-41974506D02*
G01*
X10445450Y-42017766D01*
X10466881Y-42064994D01*
X10444656Y-42144369D01*
X9935069Y-43203231D01*
X9915225Y-43242919D01*
X9891412Y-43267525D01*
X9847756Y-43279431D01*
X9768381Y-43255619D01*
X9697737Y-43213550D01*
X9679481Y-43173069D01*
X9698531Y-43093694D01*
X10209706Y-42025306D01*
X10263681Y-41955456D01*
X10300987Y-41949106D01*
X10381156Y-41974506D01*
G37*
G36*
X4966194Y-42349950D02*
G01*
X5021756Y-42363444D01*
X5071762Y-42395987D01*
X5091606Y-42469806D01*
X5061444Y-42580931D01*
X4974131Y-42641256D01*
X4919362Y-42628556D01*
X4850306Y-42615856D01*
X4770137Y-42646019D01*
X4732831Y-42719044D01*
X4732831Y-43052419D01*
X4730450Y-43107187D01*
X4715369Y-43149256D01*
X4672506Y-43180213D01*
X4591544Y-43190531D01*
X4482006Y-43163544D01*
X4453431Y-43095281D01*
X4453431Y-43049244D01*
X4453431Y-42492031D01*
X4455812Y-42437262D01*
X4469306Y-42396781D01*
X4511375Y-42364634D01*
X4593131Y-42353919D01*
X4670522Y-42363047D01*
X4712194Y-42390431D01*
X4729656Y-42442819D01*
X4752675Y-42415831D01*
X4816969Y-42372969D01*
X4903487Y-42345981D01*
X4966194Y-42349950D01*
G37*
G36*
X8569819Y-42361062D02*
G01*
X8653956Y-42393606D01*
X8679356Y-42409481D01*
X8723806Y-42439644D01*
X8765081Y-42511875D01*
X8731744Y-42603156D01*
X8675784Y-42668641D01*
X8622206Y-42690469D01*
X8536481Y-42655544D01*
X8454725Y-42628556D01*
X8355506Y-42666656D01*
X8309469Y-42772225D01*
X8353919Y-42877000D01*
X8448375Y-42914306D01*
X8542037Y-42884937D01*
X8612681Y-42855569D01*
X8665466Y-42876603D01*
X8728569Y-42939706D01*
X8765081Y-43022256D01*
X8743253Y-43080597D01*
X8677769Y-43134969D01*
X8576962Y-43182594D01*
X8455519Y-43198469D01*
X8358328Y-43186651D01*
X8263608Y-43151197D01*
X8171356Y-43092106D01*
X8112222Y-43032773D01*
X8064994Y-42956375D01*
X8034037Y-42867078D01*
X8023719Y-42769050D01*
X8034037Y-42671419D01*
X8064994Y-42583313D01*
X8112222Y-42508105D01*
X8171356Y-42449169D01*
X8261138Y-42390960D01*
X8354801Y-42356035D01*
X8452344Y-42344394D01*
X8569819Y-42361062D01*
G37*
G36*
X9115919Y-41987206D02*
G01*
X9144494Y-42057056D01*
X9146081Y-42101506D01*
X9146081Y-42604744D01*
X9232600Y-42523781D01*
X9319119Y-42442819D01*
X9338169Y-42430119D01*
X9433419Y-42387256D01*
X9524700Y-42451550D01*
X9576294Y-42552356D01*
X9517556Y-42638081D01*
X9360394Y-42771431D01*
X9571531Y-42946056D01*
X9621537Y-42996856D01*
X9631856Y-43030194D01*
X9582644Y-43133381D01*
X9487394Y-43200056D01*
X9390556Y-43154019D01*
X9374681Y-43142906D01*
X9328247Y-43101433D01*
X9261969Y-43037338D01*
X9194897Y-42972845D01*
X9146081Y-42930181D01*
X9146081Y-43052419D01*
X9143700Y-43107187D01*
X9128619Y-43149256D01*
X9087741Y-43180213D01*
X9006381Y-43190531D01*
X8925816Y-43179816D01*
X8884144Y-43147669D01*
X8870650Y-43105600D01*
X8868269Y-43050831D01*
X8868269Y-42099919D01*
X8870650Y-42045150D01*
X8884144Y-42003081D01*
X8926212Y-41970934D01*
X9007969Y-41960219D01*
X9115919Y-41987206D01*
G37*
G36*
X3810494Y-43191920D02*
G01*
X3710481Y-43153225D01*
X3619795Y-43089328D01*
X3544587Y-43000825D01*
X3493986Y-42893470D01*
X3477119Y-42773019D01*
X3477414Y-42770638D01*
X3758106Y-42770638D01*
X3770806Y-42838106D01*
X3808906Y-42886525D01*
X3912094Y-42925419D01*
X4016869Y-42885731D01*
X4056159Y-42836519D01*
X4069256Y-42768256D01*
X4056953Y-42700391D01*
X4020044Y-42652369D01*
X3913681Y-42614269D01*
X3807319Y-42653956D01*
X3770409Y-42702970D01*
X3758106Y-42770638D01*
X3477414Y-42770638D01*
X3491935Y-42653427D01*
X3536385Y-42548652D01*
X3610469Y-42458694D01*
X3703602Y-42389902D01*
X3805202Y-42348627D01*
X3915269Y-42334869D01*
X4025159Y-42348539D01*
X4126230Y-42389549D01*
X4218481Y-42457900D01*
X4291683Y-42547417D01*
X4335603Y-42651928D01*
X4350244Y-42771431D01*
X4333178Y-42895852D01*
X4281981Y-43005588D01*
X4206377Y-43094488D01*
X4116087Y-43156400D01*
X4016670Y-43192714D01*
X3913681Y-43204819D01*
X3912094Y-43204620D01*
X3810494Y-43191920D01*
G37*
G36*
X5743981Y-42367413D02*
G01*
X5832087Y-42407894D01*
X5908375Y-42475362D01*
X5967024Y-42562234D01*
X6002214Y-42660924D01*
X6013944Y-42771431D01*
X6013944Y-43050831D01*
X6011562Y-43105600D01*
X5998069Y-43146081D01*
X5956000Y-43178228D01*
X5874244Y-43188944D01*
X5785344Y-43174259D01*
X5744069Y-43130206D01*
X5734544Y-43049244D01*
X5734544Y-42769844D01*
X5697237Y-42668244D01*
X5597225Y-42631731D01*
X5495625Y-42669831D01*
X5456731Y-42769844D01*
X5456731Y-43050831D01*
X5454350Y-43105600D01*
X5439269Y-43146081D01*
X5398391Y-43178228D01*
X5317031Y-43188944D01*
X5236466Y-43178228D01*
X5194794Y-43146081D01*
X5181300Y-43104013D01*
X5178919Y-43049244D01*
X5178919Y-42487269D01*
X5181300Y-42434087D01*
X5196381Y-42393606D01*
X5238053Y-42363841D01*
X5318619Y-42353919D01*
X5396803Y-42363047D01*
X5437681Y-42390431D01*
X5453556Y-42455519D01*
X5482131Y-42423769D01*
X5524994Y-42390431D01*
X5644056Y-42353919D01*
X5743981Y-42367413D01*
G37*
G36*
X6360812Y-41974109D02*
G01*
X6401294Y-42006256D01*
X6416375Y-42048325D01*
X6418756Y-42103094D01*
X6418756Y-42453931D01*
X6504878Y-42381303D01*
X6604494Y-42357094D01*
X6704418Y-42370499D01*
X6792524Y-42410716D01*
X6868812Y-42477744D01*
X6927462Y-42564174D01*
X6962651Y-42662599D01*
X6974381Y-42773019D01*
X6974381Y-43052419D01*
X6972000Y-43107187D01*
X6956919Y-43149256D01*
X6916041Y-43180213D01*
X6834681Y-43190531D01*
X6756100Y-43180213D01*
X6714031Y-43149256D01*
X6698950Y-43106394D01*
X6696569Y-43049244D01*
X6696569Y-42771431D01*
X6660056Y-42669831D01*
X6567187Y-42633319D01*
X6467969Y-42667450D01*
X6418756Y-42744444D01*
X6418756Y-43052419D01*
X6416375Y-43107187D01*
X6401294Y-43149256D01*
X6360416Y-43180213D01*
X6279056Y-43190531D01*
X6198491Y-43179816D01*
X6156819Y-43147669D01*
X6143325Y-43106394D01*
X6140944Y-43050831D01*
X6140944Y-42101506D01*
X6143325Y-42046737D01*
X6156819Y-42006256D01*
X6198887Y-41974109D01*
X6280644Y-41963394D01*
X6360812Y-41974109D01*
G37*
G36*
X7449837Y-43187356D02*
G01*
X7360497Y-43173422D01*
X7275565Y-43131617D01*
X7195044Y-43061944D01*
X7129780Y-42973838D01*
X7090622Y-42876735D01*
X7077862Y-42773019D01*
X7355381Y-42773019D01*
X7396656Y-42867475D01*
X7496669Y-42909544D01*
X7594300Y-42866681D01*
X7633194Y-42772225D01*
X7595887Y-42676181D01*
X7495875Y-42631731D01*
X7394275Y-42676181D01*
X7355381Y-42773019D01*
X7077862Y-42773019D01*
X7077569Y-42770638D01*
X7090710Y-42664628D01*
X7130133Y-42567790D01*
X7195837Y-42480125D01*
X7277241Y-42410892D01*
X7363760Y-42369353D01*
X7455394Y-42355506D01*
X7553819Y-42374556D01*
X7615731Y-42410275D01*
X7644306Y-42442819D01*
X7680422Y-42376144D01*
X7769719Y-42353919D01*
X7861794Y-42363444D01*
X7903862Y-42396781D01*
X7918150Y-42438850D01*
X7920531Y-42493619D01*
X7920531Y-43049244D01*
X7918150Y-43104013D01*
X7904656Y-43146081D01*
X7866358Y-43177037D01*
X7795912Y-43187356D01*
X7680025Y-43165925D01*
X7645894Y-43103219D01*
X7567511Y-43166322D01*
X7496669Y-43178985D01*
X7449837Y-43187356D01*
G37*
G36*
X11842450Y-43187356D02*
G01*
X11753109Y-43173422D01*
X11668178Y-43131617D01*
X11587656Y-43061944D01*
X11522392Y-42973838D01*
X11483234Y-42876735D01*
X11470474Y-42773019D01*
X11747994Y-42773019D01*
X11789269Y-42867475D01*
X11889281Y-42909544D01*
X11986912Y-42866681D01*
X12025806Y-42772225D01*
X11988500Y-42676181D01*
X11888487Y-42631731D01*
X11786887Y-42676181D01*
X11747994Y-42773019D01*
X11470474Y-42773019D01*
X11470181Y-42770638D01*
X11483322Y-42664628D01*
X11522745Y-42567790D01*
X11588450Y-42480125D01*
X11669853Y-42410892D01*
X11756372Y-42369353D01*
X11848006Y-42355506D01*
X11946431Y-42374556D01*
X12008344Y-42410275D01*
X12036919Y-42442819D01*
X12073034Y-42376144D01*
X12162331Y-42353919D01*
X12254406Y-42363444D01*
X12296475Y-42396781D01*
X12310762Y-42438850D01*
X12313144Y-42493619D01*
X12313144Y-43049244D01*
X12310762Y-43104013D01*
X12297269Y-43146081D01*
X12258970Y-43177037D01*
X12188525Y-43187356D01*
X12072637Y-43165925D01*
X12038506Y-43103219D01*
X11960123Y-43166322D01*
X11889281Y-43178985D01*
X11842450Y-43187356D01*
G37*
G36*
X2912366Y-43168306D02*
G01*
X2835769Y-43111156D01*
X2795287Y-43169497D01*
X2699244Y-43188944D01*
X2618678Y-43178228D01*
X2577006Y-43146081D01*
X2563512Y-43104013D01*
X2561131Y-43049244D01*
X2561131Y-42773812D01*
X2842119Y-42773812D01*
X2881012Y-42868269D01*
X2978644Y-42911131D01*
X3078656Y-42868269D01*
X3119931Y-42773019D01*
X3081831Y-42676975D01*
X2980231Y-42633319D01*
X2879425Y-42677769D01*
X2842119Y-42773812D01*
X2561131Y-42773812D01*
X2561131Y-42101506D01*
X2563512Y-42046737D01*
X2577006Y-42006256D01*
X2619075Y-41974109D01*
X2700831Y-41963394D01*
X2781000Y-41974109D01*
X2821481Y-42006256D01*
X2836562Y-42048325D01*
X2838944Y-42103094D01*
X2838944Y-42433294D01*
X2915937Y-42374953D01*
X3019919Y-42355506D01*
X3111553Y-42369441D01*
X3198072Y-42411245D01*
X3279475Y-42480919D01*
X3345180Y-42569025D01*
X3384603Y-42666127D01*
X3397744Y-42772225D01*
X3384691Y-42878235D01*
X3345533Y-42975072D01*
X3280269Y-43062738D01*
X3200012Y-43131970D01*
X3115874Y-43173510D01*
X3027856Y-43187356D01*
X2978644Y-43179239D01*
X2912366Y-43168306D01*
G37*
G36*
X10905428Y-43168306D02*
G01*
X10828831Y-43111156D01*
X10788350Y-43169497D01*
X10692306Y-43188944D01*
X10611741Y-43178228D01*
X10570069Y-43146081D01*
X10556575Y-43104013D01*
X10554194Y-43049244D01*
X10554194Y-42773812D01*
X10835181Y-42773812D01*
X10874075Y-42868269D01*
X10971706Y-42911131D01*
X11071719Y-42868269D01*
X11112994Y-42773019D01*
X11074894Y-42676975D01*
X10973294Y-42633319D01*
X10872487Y-42677769D01*
X10835181Y-42773812D01*
X10554194Y-42773812D01*
X10554194Y-42101506D01*
X10556575Y-42046737D01*
X10570069Y-42006256D01*
X10612137Y-41974109D01*
X10693894Y-41963394D01*
X10774062Y-41974109D01*
X10814544Y-42006256D01*
X10829625Y-42048325D01*
X10832006Y-42103094D01*
X10832006Y-42433294D01*
X10909000Y-42374953D01*
X11012981Y-42355506D01*
X11104615Y-42369441D01*
X11191134Y-42411245D01*
X11272537Y-42480919D01*
X11338242Y-42569025D01*
X11377665Y-42666127D01*
X11390806Y-42772225D01*
X11377753Y-42878235D01*
X11338595Y-42975072D01*
X11273331Y-43062738D01*
X11193074Y-43131970D01*
X11108937Y-43173510D01*
X11020919Y-43187356D01*
X10971706Y-43179239D01*
X10905428Y-43168306D01*
G37*
G36*
X12802094Y-43187356D02*
G01*
X12709666Y-43173510D01*
X12622883Y-43131970D01*
X12541744Y-43062738D01*
X12476480Y-42975072D01*
X12437322Y-42878235D01*
X12424367Y-42773019D01*
X12702081Y-42773019D01*
X12743356Y-42868269D01*
X12843369Y-42911131D01*
X12941000Y-42868269D01*
X12979894Y-42773812D01*
X12942587Y-42677769D01*
X12841781Y-42633319D01*
X12740181Y-42676975D01*
X12702081Y-42773019D01*
X12424367Y-42773019D01*
X12424269Y-42772225D01*
X12437410Y-42666127D01*
X12476833Y-42569025D01*
X12542537Y-42480919D01*
X12623941Y-42411245D01*
X12710460Y-42369441D01*
X12802094Y-42355506D01*
X12906472Y-42375350D01*
X12984656Y-42434881D01*
X12984656Y-42101506D01*
X12987037Y-42046737D01*
X13001325Y-42005462D01*
X13043394Y-41972919D01*
X13123562Y-41963394D01*
X13203731Y-41972919D01*
X13245800Y-42006256D01*
X13260087Y-42048325D01*
X13262469Y-42103094D01*
X13262469Y-43050831D01*
X13260087Y-43105600D01*
X13245006Y-43146081D01*
X13199564Y-43178228D01*
X13110862Y-43188944D01*
X13024939Y-43169497D01*
X12987831Y-43111156D01*
X12908059Y-43168306D01*
X12843369Y-43179936D01*
X12802094Y-43187356D01*
G37*
G36*
X14592794Y-42863506D02*
G01*
X14645181Y-42938119D01*
X14749956Y-42968281D01*
X14832109Y-42963519D01*
X14894419Y-42949231D01*
X14911881Y-42942881D01*
X14975381Y-42925419D01*
X15062694Y-42996856D01*
X15083331Y-43069881D01*
X15062198Y-43131695D01*
X14998797Y-43175847D01*
X14893129Y-43202338D01*
X14745194Y-43211169D01*
X14634267Y-43201048D01*
X14536437Y-43170688D01*
X14455277Y-43123658D01*
X14394356Y-43063531D01*
X14338794Y-42974455D01*
X14305456Y-42878676D01*
X14294344Y-42776194D01*
X14300946Y-42719044D01*
X14589619Y-42719044D01*
X14789644Y-42719044D01*
X14849969Y-42668244D01*
X14822187Y-42609506D01*
X14742812Y-42587281D01*
X14640419Y-42629350D01*
X14589619Y-42719044D01*
X14300946Y-42719044D01*
X14308719Y-42651751D01*
X14351847Y-42545124D01*
X14423725Y-42456312D01*
X14517123Y-42389726D01*
X14624808Y-42349774D01*
X14746781Y-42336456D01*
X14849770Y-42346180D01*
X14938075Y-42375350D01*
X15011695Y-42423967D01*
X15070631Y-42492031D01*
X15111112Y-42578352D01*
X15124606Y-42672213D01*
X15112502Y-42757144D01*
X15076187Y-42816675D01*
X14969031Y-42863506D01*
X14789644Y-42863506D01*
X14592794Y-42863506D01*
G37*
G36*
X13727606Y-43165131D02*
G01*
X13641617Y-43151637D01*
X13559331Y-43111156D01*
X13480750Y-43043688D01*
X13416809Y-42958227D01*
X13378444Y-42863771D01*
X13365754Y-42761112D01*
X13637119Y-42761112D01*
X13677600Y-42853981D01*
X13776025Y-42895256D01*
X13872069Y-42853187D01*
X13910169Y-42761112D01*
X13873656Y-42667450D01*
X13775231Y-42623794D01*
X13675219Y-42666656D01*
X13637119Y-42761112D01*
X13365754Y-42761112D01*
X13365656Y-42760319D01*
X13378533Y-42656778D01*
X13417162Y-42562058D01*
X13481544Y-42476156D01*
X13561272Y-42408247D01*
X13645938Y-42367501D01*
X13735544Y-42353919D01*
X13833969Y-42373762D01*
X13895087Y-42410275D01*
X13921281Y-42441231D01*
X13953825Y-42373762D01*
X14043519Y-42350744D01*
X14134006Y-42360269D01*
X14174487Y-42392812D01*
X14188775Y-42433294D01*
X14191156Y-42487269D01*
X14191156Y-43144494D01*
X14177045Y-43258353D01*
X14134712Y-43356513D01*
X14064156Y-43438975D01*
X13975962Y-43501152D01*
X13880712Y-43538458D01*
X13778406Y-43550894D01*
X13660534Y-43536209D01*
X13548219Y-43492156D01*
X13466066Y-43436197D01*
X13438681Y-43385794D01*
X13486306Y-43276256D01*
X13533137Y-43230219D01*
X13572031Y-43217519D01*
X13618069Y-43236569D01*
X13697444Y-43280622D01*
X13783169Y-43295306D01*
X13881594Y-43247681D01*
X13919694Y-43133381D01*
X13919694Y-43085756D01*
X13841509Y-43145287D01*
X13776025Y-43156696D01*
X13727606Y-43165131D01*
G37*
G36*
X15751316Y-42024160D02*
G01*
X15854768Y-42068345D01*
X15942169Y-42141987D01*
X16008315Y-42234503D01*
X16048002Y-42335310D01*
X16061231Y-42444406D01*
X16051309Y-42532512D01*
X16021544Y-42615856D01*
X15977887Y-42688881D01*
X15926294Y-42746031D01*
X15815169Y-42833741D01*
X15716744Y-42887319D01*
X15677056Y-42903194D01*
X15677056Y-42911131D01*
X15967569Y-42911131D01*
X16060437Y-42926213D01*
X16097744Y-42972250D01*
X16107269Y-43053213D01*
X16096950Y-43133381D01*
X16062819Y-43174656D01*
X15964394Y-43193706D01*
X15343681Y-43193706D01*
X15245256Y-43150844D01*
X15203981Y-43050831D01*
X15218864Y-42968480D01*
X15263512Y-42892875D01*
X15329195Y-42825803D01*
X15407181Y-42769050D01*
X15491319Y-42717853D01*
X15575456Y-42667450D01*
X15653442Y-42614070D01*
X15719125Y-42553944D01*
X15763773Y-42488459D01*
X15778656Y-42419006D01*
X15767544Y-42378525D01*
X15742937Y-42335663D01*
X15700869Y-42304706D01*
X15621494Y-42290419D01*
X15533388Y-42327725D01*
X15491319Y-42401544D01*
X15484969Y-42438056D01*
X15484969Y-42447581D01*
X15482588Y-42499969D01*
X15467506Y-42539656D01*
X15424644Y-42568231D01*
X15343681Y-42577756D01*
X15255178Y-42562675D01*
X15211919Y-42517431D01*
X15203981Y-42436469D01*
X15217122Y-42330194D01*
X15256545Y-42231505D01*
X15322250Y-42140400D01*
X15409210Y-42067640D01*
X15512397Y-42023983D01*
X15631812Y-42009431D01*
X15751316Y-42024160D01*
G37*
G36*
X16513470Y-43202239D02*
G01*
X16423975Y-43170688D01*
X16349759Y-43123658D01*
X16293800Y-43066706D01*
X16251136Y-42998841D01*
X16216806Y-42919069D01*
X16191230Y-42823995D01*
X16175884Y-42720808D01*
X16170805Y-42610300D01*
X16451756Y-42610300D01*
X16461777Y-42750248D01*
X16491841Y-42850211D01*
X16541946Y-42910189D01*
X16612094Y-42930181D01*
X16683630Y-42910734D01*
X16734728Y-42852394D01*
X16765387Y-42755159D01*
X16775606Y-42619031D01*
X16775606Y-42609506D01*
X16765486Y-42469905D01*
X16735125Y-42370191D01*
X16684523Y-42310362D01*
X16613681Y-42290419D01*
X16542839Y-42310411D01*
X16492237Y-42370389D01*
X16461877Y-42470352D01*
X16451756Y-42610300D01*
X16170805Y-42610300D01*
X16170769Y-42609506D01*
X16174914Y-42508788D01*
X16187349Y-42418301D01*
X16208075Y-42338044D01*
X16247564Y-42237436D01*
X16291419Y-42161037D01*
X16346783Y-42101903D01*
X16420800Y-42053087D01*
X16510692Y-42020345D01*
X16613681Y-42009431D01*
X16716273Y-42020147D01*
X16804975Y-42052294D01*
X16878000Y-42100316D01*
X16933562Y-42158656D01*
X16975830Y-42227712D01*
X17008969Y-42307881D01*
X17035427Y-42405072D01*
X17051302Y-42506142D01*
X17056594Y-42611094D01*
X17048855Y-42747321D01*
X17025637Y-42868666D01*
X16986942Y-42975127D01*
X16932769Y-43066706D01*
X16877802Y-43124650D01*
X16804975Y-43171481D01*
X16716670Y-43202438D01*
X16615269Y-43212756D01*
X16612094Y-43212428D01*
X16513470Y-43202239D01*
G37*
G36*
X17683303Y-42024160D02*
G01*
X17786756Y-42068345D01*
X17874156Y-42141987D01*
X17940302Y-42234503D01*
X17979990Y-42335310D01*
X17993219Y-42444406D01*
X17983297Y-42532512D01*
X17953531Y-42615856D01*
X17909875Y-42688881D01*
X17858281Y-42746031D01*
X17747156Y-42833741D01*
X17648731Y-42887319D01*
X17609044Y-42903194D01*
X17609044Y-42911131D01*
X17899556Y-42911131D01*
X17992425Y-42926213D01*
X18029731Y-42972250D01*
X18039256Y-43053213D01*
X18028937Y-43133381D01*
X17994806Y-43174656D01*
X17896381Y-43193706D01*
X17275669Y-43193706D01*
X17177244Y-43150844D01*
X17135969Y-43050831D01*
X17150852Y-42968480D01*
X17195500Y-42892875D01*
X17261183Y-42825803D01*
X17339169Y-42769050D01*
X17423306Y-42717853D01*
X17507444Y-42667450D01*
X17585430Y-42614070D01*
X17651112Y-42553944D01*
X17695761Y-42488459D01*
X17710644Y-42419006D01*
X17699531Y-42378525D01*
X17674925Y-42335663D01*
X17632856Y-42304706D01*
X17553481Y-42290419D01*
X17465375Y-42327725D01*
X17423306Y-42401544D01*
X17416956Y-42438056D01*
X17416956Y-42447581D01*
X17414575Y-42499969D01*
X17399494Y-42539656D01*
X17356631Y-42568231D01*
X17275669Y-42577756D01*
X17187166Y-42562675D01*
X17143906Y-42517431D01*
X17135969Y-42436469D01*
X17149110Y-42330194D01*
X17188533Y-42231505D01*
X17254237Y-42140400D01*
X17341197Y-42067640D01*
X17444385Y-42023983D01*
X17563800Y-42009431D01*
X17683303Y-42024160D01*
G37*
G36*
X18663497Y-42021778D02*
G01*
X18766155Y-42058820D01*
X18850469Y-42120556D01*
X18913087Y-42197726D01*
X18950658Y-42281070D01*
X18963181Y-42370587D01*
X18949423Y-42454637D01*
X18908148Y-42521576D01*
X18839356Y-42571406D01*
X18839356Y-42582519D01*
X18886188Y-42616650D01*
X18936194Y-42668244D01*
X18975484Y-42739681D01*
X18988581Y-42820644D01*
X18974470Y-42927271D01*
X18932137Y-43020669D01*
X18861581Y-43100837D01*
X18769683Y-43162133D01*
X18663320Y-43198910D01*
X18542494Y-43211169D01*
X18422549Y-43198822D01*
X18316716Y-43161780D01*
X18224994Y-43100044D01*
X18180147Y-43050434D01*
X18140856Y-42987331D01*
X18123394Y-42946056D01*
X18120219Y-42930181D01*
X18102756Y-42844456D01*
X18141650Y-42775400D01*
X18258331Y-42752381D01*
X18342469Y-42768256D01*
X18390094Y-42850806D01*
X18477406Y-42927006D01*
X18544081Y-42936531D01*
X18617106Y-42927998D01*
X18667906Y-42902400D01*
X18707594Y-42825406D01*
X18668700Y-42750000D01*
X18576625Y-42717456D01*
X18504394Y-42714281D01*
X18463119Y-42698406D01*
X18430972Y-42657528D01*
X18420256Y-42576169D01*
X18434941Y-42487666D01*
X18478994Y-42444406D01*
X18561544Y-42436469D01*
X18652031Y-42420991D01*
X18682194Y-42374556D01*
X18650444Y-42311056D01*
X18562338Y-42280894D01*
X18472644Y-42299944D01*
X18431369Y-42338044D01*
X18421844Y-42357094D01*
X18377394Y-42416625D01*
X18317069Y-42436469D01*
X18229756Y-42407894D01*
X18170225Y-42358284D01*
X18150381Y-42301531D01*
X18186894Y-42193581D01*
X18221819Y-42143575D01*
X18287700Y-42080869D01*
X18392475Y-42031656D01*
X18463714Y-42014987D01*
X18542494Y-42009431D01*
X18663497Y-42021778D01*
G37*
G04 #@! TO.C,SW7*
X7387500Y-32550000D02*
X7387500Y-30550000D01*
X6337500Y-33850000D02*
X5887500Y-34300000D01*
X6337500Y-29250000D02*
X5887500Y-28800000D01*
X5887500Y-34300000D02*
X3387500Y-34300000D01*
X5887500Y-28800000D02*
X3387500Y-28800000D01*
X2937500Y-33850000D02*
X3387500Y-34300000D01*
X2937500Y-29250000D02*
X3387500Y-28800000D01*
X1887500Y-32550000D02*
X1887500Y-30550000D01*
G04 #@! TO.C,kibuzzard-647C7A14*
G36*
X2577392Y-47294084D02*
G01*
X2628788Y-47319087D01*
X2655775Y-47430213D01*
X2655775Y-47436562D01*
X2653394Y-47492919D01*
X2636725Y-47536575D01*
X2594855Y-47571103D01*
X2516869Y-47582613D01*
X2437097Y-47575072D01*
X2389869Y-47552450D01*
X2358913Y-47438150D01*
X2358913Y-47431800D01*
X2361294Y-47376238D01*
X2376375Y-47333375D01*
X2418245Y-47297656D01*
X2496231Y-47285750D01*
X2577392Y-47294084D01*
G37*
G36*
X2184287Y-46423738D02*
G01*
X2225563Y-46441994D01*
X2247788Y-46476125D01*
X2255725Y-46560262D01*
X2255725Y-47444500D01*
X2253344Y-47499269D01*
X2238263Y-47541337D01*
X2196194Y-47573484D01*
X2114438Y-47584200D01*
X2034666Y-47573881D01*
X1992200Y-47542925D01*
X1977119Y-47499269D01*
X1974738Y-47441325D01*
X1974738Y-46874588D01*
X1954100Y-46893638D01*
X1842975Y-46942850D01*
X1746931Y-46887288D01*
X1696925Y-46788862D01*
X1754075Y-46695200D01*
X2014425Y-46460250D01*
X2019188Y-46457075D01*
X2108881Y-46415800D01*
X2184287Y-46423738D01*
G37*
G36*
X3206637Y-46423738D02*
G01*
X3247913Y-46441994D01*
X3270138Y-46476125D01*
X3278075Y-46560262D01*
X3278075Y-47444500D01*
X3275694Y-47499269D01*
X3260613Y-47541337D01*
X3218544Y-47573484D01*
X3136788Y-47584200D01*
X3057016Y-47573881D01*
X3014550Y-47542925D01*
X2999469Y-47499269D01*
X2997088Y-47441325D01*
X2997088Y-46874588D01*
X2976450Y-46893638D01*
X2865325Y-46942850D01*
X2769281Y-46887288D01*
X2719275Y-46788862D01*
X2776425Y-46695200D01*
X3036775Y-46460250D01*
X3041538Y-46457075D01*
X3131231Y-46415800D01*
X3206637Y-46423738D01*
G37*
G04 #@! TO.C,kibuzzard-6457AC15*
G36*
X40148544Y-7992412D02*
G01*
X40225220Y-8047657D01*
X40276179Y-8125762D01*
X40293165Y-8212757D01*
X40293165Y-8335947D01*
X39813105Y-8335947D01*
X39813105Y-8214027D01*
X39830409Y-8123698D01*
X39882320Y-8045752D01*
X39959949Y-7991936D01*
X40054405Y-7973997D01*
X40148544Y-7992412D01*
G37*
G36*
X40796508Y-5476542D02*
G01*
X40796508Y-6235367D01*
X40796508Y-7199932D01*
X40796508Y-8216567D01*
X40796508Y-8996982D01*
X40796508Y-10251107D01*
X40796508Y-10588927D01*
X40796508Y-11101557D01*
X39308492Y-11101557D01*
X39308492Y-10588927D01*
X39308492Y-10262537D01*
X39573075Y-10262537D01*
X39582318Y-10351508D01*
X39610046Y-10427073D01*
X39656260Y-10489232D01*
X39714892Y-10535446D01*
X39779873Y-10563174D01*
X39851205Y-10572417D01*
X39926611Y-10564321D01*
X39990270Y-10540032D01*
X40040276Y-10503678D01*
X40074725Y-10459387D01*
X40099649Y-10409222D01*
X40121080Y-10355247D01*
X40138066Y-10301272D01*
X40149655Y-10251107D01*
X40178230Y-10170462D01*
X40227125Y-10138077D01*
X40280747Y-10151200D01*
X40312921Y-10190570D01*
X40323645Y-10256187D01*
X40303960Y-10317147D01*
X40262685Y-10367947D01*
X40215060Y-10424462D01*
X40199185Y-10467007D01*
X40229665Y-10534317D01*
X40277766Y-10575274D01*
X40315390Y-10588927D01*
X40388415Y-10555907D01*
X40402385Y-10544477D01*
X40441120Y-10507647D01*
X40481125Y-10450497D01*
X40517320Y-10364137D01*
X40528274Y-10309209D01*
X40531925Y-10251107D01*
X40524446Y-10174766D01*
X40502009Y-10101529D01*
X40464615Y-10031397D01*
X40423181Y-9983137D01*
X40367460Y-9945037D01*
X40299674Y-9920272D01*
X40222045Y-9912017D01*
X40146004Y-9920113D01*
X40082980Y-9944402D01*
X40034879Y-9980756D01*
X40003605Y-10025047D01*
X39982491Y-10075529D01*
X39964870Y-10130457D01*
X39951059Y-10185384D01*
X39941375Y-10235867D01*
X39912165Y-10316512D01*
X39855650Y-10348897D01*
X39801040Y-10321592D01*
X39781355Y-10253012D01*
X39797865Y-10185067D01*
X39814375Y-10165382D01*
X39827075Y-10150777D01*
X39852475Y-10084737D01*
X39836600Y-10039652D01*
X39788975Y-9995837D01*
X39719125Y-9965357D01*
X39656895Y-10004727D01*
X39632765Y-10036477D01*
X39592760Y-10123472D01*
X39577996Y-10189671D01*
X39573075Y-10262537D01*
X39308492Y-10262537D01*
X39308492Y-8775367D01*
X39580695Y-8775367D01*
X39594030Y-8817912D01*
X39621335Y-8841407D01*
X39664515Y-8857917D01*
X40091235Y-8997617D01*
X39650545Y-9143667D01*
X39609270Y-9179227D01*
X39588315Y-9239552D01*
X39597205Y-9292257D01*
X39625780Y-9331944D01*
X39670865Y-9357027D01*
X40088695Y-9495457D01*
X39664515Y-9635157D01*
X39602285Y-9663732D01*
X39581965Y-9709452D01*
X39594665Y-9776127D01*
X39629272Y-9839944D01*
X39674675Y-9861217D01*
X39736905Y-9847247D01*
X40441755Y-9602137D01*
X40460805Y-9593247D01*
X40498905Y-9558322D01*
X40517955Y-9491647D01*
X40488745Y-9421797D01*
X40463345Y-9401477D01*
X40441755Y-9390047D01*
X40422349Y-9383494D01*
X40370229Y-9365866D01*
X40285393Y-9337164D01*
X40167841Y-9297388D01*
X40017575Y-9246537D01*
X40455725Y-9097947D01*
X40497000Y-9061752D01*
X40517955Y-8996982D01*
X40497000Y-8932212D01*
X40463345Y-8898557D01*
X40441755Y-8889667D01*
X39736905Y-8645827D01*
X39674675Y-8630587D01*
X39628955Y-8651859D01*
X39593395Y-8715677D01*
X39580695Y-8775367D01*
X39308492Y-8775367D01*
X39308492Y-8447707D01*
X39587045Y-8447707D01*
X39595617Y-8513112D01*
X39621335Y-8546767D01*
X39654355Y-8558832D01*
X39698805Y-8560737D01*
X40404925Y-8560737D01*
X40486205Y-8545497D01*
X40510018Y-8511842D01*
X40517955Y-8448977D01*
X40517955Y-8216567D01*
X40509303Y-8123024D01*
X40483348Y-8036703D01*
X40440088Y-7957606D01*
X40379525Y-7885732D01*
X40306857Y-7826002D01*
X40227284Y-7783338D01*
X40140805Y-7757740D01*
X40047420Y-7749207D01*
X39954393Y-7757938D01*
X39868985Y-7784132D01*
X39791197Y-7827788D01*
X39721030Y-7888907D01*
X39662967Y-7961535D01*
X39621494Y-8039719D01*
X39596610Y-8123460D01*
X39588315Y-8212757D01*
X39587045Y-8447707D01*
X39308492Y-8447707D01*
X39308492Y-7200567D01*
X39579425Y-7200567D01*
X39587045Y-7284246D01*
X39609905Y-7367643D01*
X39648005Y-7450757D01*
X39687851Y-7513146D01*
X39736270Y-7568232D01*
X39795960Y-7615063D01*
X39869620Y-7652687D01*
X39954869Y-7677452D01*
X40049325Y-7685707D01*
X40144734Y-7677293D01*
X40232840Y-7652052D01*
X40309675Y-7613793D01*
X40371270Y-7566327D01*
X40421118Y-7510923D01*
X40462710Y-7448852D01*
X40494778Y-7384399D01*
X40516050Y-7321852D01*
X40527956Y-7260574D01*
X40531925Y-7199932D01*
X40526845Y-7138496D01*
X40511605Y-7074837D01*
X40478585Y-6989112D01*
X40451915Y-6945297D01*
X40420165Y-6905292D01*
X40375715Y-6888147D01*
X40304595Y-6916087D01*
X40251255Y-6960219D01*
X40233475Y-7001177D01*
X40258875Y-7062137D01*
X40275385Y-7084997D01*
X40295705Y-7135162D01*
X40305865Y-7209457D01*
X40291895Y-7291689D01*
X40249985Y-7370747D01*
X40169975Y-7435517D01*
X40115841Y-7454567D01*
X40055040Y-7460917D01*
X39994239Y-7454567D01*
X39940105Y-7435517D01*
X39861365Y-7372017D01*
X39818502Y-7291372D01*
X39804215Y-7209457D01*
X39815010Y-7129447D01*
X39847395Y-7067217D01*
X39875335Y-7002447D01*
X39858190Y-6960537D01*
X39806755Y-6913547D01*
X39736270Y-6886877D01*
X39675945Y-6919897D01*
X39653085Y-6955457D01*
X39635305Y-6985937D01*
X39597840Y-7079282D01*
X39584029Y-7140401D01*
X39579425Y-7200567D01*
X39308492Y-7200567D01*
X39308492Y-6691297D01*
X39588315Y-6691297D01*
X39596887Y-6756702D01*
X39622605Y-6790357D01*
X39656260Y-6802422D01*
X39700075Y-6804327D01*
X40406195Y-6804327D01*
X40470965Y-6796707D01*
X40507160Y-6763052D01*
X40519225Y-6692567D01*
X40519225Y-6235367D01*
X40506525Y-6169327D01*
X40478585Y-6147737D01*
X40424610Y-6141387D01*
X40370635Y-6147737D01*
X40340790Y-6173137D01*
X40331265Y-6234097D01*
X40331265Y-6579537D01*
X39701345Y-6579537D01*
X39635305Y-6585887D01*
X39600063Y-6620494D01*
X39588315Y-6691297D01*
X39308492Y-6691297D01*
X39308492Y-5477177D01*
X39573075Y-5477177D01*
X39625145Y-5554647D01*
X39677723Y-5599961D01*
X39735889Y-5650557D01*
X39799643Y-5706437D01*
X39868985Y-5767601D01*
X39943915Y-5834047D01*
X39701345Y-5834047D01*
X39635305Y-5840397D01*
X39600063Y-5875004D01*
X39588315Y-5945807D01*
X39596887Y-6011212D01*
X39622605Y-6044867D01*
X39656260Y-6056932D01*
X39700075Y-6058837D01*
X40406195Y-6058837D01*
X40470965Y-6051217D01*
X40507160Y-6017562D01*
X40519225Y-5947077D01*
X40510653Y-5881672D01*
X40484935Y-5848017D01*
X40451915Y-5835952D01*
X40407465Y-5834047D01*
X40159815Y-5834047D01*
X40478585Y-5554647D01*
X40531925Y-5476542D01*
X40488110Y-5393357D01*
X40411910Y-5342557D01*
X40332535Y-5384467D01*
X40279751Y-5432171D01*
X40215377Y-5494004D01*
X40139416Y-5569966D01*
X40051865Y-5660057D01*
X40003605Y-5609257D01*
X39933279Y-5536867D01*
X39870890Y-5474637D01*
X39816439Y-5422567D01*
X39769925Y-5380657D01*
X39693090Y-5342557D01*
X39616890Y-5393357D01*
X39573075Y-5477177D01*
X39308492Y-5477177D01*
X39308492Y-5342557D01*
X39308492Y-5342451D01*
X39312074Y-5269526D01*
X39322788Y-5197302D01*
X39340528Y-5126477D01*
X39365126Y-5057731D01*
X39396343Y-4991728D01*
X39433880Y-4929102D01*
X39477374Y-4870457D01*
X39526407Y-4816358D01*
X39580506Y-4767325D01*
X39639151Y-4723831D01*
X39701777Y-4686294D01*
X39767780Y-4655077D01*
X39836526Y-4630480D01*
X39907351Y-4612739D01*
X39979574Y-4602025D01*
X40052500Y-4598443D01*
X40125426Y-4602025D01*
X40197649Y-4612739D01*
X40268474Y-4630480D01*
X40337220Y-4655077D01*
X40403223Y-4686294D01*
X40465849Y-4723831D01*
X40524494Y-4767325D01*
X40578593Y-4816358D01*
X40627626Y-4870457D01*
X40671120Y-4929102D01*
X40708657Y-4991728D01*
X40739874Y-5057731D01*
X40764472Y-5126477D01*
X40782212Y-5197302D01*
X40792926Y-5269526D01*
X40796508Y-5342451D01*
X40796508Y-5342557D01*
X40796508Y-5476542D01*
G37*
G04 #@! TO.C,R6*
X32885000Y-44362742D02*
X32885000Y-44837258D01*
X31840000Y-44362742D02*
X31840000Y-44837258D01*
G04 #@! TO.C,R11*
X10410000Y-25537742D02*
X10410000Y-26012258D01*
X9365000Y-25537742D02*
X9365000Y-26012258D01*
G04 #@! TO.C,D0*
X27722500Y-8965000D02*
X26252500Y-8965000D01*
X26252500Y-8965000D02*
X26252500Y-11250000D01*
X27722500Y-11250000D02*
X27722500Y-8965000D01*
G04 #@! TO.C,R13*
X11550242Y-11552500D02*
X12024758Y-11552500D01*
X11550242Y-12597500D02*
X12024758Y-12597500D01*
G04 #@! TO.C,kibuzzard-6457AC2E*
G36*
X45199179Y-8183384D02*
G01*
X45275855Y-8238629D01*
X45326814Y-8316734D01*
X45343800Y-8403729D01*
X45343800Y-8526919D01*
X44863740Y-8526919D01*
X44863740Y-8404999D01*
X44881044Y-8314671D01*
X44932955Y-8236724D01*
X45010584Y-8182908D01*
X45105040Y-8164969D01*
X45199179Y-8183384D01*
G37*
G36*
X45847143Y-8407539D02*
G01*
X45847143Y-8966339D01*
X45847143Y-10123309D01*
X45847143Y-10591939D01*
X45847143Y-11104570D01*
X44357857Y-11104570D01*
X44357857Y-10591939D01*
X44357857Y-10114419D01*
X44622440Y-10114419D01*
X44630893Y-10207764D01*
X44656254Y-10294759D01*
X44698521Y-10375404D01*
X44757695Y-10449699D01*
X44829490Y-10511929D01*
X44909619Y-10556379D01*
X44998082Y-10583049D01*
X45094880Y-10591939D01*
X45192154Y-10583208D01*
X45282046Y-10557014D01*
X45364557Y-10513358D01*
X45439685Y-10452239D01*
X45502193Y-10379294D01*
X45546841Y-10300157D01*
X45573630Y-10214829D01*
X45582560Y-10123309D01*
X45575654Y-10023297D01*
X45554937Y-9936619D01*
X45520409Y-9863277D01*
X45472070Y-9803269D01*
X45394600Y-9767709D01*
X45115200Y-9767709D01*
X45044080Y-9780409D01*
X45008520Y-9864229D01*
X45008520Y-10087749D01*
X45019950Y-10148709D01*
X45047890Y-10169664D01*
X45101865Y-10175379D01*
X45155205Y-10170299D01*
X45185050Y-10148709D01*
X45195210Y-10092829D01*
X45195210Y-9992499D01*
X45333640Y-9992499D01*
X45350785Y-10051872D01*
X45356500Y-10118229D01*
X45337291Y-10209669D01*
X45279665Y-10290949D01*
X45224773Y-10333283D01*
X45162543Y-10358683D01*
X45092975Y-10367149D01*
X44993597Y-10348417D01*
X44915175Y-10292219D01*
X44864216Y-10211892D01*
X44847230Y-10120769D01*
X44855961Y-10052189D01*
X44882155Y-9993769D01*
X44917080Y-9916299D01*
X44900253Y-9873437D01*
X44849770Y-9826129D01*
X44778015Y-9796919D01*
X44721500Y-9831209D01*
X44666467Y-9921944D01*
X44633447Y-10016347D01*
X44622440Y-10114419D01*
X44357857Y-10114419D01*
X44357857Y-9555619D01*
X44640220Y-9555619D01*
X44647840Y-9617849D01*
X44677685Y-9654044D01*
X44748170Y-9666109D01*
X45456830Y-9666109D01*
X45501280Y-9664204D01*
X45535570Y-9652139D01*
X45561288Y-9619119D01*
X45569860Y-9555619D01*
X45561288Y-9490214D01*
X45535570Y-9456559D01*
X45502550Y-9444494D01*
X45458100Y-9442589D01*
X45040270Y-9442589D01*
X45086554Y-9407100D01*
X45147514Y-9360745D01*
X45223150Y-9303524D01*
X45313461Y-9235438D01*
X45418448Y-9156487D01*
X45538110Y-9066669D01*
X45562240Y-9034919D01*
X45569860Y-8966339D01*
X45561288Y-8900934D01*
X45535570Y-8867279D01*
X45502550Y-8855214D01*
X45458100Y-8853309D01*
X44753250Y-8853309D01*
X44688480Y-8860929D01*
X44661810Y-8876804D01*
X44646570Y-8909824D01*
X44640220Y-8968244D01*
X44647840Y-9028569D01*
X44677685Y-9064764D01*
X44748170Y-9076829D01*
X45177430Y-9076829D01*
X45131604Y-9111825D01*
X45072020Y-9156698D01*
X44998678Y-9211449D01*
X44911577Y-9276078D01*
X44810718Y-9350585D01*
X44696100Y-9434969D01*
X44663080Y-9464179D01*
X44647205Y-9495294D01*
X44640220Y-9555619D01*
X44357857Y-9555619D01*
X44357857Y-8638679D01*
X44637680Y-8638679D01*
X44646252Y-8704084D01*
X44671970Y-8737739D01*
X44704990Y-8749804D01*
X44749440Y-8751709D01*
X45455560Y-8751709D01*
X45536840Y-8736469D01*
X45560653Y-8702814D01*
X45568590Y-8639949D01*
X45568590Y-8407539D01*
X45559938Y-8313996D01*
X45533983Y-8227676D01*
X45490723Y-8148579D01*
X45430160Y-8076704D01*
X45357492Y-8016975D01*
X45277919Y-7974311D01*
X45191440Y-7948712D01*
X45098055Y-7940179D01*
X45005028Y-7948911D01*
X44919620Y-7975104D01*
X44841832Y-8018761D01*
X44771665Y-8079879D01*
X44713602Y-8152508D01*
X44672129Y-8230692D01*
X44647245Y-8314433D01*
X44638950Y-8403729D01*
X44637680Y-8638679D01*
X44357857Y-8638679D01*
X44357857Y-7940179D01*
X44357857Y-7940074D01*
X44361442Y-7867086D01*
X44372165Y-7794801D01*
X44389921Y-7723915D01*
X44414539Y-7655111D01*
X44445783Y-7589051D01*
X44483352Y-7526372D01*
X44526883Y-7467677D01*
X44575958Y-7413531D01*
X44630103Y-7364457D01*
X44688798Y-7320925D01*
X44751478Y-7283357D01*
X44817537Y-7252113D01*
X44886341Y-7227494D01*
X44957227Y-7209738D01*
X45029512Y-7199016D01*
X45102500Y-7195430D01*
X45175488Y-7199016D01*
X45247773Y-7209738D01*
X45318659Y-7227494D01*
X45387463Y-7252113D01*
X45453522Y-7283357D01*
X45516202Y-7320925D01*
X45574897Y-7364457D01*
X45629042Y-7413531D01*
X45678117Y-7467677D01*
X45721648Y-7526372D01*
X45759217Y-7589051D01*
X45790461Y-7655111D01*
X45815079Y-7723915D01*
X45832835Y-7794801D01*
X45843558Y-7867086D01*
X45847143Y-7940074D01*
X45847143Y-7940179D01*
X45847143Y-8407539D01*
G37*
G04 #@! TO.C,kibuzzard-645C1150*
G36*
X6385568Y-45283319D02*
G01*
X6407238Y-45366662D01*
X6404459Y-45406112D01*
X6392791Y-45436671D01*
X6363482Y-45460841D01*
X6308892Y-45468897D01*
X6253052Y-45463480D01*
X6219992Y-45447228D01*
X6203740Y-45415419D01*
X6198322Y-45363329D01*
X6204157Y-45310544D01*
X6221659Y-45281096D01*
X6306669Y-45261094D01*
X6385568Y-45283319D01*
G37*
G36*
X6385568Y-45637252D02*
G01*
X6401820Y-45669061D01*
X6407238Y-45721151D01*
X6404459Y-45760601D01*
X6392791Y-45791160D01*
X6363482Y-45815330D01*
X6308892Y-45823386D01*
X6253052Y-45817969D01*
X6219992Y-45801717D01*
X6203740Y-45769907D01*
X6198322Y-45717818D01*
X6204157Y-45665033D01*
X6221659Y-45635585D01*
X6306669Y-45615583D01*
X6385568Y-45637252D01*
G37*
G36*
X3918593Y-44970780D02*
G01*
X3946930Y-44993282D01*
X3957487Y-45022731D01*
X3959154Y-45061069D01*
X3957487Y-45099407D01*
X3947486Y-45128299D01*
X3918037Y-45151080D01*
X3861919Y-45157747D01*
X3805801Y-45151080D01*
X3776353Y-45127744D01*
X3766352Y-45098296D01*
X3764685Y-45059958D01*
X3766352Y-45021619D01*
X3775797Y-44993282D01*
X3805246Y-44970780D01*
X3862475Y-44963279D01*
X3918593Y-44970780D01*
G37*
G36*
X4745363Y-44970780D02*
G01*
X4773700Y-44993282D01*
X4784257Y-45022731D01*
X4785924Y-45061069D01*
X4784257Y-45099407D01*
X4774256Y-45128299D01*
X4744807Y-45151080D01*
X4688689Y-45157747D01*
X4632571Y-45151080D01*
X4603123Y-45127744D01*
X4593122Y-45098296D01*
X4591455Y-45059958D01*
X4593122Y-45021619D01*
X4602567Y-44993282D01*
X4632016Y-44970780D01*
X4689245Y-44963279D01*
X4745363Y-44970780D01*
G37*
G36*
X3938040Y-45256649D02*
G01*
X3958042Y-45304432D01*
X3959154Y-45336659D01*
X3959154Y-45725596D01*
X3957487Y-45763934D01*
X3946930Y-45793383D01*
X3918315Y-45815052D01*
X3861364Y-45822275D01*
X3804968Y-45814774D01*
X3775797Y-45792271D01*
X3766352Y-45763379D01*
X3764685Y-45724485D01*
X3764685Y-45334436D01*
X3766352Y-45296098D01*
X3775797Y-45266650D01*
X3805246Y-45244981D01*
X3862475Y-45237757D01*
X3938040Y-45256649D01*
G37*
G36*
X4764810Y-45256649D02*
G01*
X4784812Y-45304432D01*
X4785924Y-45336659D01*
X4785924Y-45725596D01*
X4784257Y-45763934D01*
X4773700Y-45793383D01*
X4745085Y-45815052D01*
X4688134Y-45822275D01*
X4631738Y-45814774D01*
X4602567Y-45792271D01*
X4593122Y-45763379D01*
X4591455Y-45724485D01*
X4591455Y-45334436D01*
X4593122Y-45296098D01*
X4602567Y-45266650D01*
X4632016Y-45244981D01*
X4689245Y-45237757D01*
X4764810Y-45256649D01*
G37*
G36*
X3190724Y-45240536D02*
G01*
X3220172Y-45285541D01*
X3365746Y-45565576D01*
X3511320Y-45285541D01*
X3529656Y-45254982D01*
X3549102Y-45236091D01*
X3584662Y-45226645D01*
X3645781Y-45249981D01*
X3689120Y-45285541D01*
X3703566Y-45323324D01*
X3681341Y-45384442D01*
X3451312Y-45778936D01*
X3415753Y-45812829D01*
X3367413Y-45827831D01*
X3321852Y-45816163D01*
X3291293Y-45792271D01*
X3281291Y-45780048D01*
X3050151Y-45384442D01*
X3027926Y-45324435D01*
X3042372Y-45285819D01*
X3085711Y-45249981D01*
X3152386Y-45225534D01*
X3190724Y-45240536D01*
G37*
G36*
X5091517Y-45823247D02*
G01*
X5021509Y-45796161D01*
X4958029Y-45751433D01*
X4905383Y-45689481D01*
X4869962Y-45614332D01*
X4858155Y-45530016D01*
X4858362Y-45528349D01*
X5054846Y-45528349D01*
X5063736Y-45575578D01*
X5090406Y-45609471D01*
X5162638Y-45636696D01*
X5235980Y-45608915D01*
X5263483Y-45574466D01*
X5272651Y-45526682D01*
X5264039Y-45479177D01*
X5238202Y-45445561D01*
X5163749Y-45418891D01*
X5089295Y-45446672D01*
X5063458Y-45480982D01*
X5054846Y-45528349D01*
X4858362Y-45528349D01*
X4868527Y-45446302D01*
X4899642Y-45372960D01*
X4951500Y-45309989D01*
X5016693Y-45261835D01*
X5087813Y-45232942D01*
X5164860Y-45223311D01*
X5241783Y-45232880D01*
X5312533Y-45261588D01*
X5377109Y-45309433D01*
X5428350Y-45372095D01*
X5459094Y-45445253D01*
X5469342Y-45528905D01*
X5457397Y-45615999D01*
X5421559Y-45692814D01*
X5368635Y-45755044D01*
X5305433Y-45798383D01*
X5235841Y-45823803D01*
X5163749Y-45832276D01*
X5162638Y-45832137D01*
X5091517Y-45823247D01*
G37*
G36*
X5937117Y-45246092D02*
G01*
X5998791Y-45274429D01*
X6052193Y-45321657D01*
X6093248Y-45382467D01*
X6117880Y-45451550D01*
X6126091Y-45528905D01*
X6126091Y-45724485D01*
X6124424Y-45762823D01*
X6114979Y-45791160D01*
X6085531Y-45813663D01*
X6028301Y-45821164D01*
X5966071Y-45810885D01*
X5937179Y-45780048D01*
X5930511Y-45723374D01*
X5930511Y-45527794D01*
X5904397Y-45456674D01*
X5834388Y-45431115D01*
X5763268Y-45457785D01*
X5736043Y-45527794D01*
X5736043Y-45724485D01*
X5734376Y-45762823D01*
X5723819Y-45791160D01*
X5695204Y-45813663D01*
X5638253Y-45821164D01*
X5581857Y-45813663D01*
X5552686Y-45791160D01*
X5543241Y-45761712D01*
X5541574Y-45723374D01*
X5541574Y-45329991D01*
X5543241Y-45292764D01*
X5553798Y-45264427D01*
X5582968Y-45243592D01*
X5639364Y-45236646D01*
X5694093Y-45243036D01*
X5722708Y-45262205D01*
X5733820Y-45307766D01*
X5753823Y-45285541D01*
X5783826Y-45262205D01*
X5867170Y-45236646D01*
X5937117Y-45246092D01*
G37*
G36*
X2611207Y-45593358D02*
G01*
X2647879Y-45645586D01*
X2721221Y-45666700D01*
X2778728Y-45663366D01*
X2822345Y-45653365D01*
X2834569Y-45648920D01*
X2879019Y-45636696D01*
X2940137Y-45686702D01*
X2954584Y-45737820D01*
X2939790Y-45781089D01*
X2895410Y-45811996D01*
X2821442Y-45830540D01*
X2717887Y-45836721D01*
X2640239Y-45829637D01*
X2571758Y-45808384D01*
X2514945Y-45775464D01*
X2472301Y-45733375D01*
X2433408Y-45671022D01*
X2410071Y-45603976D01*
X2402292Y-45532239D01*
X2406913Y-45492234D01*
X2608985Y-45492234D01*
X2749002Y-45492234D01*
X2791230Y-45456674D01*
X2771783Y-45415557D01*
X2716221Y-45400000D01*
X2644545Y-45429448D01*
X2608985Y-45492234D01*
X2406913Y-45492234D01*
X2412355Y-45445129D01*
X2442544Y-45370490D01*
X2492859Y-45308322D01*
X2558238Y-45261711D01*
X2633618Y-45233745D01*
X2718999Y-45224422D01*
X2791091Y-45231229D01*
X2852904Y-45251648D01*
X2904439Y-45285680D01*
X2945694Y-45333325D01*
X2974031Y-45393749D01*
X2983476Y-45459452D01*
X2975003Y-45518904D01*
X2949583Y-45560576D01*
X2874574Y-45593358D01*
X2749002Y-45593358D01*
X2611207Y-45593358D01*
G37*
G36*
X4372539Y-45234979D02*
G01*
X4454771Y-45263316D01*
X4493665Y-45307766D01*
X4469217Y-45373330D01*
X4419211Y-45412224D01*
X4369761Y-45395555D01*
X4291417Y-45378886D01*
X4225854Y-45403334D01*
X4244745Y-45430837D01*
X4301419Y-45446672D01*
X4373650Y-45461119D01*
X4443659Y-45488900D01*
X4497554Y-45542796D01*
X4513806Y-45585995D01*
X4519224Y-45638919D01*
X4513806Y-45692398D01*
X4497554Y-45737264D01*
X4436991Y-45797828D01*
X4385565Y-45816966D01*
X4326113Y-45828449D01*
X4258636Y-45832276D01*
X4188071Y-45825362D01*
X4119359Y-45804618D01*
X4052499Y-45770046D01*
X4031385Y-45727819D01*
X4041942Y-45691425D01*
X4073612Y-45640030D01*
X4113062Y-45621139D01*
X4186960Y-45648364D01*
X4271415Y-45675590D01*
X4322255Y-45668923D01*
X4339201Y-45648920D01*
X4320588Y-45630584D01*
X4264747Y-45617805D01*
X4195017Y-45599747D01*
X4125841Y-45565576D01*
X4072501Y-45502791D01*
X4056666Y-45455979D01*
X4051387Y-45401111D01*
X4061033Y-45337903D01*
X4089970Y-45288742D01*
X4138198Y-45253626D01*
X4205718Y-45232557D01*
X4292529Y-45225534D01*
X4372539Y-45234979D01*
G37*
G36*
X1914454Y-45723374D02*
G01*
X1912787Y-45761712D01*
X1902230Y-45791160D01*
X1872782Y-45813663D01*
X1815552Y-45821164D01*
X1753878Y-45810885D01*
X1724430Y-45780048D01*
X1717762Y-45722262D01*
X1717762Y-45204420D01*
X1914454Y-45204420D01*
X1914454Y-45401111D01*
X2056694Y-45401111D01*
X2121146Y-45376664D01*
X2153372Y-45303321D01*
X2121146Y-45229423D01*
X2054471Y-45204420D01*
X1914454Y-45204420D01*
X1717762Y-45204420D01*
X1717762Y-45105519D01*
X1719429Y-45067181D01*
X1729986Y-45037732D01*
X1759434Y-45015230D01*
X1816664Y-45007729D01*
X2056694Y-45007729D01*
X2121270Y-45015631D01*
X2184611Y-45039338D01*
X2246717Y-45078849D01*
X2287278Y-45119409D01*
X2320060Y-45172194D01*
X2341729Y-45234424D01*
X2348952Y-45303321D01*
X2339692Y-45382097D01*
X2311911Y-45450994D01*
X2265609Y-45510014D01*
X2284870Y-45555575D01*
X2310059Y-45613730D01*
X2341174Y-45684480D01*
X2357842Y-45742265D01*
X2340618Y-45781159D01*
X2288945Y-45813385D01*
X2231716Y-45828942D01*
X2196156Y-45818386D01*
X2175597Y-45796716D01*
X2161028Y-45764984D01*
X2132135Y-45697938D01*
X2088920Y-45595580D01*
X2054471Y-45597803D01*
X1914454Y-45597803D01*
X1914454Y-45723374D01*
G37*
G04 #@! TO.C,kibuzzard-645C104C*
G36*
X9804725Y-37492372D02*
G01*
X9846794Y-37524519D01*
X9861875Y-37567381D01*
X9864256Y-37622944D01*
X9864256Y-38357956D01*
X9873781Y-38430188D01*
X9915850Y-38445269D01*
X9959506Y-38447650D01*
X9986494Y-38461144D01*
X10018244Y-38573856D01*
X10010306Y-38654422D01*
X9986494Y-38696094D01*
X9916644Y-38712763D01*
X9789644Y-38705619D01*
X9688837Y-38677441D01*
X9630894Y-38624656D01*
X9597556Y-38523850D01*
X9586444Y-38377006D01*
X9586444Y-37621356D01*
X9588825Y-37566588D01*
X9602319Y-37524519D01*
X9644387Y-37492372D01*
X9726144Y-37481656D01*
X9804725Y-37492372D01*
G37*
G36*
X15191906Y-37871388D02*
G01*
X15247469Y-37884881D01*
X15297475Y-37917425D01*
X15317319Y-37991244D01*
X15287156Y-38102369D01*
X15199844Y-38162694D01*
X15145075Y-38149994D01*
X15076019Y-38137294D01*
X14995850Y-38167456D01*
X14958544Y-38240481D01*
X14958544Y-38573856D01*
X14956163Y-38628625D01*
X14941081Y-38670694D01*
X14898219Y-38701650D01*
X14817256Y-38711969D01*
X14707719Y-38684981D01*
X14679144Y-38616719D01*
X14679144Y-38570681D01*
X14679144Y-38013469D01*
X14681525Y-37958700D01*
X14695019Y-37918219D01*
X14737088Y-37886072D01*
X14818844Y-37875356D01*
X14896234Y-37884484D01*
X14937906Y-37911869D01*
X14955369Y-37964256D01*
X14978388Y-37937269D01*
X15042681Y-37894406D01*
X15129200Y-37867419D01*
X15191906Y-37871388D01*
G37*
G36*
X9372925Y-37484038D02*
G01*
X9414994Y-37499119D01*
X9447141Y-37539997D01*
X9457856Y-37621356D01*
X9430869Y-37730894D01*
X9361019Y-37759469D01*
X9316569Y-37759469D01*
X9257831Y-37799156D01*
X9257831Y-37886469D01*
X9361019Y-37876944D01*
X9447934Y-37892025D01*
X9489606Y-37937269D01*
X9499131Y-38016644D01*
X9488812Y-38095225D01*
X9456269Y-38137294D01*
X9359431Y-38156344D01*
X9257831Y-38149994D01*
X9257831Y-38575444D01*
X9242750Y-38665138D01*
X9196712Y-38704031D01*
X9116544Y-38713556D01*
X9037962Y-38703238D01*
X8995894Y-38669900D01*
X8980812Y-38627831D01*
X8978431Y-38572269D01*
X8978431Y-38151581D01*
X8921281Y-38151581D01*
X8862544Y-38132531D01*
X8832381Y-38016644D01*
X8855797Y-37919013D01*
X8926044Y-37886469D01*
X8978431Y-37886469D01*
X8978431Y-37802331D01*
X9000259Y-37685848D01*
X9065744Y-37580875D01*
X9132595Y-37525753D01*
X9216733Y-37492681D01*
X9318156Y-37481656D01*
X9372925Y-37484038D01*
G37*
G36*
X5155731Y-38713358D02*
G01*
X5055719Y-38674663D01*
X4965033Y-38610766D01*
X4889825Y-38522263D01*
X4839223Y-38414908D01*
X4822356Y-38294456D01*
X4822651Y-38292075D01*
X5103344Y-38292075D01*
X5116044Y-38359544D01*
X5154144Y-38407963D01*
X5257331Y-38446856D01*
X5362106Y-38407169D01*
X5401397Y-38357956D01*
X5414494Y-38289694D01*
X5402191Y-38221828D01*
X5365281Y-38173806D01*
X5258919Y-38135706D01*
X5152556Y-38175394D01*
X5115647Y-38224408D01*
X5103344Y-38292075D01*
X4822651Y-38292075D01*
X4837173Y-38174865D01*
X4881623Y-38070090D01*
X4955706Y-37980131D01*
X5048840Y-37911340D01*
X5150440Y-37870065D01*
X5260506Y-37856306D01*
X5370397Y-37869976D01*
X5471467Y-37910987D01*
X5563719Y-37979338D01*
X5636920Y-38068855D01*
X5680841Y-38173365D01*
X5695481Y-38292869D01*
X5678416Y-38417289D01*
X5627219Y-38527025D01*
X5551614Y-38615925D01*
X5461325Y-38677838D01*
X5361908Y-38714152D01*
X5258919Y-38726256D01*
X5257331Y-38726058D01*
X5155731Y-38713358D01*
G37*
G36*
X10883034Y-37884484D02*
G01*
X10924706Y-37916631D01*
X10938200Y-37958700D01*
X10940581Y-38013469D01*
X10940581Y-38575444D01*
X10938200Y-38628625D01*
X10923119Y-38669106D01*
X10880653Y-38700063D01*
X10800881Y-38710381D01*
X10722697Y-38700856D01*
X10681819Y-38672281D01*
X10665944Y-38607194D01*
X10637369Y-38638944D01*
X10594506Y-38673869D01*
X10477031Y-38708794D01*
X10376225Y-38695300D01*
X10287590Y-38654819D01*
X10211125Y-38587350D01*
X10152476Y-38500478D01*
X10117286Y-38401789D01*
X10105556Y-38291281D01*
X10105556Y-38013469D01*
X10107937Y-37957906D01*
X10121431Y-37916631D01*
X10163500Y-37884484D01*
X10245256Y-37873769D01*
X10333362Y-37888850D01*
X10375431Y-37934094D01*
X10384956Y-38015056D01*
X10384956Y-38292869D01*
X10422262Y-38394469D01*
X10522275Y-38430981D01*
X10623875Y-38392881D01*
X10662769Y-38292869D01*
X10662769Y-38011881D01*
X10665150Y-37957113D01*
X10680231Y-37915044D01*
X10721109Y-37884088D01*
X10802469Y-37873769D01*
X10883034Y-37884484D01*
G37*
G36*
X4105600Y-37495547D02*
G01*
X4146081Y-37527694D01*
X4161162Y-37569763D01*
X4163544Y-37624531D01*
X4163544Y-37975369D01*
X4249666Y-37902741D01*
X4349281Y-37878531D01*
X4449206Y-37891937D01*
X4537312Y-37932153D01*
X4613600Y-37999181D01*
X4672249Y-38085612D01*
X4707439Y-38184037D01*
X4719169Y-38294456D01*
X4719169Y-38573856D01*
X4716787Y-38628625D01*
X4701706Y-38670694D01*
X4660828Y-38701650D01*
X4579469Y-38711969D01*
X4500887Y-38701650D01*
X4458819Y-38670694D01*
X4443737Y-38627831D01*
X4441356Y-38570681D01*
X4441356Y-38292869D01*
X4404844Y-38191269D01*
X4311975Y-38154756D01*
X4212756Y-38188888D01*
X4163544Y-38265881D01*
X4163544Y-38573856D01*
X4161162Y-38628625D01*
X4146081Y-38670694D01*
X4105203Y-38701650D01*
X4023844Y-38711969D01*
X3943278Y-38701253D01*
X3901606Y-38669106D01*
X3888112Y-38627831D01*
X3885731Y-38572269D01*
X3885731Y-37622944D01*
X3888112Y-37568175D01*
X3901606Y-37527694D01*
X3943675Y-37495547D01*
X4025431Y-37484831D01*
X4105600Y-37495547D01*
G37*
G36*
X7498087Y-38708794D02*
G01*
X7408747Y-38694859D01*
X7323815Y-38653055D01*
X7243294Y-38583381D01*
X7178030Y-38495275D01*
X7138872Y-38398173D01*
X7126112Y-38294456D01*
X7403631Y-38294456D01*
X7444906Y-38388913D01*
X7544919Y-38430981D01*
X7642550Y-38388119D01*
X7681444Y-38293663D01*
X7644137Y-38197619D01*
X7544125Y-38153169D01*
X7442525Y-38197619D01*
X7403631Y-38294456D01*
X7126112Y-38294456D01*
X7125819Y-38292075D01*
X7138960Y-38186065D01*
X7178383Y-38089228D01*
X7244087Y-38001563D01*
X7325491Y-37932330D01*
X7412010Y-37890790D01*
X7503644Y-37876944D01*
X7602069Y-37895994D01*
X7663981Y-37931713D01*
X7692556Y-37964256D01*
X7728672Y-37897581D01*
X7817969Y-37875356D01*
X7910044Y-37884881D01*
X7952112Y-37918219D01*
X7966400Y-37960288D01*
X7968781Y-38015056D01*
X7968781Y-38570681D01*
X7966400Y-38625450D01*
X7952906Y-38667519D01*
X7914608Y-38698475D01*
X7844162Y-38708794D01*
X7728275Y-38687363D01*
X7694144Y-38624656D01*
X7615761Y-38687759D01*
X7544919Y-38700423D01*
X7498087Y-38708794D01*
G37*
G36*
X3505128Y-37604291D02*
G01*
X3547594Y-37648344D01*
X3555531Y-37729306D01*
X3555531Y-37884881D01*
X3661100Y-37878531D01*
X3715075Y-37880913D01*
X3757144Y-37895994D01*
X3788100Y-37936872D01*
X3798419Y-38018231D01*
X3787703Y-38098797D01*
X3755556Y-38140469D01*
X3713487Y-38153963D01*
X3658719Y-38156344D01*
X3555531Y-38149994D01*
X3555531Y-38369069D01*
X3569025Y-38430981D01*
X3619825Y-38450031D01*
X3676975Y-38452413D01*
X3719044Y-38467494D01*
X3755556Y-38573856D01*
X3744444Y-38654422D01*
X3711106Y-38696094D01*
X3669037Y-38709588D01*
X3615856Y-38711969D01*
X3514609Y-38703678D01*
X3431001Y-38678808D01*
X3365031Y-38637356D01*
X3317406Y-38576149D01*
X3288831Y-38492012D01*
X3279306Y-38384944D01*
X3279306Y-38149994D01*
X3214219Y-38154756D01*
X3156275Y-38127769D01*
X3133256Y-38035694D01*
X3141194Y-37941238D01*
X3163419Y-37899169D01*
X3226919Y-37878531D01*
X3279306Y-37884881D01*
X3279306Y-37721369D01*
X3281687Y-37667394D01*
X3296769Y-37629294D01*
X3337647Y-37599528D01*
X3419006Y-37589606D01*
X3505128Y-37604291D01*
G37*
G36*
X8559331Y-37872975D02*
G01*
X8676806Y-37913456D01*
X8732369Y-37976956D01*
X8697444Y-38070619D01*
X8626006Y-38126181D01*
X8555362Y-38102369D01*
X8443444Y-38078556D01*
X8349781Y-38113481D01*
X8376769Y-38152772D01*
X8457731Y-38175394D01*
X8560919Y-38196031D01*
X8660931Y-38235719D01*
X8737925Y-38312713D01*
X8761142Y-38374427D01*
X8768881Y-38450031D01*
X8761142Y-38526430D01*
X8737925Y-38590525D01*
X8651406Y-38677044D01*
X8577940Y-38704384D01*
X8493009Y-38720788D01*
X8396612Y-38726256D01*
X8295806Y-38716378D01*
X8197646Y-38686745D01*
X8102131Y-38637356D01*
X8071969Y-38577031D01*
X8087050Y-38525041D01*
X8132294Y-38451619D01*
X8188650Y-38424631D01*
X8294219Y-38463525D01*
X8414869Y-38502419D01*
X8487497Y-38492894D01*
X8511706Y-38464319D01*
X8485116Y-38438125D01*
X8405344Y-38419869D01*
X8305728Y-38394072D01*
X8206906Y-38345256D01*
X8130706Y-38255563D01*
X8108084Y-38188689D01*
X8100544Y-38110306D01*
X8114323Y-38020009D01*
X8155662Y-37949778D01*
X8224559Y-37899613D01*
X8321016Y-37869514D01*
X8445031Y-37859481D01*
X8559331Y-37872975D01*
G37*
G36*
X14044144Y-38384944D02*
G01*
X14096531Y-38459556D01*
X14201306Y-38489719D01*
X14283459Y-38484956D01*
X14345769Y-38470669D01*
X14363231Y-38464319D01*
X14426731Y-38446856D01*
X14514044Y-38518294D01*
X14534681Y-38591319D01*
X14513548Y-38653132D01*
X14450147Y-38697284D01*
X14344479Y-38723776D01*
X14196544Y-38732606D01*
X14085617Y-38722486D01*
X13987787Y-38692125D01*
X13906627Y-38645095D01*
X13845706Y-38584969D01*
X13790144Y-38495892D01*
X13756806Y-38400113D01*
X13745694Y-38297631D01*
X13752296Y-38240481D01*
X14040969Y-38240481D01*
X14240994Y-38240481D01*
X14301319Y-38189681D01*
X14273538Y-38130944D01*
X14194163Y-38108719D01*
X14091769Y-38150788D01*
X14040969Y-38240481D01*
X13752296Y-38240481D01*
X13760069Y-38173189D01*
X13803197Y-38066562D01*
X13875075Y-37977750D01*
X13968473Y-37911163D01*
X14076158Y-37871211D01*
X14198131Y-37857894D01*
X14301120Y-37867617D01*
X14389425Y-37896787D01*
X14463045Y-37945405D01*
X14521981Y-38013469D01*
X14562462Y-38099789D01*
X14575956Y-38193650D01*
X14563852Y-38278581D01*
X14527538Y-38338113D01*
X14420381Y-38384944D01*
X14240994Y-38384944D01*
X14044144Y-38384944D01*
G37*
G36*
X6840862Y-37898177D02*
G01*
X6936906Y-37971400D01*
X6984531Y-38050687D01*
X7013106Y-38158372D01*
X7022631Y-38294456D01*
X7022631Y-38572269D01*
X7020250Y-38627038D01*
X7005169Y-38669106D01*
X6964291Y-38701253D01*
X6882931Y-38711969D01*
X6802366Y-38700856D01*
X6760694Y-38667519D01*
X6747200Y-38625450D01*
X6744819Y-38570681D01*
X6744819Y-38292869D01*
X6720212Y-38189284D01*
X6646394Y-38154756D01*
X6570987Y-38191269D01*
X6551144Y-38294456D01*
X6551144Y-38572269D01*
X6548762Y-38627831D01*
X6533681Y-38669106D01*
X6491612Y-38701253D01*
X6409856Y-38711969D01*
X6329291Y-38700856D01*
X6287619Y-38667519D01*
X6274125Y-38625450D01*
X6271744Y-38570681D01*
X6271744Y-38292869D01*
X6247137Y-38189284D01*
X6173319Y-38154756D01*
X6101881Y-38189284D01*
X6078069Y-38292869D01*
X6078069Y-38573856D01*
X6075687Y-38628625D01*
X6060606Y-38670694D01*
X6017744Y-38701650D01*
X5936781Y-38711969D01*
X5856216Y-38701253D01*
X5814544Y-38669106D01*
X5801050Y-38627831D01*
X5798669Y-38572269D01*
X5798669Y-38013469D01*
X5801050Y-37958700D01*
X5816131Y-37918219D01*
X5856216Y-37886072D01*
X5928844Y-37875356D01*
X6044731Y-37903931D01*
X6071719Y-37986481D01*
X6153872Y-37901947D01*
X6251106Y-37873769D01*
X6349884Y-37889115D01*
X6430317Y-37935152D01*
X6492406Y-38011881D01*
X6534475Y-37961875D01*
X6613056Y-37904725D01*
X6724181Y-37873769D01*
X6840862Y-37898177D01*
G37*
G36*
X12109775Y-37898177D02*
G01*
X12205819Y-37971400D01*
X12253444Y-38050687D01*
X12282019Y-38158372D01*
X12291544Y-38294456D01*
X12291544Y-38572269D01*
X12289162Y-38627038D01*
X12274081Y-38669106D01*
X12233203Y-38701253D01*
X12151844Y-38711969D01*
X12071278Y-38700856D01*
X12029606Y-38667519D01*
X12016113Y-38625450D01*
X12013731Y-38570681D01*
X12013731Y-38292869D01*
X11989125Y-38189284D01*
X11915306Y-38154756D01*
X11839900Y-38191269D01*
X11820056Y-38294456D01*
X11820056Y-38572269D01*
X11817675Y-38627831D01*
X11802594Y-38669106D01*
X11760525Y-38701253D01*
X11678769Y-38711969D01*
X11598203Y-38700856D01*
X11556531Y-38667519D01*
X11543037Y-38625450D01*
X11540656Y-38570681D01*
X11540656Y-38292869D01*
X11516050Y-38189284D01*
X11442231Y-38154756D01*
X11370794Y-38189284D01*
X11346981Y-38292869D01*
X11346981Y-38573856D01*
X11344600Y-38628625D01*
X11329519Y-38670694D01*
X11286656Y-38701650D01*
X11205694Y-38711969D01*
X11125128Y-38701253D01*
X11083456Y-38669106D01*
X11069963Y-38627831D01*
X11067581Y-38572269D01*
X11067581Y-38013469D01*
X11069963Y-37958700D01*
X11085044Y-37918219D01*
X11125128Y-37886072D01*
X11197756Y-37875356D01*
X11313644Y-37903931D01*
X11340631Y-37986481D01*
X11422784Y-37901947D01*
X11520019Y-37873769D01*
X11618797Y-37889115D01*
X11699230Y-37935152D01*
X11761319Y-38011881D01*
X11803387Y-37961875D01*
X11881969Y-37904725D01*
X11993094Y-37873769D01*
X12109775Y-37898177D01*
G37*
G36*
X13460738Y-37898177D02*
G01*
X13556781Y-37971400D01*
X13604406Y-38050687D01*
X13632981Y-38158372D01*
X13642506Y-38294456D01*
X13642506Y-38572269D01*
X13640125Y-38627038D01*
X13625044Y-38669106D01*
X13584166Y-38701253D01*
X13502806Y-38711969D01*
X13422241Y-38700856D01*
X13380569Y-38667519D01*
X13367075Y-38625450D01*
X13364694Y-38570681D01*
X13364694Y-38292869D01*
X13340088Y-38189284D01*
X13266269Y-38154756D01*
X13190863Y-38191269D01*
X13171019Y-38294456D01*
X13171019Y-38572269D01*
X13168638Y-38627831D01*
X13153556Y-38669106D01*
X13111488Y-38701253D01*
X13029731Y-38711969D01*
X12949166Y-38700856D01*
X12907494Y-38667519D01*
X12894000Y-38625450D01*
X12891619Y-38570681D01*
X12891619Y-38292869D01*
X12867012Y-38189284D01*
X12793194Y-38154756D01*
X12721756Y-38189284D01*
X12697944Y-38292869D01*
X12697944Y-38573856D01*
X12695563Y-38628625D01*
X12680481Y-38670694D01*
X12637619Y-38701650D01*
X12556656Y-38711969D01*
X12476091Y-38701253D01*
X12434419Y-38669106D01*
X12420925Y-38627831D01*
X12418544Y-38572269D01*
X12418544Y-38013469D01*
X12420925Y-37958700D01*
X12436006Y-37918219D01*
X12476091Y-37886072D01*
X12548719Y-37875356D01*
X12664606Y-37903931D01*
X12691594Y-37986481D01*
X12773747Y-37901947D01*
X12870981Y-37873769D01*
X12969759Y-37889115D01*
X13050192Y-37935152D01*
X13112281Y-38011881D01*
X13154350Y-37961875D01*
X13232931Y-37904725D01*
X13344056Y-37873769D01*
X13460738Y-37898177D01*
G37*
G36*
X2269656Y-38559569D02*
G01*
X2182542Y-38539923D01*
X2105350Y-38480988D01*
X2051177Y-38394270D01*
X2033119Y-38291281D01*
X2036015Y-38269056D01*
X2236319Y-38269056D01*
X2261719Y-38331763D01*
X2328394Y-38357956D01*
X2402212Y-38327000D01*
X2439519Y-38257944D01*
X2439519Y-38248419D01*
X2416500Y-38184125D01*
X2349031Y-38156344D01*
X2272831Y-38187300D01*
X2236319Y-38257944D01*
X2236319Y-38269056D01*
X2036015Y-38269056D01*
X2044760Y-38201940D01*
X2079685Y-38122301D01*
X2137894Y-38052363D01*
X2240883Y-37979139D01*
X2340300Y-37954731D01*
X2423048Y-37970606D01*
X2476031Y-38018231D01*
X2506987Y-37969813D01*
X2583187Y-37953144D01*
X2656212Y-37969813D01*
X2676056Y-38007913D01*
X2672881Y-38054744D01*
X2618906Y-38461144D01*
X2607794Y-38545281D01*
X2619700Y-38571475D01*
X2657006Y-38578619D01*
X2706219Y-38572269D01*
X2760987Y-38546075D01*
X2815756Y-38494481D01*
X2858619Y-38405581D01*
X2872906Y-38291281D01*
X2862587Y-38174997D01*
X2831631Y-38080144D01*
X2782816Y-38004738D01*
X2718919Y-37946794D01*
X2614937Y-37892113D01*
X2497727Y-37859305D01*
X2367287Y-37848369D01*
X2238876Y-37861333D01*
X2127751Y-37900227D01*
X2033912Y-37965050D01*
X1962916Y-38052098D01*
X1920318Y-38157667D01*
X1906119Y-38281756D01*
X1917143Y-38406110D01*
X1950216Y-38512473D01*
X2005337Y-38600844D01*
X2083566Y-38666990D01*
X2185960Y-38706677D01*
X2312519Y-38719906D01*
X2342681Y-38719906D01*
X2395862Y-38738163D01*
X2410944Y-38805631D01*
X2403800Y-38876275D01*
X2379194Y-38905644D01*
X2310931Y-38918344D01*
X2178573Y-38907579D01*
X2060900Y-38875283D01*
X1957911Y-38821457D01*
X1869606Y-38746100D01*
X1798764Y-38652586D01*
X1748162Y-38544289D01*
X1717802Y-38421208D01*
X1707681Y-38283344D01*
X1717912Y-38159431D01*
X1748603Y-38045924D01*
X1799756Y-37942825D01*
X1867225Y-37853219D01*
X1946865Y-37780194D01*
X2038675Y-37723750D01*
X2138158Y-37683622D01*
X2240817Y-37659544D01*
X2346650Y-37651519D01*
X2450190Y-37655840D01*
X2545969Y-37668805D01*
X2633987Y-37690412D01*
X2753248Y-37738831D01*
X2858619Y-37806300D01*
X2946527Y-37895200D01*
X3013400Y-38007913D01*
X3044709Y-38092579D01*
X3063494Y-38180421D01*
X3069756Y-38271438D01*
X3060231Y-38399628D01*
X3031656Y-38506388D01*
X2987603Y-38592708D01*
X2931644Y-38659581D01*
X2845213Y-38724845D01*
X2753138Y-38764003D01*
X2655419Y-38777056D01*
X2559375Y-38761181D01*
X2480794Y-38713556D01*
X2428406Y-38638547D01*
X2410944Y-38540519D01*
X2414119Y-38502419D01*
X2351809Y-38545281D01*
X2328394Y-38549354D01*
X2269656Y-38559569D01*
G37*
G04 #@! TO.C,kibuzzard-64945DE3*
G36*
X2451128Y-40551876D02*
G01*
X2479465Y-40574379D01*
X2490022Y-40603827D01*
X2491689Y-40642165D01*
X2490022Y-40680503D01*
X2480021Y-40709396D01*
X2450572Y-40732176D01*
X2394454Y-40738844D01*
X2338336Y-40732176D01*
X2308888Y-40708840D01*
X2298887Y-40679392D01*
X2297220Y-40641054D01*
X2298887Y-40602716D01*
X2308332Y-40574379D01*
X2337781Y-40551876D01*
X2395010Y-40544375D01*
X2451128Y-40551876D01*
G37*
G36*
X5219391Y-41202513D02*
G01*
X5255367Y-41220015D01*
X5274259Y-41297802D01*
X5274259Y-41302247D01*
X5272592Y-41341697D01*
X5260924Y-41372256D01*
X5231615Y-41396426D01*
X5177024Y-41404483D01*
X5121184Y-41399204D01*
X5088124Y-41383369D01*
X5066455Y-41303359D01*
X5066455Y-41298914D01*
X5068122Y-41260020D01*
X5078679Y-41230016D01*
X5107988Y-41205013D01*
X5162578Y-41196679D01*
X5219391Y-41202513D01*
G37*
G36*
X2470575Y-40837745D02*
G01*
X2490577Y-40885529D01*
X2491689Y-40917755D01*
X2491689Y-41306692D01*
X2490022Y-41345031D01*
X2479465Y-41374479D01*
X2450850Y-41396148D01*
X2393899Y-41403371D01*
X2337503Y-41395870D01*
X2308332Y-41373368D01*
X2298887Y-41344475D01*
X2297220Y-41305581D01*
X2297220Y-40915532D01*
X2298887Y-40877194D01*
X2308332Y-40847746D01*
X2337781Y-40826077D01*
X2395010Y-40818854D01*
X2470575Y-40837745D01*
G37*
G36*
X5712091Y-40822743D02*
G01*
X5770987Y-40845524D01*
X5788767Y-40856636D01*
X5819882Y-40877750D01*
X5848775Y-40928312D01*
X5825439Y-40992209D01*
X5786267Y-41038048D01*
X5748762Y-41053327D01*
X5688755Y-41028880D01*
X5631526Y-41009989D01*
X5562072Y-41036659D01*
X5529846Y-41110557D01*
X5560961Y-41183899D01*
X5627081Y-41210014D01*
X5692644Y-41189456D01*
X5742095Y-41168897D01*
X5779044Y-41183622D01*
X5823216Y-41227794D01*
X5848775Y-41285579D01*
X5833495Y-41326417D01*
X5787656Y-41364478D01*
X5717092Y-41397815D01*
X5632081Y-41408928D01*
X5564048Y-41400655D01*
X5497743Y-41375837D01*
X5433167Y-41334474D01*
X5391773Y-41292941D01*
X5358714Y-41239462D01*
X5337044Y-41176954D01*
X5329821Y-41108334D01*
X5337044Y-41039993D01*
X5358714Y-40978318D01*
X5391773Y-40925673D01*
X5433167Y-40884417D01*
X5496015Y-40843672D01*
X5561579Y-40819224D01*
X5629859Y-40811075D01*
X5712091Y-40822743D01*
G37*
G36*
X4296081Y-40824132D02*
G01*
X4325251Y-40846635D01*
X4334697Y-40876083D01*
X4336364Y-40914421D01*
X4336364Y-41307804D01*
X4334697Y-41345031D01*
X4324140Y-41373368D01*
X4294414Y-41395037D01*
X4238574Y-41402260D01*
X4183845Y-41395593D01*
X4155230Y-41375590D01*
X4144117Y-41330029D01*
X4124115Y-41352254D01*
X4094111Y-41376701D01*
X4011879Y-41401149D01*
X3941314Y-41391703D01*
X3879270Y-41363366D01*
X3825744Y-41316138D01*
X3784690Y-41255328D01*
X3760057Y-41186245D01*
X3751846Y-41108890D01*
X3751846Y-40914421D01*
X3753513Y-40875527D01*
X3762959Y-40846635D01*
X3792407Y-40824132D01*
X3849636Y-40816631D01*
X3911311Y-40827188D01*
X3940759Y-40858859D01*
X3947426Y-40915532D01*
X3947426Y-41110001D01*
X3973541Y-41181121D01*
X4043549Y-41206680D01*
X4114669Y-41180010D01*
X4141895Y-41110001D01*
X4141895Y-40913310D01*
X4143562Y-40874972D01*
X4154119Y-40845524D01*
X4182733Y-40823854D01*
X4239685Y-40816631D01*
X4296081Y-40824132D01*
G37*
G36*
X6137700Y-41404344D02*
G01*
X6067691Y-41377257D01*
X6004211Y-41332529D01*
X5951566Y-41270577D01*
X5916145Y-41195429D01*
X5904337Y-41111112D01*
X5904543Y-41109446D01*
X6101029Y-41109446D01*
X6109919Y-41156674D01*
X6136589Y-41190567D01*
X6208820Y-41217793D01*
X6282163Y-41190011D01*
X6309666Y-41155562D01*
X6318834Y-41107779D01*
X6310222Y-41060273D01*
X6284385Y-41026657D01*
X6209931Y-40999987D01*
X6135477Y-41027769D01*
X6109641Y-41062079D01*
X6101029Y-41109446D01*
X5904543Y-41109446D01*
X5914709Y-41027398D01*
X5945824Y-40954056D01*
X5997682Y-40891085D01*
X6062876Y-40842931D01*
X6133996Y-40814038D01*
X6211043Y-40804407D01*
X6287966Y-40813977D01*
X6358715Y-40842684D01*
X6423291Y-40890529D01*
X6474532Y-40953192D01*
X6505277Y-41026349D01*
X6515525Y-41110001D01*
X6503579Y-41197095D01*
X6467741Y-41273911D01*
X6414818Y-41336141D01*
X6351616Y-41379479D01*
X6282024Y-41404899D01*
X6209931Y-41413373D01*
X6208820Y-41413234D01*
X6137700Y-41404344D01*
G37*
G36*
X3233448Y-40551876D02*
G01*
X3261785Y-40574379D01*
X3272342Y-40603827D01*
X3274009Y-40642165D01*
X3274009Y-40887751D01*
X3334294Y-40836912D01*
X3404025Y-40819965D01*
X3473972Y-40829349D01*
X3535646Y-40857501D01*
X3589048Y-40904420D01*
X3630103Y-40964921D01*
X3654735Y-41033819D01*
X3662946Y-41111112D01*
X3662946Y-41306692D01*
X3661279Y-41345031D01*
X3650722Y-41374479D01*
X3622108Y-41396148D01*
X3565156Y-41403371D01*
X3510149Y-41396148D01*
X3480701Y-41374479D01*
X3470144Y-41344475D01*
X3468477Y-41304470D01*
X3468477Y-41110001D01*
X3442919Y-41038881D01*
X3377911Y-41013323D01*
X3308457Y-41037214D01*
X3274009Y-41091110D01*
X3274009Y-41306692D01*
X3272342Y-41345031D01*
X3261785Y-41374479D01*
X3233170Y-41396148D01*
X3176219Y-41403371D01*
X3119823Y-41395870D01*
X3090652Y-41373368D01*
X3081207Y-41344475D01*
X3079540Y-41305581D01*
X3079540Y-40641054D01*
X3081207Y-40602716D01*
X3090652Y-40574379D01*
X3120101Y-40551876D01*
X3177330Y-40544375D01*
X3233448Y-40551876D01*
G37*
G36*
X2813118Y-40627997D02*
G01*
X2842844Y-40658834D01*
X2848400Y-40715507D01*
X2848400Y-40824410D01*
X2922298Y-40819965D01*
X2960081Y-40821632D01*
X2989529Y-40832189D01*
X3011198Y-40860803D01*
X3018421Y-40917755D01*
X3010920Y-40974151D01*
X2988417Y-41003321D01*
X2958969Y-41012767D01*
X2920631Y-41014434D01*
X2848400Y-41009989D01*
X2848400Y-41163341D01*
X2857846Y-41206680D01*
X2893406Y-41220015D01*
X2933411Y-41221682D01*
X2962859Y-41232239D01*
X2988417Y-41306692D01*
X2980639Y-41363088D01*
X2957302Y-41392259D01*
X2927854Y-41401704D01*
X2890627Y-41403371D01*
X2819754Y-41397568D01*
X2761229Y-41380158D01*
X2715050Y-41351143D01*
X2681712Y-41308298D01*
X2661710Y-41249401D01*
X2655042Y-41174454D01*
X2655042Y-41009989D01*
X2609481Y-41013323D01*
X2568921Y-40994431D01*
X2552807Y-40929979D01*
X2558364Y-40863859D01*
X2573921Y-40834411D01*
X2618371Y-40819965D01*
X2655042Y-40824410D01*
X2655042Y-40709951D01*
X2656709Y-40672169D01*
X2667266Y-40645499D01*
X2695881Y-40624663D01*
X2752832Y-40617717D01*
X2813118Y-40627997D01*
G37*
G36*
X4671128Y-41387814D02*
G01*
X4617510Y-41347809D01*
X4589173Y-41388647D01*
X4521942Y-41402260D01*
X4465547Y-41394759D01*
X4436376Y-41372256D01*
X4426931Y-41342808D01*
X4425264Y-41304470D01*
X4425264Y-41111668D01*
X4621955Y-41111668D01*
X4649181Y-41177787D01*
X4717522Y-41207791D01*
X4787531Y-41177787D01*
X4816424Y-41111112D01*
X4789754Y-41043882D01*
X4718634Y-41013323D01*
X4648069Y-41044438D01*
X4621955Y-41111668D01*
X4425264Y-41111668D01*
X4425264Y-40641054D01*
X4426931Y-40602716D01*
X4436376Y-40574379D01*
X4465824Y-40551876D01*
X4523054Y-40544375D01*
X4579172Y-40551876D01*
X4607509Y-40574379D01*
X4618066Y-40603827D01*
X4619732Y-40642165D01*
X4619732Y-40873305D01*
X4673628Y-40832467D01*
X4746415Y-40818854D01*
X4810559Y-40828608D01*
X4871122Y-40857871D01*
X4928104Y-40906642D01*
X4974098Y-40968317D01*
X5001694Y-41036288D01*
X5010892Y-41110557D01*
X5001756Y-41184764D01*
X4974345Y-41252550D01*
X4928660Y-41313916D01*
X4872480Y-41362378D01*
X4813584Y-41391456D01*
X4751971Y-41401149D01*
X4717522Y-41395466D01*
X4671128Y-41387814D01*
G37*
G36*
X1883835Y-41385591D02*
G01*
X1823642Y-41376146D01*
X1766042Y-41347809D01*
X1711036Y-41300581D01*
X1666277Y-41240758D01*
X1639422Y-41174639D01*
X1630539Y-41102778D01*
X1820494Y-41102778D01*
X1848831Y-41167786D01*
X1917728Y-41196679D01*
X1984959Y-41167231D01*
X2011629Y-41102778D01*
X1986070Y-41037214D01*
X1917172Y-41006655D01*
X1847164Y-41036659D01*
X1820494Y-41102778D01*
X1630539Y-41102778D01*
X1630470Y-41102222D01*
X1639483Y-41029744D01*
X1666524Y-40963440D01*
X1711591Y-40903309D01*
X1767401Y-40855772D01*
X1826667Y-40827250D01*
X1889391Y-40817742D01*
X1958289Y-40831633D01*
X2001072Y-40857192D01*
X2019407Y-40878861D01*
X2042188Y-40831633D01*
X2104974Y-40815520D01*
X2168315Y-40822187D01*
X2196652Y-40844968D01*
X2206653Y-40873305D01*
X2208320Y-40911087D01*
X2208320Y-41371145D01*
X2198442Y-41450846D01*
X2168809Y-41519559D01*
X2119420Y-41577282D01*
X2057684Y-41620806D01*
X1991009Y-41646920D01*
X1919395Y-41655625D01*
X1836885Y-41645346D01*
X1758264Y-41614509D01*
X1700757Y-41575337D01*
X1681587Y-41540055D01*
X1714925Y-41463379D01*
X1747707Y-41431153D01*
X1774932Y-41422263D01*
X1807159Y-41435598D01*
X1862721Y-41466435D01*
X1922729Y-41476714D01*
X1991626Y-41443376D01*
X2018296Y-41363366D01*
X2018296Y-41330029D01*
X1963567Y-41371701D01*
X1917728Y-41379687D01*
X1883835Y-41385591D01*
G37*
G36*
X7317292Y-40833717D02*
G01*
X7384523Y-40884973D01*
X7417860Y-40940474D01*
X7437863Y-41015854D01*
X7444530Y-41111112D01*
X7444530Y-41305581D01*
X7442863Y-41343919D01*
X7432306Y-41373368D01*
X7403692Y-41395870D01*
X7346740Y-41403371D01*
X7290344Y-41395593D01*
X7261174Y-41372256D01*
X7251728Y-41342808D01*
X7250061Y-41304470D01*
X7250061Y-41110001D01*
X7232837Y-41037492D01*
X7181164Y-41013323D01*
X7128379Y-41038881D01*
X7114489Y-41111112D01*
X7114489Y-41305581D01*
X7112822Y-41344475D01*
X7102265Y-41373368D01*
X7072817Y-41395870D01*
X7015588Y-41403371D01*
X6959192Y-41395593D01*
X6930021Y-41372256D01*
X6920576Y-41342808D01*
X6918909Y-41304470D01*
X6918909Y-41110001D01*
X6901684Y-41037492D01*
X6850011Y-41013323D01*
X6800005Y-41037492D01*
X6783336Y-41110001D01*
X6783336Y-41306692D01*
X6781669Y-41345031D01*
X6771113Y-41374479D01*
X6741109Y-41396148D01*
X6684435Y-41403371D01*
X6628039Y-41395870D01*
X6598869Y-41373368D01*
X6589423Y-41344475D01*
X6587756Y-41305581D01*
X6587756Y-40914421D01*
X6589423Y-40876083D01*
X6599980Y-40847746D01*
X6628039Y-40825243D01*
X6678879Y-40817742D01*
X6760000Y-40837745D01*
X6778891Y-40895530D01*
X6836398Y-40836356D01*
X6904463Y-40816631D01*
X6973607Y-40827373D01*
X7029910Y-40859600D01*
X7073373Y-40913310D01*
X7102821Y-40878306D01*
X7157828Y-40838301D01*
X7235615Y-40816631D01*
X7317292Y-40833717D01*
G37*
G04 #@! TO.C,C16*
X36128080Y-17885000D02*
X35846920Y-17885000D01*
X36128080Y-16865000D02*
X35846920Y-16865000D01*
G04 #@! TO.C,kibuzzard-647C8676*
G36*
X43787989Y-28993389D02*
G01*
X43864665Y-29048634D01*
X43915624Y-29126739D01*
X43932610Y-29213734D01*
X43932610Y-29336924D01*
X43452550Y-29336924D01*
X43452550Y-29215004D01*
X43469854Y-29124676D01*
X43521765Y-29046729D01*
X43599394Y-28992913D01*
X43693850Y-28974974D01*
X43787989Y-28993389D01*
G37*
G36*
X44425793Y-28078354D02*
G01*
X44425793Y-29217544D01*
X44425793Y-29561714D01*
X44425793Y-30074345D01*
X42949207Y-30074345D01*
X42949207Y-29561714D01*
X42949207Y-29448684D01*
X43226490Y-29448684D01*
X43235062Y-29514089D01*
X43260780Y-29547744D01*
X43293800Y-29559809D01*
X43338250Y-29561714D01*
X44044370Y-29561714D01*
X44125650Y-29546474D01*
X44149463Y-29512819D01*
X44157400Y-29449954D01*
X44157400Y-29217544D01*
X44148748Y-29124001D01*
X44122793Y-29037681D01*
X44079533Y-28958584D01*
X44018970Y-28886709D01*
X43946302Y-28826980D01*
X43866729Y-28784316D01*
X43780250Y-28758717D01*
X43686865Y-28750184D01*
X43593838Y-28758916D01*
X43508430Y-28785109D01*
X43430642Y-28828766D01*
X43360475Y-28889884D01*
X43302412Y-28962513D01*
X43260939Y-29040697D01*
X43236055Y-29124438D01*
X43227760Y-29213734D01*
X43226490Y-29448684D01*
X42949207Y-29448684D01*
X42949207Y-28344419D01*
X43213790Y-28344419D01*
X43225432Y-28439952D01*
X43260357Y-28522502D01*
X43318565Y-28592069D01*
X43391449Y-28644633D01*
X43470401Y-28676172D01*
X43555420Y-28686684D01*
X43620190Y-28680334D01*
X43656385Y-28645727D01*
X43668450Y-28574924D01*
X43660830Y-28510154D01*
X43637970Y-28475864D01*
X43606220Y-28463799D01*
X43564310Y-28461894D01*
X43556690Y-28461894D01*
X43527480Y-28456814D01*
X43468425Y-28423159D01*
X43438580Y-28352674D01*
X43450010Y-28289174D01*
X43474775Y-28255519D01*
X43509065Y-28235834D01*
X43541450Y-28226944D01*
X43597013Y-28238851D01*
X43649400Y-28274569D01*
X43697501Y-28327116D01*
X43740205Y-28389504D01*
X43780527Y-28456814D01*
X43821485Y-28524124D01*
X43866888Y-28586513D01*
X43920545Y-28639059D01*
X43981029Y-28674778D01*
X44046910Y-28686684D01*
X44126920Y-28653664D01*
X44161210Y-28574924D01*
X44161210Y-28078354D01*
X44145970Y-27999614D01*
X44112950Y-27972309D01*
X44048815Y-27964054D01*
X43984045Y-27971674D01*
X43947215Y-28001519D01*
X43935150Y-28075814D01*
X43935150Y-28308224D01*
X43928800Y-28308224D01*
X43916100Y-28276474D01*
X43873238Y-28197734D01*
X43803070Y-28108834D01*
X43757350Y-28067559D01*
X43698930Y-28032634D01*
X43632255Y-28008822D01*
X43561770Y-28000884D01*
X43474493Y-28011468D01*
X43393848Y-28043218D01*
X43319835Y-28096134D01*
X43260921Y-28166055D01*
X43225573Y-28248817D01*
X43213790Y-28344419D01*
X42949207Y-28344419D01*
X42949207Y-27964054D01*
X42949207Y-27963949D01*
X42952762Y-27891583D01*
X42963393Y-27819915D01*
X42980997Y-27749633D01*
X43005406Y-27681416D01*
X43036383Y-27615920D01*
X43073632Y-27553775D01*
X43116792Y-27495580D01*
X43165448Y-27441896D01*
X43219132Y-27393240D01*
X43277326Y-27350080D01*
X43339471Y-27312832D01*
X43404967Y-27281855D01*
X43473185Y-27257446D01*
X43543466Y-27239841D01*
X43615135Y-27229210D01*
X43687500Y-27225655D01*
X43759865Y-27229210D01*
X43831534Y-27239841D01*
X43901815Y-27257446D01*
X43970033Y-27281855D01*
X44035529Y-27312832D01*
X44097674Y-27350080D01*
X44155868Y-27393240D01*
X44209552Y-27441896D01*
X44258208Y-27495580D01*
X44301368Y-27553775D01*
X44338617Y-27615920D01*
X44369594Y-27681416D01*
X44394003Y-27749633D01*
X44411607Y-27819915D01*
X44422238Y-27891583D01*
X44425793Y-27963949D01*
X44425793Y-27964054D01*
X44425793Y-28078354D01*
G37*
G04 #@! TO.C,D1*
X44428750Y-21977500D02*
X42958750Y-21977500D01*
X42958750Y-21977500D02*
X42958750Y-24262500D01*
X44428750Y-24262500D02*
X44428750Y-21977500D01*
G04 #@! TO.C,C21*
X34046920Y-33090000D02*
X34328080Y-33090000D01*
X34046920Y-34110000D02*
X34328080Y-34110000D01*
G04 #@! TO.C,U5*
X31387500Y-24275000D02*
X30737500Y-24275000D01*
X24087500Y-23625000D02*
X24087500Y-24562500D01*
X31387500Y-23625000D02*
X31387500Y-24275000D01*
X24087500Y-17625000D02*
X24087500Y-16975000D01*
X31387500Y-17625000D02*
X31387500Y-16975000D01*
X24087500Y-16975000D02*
X24737500Y-16975000D01*
X31387500Y-16975000D02*
X30737500Y-16975000D01*
G04 #@! TO.C,C18*
X11277500Y-21415580D02*
X11277500Y-21134420D01*
X12297500Y-21415580D02*
X12297500Y-21134420D01*
G04 #@! TO.C,SW6*
X7337500Y-24450000D02*
X7337500Y-22450000D01*
X6287500Y-25750000D02*
X5837500Y-26200000D01*
X6287500Y-21150000D02*
X5837500Y-20700000D01*
X5837500Y-26200000D02*
X3337500Y-26200000D01*
X5837500Y-20700000D02*
X3337500Y-20700000D01*
X2887500Y-25750000D02*
X3337500Y-26200000D01*
X2887500Y-21150000D02*
X3337500Y-20700000D01*
X1837500Y-24450000D02*
X1837500Y-22450000D01*
G04 #@! TO.C,U1*
X23147500Y-9775000D02*
X23147500Y-7975000D01*
X23147500Y-9775000D02*
X23147500Y-10575000D01*
X20027500Y-9775000D02*
X20027500Y-8975000D01*
X20027500Y-9775000D02*
X20027500Y-10575000D01*
G04 #@! TO.C,C30*
X19846920Y-46840000D02*
X20128080Y-46840000D01*
X19846920Y-47860000D02*
X20128080Y-47860000D01*
G04 #@! TO.C,U3*
X23877500Y-37660000D02*
X23877500Y-37185000D01*
X24352500Y-31440000D02*
X23877500Y-31440000D01*
X24352500Y-37660000D02*
X23877500Y-37660000D01*
X29622500Y-31440000D02*
X30097500Y-31440000D01*
X29622500Y-37660000D02*
X30097500Y-37660000D01*
X30097500Y-31440000D02*
X30097500Y-31915000D01*
X30097500Y-37660000D02*
X30097500Y-37185000D01*
G04 #@! TO.C,C6*
X19828080Y-20185000D02*
X19546920Y-20185000D01*
X19828080Y-19165000D02*
X19546920Y-19165000D01*
G04 #@! TO.C,C7*
X24177500Y-13440580D02*
X24177500Y-13159420D01*
X25197500Y-13440580D02*
X25197500Y-13159420D01*
G04 #@! TO.C,C24*
X30497500Y-28259420D02*
X30497500Y-28540580D01*
X29477500Y-28259420D02*
X29477500Y-28540580D01*
G04 #@! TO.C,C15*
X35846920Y-24865000D02*
X36128080Y-24865000D01*
X35846920Y-25885000D02*
X36128080Y-25885000D01*
G04 #@! TO.C,R9*
X9365000Y-29312258D02*
X9365000Y-28837742D01*
X10410000Y-29312258D02*
X10410000Y-28837742D01*
G04 #@! TO.C,R5*
X22185000Y-44362742D02*
X22185000Y-44837258D01*
X21140000Y-44362742D02*
X21140000Y-44837258D01*
G04 #@! TO.C,kibuzzard-645C11AA*
G36*
X11646881Y-47125016D02*
G01*
X11681012Y-47164306D01*
X11690537Y-47237331D01*
X11681806Y-47309562D01*
X11654025Y-47348456D01*
X11574650Y-47362744D01*
X11196825Y-47362744D01*
X11125784Y-47349250D01*
X11090462Y-47308769D01*
X11082525Y-47235744D01*
X11092050Y-47164306D01*
X11122212Y-47126206D01*
X11198412Y-47111919D01*
X11576237Y-47111919D01*
X11646881Y-47125016D01*
G37*
G36*
X14448819Y-47125016D02*
G01*
X14482950Y-47164306D01*
X14492475Y-47237331D01*
X14483744Y-47309562D01*
X14455962Y-47348456D01*
X14376588Y-47362744D01*
X13998763Y-47362744D01*
X13927722Y-47349250D01*
X13892400Y-47308769D01*
X13884462Y-47235744D01*
X13893987Y-47164306D01*
X13924150Y-47126206D01*
X14000350Y-47111919D01*
X14378175Y-47111919D01*
X14448819Y-47125016D01*
G37*
G36*
X13743175Y-46441994D02*
G01*
X13801516Y-46495175D01*
X13820962Y-46546769D01*
X13784450Y-46630906D01*
X13441550Y-47143669D01*
X13441550Y-47446881D01*
X13439169Y-47501650D01*
X13424087Y-47543719D01*
X13381225Y-47577056D01*
X13300262Y-47586581D01*
X13219300Y-47577056D01*
X13176437Y-47542925D01*
X13161356Y-47500062D01*
X13158975Y-47443706D01*
X13158975Y-47143669D01*
X12816075Y-46630906D01*
X12779562Y-46546769D01*
X12797025Y-46496961D01*
X12849412Y-46449138D01*
X12949425Y-46402306D01*
X12997050Y-46415006D01*
X13054200Y-46480094D01*
X13300262Y-46873794D01*
X13546325Y-46480094D01*
X13598712Y-46417387D01*
X13650306Y-46402306D01*
X13743175Y-46441994D01*
G37*
G36*
X15845025Y-47335756D02*
G01*
X15762475Y-47507206D01*
X15737869Y-47553244D01*
X15709294Y-47582613D01*
X15658494Y-47597694D01*
X15573562Y-47570706D01*
X15504506Y-47523081D01*
X15481487Y-47469106D01*
X15508475Y-47388144D01*
X15647261Y-47100806D01*
X15959325Y-47100806D01*
X16170462Y-47100806D01*
X16064100Y-46883319D01*
X15959325Y-47100806D01*
X15647261Y-47100806D01*
X15937100Y-46500731D01*
X15990281Y-46441994D01*
X16065687Y-46419769D01*
X16140300Y-46440406D01*
X16192687Y-46502319D01*
X16621312Y-47388144D01*
X16648300Y-47469106D01*
X16625281Y-47523478D01*
X16556225Y-47572294D01*
X16471294Y-47599281D01*
X16420494Y-47584994D01*
X16391919Y-47554831D01*
X16367312Y-47507206D01*
X16284763Y-47335756D01*
X15959325Y-47335756D01*
X15845025Y-47335756D01*
G37*
G36*
X11933425Y-47581819D02*
G01*
X11845319Y-47566737D01*
X11803250Y-47521494D01*
X11793725Y-47438944D01*
X11793725Y-46699169D01*
X12074712Y-46699169D01*
X12074712Y-47300831D01*
X12335062Y-47300831D01*
X12410072Y-47273844D01*
X12435075Y-47192881D01*
X12426344Y-47132556D01*
X12396975Y-47100806D01*
X12308075Y-47088106D01*
X12222350Y-47065881D01*
X12193775Y-46974600D01*
X12223144Y-46883319D01*
X12320775Y-46861094D01*
X12396975Y-46827756D01*
X12401737Y-46770606D01*
X12375544Y-46715044D01*
X12296962Y-46699169D01*
X12074712Y-46699169D01*
X11793725Y-46699169D01*
X11793725Y-46557881D01*
X11796106Y-46502319D01*
X11811187Y-46461044D01*
X11853256Y-46428897D01*
X11935012Y-46418181D01*
X12335062Y-46418181D01*
X12427137Y-46429470D01*
X12508629Y-46463337D01*
X12579537Y-46519781D01*
X12636864Y-46593159D01*
X12671260Y-46675709D01*
X12682725Y-46767431D01*
X12667644Y-46867841D01*
X12622400Y-46959519D01*
X12674435Y-47036601D01*
X12705656Y-47119680D01*
X12716062Y-47208756D01*
X12702569Y-47308857D01*
X12666321Y-47397492D01*
X12607319Y-47474663D01*
X12531912Y-47534194D01*
X12446452Y-47569912D01*
X12350937Y-47581819D01*
X12074712Y-47581819D01*
X11933425Y-47581819D01*
G37*
G36*
X9608333Y-46414411D02*
G01*
X9684731Y-46431675D01*
X9801412Y-46478506D01*
X9839512Y-46500731D01*
X9883962Y-46529306D01*
X9925237Y-46604712D01*
X9891900Y-46692819D01*
X9833162Y-46757112D01*
X9780775Y-46778544D01*
X9699812Y-46743619D01*
X9622025Y-46703137D01*
X9522012Y-46689644D01*
X9419619Y-46707503D01*
X9318812Y-46761081D01*
X9239437Y-46859506D01*
X9215625Y-46927173D01*
X9207687Y-47003175D01*
X9215625Y-47079177D01*
X9239437Y-47146844D01*
X9320400Y-47246856D01*
X9419222Y-47299244D01*
X9522012Y-47316706D01*
X9614881Y-47304006D01*
X9677587Y-47278606D01*
X9706162Y-47257969D01*
X9782362Y-47226219D01*
X9833559Y-47248444D01*
X9888725Y-47315119D01*
X9923650Y-47404019D01*
X9902219Y-47459581D01*
X9852212Y-47499269D01*
X9797444Y-47532606D01*
X9690287Y-47573881D01*
X9610714Y-47592931D01*
X9533919Y-47599281D01*
X9458116Y-47594320D01*
X9381519Y-47579438D01*
X9303334Y-47552847D01*
X9222769Y-47512762D01*
X9145180Y-47460772D01*
X9075925Y-47398463D01*
X9016592Y-47321469D01*
X8968769Y-47225425D01*
X8937217Y-47115292D01*
X8926700Y-46996031D01*
X8937019Y-46877961D01*
X8967975Y-46771400D01*
X9015005Y-46679325D01*
X9073544Y-46604712D01*
X9142402Y-46544189D01*
X9220387Y-46494381D01*
X9324281Y-46446756D01*
X9428526Y-46418181D01*
X9533125Y-46408656D01*
X9608333Y-46414411D01*
G37*
G36*
X10686245Y-46414411D02*
G01*
X10762644Y-46431675D01*
X10879325Y-46478506D01*
X10917425Y-46500731D01*
X10961875Y-46529306D01*
X11003150Y-46604712D01*
X10969812Y-46692819D01*
X10911075Y-46757112D01*
X10858687Y-46778544D01*
X10777725Y-46743619D01*
X10699937Y-46703137D01*
X10599925Y-46689644D01*
X10497531Y-46707503D01*
X10396725Y-46761081D01*
X10317350Y-46859506D01*
X10293537Y-46927173D01*
X10285600Y-47003175D01*
X10293537Y-47079177D01*
X10317350Y-47146844D01*
X10398312Y-47246856D01*
X10497134Y-47299244D01*
X10599925Y-47316706D01*
X10692794Y-47304006D01*
X10755500Y-47278606D01*
X10784075Y-47257969D01*
X10860275Y-47226219D01*
X10911472Y-47248444D01*
X10966637Y-47315119D01*
X11001562Y-47404019D01*
X10980131Y-47459581D01*
X10930125Y-47499269D01*
X10875356Y-47532606D01*
X10768200Y-47573881D01*
X10688627Y-47592931D01*
X10611831Y-47599281D01*
X10536028Y-47594320D01*
X10459431Y-47579438D01*
X10381247Y-47552847D01*
X10300681Y-47512762D01*
X10223092Y-47460772D01*
X10153837Y-47398463D01*
X10094505Y-47321469D01*
X10046681Y-47225425D01*
X10015130Y-47115292D01*
X10004612Y-46996031D01*
X10014931Y-46877961D01*
X10045887Y-46771400D01*
X10092917Y-46679325D01*
X10151456Y-46604712D01*
X10220314Y-46544189D01*
X10298300Y-46494381D01*
X10402193Y-46446756D01*
X10506439Y-46418181D01*
X10611037Y-46408656D01*
X10686245Y-46414411D01*
G37*
G36*
X15070920Y-46406870D02*
G01*
X15153669Y-46425325D01*
X15262413Y-46475331D01*
X15302100Y-46505494D01*
X15351312Y-46583281D01*
X15313212Y-46670594D01*
X15258444Y-46730125D01*
X15202087Y-46749969D01*
X15119537Y-46718219D01*
X15101281Y-46702344D01*
X15076675Y-46681706D01*
X14991744Y-46661069D01*
X14906019Y-46685675D01*
X14871887Y-46753937D01*
X14912369Y-46824581D01*
X15013175Y-46861094D01*
X15076278Y-46873198D01*
X15144937Y-46890462D01*
X15213597Y-46912489D01*
X15276700Y-46938881D01*
X15332064Y-46977973D01*
X15377506Y-47038100D01*
X15407867Y-47116880D01*
X15417987Y-47211931D01*
X15407669Y-47308967D01*
X15376712Y-47393700D01*
X15329087Y-47463352D01*
X15268762Y-47515144D01*
X15181097Y-47561887D01*
X15089551Y-47589933D01*
X14994125Y-47599281D01*
X14921497Y-47594717D01*
X14852837Y-47581025D01*
X14744887Y-47535781D01*
X14673450Y-47485775D01*
X14627412Y-47437356D01*
X14613125Y-47419894D01*
X14571850Y-47328613D01*
X14588916Y-47281583D01*
X14640112Y-47221456D01*
X14724250Y-47183356D01*
X14777431Y-47203200D01*
X14848075Y-47262731D01*
X14911575Y-47314325D01*
X14987775Y-47338931D01*
X15069796Y-47325526D01*
X15119008Y-47285309D01*
X15135412Y-47218281D01*
X15094931Y-47157163D01*
X14994125Y-47121444D01*
X14931419Y-47106958D01*
X14863950Y-47085725D01*
X14796481Y-47058936D01*
X14733775Y-47027781D01*
X14678411Y-46984720D01*
X14632969Y-46922212D01*
X14602608Y-46842639D01*
X14592487Y-46748381D01*
X14604041Y-46659217D01*
X14638701Y-46577990D01*
X14696469Y-46504700D01*
X14774168Y-46446933D01*
X14868624Y-46412272D01*
X14979837Y-46400719D01*
X15070920Y-46406870D01*
G37*
G04 #@! TO.C,SW1*
X46637500Y-22450000D02*
X46637500Y-24450000D01*
X47687500Y-21150000D02*
X48137500Y-20700000D01*
X47687500Y-25750000D02*
X48137500Y-26200000D01*
X48137500Y-20700000D02*
X50637500Y-20700000D01*
X48137500Y-26200000D02*
X50637500Y-26200000D01*
X51087500Y-21150000D02*
X50637500Y-20700000D01*
X51087500Y-25750000D02*
X50637500Y-26200000D01*
X52137500Y-22450000D02*
X52137500Y-24450000D01*
G04 #@! TO.C,C32*
X23722500Y-44459420D02*
X23722500Y-44740580D01*
X22702500Y-44459420D02*
X22702500Y-44740580D01*
G04 #@! TO.C,kibuzzard-6457AC22*
G36*
X42534955Y-10115142D02*
G01*
X42562895Y-10188802D01*
X42562895Y-10351362D01*
X42338105Y-10351362D01*
X42338105Y-10191342D01*
X42366680Y-10115142D01*
X42451135Y-10078312D01*
X42534955Y-10115142D01*
G37*
G36*
X43321508Y-7001102D02*
G01*
X43321508Y-7609432D01*
X43321508Y-8645752D01*
X43321508Y-9160102D01*
X43321508Y-9988777D01*
X43321508Y-10576152D01*
X43321508Y-11088782D01*
X41833492Y-11088782D01*
X41833492Y-10576152D01*
X41833492Y-10463122D01*
X42113315Y-10463122D01*
X42121887Y-10528527D01*
X42147605Y-10562182D01*
X42181260Y-10574247D01*
X42225075Y-10576152D01*
X42929925Y-10576152D01*
X42995965Y-10568532D01*
X43031207Y-10534877D01*
X43042955Y-10464392D01*
X43034383Y-10398987D01*
X43008665Y-10365332D01*
X42975010Y-10353267D01*
X42931195Y-10351362D01*
X42787685Y-10351362D01*
X42787685Y-10191342D01*
X42785145Y-10151972D01*
X42902126Y-10102583D01*
X42978749Y-10069563D01*
X43015015Y-10052912D01*
X43039780Y-10029417D01*
X43051845Y-9988777D01*
X43034065Y-9923372D01*
X42997235Y-9864317D01*
X42952785Y-9844632D01*
X42886745Y-9863682D01*
X42805888Y-9899242D01*
X42739425Y-9928029D01*
X42687355Y-9950042D01*
X42619904Y-9897125D01*
X42541164Y-9865375D01*
X42451135Y-9854792D01*
X42372395Y-9863047D01*
X42301275Y-9887812D01*
X42240950Y-9925277D01*
X42194595Y-9971632D01*
X42149439Y-10042611D01*
X42122346Y-10115001D01*
X42113315Y-10188802D01*
X42113315Y-10463122D01*
X41833492Y-10463122D01*
X41833492Y-9659212D01*
X42113315Y-9659212D01*
X42136810Y-9750652D01*
X42225075Y-9774782D01*
X42931195Y-9774782D01*
X42995965Y-9767162D01*
X43032160Y-9733507D01*
X43044225Y-9663022D01*
X43044225Y-9160102D01*
X43036605Y-9094062D01*
X43002950Y-9058819D01*
X42932465Y-9047072D01*
X42867060Y-9055644D01*
X42833405Y-9081362D01*
X42821340Y-9115017D01*
X42819435Y-9158832D01*
X42819435Y-9549992D01*
X42691165Y-9549992D01*
X42691165Y-9301072D01*
X42683545Y-9235032D01*
X42649890Y-9198837D01*
X42579405Y-9186772D01*
X42514000Y-9195344D01*
X42480345Y-9221062D01*
X42468280Y-9254717D01*
X42466375Y-9298532D01*
X42466375Y-9549992D01*
X42338105Y-9549992D01*
X42338105Y-9160102D01*
X42330485Y-9094062D01*
X42296830Y-9058819D01*
X42226345Y-9047072D01*
X42160940Y-9055644D01*
X42127285Y-9081362D01*
X42115220Y-9115017D01*
X42113315Y-9158832D01*
X42113315Y-9659212D01*
X41833492Y-9659212D01*
X41833492Y-8657182D01*
X42098075Y-8657182D01*
X42107318Y-8746153D01*
X42135046Y-8821718D01*
X42181260Y-8883877D01*
X42239892Y-8930091D01*
X42304873Y-8957819D01*
X42376205Y-8967062D01*
X42451611Y-8958966D01*
X42515270Y-8934677D01*
X42565276Y-8898323D01*
X42599725Y-8854032D01*
X42624649Y-8803867D01*
X42646080Y-8749892D01*
X42663066Y-8695917D01*
X42674655Y-8645752D01*
X42703230Y-8565107D01*
X42752125Y-8532722D01*
X42805747Y-8545845D01*
X42837921Y-8585215D01*
X42848645Y-8650832D01*
X42828960Y-8711792D01*
X42787685Y-8762592D01*
X42740060Y-8819107D01*
X42724185Y-8861652D01*
X42754665Y-8928962D01*
X42802766Y-8969919D01*
X42840390Y-8983572D01*
X42913415Y-8950552D01*
X42927385Y-8939122D01*
X42966120Y-8902292D01*
X43006125Y-8845142D01*
X43042320Y-8758782D01*
X43053274Y-8703854D01*
X43056925Y-8645752D01*
X43049446Y-8569411D01*
X43027009Y-8496174D01*
X42989615Y-8426042D01*
X42948181Y-8377782D01*
X42892460Y-8339682D01*
X42824674Y-8314917D01*
X42747045Y-8306662D01*
X42671004Y-8314758D01*
X42607980Y-8339047D01*
X42559879Y-8375401D01*
X42528605Y-8419692D01*
X42507491Y-8470174D01*
X42489870Y-8525102D01*
X42476059Y-8580029D01*
X42466375Y-8630512D01*
X42437165Y-8711157D01*
X42380650Y-8743542D01*
X42326040Y-8716237D01*
X42306355Y-8647657D01*
X42322865Y-8579712D01*
X42339375Y-8560027D01*
X42352075Y-8545422D01*
X42377475Y-8479382D01*
X42361600Y-8434297D01*
X42313975Y-8390482D01*
X42244125Y-8360002D01*
X42181895Y-8399372D01*
X42157765Y-8431122D01*
X42117760Y-8518117D01*
X42102996Y-8584316D01*
X42098075Y-8657182D01*
X41833492Y-8657182D01*
X41833492Y-8108542D01*
X42113315Y-8108542D01*
X42136810Y-8199982D01*
X42225075Y-8224112D01*
X42931195Y-8224112D01*
X42995965Y-8216492D01*
X43032160Y-8182837D01*
X43044225Y-8112352D01*
X43044225Y-7609432D01*
X43036605Y-7543392D01*
X43002950Y-7508149D01*
X42932465Y-7496402D01*
X42867060Y-7504974D01*
X42833405Y-7530692D01*
X42821340Y-7564347D01*
X42819435Y-7608162D01*
X42819435Y-7999322D01*
X42691165Y-7999322D01*
X42691165Y-7750402D01*
X42683545Y-7684362D01*
X42649890Y-7648167D01*
X42579405Y-7636102D01*
X42514000Y-7644674D01*
X42480345Y-7670392D01*
X42468280Y-7704047D01*
X42466375Y-7747862D01*
X42466375Y-7999322D01*
X42338105Y-7999322D01*
X42338105Y-7609432D01*
X42330485Y-7543392D01*
X42296830Y-7508149D01*
X42226345Y-7496402D01*
X42160940Y-7504974D01*
X42127285Y-7530692D01*
X42115220Y-7564347D01*
X42113315Y-7608162D01*
X42113315Y-8108542D01*
X41833492Y-8108542D01*
X41833492Y-7352892D01*
X42112045Y-7352892D01*
X42123475Y-7417662D01*
X42150780Y-7439252D01*
X42203485Y-7445602D01*
X42256825Y-7439252D01*
X42286670Y-7413852D01*
X42296195Y-7354162D01*
X42296195Y-7110322D01*
X42933735Y-7110322D01*
X42977550Y-7108417D01*
X43010570Y-7096987D01*
X43036605Y-7063967D01*
X43044225Y-7001102D01*
X43036605Y-6937602D01*
X43010570Y-6903947D01*
X42978185Y-6892517D01*
X42935005Y-6890612D01*
X42296195Y-6890612D01*
X42296195Y-6648042D01*
X42284765Y-6583272D01*
X42257460Y-6561682D01*
X42204755Y-6555332D01*
X42151415Y-6561682D01*
X42121570Y-6587082D01*
X42112045Y-6646772D01*
X42112045Y-7352892D01*
X41833492Y-7352892D01*
X41833492Y-6555332D01*
X41833492Y-6555226D01*
X41837074Y-6482301D01*
X41847788Y-6410077D01*
X41865528Y-6339252D01*
X41890126Y-6270506D01*
X41921343Y-6204503D01*
X41958880Y-6141877D01*
X42002374Y-6083232D01*
X42051407Y-6029133D01*
X42105506Y-5980100D01*
X42164151Y-5936606D01*
X42226777Y-5899069D01*
X42292780Y-5867852D01*
X42361526Y-5843255D01*
X42432351Y-5825514D01*
X42504574Y-5814800D01*
X42577500Y-5811218D01*
X42650426Y-5814800D01*
X42722649Y-5825514D01*
X42793474Y-5843255D01*
X42862220Y-5867852D01*
X42928223Y-5899069D01*
X42990849Y-5936606D01*
X43049494Y-5980100D01*
X43103593Y-6029133D01*
X43152626Y-6083232D01*
X43196120Y-6141877D01*
X43233657Y-6204503D01*
X43264874Y-6270506D01*
X43289472Y-6339252D01*
X43307212Y-6410077D01*
X43317926Y-6482301D01*
X43321508Y-6555226D01*
X43321508Y-6555332D01*
X43321508Y-7001102D01*
G37*
G04 #@! TO.C,R4*
X22699758Y-42822500D02*
X22225242Y-42822500D01*
X22699758Y-41777500D02*
X22225242Y-41777500D01*
G04 #@! TO.C,R10*
X39315000Y-16862258D02*
X39315000Y-16387742D01*
X40360000Y-16862258D02*
X40360000Y-16387742D01*
G04 #@! TO.C,U4*
X11012500Y-30600000D02*
X11272500Y-30600000D01*
X11272500Y-30600000D02*
X11272500Y-32275000D01*
X16462500Y-30600000D02*
X16202500Y-30600000D01*
X11012500Y-27875000D02*
X11012500Y-30600000D01*
X11012500Y-27875000D02*
X11012500Y-25150000D01*
X16462500Y-27875000D02*
X16462500Y-30600000D01*
X16462500Y-27875000D02*
X16462500Y-25150000D01*
X11012500Y-25150000D02*
X11272500Y-25150000D01*
X16462500Y-25150000D02*
X16202500Y-25150000D01*
G04 #@! TO.C,kibuzzard-6457ABCE*
G36*
X33168333Y-8218074D02*
G01*
X33168333Y-9080404D01*
X33168333Y-10088149D01*
X33168333Y-10573289D01*
X33168333Y-11085920D01*
X31686667Y-11085920D01*
X31686667Y-10573289D01*
X31686667Y-10434224D01*
X31952520Y-10434224D01*
X31974110Y-10498359D01*
X32012845Y-10554557D01*
X32055390Y-10573289D01*
X32116350Y-10554239D01*
X32827550Y-10203719D01*
X32872635Y-10161174D01*
X32889780Y-10100849D01*
X32889780Y-10088149D01*
X32872635Y-10029094D01*
X32827550Y-9986549D01*
X32116350Y-9636029D01*
X32055390Y-9616979D01*
X32012845Y-9635712D01*
X31974110Y-9691909D01*
X31952520Y-9766839D01*
X31986810Y-9822719D01*
X32024910Y-9840499D01*
X32581170Y-10094499D01*
X32551801Y-10108311D01*
X32484015Y-10139584D01*
X32394321Y-10180859D01*
X32299230Y-10224674D01*
X32204139Y-10268331D01*
X32114445Y-10309129D01*
X32044595Y-10341038D01*
X32009035Y-10358024D01*
X31975380Y-10378979D01*
X31957600Y-10400569D01*
X31952520Y-10434224D01*
X31686667Y-10434224D01*
X31686667Y-9081039D01*
X31951250Y-9081039D01*
X31958870Y-9164718D01*
X31981730Y-9248115D01*
X32019830Y-9331229D01*
X32059676Y-9393618D01*
X32108095Y-9448704D01*
X32167785Y-9495536D01*
X32241445Y-9533159D01*
X32326694Y-9557924D01*
X32421150Y-9566179D01*
X32516559Y-9557766D01*
X32604665Y-9532524D01*
X32681500Y-9494266D01*
X32743095Y-9446799D01*
X32792943Y-9391396D01*
X32834535Y-9329324D01*
X32866603Y-9264872D01*
X32887875Y-9202324D01*
X32899781Y-9141047D01*
X32903750Y-9080404D01*
X32898670Y-9018968D01*
X32883430Y-8955309D01*
X32850410Y-8869584D01*
X32823740Y-8825769D01*
X32791990Y-8785764D01*
X32747540Y-8768619D01*
X32676420Y-8796559D01*
X32623080Y-8840692D01*
X32605300Y-8881649D01*
X32630700Y-8942609D01*
X32647210Y-8965469D01*
X32667530Y-9015634D01*
X32677690Y-9089929D01*
X32663720Y-9172162D01*
X32621810Y-9251219D01*
X32541800Y-9315989D01*
X32487666Y-9335039D01*
X32426865Y-9341389D01*
X32366064Y-9335039D01*
X32311930Y-9315989D01*
X32233190Y-9252489D01*
X32190327Y-9171844D01*
X32176040Y-9089929D01*
X32186835Y-9009919D01*
X32219220Y-8947689D01*
X32247160Y-8882919D01*
X32230015Y-8841009D01*
X32178580Y-8794019D01*
X32108095Y-8767349D01*
X32047770Y-8800369D01*
X32024910Y-8835929D01*
X32007130Y-8866409D01*
X31969665Y-8959754D01*
X31955854Y-9020873D01*
X31951250Y-9081039D01*
X31686667Y-9081039D01*
X31686667Y-8218709D01*
X31951250Y-8218709D01*
X31958870Y-8302388D01*
X31981730Y-8385785D01*
X32019830Y-8468899D01*
X32059676Y-8531288D01*
X32108095Y-8586374D01*
X32167785Y-8633206D01*
X32241445Y-8670829D01*
X32326694Y-8695594D01*
X32421150Y-8703849D01*
X32516559Y-8695436D01*
X32604665Y-8670194D01*
X32681500Y-8631936D01*
X32743095Y-8584469D01*
X32792943Y-8529066D01*
X32834535Y-8466994D01*
X32866603Y-8402542D01*
X32887875Y-8339994D01*
X32899781Y-8278717D01*
X32903750Y-8218074D01*
X32898670Y-8156638D01*
X32883430Y-8092979D01*
X32850410Y-8007254D01*
X32823740Y-7963439D01*
X32791990Y-7923434D01*
X32747540Y-7906289D01*
X32676420Y-7934229D01*
X32623080Y-7978362D01*
X32605300Y-8019319D01*
X32630700Y-8080279D01*
X32647210Y-8103139D01*
X32667530Y-8153304D01*
X32677690Y-8227599D01*
X32663720Y-8309832D01*
X32621810Y-8388889D01*
X32541800Y-8453659D01*
X32487666Y-8472709D01*
X32426865Y-8479059D01*
X32366064Y-8472709D01*
X32311930Y-8453659D01*
X32233190Y-8390159D01*
X32190327Y-8309514D01*
X32176040Y-8227599D01*
X32186835Y-8147589D01*
X32219220Y-8085359D01*
X32247160Y-8020589D01*
X32230015Y-7978679D01*
X32178580Y-7931689D01*
X32108095Y-7905019D01*
X32047770Y-7938039D01*
X32024910Y-7973599D01*
X32007130Y-8004079D01*
X31969665Y-8097424D01*
X31955854Y-8158543D01*
X31951250Y-8218709D01*
X31686667Y-8218709D01*
X31686667Y-7905019D01*
X31686667Y-7904914D01*
X31690234Y-7832299D01*
X31700902Y-7760384D01*
X31718567Y-7689861D01*
X31743059Y-7621409D01*
X31774143Y-7555687D01*
X31811520Y-7493329D01*
X31854828Y-7434934D01*
X31903652Y-7381065D01*
X31957520Y-7332242D01*
X32015915Y-7288933D01*
X32078274Y-7251557D01*
X32143995Y-7220473D01*
X32212447Y-7195980D01*
X32282971Y-7178315D01*
X32354886Y-7167648D01*
X32427500Y-7164080D01*
X32500114Y-7167648D01*
X32572029Y-7178315D01*
X32642553Y-7195980D01*
X32711005Y-7220473D01*
X32776726Y-7251557D01*
X32839085Y-7288933D01*
X32897480Y-7332242D01*
X32951348Y-7381065D01*
X33000172Y-7434934D01*
X33043480Y-7493329D01*
X33080857Y-7555687D01*
X33111941Y-7621409D01*
X33136433Y-7689861D01*
X33154098Y-7760384D01*
X33164766Y-7832299D01*
X33168333Y-7904914D01*
X33168333Y-7905019D01*
X33168333Y-8218074D01*
G37*
G04 #@! TO.C,R12*
X27510000Y-13462742D02*
X27510000Y-13937258D01*
X26465000Y-13462742D02*
X26465000Y-13937258D01*
G04 #@! TO.C,C4*
X34046920Y-36690000D02*
X34328080Y-36690000D01*
X34046920Y-37710000D02*
X34328080Y-37710000D01*
G04 #@! TO.C,kibuzzard-645C118B*
G36*
X13162204Y-45283319D02*
G01*
X13183873Y-45366662D01*
X13181095Y-45406112D01*
X13169427Y-45436671D01*
X13140118Y-45460841D01*
X13085528Y-45468897D01*
X13029687Y-45463480D01*
X12996628Y-45447228D01*
X12980375Y-45415419D01*
X12974958Y-45363329D01*
X12980792Y-45310544D01*
X12998294Y-45281096D01*
X13083305Y-45261094D01*
X13162204Y-45283319D01*
G37*
G36*
X13162204Y-45637252D02*
G01*
X13178456Y-45669061D01*
X13183873Y-45721151D01*
X13181095Y-45760601D01*
X13169427Y-45791160D01*
X13140118Y-45815330D01*
X13085528Y-45823386D01*
X13029687Y-45817969D01*
X12996628Y-45801717D01*
X12980375Y-45769907D01*
X12974958Y-45717818D01*
X12980792Y-45665033D01*
X12998294Y-45635585D01*
X13083305Y-45615583D01*
X13162204Y-45637252D01*
G37*
G36*
X9797339Y-44970780D02*
G01*
X9825676Y-44993282D01*
X9836232Y-45022731D01*
X9837899Y-45061069D01*
X9836232Y-45099407D01*
X9826231Y-45128299D01*
X9796783Y-45151080D01*
X9740665Y-45157747D01*
X9684547Y-45151080D01*
X9655099Y-45127744D01*
X9645097Y-45098296D01*
X9643431Y-45059958D01*
X9645097Y-45021619D01*
X9654543Y-44993282D01*
X9683991Y-44970780D01*
X9741221Y-44963279D01*
X9797339Y-44970780D01*
G37*
G36*
X9816786Y-45256649D02*
G01*
X9836788Y-45304432D01*
X9837899Y-45336659D01*
X9837899Y-45725596D01*
X9836232Y-45763934D01*
X9825676Y-45793383D01*
X9797061Y-45815052D01*
X9740109Y-45822275D01*
X9683713Y-45814774D01*
X9654543Y-45792271D01*
X9645097Y-45763379D01*
X9643431Y-45724485D01*
X9643431Y-45334436D01*
X9645097Y-45296098D01*
X9654543Y-45266650D01*
X9683991Y-45244981D01*
X9741221Y-45237757D01*
X9816786Y-45256649D01*
G37*
G36*
X9151980Y-45018008D02*
G01*
X9182262Y-45048845D01*
X9187818Y-45106630D01*
X9187818Y-45657810D01*
X9490078Y-45657810D01*
X9543418Y-45666144D01*
X9565643Y-45692259D01*
X9571199Y-45739487D01*
X9565643Y-45786715D01*
X9546752Y-45811163D01*
X9488967Y-45822275D01*
X9088917Y-45822275D01*
X9027242Y-45811718D01*
X8997794Y-45780048D01*
X8991127Y-45723374D01*
X8991127Y-45105519D01*
X8992794Y-45067181D01*
X9003351Y-45037732D01*
X9032799Y-45015230D01*
X9090028Y-45007729D01*
X9151980Y-45018008D01*
G37*
G36*
X10292401Y-45241647D02*
G01*
X10351297Y-45264427D01*
X10369077Y-45275540D01*
X10400192Y-45296654D01*
X10429084Y-45347216D01*
X10405748Y-45411112D01*
X10366577Y-45456952D01*
X10329072Y-45472231D01*
X10269064Y-45447784D01*
X10211835Y-45428892D01*
X10142382Y-45455562D01*
X10110156Y-45529461D01*
X10141271Y-45602803D01*
X10207390Y-45628917D01*
X10272954Y-45608359D01*
X10322404Y-45587801D01*
X10359353Y-45602525D01*
X10403526Y-45646697D01*
X10429084Y-45704482D01*
X10413805Y-45745321D01*
X10367966Y-45783381D01*
X10297401Y-45816719D01*
X10212391Y-45827831D01*
X10144357Y-45819559D01*
X10078053Y-45794741D01*
X10013477Y-45753378D01*
X9972083Y-45711845D01*
X9939023Y-45658366D01*
X9917354Y-45595858D01*
X9910131Y-45527238D01*
X9917354Y-45458896D01*
X9939023Y-45397222D01*
X9972083Y-45344576D01*
X10013477Y-45303321D01*
X10076324Y-45262575D01*
X10141888Y-45238128D01*
X10210168Y-45229979D01*
X10292401Y-45241647D01*
G37*
G36*
X11533605Y-45246092D02*
G01*
X11595280Y-45274429D01*
X11648681Y-45321657D01*
X11689736Y-45382467D01*
X11714368Y-45451550D01*
X11722579Y-45528905D01*
X11722579Y-45724485D01*
X11720913Y-45762823D01*
X11711467Y-45791160D01*
X11682019Y-45813663D01*
X11624789Y-45821164D01*
X11562559Y-45810885D01*
X11533667Y-45780048D01*
X11526999Y-45723374D01*
X11526999Y-45527794D01*
X11500885Y-45456674D01*
X11430876Y-45431115D01*
X11359756Y-45457785D01*
X11332531Y-45527794D01*
X11332531Y-45724485D01*
X11330864Y-45762823D01*
X11320307Y-45791160D01*
X11291692Y-45813663D01*
X11234741Y-45821164D01*
X11178345Y-45813663D01*
X11149174Y-45791160D01*
X11139729Y-45761712D01*
X11138062Y-45723374D01*
X11138062Y-45329991D01*
X11139729Y-45292764D01*
X11150286Y-45264427D01*
X11179456Y-45243592D01*
X11235852Y-45236646D01*
X11290581Y-45243036D01*
X11319196Y-45262205D01*
X11330308Y-45307766D01*
X11350311Y-45285541D01*
X11380314Y-45262205D01*
X11463658Y-45236646D01*
X11533605Y-45246092D01*
G37*
G36*
X10693562Y-45593358D02*
G01*
X10730233Y-45645586D01*
X10803576Y-45666700D01*
X10861083Y-45663366D01*
X10904699Y-45653365D01*
X10916923Y-45648920D01*
X10961373Y-45636696D01*
X11022492Y-45686702D01*
X11036938Y-45737820D01*
X11022145Y-45781089D01*
X10977764Y-45811996D01*
X10903796Y-45830540D01*
X10800242Y-45836721D01*
X10722593Y-45829637D01*
X10654112Y-45808384D01*
X10597300Y-45775464D01*
X10554656Y-45733375D01*
X10515762Y-45671022D01*
X10492426Y-45603976D01*
X10484647Y-45532239D01*
X10489268Y-45492234D01*
X10691339Y-45492234D01*
X10831357Y-45492234D01*
X10873584Y-45456674D01*
X10854137Y-45415557D01*
X10798575Y-45400000D01*
X10726899Y-45429448D01*
X10691339Y-45492234D01*
X10489268Y-45492234D01*
X10494710Y-45445129D01*
X10524899Y-45370490D01*
X10575214Y-45308322D01*
X10640592Y-45261711D01*
X10715972Y-45233745D01*
X10801353Y-45224422D01*
X10873445Y-45231229D01*
X10935259Y-45251648D01*
X10986793Y-45285680D01*
X11028048Y-45333325D01*
X11056385Y-45393749D01*
X11065831Y-45459452D01*
X11057357Y-45518904D01*
X11031937Y-45560576D01*
X10956928Y-45593358D01*
X10831357Y-45593358D01*
X10693562Y-45593358D01*
G37*
G36*
X12135964Y-45234979D02*
G01*
X12218197Y-45263316D01*
X12257091Y-45307766D01*
X12232643Y-45373330D01*
X12182637Y-45412224D01*
X12133186Y-45395555D01*
X12054843Y-45378886D01*
X11989279Y-45403334D01*
X12008171Y-45430837D01*
X12064844Y-45446672D01*
X12137076Y-45461119D01*
X12207084Y-45488900D01*
X12260980Y-45542796D01*
X12277232Y-45585995D01*
X12282649Y-45638919D01*
X12277232Y-45692398D01*
X12260980Y-45737264D01*
X12200417Y-45797828D01*
X12148991Y-45816966D01*
X12089539Y-45828449D01*
X12022061Y-45832276D01*
X11951497Y-45825362D01*
X11882785Y-45804618D01*
X11815924Y-45770046D01*
X11794811Y-45727819D01*
X11805368Y-45691425D01*
X11837038Y-45640030D01*
X11876488Y-45621139D01*
X11950386Y-45648364D01*
X12034841Y-45675590D01*
X12085680Y-45668923D01*
X12102627Y-45648920D01*
X12084013Y-45630584D01*
X12028173Y-45617805D01*
X11958442Y-45599747D01*
X11889267Y-45565576D01*
X11835927Y-45502791D01*
X11820092Y-45455979D01*
X11814813Y-45401111D01*
X11824459Y-45337903D01*
X11853396Y-45288742D01*
X11901624Y-45253626D01*
X11969144Y-45232557D01*
X12055954Y-45225534D01*
X12135964Y-45234979D01*
G37*
G36*
X12547127Y-45593358D02*
G01*
X12583798Y-45645586D01*
X12657141Y-45666700D01*
X12714648Y-45663366D01*
X12758264Y-45653365D01*
X12770488Y-45648920D01*
X12814938Y-45636696D01*
X12876057Y-45686702D01*
X12890503Y-45737820D01*
X12875710Y-45781089D01*
X12831329Y-45811996D01*
X12757361Y-45830540D01*
X12653807Y-45836721D01*
X12576158Y-45829637D01*
X12507678Y-45808384D01*
X12450865Y-45775464D01*
X12408221Y-45733375D01*
X12369327Y-45671022D01*
X12345991Y-45603976D01*
X12338212Y-45532239D01*
X12342833Y-45492234D01*
X12544904Y-45492234D01*
X12684922Y-45492234D01*
X12727149Y-45456674D01*
X12707703Y-45415557D01*
X12652140Y-45400000D01*
X12580464Y-45429448D01*
X12544904Y-45492234D01*
X12342833Y-45492234D01*
X12348275Y-45445129D01*
X12378464Y-45370490D01*
X12428779Y-45308322D01*
X12494157Y-45261711D01*
X12569537Y-45233745D01*
X12654918Y-45224422D01*
X12727010Y-45231229D01*
X12788824Y-45251648D01*
X12840358Y-45285680D01*
X12881613Y-45333325D01*
X12909950Y-45393749D01*
X12919396Y-45459452D01*
X12910922Y-45518904D01*
X12885503Y-45560576D01*
X12810493Y-45593358D01*
X12684922Y-45593358D01*
X12547127Y-45593358D01*
G37*
G04 #@! TO.C,R17*
X41321250Y-23699758D02*
X41321250Y-23225242D01*
X42366250Y-23699758D02*
X42366250Y-23225242D01*
G04 #@! TO.C,R18*
X41321250Y-31799758D02*
X41321250Y-31325242D01*
X42366250Y-31799758D02*
X42366250Y-31325242D01*
G04 #@! TO.C,C22*
X20528080Y-34710000D02*
X20246920Y-34710000D01*
X20528080Y-33690000D02*
X20246920Y-33690000D01*
G04 #@! TO.C,D2*
X44428750Y-30077500D02*
X42958750Y-30077500D01*
X42958750Y-30077500D02*
X42958750Y-32362500D01*
X44428750Y-32362500D02*
X44428750Y-30077500D01*
G04 #@! TO.C,C26*
X31678080Y-41260000D02*
X31396920Y-41260000D01*
X31678080Y-40240000D02*
X31396920Y-40240000D01*
G04 #@! TO.C,kibuzzard-6457ABF7*
G36*
X37597274Y-8020042D02*
G01*
X37673950Y-8075287D01*
X37724909Y-8153392D01*
X37741895Y-8240387D01*
X37741895Y-8363577D01*
X37261835Y-8363577D01*
X37261835Y-8241657D01*
X37279139Y-8151328D01*
X37331050Y-8073382D01*
X37408679Y-8019566D01*
X37503135Y-8001627D01*
X37597274Y-8020042D01*
G37*
G36*
X37577501Y-6699030D02*
G01*
X37638884Y-6723160D01*
X37689825Y-6763377D01*
X37741260Y-6840212D01*
X37758405Y-6925937D01*
X37740784Y-7011821D01*
X37687920Y-7089132D01*
X37636203Y-7129701D01*
X37575031Y-7154043D01*
X37504405Y-7162157D01*
X37433779Y-7154114D01*
X37372607Y-7129984D01*
X37320890Y-7089767D01*
X37268026Y-7012932D01*
X37250405Y-6927207D01*
X37267867Y-6841323D01*
X37320255Y-6764012D01*
X37371902Y-6723443D01*
X37433708Y-6699101D01*
X37505675Y-6690987D01*
X37577501Y-6699030D01*
G37*
G36*
X38247778Y-6923397D02*
G01*
X38247778Y-7582527D01*
X38247778Y-8244197D01*
X38247778Y-9024612D01*
X38247778Y-10278737D01*
X38247778Y-10616557D01*
X38247778Y-11129187D01*
X36757222Y-11129187D01*
X36757222Y-10616557D01*
X36757222Y-10290167D01*
X37021805Y-10290167D01*
X37031048Y-10379138D01*
X37058776Y-10454703D01*
X37104990Y-10516862D01*
X37163622Y-10563076D01*
X37228603Y-10590804D01*
X37299935Y-10600047D01*
X37375341Y-10591951D01*
X37439000Y-10567662D01*
X37489006Y-10531308D01*
X37523455Y-10487017D01*
X37548379Y-10436852D01*
X37569810Y-10382877D01*
X37586796Y-10328902D01*
X37598385Y-10278737D01*
X37626960Y-10198092D01*
X37675855Y-10165707D01*
X37729477Y-10178830D01*
X37761651Y-10218200D01*
X37772375Y-10283817D01*
X37752690Y-10344777D01*
X37711415Y-10395577D01*
X37663790Y-10452092D01*
X37647915Y-10494637D01*
X37678395Y-10561947D01*
X37726496Y-10602904D01*
X37764120Y-10616557D01*
X37837145Y-10583537D01*
X37851115Y-10572107D01*
X37889850Y-10535277D01*
X37929855Y-10478127D01*
X37966050Y-10391767D01*
X37977004Y-10336839D01*
X37980655Y-10278737D01*
X37973176Y-10202396D01*
X37950739Y-10129159D01*
X37913345Y-10059027D01*
X37871911Y-10010767D01*
X37816190Y-9972667D01*
X37748404Y-9947902D01*
X37670775Y-9939647D01*
X37594734Y-9947743D01*
X37531710Y-9972032D01*
X37483609Y-10008386D01*
X37452335Y-10052677D01*
X37431221Y-10103159D01*
X37413600Y-10158087D01*
X37399789Y-10213014D01*
X37390105Y-10263497D01*
X37360895Y-10344142D01*
X37304380Y-10376527D01*
X37249770Y-10349222D01*
X37230085Y-10280642D01*
X37246595Y-10212697D01*
X37263105Y-10193012D01*
X37275805Y-10178407D01*
X37301205Y-10112367D01*
X37285330Y-10067282D01*
X37237705Y-10023467D01*
X37167855Y-9992987D01*
X37105625Y-10032357D01*
X37081495Y-10064107D01*
X37041490Y-10151102D01*
X37026726Y-10217301D01*
X37021805Y-10290167D01*
X36757222Y-10290167D01*
X36757222Y-8802997D01*
X37029425Y-8802997D01*
X37042760Y-8845542D01*
X37070065Y-8869037D01*
X37113245Y-8885547D01*
X37539965Y-9025247D01*
X37099275Y-9171297D01*
X37058000Y-9206857D01*
X37037045Y-9267182D01*
X37045935Y-9319887D01*
X37074510Y-9359574D01*
X37119595Y-9384657D01*
X37537425Y-9523087D01*
X37113245Y-9662787D01*
X37051015Y-9691362D01*
X37030695Y-9737082D01*
X37043395Y-9803757D01*
X37078002Y-9867574D01*
X37123405Y-9888847D01*
X37185635Y-9874877D01*
X37890485Y-9629767D01*
X37909535Y-9620877D01*
X37947635Y-9585952D01*
X37966685Y-9519277D01*
X37937475Y-9449427D01*
X37912075Y-9429107D01*
X37890485Y-9417677D01*
X37871079Y-9411124D01*
X37818959Y-9393496D01*
X37734123Y-9364794D01*
X37616571Y-9325018D01*
X37466305Y-9274167D01*
X37904455Y-9125577D01*
X37945730Y-9089382D01*
X37966685Y-9024612D01*
X37945730Y-8959842D01*
X37912075Y-8926187D01*
X37890485Y-8917297D01*
X37185635Y-8673457D01*
X37123405Y-8658217D01*
X37077685Y-8679489D01*
X37042125Y-8743307D01*
X37029425Y-8802997D01*
X36757222Y-8802997D01*
X36757222Y-8475337D01*
X37035775Y-8475337D01*
X37044347Y-8540742D01*
X37070065Y-8574397D01*
X37103085Y-8586462D01*
X37147535Y-8588367D01*
X37853655Y-8588367D01*
X37934935Y-8573127D01*
X37958748Y-8539472D01*
X37966685Y-8476607D01*
X37966685Y-8244197D01*
X37958033Y-8150654D01*
X37932077Y-8064333D01*
X37888818Y-7985236D01*
X37828255Y-7913362D01*
X37755587Y-7853632D01*
X37676014Y-7810968D01*
X37589535Y-7785370D01*
X37496150Y-7776837D01*
X37403122Y-7785568D01*
X37317715Y-7811762D01*
X37239927Y-7855418D01*
X37169760Y-7916537D01*
X37111697Y-7989165D01*
X37070224Y-8067349D01*
X37045340Y-8151090D01*
X37037045Y-8240387D01*
X37035775Y-8475337D01*
X36757222Y-8475337D01*
X36757222Y-7581257D01*
X37037045Y-7581257D01*
X37045617Y-7646662D01*
X37071335Y-7680317D01*
X37104990Y-7692382D01*
X37148805Y-7694287D01*
X37854925Y-7694287D01*
X37919695Y-7686667D01*
X37955890Y-7653012D01*
X37967955Y-7582527D01*
X37959383Y-7517122D01*
X37933665Y-7483467D01*
X37900645Y-7471402D01*
X37856195Y-7469497D01*
X37150075Y-7469497D01*
X37084035Y-7475847D01*
X37048792Y-7510454D01*
X37037045Y-7581257D01*
X36757222Y-7581257D01*
X36757222Y-6931017D01*
X37025615Y-6931017D01*
X37034505Y-7017377D01*
X37061175Y-7101197D01*
X37103402Y-7178984D01*
X37158965Y-7247247D01*
X37228656Y-7304397D01*
X37313270Y-7348847D01*
X37408679Y-7377422D01*
X37510755Y-7386947D01*
X37603941Y-7378494D01*
X37690460Y-7353133D01*
X37770311Y-7310866D01*
X37843495Y-7251692D01*
X37904614Y-7180453D01*
X37948270Y-7101991D01*
X37974464Y-7016305D01*
X37983195Y-6923397D01*
X37974345Y-6830687D01*
X37947794Y-6745597D01*
X37903542Y-6668127D01*
X37841590Y-6598277D01*
X37767057Y-6540492D01*
X37685062Y-6499217D01*
X37595607Y-6474452D01*
X37498690Y-6466197D01*
X37402130Y-6474849D01*
X37313746Y-6500804D01*
X37233538Y-6544064D01*
X37161505Y-6604627D01*
X37102053Y-6676938D01*
X37059587Y-6755439D01*
X37034108Y-6840133D01*
X37025615Y-6931017D01*
X36757222Y-6931017D01*
X36757222Y-6466197D01*
X36757222Y-6466091D01*
X36760810Y-6393041D01*
X36771542Y-6320695D01*
X36789313Y-6249748D01*
X36813953Y-6180885D01*
X36845223Y-6114769D01*
X36882824Y-6052037D01*
X36926392Y-5993292D01*
X36975509Y-5939100D01*
X37029700Y-5889983D01*
X37088446Y-5846415D01*
X37151178Y-5808814D01*
X37217294Y-5777544D01*
X37286157Y-5752904D01*
X37357103Y-5735133D01*
X37429450Y-5724402D01*
X37502500Y-5720813D01*
X37575550Y-5724402D01*
X37647897Y-5735133D01*
X37718843Y-5752904D01*
X37787706Y-5777544D01*
X37853822Y-5808814D01*
X37916554Y-5846415D01*
X37975300Y-5889983D01*
X38029491Y-5939100D01*
X38078608Y-5993292D01*
X38122176Y-6052037D01*
X38159777Y-6114769D01*
X38191047Y-6180885D01*
X38215687Y-6249748D01*
X38233458Y-6320695D01*
X38244190Y-6393041D01*
X38247778Y-6466091D01*
X38247778Y-6466197D01*
X38247778Y-6923397D01*
G37*
G04 #@! TO.C,C1*
X19197500Y-9234420D02*
X19197500Y-9515580D01*
X18177500Y-9234420D02*
X18177500Y-9515580D01*
G04 #@! TO.C,L1*
X28349721Y-41790000D02*
X28675279Y-41790000D01*
X28349721Y-42810000D02*
X28675279Y-42810000D01*
G04 #@! TO.C,C20*
X34046920Y-31090000D02*
X34328080Y-31090000D01*
X34046920Y-32110000D02*
X34328080Y-32110000D01*
G04 #@! TO.C,R16*
X23297936Y-46490000D02*
X24752064Y-46490000D01*
X23297936Y-48310000D02*
X24752064Y-48310000D01*
G04 #@! TD*
%LPC*%
D11*
G04 #@! TO.C,J1*
X6592500Y-9985000D03*
X6592500Y-15765000D03*
D12*
X7657500Y-9525000D03*
X7657500Y-10325000D03*
X7657500Y-11625000D03*
X7657500Y-12625000D03*
X7657500Y-13125000D03*
X7657500Y-14125000D03*
X7657500Y-15425000D03*
X7657500Y-16225000D03*
X7657500Y-15925000D03*
X7657500Y-15125000D03*
X7657500Y-14625000D03*
X7657500Y-13625000D03*
X7657500Y-12125000D03*
X7657500Y-11125000D03*
X7657500Y-10625000D03*
X7657500Y-9825000D03*
D13*
X7092500Y-8555000D03*
D14*
X2912500Y-8555000D03*
D13*
X7092500Y-17195000D03*
D14*
X2912500Y-17195000D03*
G04 #@! TD*
D15*
G04 #@! TO.C,R2*
X44687500Y-17425000D03*
X44687500Y-15775000D03*
G04 #@! TD*
D16*
G04 #@! TO.C,Y2*
X28087500Y-27550000D03*
X25887500Y-27550000D03*
X25887500Y-29250000D03*
X28087500Y-29250000D03*
G04 #@! TD*
D17*
G04 #@! TO.C,L2*
X26300000Y-42300000D03*
X24725000Y-42300000D03*
G04 #@! TD*
D18*
G04 #@! TO.C,C10*
X29687500Y-14150000D03*
X29687500Y-12600000D03*
G04 #@! TD*
D19*
G04 #@! TO.C,SW2*
X46237500Y-29650000D03*
X52537500Y-29650000D03*
X46237500Y-33450000D03*
X52537500Y-33450000D03*
G04 #@! TD*
D20*
G04 #@! TO.C,C27*
X29287500Y-43850000D03*
X27737500Y-43850000D03*
G04 #@! TD*
D21*
G04 #@! TO.C,C8*
X22187500Y-25725000D03*
X22187500Y-27275000D03*
G04 #@! TD*
D18*
G04 #@! TO.C,C12*
X21487500Y-15950000D03*
X21487500Y-14400000D03*
G04 #@! TD*
D20*
G04 #@! TO.C,C14*
X20462500Y-21275000D03*
X18912500Y-21275000D03*
G04 #@! TD*
D18*
G04 #@! TO.C,C23*
X23987500Y-29175000D03*
X23987500Y-27625000D03*
G04 #@! TD*
D22*
G04 #@! TO.C,R3*
X32387500Y-42300000D03*
X30737500Y-42300000D03*
G04 #@! TD*
D21*
G04 #@! TO.C,C11*
X33387500Y-25775000D03*
X33387500Y-27325000D03*
G04 #@! TD*
D23*
G04 #@! TO.C,R15*
X31412500Y-47400000D03*
X28487500Y-47400000D03*
G04 #@! TD*
D18*
G04 #@! TO.C,C3*
X24487500Y-10950000D03*
X24487500Y-9400000D03*
G04 #@! TD*
D20*
G04 #@! TO.C,C28*
X26287500Y-43850000D03*
X24737500Y-43850000D03*
G04 #@! TD*
D24*
G04 #@! TO.C,J3*
X32427500Y-11850000D03*
X34967500Y-11850000D03*
X37507500Y-11850000D03*
X40047500Y-11850000D03*
X42587500Y-11850000D03*
X45127500Y-11850000D03*
G04 #@! TD*
D25*
G04 #@! TO.C,C29*
X33162500Y-47400000D03*
X34712500Y-47400000D03*
G04 #@! TD*
D21*
G04 #@! TO.C,C5*
X31787500Y-25775000D03*
X31787500Y-27325000D03*
G04 #@! TD*
D15*
G04 #@! TO.C,R1*
X43087500Y-17425000D03*
X43087500Y-15775000D03*
G04 #@! TD*
D26*
G04 #@! TO.C,Y1*
X34987500Y-19725000D03*
X34987500Y-23025000D03*
X36987500Y-23025000D03*
X36987500Y-19725000D03*
G04 #@! TD*
D21*
G04 #@! TO.C,C9*
X20587500Y-25725000D03*
X20587500Y-27275000D03*
G04 #@! TD*
D27*
G04 #@! TO.C,J2*
X48587500Y-14375000D03*
X48587500Y-13375000D03*
X48587500Y-12375000D03*
X48587500Y-11375000D03*
D28*
X52462500Y-15675000D03*
X52462500Y-10075000D03*
G04 #@! TD*
D20*
G04 #@! TO.C,C19*
X21162500Y-36000000D03*
X19612500Y-36000000D03*
G04 #@! TD*
D18*
G04 #@! TO.C,C17*
X9987500Y-22050000D03*
X9987500Y-20500000D03*
G04 #@! TD*
D22*
G04 #@! TO.C,R7*
X12612500Y-10175000D03*
X10962500Y-10175000D03*
G04 #@! TD*
G04 #@! TO.C,R8*
X12612500Y-15675000D03*
X10962500Y-15675000D03*
G04 #@! TD*
D20*
G04 #@! TO.C,C2*
X21162500Y-37750000D03*
X19612500Y-37750000D03*
G04 #@! TD*
D21*
G04 #@! TO.C,C31*
X30812500Y-43825000D03*
X30812500Y-45375000D03*
G04 #@! TD*
D20*
G04 #@! TO.C,C25*
X23212500Y-40750000D03*
X21662500Y-40750000D03*
G04 #@! TD*
D29*
G04 #@! TO.C,R14*
X10962500Y-13675000D03*
X12612500Y-13675000D03*
G04 #@! TD*
D25*
G04 #@! TO.C,C13*
X35187501Y-15675000D03*
X36737501Y-15675000D03*
G04 #@! TD*
D19*
G04 #@! TO.C,SW7*
X7787500Y-33450000D03*
X1487500Y-33450000D03*
X7787500Y-29650000D03*
X1487500Y-29650000D03*
G04 #@! TD*
D30*
G04 #@! TO.C,R6*
X32362500Y-43775000D03*
X32362500Y-45425000D03*
G04 #@! TD*
G04 #@! TO.C,R11*
X9887500Y-24950000D03*
X9887500Y-26600000D03*
G04 #@! TD*
D31*
G04 #@! TO.C,D0*
X26987500Y-9662500D03*
X26987500Y-11237500D03*
G04 #@! TD*
D29*
G04 #@! TO.C,R13*
X10962500Y-12075000D03*
X12612500Y-12075000D03*
G04 #@! TD*
D20*
G04 #@! TO.C,C16*
X36762500Y-17375000D03*
X35212500Y-17375000D03*
G04 #@! TD*
D31*
G04 #@! TO.C,D1*
X43693750Y-22675000D03*
X43693750Y-24250000D03*
G04 #@! TD*
D25*
G04 #@! TO.C,C21*
X33412500Y-33600000D03*
X34962500Y-33600000D03*
G04 #@! TD*
D32*
G04 #@! TO.C,U5*
X25137500Y-24062500D03*
X25537500Y-24062500D03*
X25937500Y-24062500D03*
X26337500Y-24062500D03*
X26737500Y-24062500D03*
X27137500Y-24062500D03*
X27537500Y-24062500D03*
X27937500Y-24062500D03*
X28337500Y-24062500D03*
X28737500Y-24062500D03*
X29137500Y-24062500D03*
X29537500Y-24062500D03*
X29937500Y-24062500D03*
X30337500Y-24062500D03*
D33*
X31175000Y-23225000D03*
X31175000Y-22825000D03*
X31175000Y-22425000D03*
X31175000Y-22025000D03*
X31175000Y-21625000D03*
X31175000Y-21225000D03*
X31175000Y-20825000D03*
X31175000Y-20425000D03*
X31175000Y-20025000D03*
X31175000Y-19625000D03*
X31175000Y-19225000D03*
X31175000Y-18825000D03*
X31175000Y-18425000D03*
X31175000Y-18025000D03*
D32*
X30337500Y-17187500D03*
X29937500Y-17187500D03*
X29537500Y-17187500D03*
X29137500Y-17187500D03*
X28737500Y-17187500D03*
X28337500Y-17187500D03*
X27937500Y-17187500D03*
X27537500Y-17187500D03*
X27137500Y-17187500D03*
X26737500Y-17187500D03*
X26337500Y-17187500D03*
X25937500Y-17187500D03*
X25537500Y-17187500D03*
X25137500Y-17187500D03*
D33*
X24300000Y-18025000D03*
X24300000Y-18425000D03*
X24300000Y-18825000D03*
X24300000Y-19225000D03*
X24300000Y-19625000D03*
X24300000Y-20025000D03*
X24300000Y-20425000D03*
X24300000Y-20825000D03*
X24300000Y-21225000D03*
X24300000Y-21625000D03*
X24300000Y-22025000D03*
X24300000Y-22425000D03*
X24300000Y-22825000D03*
X24300000Y-23225000D03*
D34*
X26537500Y-21825000D03*
X27337500Y-21825000D03*
X28137500Y-21825000D03*
X28937500Y-21825000D03*
X26537500Y-21025000D03*
X27337500Y-21025000D03*
X28137500Y-21025000D03*
X28937500Y-21025000D03*
X26537500Y-20225000D03*
X27337500Y-20225000D03*
X28137500Y-20225000D03*
X28937500Y-20225000D03*
X26537500Y-19425000D03*
X27337500Y-19425000D03*
X28137500Y-19425000D03*
X28937500Y-19425000D03*
G04 #@! TD*
D18*
G04 #@! TO.C,C18*
X11787500Y-22050000D03*
X11787500Y-20500000D03*
G04 #@! TD*
D19*
G04 #@! TO.C,SW6*
X7737500Y-25350000D03*
X1437500Y-25350000D03*
X7737500Y-21550000D03*
X1437500Y-21550000D03*
G04 #@! TD*
D35*
G04 #@! TO.C,U1*
X22537500Y-8637500D03*
X21587500Y-8637500D03*
X20637500Y-8637500D03*
X20637500Y-10912500D03*
X22537500Y-10912500D03*
G04 #@! TD*
D25*
G04 #@! TO.C,C30*
X19212500Y-47350000D03*
X20762500Y-47350000D03*
G04 #@! TD*
D36*
G04 #@! TO.C,U3*
X24050000Y-32300000D03*
X24050000Y-32800000D03*
X24050000Y-33300000D03*
X24050000Y-33800000D03*
X24050000Y-34300000D03*
X24050000Y-34800000D03*
X24050000Y-35300000D03*
X24050000Y-35800000D03*
X24050000Y-36300000D03*
X24050000Y-36800000D03*
D37*
X24737500Y-37487500D03*
X25237500Y-37487500D03*
X25737500Y-37487500D03*
X26237500Y-37487500D03*
X26737500Y-37487500D03*
X27237500Y-37487500D03*
X27737500Y-37487500D03*
X28237500Y-37487500D03*
X28737500Y-37487500D03*
X29237500Y-37487500D03*
D36*
X29925000Y-36800000D03*
X29925000Y-36300000D03*
X29925000Y-35800000D03*
X29925000Y-35300000D03*
X29925000Y-34800000D03*
X29925000Y-34300000D03*
X29925000Y-33800000D03*
X29925000Y-33300000D03*
X29925000Y-32800000D03*
X29925000Y-32300000D03*
D37*
X29237500Y-31612500D03*
X28737500Y-31612500D03*
X28237500Y-31612500D03*
X27737500Y-31612500D03*
X27237500Y-31612500D03*
X26737500Y-31612500D03*
X26237500Y-31612500D03*
X25737500Y-31612500D03*
X25237500Y-31612500D03*
X24737500Y-31612500D03*
D38*
X26987500Y-34550000D03*
G04 #@! TD*
D20*
G04 #@! TO.C,C6*
X20462500Y-19675000D03*
X18912500Y-19675000D03*
G04 #@! TD*
D18*
G04 #@! TO.C,C7*
X24687500Y-14075000D03*
X24687500Y-12525000D03*
G04 #@! TD*
D21*
G04 #@! TO.C,C24*
X29987500Y-27625000D03*
X29987500Y-29175000D03*
G04 #@! TD*
D25*
G04 #@! TO.C,C15*
X35212500Y-25375000D03*
X36762500Y-25375000D03*
G04 #@! TD*
D15*
G04 #@! TO.C,R9*
X9887500Y-29900000D03*
X9887500Y-28250000D03*
G04 #@! TD*
D30*
G04 #@! TO.C,R5*
X21662500Y-43775000D03*
X21662500Y-45425000D03*
G04 #@! TD*
D19*
G04 #@! TO.C,SW1*
X46237500Y-21550000D03*
X52537500Y-21550000D03*
X46237500Y-25350000D03*
X52537500Y-25350000D03*
G04 #@! TD*
D21*
G04 #@! TO.C,C32*
X23212500Y-43825000D03*
X23212500Y-45375000D03*
G04 #@! TD*
D22*
G04 #@! TO.C,R4*
X23287500Y-42300000D03*
X21637500Y-42300000D03*
G04 #@! TD*
D15*
G04 #@! TO.C,R10*
X39837500Y-17450000D03*
X39837500Y-15800000D03*
G04 #@! TD*
D39*
G04 #@! TO.C,U4*
X11832500Y-31475000D03*
X13102500Y-31475000D03*
X14372500Y-31475000D03*
X15642500Y-31475000D03*
X15642500Y-24275000D03*
X14372500Y-24275000D03*
X13102500Y-24275000D03*
X11832500Y-24275000D03*
G04 #@! TD*
D30*
G04 #@! TO.C,R12*
X26987500Y-12875000D03*
X26987500Y-14525000D03*
G04 #@! TD*
D25*
G04 #@! TO.C,C4*
X33412500Y-37200000D03*
X34962500Y-37200000D03*
G04 #@! TD*
D15*
G04 #@! TO.C,R17*
X41843750Y-24287500D03*
X41843750Y-22637500D03*
G04 #@! TD*
G04 #@! TO.C,R18*
X41843750Y-32387500D03*
X41843750Y-30737500D03*
G04 #@! TD*
D20*
G04 #@! TO.C,C22*
X21162500Y-34200000D03*
X19612500Y-34200000D03*
G04 #@! TD*
D31*
G04 #@! TO.C,D2*
X43693750Y-30775000D03*
X43693750Y-32350000D03*
G04 #@! TD*
D20*
G04 #@! TO.C,C26*
X32312500Y-40750000D03*
X30762500Y-40750000D03*
G04 #@! TD*
D21*
G04 #@! TO.C,C1*
X18687500Y-8600000D03*
X18687500Y-10150000D03*
G04 #@! TD*
D40*
G04 #@! TO.C,L1*
X27725000Y-42300000D03*
X29300000Y-42300000D03*
G04 #@! TD*
D25*
G04 #@! TO.C,C20*
X33412500Y-31600000D03*
X34962500Y-31600000D03*
G04 #@! TD*
D41*
G04 #@! TO.C,R16*
X22562500Y-47400000D03*
X25487500Y-47400000D03*
G04 #@! TD*
M02*
