%TF.GenerationSoftware,KiCad,Pcbnew,7.0.1-0*%
%TF.CreationDate,2023-06-23T16:28:58+02:00*%
%TF.ProjectId,io_expander,696f5f65-7870-4616-9e64-65722e6b6963,1.0*%
%TF.SameCoordinates,PX3c8eee0PY3c8eee0*%
%TF.FileFunction,Copper,L1,Top*%
%TF.FilePolarity,Positive*%
%FSLAX46Y46*%
G04 Gerber Fmt 4.6, Leading zero omitted, Abs format (unit mm)*
G04 Created by KiCad (PCBNEW 7.0.1-0) date 2023-06-23 16:28:58*
%MOMM*%
%LPD*%
G01*
G04 APERTURE LIST*
G04 Aperture macros list*
%AMRoundRect*
0 Rectangle with rounded corners*
0 $1 Rounding radius*
0 $2 $3 $4 $5 $6 $7 $8 $9 X,Y pos of 4 corners*
0 Add a 4 corners polygon primitive as box body*
4,1,4,$2,$3,$4,$5,$6,$7,$8,$9,$2,$3,0*
0 Add four circle primitives for the rounded corners*
1,1,$1+$1,$2,$3*
1,1,$1+$1,$4,$5*
1,1,$1+$1,$6,$7*
1,1,$1+$1,$8,$9*
0 Add four rect primitives between the rounded corners*
20,1,$1+$1,$2,$3,$4,$5,0*
20,1,$1+$1,$4,$5,$6,$7,0*
20,1,$1+$1,$6,$7,$8,$9,0*
20,1,$1+$1,$8,$9,$2,$3,0*%
%AMFreePoly0*
4,1,6,1.000000,0.000000,0.500000,-0.750000,-0.500000,-0.750000,-0.500000,0.750000,0.500000,0.750000,1.000000,0.000000,1.000000,0.000000,$1*%
%AMFreePoly1*
4,1,6,0.500000,-0.750000,-0.650000,-0.750000,-0.150000,0.000000,-0.650000,0.750000,0.500000,0.750000,0.500000,-0.750000,0.500000,-0.750000,$1*%
G04 Aperture macros list end*
%TA.AperFunction,ComponentPad*%
%ADD10C,0.700000*%
%TD*%
%TA.AperFunction,ComponentPad*%
%ADD11C,4.400000*%
%TD*%
%TA.AperFunction,SMDPad,CuDef*%
%ADD12FreePoly0,180.000000*%
%TD*%
%TA.AperFunction,SMDPad,CuDef*%
%ADD13FreePoly1,180.000000*%
%TD*%
%TA.AperFunction,SMDPad,CuDef*%
%ADD14RoundRect,0.100000X-0.637500X-0.100000X0.637500X-0.100000X0.637500X0.100000X-0.637500X0.100000X0*%
%TD*%
%TA.AperFunction,SMDPad,CuDef*%
%ADD15C,1.000000*%
%TD*%
%TA.AperFunction,SMDPad,CuDef*%
%ADD16R,1.700000X1.000000*%
%TD*%
%TA.AperFunction,SMDPad,CuDef*%
%ADD17RoundRect,0.200000X0.200000X0.275000X-0.200000X0.275000X-0.200000X-0.275000X0.200000X-0.275000X0*%
%TD*%
%TA.AperFunction,SMDPad,CuDef*%
%ADD18RoundRect,0.150000X0.625000X-0.150000X0.625000X0.150000X-0.625000X0.150000X-0.625000X-0.150000X0*%
%TD*%
%TA.AperFunction,SMDPad,CuDef*%
%ADD19RoundRect,0.250000X0.650000X-0.350000X0.650000X0.350000X-0.650000X0.350000X-0.650000X-0.350000X0*%
%TD*%
%TA.AperFunction,SMDPad,CuDef*%
%ADD20RoundRect,0.150000X-0.625000X0.150000X-0.625000X-0.150000X0.625000X-0.150000X0.625000X0.150000X0*%
%TD*%
%TA.AperFunction,SMDPad,CuDef*%
%ADD21RoundRect,0.250000X-0.650000X0.350000X-0.650000X-0.350000X0.650000X-0.350000X0.650000X0.350000X0*%
%TD*%
%TA.AperFunction,SMDPad,CuDef*%
%ADD22RoundRect,0.218750X0.218750X0.256250X-0.218750X0.256250X-0.218750X-0.256250X0.218750X-0.256250X0*%
%TD*%
%TA.AperFunction,ViaPad*%
%ADD23C,0.600000*%
%TD*%
%TA.AperFunction,Conductor*%
%ADD24C,0.150000*%
%TD*%
%TA.AperFunction,Conductor*%
%ADD25C,0.300000*%
%TD*%
G04 APERTURE END LIST*
D10*
%TO.P,REF\u002A\u002A,1*%
%TO.N,N/C*%
X49162700Y-26035000D03*
X49645974Y-24868274D03*
X49645974Y-27201726D03*
X50812700Y-24385000D03*
D11*
%TO.N,GND*%
X50812700Y-26035000D03*
D10*
%TO.N,N/C*%
X50812700Y-27685000D03*
X51979426Y-24868274D03*
X51979426Y-27201726D03*
X52462700Y-26035000D03*
%TD*%
%TO.P,REF\u002A\u002A,1*%
%TO.N,N/C*%
X1537700Y-26035000D03*
X2020974Y-24868274D03*
X2020974Y-27201726D03*
X3187700Y-24385000D03*
D11*
%TO.N,GND*%
X3187700Y-26035000D03*
D10*
%TO.N,N/C*%
X3187700Y-27685000D03*
X4354426Y-24868274D03*
X4354426Y-27201726D03*
X4837700Y-26035000D03*
%TD*%
%TO.P,REF\u002A\u002A,1*%
%TO.N,N/C*%
X49162700Y-3175000D03*
X49645974Y-2008274D03*
X49645974Y-4341726D03*
X50812700Y-1525000D03*
D11*
%TO.N,GND*%
X50812700Y-3175000D03*
D10*
%TO.N,N/C*%
X50812700Y-4825000D03*
X51979426Y-2008274D03*
X51979426Y-4341726D03*
X52462700Y-3175000D03*
%TD*%
%TO.P,REF\u002A\u002A,1*%
%TO.N,N/C*%
X4354426Y-4341726D03*
X3187700Y-1525000D03*
X2020974Y-2008274D03*
X1537700Y-3175000D03*
X4354426Y-2008274D03*
X2020974Y-4341726D03*
X3187700Y-4825000D03*
D11*
%TO.N,GND*%
X3187700Y-3175000D03*
D10*
%TO.N,N/C*%
X4837700Y-3175000D03*
%TD*%
D12*
%TO.P,JP3,1,A*%
%TO.N,Net-(JP3-A)*%
X26442500Y-6350000D03*
D13*
%TO.P,JP3,2,B*%
%TO.N,GND*%
X24992500Y-6350000D03*
%TD*%
D12*
%TO.P,JP2,1,A*%
%TO.N,Net-(JP2-A)*%
X21362500Y-6350000D03*
D13*
%TO.P,JP2,2,B*%
%TO.N,GND*%
X19912500Y-6350000D03*
%TD*%
D12*
%TO.P,JP1,1,A*%
%TO.N,Net-(JP1-A)*%
X16282500Y-6350000D03*
D13*
%TO.P,JP1,2,B*%
%TO.N,GND*%
X14832500Y-6350000D03*
%TD*%
D14*
%TO.P,U1,1,A0*%
%TO.N,Net-(JP1-A)*%
X31745000Y-5345000D03*
%TO.P,U1,2,A1*%
%TO.N,Net-(JP2-A)*%
X31745000Y-5995000D03*
%TO.P,U1,3,A2*%
%TO.N,Net-(JP3-A)*%
X31745000Y-6645000D03*
%TO.P,U1,4,P0*%
%TO.N,P0*%
X31745000Y-7295000D03*
%TO.P,U1,5,P1*%
%TO.N,P1*%
X31745000Y-7945000D03*
%TO.P,U1,6,P2*%
%TO.N,P2*%
X31745000Y-8595000D03*
%TO.P,U1,7,P3*%
%TO.N,P3*%
X31745000Y-9245000D03*
%TO.P,U1,8,GND*%
%TO.N,GND*%
X31745000Y-9895000D03*
%TO.P,U1,9,P4*%
%TO.N,P4*%
X37470000Y-9895000D03*
%TO.P,U1,10,P5*%
%TO.N,P5*%
X37470000Y-9245000D03*
%TO.P,U1,11,P6*%
%TO.N,P6*%
X37470000Y-8595000D03*
%TO.P,U1,12,P7*%
%TO.N,P7*%
X37470000Y-7945000D03*
%TO.P,U1,13,~{INT}*%
%TO.N,Net-(U1-~{INT})*%
X37470000Y-7295000D03*
%TO.P,U1,14,SCL*%
%TO.N,/SCL*%
X37470000Y-6645000D03*
%TO.P,U1,15,SDA*%
%TO.N,/SDA*%
X37470000Y-5995000D03*
%TO.P,U1,16,VDD*%
%TO.N,VCC*%
X37470000Y-5345000D03*
%TD*%
D15*
%TO.P,TP1,1,1*%
%TO.N,Net-(U1-~{INT})*%
X42227500Y-10160000D03*
%TD*%
D16*
%TO.P,SW4,1,A*%
%TO.N,P3*%
X40982500Y-20706000D03*
X47282500Y-20706000D03*
%TO.P,SW4,2,B*%
%TO.N,GND*%
X47282500Y-24506000D03*
X40982500Y-24506000D03*
%TD*%
%TO.P,SW3,1,A*%
%TO.N,P2*%
X29552500Y-20706000D03*
X35852500Y-20706000D03*
%TO.P,SW3,2,B*%
%TO.N,GND*%
X35852500Y-24506000D03*
X29552500Y-24506000D03*
%TD*%
%TO.P,SW2,1,A*%
%TO.N,P1*%
X18122500Y-20706000D03*
X24422500Y-20706000D03*
%TO.P,SW2,2,B*%
%TO.N,GND*%
X24422500Y-24506000D03*
X18122500Y-24506000D03*
%TD*%
%TO.P,SW1,1,A*%
%TO.N,P0*%
X6692500Y-20706000D03*
X12992500Y-20706000D03*
%TO.P,SW1,2,B*%
%TO.N,GND*%
X12992500Y-24506000D03*
X6692500Y-24506000D03*
%TD*%
D17*
%TO.P,R4,1*%
%TO.N,Net-(D4-K)*%
X44957500Y-13970000D03*
%TO.P,R4,2*%
%TO.N,GND*%
X43307500Y-13970000D03*
%TD*%
%TO.P,R3,1*%
%TO.N,Net-(D3-K)*%
X33527500Y-13970000D03*
%TO.P,R3,2*%
%TO.N,GND*%
X31877500Y-13970000D03*
%TD*%
%TO.P,R2,1*%
%TO.N,Net-(D2-K)*%
X22097500Y-13970000D03*
%TO.P,R2,2*%
%TO.N,GND*%
X20447500Y-13970000D03*
%TD*%
%TO.P,R1,1*%
%TO.N,Net-(D1-K)*%
X10667500Y-13970000D03*
%TO.P,R1,2*%
%TO.N,GND*%
X9017500Y-13970000D03*
%TD*%
D18*
%TO.P,J2,1,Pin_1*%
%TO.N,GND*%
X48482500Y-11660000D03*
%TO.P,J2,2,Pin_2*%
%TO.N,VCC*%
X48482500Y-10660000D03*
%TO.P,J2,3,Pin_3*%
%TO.N,/SDA*%
X48482500Y-9660000D03*
%TO.P,J2,4,Pin_4*%
%TO.N,/SCL*%
X48482500Y-8660000D03*
D19*
%TO.P,J2,MP*%
%TO.N,N/C*%
X52357500Y-7360000D03*
X52357500Y-12960000D03*
%TD*%
D20*
%TO.P,J1,1,Pin_1*%
%TO.N,GND*%
X5492500Y-8660000D03*
%TO.P,J1,2,Pin_2*%
%TO.N,VCC*%
X5492500Y-9660000D03*
%TO.P,J1,3,Pin_3*%
%TO.N,/SDA*%
X5492500Y-10660000D03*
%TO.P,J1,4,Pin_4*%
%TO.N,/SCL*%
X5492500Y-11660000D03*
D21*
%TO.P,J1,MP*%
%TO.N,N/C*%
X1617500Y-12960000D03*
X1617500Y-7360000D03*
%TD*%
D22*
%TO.P,D4,1,K*%
%TO.N,Net-(D4-K)*%
X44920000Y-16510000D03*
%TO.P,D4,2,A*%
%TO.N,P7*%
X43345000Y-16510000D03*
%TD*%
%TO.P,D3,1,K*%
%TO.N,Net-(D3-K)*%
X33490000Y-16510000D03*
%TO.P,D3,2,A*%
%TO.N,P6*%
X31915000Y-16510000D03*
%TD*%
%TO.P,D2,1,K*%
%TO.N,Net-(D2-K)*%
X22060000Y-16510000D03*
%TO.P,D2,2,A*%
%TO.N,P5*%
X20485000Y-16510000D03*
%TD*%
%TO.P,D1,1,K*%
%TO.N,Net-(D1-K)*%
X10630000Y-16510000D03*
%TO.P,D1,2,A*%
%TO.N,P4*%
X9055000Y-16510000D03*
%TD*%
D23*
%TO.N,GND*%
X23685500Y-6350000D03*
X18605500Y-6350000D03*
X13525500Y-6350000D03*
X44132500Y-15240000D03*
X32702500Y-15240000D03*
X21272500Y-15240000D03*
X9842500Y-15240000D03*
X34607500Y-8001000D03*
%TD*%
D24*
%TO.N,Net-(D1-K)*%
X10630000Y-16510000D02*
X10630000Y-14007500D01*
X10630000Y-14007500D02*
X10667500Y-13970000D01*
%TO.N,P1*%
X31745000Y-7945000D02*
X30159058Y-7945000D01*
X28152557Y-9951501D02*
X10092883Y-9951501D01*
X10092883Y-9951501D02*
X6830498Y-13213886D01*
X15176500Y-19050000D02*
X16832500Y-20706000D01*
X30159058Y-7945000D02*
X28152557Y-9951501D01*
X6830498Y-13213886D02*
X6830498Y-17688998D01*
X6830498Y-17688998D02*
X8191500Y-19050000D01*
X8191500Y-19050000D02*
X15176500Y-19050000D01*
X16832500Y-20706000D02*
X18122500Y-20706000D01*
%TO.N,P2*%
X29552500Y-20706000D02*
X28262500Y-20706000D01*
X28262500Y-20706000D02*
X26306999Y-18750499D01*
X26306999Y-18750499D02*
X8315557Y-18750499D01*
X8315557Y-18750499D02*
X7129999Y-17564941D01*
X7129999Y-17564941D02*
X7129999Y-13337943D01*
X10216940Y-10251002D02*
X28276614Y-10251002D01*
X7129999Y-13337943D02*
X10216940Y-10251002D01*
X28276614Y-10251002D02*
X29932616Y-8595000D01*
X29932616Y-8595000D02*
X31745000Y-8595000D01*
%TO.N,P3*%
X31745000Y-9245000D02*
X29706174Y-9245000D01*
X29706174Y-9245000D02*
X28400671Y-10550503D01*
X10340997Y-10550503D02*
X7429500Y-13462000D01*
X28400671Y-10550503D02*
X10340997Y-10550503D01*
X7429500Y-13462000D02*
X7429500Y-17440884D01*
X7429500Y-17440884D02*
X8439614Y-18450998D01*
X8439614Y-18450998D02*
X37437498Y-18450998D01*
X37437498Y-18450998D02*
X39692500Y-20706000D01*
X39692500Y-20706000D02*
X40982500Y-20706000D01*
X40982500Y-20706000D02*
X47282500Y-20706000D01*
%TO.N,P2*%
X29552500Y-20706000D02*
X35852500Y-20706000D01*
%TO.N,P1*%
X18122500Y-20706000D02*
X24422500Y-20706000D01*
%TO.N,P0*%
X6692500Y-20706000D02*
X12992500Y-20706000D01*
%TO.N,/SDA*%
X47692876Y-5995000D02*
X49726999Y-8029123D01*
D25*
%TO.N,VCC*%
X37470000Y-5345000D02*
X47572500Y-5345000D01*
D24*
%TO.N,/SDA*%
X49726999Y-8029123D02*
X49726999Y-9264501D01*
X49726999Y-9264501D02*
X49339500Y-9652000D01*
X37470000Y-5995000D02*
X47692876Y-5995000D01*
X48490500Y-9652000D02*
X48482500Y-9660000D01*
X49339500Y-9652000D02*
X48490500Y-9652000D01*
D25*
%TO.N,VCC*%
X50101500Y-10160000D02*
X49601500Y-10660000D01*
X47572500Y-5345000D02*
X50101500Y-7874000D01*
X50101500Y-7874000D02*
X50101500Y-10160000D01*
X49601500Y-10660000D02*
X48482500Y-10660000D01*
D24*
%TO.N,/SCL*%
X37470000Y-6645000D02*
X47602500Y-6645000D01*
X47602500Y-6645000D02*
X48482500Y-7525000D01*
X48482500Y-7525000D02*
X48482500Y-8660000D01*
X14820680Y-3468002D02*
X32995502Y-3468002D01*
%TO.N,/SDA*%
X14696623Y-3168501D02*
X33119559Y-3168501D01*
%TO.N,/SCL*%
X6628682Y-11660000D02*
X14820680Y-3468002D01*
D25*
%TO.N,VCC*%
X5492500Y-9660000D02*
X7675500Y-9660000D01*
X33337500Y-2794000D02*
X35888500Y-5345000D01*
D24*
%TO.N,/SCL*%
X5492500Y-11660000D02*
X6628682Y-11660000D01*
X32995502Y-3468002D02*
X36172500Y-6645000D01*
%TO.N,/SDA*%
X33119559Y-3168501D02*
X35946058Y-5995000D01*
D25*
%TO.N,VCC*%
X35888500Y-5345000D02*
X37470000Y-5345000D01*
D24*
%TO.N,/SDA*%
X35946058Y-5995000D02*
X37470000Y-5995000D01*
X7205124Y-10660000D02*
X14696623Y-3168501D01*
X5492500Y-10660000D02*
X7205124Y-10660000D01*
%TO.N,/SCL*%
X36172500Y-6645000D02*
X37470000Y-6645000D01*
D25*
%TO.N,VCC*%
X7675500Y-9660000D02*
X14541500Y-2794000D01*
X14541500Y-2794000D02*
X33337500Y-2794000D01*
D24*
%TO.N,Net-(JP3-A)*%
X31745000Y-6645000D02*
X30289500Y-6645000D01*
X30096100Y-6451600D02*
X26544100Y-6451600D01*
X30289500Y-6645000D02*
X30096100Y-6451600D01*
X26544100Y-6451600D02*
X26442500Y-6350000D01*
%TO.N,Net-(JP1-A)*%
X30216058Y-5345000D02*
X29189058Y-4318000D01*
X31745000Y-5345000D02*
X30216058Y-5345000D01*
X19113500Y-4318000D02*
X17081500Y-6350000D01*
%TO.N,Net-(JP2-A)*%
X23893999Y-4617501D02*
X22161500Y-6350000D01*
%TO.N,Net-(JP1-A)*%
X17081500Y-6350000D02*
X16282500Y-6350000D01*
X29189058Y-4318000D02*
X19113500Y-4318000D01*
%TO.N,Net-(JP2-A)*%
X31745000Y-5995000D02*
X30442500Y-5995000D01*
X30442500Y-5995000D02*
X29065001Y-4617501D01*
X29065001Y-4617501D02*
X23893999Y-4617501D01*
X22161500Y-6350000D02*
X21362500Y-6350000D01*
%TO.N,P6*%
X37470000Y-8595000D02*
X38546058Y-8595000D01*
X37909500Y-17526000D02*
X32321500Y-17526000D01*
X39641999Y-9690941D02*
X39641999Y-15793501D01*
X39641999Y-15793501D02*
X37909500Y-17526000D01*
X38546058Y-8595000D02*
X39641999Y-9690941D01*
X31915000Y-17119500D02*
X31915000Y-16510000D01*
X32321500Y-17526000D02*
X31915000Y-17119500D01*
%TO.N,P7*%
X37470000Y-7945000D02*
X38319616Y-7945000D01*
X39941500Y-9566884D02*
X39941500Y-15748000D01*
X39941500Y-15748000D02*
X40703500Y-16510000D01*
X38319616Y-7945000D02*
X39941500Y-9566884D01*
X40703500Y-16510000D02*
X43345000Y-16510000D01*
%TO.N,P4*%
X9461500Y-17526000D02*
X9055000Y-17119500D01*
%TO.N,P5*%
X20485000Y-17119500D02*
X20485000Y-16510000D01*
%TO.N,P4*%
X18143001Y-11638499D02*
X12255500Y-17526000D01*
X38717001Y-11638499D02*
X18143001Y-11638499D01*
X39042997Y-10023497D02*
X39042997Y-11312503D01*
%TO.N,P5*%
X30035500Y-11938000D02*
X24447500Y-17526000D01*
%TO.N,P4*%
X38914500Y-9895000D02*
X39042997Y-10023497D01*
%TO.N,P5*%
X20891500Y-17526000D02*
X20485000Y-17119500D01*
X39342498Y-9899440D02*
X39342498Y-11521002D01*
%TO.N,P4*%
X37470000Y-9895000D02*
X38914500Y-9895000D01*
%TO.N,P5*%
X37470000Y-9245000D02*
X38688058Y-9245000D01*
%TO.N,P4*%
X9055000Y-17119500D02*
X9055000Y-16510000D01*
%TO.N,P5*%
X39342498Y-11521002D02*
X38925500Y-11938000D01*
X24447500Y-17526000D02*
X20891500Y-17526000D01*
X38688058Y-9245000D02*
X39342498Y-9899440D01*
X38925500Y-11938000D02*
X30035500Y-11938000D01*
%TO.N,P4*%
X12255500Y-17526000D02*
X9461500Y-17526000D01*
X39042997Y-11312503D02*
X38717001Y-11638499D01*
%TO.N,P0*%
X28028500Y-9652000D02*
X30385500Y-7295000D01*
X6692500Y-20706000D02*
X6530997Y-20544497D01*
X9968826Y-9652000D02*
X28028500Y-9652000D01*
X30385500Y-7295000D02*
X31745000Y-7295000D01*
X6530997Y-20544497D02*
X6530997Y-13089829D01*
X6530997Y-13089829D02*
X9968826Y-9652000D01*
%TO.N,Net-(D2-K)*%
X22060000Y-16510000D02*
X22060000Y-14007500D01*
X22060000Y-14007500D02*
X22097500Y-13970000D01*
%TO.N,Net-(D3-K)*%
X33490000Y-16510000D02*
X33490000Y-14007500D01*
X33490000Y-14007500D02*
X33527500Y-13970000D01*
%TO.N,Net-(D4-K)*%
X44957500Y-13970000D02*
X44957500Y-16472500D01*
X44957500Y-16472500D02*
X44920000Y-16510000D01*
%TO.N,Net-(U1-~{INT})*%
X37470000Y-7295000D02*
X41140500Y-7295000D01*
X41140500Y-7295000D02*
X42227500Y-8382000D01*
X42227500Y-8382000D02*
X42227500Y-10160000D01*
%TD*%
%TA.AperFunction,Conductor*%
%TO.N,GND*%
G36*
X50141627Y-25222506D02*
G01*
X50812699Y-25893578D01*
X51483771Y-25222506D01*
X51530421Y-25196304D01*
X51583893Y-25198202D01*
X51628567Y-25227647D01*
X51629880Y-25229161D01*
X51651820Y-25272953D01*
X51650082Y-25321902D01*
X51625092Y-25364027D01*
X50954121Y-26034999D01*
X51625092Y-26705971D01*
X51650078Y-26748085D01*
X51651825Y-26797022D01*
X51629904Y-26840809D01*
X51628592Y-26842323D01*
X51583918Y-26871789D01*
X51530435Y-26873698D01*
X51483772Y-26847493D01*
X50812699Y-26176421D01*
X50141625Y-26847493D01*
X50094963Y-26873698D01*
X50041480Y-26871789D01*
X49996806Y-26842323D01*
X49995494Y-26840809D01*
X49973573Y-26797022D01*
X49975320Y-26748085D01*
X50000306Y-26705971D01*
X50671278Y-26034999D01*
X50000307Y-25364028D01*
X49975321Y-25321914D01*
X49973574Y-25272977D01*
X49995495Y-25229190D01*
X49996807Y-25227676D01*
X50041481Y-25198210D01*
X50094964Y-25196301D01*
X50141627Y-25222506D01*
G37*
%TD.AperFunction*%
%TA.AperFunction,Conductor*%
G36*
X2516627Y-25222506D02*
G01*
X3187699Y-25893578D01*
X3858771Y-25222506D01*
X3905421Y-25196304D01*
X3958893Y-25198202D01*
X4003567Y-25227647D01*
X4004880Y-25229161D01*
X4026820Y-25272953D01*
X4025082Y-25321902D01*
X4000092Y-25364027D01*
X3329121Y-26034999D01*
X4000092Y-26705971D01*
X4025078Y-26748085D01*
X4026825Y-26797022D01*
X4004904Y-26840809D01*
X4003592Y-26842323D01*
X3958918Y-26871789D01*
X3905435Y-26873698D01*
X3858772Y-26847493D01*
X3187699Y-26176421D01*
X2516625Y-26847493D01*
X2469963Y-26873698D01*
X2416480Y-26871789D01*
X2371806Y-26842323D01*
X2370494Y-26840809D01*
X2348573Y-26797022D01*
X2350320Y-26748085D01*
X2375306Y-26705971D01*
X3046278Y-26034999D01*
X2375307Y-25364028D01*
X2350321Y-25321914D01*
X2348574Y-25272977D01*
X2370495Y-25229190D01*
X2371807Y-25227676D01*
X2416481Y-25198210D01*
X2469964Y-25196301D01*
X2516627Y-25222506D01*
G37*
%TD.AperFunction*%
%TA.AperFunction,Conductor*%
G36*
X50141627Y-2362506D02*
G01*
X50812699Y-3033578D01*
X51483771Y-2362506D01*
X51530421Y-2336304D01*
X51583893Y-2338202D01*
X51628567Y-2367647D01*
X51629880Y-2369161D01*
X51651820Y-2412953D01*
X51650082Y-2461902D01*
X51625092Y-2504027D01*
X50954121Y-3174999D01*
X51625092Y-3845971D01*
X51650078Y-3888085D01*
X51651825Y-3937022D01*
X51629904Y-3980809D01*
X51628592Y-3982323D01*
X51583918Y-4011789D01*
X51530435Y-4013698D01*
X51483772Y-3987493D01*
X50812699Y-3316421D01*
X50141625Y-3987493D01*
X50094963Y-4013698D01*
X50041480Y-4011789D01*
X49996806Y-3982323D01*
X49995494Y-3980809D01*
X49973573Y-3937022D01*
X49975320Y-3888085D01*
X50000306Y-3845971D01*
X50671278Y-3174999D01*
X50000307Y-2504028D01*
X49975321Y-2461914D01*
X49973574Y-2412977D01*
X49995495Y-2369190D01*
X49996807Y-2367676D01*
X50041481Y-2338210D01*
X50094964Y-2336301D01*
X50141627Y-2362506D01*
G37*
%TD.AperFunction*%
%TA.AperFunction,Conductor*%
G36*
X2516627Y-2362506D02*
G01*
X3187699Y-3033578D01*
X3858771Y-2362506D01*
X3905421Y-2336304D01*
X3958893Y-2338202D01*
X4003567Y-2367647D01*
X4004880Y-2369161D01*
X4026820Y-2412953D01*
X4025082Y-2461902D01*
X4000092Y-2504027D01*
X3329121Y-3174999D01*
X4000092Y-3845971D01*
X4025078Y-3888085D01*
X4026825Y-3937022D01*
X4004904Y-3980809D01*
X4003592Y-3982323D01*
X3958918Y-4011789D01*
X3905435Y-4013698D01*
X3858772Y-3987493D01*
X3187699Y-3316421D01*
X2516625Y-3987493D01*
X2469963Y-4013698D01*
X2416480Y-4011789D01*
X2371806Y-3982323D01*
X2370494Y-3980809D01*
X2348573Y-3937022D01*
X2350320Y-3888085D01*
X2375306Y-3845971D01*
X3046278Y-3174999D01*
X2375307Y-2504028D01*
X2350321Y-2461914D01*
X2348574Y-2412977D01*
X2370495Y-2369190D01*
X2371807Y-2367676D01*
X2416481Y-2338210D01*
X2469964Y-2336301D01*
X2516627Y-2362506D01*
G37*
%TD.AperFunction*%
%TA.AperFunction,Conductor*%
G36*
X50802594Y-200635D02*
G01*
X51105741Y-216523D01*
X51116037Y-217605D01*
X51413316Y-264689D01*
X51423428Y-266838D01*
X51714170Y-344742D01*
X51724013Y-347940D01*
X52004990Y-455798D01*
X52014456Y-460012D01*
X52282626Y-596652D01*
X52291601Y-601833D01*
X52544025Y-765758D01*
X52552397Y-771842D01*
X52611816Y-819958D01*
X52786296Y-961250D01*
X52793987Y-968174D01*
X52961287Y-1135473D01*
X53006811Y-1180997D01*
X53013744Y-1188698D01*
X53203161Y-1422608D01*
X53209248Y-1430986D01*
X53354102Y-1654042D01*
X53373163Y-1683393D01*
X53378345Y-1692367D01*
X53514989Y-1960546D01*
X53519197Y-1969998D01*
X53627056Y-2250979D01*
X53630258Y-2260833D01*
X53708158Y-2551559D01*
X53710312Y-2561695D01*
X53757393Y-2858958D01*
X53758476Y-2869263D01*
X53774365Y-3172427D01*
X53774501Y-3177609D01*
X53774501Y-26032432D01*
X53774365Y-26037614D01*
X53758478Y-26340736D01*
X53757395Y-26351041D01*
X53710314Y-26648304D01*
X53708160Y-26658440D01*
X53630261Y-26949164D01*
X53627058Y-26959020D01*
X53519203Y-27239990D01*
X53514989Y-27249456D01*
X53378347Y-27517633D01*
X53373165Y-27526607D01*
X53209250Y-27779014D01*
X53203159Y-27787398D01*
X53013755Y-28021292D01*
X53006822Y-28028993D01*
X52793994Y-28241821D01*
X52786293Y-28248754D01*
X52552399Y-28438158D01*
X52544015Y-28444249D01*
X52291608Y-28608164D01*
X52282634Y-28613346D01*
X52014462Y-28749987D01*
X52004995Y-28754202D01*
X51724014Y-28862059D01*
X51714159Y-28865261D01*
X51423441Y-28943160D01*
X51413305Y-28945314D01*
X51116042Y-28992395D01*
X51105737Y-28993478D01*
X50826223Y-29008127D01*
X50802631Y-29009364D01*
X50797452Y-29009500D01*
X3177586Y-29009500D01*
X3172406Y-29009364D01*
X3146844Y-29008024D01*
X2869262Y-28993476D01*
X2858957Y-28992393D01*
X2561695Y-28945312D01*
X2551559Y-28943158D01*
X2260835Y-28865259D01*
X2250979Y-28862056D01*
X1970009Y-28754201D01*
X1960543Y-28749987D01*
X1692373Y-28613347D01*
X1683399Y-28608166D01*
X1430979Y-28444244D01*
X1422595Y-28438152D01*
X1406494Y-28425114D01*
X1188703Y-28248749D01*
X1181008Y-28241821D01*
X968187Y-28029001D01*
X961255Y-28021301D01*
X771838Y-27787391D01*
X765752Y-27779014D01*
X601832Y-27526599D01*
X596655Y-27517633D01*
X460006Y-27249445D01*
X455805Y-27240010D01*
X347936Y-26959001D01*
X344741Y-26949166D01*
X266838Y-26658428D01*
X264689Y-26648316D01*
X217605Y-26351036D01*
X216523Y-26340735D01*
X200635Y-26037572D01*
X200567Y-26035000D01*
X832658Y-26035000D01*
X852805Y-26342393D01*
X912904Y-26644531D01*
X1011925Y-26936237D01*
X1148173Y-27212518D01*
X1319322Y-27468661D01*
X1456357Y-27624919D01*
X1525319Y-27555958D01*
X1571980Y-27529752D01*
X1625461Y-27531660D01*
X1670136Y-27561123D01*
X1671449Y-27562638D01*
X1693372Y-27606426D01*
X1691627Y-27655364D01*
X1666640Y-27697479D01*
X1597778Y-27766340D01*
X1597779Y-27766341D01*
X1754038Y-27903377D01*
X2010181Y-28074526D01*
X2286462Y-28210774D01*
X2578168Y-28309795D01*
X2880306Y-28369894D01*
X3187700Y-28390041D01*
X3495093Y-28369894D01*
X3797231Y-28309795D01*
X4088937Y-28210774D01*
X4365218Y-28074526D01*
X4621357Y-27903380D01*
X4777620Y-27766340D01*
X4708759Y-27697479D01*
X4683773Y-27655366D01*
X4682026Y-27606429D01*
X4703947Y-27562642D01*
X4703951Y-27562638D01*
X4705259Y-27561127D01*
X4749933Y-27531662D01*
X4803416Y-27529753D01*
X4850078Y-27555958D01*
X4919040Y-27624919D01*
X5056080Y-27468657D01*
X5227226Y-27212518D01*
X5363474Y-26936237D01*
X5462495Y-26644531D01*
X5522594Y-26342393D01*
X5542741Y-26035000D01*
X48457658Y-26035000D01*
X48477805Y-26342393D01*
X48537904Y-26644531D01*
X48636925Y-26936237D01*
X48773173Y-27212518D01*
X48944322Y-27468661D01*
X49081357Y-27624919D01*
X49150319Y-27555958D01*
X49196980Y-27529752D01*
X49250461Y-27531660D01*
X49295136Y-27561123D01*
X49296449Y-27562638D01*
X49318372Y-27606426D01*
X49316627Y-27655364D01*
X49291640Y-27697479D01*
X49222778Y-27766340D01*
X49222779Y-27766341D01*
X49379038Y-27903377D01*
X49635181Y-28074526D01*
X49911462Y-28210774D01*
X50203168Y-28309795D01*
X50505306Y-28369894D01*
X50812700Y-28390041D01*
X51120093Y-28369894D01*
X51422231Y-28309795D01*
X51713937Y-28210774D01*
X51990218Y-28074526D01*
X52246357Y-27903380D01*
X52402620Y-27766340D01*
X52333759Y-27697479D01*
X52308773Y-27655366D01*
X52307026Y-27606429D01*
X52328947Y-27562642D01*
X52328951Y-27562638D01*
X52330259Y-27561127D01*
X52374933Y-27531662D01*
X52428416Y-27529753D01*
X52475078Y-27555958D01*
X52544040Y-27624919D01*
X52681080Y-27468657D01*
X52852226Y-27212518D01*
X52988474Y-26936237D01*
X53087495Y-26644531D01*
X53147594Y-26342393D01*
X53167741Y-26035000D01*
X53147594Y-25727606D01*
X53087495Y-25425468D01*
X52988474Y-25133762D01*
X52852226Y-24857481D01*
X52681077Y-24601338D01*
X52544041Y-24445079D01*
X52544040Y-24445078D01*
X52475077Y-24514041D01*
X52428404Y-24540249D01*
X52374912Y-24538330D01*
X52330238Y-24508848D01*
X52328923Y-24507330D01*
X52307020Y-24463547D01*
X52308775Y-24414621D01*
X52333759Y-24372518D01*
X52402619Y-24303657D01*
X52246361Y-24166622D01*
X51990218Y-23995473D01*
X51713937Y-23859225D01*
X51422231Y-23760204D01*
X51120093Y-23700105D01*
X50812700Y-23679958D01*
X50505306Y-23700105D01*
X50203168Y-23760204D01*
X49911462Y-23859225D01*
X49635181Y-23995473D01*
X49379038Y-24166621D01*
X49222779Y-24303657D01*
X49222778Y-24303658D01*
X49291640Y-24372520D01*
X49316623Y-24414623D01*
X49318377Y-24463549D01*
X49296474Y-24507333D01*
X49295162Y-24508848D01*
X49250486Y-24538331D01*
X49196993Y-24540250D01*
X49150320Y-24514042D01*
X49081357Y-24445079D01*
X48944321Y-24601338D01*
X48773173Y-24857481D01*
X48636925Y-25133762D01*
X48537904Y-25425468D01*
X48477805Y-25727606D01*
X48457658Y-26035000D01*
X5542741Y-26035000D01*
X5542741Y-26034999D01*
X5522594Y-25727606D01*
X5462495Y-25425468D01*
X5363474Y-25133762D01*
X5307755Y-25020776D01*
X5692501Y-25020776D01*
X5701202Y-25064526D01*
X5734355Y-25114143D01*
X5783972Y-25147296D01*
X5827726Y-25156000D01*
X6592499Y-25156000D01*
X6592500Y-25155999D01*
X6592500Y-25155998D01*
X6792500Y-25155998D01*
X6792501Y-25155999D01*
X7557276Y-25155999D01*
X7601026Y-25147297D01*
X7650643Y-25114144D01*
X7683796Y-25064527D01*
X7692500Y-25020776D01*
X11992501Y-25020776D01*
X12001202Y-25064526D01*
X12034355Y-25114143D01*
X12083972Y-25147296D01*
X12127726Y-25156000D01*
X12892499Y-25156000D01*
X12892500Y-25155999D01*
X12892500Y-25155998D01*
X13092500Y-25155998D01*
X13092501Y-25155999D01*
X13857276Y-25155999D01*
X13901026Y-25147297D01*
X13950643Y-25114144D01*
X13983796Y-25064527D01*
X13992500Y-25020776D01*
X17122501Y-25020776D01*
X17131202Y-25064526D01*
X17164355Y-25114143D01*
X17213972Y-25147296D01*
X17257726Y-25156000D01*
X18022499Y-25156000D01*
X18022500Y-25155999D01*
X18022500Y-25155998D01*
X18222500Y-25155998D01*
X18222501Y-25155999D01*
X18987276Y-25155999D01*
X19031026Y-25147297D01*
X19080643Y-25114144D01*
X19113796Y-25064527D01*
X19122500Y-25020776D01*
X23422501Y-25020776D01*
X23431202Y-25064526D01*
X23464355Y-25114143D01*
X23513972Y-25147296D01*
X23557726Y-25156000D01*
X24322499Y-25156000D01*
X24322500Y-25155999D01*
X24322500Y-25155998D01*
X24522500Y-25155998D01*
X24522501Y-25155999D01*
X25287276Y-25155999D01*
X25331026Y-25147297D01*
X25380643Y-25114144D01*
X25413796Y-25064527D01*
X25422500Y-25020776D01*
X28552501Y-25020776D01*
X28561202Y-25064526D01*
X28594355Y-25114143D01*
X28643972Y-25147296D01*
X28687726Y-25156000D01*
X29452499Y-25156000D01*
X29452500Y-25155999D01*
X29452500Y-25155998D01*
X29652500Y-25155998D01*
X29652501Y-25155999D01*
X30417276Y-25155999D01*
X30461026Y-25147297D01*
X30510643Y-25114144D01*
X30543796Y-25064527D01*
X30552500Y-25020776D01*
X34852501Y-25020776D01*
X34861202Y-25064526D01*
X34894355Y-25114143D01*
X34943972Y-25147296D01*
X34987726Y-25156000D01*
X35752499Y-25156000D01*
X35752500Y-25155999D01*
X35752500Y-25155998D01*
X35952500Y-25155998D01*
X35952501Y-25155999D01*
X36717276Y-25155999D01*
X36761026Y-25147297D01*
X36810643Y-25114144D01*
X36843796Y-25064527D01*
X36852500Y-25020776D01*
X39982501Y-25020776D01*
X39991202Y-25064526D01*
X40024355Y-25114143D01*
X40073972Y-25147296D01*
X40117726Y-25156000D01*
X40882499Y-25156000D01*
X40882500Y-25155999D01*
X40882500Y-25155998D01*
X41082500Y-25155998D01*
X41082501Y-25155999D01*
X41847276Y-25155999D01*
X41891026Y-25147297D01*
X41940643Y-25114144D01*
X41973796Y-25064527D01*
X41982500Y-25020776D01*
X46282501Y-25020776D01*
X46291202Y-25064526D01*
X46324355Y-25114143D01*
X46373972Y-25147296D01*
X46417726Y-25156000D01*
X47182499Y-25156000D01*
X47182500Y-25155999D01*
X47182500Y-25155998D01*
X47382500Y-25155998D01*
X47382501Y-25155999D01*
X48147276Y-25155999D01*
X48191026Y-25147297D01*
X48240643Y-25114144D01*
X48273796Y-25064527D01*
X48282500Y-25020774D01*
X48282500Y-24606001D01*
X48282499Y-24606000D01*
X47382501Y-24606000D01*
X47382500Y-24606001D01*
X47382500Y-25155998D01*
X47182500Y-25155998D01*
X47182500Y-24606001D01*
X47182499Y-24606000D01*
X46282502Y-24606000D01*
X46282501Y-24606001D01*
X46282501Y-25020776D01*
X41982500Y-25020776D01*
X41982500Y-25020774D01*
X41982500Y-24606001D01*
X41982499Y-24606000D01*
X41082501Y-24606000D01*
X41082500Y-24606001D01*
X41082500Y-25155998D01*
X40882500Y-25155998D01*
X40882500Y-24606001D01*
X40882499Y-24606000D01*
X39982502Y-24606000D01*
X39982501Y-24606001D01*
X39982501Y-25020776D01*
X36852500Y-25020776D01*
X36852500Y-25020774D01*
X36852500Y-24606001D01*
X36852499Y-24606000D01*
X35952501Y-24606000D01*
X35952500Y-24606001D01*
X35952500Y-25155998D01*
X35752500Y-25155998D01*
X35752500Y-24606001D01*
X35752499Y-24606000D01*
X34852502Y-24606000D01*
X34852501Y-24606001D01*
X34852501Y-25020776D01*
X30552500Y-25020776D01*
X30552500Y-25020774D01*
X30552500Y-24606001D01*
X30552499Y-24606000D01*
X29652501Y-24606000D01*
X29652500Y-24606001D01*
X29652500Y-25155998D01*
X29452500Y-25155998D01*
X29452500Y-24606001D01*
X29452499Y-24606000D01*
X28552502Y-24606000D01*
X28552501Y-24606001D01*
X28552501Y-25020776D01*
X25422500Y-25020776D01*
X25422500Y-25020774D01*
X25422500Y-24606001D01*
X25422499Y-24606000D01*
X24522501Y-24606000D01*
X24522500Y-24606001D01*
X24522500Y-25155998D01*
X24322500Y-25155998D01*
X24322500Y-24606001D01*
X24322499Y-24606000D01*
X23422502Y-24606000D01*
X23422501Y-24606001D01*
X23422501Y-25020776D01*
X19122500Y-25020776D01*
X19122500Y-25020774D01*
X19122500Y-24606001D01*
X19122499Y-24606000D01*
X18222501Y-24606000D01*
X18222500Y-24606001D01*
X18222500Y-25155998D01*
X18022500Y-25155998D01*
X18022500Y-24606001D01*
X18022499Y-24606000D01*
X17122502Y-24606000D01*
X17122501Y-24606001D01*
X17122501Y-25020776D01*
X13992500Y-25020776D01*
X13992500Y-25020774D01*
X13992500Y-24606001D01*
X13992499Y-24606000D01*
X13092501Y-24606000D01*
X13092500Y-24606001D01*
X13092500Y-25155998D01*
X12892500Y-25155998D01*
X12892500Y-24606001D01*
X12892499Y-24606000D01*
X11992502Y-24606000D01*
X11992501Y-24606001D01*
X11992501Y-25020776D01*
X7692500Y-25020776D01*
X7692500Y-25020774D01*
X7692500Y-24606001D01*
X7692499Y-24606000D01*
X6792501Y-24606000D01*
X6792500Y-24606001D01*
X6792500Y-25155998D01*
X6592500Y-25155998D01*
X6592500Y-24606001D01*
X6592499Y-24606000D01*
X5692502Y-24606000D01*
X5692501Y-24606001D01*
X5692501Y-25020776D01*
X5307755Y-25020776D01*
X5227226Y-24857481D01*
X5056077Y-24601338D01*
X4919041Y-24445079D01*
X4919040Y-24445078D01*
X4850077Y-24514041D01*
X4803404Y-24540249D01*
X4749912Y-24538330D01*
X4705238Y-24508848D01*
X4703923Y-24507330D01*
X4682020Y-24463547D01*
X4683775Y-24414621D01*
X4688891Y-24405999D01*
X5692500Y-24405999D01*
X5692501Y-24406000D01*
X6592499Y-24406000D01*
X6592500Y-24405999D01*
X6792500Y-24405999D01*
X6792501Y-24406000D01*
X7692498Y-24406000D01*
X7692499Y-24405999D01*
X11992500Y-24405999D01*
X11992501Y-24406000D01*
X12892499Y-24406000D01*
X12892500Y-24405999D01*
X13092500Y-24405999D01*
X13092501Y-24406000D01*
X13992498Y-24406000D01*
X13992499Y-24405999D01*
X17122500Y-24405999D01*
X17122501Y-24406000D01*
X18022499Y-24406000D01*
X18022500Y-24405999D01*
X18222500Y-24405999D01*
X18222501Y-24406000D01*
X19122498Y-24406000D01*
X19122499Y-24405999D01*
X23422500Y-24405999D01*
X23422501Y-24406000D01*
X24322499Y-24406000D01*
X24322500Y-24405999D01*
X24522500Y-24405999D01*
X24522501Y-24406000D01*
X25422498Y-24406000D01*
X25422499Y-24405999D01*
X28552500Y-24405999D01*
X28552501Y-24406000D01*
X29452499Y-24406000D01*
X29452500Y-24405999D01*
X29652500Y-24405999D01*
X29652501Y-24406000D01*
X30552498Y-24406000D01*
X30552499Y-24405999D01*
X34852500Y-24405999D01*
X34852501Y-24406000D01*
X35752499Y-24406000D01*
X35752500Y-24405999D01*
X35952500Y-24405999D01*
X35952501Y-24406000D01*
X36852498Y-24406000D01*
X36852499Y-24405999D01*
X39982500Y-24405999D01*
X39982501Y-24406000D01*
X40882499Y-24406000D01*
X40882500Y-24405999D01*
X41082500Y-24405999D01*
X41082501Y-24406000D01*
X41982498Y-24406000D01*
X41982499Y-24405999D01*
X46282500Y-24405999D01*
X46282501Y-24406000D01*
X47182499Y-24406000D01*
X47182500Y-24405999D01*
X47382500Y-24405999D01*
X47382501Y-24406000D01*
X48282498Y-24406000D01*
X48282499Y-24405999D01*
X48282499Y-23991224D01*
X48273797Y-23947473D01*
X48240644Y-23897856D01*
X48191027Y-23864703D01*
X48147274Y-23856000D01*
X47382501Y-23856000D01*
X47382500Y-23856001D01*
X47382500Y-24405999D01*
X47182500Y-24405999D01*
X47182500Y-23856002D01*
X47182499Y-23856001D01*
X46417724Y-23856001D01*
X46373973Y-23864702D01*
X46324356Y-23897855D01*
X46291203Y-23947472D01*
X46282500Y-23991226D01*
X46282500Y-24405999D01*
X41982499Y-24405999D01*
X41982499Y-23991224D01*
X41973797Y-23947473D01*
X41940644Y-23897856D01*
X41891027Y-23864703D01*
X41847274Y-23856000D01*
X41082501Y-23856000D01*
X41082500Y-23856001D01*
X41082500Y-24405999D01*
X40882500Y-24405999D01*
X40882500Y-23856002D01*
X40882499Y-23856001D01*
X40117724Y-23856001D01*
X40073973Y-23864702D01*
X40024356Y-23897855D01*
X39991203Y-23947472D01*
X39982500Y-23991226D01*
X39982500Y-24405999D01*
X36852499Y-24405999D01*
X36852499Y-23991224D01*
X36843797Y-23947473D01*
X36810644Y-23897856D01*
X36761027Y-23864703D01*
X36717274Y-23856000D01*
X35952501Y-23856000D01*
X35952500Y-23856001D01*
X35952500Y-24405999D01*
X35752500Y-24405999D01*
X35752500Y-23856002D01*
X35752499Y-23856001D01*
X34987724Y-23856001D01*
X34943973Y-23864702D01*
X34894356Y-23897855D01*
X34861203Y-23947472D01*
X34852500Y-23991226D01*
X34852500Y-24405999D01*
X30552499Y-24405999D01*
X30552499Y-23991224D01*
X30543797Y-23947473D01*
X30510644Y-23897856D01*
X30461027Y-23864703D01*
X30417274Y-23856000D01*
X29652501Y-23856000D01*
X29652500Y-23856001D01*
X29652500Y-24405999D01*
X29452500Y-24405999D01*
X29452500Y-23856002D01*
X29452499Y-23856001D01*
X28687724Y-23856001D01*
X28643973Y-23864702D01*
X28594356Y-23897855D01*
X28561203Y-23947472D01*
X28552500Y-23991226D01*
X28552500Y-24405999D01*
X25422499Y-24405999D01*
X25422499Y-23991224D01*
X25413797Y-23947473D01*
X25380644Y-23897856D01*
X25331027Y-23864703D01*
X25287274Y-23856000D01*
X24522501Y-23856000D01*
X24522500Y-23856001D01*
X24522500Y-24405999D01*
X24322500Y-24405999D01*
X24322500Y-23856002D01*
X24322499Y-23856001D01*
X23557724Y-23856001D01*
X23513973Y-23864702D01*
X23464356Y-23897855D01*
X23431203Y-23947472D01*
X23422500Y-23991226D01*
X23422500Y-24405999D01*
X19122499Y-24405999D01*
X19122499Y-23991224D01*
X19113797Y-23947473D01*
X19080644Y-23897856D01*
X19031027Y-23864703D01*
X18987274Y-23856000D01*
X18222501Y-23856000D01*
X18222500Y-23856001D01*
X18222500Y-24405999D01*
X18022500Y-24405999D01*
X18022500Y-23856002D01*
X18022499Y-23856001D01*
X17257724Y-23856001D01*
X17213973Y-23864702D01*
X17164356Y-23897855D01*
X17131203Y-23947472D01*
X17122500Y-23991226D01*
X17122500Y-24405999D01*
X13992499Y-24405999D01*
X13992499Y-23991224D01*
X13983797Y-23947473D01*
X13950644Y-23897856D01*
X13901027Y-23864703D01*
X13857274Y-23856000D01*
X13092501Y-23856000D01*
X13092500Y-23856001D01*
X13092500Y-24405999D01*
X12892500Y-24405999D01*
X12892500Y-23856002D01*
X12892499Y-23856001D01*
X12127724Y-23856001D01*
X12083973Y-23864702D01*
X12034356Y-23897855D01*
X12001203Y-23947472D01*
X11992500Y-23991226D01*
X11992500Y-24405999D01*
X7692499Y-24405999D01*
X7692499Y-23991224D01*
X7683797Y-23947473D01*
X7650644Y-23897856D01*
X7601027Y-23864703D01*
X7557274Y-23856000D01*
X6792501Y-23856000D01*
X6792500Y-23856001D01*
X6792500Y-24405999D01*
X6592500Y-24405999D01*
X6592500Y-23856002D01*
X6592499Y-23856001D01*
X5827724Y-23856001D01*
X5783973Y-23864702D01*
X5734356Y-23897855D01*
X5701203Y-23947472D01*
X5692500Y-23991226D01*
X5692500Y-24405999D01*
X4688891Y-24405999D01*
X4708759Y-24372518D01*
X4777619Y-24303657D01*
X4621361Y-24166622D01*
X4365218Y-23995473D01*
X4088937Y-23859225D01*
X3797231Y-23760204D01*
X3495093Y-23700105D01*
X3187700Y-23679958D01*
X2880306Y-23700105D01*
X2578168Y-23760204D01*
X2286462Y-23859225D01*
X2010181Y-23995473D01*
X1754038Y-24166621D01*
X1597779Y-24303657D01*
X1597778Y-24303658D01*
X1666640Y-24372520D01*
X1691623Y-24414623D01*
X1693377Y-24463549D01*
X1671474Y-24507333D01*
X1670162Y-24508848D01*
X1625486Y-24538331D01*
X1571993Y-24540250D01*
X1525320Y-24514042D01*
X1456357Y-24445079D01*
X1319321Y-24601338D01*
X1148173Y-24857481D01*
X1011925Y-25133762D01*
X912904Y-25425468D01*
X852805Y-25727606D01*
X832658Y-26035000D01*
X200567Y-26035000D01*
X200499Y-26032391D01*
X200499Y-21220820D01*
X5692000Y-21220820D01*
X5700733Y-21264722D01*
X5733996Y-21314504D01*
X5783778Y-21347767D01*
X5827680Y-21356500D01*
X7557319Y-21356500D01*
X7557320Y-21356500D01*
X7601222Y-21347767D01*
X7651004Y-21314504D01*
X7684267Y-21264722D01*
X7693000Y-21220820D01*
X7693000Y-21030500D01*
X7706263Y-20981000D01*
X7742500Y-20944763D01*
X7792000Y-20931500D01*
X11893000Y-20931500D01*
X11942500Y-20944763D01*
X11978737Y-20981000D01*
X11992000Y-21030500D01*
X11992000Y-21220820D01*
X12000733Y-21264722D01*
X12033996Y-21314504D01*
X12083778Y-21347767D01*
X12127680Y-21356500D01*
X13857319Y-21356500D01*
X13857320Y-21356500D01*
X13901222Y-21347767D01*
X13951004Y-21314504D01*
X13984267Y-21264722D01*
X13993000Y-21220820D01*
X13993000Y-20191180D01*
X13984267Y-20147278D01*
X13951004Y-20097496D01*
X13901222Y-20064233D01*
X13857320Y-20055500D01*
X12127680Y-20055500D01*
X12105728Y-20059866D01*
X12083777Y-20064233D01*
X12033996Y-20097496D01*
X12000733Y-20147277D01*
X11992000Y-20191181D01*
X11992000Y-20381500D01*
X11978737Y-20431000D01*
X11942500Y-20467237D01*
X11893000Y-20480500D01*
X7792000Y-20480500D01*
X7742500Y-20467237D01*
X7706263Y-20431000D01*
X7693000Y-20381500D01*
X7693000Y-20191181D01*
X7693000Y-20191180D01*
X7684267Y-20147278D01*
X7651004Y-20097496D01*
X7601222Y-20064233D01*
X7557320Y-20055500D01*
X7557319Y-20055500D01*
X6855497Y-20055500D01*
X6805997Y-20042237D01*
X6769760Y-20006000D01*
X6756497Y-19956500D01*
X6756497Y-18172911D01*
X6773182Y-18117910D01*
X6817611Y-18081447D01*
X6874811Y-18075813D01*
X6925501Y-18102907D01*
X8026043Y-19203448D01*
X8029610Y-19207208D01*
X8055993Y-19236509D01*
X8076449Y-19245616D01*
X8090101Y-19253029D01*
X8108881Y-19265225D01*
X8114025Y-19266040D01*
X8138808Y-19273380D01*
X8143568Y-19275500D01*
X8165961Y-19275500D01*
X8181449Y-19276719D01*
X8203565Y-19280222D01*
X8208601Y-19278873D01*
X8234222Y-19275500D01*
X15042086Y-19275500D01*
X15079972Y-19283036D01*
X15112090Y-19304496D01*
X16667043Y-20859448D01*
X16670610Y-20863208D01*
X16696993Y-20892509D01*
X16717447Y-20901615D01*
X16731100Y-20909027D01*
X16749882Y-20921225D01*
X16749883Y-20921226D01*
X16755023Y-20922040D01*
X16779812Y-20929382D01*
X16784568Y-20931500D01*
X16806961Y-20931500D01*
X16822448Y-20932719D01*
X16844565Y-20936222D01*
X16844565Y-20936221D01*
X16844566Y-20936222D01*
X16849600Y-20934873D01*
X16875223Y-20931500D01*
X17023000Y-20931500D01*
X17072500Y-20944763D01*
X17108737Y-20981000D01*
X17122000Y-21030500D01*
X17122000Y-21220820D01*
X17130733Y-21264722D01*
X17163996Y-21314504D01*
X17213778Y-21347767D01*
X17257680Y-21356500D01*
X18987319Y-21356500D01*
X18987320Y-21356500D01*
X19031222Y-21347767D01*
X19081004Y-21314504D01*
X19114267Y-21264722D01*
X19123000Y-21220820D01*
X19123000Y-21030500D01*
X19136263Y-20981000D01*
X19172500Y-20944763D01*
X19222000Y-20931500D01*
X23323000Y-20931500D01*
X23372500Y-20944763D01*
X23408737Y-20981000D01*
X23422000Y-21030500D01*
X23422000Y-21220820D01*
X23430733Y-21264722D01*
X23463996Y-21314504D01*
X23513778Y-21347767D01*
X23557680Y-21356500D01*
X25287319Y-21356500D01*
X25287320Y-21356500D01*
X25331222Y-21347767D01*
X25381004Y-21314504D01*
X25414267Y-21264722D01*
X25423000Y-21220820D01*
X25423000Y-20191180D01*
X25414267Y-20147278D01*
X25381004Y-20097496D01*
X25331222Y-20064233D01*
X25287320Y-20055500D01*
X23557680Y-20055500D01*
X23535728Y-20059866D01*
X23513777Y-20064233D01*
X23463996Y-20097496D01*
X23430733Y-20147277D01*
X23422000Y-20191181D01*
X23422000Y-20381500D01*
X23408737Y-20431000D01*
X23372500Y-20467237D01*
X23323000Y-20480500D01*
X19222000Y-20480500D01*
X19172500Y-20467237D01*
X19136263Y-20431000D01*
X19123000Y-20381500D01*
X19123000Y-20191181D01*
X19123000Y-20191180D01*
X19114267Y-20147278D01*
X19081004Y-20097496D01*
X19031222Y-20064233D01*
X18987320Y-20055500D01*
X17257680Y-20055500D01*
X17235728Y-20059866D01*
X17213777Y-20064233D01*
X17163996Y-20097496D01*
X17130733Y-20147277D01*
X17122000Y-20191181D01*
X17122000Y-20381500D01*
X17108737Y-20431000D01*
X17072500Y-20467237D01*
X17023000Y-20480500D01*
X16966913Y-20480500D01*
X16929027Y-20472964D01*
X16896909Y-20451504D01*
X15590408Y-19145003D01*
X15563314Y-19094313D01*
X15568948Y-19037113D01*
X15605411Y-18992684D01*
X15660412Y-18975999D01*
X26172585Y-18975999D01*
X26210471Y-18983535D01*
X26242589Y-19004995D01*
X28097044Y-20859449D01*
X28100593Y-20863189D01*
X28126993Y-20892509D01*
X28147455Y-20901619D01*
X28161091Y-20909022D01*
X28179882Y-20921226D01*
X28185022Y-20922040D01*
X28185028Y-20922041D01*
X28209807Y-20929380D01*
X28214568Y-20931500D01*
X28236960Y-20931500D01*
X28252447Y-20932719D01*
X28274564Y-20936222D01*
X28274564Y-20936221D01*
X28274565Y-20936222D01*
X28279599Y-20934873D01*
X28305222Y-20931500D01*
X28453000Y-20931500D01*
X28502500Y-20944763D01*
X28538737Y-20981000D01*
X28552000Y-21030500D01*
X28552000Y-21220820D01*
X28560733Y-21264722D01*
X28593996Y-21314504D01*
X28643778Y-21347767D01*
X28687680Y-21356500D01*
X30417319Y-21356500D01*
X30417320Y-21356500D01*
X30461222Y-21347767D01*
X30511004Y-21314504D01*
X30544267Y-21264722D01*
X30553000Y-21220820D01*
X30553000Y-21030500D01*
X30566263Y-20981000D01*
X30602500Y-20944763D01*
X30652000Y-20931500D01*
X34753000Y-20931500D01*
X34802500Y-20944763D01*
X34838737Y-20981000D01*
X34852000Y-21030500D01*
X34852000Y-21220820D01*
X34860733Y-21264722D01*
X34893996Y-21314504D01*
X34943778Y-21347767D01*
X34987680Y-21356500D01*
X36717319Y-21356500D01*
X36717320Y-21356500D01*
X36761222Y-21347767D01*
X36811004Y-21314504D01*
X36844267Y-21264722D01*
X36853000Y-21220820D01*
X36853000Y-20191180D01*
X36844267Y-20147278D01*
X36811004Y-20097496D01*
X36761222Y-20064233D01*
X36717320Y-20055500D01*
X34987680Y-20055500D01*
X34965728Y-20059866D01*
X34943777Y-20064233D01*
X34893996Y-20097496D01*
X34860733Y-20147277D01*
X34852000Y-20191181D01*
X34852000Y-20381500D01*
X34838737Y-20431000D01*
X34802500Y-20467237D01*
X34753000Y-20480500D01*
X30652000Y-20480500D01*
X30602500Y-20467237D01*
X30566263Y-20431000D01*
X30553000Y-20381500D01*
X30553000Y-20191181D01*
X30553000Y-20191180D01*
X30544267Y-20147278D01*
X30511004Y-20097496D01*
X30461222Y-20064233D01*
X30417320Y-20055500D01*
X28687680Y-20055500D01*
X28665728Y-20059866D01*
X28643777Y-20064233D01*
X28593996Y-20097496D01*
X28560733Y-20147277D01*
X28552000Y-20191181D01*
X28552000Y-20381500D01*
X28538737Y-20431000D01*
X28502500Y-20467237D01*
X28453000Y-20480500D01*
X28396914Y-20480500D01*
X28359028Y-20472964D01*
X28326910Y-20451504D01*
X26720907Y-18845502D01*
X26693813Y-18794812D01*
X26699447Y-18737612D01*
X26735910Y-18693183D01*
X26790911Y-18676498D01*
X37303084Y-18676498D01*
X37340970Y-18684034D01*
X37373088Y-18705494D01*
X39527043Y-20859448D01*
X39530610Y-20863208D01*
X39556993Y-20892509D01*
X39577449Y-20901616D01*
X39591101Y-20909029D01*
X39609881Y-20921225D01*
X39615025Y-20922040D01*
X39639808Y-20929380D01*
X39644568Y-20931500D01*
X39666961Y-20931500D01*
X39682449Y-20932719D01*
X39704565Y-20936222D01*
X39709601Y-20934873D01*
X39735222Y-20931500D01*
X39883000Y-20931500D01*
X39932500Y-20944763D01*
X39968737Y-20981000D01*
X39982000Y-21030500D01*
X39982000Y-21220820D01*
X39990733Y-21264722D01*
X40023996Y-21314504D01*
X40073778Y-21347767D01*
X40117680Y-21356500D01*
X41847319Y-21356500D01*
X41847320Y-21356500D01*
X41891222Y-21347767D01*
X41941004Y-21314504D01*
X41974267Y-21264722D01*
X41983000Y-21220820D01*
X41983000Y-21030500D01*
X41996263Y-20981000D01*
X42032500Y-20944763D01*
X42082000Y-20931500D01*
X46183000Y-20931500D01*
X46232500Y-20944763D01*
X46268737Y-20981000D01*
X46282000Y-21030500D01*
X46282000Y-21220820D01*
X46290733Y-21264722D01*
X46323996Y-21314504D01*
X46373778Y-21347767D01*
X46417680Y-21356500D01*
X48147319Y-21356500D01*
X48147320Y-21356500D01*
X48191222Y-21347767D01*
X48241004Y-21314504D01*
X48274267Y-21264722D01*
X48283000Y-21220820D01*
X48283000Y-20191180D01*
X48274267Y-20147278D01*
X48241004Y-20097496D01*
X48191222Y-20064233D01*
X48147320Y-20055500D01*
X46417680Y-20055500D01*
X46395728Y-20059866D01*
X46373777Y-20064233D01*
X46323996Y-20097496D01*
X46290733Y-20147277D01*
X46282000Y-20191181D01*
X46282000Y-20381500D01*
X46268737Y-20431000D01*
X46232500Y-20467237D01*
X46183000Y-20480500D01*
X42082000Y-20480500D01*
X42032500Y-20467237D01*
X41996263Y-20431000D01*
X41983000Y-20381500D01*
X41983000Y-20191181D01*
X41983000Y-20191180D01*
X41974267Y-20147278D01*
X41941004Y-20097496D01*
X41891222Y-20064233D01*
X41847320Y-20055500D01*
X40117680Y-20055500D01*
X40095728Y-20059866D01*
X40073777Y-20064233D01*
X40023996Y-20097496D01*
X39990733Y-20147277D01*
X39982000Y-20191181D01*
X39982000Y-20381500D01*
X39968737Y-20431000D01*
X39932500Y-20467237D01*
X39883000Y-20480500D01*
X39826913Y-20480500D01*
X39789027Y-20472964D01*
X39756909Y-20451504D01*
X37602953Y-18297548D01*
X37599404Y-18293808D01*
X37573005Y-18264489D01*
X37573004Y-18264488D01*
X37552546Y-18255380D01*
X37538894Y-18247967D01*
X37520114Y-18235771D01*
X37514958Y-18234954D01*
X37490191Y-18227617D01*
X37485431Y-18225498D01*
X37485430Y-18225498D01*
X37463038Y-18225498D01*
X37447551Y-18224279D01*
X37425433Y-18220775D01*
X37420398Y-18222125D01*
X37394776Y-18225498D01*
X8574027Y-18225498D01*
X8536141Y-18217962D01*
X8504023Y-18196502D01*
X7683996Y-17376475D01*
X7662536Y-17344357D01*
X7655000Y-17306471D01*
X7655000Y-14278217D01*
X8467501Y-14278217D01*
X8477411Y-14346247D01*
X8528714Y-14451188D01*
X8611312Y-14533786D01*
X8716250Y-14585087D01*
X8784284Y-14595000D01*
X8917499Y-14595000D01*
X8917500Y-14594999D01*
X8917500Y-14594998D01*
X9117500Y-14594998D01*
X9117501Y-14594999D01*
X9250717Y-14594999D01*
X9318747Y-14585088D01*
X9423688Y-14533785D01*
X9506286Y-14451187D01*
X9557587Y-14346249D01*
X9567500Y-14278216D01*
X9567500Y-14070001D01*
X9567499Y-14070000D01*
X9117501Y-14070000D01*
X9117500Y-14070001D01*
X9117500Y-14594998D01*
X8917500Y-14594998D01*
X8917500Y-14070001D01*
X8917499Y-14070000D01*
X8467502Y-14070000D01*
X8467501Y-14070001D01*
X8467501Y-14278217D01*
X7655000Y-14278217D01*
X7655000Y-13869999D01*
X8467500Y-13869999D01*
X8467501Y-13870000D01*
X8917499Y-13870000D01*
X8917500Y-13869999D01*
X9117500Y-13869999D01*
X9117501Y-13870000D01*
X9567498Y-13870000D01*
X9567499Y-13869999D01*
X9567499Y-13661783D01*
X9557588Y-13593752D01*
X9506285Y-13488811D01*
X9423687Y-13406213D01*
X9318749Y-13354912D01*
X9250716Y-13345000D01*
X9117501Y-13345000D01*
X9117500Y-13345001D01*
X9117500Y-13869999D01*
X8917500Y-13869999D01*
X8917500Y-13345002D01*
X8917499Y-13345001D01*
X8784283Y-13345001D01*
X8716252Y-13354911D01*
X8611311Y-13406214D01*
X8528713Y-13488812D01*
X8477412Y-13593750D01*
X8467500Y-13661784D01*
X8467500Y-13869999D01*
X7655000Y-13869999D01*
X7655000Y-13596414D01*
X7662536Y-13558528D01*
X7683996Y-13526410D01*
X10405406Y-10804999D01*
X10437524Y-10783539D01*
X10475410Y-10776003D01*
X28392170Y-10776003D01*
X28397350Y-10776138D01*
X28406705Y-10776629D01*
X28436732Y-10778203D01*
X28436732Y-10778202D01*
X28436735Y-10778203D01*
X28457654Y-10770172D01*
X28472526Y-10765767D01*
X28494439Y-10761110D01*
X28498649Y-10758050D01*
X28521365Y-10745716D01*
X28526231Y-10743849D01*
X28542066Y-10728011D01*
X28553879Y-10717922D01*
X28571994Y-10704763D01*
X28574597Y-10700253D01*
X28590327Y-10679751D01*
X29250455Y-10019623D01*
X30857500Y-10019623D01*
X30872005Y-10092545D01*
X30927259Y-10175240D01*
X31009954Y-10230494D01*
X31082877Y-10245000D01*
X31644999Y-10245000D01*
X31645000Y-10244999D01*
X31845000Y-10244999D01*
X31845001Y-10245000D01*
X32407123Y-10245000D01*
X32480045Y-10230494D01*
X32562740Y-10175240D01*
X32617994Y-10092545D01*
X32632500Y-10019623D01*
X32632500Y-9995001D01*
X32632499Y-9995000D01*
X31845001Y-9995000D01*
X31845000Y-9995001D01*
X31845000Y-10244999D01*
X31645000Y-10244999D01*
X31645000Y-9995001D01*
X31644999Y-9995000D01*
X30857501Y-9995000D01*
X30857500Y-9995001D01*
X30857500Y-10019623D01*
X29250455Y-10019623D01*
X29770582Y-9499496D01*
X29802701Y-9478036D01*
X29840587Y-9470500D01*
X30837165Y-9470500D01*
X30883826Y-9482186D01*
X30919471Y-9514485D01*
X30920106Y-9515435D01*
X30936800Y-9570441D01*
X30920116Y-9625451D01*
X30872005Y-9697454D01*
X30857500Y-9770377D01*
X30857500Y-9794999D01*
X30857501Y-9795000D01*
X32632499Y-9795000D01*
X32632500Y-9794999D01*
X32632500Y-9770377D01*
X32617994Y-9697454D01*
X32569884Y-9625452D01*
X32553199Y-9570450D01*
X32569883Y-9515450D01*
X32618466Y-9442740D01*
X32633000Y-9369674D01*
X32633000Y-9120326D01*
X32618466Y-9047260D01*
X32618465Y-9047259D01*
X32618465Y-9047257D01*
X32570185Y-8975001D01*
X32553500Y-8920000D01*
X32570185Y-8864999D01*
X32618465Y-8792742D01*
X32618465Y-8792741D01*
X32618466Y-8792740D01*
X32633000Y-8719674D01*
X32633000Y-8470326D01*
X32618466Y-8397260D01*
X32618465Y-8397259D01*
X32618465Y-8397257D01*
X32570185Y-8325001D01*
X32553500Y-8270000D01*
X32570185Y-8214999D01*
X32618465Y-8142742D01*
X32618465Y-8142741D01*
X32618466Y-8142740D01*
X32633000Y-8069674D01*
X32633000Y-7820326D01*
X32618466Y-7747260D01*
X32570183Y-7674999D01*
X32553500Y-7619998D01*
X32570183Y-7565000D01*
X32618466Y-7492740D01*
X32633000Y-7419674D01*
X32633000Y-7170326D01*
X32618466Y-7097260D01*
X32618465Y-7097259D01*
X32618465Y-7097257D01*
X32570185Y-7025001D01*
X32553500Y-6970000D01*
X32570185Y-6914999D01*
X32618465Y-6842742D01*
X32618465Y-6842741D01*
X32618466Y-6842740D01*
X32633000Y-6769674D01*
X32633000Y-6520326D01*
X32618466Y-6447260D01*
X32618465Y-6447259D01*
X32618465Y-6447257D01*
X32570185Y-6375001D01*
X32553500Y-6320000D01*
X32570185Y-6264999D01*
X32618465Y-6192742D01*
X32618465Y-6192741D01*
X32618466Y-6192740D01*
X32633000Y-6119674D01*
X32633000Y-5870326D01*
X32618466Y-5797260D01*
X32570183Y-5724999D01*
X32553500Y-5669998D01*
X32570183Y-5615000D01*
X32618466Y-5542740D01*
X32633000Y-5469674D01*
X32633000Y-5220326D01*
X32618466Y-5147260D01*
X32563101Y-5064399D01*
X32480240Y-5009034D01*
X32407174Y-4994500D01*
X31082826Y-4994500D01*
X31046293Y-5001766D01*
X31009759Y-5009034D01*
X30926898Y-5064399D01*
X30919480Y-5075502D01*
X30883833Y-5107810D01*
X30837165Y-5119500D01*
X30350471Y-5119500D01*
X30312585Y-5111964D01*
X30280467Y-5090504D01*
X29354513Y-4164550D01*
X29350964Y-4160810D01*
X29324565Y-4131491D01*
X29324564Y-4131490D01*
X29304106Y-4122382D01*
X29290454Y-4114969D01*
X29271676Y-4102774D01*
X29271675Y-4102773D01*
X29271674Y-4102773D01*
X29266518Y-4101956D01*
X29241751Y-4094619D01*
X29236991Y-4092500D01*
X29236990Y-4092500D01*
X29214598Y-4092500D01*
X29199111Y-4091281D01*
X29176993Y-4087777D01*
X29171958Y-4089127D01*
X29146336Y-4092500D01*
X19122002Y-4092500D01*
X19116820Y-4092364D01*
X19077435Y-4090299D01*
X19056522Y-4098326D01*
X19041636Y-4102736D01*
X19019731Y-4107393D01*
X19015514Y-4110457D01*
X18992810Y-4122784D01*
X18991731Y-4123198D01*
X18987938Y-4124654D01*
X18972100Y-4140492D01*
X18960294Y-4150576D01*
X18942177Y-4163739D01*
X18939572Y-4168252D01*
X18923843Y-4188749D01*
X17104952Y-6007643D01*
X17054262Y-6034737D01*
X16997062Y-6029103D01*
X16952633Y-5992640D01*
X16935948Y-5937639D01*
X16935948Y-5600001D01*
X16932401Y-5582171D01*
X16924267Y-5541278D01*
X16891004Y-5491496D01*
X16841222Y-5458233D01*
X16782500Y-5446552D01*
X15782500Y-5446552D01*
X15749583Y-5451992D01*
X15733124Y-5454713D01*
X15689001Y-5478327D01*
X15654823Y-5514882D01*
X15154823Y-6264882D01*
X15131990Y-6320115D01*
X15131990Y-6379885D01*
X15154823Y-6435117D01*
X15644962Y-7170326D01*
X15654824Y-7185118D01*
X15689002Y-7221673D01*
X15733125Y-7245287D01*
X15782500Y-7253448D01*
X16782499Y-7253448D01*
X16782500Y-7253448D01*
X16841222Y-7241767D01*
X16891004Y-7208504D01*
X16924267Y-7158722D01*
X16935948Y-7100000D01*
X16935948Y-6674500D01*
X16949211Y-6625000D01*
X16985448Y-6588763D01*
X17034948Y-6575500D01*
X17072999Y-6575500D01*
X17078179Y-6575635D01*
X17087534Y-6576126D01*
X17117561Y-6577700D01*
X17117561Y-6577699D01*
X17117564Y-6577700D01*
X17138483Y-6569669D01*
X17153355Y-6565264D01*
X17175268Y-6560607D01*
X17179478Y-6557547D01*
X17202190Y-6545214D01*
X17207060Y-6543346D01*
X17222900Y-6527504D01*
X17234699Y-6517426D01*
X17252823Y-6504260D01*
X17255427Y-6499749D01*
X17271155Y-6479249D01*
X19177909Y-4572495D01*
X19210027Y-4551036D01*
X19247913Y-4543500D01*
X23410087Y-4543500D01*
X23465088Y-4560185D01*
X23501551Y-4604614D01*
X23507185Y-4661814D01*
X23480091Y-4712504D01*
X22184952Y-6007643D01*
X22134262Y-6034737D01*
X22077062Y-6029103D01*
X22032633Y-5992640D01*
X22015948Y-5937639D01*
X22015948Y-5600001D01*
X22012401Y-5582171D01*
X22004267Y-5541278D01*
X21971004Y-5491496D01*
X21921222Y-5458233D01*
X21862500Y-5446552D01*
X20862500Y-5446552D01*
X20829583Y-5451992D01*
X20813124Y-5454713D01*
X20769001Y-5478327D01*
X20734823Y-5514882D01*
X20234823Y-6264882D01*
X20211990Y-6320115D01*
X20211990Y-6379885D01*
X20234823Y-6435117D01*
X20724962Y-7170326D01*
X20734824Y-7185118D01*
X20769002Y-7221673D01*
X20813125Y-7245287D01*
X20862500Y-7253448D01*
X21862499Y-7253448D01*
X21862500Y-7253448D01*
X21921222Y-7241767D01*
X21971004Y-7208504D01*
X22004267Y-7158722D01*
X22015948Y-7100000D01*
X22015948Y-6674500D01*
X22029211Y-6625000D01*
X22065448Y-6588763D01*
X22114948Y-6575500D01*
X22152999Y-6575500D01*
X22158179Y-6575635D01*
X22167534Y-6576126D01*
X22197561Y-6577700D01*
X22197561Y-6577699D01*
X22197564Y-6577700D01*
X22218483Y-6569669D01*
X22233355Y-6565264D01*
X22255268Y-6560607D01*
X22259478Y-6557547D01*
X22282190Y-6545214D01*
X22287060Y-6543346D01*
X22302900Y-6527504D01*
X22314699Y-6517426D01*
X22332823Y-6504260D01*
X22335427Y-6499749D01*
X22351155Y-6479249D01*
X23958407Y-4871997D01*
X23990526Y-4850537D01*
X24028412Y-4843001D01*
X28930587Y-4843001D01*
X28968473Y-4850537D01*
X29000591Y-4871997D01*
X30184569Y-6055975D01*
X30212346Y-6110492D01*
X30202775Y-6170924D01*
X30159511Y-6214188D01*
X30099079Y-6223760D01*
X30084036Y-6221377D01*
X30079000Y-6222727D01*
X30053378Y-6226100D01*
X27194948Y-6226100D01*
X27145448Y-6212837D01*
X27109211Y-6176600D01*
X27095948Y-6127100D01*
X27095948Y-5600001D01*
X27092401Y-5582171D01*
X27084267Y-5541278D01*
X27051004Y-5491496D01*
X27001222Y-5458233D01*
X26942500Y-5446552D01*
X25942500Y-5446552D01*
X25909583Y-5451992D01*
X25893124Y-5454713D01*
X25849001Y-5478327D01*
X25814823Y-5514882D01*
X25314823Y-6264882D01*
X25291990Y-6320115D01*
X25291990Y-6379885D01*
X25314823Y-6435117D01*
X25804962Y-7170326D01*
X25814824Y-7185118D01*
X25849002Y-7221673D01*
X25893125Y-7245287D01*
X25942500Y-7253448D01*
X26942499Y-7253448D01*
X26942500Y-7253448D01*
X27001222Y-7241767D01*
X27051004Y-7208504D01*
X27084267Y-7158722D01*
X27095948Y-7100000D01*
X27095948Y-6776100D01*
X27109211Y-6726600D01*
X27145448Y-6690363D01*
X27194948Y-6677100D01*
X29961687Y-6677100D01*
X29999572Y-6684636D01*
X30031690Y-6706096D01*
X30124035Y-6798440D01*
X30127602Y-6802199D01*
X30153993Y-6831509D01*
X30174455Y-6840619D01*
X30188091Y-6848022D01*
X30206882Y-6860226D01*
X30212022Y-6861040D01*
X30212028Y-6861041D01*
X30236807Y-6868380D01*
X30241568Y-6870500D01*
X30263960Y-6870500D01*
X30279447Y-6871719D01*
X30322349Y-6878514D01*
X30322288Y-6878897D01*
X30345540Y-6879871D01*
X30374904Y-6870500D01*
X30837165Y-6870500D01*
X30883839Y-6882193D01*
X30919487Y-6914509D01*
X30919821Y-6915009D01*
X30936499Y-6970000D01*
X30919821Y-7024991D01*
X30919487Y-7025491D01*
X30883839Y-7057807D01*
X30837165Y-7069500D01*
X30393989Y-7069500D01*
X30388809Y-7069364D01*
X30369724Y-7068364D01*
X30356532Y-7063379D01*
X30353603Y-7065701D01*
X30328533Y-7075324D01*
X30313642Y-7079735D01*
X30291730Y-7084393D01*
X30287512Y-7087458D01*
X30264808Y-7099786D01*
X30259939Y-7101655D01*
X30244103Y-7117490D01*
X30232297Y-7127573D01*
X30214177Y-7140738D01*
X30211571Y-7145253D01*
X30195841Y-7165752D01*
X27964091Y-9397504D01*
X27931973Y-9418964D01*
X27894087Y-9426500D01*
X9977309Y-9426500D01*
X9972127Y-9426364D01*
X9932760Y-9424300D01*
X9911857Y-9432324D01*
X9896968Y-9436735D01*
X9875056Y-9441393D01*
X9870838Y-9444458D01*
X9848134Y-9456786D01*
X9843265Y-9458655D01*
X9827429Y-9474490D01*
X9815623Y-9484573D01*
X9797503Y-9497738D01*
X9794897Y-9502253D01*
X9779167Y-9522752D01*
X6377545Y-12924374D01*
X6373786Y-12927940D01*
X6344487Y-12954321D01*
X6335379Y-12974778D01*
X6327968Y-12988428D01*
X6315770Y-13007211D01*
X6314954Y-13012364D01*
X6307618Y-13037131D01*
X6305497Y-13041896D01*
X6305497Y-13064289D01*
X6304278Y-13079776D01*
X6300774Y-13101893D01*
X6302124Y-13106929D01*
X6305497Y-13132551D01*
X6305497Y-19956500D01*
X6292234Y-20006000D01*
X6255997Y-20042237D01*
X6206497Y-20055500D01*
X5827680Y-20055500D01*
X5805728Y-20059866D01*
X5783777Y-20064233D01*
X5733996Y-20097496D01*
X5700733Y-20147277D01*
X5700732Y-20147278D01*
X5700733Y-20147278D01*
X5692000Y-20191180D01*
X5692000Y-21220820D01*
X200499Y-21220820D01*
X200499Y-13341521D01*
X567000Y-13341521D01*
X581852Y-13435303D01*
X639448Y-13548339D01*
X639450Y-13548342D01*
X729158Y-13638050D01*
X842196Y-13695646D01*
X935981Y-13710500D01*
X2299018Y-13710499D01*
X2299021Y-13710499D01*
X2392803Y-13695647D01*
X2447207Y-13667926D01*
X2505842Y-13638050D01*
X2595550Y-13548342D01*
X2653146Y-13435304D01*
X2668000Y-13341519D01*
X2667999Y-12578482D01*
X2667999Y-12578480D01*
X2667999Y-12578478D01*
X2653147Y-12484696D01*
X2595551Y-12371660D01*
X2595550Y-12371658D01*
X2505842Y-12281950D01*
X2392804Y-12224354D01*
X2392803Y-12224353D01*
X2392802Y-12224353D01*
X2299019Y-12209500D01*
X935978Y-12209500D01*
X842196Y-12224352D01*
X729160Y-12281948D01*
X639449Y-12371659D01*
X581853Y-12484697D01*
X567000Y-12578480D01*
X567000Y-13341521D01*
X200499Y-13341521D01*
X200499Y-11854863D01*
X4567000Y-11854863D01*
X4568934Y-11871535D01*
X4569915Y-11879991D01*
X4582201Y-11907816D01*
X4615293Y-11982764D01*
X4615294Y-11982765D01*
X4694735Y-12062206D01*
X4797509Y-12107585D01*
X4822635Y-12110500D01*
X6162364Y-12110499D01*
X6187491Y-12107585D01*
X6290265Y-12062206D01*
X6369706Y-11982765D01*
X6386596Y-11944511D01*
X6423114Y-11901555D01*
X6477161Y-11885500D01*
X6620181Y-11885500D01*
X6625361Y-11885635D01*
X6634716Y-11886126D01*
X6664743Y-11887700D01*
X6664743Y-11887699D01*
X6664746Y-11887700D01*
X6685665Y-11879669D01*
X6700537Y-11875264D01*
X6722450Y-11870607D01*
X6726660Y-11867547D01*
X6749372Y-11855214D01*
X6754242Y-11853346D01*
X6770082Y-11837504D01*
X6781881Y-11827426D01*
X6800005Y-11814260D01*
X6802609Y-11809749D01*
X6818337Y-11789249D01*
X14885089Y-3722498D01*
X14917208Y-3701038D01*
X14955094Y-3693502D01*
X32861088Y-3693502D01*
X32898974Y-3701038D01*
X32931092Y-3722498D01*
X36007043Y-6798448D01*
X36010610Y-6802208D01*
X36036993Y-6831509D01*
X36057447Y-6840615D01*
X36071100Y-6848027D01*
X36089883Y-6860226D01*
X36095023Y-6861040D01*
X36119812Y-6868382D01*
X36124568Y-6870500D01*
X36146961Y-6870500D01*
X36162448Y-6871719D01*
X36184565Y-6875222D01*
X36184565Y-6875221D01*
X36184566Y-6875222D01*
X36189600Y-6873873D01*
X36215223Y-6870500D01*
X36562165Y-6870500D01*
X36608798Y-6882171D01*
X36644436Y-6914433D01*
X36644770Y-6914932D01*
X36661499Y-6969959D01*
X36644815Y-7024999D01*
X36596534Y-7097257D01*
X36587885Y-7140740D01*
X36582000Y-7170326D01*
X36582000Y-7419674D01*
X36596534Y-7492740D01*
X36644815Y-7564999D01*
X36661499Y-7619998D01*
X36644815Y-7674999D01*
X36596534Y-7747257D01*
X36589124Y-7784511D01*
X36582000Y-7820326D01*
X36582000Y-8069674D01*
X36590121Y-8110499D01*
X36596534Y-8142740D01*
X36644815Y-8214999D01*
X36661499Y-8270000D01*
X36644815Y-8325001D01*
X36596534Y-8397259D01*
X36596533Y-8397260D01*
X36596534Y-8397260D01*
X36582000Y-8470326D01*
X36582000Y-8719674D01*
X36590022Y-8760001D01*
X36596534Y-8792740D01*
X36644815Y-8864999D01*
X36661499Y-8920000D01*
X36644815Y-8975001D01*
X36596534Y-9047259D01*
X36593561Y-9062206D01*
X36584535Y-9107585D01*
X36582000Y-9120327D01*
X36582000Y-9369673D01*
X36596534Y-9442740D01*
X36644815Y-9514999D01*
X36661499Y-9570000D01*
X36644815Y-9625001D01*
X36596534Y-9697259D01*
X36596533Y-9697260D01*
X36596534Y-9697260D01*
X36582000Y-9770326D01*
X36582000Y-10019674D01*
X36596534Y-10092740D01*
X36651899Y-10175601D01*
X36734760Y-10230966D01*
X36807826Y-10245500D01*
X38132173Y-10245500D01*
X38132174Y-10245500D01*
X38205240Y-10230966D01*
X38288101Y-10175601D01*
X38295519Y-10164498D01*
X38331167Y-10132190D01*
X38377835Y-10120500D01*
X38718497Y-10120500D01*
X38767997Y-10133763D01*
X38804234Y-10170000D01*
X38817497Y-10219500D01*
X38817497Y-11178090D01*
X38809961Y-11215975D01*
X38788501Y-11248093D01*
X38652593Y-11384002D01*
X38620475Y-11405463D01*
X38582589Y-11412999D01*
X18151503Y-11412999D01*
X18146321Y-11412863D01*
X18106936Y-11410798D01*
X18086025Y-11418825D01*
X18071135Y-11423236D01*
X18049230Y-11427892D01*
X18045012Y-11430957D01*
X18022316Y-11443280D01*
X18017443Y-11445150D01*
X18001606Y-11460988D01*
X17989797Y-11471074D01*
X17971677Y-11484238D01*
X17969072Y-11488752D01*
X17953342Y-11509251D01*
X12191091Y-17271504D01*
X12158973Y-17292964D01*
X12121087Y-17300500D01*
X11024584Y-17300500D01*
X10973907Y-17286546D01*
X10937516Y-17248619D01*
X10925669Y-17197409D01*
X10941704Y-17147352D01*
X10981102Y-17112559D01*
X11066280Y-17070919D01*
X11153419Y-16983780D01*
X11207543Y-16873067D01*
X11218000Y-16801295D01*
X11217999Y-16218706D01*
X11207543Y-16146933D01*
X11153419Y-16036220D01*
X11066280Y-15949081D01*
X10955567Y-15894957D01*
X10955565Y-15894956D01*
X10955564Y-15894956D01*
X10940225Y-15892721D01*
X10896972Y-15875326D01*
X10866477Y-15840065D01*
X10855500Y-15794756D01*
X10855500Y-14687715D01*
X10866477Y-14642406D01*
X10896973Y-14607144D01*
X10940224Y-14589750D01*
X10968893Y-14585573D01*
X11073983Y-14534198D01*
X11156698Y-14451483D01*
X11208073Y-14346393D01*
X11218000Y-14278260D01*
X11218000Y-13661740D01*
X11208073Y-13593607D01*
X11156698Y-13488517D01*
X11073983Y-13405802D01*
X10968893Y-13354427D01*
X10900760Y-13344500D01*
X10434240Y-13344500D01*
X10383140Y-13351945D01*
X10366106Y-13354427D01*
X10261018Y-13405801D01*
X10178301Y-13488518D01*
X10126927Y-13593606D01*
X10126927Y-13593607D01*
X10117000Y-13661740D01*
X10117000Y-14278260D01*
X10126927Y-14346393D01*
X10178302Y-14451483D01*
X10261017Y-14534198D01*
X10348980Y-14577200D01*
X10389481Y-14613717D01*
X10404500Y-14666141D01*
X10404500Y-15794756D01*
X10393523Y-15840066D01*
X10363026Y-15875327D01*
X10319772Y-15892722D01*
X10304434Y-15894956D01*
X10193720Y-15949081D01*
X10106580Y-16036221D01*
X10052457Y-16146931D01*
X10052457Y-16146932D01*
X10052457Y-16146933D01*
X10044759Y-16199773D01*
X10042000Y-16218708D01*
X10042000Y-16801293D01*
X10052456Y-16873065D01*
X10052457Y-16873067D01*
X10106581Y-16983780D01*
X10193720Y-17070919D01*
X10278897Y-17112559D01*
X10318296Y-17147352D01*
X10334332Y-17197409D01*
X10322485Y-17248619D01*
X10286094Y-17286546D01*
X10235417Y-17300500D01*
X9595913Y-17300500D01*
X9558027Y-17292964D01*
X9525909Y-17271504D01*
X9477861Y-17223456D01*
X9453581Y-17183642D01*
X9450220Y-17137131D01*
X9468524Y-17094240D01*
X9480945Y-17083947D01*
X9479598Y-17082600D01*
X9491277Y-17070920D01*
X9491280Y-17070919D01*
X9578419Y-16983780D01*
X9632543Y-16873067D01*
X9643000Y-16801295D01*
X9642999Y-16218706D01*
X9632543Y-16146933D01*
X9578419Y-16036220D01*
X9491280Y-15949081D01*
X9474357Y-15940808D01*
X9380568Y-15894957D01*
X9365220Y-15892721D01*
X9308795Y-15884500D01*
X9308791Y-15884500D01*
X8801206Y-15884500D01*
X8729434Y-15894956D01*
X8618720Y-15949081D01*
X8531580Y-16036221D01*
X8477457Y-16146931D01*
X8477457Y-16146932D01*
X8477457Y-16146933D01*
X8469759Y-16199773D01*
X8467000Y-16218708D01*
X8467000Y-16801293D01*
X8477456Y-16873065D01*
X8477457Y-16873067D01*
X8531581Y-16983780D01*
X8618720Y-17070919D01*
X8729433Y-17125043D01*
X8760488Y-17129567D01*
X8813912Y-17155298D01*
X8843049Y-17206947D01*
X8844392Y-17213267D01*
X8847453Y-17217480D01*
X8859785Y-17240191D01*
X8861654Y-17245060D01*
X8877492Y-17260899D01*
X8887579Y-17272710D01*
X8900737Y-17290820D01*
X8900738Y-17290820D01*
X8900740Y-17290823D01*
X8905250Y-17293426D01*
X8925751Y-17309157D01*
X9296052Y-17679458D01*
X9299619Y-17683218D01*
X9325993Y-17712509D01*
X9341350Y-17719346D01*
X9346442Y-17721613D01*
X9360095Y-17729026D01*
X9371768Y-17736606D01*
X9378882Y-17741226D01*
X9384030Y-17742041D01*
X9408807Y-17749380D01*
X9413568Y-17751500D01*
X9435960Y-17751500D01*
X9451447Y-17752719D01*
X9473564Y-17756222D01*
X9473564Y-17756221D01*
X9473565Y-17756222D01*
X9478599Y-17754873D01*
X9504222Y-17751500D01*
X12246999Y-17751500D01*
X12252179Y-17751635D01*
X12261534Y-17752126D01*
X12291561Y-17753700D01*
X12291561Y-17753699D01*
X12291564Y-17753700D01*
X12312483Y-17745669D01*
X12327355Y-17741264D01*
X12349268Y-17736607D01*
X12353478Y-17733547D01*
X12376190Y-17721214D01*
X12381060Y-17719346D01*
X12396900Y-17703504D01*
X12408699Y-17693426D01*
X12426823Y-17680260D01*
X12429427Y-17675749D01*
X12445155Y-17655249D01*
X15822188Y-14278217D01*
X19897501Y-14278217D01*
X19907411Y-14346247D01*
X19958714Y-14451188D01*
X20041312Y-14533786D01*
X20146250Y-14585087D01*
X20214284Y-14595000D01*
X20347499Y-14595000D01*
X20347500Y-14594999D01*
X20347500Y-14594998D01*
X20547500Y-14594998D01*
X20547501Y-14594999D01*
X20680717Y-14594999D01*
X20748747Y-14585088D01*
X20853688Y-14533785D01*
X20936286Y-14451187D01*
X20987587Y-14346249D01*
X20997500Y-14278216D01*
X20997500Y-14070001D01*
X20997499Y-14070000D01*
X20547501Y-14070000D01*
X20547500Y-14070001D01*
X20547500Y-14594998D01*
X20347500Y-14594998D01*
X20347500Y-14070001D01*
X20347499Y-14070000D01*
X19897502Y-14070000D01*
X19897501Y-14070001D01*
X19897501Y-14278217D01*
X15822188Y-14278217D01*
X16230406Y-13869999D01*
X19897500Y-13869999D01*
X19897501Y-13870000D01*
X20347499Y-13870000D01*
X20347500Y-13869999D01*
X20547500Y-13869999D01*
X20547501Y-13870000D01*
X20997498Y-13870000D01*
X20997499Y-13869999D01*
X20997499Y-13661783D01*
X20987588Y-13593752D01*
X20936285Y-13488811D01*
X20853687Y-13406213D01*
X20748749Y-13354912D01*
X20680716Y-13345000D01*
X20547501Y-13345000D01*
X20547500Y-13345001D01*
X20547500Y-13869999D01*
X20347500Y-13869999D01*
X20347500Y-13345002D01*
X20347499Y-13345001D01*
X20214283Y-13345001D01*
X20146252Y-13354911D01*
X20041311Y-13406214D01*
X19958713Y-13488812D01*
X19907412Y-13593750D01*
X19897500Y-13661784D01*
X19897500Y-13869999D01*
X16230406Y-13869999D01*
X18207410Y-11892995D01*
X18239529Y-11871535D01*
X18277415Y-11863999D01*
X29551588Y-11863999D01*
X29606589Y-11880684D01*
X29643052Y-11925113D01*
X29648686Y-11982313D01*
X29621592Y-12033003D01*
X24383091Y-17271504D01*
X24350973Y-17292964D01*
X24313087Y-17300500D01*
X22454584Y-17300500D01*
X22403907Y-17286546D01*
X22367516Y-17248619D01*
X22355669Y-17197409D01*
X22371704Y-17147352D01*
X22411102Y-17112559D01*
X22496280Y-17070919D01*
X22583419Y-16983780D01*
X22637543Y-16873067D01*
X22648000Y-16801295D01*
X22647999Y-16218706D01*
X22637543Y-16146933D01*
X22583419Y-16036220D01*
X22496280Y-15949081D01*
X22385567Y-15894957D01*
X22385565Y-15894956D01*
X22385564Y-15894956D01*
X22370225Y-15892721D01*
X22326972Y-15875326D01*
X22296477Y-15840065D01*
X22285500Y-15794756D01*
X22285500Y-14687715D01*
X22296477Y-14642406D01*
X22326973Y-14607144D01*
X22370224Y-14589750D01*
X22398893Y-14585573D01*
X22503983Y-14534198D01*
X22586698Y-14451483D01*
X22638073Y-14346393D01*
X22648000Y-14278260D01*
X22648000Y-13661740D01*
X22638073Y-13593607D01*
X22586698Y-13488517D01*
X22503983Y-13405802D01*
X22398893Y-13354427D01*
X22330760Y-13344500D01*
X21864240Y-13344500D01*
X21813140Y-13351945D01*
X21796106Y-13354427D01*
X21691018Y-13405801D01*
X21608301Y-13488518D01*
X21556927Y-13593606D01*
X21556927Y-13593607D01*
X21547000Y-13661740D01*
X21547000Y-14278260D01*
X21556927Y-14346393D01*
X21608302Y-14451483D01*
X21691017Y-14534198D01*
X21778980Y-14577200D01*
X21819481Y-14613717D01*
X21834500Y-14666141D01*
X21834500Y-15794756D01*
X21823523Y-15840066D01*
X21793026Y-15875327D01*
X21749772Y-15892722D01*
X21734434Y-15894956D01*
X21623720Y-15949081D01*
X21536580Y-16036221D01*
X21482457Y-16146931D01*
X21482457Y-16146932D01*
X21482457Y-16146933D01*
X21474759Y-16199773D01*
X21472000Y-16218708D01*
X21472000Y-16801293D01*
X21482456Y-16873065D01*
X21482457Y-16873067D01*
X21536581Y-16983780D01*
X21623720Y-17070919D01*
X21708897Y-17112559D01*
X21748296Y-17147352D01*
X21764332Y-17197409D01*
X21752485Y-17248619D01*
X21716094Y-17286546D01*
X21665417Y-17300500D01*
X21025913Y-17300500D01*
X20988027Y-17292964D01*
X20955909Y-17271504D01*
X20907861Y-17223456D01*
X20883581Y-17183642D01*
X20880220Y-17137131D01*
X20898524Y-17094240D01*
X20910945Y-17083947D01*
X20909598Y-17082600D01*
X20921277Y-17070920D01*
X20921280Y-17070919D01*
X21008419Y-16983780D01*
X21062543Y-16873067D01*
X21073000Y-16801295D01*
X21072999Y-16218706D01*
X21062543Y-16146933D01*
X21008419Y-16036220D01*
X20921280Y-15949081D01*
X20904357Y-15940808D01*
X20810568Y-15894957D01*
X20795220Y-15892721D01*
X20738795Y-15884500D01*
X20738791Y-15884500D01*
X20231206Y-15884500D01*
X20159434Y-15894956D01*
X20048720Y-15949081D01*
X19961580Y-16036221D01*
X19907457Y-16146931D01*
X19907457Y-16146932D01*
X19907457Y-16146933D01*
X19899759Y-16199773D01*
X19897000Y-16218708D01*
X19897000Y-16801293D01*
X19907456Y-16873065D01*
X19907457Y-16873067D01*
X19961581Y-16983780D01*
X20048720Y-17070919D01*
X20159433Y-17125043D01*
X20190488Y-17129567D01*
X20243912Y-17155298D01*
X20273049Y-17206947D01*
X20274392Y-17213267D01*
X20277453Y-17217480D01*
X20289785Y-17240191D01*
X20291654Y-17245060D01*
X20307492Y-17260899D01*
X20317579Y-17272710D01*
X20330737Y-17290820D01*
X20330738Y-17290820D01*
X20330740Y-17290823D01*
X20335250Y-17293426D01*
X20355751Y-17309157D01*
X20726052Y-17679458D01*
X20729619Y-17683218D01*
X20755993Y-17712509D01*
X20771350Y-17719346D01*
X20776442Y-17721613D01*
X20790095Y-17729026D01*
X20801768Y-17736606D01*
X20808882Y-17741226D01*
X20814030Y-17742041D01*
X20838807Y-17749380D01*
X20843568Y-17751500D01*
X20865960Y-17751500D01*
X20881447Y-17752719D01*
X20903564Y-17756222D01*
X20903564Y-17756221D01*
X20903565Y-17756222D01*
X20908599Y-17754873D01*
X20934222Y-17751500D01*
X24438999Y-17751500D01*
X24444179Y-17751635D01*
X24453534Y-17752126D01*
X24483561Y-17753700D01*
X24483561Y-17753699D01*
X24483564Y-17753700D01*
X24504483Y-17745669D01*
X24519355Y-17741264D01*
X24541268Y-17736607D01*
X24545478Y-17733547D01*
X24568190Y-17721214D01*
X24573060Y-17719346D01*
X24588900Y-17703504D01*
X24600699Y-17693426D01*
X24618823Y-17680260D01*
X24621427Y-17675749D01*
X24637155Y-17655249D01*
X28014187Y-14278217D01*
X31327501Y-14278217D01*
X31337411Y-14346247D01*
X31388714Y-14451188D01*
X31471312Y-14533786D01*
X31576250Y-14585087D01*
X31644284Y-14595000D01*
X31777499Y-14595000D01*
X31777500Y-14594999D01*
X31777500Y-14594998D01*
X31977500Y-14594998D01*
X31977501Y-14594999D01*
X32110717Y-14594999D01*
X32178747Y-14585088D01*
X32283688Y-14533785D01*
X32366286Y-14451187D01*
X32417587Y-14346249D01*
X32427500Y-14278216D01*
X32427500Y-14070001D01*
X32427499Y-14070000D01*
X31977501Y-14070000D01*
X31977500Y-14070001D01*
X31977500Y-14594998D01*
X31777500Y-14594998D01*
X31777500Y-14070001D01*
X31777499Y-14070000D01*
X31327502Y-14070000D01*
X31327501Y-14070001D01*
X31327501Y-14278217D01*
X28014187Y-14278217D01*
X28422405Y-13869999D01*
X31327500Y-13869999D01*
X31327501Y-13870000D01*
X31777499Y-13870000D01*
X31777500Y-13869999D01*
X31977500Y-13869999D01*
X31977501Y-13870000D01*
X32427498Y-13870000D01*
X32427499Y-13869999D01*
X32427499Y-13661783D01*
X32417588Y-13593752D01*
X32366285Y-13488811D01*
X32283687Y-13406213D01*
X32178749Y-13354912D01*
X32110716Y-13345000D01*
X31977501Y-13345000D01*
X31977500Y-13345001D01*
X31977500Y-13869999D01*
X31777500Y-13869999D01*
X31777500Y-13345002D01*
X31777499Y-13345001D01*
X31644283Y-13345001D01*
X31576252Y-13354911D01*
X31471311Y-13406214D01*
X31388713Y-13488812D01*
X31337412Y-13593750D01*
X31327500Y-13661784D01*
X31327500Y-13869999D01*
X28422405Y-13869999D01*
X30099909Y-12192495D01*
X30132027Y-12171036D01*
X30169913Y-12163500D01*
X38916999Y-12163500D01*
X38922179Y-12163635D01*
X38931534Y-12164126D01*
X38961561Y-12165700D01*
X38961561Y-12165699D01*
X38961564Y-12165700D01*
X38982483Y-12157669D01*
X38997355Y-12153264D01*
X39019268Y-12148607D01*
X39023478Y-12145547D01*
X39046190Y-12133214D01*
X39051060Y-12131346D01*
X39066899Y-12115505D01*
X39078706Y-12105422D01*
X39096823Y-12092260D01*
X39099424Y-12087753D01*
X39115161Y-12067244D01*
X39247496Y-11934910D01*
X39298185Y-11907816D01*
X39355385Y-11913450D01*
X39399815Y-11949913D01*
X39416499Y-12004914D01*
X39416499Y-15659088D01*
X39408963Y-15696974D01*
X39387503Y-15729092D01*
X37845091Y-17271504D01*
X37812973Y-17292964D01*
X37775087Y-17300500D01*
X33884584Y-17300500D01*
X33833907Y-17286546D01*
X33797516Y-17248619D01*
X33785669Y-17197409D01*
X33801704Y-17147352D01*
X33841102Y-17112559D01*
X33926280Y-17070919D01*
X34013419Y-16983780D01*
X34067543Y-16873067D01*
X34078000Y-16801295D01*
X34077999Y-16218706D01*
X34067543Y-16146933D01*
X34013419Y-16036220D01*
X33926280Y-15949081D01*
X33815567Y-15894957D01*
X33815565Y-15894956D01*
X33815564Y-15894956D01*
X33800225Y-15892721D01*
X33756972Y-15875326D01*
X33726477Y-15840065D01*
X33715500Y-15794756D01*
X33715500Y-14687715D01*
X33726477Y-14642406D01*
X33756973Y-14607144D01*
X33800224Y-14589750D01*
X33828893Y-14585573D01*
X33933983Y-14534198D01*
X34016698Y-14451483D01*
X34068073Y-14346393D01*
X34078000Y-14278260D01*
X34078000Y-13661740D01*
X34068073Y-13593607D01*
X34016698Y-13488517D01*
X33933983Y-13405802D01*
X33828893Y-13354427D01*
X33760760Y-13344500D01*
X33294240Y-13344500D01*
X33243140Y-13351945D01*
X33226106Y-13354427D01*
X33121018Y-13405801D01*
X33038301Y-13488518D01*
X32986927Y-13593606D01*
X32986927Y-13593607D01*
X32977000Y-13661740D01*
X32977000Y-14278260D01*
X32986927Y-14346393D01*
X33038302Y-14451483D01*
X33121017Y-14534198D01*
X33208980Y-14577200D01*
X33249481Y-14613717D01*
X33264500Y-14666141D01*
X33264500Y-15794756D01*
X33253523Y-15840066D01*
X33223026Y-15875327D01*
X33179772Y-15892722D01*
X33164434Y-15894956D01*
X33053720Y-15949081D01*
X32966580Y-16036221D01*
X32912457Y-16146931D01*
X32912457Y-16146932D01*
X32912457Y-16146933D01*
X32904759Y-16199773D01*
X32902000Y-16218708D01*
X32902000Y-16801293D01*
X32912456Y-16873065D01*
X32912457Y-16873067D01*
X32966581Y-16983780D01*
X33053720Y-17070919D01*
X33138897Y-17112559D01*
X33178296Y-17147352D01*
X33194332Y-17197409D01*
X33182485Y-17248619D01*
X33146094Y-17286546D01*
X33095417Y-17300500D01*
X32455913Y-17300500D01*
X32418027Y-17292964D01*
X32385909Y-17271504D01*
X32337861Y-17223456D01*
X32313581Y-17183642D01*
X32310220Y-17137131D01*
X32328524Y-17094240D01*
X32340945Y-17083947D01*
X32339598Y-17082600D01*
X32351277Y-17070920D01*
X32351280Y-17070919D01*
X32438419Y-16983780D01*
X32492543Y-16873067D01*
X32503000Y-16801295D01*
X32502999Y-16218706D01*
X32492543Y-16146933D01*
X32438419Y-16036220D01*
X32351280Y-15949081D01*
X32334357Y-15940808D01*
X32240568Y-15894957D01*
X32225220Y-15892721D01*
X32168795Y-15884500D01*
X32168791Y-15884500D01*
X31661206Y-15884500D01*
X31589434Y-15894956D01*
X31478720Y-15949081D01*
X31391580Y-16036221D01*
X31337457Y-16146931D01*
X31337457Y-16146932D01*
X31337457Y-16146933D01*
X31329759Y-16199773D01*
X31327000Y-16218708D01*
X31327000Y-16801293D01*
X31337456Y-16873065D01*
X31337457Y-16873067D01*
X31391581Y-16983780D01*
X31478720Y-17070919D01*
X31589433Y-17125043D01*
X31620488Y-17129567D01*
X31673912Y-17155298D01*
X31703049Y-17206947D01*
X31704392Y-17213267D01*
X31707453Y-17217480D01*
X31719785Y-17240191D01*
X31721654Y-17245060D01*
X31737492Y-17260899D01*
X31747579Y-17272710D01*
X31760737Y-17290820D01*
X31760738Y-17290820D01*
X31760740Y-17290823D01*
X31765250Y-17293426D01*
X31785751Y-17309157D01*
X32156052Y-17679458D01*
X32159619Y-17683218D01*
X32185993Y-17712509D01*
X32201350Y-17719346D01*
X32206442Y-17721613D01*
X32220095Y-17729026D01*
X32231768Y-17736606D01*
X32238882Y-17741226D01*
X32244030Y-17742041D01*
X32268807Y-17749380D01*
X32273568Y-17751500D01*
X32295960Y-17751500D01*
X32311447Y-17752719D01*
X32333564Y-17756222D01*
X32333564Y-17756221D01*
X32333565Y-17756222D01*
X32338599Y-17754873D01*
X32364222Y-17751500D01*
X37900999Y-17751500D01*
X37906179Y-17751635D01*
X37915534Y-17752126D01*
X37945561Y-17753700D01*
X37945561Y-17753699D01*
X37945564Y-17753700D01*
X37966483Y-17745669D01*
X37981355Y-17741264D01*
X38003268Y-17736607D01*
X38007478Y-17733547D01*
X38030190Y-17721214D01*
X38035060Y-17719346D01*
X38050900Y-17703504D01*
X38062699Y-17693426D01*
X38080823Y-17680260D01*
X38083427Y-17675749D01*
X38099155Y-17655249D01*
X39744495Y-16009908D01*
X39788876Y-15984286D01*
X39840122Y-15984286D01*
X39884503Y-16009909D01*
X40538053Y-16663459D01*
X40541602Y-16667199D01*
X40567993Y-16696509D01*
X40588456Y-16705619D01*
X40602097Y-16713026D01*
X40610404Y-16718421D01*
X40620882Y-16725226D01*
X40626024Y-16726040D01*
X40650812Y-16733382D01*
X40655568Y-16735500D01*
X40677961Y-16735500D01*
X40693448Y-16736719D01*
X40715565Y-16740222D01*
X40715565Y-16740221D01*
X40715566Y-16740222D01*
X40720600Y-16738873D01*
X40746223Y-16735500D01*
X42661793Y-16735500D01*
X42707103Y-16746477D01*
X42742365Y-16776974D01*
X42759759Y-16820228D01*
X42767456Y-16873065D01*
X42767457Y-16873067D01*
X42821581Y-16983780D01*
X42908720Y-17070919D01*
X43019433Y-17125043D01*
X43091205Y-17135500D01*
X43598794Y-17135499D01*
X43670567Y-17125043D01*
X43781280Y-17070919D01*
X43868419Y-16983780D01*
X43922543Y-16873067D01*
X43933000Y-16801295D01*
X43933000Y-16801293D01*
X44332000Y-16801293D01*
X44342456Y-16873065D01*
X44342457Y-16873067D01*
X44396581Y-16983780D01*
X44483720Y-17070919D01*
X44594433Y-17125043D01*
X44666205Y-17135500D01*
X45173794Y-17135499D01*
X45245567Y-17125043D01*
X45356280Y-17070919D01*
X45443419Y-16983780D01*
X45497543Y-16873067D01*
X45508000Y-16801295D01*
X45507999Y-16218706D01*
X45497543Y-16146933D01*
X45443419Y-16036220D01*
X45356280Y-15949081D01*
X45245567Y-15894957D01*
X45245566Y-15894956D01*
X45238520Y-15891512D01*
X45198019Y-15854994D01*
X45183000Y-15802571D01*
X45183000Y-14682251D01*
X45193978Y-14636940D01*
X45224477Y-14601678D01*
X45245428Y-14593252D01*
X45244995Y-14592367D01*
X45258891Y-14585573D01*
X45258893Y-14585573D01*
X45363983Y-14534198D01*
X45446698Y-14451483D01*
X45498073Y-14346393D01*
X45508000Y-14278260D01*
X45508000Y-13661740D01*
X45498073Y-13593607D01*
X45446698Y-13488517D01*
X45363983Y-13405802D01*
X45258893Y-13354427D01*
X45190760Y-13344500D01*
X44724240Y-13344500D01*
X44673140Y-13351945D01*
X44656106Y-13354427D01*
X44551018Y-13405801D01*
X44468301Y-13488518D01*
X44416927Y-13593606D01*
X44416927Y-13593607D01*
X44407000Y-13661740D01*
X44407000Y-14278260D01*
X44416927Y-14346393D01*
X44468302Y-14451483D01*
X44551017Y-14534198D01*
X44656107Y-14585573D01*
X44670005Y-14592367D01*
X44669571Y-14593252D01*
X44690523Y-14601678D01*
X44721022Y-14636940D01*
X44732000Y-14682251D01*
X44732000Y-15789293D01*
X44721023Y-15834603D01*
X44690526Y-15869865D01*
X44647272Y-15887259D01*
X44594434Y-15894956D01*
X44483720Y-15949081D01*
X44396580Y-16036221D01*
X44342457Y-16146931D01*
X44342457Y-16146932D01*
X44342457Y-16146933D01*
X44334759Y-16199773D01*
X44332000Y-16218708D01*
X44332000Y-16801293D01*
X43933000Y-16801293D01*
X43932999Y-16218706D01*
X43922543Y-16146933D01*
X43868419Y-16036220D01*
X43781280Y-15949081D01*
X43764357Y-15940808D01*
X43670568Y-15894957D01*
X43655220Y-15892721D01*
X43598795Y-15884500D01*
X43598791Y-15884500D01*
X43091206Y-15884500D01*
X43019434Y-15894956D01*
X42908720Y-15949081D01*
X42821580Y-16036221D01*
X42767457Y-16146932D01*
X42767457Y-16146933D01*
X42759757Y-16199775D01*
X42742364Y-16243027D01*
X42707102Y-16273523D01*
X42661793Y-16284500D01*
X40837913Y-16284500D01*
X40800027Y-16276964D01*
X40767909Y-16255504D01*
X40195996Y-15683591D01*
X40174536Y-15651473D01*
X40167000Y-15613587D01*
X40167000Y-14278217D01*
X42757501Y-14278217D01*
X42767411Y-14346247D01*
X42818714Y-14451188D01*
X42901312Y-14533786D01*
X43006250Y-14585087D01*
X43074284Y-14595000D01*
X43207499Y-14595000D01*
X43207500Y-14594999D01*
X43207500Y-14594998D01*
X43407500Y-14594998D01*
X43407501Y-14594999D01*
X43540717Y-14594999D01*
X43608747Y-14585088D01*
X43713688Y-14533785D01*
X43796286Y-14451187D01*
X43847587Y-14346249D01*
X43857500Y-14278216D01*
X43857500Y-14070001D01*
X43857499Y-14070000D01*
X43407501Y-14070000D01*
X43407500Y-14070001D01*
X43407500Y-14594998D01*
X43207500Y-14594998D01*
X43207500Y-14070001D01*
X43207499Y-14070000D01*
X42757502Y-14070000D01*
X42757501Y-14070001D01*
X42757501Y-14278217D01*
X40167000Y-14278217D01*
X40167000Y-13869999D01*
X42757500Y-13869999D01*
X42757501Y-13870000D01*
X43207499Y-13870000D01*
X43207500Y-13869999D01*
X43407500Y-13869999D01*
X43407501Y-13870000D01*
X43857498Y-13870000D01*
X43857499Y-13869999D01*
X43857499Y-13661783D01*
X43847588Y-13593752D01*
X43796285Y-13488811D01*
X43713687Y-13406213D01*
X43608749Y-13354912D01*
X43540716Y-13345000D01*
X43407501Y-13345000D01*
X43407500Y-13345001D01*
X43407500Y-13869999D01*
X43207500Y-13869999D01*
X43207500Y-13345002D01*
X43207499Y-13345001D01*
X43074283Y-13345001D01*
X43006252Y-13354911D01*
X42901311Y-13406214D01*
X42818713Y-13488812D01*
X42767412Y-13593750D01*
X42757500Y-13661784D01*
X42757500Y-13869999D01*
X40167000Y-13869999D01*
X40167000Y-13341521D01*
X51307000Y-13341521D01*
X51321852Y-13435303D01*
X51379448Y-13548339D01*
X51379450Y-13548342D01*
X51469158Y-13638050D01*
X51582196Y-13695646D01*
X51675981Y-13710500D01*
X53039018Y-13710499D01*
X53039021Y-13710499D01*
X53132803Y-13695647D01*
X53187207Y-13667926D01*
X53245842Y-13638050D01*
X53335550Y-13548342D01*
X53393146Y-13435304D01*
X53408000Y-13341519D01*
X53407999Y-12578482D01*
X53407999Y-12578480D01*
X53407999Y-12578478D01*
X53393147Y-12484696D01*
X53335551Y-12371660D01*
X53335550Y-12371658D01*
X53245842Y-12281950D01*
X53132804Y-12224354D01*
X53132803Y-12224353D01*
X53132802Y-12224353D01*
X53039019Y-12209500D01*
X51675978Y-12209500D01*
X51582196Y-12224352D01*
X51469160Y-12281948D01*
X51379449Y-12371659D01*
X51321853Y-12484697D01*
X51307000Y-12578480D01*
X51307000Y-13341521D01*
X40167000Y-13341521D01*
X40167000Y-11854790D01*
X47557501Y-11854790D01*
X47560410Y-11879874D01*
X47605712Y-11982476D01*
X47685023Y-12061787D01*
X47787626Y-12107090D01*
X47812705Y-12110000D01*
X48382499Y-12110000D01*
X48382500Y-12109999D01*
X48382500Y-12109998D01*
X48582500Y-12109998D01*
X48582501Y-12109999D01*
X49152290Y-12109999D01*
X49177374Y-12107089D01*
X49279976Y-12061787D01*
X49359287Y-11982476D01*
X49404590Y-11879873D01*
X49407500Y-11854795D01*
X49407500Y-11760001D01*
X49407499Y-11760000D01*
X48582501Y-11760000D01*
X48582500Y-11760001D01*
X48582500Y-12109998D01*
X48382500Y-12109998D01*
X48382500Y-11760001D01*
X48382499Y-11760000D01*
X47557502Y-11760000D01*
X47557501Y-11760001D01*
X47557501Y-11854790D01*
X40167000Y-11854790D01*
X40167000Y-9575373D01*
X40167136Y-9570193D01*
X40167151Y-9569907D01*
X40169199Y-9530820D01*
X40161173Y-9509912D01*
X40156763Y-9495023D01*
X40152107Y-9473115D01*
X40149046Y-9468903D01*
X40136711Y-9446185D01*
X40136048Y-9444458D01*
X40134845Y-9441324D01*
X40128637Y-9435116D01*
X40119007Y-9425485D01*
X40108920Y-9413674D01*
X40095760Y-9395561D01*
X40091246Y-9392955D01*
X40070745Y-9377224D01*
X38485071Y-7791550D01*
X38481522Y-7787810D01*
X38455123Y-7758491D01*
X38455122Y-7758490D01*
X38434664Y-7749382D01*
X38421012Y-7741969D01*
X38402234Y-7729774D01*
X38402233Y-7729773D01*
X38402232Y-7729773D01*
X38397076Y-7728956D01*
X38372309Y-7721619D01*
X38354311Y-7713606D01*
X38331160Y-7707807D01*
X38295512Y-7675491D01*
X38295178Y-7674991D01*
X38278500Y-7619932D01*
X38295254Y-7564895D01*
X38295589Y-7564395D01*
X38331222Y-7532160D01*
X38377835Y-7520500D01*
X41006086Y-7520500D01*
X41043972Y-7528036D01*
X41076090Y-7549496D01*
X41973004Y-8446409D01*
X41994464Y-8478527D01*
X42002000Y-8516413D01*
X42002000Y-9483853D01*
X41987723Y-9535069D01*
X41949009Y-9571513D01*
X41855259Y-9620717D01*
X41737017Y-9725470D01*
X41647280Y-9855476D01*
X41591262Y-10003184D01*
X41574754Y-10139144D01*
X41572222Y-10160000D01*
X41578586Y-10212415D01*
X41591262Y-10316815D01*
X41591262Y-10316817D01*
X41591263Y-10316818D01*
X41647280Y-10464523D01*
X41737017Y-10594530D01*
X41855260Y-10699283D01*
X41890766Y-10717918D01*
X41995136Y-10772697D01*
X42148513Y-10810500D01*
X42148515Y-10810500D01*
X42306485Y-10810500D01*
X42306487Y-10810500D01*
X42459863Y-10772697D01*
X42459865Y-10772696D01*
X42599740Y-10699283D01*
X42717983Y-10594530D01*
X42807720Y-10464523D01*
X42863737Y-10316818D01*
X42882778Y-10160000D01*
X42879592Y-10133763D01*
X42870904Y-10062205D01*
X42863737Y-10003182D01*
X42807720Y-9855477D01*
X42717983Y-9725470D01*
X42599740Y-9620717D01*
X42524002Y-9580966D01*
X42505991Y-9571513D01*
X42467277Y-9535069D01*
X42453000Y-9483853D01*
X42453000Y-8390501D01*
X42453136Y-8385319D01*
X42455200Y-8345936D01*
X42447174Y-8325027D01*
X42442762Y-8310132D01*
X42439550Y-8295021D01*
X42438107Y-8288232D01*
X42435045Y-8284017D01*
X42422713Y-8261306D01*
X42420846Y-8256440D01*
X42415592Y-8251186D01*
X42405007Y-8240600D01*
X42394920Y-8228790D01*
X42383382Y-8212910D01*
X42381760Y-8210677D01*
X42381759Y-8210676D01*
X42377250Y-8208073D01*
X42356748Y-8192342D01*
X41305954Y-7141549D01*
X41302386Y-7137788D01*
X41276007Y-7108491D01*
X41256934Y-7099999D01*
X41255546Y-7099381D01*
X41241896Y-7091969D01*
X41234950Y-7087458D01*
X41223118Y-7079774D01*
X41223117Y-7079773D01*
X41223116Y-7079773D01*
X41217960Y-7078956D01*
X41193193Y-7071619D01*
X41188433Y-7069500D01*
X41188432Y-7069500D01*
X41166040Y-7069500D01*
X41150554Y-7068281D01*
X41144240Y-7067281D01*
X41132779Y-7061666D01*
X41127133Y-7065126D01*
X41123399Y-7066127D01*
X41097778Y-7069500D01*
X38377835Y-7069500D01*
X38331222Y-7057840D01*
X38295589Y-7025605D01*
X38295254Y-7025105D01*
X38278500Y-6970000D01*
X38295254Y-6914895D01*
X38295589Y-6914395D01*
X38331222Y-6882160D01*
X38377835Y-6870500D01*
X41101510Y-6870500D01*
X41131168Y-6879285D01*
X41159726Y-6870500D01*
X47468086Y-6870500D01*
X47505972Y-6878036D01*
X47538090Y-6899496D01*
X48228004Y-7589409D01*
X48249464Y-7621527D01*
X48257000Y-7659413D01*
X48257000Y-8110501D01*
X48243737Y-8160001D01*
X48207500Y-8196238D01*
X48158000Y-8209501D01*
X47812636Y-8209501D01*
X47787518Y-8212414D01*
X47787509Y-8212415D01*
X47684735Y-8257793D01*
X47605293Y-8337235D01*
X47559914Y-8440010D01*
X47557000Y-8465133D01*
X47557000Y-8854863D01*
X47559406Y-8875601D01*
X47559915Y-8879991D01*
X47577581Y-8920000D01*
X47605293Y-8982764D01*
X47684736Y-9062207D01*
X47701104Y-9069434D01*
X47744062Y-9105950D01*
X47760118Y-9159997D01*
X47744065Y-9214044D01*
X47701109Y-9250562D01*
X47684737Y-9257791D01*
X47605293Y-9337235D01*
X47559914Y-9440010D01*
X47557000Y-9465133D01*
X47557000Y-9854863D01*
X47558560Y-9868309D01*
X47559915Y-9879991D01*
X47579951Y-9925369D01*
X47605293Y-9982764D01*
X47684736Y-10062207D01*
X47701104Y-10069434D01*
X47744062Y-10105950D01*
X47760118Y-10159997D01*
X47744065Y-10214044D01*
X47701109Y-10250562D01*
X47684737Y-10257791D01*
X47605293Y-10337235D01*
X47559914Y-10440010D01*
X47557000Y-10465133D01*
X47557000Y-10854863D01*
X47559576Y-10877075D01*
X47559915Y-10879991D01*
X47574139Y-10912206D01*
X47605293Y-10982764D01*
X47684735Y-11062206D01*
X47701725Y-11069708D01*
X47744682Y-11106226D01*
X47760737Y-11160273D01*
X47744682Y-11214320D01*
X47701725Y-11250838D01*
X47685023Y-11258212D01*
X47605712Y-11337523D01*
X47560409Y-11440126D01*
X47557500Y-11465205D01*
X47557500Y-11559999D01*
X47557501Y-11560000D01*
X49407498Y-11560000D01*
X49407499Y-11559999D01*
X49407499Y-11465210D01*
X49404589Y-11440125D01*
X49359287Y-11337523D01*
X49279976Y-11258212D01*
X49263275Y-11250838D01*
X49220317Y-11214320D01*
X49204262Y-11160273D01*
X49220317Y-11106225D01*
X49263275Y-11069708D01*
X49280265Y-11062206D01*
X49352974Y-10989497D01*
X49385092Y-10968036D01*
X49422978Y-10960500D01*
X49536335Y-10960500D01*
X49552255Y-10963097D01*
X49559264Y-10962772D01*
X49559265Y-10962773D01*
X49606141Y-10960606D01*
X49610714Y-10960500D01*
X49629344Y-10960500D01*
X49629451Y-10960480D01*
X49643071Y-10958898D01*
X49671492Y-10957585D01*
X49680482Y-10953615D01*
X49702272Y-10946866D01*
X49711933Y-10945061D01*
X49736123Y-10930082D01*
X49748222Y-10923704D01*
X49774265Y-10912206D01*
X49781210Y-10905259D01*
X49799097Y-10891091D01*
X49807452Y-10885919D01*
X49824595Y-10863216D01*
X49833582Y-10852887D01*
X50267905Y-10418564D01*
X50280996Y-10409147D01*
X50285725Y-10403959D01*
X50285728Y-10403958D01*
X50317377Y-10369239D01*
X50320494Y-10365975D01*
X50333674Y-10352797D01*
X50333738Y-10352702D01*
X50342245Y-10341961D01*
X50361416Y-10320933D01*
X50364966Y-10311766D01*
X50375609Y-10291578D01*
X50381157Y-10283480D01*
X50387671Y-10255782D01*
X50391723Y-10242700D01*
X50396270Y-10230965D01*
X50402000Y-10216173D01*
X50402000Y-10206347D01*
X50404630Y-10183681D01*
X50406530Y-10175601D01*
X50406879Y-10174119D01*
X50402948Y-10145946D01*
X50402000Y-10132270D01*
X50402000Y-7939165D01*
X50404597Y-7923244D01*
X50402106Y-7869358D01*
X50402000Y-7864786D01*
X50402000Y-7846157D01*
X50401980Y-7846050D01*
X50400398Y-7832430D01*
X50399085Y-7804008D01*
X50395112Y-7795012D01*
X50388366Y-7773223D01*
X50386561Y-7763567D01*
X50376464Y-7747260D01*
X50372911Y-7741521D01*
X51307000Y-7741521D01*
X51321852Y-7835303D01*
X51374774Y-7939165D01*
X51379450Y-7948342D01*
X51469158Y-8038050D01*
X51582196Y-8095646D01*
X51675981Y-8110500D01*
X53039018Y-8110499D01*
X53039021Y-8110499D01*
X53132803Y-8095647D01*
X53187207Y-8067925D01*
X53245842Y-8038050D01*
X53335550Y-7948342D01*
X53393146Y-7835304D01*
X53408000Y-7741519D01*
X53407999Y-6978482D01*
X53407999Y-6978480D01*
X53407999Y-6978478D01*
X53393147Y-6884696D01*
X53335551Y-6771660D01*
X53335550Y-6771658D01*
X53245842Y-6681950D01*
X53132804Y-6624354D01*
X53132803Y-6624353D01*
X53132802Y-6624353D01*
X53039019Y-6609500D01*
X51675978Y-6609500D01*
X51582196Y-6624352D01*
X51469160Y-6681948D01*
X51379449Y-6771659D01*
X51321853Y-6884697D01*
X51307000Y-6978480D01*
X51307000Y-7741521D01*
X50372911Y-7741521D01*
X50371588Y-7739384D01*
X50365196Y-7727257D01*
X50353705Y-7701233D01*
X50346756Y-7694284D01*
X50332590Y-7676399D01*
X50327419Y-7668048D01*
X50304721Y-7650907D01*
X50294379Y-7641908D01*
X47831066Y-5178595D01*
X47821645Y-5165501D01*
X47781773Y-5129152D01*
X47778467Y-5125995D01*
X47765296Y-5112825D01*
X47765197Y-5112757D01*
X47754454Y-5104247D01*
X47733433Y-5085084D01*
X47724262Y-5081531D01*
X47704087Y-5070896D01*
X47695981Y-5065344D01*
X47668297Y-5058832D01*
X47655204Y-5054777D01*
X47628675Y-5044500D01*
X47628673Y-5044500D01*
X47618848Y-5044500D01*
X47596182Y-5041870D01*
X47586619Y-5039621D01*
X47586618Y-5039621D01*
X47558447Y-5043551D01*
X47544769Y-5044500D01*
X38288350Y-5044500D01*
X38233350Y-5027816D01*
X38205240Y-5009034D01*
X38132174Y-4994500D01*
X36807826Y-4994500D01*
X36734760Y-5009034D01*
X36706649Y-5027816D01*
X36651650Y-5044500D01*
X36053979Y-5044500D01*
X36016093Y-5036964D01*
X35983975Y-5015504D01*
X34143470Y-3174999D01*
X48457658Y-3174999D01*
X48477805Y-3482393D01*
X48537904Y-3784531D01*
X48636925Y-4076237D01*
X48773173Y-4352518D01*
X48944322Y-4608661D01*
X49081357Y-4764919D01*
X49150319Y-4695958D01*
X49196980Y-4669752D01*
X49250461Y-4671660D01*
X49295136Y-4701123D01*
X49296449Y-4702638D01*
X49318372Y-4746426D01*
X49316627Y-4795364D01*
X49291640Y-4837479D01*
X49222778Y-4906340D01*
X49222779Y-4906341D01*
X49379038Y-5043377D01*
X49635181Y-5214526D01*
X49911462Y-5350774D01*
X50203168Y-5449795D01*
X50505306Y-5509894D01*
X50812700Y-5530041D01*
X51120093Y-5509894D01*
X51422231Y-5449795D01*
X51713937Y-5350774D01*
X51990218Y-5214526D01*
X52246357Y-5043380D01*
X52402620Y-4906340D01*
X52333759Y-4837479D01*
X52308773Y-4795366D01*
X52307026Y-4746429D01*
X52328947Y-4702642D01*
X52328951Y-4702638D01*
X52330259Y-4701127D01*
X52374933Y-4671662D01*
X52428416Y-4669753D01*
X52475078Y-4695958D01*
X52544040Y-4764919D01*
X52681080Y-4608657D01*
X52852226Y-4352518D01*
X52988474Y-4076237D01*
X53087495Y-3784531D01*
X53147594Y-3482393D01*
X53167741Y-3174999D01*
X53147594Y-2867606D01*
X53087495Y-2565468D01*
X52988474Y-2273762D01*
X52852226Y-1997481D01*
X52681077Y-1741338D01*
X52544041Y-1585079D01*
X52544040Y-1585078D01*
X52475077Y-1654041D01*
X52428404Y-1680249D01*
X52374912Y-1678330D01*
X52330238Y-1648848D01*
X52328923Y-1647330D01*
X52307020Y-1603547D01*
X52308775Y-1554621D01*
X52333759Y-1512518D01*
X52402619Y-1443657D01*
X52246361Y-1306622D01*
X51990218Y-1135473D01*
X51713937Y-999225D01*
X51422231Y-900204D01*
X51120093Y-840105D01*
X50812700Y-819958D01*
X50505306Y-840105D01*
X50203168Y-900204D01*
X49911462Y-999225D01*
X49635181Y-1135473D01*
X49379038Y-1306621D01*
X49222779Y-1443657D01*
X49222778Y-1443658D01*
X49291640Y-1512520D01*
X49316623Y-1554623D01*
X49318377Y-1603549D01*
X49296474Y-1647333D01*
X49295162Y-1648848D01*
X49250486Y-1678331D01*
X49196993Y-1680250D01*
X49150320Y-1654042D01*
X49081357Y-1585079D01*
X48944321Y-1741338D01*
X48773173Y-1997481D01*
X48636925Y-2273762D01*
X48537904Y-2565468D01*
X48477805Y-2867606D01*
X48457658Y-3174999D01*
X34143470Y-3174999D01*
X33596066Y-2627595D01*
X33586645Y-2614501D01*
X33546773Y-2578152D01*
X33543467Y-2574995D01*
X33530296Y-2561825D01*
X33530197Y-2561757D01*
X33519454Y-2553247D01*
X33514518Y-2548747D01*
X33498433Y-2534084D01*
X33489262Y-2530531D01*
X33469087Y-2519896D01*
X33460981Y-2514344D01*
X33438002Y-2508939D01*
X33433296Y-2507832D01*
X33420204Y-2503777D01*
X33393675Y-2493500D01*
X33393673Y-2493500D01*
X33383848Y-2493500D01*
X33361182Y-2490870D01*
X33351619Y-2488621D01*
X33351618Y-2488621D01*
X33323447Y-2492551D01*
X33309769Y-2493500D01*
X14606665Y-2493500D01*
X14590744Y-2490902D01*
X14536858Y-2493394D01*
X14532286Y-2493500D01*
X14513654Y-2493500D01*
X14513531Y-2493523D01*
X14499920Y-2495101D01*
X14471507Y-2496414D01*
X14462509Y-2500387D01*
X14440724Y-2507133D01*
X14436211Y-2507977D01*
X14431065Y-2508939D01*
X14406887Y-2523909D01*
X14394765Y-2530299D01*
X14368732Y-2541794D01*
X14361779Y-2548747D01*
X14343902Y-2562907D01*
X14335549Y-2568079D01*
X14318410Y-2590774D01*
X14309412Y-2601114D01*
X7580025Y-9330504D01*
X7547907Y-9351964D01*
X7510021Y-9359500D01*
X6432978Y-9359500D01*
X6395092Y-9351964D01*
X6362974Y-9330503D01*
X6290264Y-9257792D01*
X6273273Y-9250290D01*
X6230316Y-9213772D01*
X6214262Y-9159724D01*
X6230318Y-9105677D01*
X6273277Y-9069160D01*
X6289977Y-9061786D01*
X6369287Y-8982476D01*
X6414590Y-8879873D01*
X6417500Y-8854795D01*
X6417500Y-8760001D01*
X6417499Y-8760000D01*
X4567502Y-8760000D01*
X4567501Y-8760001D01*
X4567501Y-8854790D01*
X4570410Y-8879874D01*
X4615712Y-8982476D01*
X4695022Y-9061786D01*
X4711723Y-9069160D01*
X4754681Y-9105677D01*
X4770737Y-9159724D01*
X4754683Y-9213771D01*
X4711727Y-9250290D01*
X4694736Y-9257792D01*
X4615293Y-9337235D01*
X4569914Y-9440010D01*
X4567000Y-9465133D01*
X4567000Y-9854863D01*
X4568560Y-9868309D01*
X4569915Y-9879991D01*
X4589951Y-9925369D01*
X4615293Y-9982764D01*
X4694736Y-10062207D01*
X4711104Y-10069434D01*
X4754062Y-10105950D01*
X4770118Y-10159997D01*
X4754065Y-10214044D01*
X4711109Y-10250562D01*
X4694737Y-10257791D01*
X4615293Y-10337235D01*
X4569914Y-10440010D01*
X4567000Y-10465133D01*
X4567000Y-10854863D01*
X4569576Y-10877075D01*
X4569915Y-10879991D01*
X4584139Y-10912206D01*
X4615293Y-10982764D01*
X4694736Y-11062207D01*
X4711104Y-11069434D01*
X4754062Y-11105950D01*
X4770118Y-11159997D01*
X4754065Y-11214044D01*
X4711109Y-11250562D01*
X4694737Y-11257791D01*
X4615293Y-11337235D01*
X4569914Y-11440010D01*
X4567000Y-11465133D01*
X4567000Y-11854863D01*
X200499Y-11854863D01*
X200499Y-8559999D01*
X4567500Y-8559999D01*
X4567501Y-8560000D01*
X5392499Y-8560000D01*
X5392500Y-8559999D01*
X5592500Y-8559999D01*
X5592501Y-8560000D01*
X6417498Y-8560000D01*
X6417499Y-8559999D01*
X6417499Y-8465210D01*
X6414589Y-8440125D01*
X6369287Y-8337523D01*
X6289976Y-8258212D01*
X6187373Y-8212909D01*
X6162295Y-8210000D01*
X5592501Y-8210000D01*
X5592500Y-8210001D01*
X5592500Y-8559999D01*
X5392500Y-8559999D01*
X5392500Y-8210002D01*
X5392499Y-8210001D01*
X4822710Y-8210001D01*
X4797625Y-8212910D01*
X4695023Y-8258212D01*
X4615712Y-8337523D01*
X4570409Y-8440126D01*
X4567500Y-8465205D01*
X4567500Y-8559999D01*
X200499Y-8559999D01*
X200499Y-7741521D01*
X567000Y-7741521D01*
X581852Y-7835303D01*
X634774Y-7939165D01*
X639450Y-7948342D01*
X729158Y-8038050D01*
X842196Y-8095646D01*
X935981Y-8110500D01*
X2299018Y-8110499D01*
X2299021Y-8110499D01*
X2392803Y-8095647D01*
X2447207Y-8067925D01*
X2505842Y-8038050D01*
X2595550Y-7948342D01*
X2653146Y-7835304D01*
X2668000Y-7741519D01*
X2667999Y-6978482D01*
X2667999Y-6978480D01*
X2667999Y-6978478D01*
X2653147Y-6884696D01*
X2595551Y-6771660D01*
X2595550Y-6771658D01*
X2505842Y-6681950D01*
X2392804Y-6624354D01*
X2392803Y-6624353D01*
X2392802Y-6624353D01*
X2299019Y-6609500D01*
X935978Y-6609500D01*
X842196Y-6624352D01*
X729160Y-6681948D01*
X639449Y-6771659D01*
X581853Y-6884697D01*
X567000Y-6978480D01*
X567000Y-7741521D01*
X200499Y-7741521D01*
X200499Y-3177587D01*
X200567Y-3174999D01*
X832658Y-3174999D01*
X852805Y-3482393D01*
X912904Y-3784531D01*
X1011925Y-4076237D01*
X1148173Y-4352518D01*
X1319322Y-4608661D01*
X1456357Y-4764919D01*
X1525319Y-4695958D01*
X1571980Y-4669752D01*
X1625461Y-4671660D01*
X1670136Y-4701123D01*
X1671449Y-4702638D01*
X1693372Y-4746426D01*
X1691627Y-4795364D01*
X1666640Y-4837479D01*
X1597778Y-4906340D01*
X1597779Y-4906341D01*
X1754038Y-5043377D01*
X2010181Y-5214526D01*
X2286462Y-5350774D01*
X2578168Y-5449795D01*
X2880306Y-5509894D01*
X3187700Y-5530041D01*
X3495093Y-5509894D01*
X3797231Y-5449795D01*
X4088937Y-5350774D01*
X4365218Y-5214526D01*
X4621357Y-5043380D01*
X4777620Y-4906340D01*
X4708759Y-4837479D01*
X4683773Y-4795366D01*
X4682026Y-4746429D01*
X4703947Y-4702642D01*
X4703951Y-4702638D01*
X4705259Y-4701127D01*
X4749933Y-4671662D01*
X4803416Y-4669753D01*
X4850078Y-4695958D01*
X4919040Y-4764919D01*
X5056080Y-4608657D01*
X5227226Y-4352518D01*
X5363474Y-4076237D01*
X5462495Y-3784531D01*
X5522594Y-3482393D01*
X5542741Y-3174999D01*
X5522594Y-2867606D01*
X5462495Y-2565468D01*
X5363474Y-2273762D01*
X5227226Y-1997481D01*
X5056077Y-1741338D01*
X4919041Y-1585079D01*
X4919040Y-1585078D01*
X4850077Y-1654041D01*
X4803404Y-1680249D01*
X4749912Y-1678330D01*
X4705238Y-1648848D01*
X4703923Y-1647330D01*
X4682020Y-1603547D01*
X4683775Y-1554621D01*
X4708759Y-1512518D01*
X4777619Y-1443657D01*
X4621361Y-1306622D01*
X4365218Y-1135473D01*
X4088937Y-999225D01*
X3797231Y-900204D01*
X3495093Y-840105D01*
X3187700Y-819958D01*
X2880306Y-840105D01*
X2578168Y-900204D01*
X2286462Y-999225D01*
X2010181Y-1135473D01*
X1754038Y-1306621D01*
X1597779Y-1443657D01*
X1597778Y-1443658D01*
X1666640Y-1512520D01*
X1691623Y-1554623D01*
X1693377Y-1603549D01*
X1671474Y-1647333D01*
X1670162Y-1648848D01*
X1625486Y-1678331D01*
X1571993Y-1680250D01*
X1525320Y-1654042D01*
X1456357Y-1585079D01*
X1319321Y-1741338D01*
X1148173Y-1997481D01*
X1011925Y-2273762D01*
X912904Y-2565468D01*
X852805Y-2867606D01*
X832658Y-3174999D01*
X200567Y-3174999D01*
X200635Y-3172405D01*
X216523Y-2869261D01*
X217606Y-2858958D01*
X264690Y-2561680D01*
X266837Y-2551574D01*
X344743Y-2260823D01*
X347938Y-2250991D01*
X455800Y-1970002D01*
X460012Y-1960543D01*
X596662Y-1692350D01*
X601826Y-1683407D01*
X765761Y-1430971D01*
X771838Y-1422608D01*
X961254Y-1188698D01*
X968169Y-1181017D01*
X1181017Y-968169D01*
X1188704Y-961250D01*
X1422616Y-771831D01*
X1430971Y-765761D01*
X1683407Y-601826D01*
X1692350Y-596662D01*
X1960550Y-460008D01*
X1970002Y-455800D01*
X2250991Y-347938D01*
X2260823Y-344743D01*
X2551574Y-266837D01*
X2561680Y-264690D01*
X2858964Y-217605D01*
X2869256Y-216523D01*
X3172405Y-200635D01*
X3177586Y-200500D01*
X3214882Y-200500D01*
X50760118Y-200500D01*
X50797414Y-200500D01*
X50802594Y-200635D01*
G37*
%TD.AperFunction*%
%TD*%
M02*
