%TF.GenerationSoftware,KiCad,Pcbnew,7.0.7*%
%TF.CreationDate,2023-10-15T17:36:15+02:00*%
%TF.ProjectId,io_expander,696f5f65-7870-4616-9e64-65722e6b6963,1.1*%
%TF.SameCoordinates,PX3c8eee0PY3c8eee0*%
%TF.FileFunction,Legend,Bot*%
%TF.FilePolarity,Positive*%
%FSLAX46Y46*%
G04 Gerber Fmt 4.6, Leading zero omitted, Abs format (unit mm)*
G04 Created by KiCad (PCBNEW 7.0.7) date 2023-10-15 17:36:15*
%MOMM*%
%LPD*%
G01*
G04 APERTURE LIST*
%ADD10C,0.700000*%
%ADD11C,4.400000*%
G04 APERTURE END LIST*
%TO.C,kibuzzard-64946969*%
G36*
X44983219Y-13802876D02*
G01*
X45012668Y-13825379D01*
X45022113Y-13853716D01*
X45023780Y-13892054D01*
X45022113Y-13930392D01*
X45012112Y-13959840D01*
X44982664Y-13983176D01*
X44926546Y-13989844D01*
X44870428Y-13983176D01*
X44840979Y-13960396D01*
X44830978Y-13931503D01*
X44829311Y-13893165D01*
X44830978Y-13854827D01*
X44841535Y-13825379D01*
X44869872Y-13802876D01*
X44925990Y-13795375D01*
X44983219Y-13802876D01*
G37*
G36*
X42213012Y-14456013D02*
G01*
X42242321Y-14481016D01*
X42252878Y-14511020D01*
X42254545Y-14549914D01*
X42254545Y-14554359D01*
X42232876Y-14634369D01*
X42199816Y-14650204D01*
X42143976Y-14655483D01*
X42089385Y-14647426D01*
X42060076Y-14623256D01*
X42048408Y-14592697D01*
X42046741Y-14553247D01*
X42046741Y-14548802D01*
X42065633Y-14471015D01*
X42101609Y-14453513D01*
X42158422Y-14447679D01*
X42213012Y-14456013D01*
G37*
G36*
X44983219Y-14077077D02*
G01*
X45012668Y-14098746D01*
X45022113Y-14128194D01*
X45023780Y-14166532D01*
X45023780Y-14556581D01*
X45022113Y-14595475D01*
X45012668Y-14624368D01*
X44983497Y-14646870D01*
X44927101Y-14654371D01*
X44870150Y-14647148D01*
X44841535Y-14625479D01*
X44830978Y-14596031D01*
X44829311Y-14557692D01*
X44829311Y-14168755D01*
X44830423Y-14136529D01*
X44850425Y-14088745D01*
X44925990Y-14069854D01*
X44983219Y-14077077D01*
G37*
G36*
X41759421Y-14070224D02*
G01*
X41824985Y-14094672D01*
X41887833Y-14135417D01*
X41929227Y-14176673D01*
X41962286Y-14229318D01*
X41983956Y-14290993D01*
X41991179Y-14359334D01*
X41983956Y-14427954D01*
X41962286Y-14490462D01*
X41929227Y-14543941D01*
X41887833Y-14585474D01*
X41823257Y-14626837D01*
X41756952Y-14651655D01*
X41688919Y-14659928D01*
X41603908Y-14648815D01*
X41533344Y-14615478D01*
X41487505Y-14577417D01*
X41472225Y-14536579D01*
X41497784Y-14478794D01*
X41541956Y-14434622D01*
X41578905Y-14419897D01*
X41628356Y-14440456D01*
X41693919Y-14461014D01*
X41760039Y-14434899D01*
X41791154Y-14361557D01*
X41758928Y-14287659D01*
X41689474Y-14260989D01*
X41632245Y-14279880D01*
X41572238Y-14304327D01*
X41534733Y-14289048D01*
X41495561Y-14243209D01*
X41472225Y-14179312D01*
X41501118Y-14128750D01*
X41532233Y-14107636D01*
X41550013Y-14096524D01*
X41608909Y-14073743D01*
X41691141Y-14062075D01*
X41759421Y-14070224D01*
G37*
G36*
X43528593Y-14075132D02*
G01*
X43558041Y-14097635D01*
X43567487Y-14126527D01*
X43569154Y-14165421D01*
X43569154Y-14359890D01*
X43560943Y-14437245D01*
X43536310Y-14506328D01*
X43495256Y-14567138D01*
X43441730Y-14614366D01*
X43379686Y-14642703D01*
X43309121Y-14652149D01*
X43226889Y-14627701D01*
X43196885Y-14603254D01*
X43176883Y-14581029D01*
X43165770Y-14626590D01*
X43137155Y-14646593D01*
X43082426Y-14653260D01*
X43026586Y-14646037D01*
X42996860Y-14624368D01*
X42986303Y-14596031D01*
X42984636Y-14558804D01*
X42984636Y-14165421D01*
X42986303Y-14127083D01*
X42995749Y-14097635D01*
X43024919Y-14075132D01*
X43081315Y-14067631D01*
X43138267Y-14074854D01*
X43166881Y-14096524D01*
X43177438Y-14125972D01*
X43179105Y-14164310D01*
X43179105Y-14361001D01*
X43206331Y-14431010D01*
X43277451Y-14457680D01*
X43347459Y-14432121D01*
X43373574Y-14361001D01*
X43373574Y-14166532D01*
X43380241Y-14109859D01*
X43409689Y-14078188D01*
X43471364Y-14067631D01*
X43528593Y-14075132D01*
G37*
G36*
X41187004Y-14065038D02*
G01*
X41258124Y-14093931D01*
X41323318Y-14142085D01*
X41375176Y-14205056D01*
X41406291Y-14278398D01*
X41416663Y-14362112D01*
X41404855Y-14446429D01*
X41369434Y-14521577D01*
X41316789Y-14583529D01*
X41253309Y-14628257D01*
X41183300Y-14655344D01*
X41112180Y-14664234D01*
X41111069Y-14664373D01*
X41038976Y-14655899D01*
X40969384Y-14630479D01*
X40906182Y-14587141D01*
X40853259Y-14524911D01*
X40817421Y-14448095D01*
X40805475Y-14361001D01*
X40805747Y-14358779D01*
X41002166Y-14358779D01*
X41011334Y-14406562D01*
X41038837Y-14441011D01*
X41112180Y-14468793D01*
X41184411Y-14441567D01*
X41211081Y-14407674D01*
X41219971Y-14360446D01*
X41211359Y-14313079D01*
X41185523Y-14278769D01*
X41111069Y-14250987D01*
X41036615Y-14277657D01*
X41010778Y-14311273D01*
X41002166Y-14358779D01*
X40805747Y-14358779D01*
X40815723Y-14277349D01*
X40846468Y-14204192D01*
X40897709Y-14141529D01*
X40962285Y-14093684D01*
X41033034Y-14064977D01*
X41109957Y-14055407D01*
X41187004Y-14065038D01*
G37*
G36*
X44200899Y-13802876D02*
G01*
X44230348Y-13825379D01*
X44239793Y-13853716D01*
X44241460Y-13892054D01*
X44241460Y-14556581D01*
X44239793Y-14595475D01*
X44230348Y-14624368D01*
X44201177Y-14646870D01*
X44144781Y-14654371D01*
X44087830Y-14647148D01*
X44059215Y-14625479D01*
X44048658Y-14596031D01*
X44046991Y-14557692D01*
X44046991Y-14342110D01*
X44012543Y-14288214D01*
X43943089Y-14264323D01*
X43878081Y-14289881D01*
X43852523Y-14361001D01*
X43852523Y-14555470D01*
X43850856Y-14595475D01*
X43840299Y-14625479D01*
X43810851Y-14647148D01*
X43755844Y-14654371D01*
X43698892Y-14647148D01*
X43670278Y-14625479D01*
X43659721Y-14596031D01*
X43658054Y-14557692D01*
X43658054Y-14362112D01*
X43666265Y-14284819D01*
X43690897Y-14215921D01*
X43731952Y-14155420D01*
X43785354Y-14108501D01*
X43847028Y-14080349D01*
X43916975Y-14070965D01*
X43986706Y-14087912D01*
X44046991Y-14138751D01*
X44046991Y-13893165D01*
X44048658Y-13854827D01*
X44059215Y-13825379D01*
X44087552Y-13802876D01*
X44143670Y-13795375D01*
X44200899Y-13802876D01*
G37*
G36*
X44625119Y-13875663D02*
G01*
X44653734Y-13896499D01*
X44664291Y-13923169D01*
X44665958Y-13960951D01*
X44665958Y-14075410D01*
X44702629Y-14070965D01*
X44747079Y-14085411D01*
X44762636Y-14114859D01*
X44768193Y-14180979D01*
X44752079Y-14245431D01*
X44711519Y-14264323D01*
X44665958Y-14260989D01*
X44665958Y-14425454D01*
X44659290Y-14500401D01*
X44639288Y-14559298D01*
X44605950Y-14602143D01*
X44559771Y-14631158D01*
X44501246Y-14648568D01*
X44430373Y-14654371D01*
X44393146Y-14652704D01*
X44363698Y-14643259D01*
X44340361Y-14614088D01*
X44332583Y-14557692D01*
X44358141Y-14483239D01*
X44387589Y-14472682D01*
X44427594Y-14471015D01*
X44463154Y-14457680D01*
X44472600Y-14414341D01*
X44472600Y-14260989D01*
X44400369Y-14265434D01*
X44362031Y-14263767D01*
X44332583Y-14254321D01*
X44310080Y-14225151D01*
X44302579Y-14168755D01*
X44309802Y-14111803D01*
X44331471Y-14083189D01*
X44360919Y-14072632D01*
X44398702Y-14070965D01*
X44472600Y-14075410D01*
X44472600Y-13966507D01*
X44478156Y-13909834D01*
X44507882Y-13878997D01*
X44568168Y-13868717D01*
X44625119Y-13875663D01*
G37*
G36*
X42855176Y-13802876D02*
G01*
X42884624Y-13825379D01*
X42894069Y-13853716D01*
X42895736Y-13892054D01*
X42895736Y-14555470D01*
X42894069Y-14593808D01*
X42884624Y-14623256D01*
X42855453Y-14645759D01*
X42799058Y-14653260D01*
X42731827Y-14639647D01*
X42703490Y-14598809D01*
X42649872Y-14638814D01*
X42603478Y-14646466D01*
X42569029Y-14652149D01*
X42507416Y-14642456D01*
X42448520Y-14613378D01*
X42392340Y-14564916D01*
X42346655Y-14503550D01*
X42319244Y-14435764D01*
X42310176Y-14362112D01*
X42504576Y-14362112D01*
X42533469Y-14428787D01*
X42603478Y-14458791D01*
X42671819Y-14428787D01*
X42699045Y-14362668D01*
X42672931Y-14295438D01*
X42602366Y-14264323D01*
X42531246Y-14294882D01*
X42504576Y-14362112D01*
X42310176Y-14362112D01*
X42310108Y-14361557D01*
X42319306Y-14287288D01*
X42346902Y-14219317D01*
X42392896Y-14157642D01*
X42449878Y-14108871D01*
X42510441Y-14079608D01*
X42574585Y-14069854D01*
X42647372Y-14083467D01*
X42701268Y-14124305D01*
X42701268Y-13893165D01*
X42702934Y-13854827D01*
X42713491Y-13825379D01*
X42741828Y-13802876D01*
X42797946Y-13795375D01*
X42855176Y-13802876D01*
G37*
G36*
X45278812Y-14082633D02*
G01*
X45301593Y-14129861D01*
X45319928Y-14108192D01*
X45362711Y-14082633D01*
X45431609Y-14068742D01*
X45494333Y-14078250D01*
X45553599Y-14106772D01*
X45609409Y-14154309D01*
X45654476Y-14214440D01*
X45681517Y-14280744D01*
X45690530Y-14353222D01*
X45681578Y-14425639D01*
X45654723Y-14491758D01*
X45609964Y-14551581D01*
X45554958Y-14598809D01*
X45497358Y-14627146D01*
X45437165Y-14636591D01*
X45403272Y-14630687D01*
X45357433Y-14622701D01*
X45302704Y-14581029D01*
X45302704Y-14614366D01*
X45329374Y-14694376D01*
X45398271Y-14727714D01*
X45458279Y-14717435D01*
X45513841Y-14686598D01*
X45546068Y-14673263D01*
X45573293Y-14682153D01*
X45606075Y-14714379D01*
X45639413Y-14791055D01*
X45620243Y-14826337D01*
X45562736Y-14865509D01*
X45484115Y-14896346D01*
X45401605Y-14906625D01*
X45329991Y-14897920D01*
X45263316Y-14871806D01*
X45201580Y-14828282D01*
X45152191Y-14770559D01*
X45122558Y-14701846D01*
X45112680Y-14622145D01*
X45112680Y-14353778D01*
X45309371Y-14353778D01*
X45336041Y-14418231D01*
X45403272Y-14447679D01*
X45472169Y-14418786D01*
X45500506Y-14353778D01*
X45473836Y-14287659D01*
X45403828Y-14257655D01*
X45334930Y-14288214D01*
X45309371Y-14353778D01*
X45112680Y-14353778D01*
X45112680Y-14162087D01*
X45114347Y-14124305D01*
X45124348Y-14095968D01*
X45152685Y-14073187D01*
X45216026Y-14066520D01*
X45278812Y-14082633D01*
G37*
G36*
X40484602Y-14087356D02*
G01*
X40542109Y-14146530D01*
X40561000Y-14088745D01*
X40642121Y-14068742D01*
X40692961Y-14076243D01*
X40721020Y-14098746D01*
X40731577Y-14127083D01*
X40733244Y-14165421D01*
X40733244Y-14556581D01*
X40731577Y-14595475D01*
X40722131Y-14624368D01*
X40692961Y-14646870D01*
X40636565Y-14654371D01*
X40579891Y-14647148D01*
X40549887Y-14625479D01*
X40539331Y-14596031D01*
X40537664Y-14557692D01*
X40537664Y-14361001D01*
X40520995Y-14288492D01*
X40470989Y-14264323D01*
X40419316Y-14288492D01*
X40402091Y-14361001D01*
X40402091Y-14555470D01*
X40400424Y-14593808D01*
X40390979Y-14623256D01*
X40361808Y-14646593D01*
X40305412Y-14654371D01*
X40248183Y-14646870D01*
X40218735Y-14624368D01*
X40208178Y-14595475D01*
X40206511Y-14556581D01*
X40206511Y-14362112D01*
X40192621Y-14289881D01*
X40139836Y-14264323D01*
X40088163Y-14288492D01*
X40070939Y-14361001D01*
X40070939Y-14555470D01*
X40069272Y-14593808D01*
X40059826Y-14623256D01*
X40030656Y-14646593D01*
X39974260Y-14654371D01*
X39917308Y-14646870D01*
X39888694Y-14624368D01*
X39878137Y-14594919D01*
X39876470Y-14556581D01*
X39876470Y-14362112D01*
X39883137Y-14266854D01*
X39903140Y-14191474D01*
X39936477Y-14135973D01*
X40003708Y-14084717D01*
X40085385Y-14067631D01*
X40163172Y-14089301D01*
X40218179Y-14129306D01*
X40247627Y-14164310D01*
X40291090Y-14110600D01*
X40347393Y-14078373D01*
X40416537Y-14067631D01*
X40484602Y-14087356D01*
G37*
%TO.C,kibuzzard-645C11AA*%
G36*
X36598788Y-20725206D02*
G01*
X36628950Y-20763306D01*
X36638475Y-20834744D01*
X36630538Y-20907769D01*
X36595216Y-20948250D01*
X36524175Y-20961744D01*
X36146350Y-20961744D01*
X36066975Y-20947456D01*
X36039194Y-20908562D01*
X36030463Y-20836331D01*
X36039988Y-20763306D01*
X36074119Y-20724016D01*
X36144763Y-20710919D01*
X36522588Y-20710919D01*
X36598788Y-20725206D01*
G37*
G36*
X33796850Y-20725206D02*
G01*
X33827013Y-20763306D01*
X33836538Y-20834744D01*
X33828600Y-20907769D01*
X33793278Y-20948250D01*
X33722237Y-20961744D01*
X33344412Y-20961744D01*
X33265038Y-20947456D01*
X33237256Y-20908562D01*
X33228525Y-20836331D01*
X33238050Y-20763306D01*
X33272181Y-20724016D01*
X33342825Y-20710919D01*
X33720650Y-20710919D01*
X33796850Y-20725206D01*
G37*
G36*
X34871588Y-20048138D02*
G01*
X34923975Y-20095961D01*
X34941438Y-20145769D01*
X34904925Y-20229906D01*
X34562025Y-20742669D01*
X34562025Y-21042706D01*
X34559644Y-21099062D01*
X34544563Y-21141925D01*
X34501700Y-21176056D01*
X34420738Y-21185581D01*
X34339775Y-21176056D01*
X34296913Y-21142719D01*
X34281831Y-21100650D01*
X34279450Y-21045881D01*
X34279450Y-20742669D01*
X33936550Y-20229906D01*
X33900038Y-20145769D01*
X33919484Y-20094175D01*
X33977825Y-20040994D01*
X34070694Y-20001306D01*
X34122288Y-20016387D01*
X34174675Y-20079094D01*
X34420738Y-20472794D01*
X34666800Y-20079094D01*
X34723950Y-20014006D01*
X34771575Y-20001306D01*
X34871588Y-20048138D01*
G37*
G36*
X31730719Y-20040994D02*
G01*
X31783900Y-20099731D01*
X32212525Y-20987144D01*
X32239513Y-21068106D01*
X32216494Y-21122081D01*
X32147438Y-21169706D01*
X32062506Y-21196694D01*
X32011706Y-21181613D01*
X31983131Y-21152244D01*
X31958525Y-21106206D01*
X31875975Y-20934756D01*
X31761675Y-20934756D01*
X31436237Y-20934756D01*
X31353688Y-21106206D01*
X31329081Y-21153831D01*
X31300506Y-21183994D01*
X31249706Y-21198281D01*
X31164775Y-21171294D01*
X31095719Y-21122478D01*
X31072700Y-21068106D01*
X31099688Y-20987144D01*
X31238723Y-20699806D01*
X31550538Y-20699806D01*
X31761675Y-20699806D01*
X31656900Y-20482319D01*
X31550538Y-20699806D01*
X31238723Y-20699806D01*
X31528313Y-20101319D01*
X31580700Y-20039406D01*
X31655313Y-20018769D01*
X31730719Y-20040994D01*
G37*
G36*
X35867744Y-20027897D02*
G01*
X35909813Y-20060044D01*
X35924894Y-20101319D01*
X35927275Y-20156881D01*
X35927275Y-21037944D01*
X35917750Y-21120494D01*
X35875681Y-21165737D01*
X35787575Y-21180819D01*
X35646288Y-21180819D01*
X35370063Y-21180819D01*
X35274548Y-21168912D01*
X35189088Y-21133194D01*
X35113681Y-21073663D01*
X35054679Y-20996492D01*
X35018431Y-20907857D01*
X35004938Y-20807756D01*
X35006793Y-20791881D01*
X35285925Y-20791881D01*
X35310928Y-20872844D01*
X35385938Y-20899831D01*
X35646288Y-20899831D01*
X35646288Y-20298169D01*
X35424038Y-20298169D01*
X35345456Y-20314044D01*
X35319263Y-20369606D01*
X35324025Y-20426756D01*
X35400225Y-20460094D01*
X35497856Y-20482319D01*
X35527225Y-20573600D01*
X35498650Y-20664881D01*
X35412925Y-20687106D01*
X35324025Y-20699806D01*
X35294656Y-20731556D01*
X35285925Y-20791881D01*
X35006793Y-20791881D01*
X35015344Y-20718680D01*
X35046565Y-20635601D01*
X35098600Y-20558519D01*
X35053356Y-20466841D01*
X35038275Y-20366431D01*
X35049740Y-20274709D01*
X35084136Y-20192159D01*
X35141463Y-20118781D01*
X35212371Y-20062337D01*
X35293863Y-20028470D01*
X35385938Y-20017181D01*
X35785988Y-20017181D01*
X35867744Y-20027897D01*
G37*
G36*
X38292474Y-20017181D02*
G01*
X38396719Y-20045756D01*
X38500613Y-20093381D01*
X38578598Y-20143189D01*
X38647456Y-20203712D01*
X38705995Y-20278325D01*
X38753025Y-20370400D01*
X38783981Y-20476961D01*
X38794300Y-20595031D01*
X38783783Y-20714292D01*
X38752231Y-20824425D01*
X38704408Y-20920469D01*
X38645075Y-20997463D01*
X38575820Y-21059772D01*
X38498231Y-21111762D01*
X38417666Y-21151847D01*
X38339481Y-21178438D01*
X38262884Y-21193320D01*
X38187081Y-21198281D01*
X38110286Y-21191931D01*
X38030713Y-21172881D01*
X37923556Y-21131606D01*
X37868788Y-21098269D01*
X37818781Y-21058581D01*
X37797350Y-21003019D01*
X37832275Y-20914119D01*
X37887441Y-20847444D01*
X37938638Y-20825219D01*
X38014838Y-20856969D01*
X38043413Y-20877606D01*
X38106119Y-20903006D01*
X38198988Y-20915706D01*
X38301778Y-20898244D01*
X38400600Y-20845856D01*
X38481563Y-20745844D01*
X38505375Y-20678177D01*
X38513313Y-20602175D01*
X38505375Y-20526173D01*
X38481563Y-20458506D01*
X38402188Y-20360081D01*
X38301381Y-20306503D01*
X38198988Y-20288644D01*
X38098975Y-20302137D01*
X38021188Y-20342619D01*
X37940225Y-20377544D01*
X37887838Y-20356112D01*
X37829100Y-20291819D01*
X37795763Y-20203712D01*
X37837038Y-20128306D01*
X37881488Y-20099731D01*
X37919588Y-20077506D01*
X38036269Y-20030675D01*
X38112667Y-20013411D01*
X38187875Y-20007656D01*
X38292474Y-20017181D01*
G37*
G36*
X37214561Y-20017181D02*
G01*
X37318807Y-20045756D01*
X37422700Y-20093381D01*
X37500686Y-20143189D01*
X37569544Y-20203712D01*
X37628083Y-20278325D01*
X37675113Y-20370400D01*
X37706069Y-20476961D01*
X37716388Y-20595031D01*
X37705870Y-20714292D01*
X37674319Y-20824425D01*
X37626495Y-20920469D01*
X37567163Y-20997463D01*
X37497908Y-21059772D01*
X37420319Y-21111762D01*
X37339753Y-21151847D01*
X37261569Y-21178438D01*
X37184972Y-21193320D01*
X37109169Y-21198281D01*
X37032373Y-21191931D01*
X36952800Y-21172881D01*
X36845644Y-21131606D01*
X36790875Y-21098269D01*
X36740869Y-21058581D01*
X36719438Y-21003019D01*
X36754363Y-20914119D01*
X36809528Y-20847444D01*
X36860725Y-20825219D01*
X36936925Y-20856969D01*
X36965500Y-20877606D01*
X37028206Y-20903006D01*
X37121075Y-20915706D01*
X37223866Y-20898244D01*
X37322688Y-20845856D01*
X37403650Y-20745844D01*
X37427463Y-20678177D01*
X37435400Y-20602175D01*
X37427463Y-20526173D01*
X37403650Y-20458506D01*
X37324275Y-20360081D01*
X37223469Y-20306503D01*
X37121075Y-20288644D01*
X37021063Y-20302137D01*
X36943275Y-20342619D01*
X36862313Y-20377544D01*
X36809925Y-20356112D01*
X36751188Y-20291819D01*
X36717850Y-20203712D01*
X36759125Y-20128306D01*
X36803575Y-20099731D01*
X36841675Y-20077506D01*
X36958356Y-20030675D01*
X37034755Y-20013411D01*
X37109963Y-20007656D01*
X37214561Y-20017181D01*
G37*
G36*
X32852376Y-20011272D02*
G01*
X32946832Y-20045933D01*
X33024531Y-20103700D01*
X33082299Y-20176990D01*
X33116959Y-20258217D01*
X33128513Y-20347381D01*
X33118392Y-20441639D01*
X33088031Y-20521212D01*
X33042589Y-20583720D01*
X32987225Y-20626781D01*
X32924519Y-20657936D01*
X32857050Y-20684725D01*
X32789581Y-20705958D01*
X32726875Y-20720444D01*
X32626069Y-20756163D01*
X32585588Y-20817281D01*
X32601992Y-20884309D01*
X32651204Y-20924526D01*
X32733225Y-20937931D01*
X32809425Y-20913325D01*
X32872925Y-20861731D01*
X32943569Y-20802200D01*
X32996750Y-20782356D01*
X33080888Y-20820456D01*
X33132084Y-20880583D01*
X33149150Y-20927613D01*
X33107875Y-21018894D01*
X33093588Y-21036356D01*
X33047550Y-21084775D01*
X32976113Y-21134781D01*
X32868163Y-21180025D01*
X32799503Y-21193717D01*
X32726875Y-21198281D01*
X32631449Y-21188933D01*
X32539903Y-21160887D01*
X32452238Y-21114144D01*
X32391913Y-21062352D01*
X32344288Y-20992700D01*
X32313331Y-20907967D01*
X32303013Y-20810931D01*
X32313133Y-20715880D01*
X32343494Y-20637100D01*
X32388936Y-20576973D01*
X32444300Y-20537881D01*
X32507403Y-20511489D01*
X32576063Y-20489462D01*
X32644722Y-20472198D01*
X32707825Y-20460094D01*
X32808631Y-20423581D01*
X32849113Y-20352937D01*
X32814981Y-20284675D01*
X32729256Y-20260069D01*
X32644325Y-20280706D01*
X32619719Y-20301344D01*
X32601463Y-20317219D01*
X32518913Y-20348969D01*
X32462556Y-20329125D01*
X32407788Y-20269594D01*
X32369688Y-20182281D01*
X32418900Y-20104494D01*
X32458587Y-20074331D01*
X32567331Y-20024325D01*
X32650080Y-20005870D01*
X32741163Y-19999719D01*
X32852376Y-20011272D01*
G37*
%TO.C,kibuzzard-64946977*%
G36*
X45250381Y-15206456D02*
G01*
X45304356Y-15276306D01*
X45815531Y-16344694D01*
X45834581Y-16424069D01*
X45816325Y-16464550D01*
X45745681Y-16506619D01*
X45666306Y-16530431D01*
X45622650Y-16518525D01*
X45598838Y-16493919D01*
X45578994Y-16454231D01*
X45069406Y-15395369D01*
X45047181Y-15315994D01*
X45068613Y-15268766D01*
X45132906Y-15225506D01*
X45213075Y-15200106D01*
X45250381Y-15206456D01*
G37*
G36*
X37257319Y-15206456D02*
G01*
X37311294Y-15276306D01*
X37822469Y-16344694D01*
X37841519Y-16424069D01*
X37823263Y-16464550D01*
X37752619Y-16506619D01*
X37673244Y-16530431D01*
X37629588Y-16518525D01*
X37605775Y-16493919D01*
X37585931Y-16454231D01*
X37076344Y-15395369D01*
X37054119Y-15315994D01*
X37075550Y-15268766D01*
X37139844Y-15225506D01*
X37220013Y-15200106D01*
X37257319Y-15206456D01*
G37*
G36*
X42704031Y-15623969D02*
G01*
X42768325Y-15666831D01*
X42791344Y-15693819D01*
X42808806Y-15641431D01*
X42850478Y-15614047D01*
X42927869Y-15604919D01*
X43009625Y-15615634D01*
X43051694Y-15647781D01*
X43065188Y-15688262D01*
X43067569Y-15743031D01*
X43067569Y-16300244D01*
X43067569Y-16346281D01*
X43038994Y-16414544D01*
X42929456Y-16441531D01*
X42848494Y-16431213D01*
X42805631Y-16400256D01*
X42790550Y-16358187D01*
X42788169Y-16303419D01*
X42788169Y-15970044D01*
X42750863Y-15897019D01*
X42670694Y-15866856D01*
X42601638Y-15879556D01*
X42546869Y-15892256D01*
X42459556Y-15831931D01*
X42429394Y-15720806D01*
X42449238Y-15646987D01*
X42499244Y-15614444D01*
X42554806Y-15600950D01*
X42617513Y-15596981D01*
X42704031Y-15623969D01*
G37*
G36*
X39166199Y-15607035D02*
G01*
X39259862Y-15641960D01*
X39349644Y-15700169D01*
X39408778Y-15759105D01*
X39456006Y-15834313D01*
X39486963Y-15922419D01*
X39497281Y-16020050D01*
X39486963Y-16118078D01*
X39456006Y-16207375D01*
X39408778Y-16283773D01*
X39349644Y-16343106D01*
X39257392Y-16402197D01*
X39162672Y-16437651D01*
X39065481Y-16449469D01*
X38944038Y-16433594D01*
X38843231Y-16385969D01*
X38777747Y-16331597D01*
X38755919Y-16273256D01*
X38792431Y-16190706D01*
X38855534Y-16127603D01*
X38908319Y-16106569D01*
X38978963Y-16135937D01*
X39072625Y-16165306D01*
X39167081Y-16128000D01*
X39211531Y-16023225D01*
X39165494Y-15917656D01*
X39066275Y-15879556D01*
X38984519Y-15906544D01*
X38898794Y-15941469D01*
X38845216Y-15919641D01*
X38789256Y-15854156D01*
X38755919Y-15762875D01*
X38797194Y-15690644D01*
X38841644Y-15660481D01*
X38867044Y-15644606D01*
X38951181Y-15612062D01*
X39068656Y-15595394D01*
X39166199Y-15607035D01*
G37*
G36*
X38594788Y-15221934D02*
G01*
X38636856Y-15254081D01*
X38650350Y-15296150D01*
X38652731Y-15350919D01*
X38652731Y-16301831D01*
X38650350Y-16356600D01*
X38636856Y-16398669D01*
X38595184Y-16430816D01*
X38514619Y-16441531D01*
X38433259Y-16431213D01*
X38392381Y-16400256D01*
X38377300Y-16358187D01*
X38374919Y-16303419D01*
X38374919Y-16181181D01*
X38326103Y-16223845D01*
X38259031Y-16288338D01*
X38192753Y-16352433D01*
X38146319Y-16393906D01*
X38130444Y-16405019D01*
X38033606Y-16451056D01*
X37938356Y-16384381D01*
X37889144Y-16281194D01*
X37899463Y-16247856D01*
X37949469Y-16197056D01*
X38160606Y-16022431D01*
X38003444Y-15889081D01*
X37944706Y-15803356D01*
X37996300Y-15702550D01*
X38087581Y-15638256D01*
X38182831Y-15681119D01*
X38201881Y-15693819D01*
X38288400Y-15774781D01*
X38374919Y-15855744D01*
X38374919Y-15352506D01*
X38376506Y-15308056D01*
X38405081Y-15238206D01*
X38513031Y-15211219D01*
X38594788Y-15221934D01*
G37*
G36*
X43715798Y-15599627D02*
G01*
X43817398Y-15640902D01*
X43910531Y-15709694D01*
X43984615Y-15799652D01*
X44029065Y-15904427D01*
X44043881Y-16024019D01*
X44027014Y-16144470D01*
X43976413Y-16251825D01*
X43901205Y-16340328D01*
X43810519Y-16404225D01*
X43710506Y-16442920D01*
X43608906Y-16455620D01*
X43607319Y-16455819D01*
X43504330Y-16443714D01*
X43404913Y-16407400D01*
X43314623Y-16345488D01*
X43239019Y-16256588D01*
X43187822Y-16146852D01*
X43170756Y-16022431D01*
X43171145Y-16019256D01*
X43451744Y-16019256D01*
X43464841Y-16087519D01*
X43504131Y-16136731D01*
X43608906Y-16176419D01*
X43712094Y-16137525D01*
X43750194Y-16089106D01*
X43762894Y-16021638D01*
X43750591Y-15953970D01*
X43713681Y-15904956D01*
X43607319Y-15865269D01*
X43500956Y-15903369D01*
X43464047Y-15951391D01*
X43451744Y-16019256D01*
X43171145Y-16019256D01*
X43185397Y-15902928D01*
X43229317Y-15798417D01*
X43302519Y-15708900D01*
X43394770Y-15640549D01*
X43495841Y-15599539D01*
X43605731Y-15585869D01*
X43715798Y-15599627D01*
G37*
G36*
X42282947Y-15614841D02*
G01*
X42324619Y-15644606D01*
X42339700Y-15685087D01*
X42342081Y-15738269D01*
X42342081Y-16300244D01*
X42339700Y-16355013D01*
X42326206Y-16397081D01*
X42284534Y-16429228D01*
X42203969Y-16439944D01*
X42122609Y-16429228D01*
X42081731Y-16397081D01*
X42066650Y-16356600D01*
X42064269Y-16301831D01*
X42064269Y-16020844D01*
X42025375Y-15920831D01*
X41923775Y-15882731D01*
X41823763Y-15919244D01*
X41786456Y-16020844D01*
X41786456Y-16300244D01*
X41776931Y-16381206D01*
X41735656Y-16425259D01*
X41646756Y-16439944D01*
X41565000Y-16429228D01*
X41522931Y-16397081D01*
X41509438Y-16356600D01*
X41507056Y-16301831D01*
X41507056Y-16022431D01*
X41518786Y-15911924D01*
X41553976Y-15813234D01*
X41612625Y-15726362D01*
X41688913Y-15658894D01*
X41777019Y-15618413D01*
X41876944Y-15604919D01*
X41996006Y-15641431D01*
X42038869Y-15674769D01*
X42067444Y-15706519D01*
X42083319Y-15641431D01*
X42124197Y-15614047D01*
X42202381Y-15604919D01*
X42282947Y-15614841D01*
G37*
G36*
X41322113Y-15225109D02*
G01*
X41364181Y-15257256D01*
X41377675Y-15297737D01*
X41380056Y-15352506D01*
X41380056Y-16301831D01*
X41377675Y-16357394D01*
X41364181Y-16398669D01*
X41322509Y-16430816D01*
X41241944Y-16441531D01*
X41160584Y-16431213D01*
X41119706Y-16400256D01*
X41104625Y-16358187D01*
X41102244Y-16303419D01*
X41102244Y-15995444D01*
X41053031Y-15918450D01*
X40953813Y-15884319D01*
X40860944Y-15920831D01*
X40824431Y-16022431D01*
X40824431Y-16300244D01*
X40822050Y-16357394D01*
X40806969Y-16400256D01*
X40764900Y-16431213D01*
X40686319Y-16441531D01*
X40604959Y-16431213D01*
X40564081Y-16400256D01*
X40549000Y-16358187D01*
X40546619Y-16303419D01*
X40546619Y-16024019D01*
X40558349Y-15913599D01*
X40593538Y-15815174D01*
X40652188Y-15728744D01*
X40728476Y-15661716D01*
X40816582Y-15621499D01*
X40916506Y-15608094D01*
X41016122Y-15632303D01*
X41102244Y-15704931D01*
X41102244Y-15354094D01*
X41104625Y-15299325D01*
X41119706Y-15257256D01*
X41160188Y-15225109D01*
X41240356Y-15214394D01*
X41322113Y-15225109D01*
G37*
G36*
X39840578Y-15627144D02*
G01*
X39876694Y-15693819D01*
X39905269Y-15661275D01*
X39967181Y-15625556D01*
X40065606Y-15606506D01*
X40157240Y-15620353D01*
X40243759Y-15661892D01*
X40325163Y-15731125D01*
X40390867Y-15818790D01*
X40430290Y-15915628D01*
X40443431Y-16021638D01*
X40430378Y-16127735D01*
X40391220Y-16224838D01*
X40325956Y-16312944D01*
X40245435Y-16382617D01*
X40160503Y-16424422D01*
X40071163Y-16438356D01*
X40024331Y-16429985D01*
X39953489Y-16417322D01*
X39875106Y-16354219D01*
X39840975Y-16416925D01*
X39725088Y-16438356D01*
X39654642Y-16428037D01*
X39616344Y-16397081D01*
X39602850Y-16355013D01*
X39600469Y-16300244D01*
X39600469Y-16023225D01*
X39887806Y-16023225D01*
X39926700Y-16117681D01*
X40024331Y-16160544D01*
X40124344Y-16118475D01*
X40165619Y-16024019D01*
X40126725Y-15927181D01*
X40025125Y-15882731D01*
X39925113Y-15927181D01*
X39887806Y-16023225D01*
X39600469Y-16023225D01*
X39600469Y-15744619D01*
X39602850Y-15689850D01*
X39617138Y-15647781D01*
X39659206Y-15614444D01*
X39751281Y-15604919D01*
X39840578Y-15627144D01*
G37*
G36*
X35447966Y-15627144D02*
G01*
X35484081Y-15693819D01*
X35512656Y-15661275D01*
X35574569Y-15625556D01*
X35672994Y-15606506D01*
X35764628Y-15620353D01*
X35851147Y-15661892D01*
X35932550Y-15731125D01*
X35998255Y-15818790D01*
X36037678Y-15915628D01*
X36050819Y-16021638D01*
X36037766Y-16127735D01*
X35998608Y-16224838D01*
X35933344Y-16312944D01*
X35852822Y-16382617D01*
X35767891Y-16424422D01*
X35678550Y-16438356D01*
X35631719Y-16429985D01*
X35560877Y-16417322D01*
X35482494Y-16354219D01*
X35448363Y-16416925D01*
X35332475Y-16438356D01*
X35262030Y-16428037D01*
X35223731Y-16397081D01*
X35210238Y-16355013D01*
X35207856Y-16300244D01*
X35207856Y-16023225D01*
X35495194Y-16023225D01*
X35534088Y-16117681D01*
X35631719Y-16160544D01*
X35731731Y-16118475D01*
X35773006Y-16024019D01*
X35734113Y-15927181D01*
X35632513Y-15882731D01*
X35532500Y-15927181D01*
X35495194Y-16023225D01*
X35207856Y-16023225D01*
X35207856Y-15744619D01*
X35210238Y-15689850D01*
X35224525Y-15647781D01*
X35266594Y-15614444D01*
X35358669Y-15604919D01*
X35447966Y-15627144D01*
G37*
G36*
X44901925Y-15225109D02*
G01*
X44943994Y-15257256D01*
X44957488Y-15297737D01*
X44959869Y-15352506D01*
X44959869Y-16300244D01*
X44957488Y-16355013D01*
X44943994Y-16397081D01*
X44902322Y-16429228D01*
X44821756Y-16439944D01*
X44725713Y-16420497D01*
X44685231Y-16362156D01*
X44608634Y-16419306D01*
X44542356Y-16430239D01*
X44493144Y-16438356D01*
X44405126Y-16424510D01*
X44320988Y-16382970D01*
X44240731Y-16313738D01*
X44175467Y-16226072D01*
X44136309Y-16129235D01*
X44123354Y-16024019D01*
X44401069Y-16024019D01*
X44442344Y-16119269D01*
X44542356Y-16162131D01*
X44639988Y-16119269D01*
X44678881Y-16024812D01*
X44641575Y-15928769D01*
X44540769Y-15884319D01*
X44439169Y-15927975D01*
X44401069Y-16024019D01*
X44123354Y-16024019D01*
X44123256Y-16023225D01*
X44136397Y-15917127D01*
X44175820Y-15820025D01*
X44241525Y-15731919D01*
X44322928Y-15662245D01*
X44409447Y-15620441D01*
X44501081Y-15606506D01*
X44605063Y-15625953D01*
X44682056Y-15684294D01*
X44682056Y-15354094D01*
X44684438Y-15299325D01*
X44699519Y-15257256D01*
X44740000Y-15225109D01*
X44820169Y-15214394D01*
X44901925Y-15225109D01*
G37*
G36*
X36908863Y-15225109D02*
G01*
X36950931Y-15257256D01*
X36964425Y-15297737D01*
X36966806Y-15352506D01*
X36966806Y-16300244D01*
X36964425Y-16355013D01*
X36950931Y-16397081D01*
X36909259Y-16429228D01*
X36828694Y-16439944D01*
X36732650Y-16420497D01*
X36692169Y-16362156D01*
X36615572Y-16419306D01*
X36549294Y-16430239D01*
X36500081Y-16438356D01*
X36412063Y-16424510D01*
X36327926Y-16382970D01*
X36247669Y-16313738D01*
X36182405Y-16226072D01*
X36143247Y-16129235D01*
X36130292Y-16024019D01*
X36408006Y-16024019D01*
X36449281Y-16119269D01*
X36549294Y-16162131D01*
X36646925Y-16119269D01*
X36685819Y-16024812D01*
X36648513Y-15928769D01*
X36547706Y-15884319D01*
X36446106Y-15927975D01*
X36408006Y-16024019D01*
X36130292Y-16024019D01*
X36130194Y-16023225D01*
X36143335Y-15917127D01*
X36182758Y-15820025D01*
X36248463Y-15731919D01*
X36329866Y-15662245D01*
X36416385Y-15620441D01*
X36508019Y-15606506D01*
X36612000Y-15625953D01*
X36688994Y-15684294D01*
X36688994Y-15354094D01*
X36691375Y-15299325D01*
X36706456Y-15257256D01*
X36746938Y-15225109D01*
X36827106Y-15214394D01*
X36908863Y-15225109D01*
G37*
G36*
X34477606Y-15223919D02*
G01*
X34519675Y-15256462D01*
X34533963Y-15297737D01*
X34536344Y-15352506D01*
X34536344Y-15685881D01*
X34614528Y-15626350D01*
X34718906Y-15606506D01*
X34810540Y-15620441D01*
X34897059Y-15662245D01*
X34978463Y-15731919D01*
X35044167Y-15820025D01*
X35083590Y-15917127D01*
X35096731Y-16023225D01*
X35083678Y-16129235D01*
X35044520Y-16226072D01*
X34979256Y-16313738D01*
X34898117Y-16382970D01*
X34811334Y-16424510D01*
X34718906Y-16438356D01*
X34677631Y-16430936D01*
X34612941Y-16419306D01*
X34533169Y-16362156D01*
X34496061Y-16420497D01*
X34410138Y-16439944D01*
X34321436Y-16429228D01*
X34275994Y-16397081D01*
X34260913Y-16356600D01*
X34258531Y-16301831D01*
X34258531Y-16024812D01*
X34541106Y-16024812D01*
X34580000Y-16119269D01*
X34677631Y-16162131D01*
X34777644Y-16119269D01*
X34818919Y-16024019D01*
X34780819Y-15927975D01*
X34679219Y-15884319D01*
X34578413Y-15928769D01*
X34541106Y-16024812D01*
X34258531Y-16024812D01*
X34258531Y-15354094D01*
X34260913Y-15299325D01*
X34275200Y-15257256D01*
X34317269Y-15223919D01*
X34397438Y-15214394D01*
X34477606Y-15223919D01*
G37*
G36*
X32896192Y-15600774D02*
G01*
X33003877Y-15640726D01*
X33097275Y-15707312D01*
X33169153Y-15796124D01*
X33212281Y-15902751D01*
X33226656Y-16027194D01*
X33215544Y-16129676D01*
X33182206Y-16225455D01*
X33126644Y-16314531D01*
X33065723Y-16374658D01*
X32984563Y-16421688D01*
X32886733Y-16452048D01*
X32775806Y-16462169D01*
X32627871Y-16453338D01*
X32522203Y-16426847D01*
X32458802Y-16382695D01*
X32437669Y-16320881D01*
X32458306Y-16247856D01*
X32545619Y-16176419D01*
X32609119Y-16193881D01*
X32626581Y-16200231D01*
X32688891Y-16214519D01*
X32771044Y-16219281D01*
X32875819Y-16189119D01*
X32928206Y-16114506D01*
X32731356Y-16114506D01*
X32551969Y-16114506D01*
X32444813Y-16067675D01*
X32408498Y-16008144D01*
X32396394Y-15923213D01*
X32396965Y-15919244D01*
X32671031Y-15919244D01*
X32731356Y-15970044D01*
X32931381Y-15970044D01*
X32880581Y-15880350D01*
X32778188Y-15838281D01*
X32698813Y-15860506D01*
X32671031Y-15919244D01*
X32396965Y-15919244D01*
X32409888Y-15829352D01*
X32450369Y-15743031D01*
X32509305Y-15674967D01*
X32582925Y-15626350D01*
X32671230Y-15597180D01*
X32774219Y-15587456D01*
X32896192Y-15600774D01*
G37*
G36*
X33567175Y-15624762D02*
G01*
X33599719Y-15692231D01*
X33625913Y-15661275D01*
X33687031Y-15624762D01*
X33785456Y-15604919D01*
X33875062Y-15618501D01*
X33959728Y-15659247D01*
X34039456Y-15727156D01*
X34103838Y-15813058D01*
X34142467Y-15907778D01*
X34155344Y-16011319D01*
X34142556Y-16114771D01*
X34104191Y-16209227D01*
X34040250Y-16294688D01*
X33961669Y-16362156D01*
X33879383Y-16402637D01*
X33793394Y-16416131D01*
X33744975Y-16407696D01*
X33679491Y-16396287D01*
X33601306Y-16336756D01*
X33601306Y-16384381D01*
X33639406Y-16498681D01*
X33737831Y-16546306D01*
X33823556Y-16531622D01*
X33902931Y-16487569D01*
X33948969Y-16468519D01*
X33987863Y-16481219D01*
X34034694Y-16527256D01*
X34082319Y-16636794D01*
X34054934Y-16687197D01*
X33972781Y-16743156D01*
X33860466Y-16787209D01*
X33742594Y-16801894D01*
X33640288Y-16789458D01*
X33545038Y-16752152D01*
X33456844Y-16689975D01*
X33386288Y-16607513D01*
X33343955Y-16509353D01*
X33329844Y-16395494D01*
X33329844Y-16012112D01*
X33610831Y-16012112D01*
X33648931Y-16104187D01*
X33744975Y-16146256D01*
X33843400Y-16104981D01*
X33883881Y-16012112D01*
X33845781Y-15917656D01*
X33745769Y-15874794D01*
X33647344Y-15918450D01*
X33610831Y-16012112D01*
X33329844Y-16012112D01*
X33329844Y-15738269D01*
X33332225Y-15684294D01*
X33346513Y-15643812D01*
X33386994Y-15611269D01*
X33477481Y-15601744D01*
X33567175Y-15624762D01*
G37*
G36*
X32008603Y-15274983D02*
G01*
X32111790Y-15318640D01*
X32198750Y-15391400D01*
X32264455Y-15482505D01*
X32303878Y-15581194D01*
X32317019Y-15687469D01*
X32309081Y-15768431D01*
X32265822Y-15813675D01*
X32177319Y-15828756D01*
X32096356Y-15819231D01*
X32053494Y-15790656D01*
X32038412Y-15750969D01*
X32036031Y-15698581D01*
X32036031Y-15689056D01*
X32029681Y-15652544D01*
X31987612Y-15578725D01*
X31899506Y-15541419D01*
X31820131Y-15555706D01*
X31778063Y-15586663D01*
X31753456Y-15629525D01*
X31742344Y-15670006D01*
X31757227Y-15739459D01*
X31801875Y-15804944D01*
X31867558Y-15865070D01*
X31945544Y-15918450D01*
X32029681Y-15968853D01*
X32113819Y-16020050D01*
X32191805Y-16076803D01*
X32257488Y-16143875D01*
X32302136Y-16219480D01*
X32317019Y-16301831D01*
X32275744Y-16401844D01*
X32177319Y-16444706D01*
X31556606Y-16444706D01*
X31458181Y-16425656D01*
X31424050Y-16384381D01*
X31413731Y-16304213D01*
X31423256Y-16223250D01*
X31460563Y-16177213D01*
X31553431Y-16162131D01*
X31843944Y-16162131D01*
X31843944Y-16154194D01*
X31804256Y-16138319D01*
X31705831Y-16084741D01*
X31594706Y-15997031D01*
X31543113Y-15939881D01*
X31499456Y-15866856D01*
X31469691Y-15783512D01*
X31459769Y-15695406D01*
X31472998Y-15586310D01*
X31512685Y-15485503D01*
X31578831Y-15392987D01*
X31666232Y-15319345D01*
X31769684Y-15275160D01*
X31889188Y-15260431D01*
X32008603Y-15274983D01*
G37*
G36*
X31010308Y-15271345D02*
G01*
X31100200Y-15304087D01*
X31174217Y-15352903D01*
X31229581Y-15412037D01*
X31273436Y-15488436D01*
X31312925Y-15589044D01*
X31333651Y-15669301D01*
X31346086Y-15759788D01*
X31350231Y-15860506D01*
X31345116Y-15971808D01*
X31329770Y-16074995D01*
X31304194Y-16170069D01*
X31269864Y-16249841D01*
X31227200Y-16317706D01*
X31171241Y-16374658D01*
X31097025Y-16421688D01*
X31007530Y-16453239D01*
X30908906Y-16463428D01*
X30905731Y-16463756D01*
X30804330Y-16453438D01*
X30716025Y-16422481D01*
X30643198Y-16375650D01*
X30588231Y-16317706D01*
X30534058Y-16226127D01*
X30495363Y-16119666D01*
X30472145Y-15998321D01*
X30464857Y-15870031D01*
X30745394Y-15870031D01*
X30755613Y-16006159D01*
X30786272Y-16103394D01*
X30837370Y-16161734D01*
X30908906Y-16181181D01*
X30979054Y-16161189D01*
X31029159Y-16101211D01*
X31059223Y-16001248D01*
X31069244Y-15861300D01*
X31059123Y-15721352D01*
X31028763Y-15621389D01*
X30978161Y-15561411D01*
X30907319Y-15541419D01*
X30836477Y-15561362D01*
X30785875Y-15621191D01*
X30755514Y-15720905D01*
X30745394Y-15860506D01*
X30745394Y-15870031D01*
X30464857Y-15870031D01*
X30464406Y-15862094D01*
X30469698Y-15757142D01*
X30485573Y-15656072D01*
X30512031Y-15558881D01*
X30545170Y-15478712D01*
X30587438Y-15409656D01*
X30643000Y-15351316D01*
X30716025Y-15303294D01*
X30804727Y-15271147D01*
X30907319Y-15260431D01*
X31010308Y-15271345D01*
G37*
G36*
X30076615Y-15274983D02*
G01*
X30179803Y-15318640D01*
X30266763Y-15391400D01*
X30332467Y-15482505D01*
X30371890Y-15581194D01*
X30385031Y-15687469D01*
X30377094Y-15768431D01*
X30333834Y-15813675D01*
X30245331Y-15828756D01*
X30164369Y-15819231D01*
X30121506Y-15790656D01*
X30106425Y-15750969D01*
X30104044Y-15698581D01*
X30104044Y-15689056D01*
X30097694Y-15652544D01*
X30055625Y-15578725D01*
X29967519Y-15541419D01*
X29888144Y-15555706D01*
X29846075Y-15586663D01*
X29821469Y-15629525D01*
X29810356Y-15670006D01*
X29825239Y-15739459D01*
X29869888Y-15804944D01*
X29935570Y-15865070D01*
X30013556Y-15918450D01*
X30097694Y-15968853D01*
X30181831Y-16020050D01*
X30259817Y-16076803D01*
X30325500Y-16143875D01*
X30370148Y-16219480D01*
X30385031Y-16301831D01*
X30343756Y-16401844D01*
X30245331Y-16444706D01*
X29624619Y-16444706D01*
X29526194Y-16425656D01*
X29492063Y-16384381D01*
X29481744Y-16304213D01*
X29491269Y-16223250D01*
X29528575Y-16177213D01*
X29621444Y-16162131D01*
X29911956Y-16162131D01*
X29911956Y-16154194D01*
X29872269Y-16138319D01*
X29773844Y-16084741D01*
X29662719Y-15997031D01*
X29611125Y-15939881D01*
X29567469Y-15866856D01*
X29537703Y-15783512D01*
X29527781Y-15695406D01*
X29541010Y-15586310D01*
X29580698Y-15485503D01*
X29646844Y-15392987D01*
X29734244Y-15319345D01*
X29837697Y-15275160D01*
X29957200Y-15260431D01*
X30076615Y-15274983D01*
G37*
G36*
X29057286Y-15265987D02*
G01*
X29128525Y-15282656D01*
X29233300Y-15331869D01*
X29299181Y-15394575D01*
X29334106Y-15444581D01*
X29370619Y-15552531D01*
X29350775Y-15609284D01*
X29291244Y-15658894D01*
X29203931Y-15687469D01*
X29143606Y-15667625D01*
X29099156Y-15608094D01*
X29089631Y-15589044D01*
X29048356Y-15550944D01*
X28958662Y-15531894D01*
X28870556Y-15562056D01*
X28838806Y-15625556D01*
X28868969Y-15671991D01*
X28959456Y-15687469D01*
X29042006Y-15695406D01*
X29086059Y-15738666D01*
X29100744Y-15827169D01*
X29090028Y-15908528D01*
X29057881Y-15949406D01*
X29016606Y-15965281D01*
X28944375Y-15968456D01*
X28852300Y-16001000D01*
X28813406Y-16076406D01*
X28853094Y-16153400D01*
X28903894Y-16178998D01*
X28976919Y-16187531D01*
X29043594Y-16178006D01*
X29130906Y-16101806D01*
X29178531Y-16019256D01*
X29262669Y-16003381D01*
X29379350Y-16026400D01*
X29418244Y-16095456D01*
X29400781Y-16181181D01*
X29397606Y-16197056D01*
X29380144Y-16238331D01*
X29340853Y-16301434D01*
X29296006Y-16351044D01*
X29204284Y-16412780D01*
X29098451Y-16449822D01*
X28978506Y-16462169D01*
X28857680Y-16449910D01*
X28751317Y-16413133D01*
X28659419Y-16351837D01*
X28588863Y-16271669D01*
X28546530Y-16178271D01*
X28532419Y-16071644D01*
X28545516Y-15990681D01*
X28584806Y-15919244D01*
X28634812Y-15867650D01*
X28681644Y-15833519D01*
X28681644Y-15822406D01*
X28612852Y-15772576D01*
X28571577Y-15705637D01*
X28557819Y-15621587D01*
X28570342Y-15532070D01*
X28607913Y-15448726D01*
X28670531Y-15371556D01*
X28754845Y-15309820D01*
X28857503Y-15272778D01*
X28978506Y-15260431D01*
X29057286Y-15265987D01*
G37*
%TO.C,kibuzzard-645C1150*%
G36*
X41274341Y-18855096D02*
G01*
X41291843Y-18884544D01*
X41297678Y-18937329D01*
X41292260Y-18989419D01*
X41276008Y-19021228D01*
X41242948Y-19037480D01*
X41187108Y-19042897D01*
X41132518Y-19034841D01*
X41103209Y-19010671D01*
X41091541Y-18980112D01*
X41088762Y-18940662D01*
X41110432Y-18857319D01*
X41189331Y-18835094D01*
X41274341Y-18855096D01*
G37*
G36*
X41274341Y-19209585D02*
G01*
X41291843Y-19239033D01*
X41297678Y-19291818D01*
X41292260Y-19343907D01*
X41276008Y-19375717D01*
X41242948Y-19391969D01*
X41187108Y-19397386D01*
X41132518Y-19389330D01*
X41103209Y-19365160D01*
X41091541Y-19334601D01*
X41088762Y-19295151D01*
X41094180Y-19243061D01*
X41110432Y-19211252D01*
X41189331Y-19189583D01*
X41274341Y-19209585D01*
G37*
G36*
X43690754Y-18544780D02*
G01*
X43720203Y-18567282D01*
X43729648Y-18595619D01*
X43731315Y-18633958D01*
X43729648Y-18672296D01*
X43719647Y-18701744D01*
X43690199Y-18725080D01*
X43634081Y-18731747D01*
X43577963Y-18725080D01*
X43548514Y-18702299D01*
X43538513Y-18673407D01*
X43536846Y-18635069D01*
X43538513Y-18596731D01*
X43549070Y-18567282D01*
X43577407Y-18544780D01*
X43633525Y-18537279D01*
X43690754Y-18544780D01*
G37*
G36*
X42863984Y-18544780D02*
G01*
X42893433Y-18567282D01*
X42902878Y-18595619D01*
X42904545Y-18633958D01*
X42902878Y-18672296D01*
X42892877Y-18701744D01*
X42863429Y-18725080D01*
X42807311Y-18731747D01*
X42751193Y-18725080D01*
X42721744Y-18702299D01*
X42711743Y-18673407D01*
X42710076Y-18635069D01*
X42711743Y-18596731D01*
X42722300Y-18567282D01*
X42750637Y-18544780D01*
X42806755Y-18537279D01*
X42863984Y-18544780D01*
G37*
G36*
X43690754Y-18818981D02*
G01*
X43720203Y-18840650D01*
X43729648Y-18870098D01*
X43731315Y-18908436D01*
X43731315Y-19298485D01*
X43729648Y-19337379D01*
X43720203Y-19366271D01*
X43691032Y-19388774D01*
X43634636Y-19396275D01*
X43577685Y-19389052D01*
X43549070Y-19367383D01*
X43538513Y-19337934D01*
X43536846Y-19299596D01*
X43536846Y-18910659D01*
X43537958Y-18878432D01*
X43557960Y-18830649D01*
X43633525Y-18811757D01*
X43690754Y-18818981D01*
G37*
G36*
X42863984Y-18818981D02*
G01*
X42893433Y-18840650D01*
X42902878Y-18870098D01*
X42904545Y-18908436D01*
X42904545Y-19298485D01*
X42902878Y-19337379D01*
X42893433Y-19366271D01*
X42864262Y-19388774D01*
X42807866Y-19396275D01*
X42750915Y-19389052D01*
X42722300Y-19367383D01*
X42711743Y-19337934D01*
X42710076Y-19299596D01*
X42710076Y-18910659D01*
X42711188Y-18878432D01*
X42731190Y-18830649D01*
X42806755Y-18811757D01*
X42863984Y-18818981D01*
G37*
G36*
X44410289Y-18823981D02*
G01*
X44453628Y-18859819D01*
X44468074Y-18898435D01*
X44445849Y-18958442D01*
X44214709Y-19354048D01*
X44204707Y-19366271D01*
X44174148Y-19390163D01*
X44128587Y-19401831D01*
X44080247Y-19386829D01*
X44044688Y-19352936D01*
X43814659Y-18958442D01*
X43792434Y-18897324D01*
X43806880Y-18859541D01*
X43850219Y-18823981D01*
X43911338Y-18800645D01*
X43946898Y-18810091D01*
X43966344Y-18828982D01*
X43984680Y-18859541D01*
X44130254Y-19139576D01*
X44275828Y-18859541D01*
X44305276Y-18814536D01*
X44343614Y-18799534D01*
X44410289Y-18823981D01*
G37*
G36*
X42408187Y-18806942D02*
G01*
X42479307Y-18835835D01*
X42544500Y-18883989D01*
X42596358Y-18946960D01*
X42627473Y-19020302D01*
X42637845Y-19104016D01*
X42626038Y-19188332D01*
X42590617Y-19263481D01*
X42537971Y-19325433D01*
X42474491Y-19370161D01*
X42404483Y-19397247D01*
X42333362Y-19406137D01*
X42332251Y-19406276D01*
X42260159Y-19397803D01*
X42190567Y-19372383D01*
X42127365Y-19329044D01*
X42074441Y-19266814D01*
X42038603Y-19189999D01*
X42026658Y-19102905D01*
X42026930Y-19100682D01*
X42223349Y-19100682D01*
X42232517Y-19148466D01*
X42260020Y-19182915D01*
X42333362Y-19210696D01*
X42405594Y-19183471D01*
X42432264Y-19149578D01*
X42441154Y-19102349D01*
X42432542Y-19054982D01*
X42406705Y-19020672D01*
X42332251Y-18992891D01*
X42257798Y-19019561D01*
X42231961Y-19053177D01*
X42223349Y-19100682D01*
X42026930Y-19100682D01*
X42036906Y-19019253D01*
X42067650Y-18946095D01*
X42118891Y-18883433D01*
X42183467Y-18835588D01*
X42254217Y-18806880D01*
X42331140Y-18797311D01*
X42408187Y-18806942D01*
G37*
G36*
X41913032Y-18817592D02*
G01*
X41942202Y-18838427D01*
X41952759Y-18866764D01*
X41954426Y-18903991D01*
X41954426Y-19297374D01*
X41952759Y-19335712D01*
X41943314Y-19365160D01*
X41914143Y-19387663D01*
X41857747Y-19395164D01*
X41800796Y-19387663D01*
X41772181Y-19365160D01*
X41761624Y-19336823D01*
X41759957Y-19298485D01*
X41759957Y-19101794D01*
X41732732Y-19031785D01*
X41661612Y-19005115D01*
X41591603Y-19030674D01*
X41565489Y-19101794D01*
X41565489Y-19297374D01*
X41558821Y-19354048D01*
X41529929Y-19384885D01*
X41467699Y-19395164D01*
X41410469Y-19387663D01*
X41381021Y-19365160D01*
X41371576Y-19336823D01*
X41369909Y-19298485D01*
X41369909Y-19102905D01*
X41378120Y-19025550D01*
X41402752Y-18956467D01*
X41443807Y-18895657D01*
X41497209Y-18848429D01*
X41558883Y-18820092D01*
X41628830Y-18810646D01*
X41712174Y-18836205D01*
X41742177Y-18859541D01*
X41762180Y-18881766D01*
X41773292Y-18836205D01*
X41801907Y-18817036D01*
X41856636Y-18810646D01*
X41913032Y-18817592D01*
G37*
G36*
X44862382Y-18807745D02*
G01*
X44937762Y-18835711D01*
X45003141Y-18882322D01*
X45053456Y-18944490D01*
X45083645Y-19019129D01*
X45093708Y-19106239D01*
X45085929Y-19177976D01*
X45062592Y-19245022D01*
X45023699Y-19307375D01*
X44981055Y-19349464D01*
X44924242Y-19382384D01*
X44855761Y-19403637D01*
X44778113Y-19410721D01*
X44674558Y-19404540D01*
X44600590Y-19385996D01*
X44556210Y-19355089D01*
X44541416Y-19311820D01*
X44555863Y-19260702D01*
X44616981Y-19210696D01*
X44661431Y-19222920D01*
X44673655Y-19227365D01*
X44717272Y-19237366D01*
X44774779Y-19240700D01*
X44848121Y-19219586D01*
X44884793Y-19167358D01*
X44746998Y-19167358D01*
X44621426Y-19167358D01*
X44546417Y-19134576D01*
X44520997Y-19092904D01*
X44512524Y-19033452D01*
X44512923Y-19030674D01*
X44704770Y-19030674D01*
X44746998Y-19066234D01*
X44887015Y-19066234D01*
X44851455Y-19003448D01*
X44779779Y-18974000D01*
X44724217Y-18989557D01*
X44704770Y-19030674D01*
X44512923Y-19030674D01*
X44521969Y-18967749D01*
X44550306Y-18907325D01*
X44591561Y-18859680D01*
X44643096Y-18825648D01*
X44704909Y-18805229D01*
X44777001Y-18798422D01*
X44862382Y-18807745D01*
G37*
G36*
X43290282Y-18806557D02*
G01*
X43357802Y-18827626D01*
X43406030Y-18862742D01*
X43434967Y-18911903D01*
X43444613Y-18975111D01*
X43439334Y-19029979D01*
X43423499Y-19076791D01*
X43370159Y-19139576D01*
X43300983Y-19173747D01*
X43231253Y-19191805D01*
X43175412Y-19204584D01*
X43156799Y-19222920D01*
X43173745Y-19242923D01*
X43224585Y-19249590D01*
X43309040Y-19222364D01*
X43382938Y-19195139D01*
X43422388Y-19214030D01*
X43454058Y-19265425D01*
X43464615Y-19301819D01*
X43443501Y-19344046D01*
X43376641Y-19378618D01*
X43307929Y-19399362D01*
X43237364Y-19406276D01*
X43169887Y-19402449D01*
X43110435Y-19390966D01*
X43059009Y-19371828D01*
X42998446Y-19311264D01*
X42982194Y-19266398D01*
X42976776Y-19212919D01*
X42982194Y-19159995D01*
X42998446Y-19116796D01*
X43052341Y-19062900D01*
X43122350Y-19035119D01*
X43194581Y-19020672D01*
X43251255Y-19004837D01*
X43270146Y-18977334D01*
X43204583Y-18952886D01*
X43126239Y-18969555D01*
X43076789Y-18986224D01*
X43026783Y-18947330D01*
X43002335Y-18881766D01*
X43041229Y-18837316D01*
X43123461Y-18808979D01*
X43203471Y-18799534D01*
X43290282Y-18806557D01*
G37*
G36*
X45736566Y-18589230D02*
G01*
X45766014Y-18611732D01*
X45776571Y-18641181D01*
X45778238Y-18679519D01*
X45778238Y-19296262D01*
X45771570Y-19354048D01*
X45742122Y-19384885D01*
X45680448Y-19395164D01*
X45623218Y-19387663D01*
X45593770Y-19365160D01*
X45583213Y-19335712D01*
X45581546Y-19297374D01*
X45581546Y-19171803D01*
X45441529Y-19171803D01*
X45407080Y-19169580D01*
X45363865Y-19271938D01*
X45334972Y-19338984D01*
X45320403Y-19370716D01*
X45299844Y-19392386D01*
X45264284Y-19402942D01*
X45207055Y-19387385D01*
X45155382Y-19355159D01*
X45138158Y-19316265D01*
X45154826Y-19258480D01*
X45185941Y-19187730D01*
X45211130Y-19129575D01*
X45230391Y-19084014D01*
X45184089Y-19024994D01*
X45156308Y-18956097D01*
X45147048Y-18877321D01*
X45342628Y-18877321D01*
X45374854Y-18950664D01*
X45439306Y-18975111D01*
X45581546Y-18975111D01*
X45581546Y-18778420D01*
X45441529Y-18778420D01*
X45374854Y-18803423D01*
X45342628Y-18877321D01*
X45147048Y-18877321D01*
X45154271Y-18808424D01*
X45175940Y-18746194D01*
X45208722Y-18693409D01*
X45249283Y-18652849D01*
X45311389Y-18613338D01*
X45374730Y-18589631D01*
X45439306Y-18581729D01*
X45679336Y-18581729D01*
X45736566Y-18589230D01*
G37*
%TO.C,kibuzzard-645C118B*%
G36*
X34722706Y-18880096D02*
G01*
X34740208Y-18909544D01*
X34746042Y-18962329D01*
X34740625Y-19014419D01*
X34724372Y-19046228D01*
X34691313Y-19062480D01*
X34635472Y-19067897D01*
X34580882Y-19059841D01*
X34551573Y-19035671D01*
X34539905Y-19005112D01*
X34537127Y-18965662D01*
X34558796Y-18882319D01*
X34637695Y-18860094D01*
X34722706Y-18880096D01*
G37*
G36*
X34722706Y-19234585D02*
G01*
X34740208Y-19264033D01*
X34746042Y-19316818D01*
X34740625Y-19368907D01*
X34724372Y-19400717D01*
X34691313Y-19416969D01*
X34635472Y-19422386D01*
X34580882Y-19414330D01*
X34551573Y-19390160D01*
X34539905Y-19359601D01*
X34537127Y-19320151D01*
X34542544Y-19268061D01*
X34558796Y-19236252D01*
X34637695Y-19214583D01*
X34722706Y-19234585D01*
G37*
G36*
X38037009Y-18569780D02*
G01*
X38066457Y-18592282D01*
X38075903Y-18620619D01*
X38077569Y-18658958D01*
X38075903Y-18697296D01*
X38065901Y-18726744D01*
X38036453Y-18750080D01*
X37980335Y-18756747D01*
X37924217Y-18750080D01*
X37894769Y-18727299D01*
X37884768Y-18698407D01*
X37883101Y-18660069D01*
X37884768Y-18621731D01*
X37895324Y-18592282D01*
X37923661Y-18569780D01*
X37979779Y-18562279D01*
X38037009Y-18569780D01*
G37*
G36*
X38037009Y-18843981D02*
G01*
X38066457Y-18865650D01*
X38075903Y-18895098D01*
X38077569Y-18933436D01*
X38077569Y-19323485D01*
X38075903Y-19362379D01*
X38066457Y-19391271D01*
X38037287Y-19413774D01*
X37980891Y-19421275D01*
X37923939Y-19414052D01*
X37895324Y-19392383D01*
X37884768Y-19362934D01*
X37883101Y-19324596D01*
X37883101Y-18935659D01*
X37884212Y-18903432D01*
X37904214Y-18855649D01*
X37979779Y-18836757D01*
X38037009Y-18843981D01*
G37*
G36*
X38688201Y-18614230D02*
G01*
X38717649Y-18636732D01*
X38728206Y-18666181D01*
X38729873Y-18704519D01*
X38729873Y-19322374D01*
X38723206Y-19379048D01*
X38693758Y-19410718D01*
X38632083Y-19421275D01*
X38232033Y-19421275D01*
X38174248Y-19410163D01*
X38155357Y-19385715D01*
X38149801Y-19338487D01*
X38155357Y-19291259D01*
X38177582Y-19265144D01*
X38230922Y-19256810D01*
X38533182Y-19256810D01*
X38533182Y-18705630D01*
X38538738Y-18647845D01*
X38569020Y-18617008D01*
X38630972Y-18606729D01*
X38688201Y-18614230D01*
G37*
G36*
X37579112Y-18837128D02*
G01*
X37644676Y-18861575D01*
X37707523Y-18902321D01*
X37748917Y-18943576D01*
X37781977Y-18996222D01*
X37803646Y-19057896D01*
X37810869Y-19126238D01*
X37803646Y-19194858D01*
X37781977Y-19257366D01*
X37748917Y-19310845D01*
X37707523Y-19352378D01*
X37642947Y-19393741D01*
X37576643Y-19418559D01*
X37508609Y-19426831D01*
X37423599Y-19415719D01*
X37353034Y-19382381D01*
X37307195Y-19344321D01*
X37291916Y-19303482D01*
X37317474Y-19245697D01*
X37361647Y-19201525D01*
X37398596Y-19186801D01*
X37448046Y-19207359D01*
X37513610Y-19227917D01*
X37579729Y-19201803D01*
X37610844Y-19128461D01*
X37578618Y-19054562D01*
X37509165Y-19027892D01*
X37451936Y-19046784D01*
X37391928Y-19071231D01*
X37354423Y-19055952D01*
X37315252Y-19010112D01*
X37291916Y-18946216D01*
X37320808Y-18895654D01*
X37351923Y-18874540D01*
X37369703Y-18863427D01*
X37428599Y-18840647D01*
X37510832Y-18828979D01*
X37579112Y-18837128D01*
G37*
G36*
X36541544Y-18842592D02*
G01*
X36570714Y-18863427D01*
X36581271Y-18891764D01*
X36582938Y-18928991D01*
X36582938Y-19322374D01*
X36581271Y-19360712D01*
X36571826Y-19390160D01*
X36542655Y-19412663D01*
X36486259Y-19420164D01*
X36429308Y-19412663D01*
X36400693Y-19390160D01*
X36390136Y-19361823D01*
X36388469Y-19323485D01*
X36388469Y-19126794D01*
X36361244Y-19056785D01*
X36290124Y-19030115D01*
X36220115Y-19055674D01*
X36194001Y-19126794D01*
X36194001Y-19322374D01*
X36187333Y-19379048D01*
X36158441Y-19409885D01*
X36096211Y-19420164D01*
X36038981Y-19412663D01*
X36009533Y-19390160D01*
X36000087Y-19361823D01*
X35998421Y-19323485D01*
X35998421Y-19127905D01*
X36006632Y-19050550D01*
X36031264Y-18981467D01*
X36072319Y-18920657D01*
X36125720Y-18873429D01*
X36187395Y-18845092D01*
X36257342Y-18835646D01*
X36340686Y-18861205D01*
X36370689Y-18884541D01*
X36390692Y-18906766D01*
X36401804Y-18861205D01*
X36430419Y-18842036D01*
X36485148Y-18835646D01*
X36541544Y-18842592D01*
G37*
G36*
X37005028Y-18832745D02*
G01*
X37080408Y-18860711D01*
X37145786Y-18907322D01*
X37196101Y-18969490D01*
X37226290Y-19044129D01*
X37236353Y-19131239D01*
X37228574Y-19202976D01*
X37205238Y-19270022D01*
X37166344Y-19332375D01*
X37123700Y-19374464D01*
X37066888Y-19407384D01*
X36998407Y-19428637D01*
X36920758Y-19435721D01*
X36817204Y-19429540D01*
X36743236Y-19410996D01*
X36698855Y-19380089D01*
X36684062Y-19336820D01*
X36698508Y-19285702D01*
X36759627Y-19235696D01*
X36804077Y-19247920D01*
X36816301Y-19252365D01*
X36859917Y-19262366D01*
X36917424Y-19265700D01*
X36990767Y-19244586D01*
X37027438Y-19192358D01*
X36889643Y-19192358D01*
X36764072Y-19192358D01*
X36689063Y-19159576D01*
X36663643Y-19117904D01*
X36655169Y-19058452D01*
X36655568Y-19055674D01*
X36847416Y-19055674D01*
X36889643Y-19091234D01*
X37029661Y-19091234D01*
X36994101Y-19028448D01*
X36922425Y-18999000D01*
X36866863Y-19014557D01*
X36847416Y-19055674D01*
X36655568Y-19055674D01*
X36664615Y-18992749D01*
X36692952Y-18932325D01*
X36734207Y-18884680D01*
X36785741Y-18850648D01*
X36847555Y-18830229D01*
X36919647Y-18823422D01*
X37005028Y-18832745D01*
G37*
G36*
X35751856Y-18831557D02*
G01*
X35819376Y-18852626D01*
X35867604Y-18887742D01*
X35896541Y-18936903D01*
X35906187Y-19000111D01*
X35900908Y-19054979D01*
X35885073Y-19101791D01*
X35831733Y-19164576D01*
X35762558Y-19198747D01*
X35692827Y-19216805D01*
X35636987Y-19229584D01*
X35618373Y-19247920D01*
X35635320Y-19267923D01*
X35686159Y-19274590D01*
X35770614Y-19247364D01*
X35844512Y-19220139D01*
X35883962Y-19239030D01*
X35915632Y-19290425D01*
X35926189Y-19326819D01*
X35905076Y-19369046D01*
X35838215Y-19403618D01*
X35769503Y-19424362D01*
X35698939Y-19431276D01*
X35631461Y-19427449D01*
X35572009Y-19415966D01*
X35520583Y-19396828D01*
X35460020Y-19336264D01*
X35443768Y-19291398D01*
X35438351Y-19237919D01*
X35443768Y-19184995D01*
X35460020Y-19141796D01*
X35513916Y-19087900D01*
X35583924Y-19060119D01*
X35656156Y-19045672D01*
X35712829Y-19029837D01*
X35731721Y-19002334D01*
X35666157Y-18977886D01*
X35587814Y-18994555D01*
X35538363Y-19011224D01*
X35488357Y-18972330D01*
X35463909Y-18906766D01*
X35502803Y-18862316D01*
X35585036Y-18833979D01*
X35665046Y-18824534D01*
X35751856Y-18831557D01*
G37*
G36*
X35151463Y-18832745D02*
G01*
X35226843Y-18860711D01*
X35292221Y-18907322D01*
X35342536Y-18969490D01*
X35372725Y-19044129D01*
X35382788Y-19131239D01*
X35375009Y-19202976D01*
X35351673Y-19270022D01*
X35312779Y-19332375D01*
X35270135Y-19374464D01*
X35213322Y-19407384D01*
X35144842Y-19428637D01*
X35067193Y-19435721D01*
X34963639Y-19429540D01*
X34889671Y-19410996D01*
X34845290Y-19380089D01*
X34830497Y-19336820D01*
X34844943Y-19285702D01*
X34906062Y-19235696D01*
X34950512Y-19247920D01*
X34962736Y-19252365D01*
X35006352Y-19262366D01*
X35063859Y-19265700D01*
X35137202Y-19244586D01*
X35173873Y-19192358D01*
X35036078Y-19192358D01*
X34910507Y-19192358D01*
X34835497Y-19159576D01*
X34810078Y-19117904D01*
X34801604Y-19058452D01*
X34802003Y-19055674D01*
X34993851Y-19055674D01*
X35036078Y-19091234D01*
X35176096Y-19091234D01*
X35140536Y-19028448D01*
X35068860Y-18999000D01*
X35013297Y-19014557D01*
X34993851Y-19055674D01*
X34802003Y-19055674D01*
X34811050Y-18992749D01*
X34839387Y-18932325D01*
X34880642Y-18884680D01*
X34932176Y-18850648D01*
X34993990Y-18830229D01*
X35066082Y-18823422D01*
X35151463Y-18832745D01*
G37*
%TO.C,kibuzzard-645C107E*%
G36*
X39232551Y-9173192D02*
G01*
X39250053Y-9202640D01*
X39255887Y-9255424D01*
X39250470Y-9307514D01*
X39234217Y-9339324D01*
X39201158Y-9355576D01*
X39145317Y-9360993D01*
X39090727Y-9352937D01*
X39061418Y-9328767D01*
X39049750Y-9298207D01*
X39046972Y-9258758D01*
X39068641Y-9175414D01*
X39147540Y-9153189D01*
X39232551Y-9173192D01*
G37*
G36*
X39232551Y-9527681D02*
G01*
X39250053Y-9557129D01*
X39255887Y-9609913D01*
X39250470Y-9662003D01*
X39234217Y-9693813D01*
X39201158Y-9710065D01*
X39145317Y-9715482D01*
X39090727Y-9707425D01*
X39061418Y-9683256D01*
X39049750Y-9652696D01*
X39046972Y-9613247D01*
X39052389Y-9561157D01*
X39068641Y-9529348D01*
X39147540Y-9507678D01*
X39232551Y-9527681D01*
G37*
G36*
X43717000Y-8862875D02*
G01*
X43746448Y-8885378D01*
X43755894Y-8913715D01*
X43757561Y-8952053D01*
X43755894Y-8990391D01*
X43745892Y-9019839D01*
X43716444Y-9043176D01*
X43660326Y-9049843D01*
X43604208Y-9043176D01*
X43574760Y-9020395D01*
X43564759Y-8991502D01*
X43563092Y-8953164D01*
X43564759Y-8914826D01*
X43575316Y-8885378D01*
X43603652Y-8862875D01*
X43659771Y-8855374D01*
X43717000Y-8862875D01*
G37*
G36*
X43717000Y-9137076D02*
G01*
X43746448Y-9158746D01*
X43755894Y-9188194D01*
X43757561Y-9226532D01*
X43757561Y-9616581D01*
X43755894Y-9655474D01*
X43746448Y-9684367D01*
X43717278Y-9706870D01*
X43660882Y-9714371D01*
X43603930Y-9707148D01*
X43575316Y-9685478D01*
X43564759Y-9656030D01*
X43563092Y-9617692D01*
X43563092Y-9228754D01*
X43564203Y-9196528D01*
X43584206Y-9148744D01*
X43659771Y-9129853D01*
X43717000Y-9137076D01*
G37*
G36*
X39878187Y-9138743D02*
G01*
X39923192Y-9174303D01*
X39938194Y-9209863D01*
X39915969Y-9264314D01*
X39694831Y-9636583D01*
X39741503Y-9737915D01*
X39774841Y-9814105D01*
X39794843Y-9865153D01*
X39801511Y-9891059D01*
X39785120Y-9928286D01*
X39735947Y-9959957D01*
X39677051Y-9976626D01*
X39643713Y-9966624D01*
X39624266Y-9945511D01*
X39609264Y-9913284D01*
X39318117Y-9262092D01*
X39309227Y-9243201D01*
X39300337Y-9205418D01*
X39316728Y-9167358D01*
X39365901Y-9135409D01*
X39427575Y-9119852D01*
X39468136Y-9138743D01*
X39480915Y-9157634D01*
X39497445Y-9193333D01*
X39539256Y-9284872D01*
X39581483Y-9378912D01*
X39599263Y-9422112D01*
X39633156Y-9366611D01*
X39668161Y-9308270D01*
X39704276Y-9247090D01*
X39747059Y-9174303D01*
X39765395Y-9143744D01*
X39784842Y-9125408D01*
X39819291Y-9116518D01*
X39878187Y-9138743D01*
G37*
G36*
X42782717Y-9135687D02*
G01*
X42811887Y-9156523D01*
X42822444Y-9184860D01*
X42824111Y-9222087D01*
X42824111Y-9615469D01*
X42822444Y-9653807D01*
X42812998Y-9683256D01*
X42783828Y-9705758D01*
X42727432Y-9713259D01*
X42670480Y-9705758D01*
X42641866Y-9683256D01*
X42631309Y-9654919D01*
X42629642Y-9616581D01*
X42629642Y-9419889D01*
X42602416Y-9349881D01*
X42531296Y-9323211D01*
X42461287Y-9348769D01*
X42435173Y-9419889D01*
X42435173Y-9615469D01*
X42428506Y-9672143D01*
X42399613Y-9702980D01*
X42337383Y-9713259D01*
X42280154Y-9705758D01*
X42250706Y-9683256D01*
X42241260Y-9654919D01*
X42239593Y-9616581D01*
X42239593Y-9421001D01*
X42247804Y-9343645D01*
X42272437Y-9274563D01*
X42313491Y-9213752D01*
X42366893Y-9166524D01*
X42428567Y-9138187D01*
X42498514Y-9128742D01*
X42581858Y-9154301D01*
X42611862Y-9177637D01*
X42631864Y-9199862D01*
X42642977Y-9154301D01*
X42671592Y-9135132D01*
X42726321Y-9128742D01*
X42782717Y-9135687D01*
G37*
G36*
X45678356Y-8906214D02*
G01*
X45707804Y-8928717D01*
X45718361Y-8957609D01*
X45720028Y-8996503D01*
X45720028Y-9614358D01*
X45706693Y-9685478D01*
X45677245Y-9706314D01*
X45622238Y-9713259D01*
X45523337Y-9713259D01*
X45418879Y-9713259D01*
X45337029Y-9705689D01*
X45261499Y-9682978D01*
X45192289Y-9645126D01*
X45129399Y-9592133D01*
X45077135Y-9528549D01*
X45039804Y-9458922D01*
X45017406Y-9383253D01*
X45010498Y-9307653D01*
X45206631Y-9307653D01*
X45222744Y-9390025D01*
X45271083Y-9457116D01*
X45339425Y-9501705D01*
X45415546Y-9516568D01*
X45523337Y-9516568D01*
X45523337Y-9096516D01*
X45416657Y-9096516D01*
X45337619Y-9111656D01*
X45269416Y-9157079D01*
X45222327Y-9225004D01*
X45206631Y-9307653D01*
X45010498Y-9307653D01*
X45009939Y-9301541D01*
X45017579Y-9220142D01*
X45040499Y-9145411D01*
X45078698Y-9077347D01*
X45132177Y-9015950D01*
X45195726Y-8965145D01*
X45264138Y-8928856D01*
X45337411Y-8907082D01*
X45415546Y-8899824D01*
X45621127Y-8898713D01*
X45678356Y-8906214D01*
G37*
G36*
X41091672Y-8862042D02*
G01*
X41121120Y-8884822D01*
X41131121Y-8913715D01*
X41132788Y-8952053D01*
X41132788Y-9185416D01*
X41187517Y-9143744D01*
X41260582Y-9129853D01*
X41324726Y-9139607D01*
X41385289Y-9168870D01*
X41442271Y-9217642D01*
X41488265Y-9279316D01*
X41515861Y-9347288D01*
X41525059Y-9421556D01*
X41515922Y-9495763D01*
X41488512Y-9563549D01*
X41442827Y-9624915D01*
X41386030Y-9673378D01*
X41325281Y-9702456D01*
X41260582Y-9712148D01*
X41231689Y-9706954D01*
X41186406Y-9698813D01*
X41130566Y-9658808D01*
X41104590Y-9699647D01*
X41044444Y-9713259D01*
X40982353Y-9705758D01*
X40950543Y-9683256D01*
X40939986Y-9654919D01*
X40938319Y-9616581D01*
X40938319Y-9422667D01*
X41136122Y-9422667D01*
X41163347Y-9488787D01*
X41231689Y-9518791D01*
X41301698Y-9488787D01*
X41330591Y-9422112D01*
X41303921Y-9354881D01*
X41232801Y-9324322D01*
X41162236Y-9355437D01*
X41136122Y-9422667D01*
X40938319Y-9422667D01*
X40938319Y-8953164D01*
X40939986Y-8914826D01*
X40949987Y-8885378D01*
X40979436Y-8862042D01*
X41035554Y-8855374D01*
X41091672Y-8862042D01*
G37*
G36*
X40527712Y-8862875D02*
G01*
X40557161Y-8885378D01*
X40566606Y-8913715D01*
X40568273Y-8952053D01*
X40568273Y-9615469D01*
X40566606Y-9653807D01*
X40557161Y-9683256D01*
X40527990Y-9705758D01*
X40471594Y-9713259D01*
X40404364Y-9699647D01*
X40376027Y-9658808D01*
X40322409Y-9698813D01*
X40276014Y-9706466D01*
X40241566Y-9712148D01*
X40179953Y-9702456D01*
X40121057Y-9673378D01*
X40064877Y-9624915D01*
X40019192Y-9563549D01*
X39991781Y-9495763D01*
X39982712Y-9422112D01*
X40177113Y-9422112D01*
X40206006Y-9488787D01*
X40276014Y-9518791D01*
X40344356Y-9488787D01*
X40371582Y-9422667D01*
X40345467Y-9355437D01*
X40274903Y-9324322D01*
X40203783Y-9354881D01*
X40177113Y-9422112D01*
X39982712Y-9422112D01*
X39982644Y-9421556D01*
X39991843Y-9347288D01*
X40019439Y-9279316D01*
X40065432Y-9217642D01*
X40122415Y-9168870D01*
X40182978Y-9139607D01*
X40247122Y-9129853D01*
X40319909Y-9143466D01*
X40373804Y-9184304D01*
X40373804Y-8953164D01*
X40375471Y-8914826D01*
X40386028Y-8885378D01*
X40414365Y-8862875D01*
X40470483Y-8855374D01*
X40527712Y-8862875D01*
G37*
G36*
X44723052Y-9125840D02*
G01*
X44798431Y-9153807D01*
X44863810Y-9200417D01*
X44914125Y-9262586D01*
X44944314Y-9337225D01*
X44954377Y-9424334D01*
X44946598Y-9496072D01*
X44923262Y-9563117D01*
X44884368Y-9625471D01*
X44841724Y-9667559D01*
X44784911Y-9700480D01*
X44716430Y-9721733D01*
X44638782Y-9728817D01*
X44535227Y-9722636D01*
X44461260Y-9704092D01*
X44416879Y-9673185D01*
X44402086Y-9629916D01*
X44416532Y-9578798D01*
X44477651Y-9528792D01*
X44522101Y-9541016D01*
X44534324Y-9545461D01*
X44577941Y-9555462D01*
X44635448Y-9558796D01*
X44708791Y-9537682D01*
X44745462Y-9485453D01*
X44607667Y-9485453D01*
X44482096Y-9485453D01*
X44407086Y-9452671D01*
X44381666Y-9410999D01*
X44373193Y-9351548D01*
X44373593Y-9348769D01*
X44565439Y-9348769D01*
X44607667Y-9384329D01*
X44747684Y-9384329D01*
X44712124Y-9321544D01*
X44640449Y-9292096D01*
X44584886Y-9307653D01*
X44565439Y-9348769D01*
X44373593Y-9348769D01*
X44382639Y-9285845D01*
X44410976Y-9225421D01*
X44452231Y-9177776D01*
X44503765Y-9143744D01*
X44565578Y-9123325D01*
X44637671Y-9116518D01*
X44723052Y-9125840D01*
G37*
G36*
X44143298Y-9124652D02*
G01*
X44210817Y-9145722D01*
X44259046Y-9180837D01*
X44287982Y-9229999D01*
X44297628Y-9293207D01*
X44292350Y-9348075D01*
X44276514Y-9394886D01*
X44223174Y-9457672D01*
X44153999Y-9491843D01*
X44084268Y-9509901D01*
X44028428Y-9522680D01*
X44009814Y-9541016D01*
X44026761Y-9561018D01*
X44077601Y-9567686D01*
X44162056Y-9540460D01*
X44235954Y-9513234D01*
X44275403Y-9532126D01*
X44307074Y-9583521D01*
X44317631Y-9619914D01*
X44296517Y-9662142D01*
X44229657Y-9696714D01*
X44160944Y-9717457D01*
X44090380Y-9724372D01*
X44022902Y-9720544D01*
X43963451Y-9709061D01*
X43912024Y-9689923D01*
X43851461Y-9629360D01*
X43835209Y-9584493D01*
X43829792Y-9531014D01*
X43835209Y-9478091D01*
X43851461Y-9434891D01*
X43905357Y-9380996D01*
X43975366Y-9353214D01*
X44047597Y-9338768D01*
X44104271Y-9322933D01*
X44123162Y-9295429D01*
X44057598Y-9270982D01*
X43979255Y-9287651D01*
X43929804Y-9304319D01*
X43879798Y-9265426D01*
X43855351Y-9199862D01*
X43894244Y-9155412D01*
X43976477Y-9127075D01*
X44056487Y-9117629D01*
X44143298Y-9124652D01*
G37*
G36*
X41936037Y-9125840D02*
G01*
X42011416Y-9153807D01*
X42076795Y-9200417D01*
X42127110Y-9262586D01*
X42157299Y-9337225D01*
X42167362Y-9424334D01*
X42159583Y-9496072D01*
X42136247Y-9563117D01*
X42097353Y-9625471D01*
X42054709Y-9667559D01*
X41997896Y-9700480D01*
X41929415Y-9721733D01*
X41851767Y-9728817D01*
X41748212Y-9722636D01*
X41674245Y-9704092D01*
X41629864Y-9673185D01*
X41615071Y-9629916D01*
X41629517Y-9578798D01*
X41690636Y-9528792D01*
X41735086Y-9541016D01*
X41747309Y-9545461D01*
X41790926Y-9555462D01*
X41848433Y-9558796D01*
X41921776Y-9537682D01*
X41958447Y-9485453D01*
X41820652Y-9485453D01*
X41695081Y-9485453D01*
X41620071Y-9452671D01*
X41594651Y-9410999D01*
X41586178Y-9351548D01*
X41586578Y-9348769D01*
X41778424Y-9348769D01*
X41820652Y-9384329D01*
X41960669Y-9384329D01*
X41925109Y-9321544D01*
X41853434Y-9292096D01*
X41797871Y-9307653D01*
X41778424Y-9348769D01*
X41586578Y-9348769D01*
X41595624Y-9285845D01*
X41623961Y-9225421D01*
X41665216Y-9177776D01*
X41716750Y-9143744D01*
X41778563Y-9123325D01*
X41850656Y-9116518D01*
X41936037Y-9125840D01*
G37*
G36*
X43079142Y-9142632D02*
G01*
X43101923Y-9189861D01*
X43120259Y-9168191D01*
X43163042Y-9142632D01*
X43231939Y-9128742D01*
X43294663Y-9138249D01*
X43353930Y-9166771D01*
X43409739Y-9214308D01*
X43454807Y-9274439D01*
X43481847Y-9340744D01*
X43490861Y-9413222D01*
X43481909Y-9485638D01*
X43455054Y-9551758D01*
X43410295Y-9611580D01*
X43355288Y-9658808D01*
X43297688Y-9687145D01*
X43237496Y-9696591D01*
X43203602Y-9690686D01*
X43157763Y-9682700D01*
X43103034Y-9641028D01*
X43103034Y-9674366D01*
X43129704Y-9754376D01*
X43198602Y-9787713D01*
X43258609Y-9777434D01*
X43314172Y-9746597D01*
X43346398Y-9733262D01*
X43373624Y-9742152D01*
X43406406Y-9774378D01*
X43439743Y-9851054D01*
X43420574Y-9886337D01*
X43363067Y-9925508D01*
X43284446Y-9956345D01*
X43201936Y-9966624D01*
X43130322Y-9957920D01*
X43063647Y-9931805D01*
X43001911Y-9888281D01*
X42952522Y-9830558D01*
X42922888Y-9761846D01*
X42913011Y-9682144D01*
X42913011Y-9413777D01*
X43109702Y-9413777D01*
X43136372Y-9478230D01*
X43203602Y-9507678D01*
X43272500Y-9478786D01*
X43300837Y-9413777D01*
X43274167Y-9347658D01*
X43204158Y-9317654D01*
X43135261Y-9348214D01*
X43109702Y-9413777D01*
X42913011Y-9413777D01*
X42913011Y-9222087D01*
X42914677Y-9184304D01*
X42924679Y-9155967D01*
X42953016Y-9133187D01*
X43016357Y-9126519D01*
X43079142Y-9142632D01*
G37*
%TO.C,kibuzzard-652C0514*%
G36*
X44905755Y-20871656D02*
G01*
X44947625Y-20907375D01*
X44962706Y-20950238D01*
X44965087Y-21005800D01*
X44965087Y-21012150D01*
X44934131Y-21126450D01*
X44886903Y-21149072D01*
X44807131Y-21156613D01*
X44729145Y-21145103D01*
X44687275Y-21110575D01*
X44670606Y-21066919D01*
X44668225Y-21010562D01*
X44668225Y-21004213D01*
X44695212Y-20893087D01*
X44746608Y-20868084D01*
X44827769Y-20859750D01*
X44905755Y-20871656D01*
G37*
G36*
X45304812Y-20031075D02*
G01*
X45309575Y-20034250D01*
X45569925Y-20269200D01*
X45627075Y-20362862D01*
X45577069Y-20461288D01*
X45481025Y-20516850D01*
X45369900Y-20467638D01*
X45349262Y-20448588D01*
X45349262Y-21015325D01*
X45346881Y-21073269D01*
X45331800Y-21116925D01*
X45289334Y-21147881D01*
X45209562Y-21158200D01*
X45127806Y-21147484D01*
X45085737Y-21115337D01*
X45070656Y-21073269D01*
X45068275Y-21018500D01*
X45068275Y-20134262D01*
X45076212Y-20050125D01*
X45098437Y-20015994D01*
X45139713Y-19997738D01*
X45215119Y-19989800D01*
X45304812Y-20031075D01*
G37*
G36*
X44282462Y-20031075D02*
G01*
X44287225Y-20034250D01*
X44547575Y-20269200D01*
X44604725Y-20362862D01*
X44554719Y-20461288D01*
X44458675Y-20516850D01*
X44347550Y-20467638D01*
X44326912Y-20448588D01*
X44326912Y-21015325D01*
X44324531Y-21073269D01*
X44309450Y-21116925D01*
X44266984Y-21147881D01*
X44187212Y-21158200D01*
X44105456Y-21147484D01*
X44063387Y-21115337D01*
X44048306Y-21073269D01*
X44045925Y-21018500D01*
X44045925Y-20134262D01*
X44053862Y-20050125D01*
X44076087Y-20015994D01*
X44117363Y-19997738D01*
X44192769Y-19989800D01*
X44282462Y-20031075D01*
G37*
%TO.C,kibuzzard-645C104C*%
G36*
X37776613Y-10358372D02*
G01*
X37818681Y-10390519D01*
X37832175Y-10432588D01*
X37834556Y-10487356D01*
X37834556Y-11243006D01*
X37823444Y-11389850D01*
X37790106Y-11490656D01*
X37732163Y-11543441D01*
X37631356Y-11571619D01*
X37504356Y-11578763D01*
X37434506Y-11562094D01*
X37410694Y-11520422D01*
X37402756Y-11439856D01*
X37434506Y-11327144D01*
X37461494Y-11313650D01*
X37505150Y-11311269D01*
X37547219Y-11296188D01*
X37556744Y-11223956D01*
X37556744Y-10488944D01*
X37559125Y-10433381D01*
X37574206Y-10390519D01*
X37616275Y-10358372D01*
X37694856Y-10347656D01*
X37776613Y-10358372D01*
G37*
G36*
X32378319Y-10760406D02*
G01*
X32442612Y-10803269D01*
X32465631Y-10830256D01*
X32483094Y-10777869D01*
X32524766Y-10750484D01*
X32602156Y-10741356D01*
X32683912Y-10752072D01*
X32725981Y-10784219D01*
X32739475Y-10824700D01*
X32741856Y-10879469D01*
X32741856Y-11436681D01*
X32741856Y-11482719D01*
X32713281Y-11550981D01*
X32603744Y-11577969D01*
X32522781Y-11567650D01*
X32479919Y-11536694D01*
X32464837Y-11494625D01*
X32462456Y-11439856D01*
X32462456Y-11106481D01*
X32425150Y-11033456D01*
X32344981Y-11003294D01*
X32275925Y-11015994D01*
X32221156Y-11028694D01*
X32133844Y-10968369D01*
X32103681Y-10857244D01*
X32123525Y-10783425D01*
X32173531Y-10750881D01*
X32229094Y-10737388D01*
X32291800Y-10733419D01*
X32378319Y-10760406D01*
G37*
G36*
X38204267Y-10358681D02*
G01*
X38288405Y-10391753D01*
X38355256Y-10446875D01*
X38420741Y-10551848D01*
X38442569Y-10668331D01*
X38442569Y-10752469D01*
X38494956Y-10752469D01*
X38565203Y-10785013D01*
X38588619Y-10882644D01*
X38558456Y-10998531D01*
X38499719Y-11017581D01*
X38442569Y-11017581D01*
X38442569Y-11438269D01*
X38440188Y-11493831D01*
X38425106Y-11535900D01*
X38383038Y-11569238D01*
X38304456Y-11579556D01*
X38224288Y-11570031D01*
X38178250Y-11531138D01*
X38163169Y-11441444D01*
X38163169Y-11015994D01*
X38061569Y-11022344D01*
X37964731Y-11003294D01*
X37932188Y-10961225D01*
X37921869Y-10882644D01*
X37931394Y-10803269D01*
X37973066Y-10758025D01*
X38059981Y-10742944D01*
X38163169Y-10752469D01*
X38163169Y-10665156D01*
X38104431Y-10625469D01*
X38059981Y-10625469D01*
X37990131Y-10596894D01*
X37963144Y-10487356D01*
X37973859Y-10405997D01*
X38006006Y-10365119D01*
X38048075Y-10350038D01*
X38102844Y-10347656D01*
X38204267Y-10358681D01*
G37*
G36*
X42270560Y-10736065D02*
G01*
X42372160Y-10777340D01*
X42465294Y-10846131D01*
X42539377Y-10936090D01*
X42583827Y-11040865D01*
X42598644Y-11160456D01*
X42581777Y-11280908D01*
X42531175Y-11388263D01*
X42455967Y-11476766D01*
X42365281Y-11540663D01*
X42265269Y-11579358D01*
X42163669Y-11592058D01*
X42162081Y-11592256D01*
X42059092Y-11580152D01*
X41959675Y-11543838D01*
X41869386Y-11481925D01*
X41793781Y-11393025D01*
X41742584Y-11283289D01*
X41725519Y-11158869D01*
X41725908Y-11155694D01*
X42006506Y-11155694D01*
X42019603Y-11223956D01*
X42058894Y-11273169D01*
X42163669Y-11312856D01*
X42266856Y-11273963D01*
X42304956Y-11225544D01*
X42317656Y-11158075D01*
X42305353Y-11090408D01*
X42268444Y-11041394D01*
X42162081Y-11001706D01*
X42055719Y-11039806D01*
X42018809Y-11087828D01*
X42006506Y-11155694D01*
X41725908Y-11155694D01*
X41740159Y-11039365D01*
X41784080Y-10934855D01*
X41857281Y-10845338D01*
X41949533Y-10776987D01*
X42050603Y-10735976D01*
X42160494Y-10722306D01*
X42270560Y-10736065D01*
G37*
G36*
X37257500Y-10750484D02*
G01*
X37299569Y-10782631D01*
X37313063Y-10823906D01*
X37315444Y-10879469D01*
X37315444Y-11157281D01*
X37303714Y-11267789D01*
X37268524Y-11366478D01*
X37209875Y-11453350D01*
X37133410Y-11520819D01*
X37044775Y-11561300D01*
X36943969Y-11574794D01*
X36826494Y-11539869D01*
X36783631Y-11504944D01*
X36755056Y-11473194D01*
X36739181Y-11538281D01*
X36698303Y-11566856D01*
X36620119Y-11576381D01*
X36540347Y-11566063D01*
X36497881Y-11535106D01*
X36482800Y-11494625D01*
X36480419Y-11441444D01*
X36480419Y-10879469D01*
X36482800Y-10824700D01*
X36496294Y-10782631D01*
X36537966Y-10750484D01*
X36618531Y-10739769D01*
X36699891Y-10750088D01*
X36740769Y-10781044D01*
X36755850Y-10823113D01*
X36758231Y-10877881D01*
X36758231Y-11158869D01*
X36797125Y-11258881D01*
X36898725Y-11296981D01*
X36998738Y-11260469D01*
X37036044Y-11158869D01*
X37036044Y-10881056D01*
X37045569Y-10800094D01*
X37087638Y-10754850D01*
X37175744Y-10739769D01*
X37257500Y-10750484D01*
G37*
G36*
X43477325Y-10361547D02*
G01*
X43519394Y-10393694D01*
X43532888Y-10434175D01*
X43535269Y-10488944D01*
X43535269Y-11438269D01*
X43532888Y-11493831D01*
X43519394Y-11535106D01*
X43477722Y-11567253D01*
X43397156Y-11577969D01*
X43315797Y-11567650D01*
X43274919Y-11536694D01*
X43259838Y-11494625D01*
X43257456Y-11439856D01*
X43257456Y-11131881D01*
X43208244Y-11054888D01*
X43109025Y-11020756D01*
X43016156Y-11057269D01*
X42979644Y-11158869D01*
X42979644Y-11436681D01*
X42977263Y-11493831D01*
X42962181Y-11536694D01*
X42920113Y-11567650D01*
X42841531Y-11577969D01*
X42760172Y-11567650D01*
X42719294Y-11536694D01*
X42704213Y-11494625D01*
X42701831Y-11439856D01*
X42701831Y-11160456D01*
X42713561Y-11050037D01*
X42748751Y-10951612D01*
X42807400Y-10865181D01*
X42883688Y-10798153D01*
X42971794Y-10757937D01*
X43071719Y-10744531D01*
X43171334Y-10768741D01*
X43257456Y-10841369D01*
X43257456Y-10490531D01*
X43259838Y-10435763D01*
X43274919Y-10393694D01*
X43315400Y-10361547D01*
X43395569Y-10350831D01*
X43477325Y-10361547D01*
G37*
G36*
X39692328Y-10763581D02*
G01*
X39728444Y-10830256D01*
X39757019Y-10797713D01*
X39818931Y-10761994D01*
X39917356Y-10742944D01*
X40008990Y-10756790D01*
X40095509Y-10798330D01*
X40176913Y-10867563D01*
X40242617Y-10955228D01*
X40282040Y-11052065D01*
X40295181Y-11158075D01*
X40282128Y-11264173D01*
X40242970Y-11361275D01*
X40177706Y-11449381D01*
X40097185Y-11519055D01*
X40012253Y-11560859D01*
X39922913Y-11574794D01*
X39876081Y-11566423D01*
X39805239Y-11553759D01*
X39726856Y-11490656D01*
X39692725Y-11553363D01*
X39576838Y-11574794D01*
X39506392Y-11564475D01*
X39468094Y-11533519D01*
X39454600Y-11491450D01*
X39452219Y-11436681D01*
X39452219Y-11159663D01*
X39739556Y-11159663D01*
X39778450Y-11254119D01*
X39876081Y-11296981D01*
X39976094Y-11254913D01*
X40017369Y-11160456D01*
X39978475Y-11063619D01*
X39876875Y-11019169D01*
X39776863Y-11063619D01*
X39739556Y-11159663D01*
X39452219Y-11159663D01*
X39452219Y-10881056D01*
X39454600Y-10826288D01*
X39468888Y-10784219D01*
X39510956Y-10750881D01*
X39603031Y-10741356D01*
X39692328Y-10763581D01*
G37*
G36*
X44083353Y-10465528D02*
G01*
X44124231Y-10495294D01*
X44139313Y-10533394D01*
X44141694Y-10587369D01*
X44141694Y-10750881D01*
X44194081Y-10744531D01*
X44257581Y-10765169D01*
X44279806Y-10807238D01*
X44287744Y-10901694D01*
X44264725Y-10993769D01*
X44206781Y-11020756D01*
X44141694Y-11015994D01*
X44141694Y-11250944D01*
X44132169Y-11358012D01*
X44103594Y-11442149D01*
X44055969Y-11503356D01*
X43989999Y-11544808D01*
X43906391Y-11569678D01*
X43805144Y-11577969D01*
X43751963Y-11575588D01*
X43709894Y-11562094D01*
X43676556Y-11520422D01*
X43665444Y-11439856D01*
X43701956Y-11333494D01*
X43744025Y-11318413D01*
X43801175Y-11316031D01*
X43851975Y-11296981D01*
X43865469Y-11235069D01*
X43865469Y-11015994D01*
X43762281Y-11022344D01*
X43707513Y-11019963D01*
X43665444Y-11006469D01*
X43633297Y-10964797D01*
X43622581Y-10884231D01*
X43632900Y-10802872D01*
X43663856Y-10761994D01*
X43705925Y-10746913D01*
X43759900Y-10744531D01*
X43865469Y-10750881D01*
X43865469Y-10595306D01*
X43873406Y-10514344D01*
X43915872Y-10470291D01*
X44001994Y-10455606D01*
X44083353Y-10465528D01*
G37*
G36*
X39099984Y-10735514D02*
G01*
X39196441Y-10765613D01*
X39265338Y-10815778D01*
X39306677Y-10886009D01*
X39320456Y-10976306D01*
X39312916Y-11054689D01*
X39290294Y-11121563D01*
X39214094Y-11211256D01*
X39115272Y-11260072D01*
X39015656Y-11285869D01*
X38935884Y-11304125D01*
X38909294Y-11330319D01*
X38933503Y-11358894D01*
X39006131Y-11368419D01*
X39126781Y-11329525D01*
X39232350Y-11290631D01*
X39288706Y-11317619D01*
X39333950Y-11391041D01*
X39349031Y-11443031D01*
X39318869Y-11503356D01*
X39223354Y-11552745D01*
X39125194Y-11582378D01*
X39024388Y-11592256D01*
X38927991Y-11586788D01*
X38843060Y-11570384D01*
X38769594Y-11543044D01*
X38683075Y-11456525D01*
X38659858Y-11392430D01*
X38652119Y-11316031D01*
X38659858Y-11240427D01*
X38683075Y-11178713D01*
X38760069Y-11101719D01*
X38860081Y-11062031D01*
X38963269Y-11041394D01*
X39044231Y-11018772D01*
X39071219Y-10979481D01*
X38977556Y-10944556D01*
X38865638Y-10968369D01*
X38794994Y-10992181D01*
X38723556Y-10936619D01*
X38688631Y-10842956D01*
X38744194Y-10779456D01*
X38861669Y-10738975D01*
X38975969Y-10725481D01*
X39099984Y-10735514D01*
G37*
G36*
X33344842Y-10737211D02*
G01*
X33452527Y-10777163D01*
X33545925Y-10843750D01*
X33617803Y-10932562D01*
X33660931Y-11039189D01*
X33675306Y-11163631D01*
X33664194Y-11266113D01*
X33630856Y-11361892D01*
X33575294Y-11450969D01*
X33514373Y-11511095D01*
X33433213Y-11558125D01*
X33335383Y-11588486D01*
X33224456Y-11598606D01*
X33076521Y-11589776D01*
X32970853Y-11563284D01*
X32907452Y-11519132D01*
X32886319Y-11457319D01*
X32906956Y-11384294D01*
X32994269Y-11312856D01*
X33057769Y-11330319D01*
X33075231Y-11336669D01*
X33137541Y-11350956D01*
X33219694Y-11355719D01*
X33324469Y-11325556D01*
X33376856Y-11250944D01*
X33180006Y-11250944D01*
X33000619Y-11250944D01*
X32893462Y-11204113D01*
X32857148Y-11144581D01*
X32845044Y-11059650D01*
X32845615Y-11055681D01*
X33119681Y-11055681D01*
X33180006Y-11106481D01*
X33380031Y-11106481D01*
X33329231Y-11016788D01*
X33226837Y-10974719D01*
X33147462Y-10996944D01*
X33119681Y-11055681D01*
X32845615Y-11055681D01*
X32858538Y-10965789D01*
X32899019Y-10879469D01*
X32957955Y-10811405D01*
X33031575Y-10762787D01*
X33119880Y-10733617D01*
X33222869Y-10723894D01*
X33344842Y-10737211D01*
G37*
G36*
X41267128Y-10767947D02*
G01*
X41349281Y-10852481D01*
X41376269Y-10769931D01*
X41492156Y-10741356D01*
X41564784Y-10752072D01*
X41604869Y-10784219D01*
X41619950Y-10824700D01*
X41622331Y-10879469D01*
X41622331Y-11438269D01*
X41619950Y-11493831D01*
X41606456Y-11535106D01*
X41564784Y-11567253D01*
X41484219Y-11577969D01*
X41403256Y-11567650D01*
X41360394Y-11536694D01*
X41345313Y-11494625D01*
X41342931Y-11439856D01*
X41342931Y-11158869D01*
X41319119Y-11055284D01*
X41247681Y-11020756D01*
X41173863Y-11055284D01*
X41149256Y-11158869D01*
X41149256Y-11436681D01*
X41146875Y-11491450D01*
X41133381Y-11533519D01*
X41091709Y-11566856D01*
X41011144Y-11577969D01*
X40929388Y-11567253D01*
X40887319Y-11535106D01*
X40872238Y-11493831D01*
X40869856Y-11438269D01*
X40869856Y-11160456D01*
X40850013Y-11057269D01*
X40774606Y-11020756D01*
X40700788Y-11055284D01*
X40676181Y-11158869D01*
X40676181Y-11436681D01*
X40673800Y-11491450D01*
X40660306Y-11533519D01*
X40618634Y-11566856D01*
X40538069Y-11577969D01*
X40456709Y-11567253D01*
X40415831Y-11535106D01*
X40400750Y-11493038D01*
X40398369Y-11438269D01*
X40398369Y-11160456D01*
X40407894Y-11024372D01*
X40436469Y-10916687D01*
X40484094Y-10837400D01*
X40580138Y-10764177D01*
X40696819Y-10739769D01*
X40807944Y-10770725D01*
X40886525Y-10827875D01*
X40928594Y-10877881D01*
X40990683Y-10801152D01*
X41071116Y-10755115D01*
X41169894Y-10739769D01*
X41267128Y-10767947D01*
G37*
G36*
X35998216Y-10767947D02*
G01*
X36080369Y-10852481D01*
X36107356Y-10769931D01*
X36223244Y-10741356D01*
X36295872Y-10752072D01*
X36335956Y-10784219D01*
X36351037Y-10824700D01*
X36353419Y-10879469D01*
X36353419Y-11438269D01*
X36351037Y-11493831D01*
X36337544Y-11535106D01*
X36295872Y-11567253D01*
X36215306Y-11577969D01*
X36134344Y-11567650D01*
X36091481Y-11536694D01*
X36076400Y-11494625D01*
X36074019Y-11439856D01*
X36074019Y-11158869D01*
X36050206Y-11055284D01*
X35978769Y-11020756D01*
X35904950Y-11055284D01*
X35880344Y-11158869D01*
X35880344Y-11436681D01*
X35877963Y-11491450D01*
X35864469Y-11533519D01*
X35822797Y-11566856D01*
X35742231Y-11577969D01*
X35660475Y-11567253D01*
X35618406Y-11535106D01*
X35603325Y-11493831D01*
X35600944Y-11438269D01*
X35600944Y-11160456D01*
X35581100Y-11057269D01*
X35505694Y-11020756D01*
X35431875Y-11055284D01*
X35407269Y-11158869D01*
X35407269Y-11436681D01*
X35404887Y-11491450D01*
X35391394Y-11533519D01*
X35349722Y-11566856D01*
X35269156Y-11577969D01*
X35187797Y-11567253D01*
X35146919Y-11535106D01*
X35131838Y-11493038D01*
X35129456Y-11438269D01*
X35129456Y-11160456D01*
X35138981Y-11024372D01*
X35167556Y-10916687D01*
X35215181Y-10837400D01*
X35311225Y-10764177D01*
X35427906Y-10739769D01*
X35539031Y-10770725D01*
X35617613Y-10827875D01*
X35659681Y-10877881D01*
X35721770Y-10801152D01*
X35802203Y-10755115D01*
X35900981Y-10739769D01*
X35998216Y-10767947D01*
G37*
G36*
X34647253Y-10767947D02*
G01*
X34729406Y-10852481D01*
X34756394Y-10769931D01*
X34872281Y-10741356D01*
X34944909Y-10752072D01*
X34984994Y-10784219D01*
X35000075Y-10824700D01*
X35002456Y-10879469D01*
X35002456Y-11438269D01*
X35000075Y-11493831D01*
X34986581Y-11535106D01*
X34944909Y-11567253D01*
X34864344Y-11577969D01*
X34783381Y-11567650D01*
X34740519Y-11536694D01*
X34725437Y-11494625D01*
X34723056Y-11439856D01*
X34723056Y-11158869D01*
X34699244Y-11055284D01*
X34627806Y-11020756D01*
X34553988Y-11055284D01*
X34529381Y-11158869D01*
X34529381Y-11436681D01*
X34527000Y-11491450D01*
X34513506Y-11533519D01*
X34471834Y-11566856D01*
X34391269Y-11577969D01*
X34309512Y-11567253D01*
X34267444Y-11535106D01*
X34252362Y-11493831D01*
X34249981Y-11438269D01*
X34249981Y-11160456D01*
X34230137Y-11057269D01*
X34154731Y-11020756D01*
X34080912Y-11055284D01*
X34056306Y-11158869D01*
X34056306Y-11436681D01*
X34053925Y-11491450D01*
X34040431Y-11533519D01*
X33998759Y-11566856D01*
X33918194Y-11577969D01*
X33836834Y-11567253D01*
X33795956Y-11535106D01*
X33780875Y-11493038D01*
X33778494Y-11438269D01*
X33778494Y-11160456D01*
X33788019Y-11024372D01*
X33816594Y-10916687D01*
X33864219Y-10837400D01*
X33960262Y-10764177D01*
X34076944Y-10739769D01*
X34188069Y-10770725D01*
X34266650Y-10827875D01*
X34308719Y-10877881D01*
X34370808Y-10801152D01*
X34451241Y-10755115D01*
X34550019Y-10739769D01*
X34647253Y-10767947D01*
G37*
G36*
X45180183Y-10525544D02*
G01*
X45282842Y-10549622D01*
X45382325Y-10589750D01*
X45474135Y-10646194D01*
X45553775Y-10719219D01*
X45621244Y-10808825D01*
X45672397Y-10911924D01*
X45703088Y-11025431D01*
X45713319Y-11149344D01*
X45703198Y-11287208D01*
X45672838Y-11410289D01*
X45622236Y-11518586D01*
X45551394Y-11612100D01*
X45463089Y-11687457D01*
X45360100Y-11741283D01*
X45242427Y-11773579D01*
X45110069Y-11784344D01*
X45041806Y-11771644D01*
X45017200Y-11742275D01*
X45010056Y-11671631D01*
X45025138Y-11604163D01*
X45078319Y-11585906D01*
X45108481Y-11585906D01*
X45235040Y-11572677D01*
X45337434Y-11532990D01*
X45415663Y-11466844D01*
X45470784Y-11378473D01*
X45503857Y-11272110D01*
X45514881Y-11147756D01*
X45500682Y-11023667D01*
X45458084Y-10918098D01*
X45387088Y-10831050D01*
X45293249Y-10766227D01*
X45182124Y-10727333D01*
X45053713Y-10714369D01*
X44923273Y-10725305D01*
X44806063Y-10758113D01*
X44702081Y-10812794D01*
X44638184Y-10870738D01*
X44589369Y-10946144D01*
X44558413Y-11040997D01*
X44548094Y-11157281D01*
X44562381Y-11271581D01*
X44605244Y-11360481D01*
X44660013Y-11412075D01*
X44714781Y-11438269D01*
X44763994Y-11444619D01*
X44801300Y-11437475D01*
X44813206Y-11411281D01*
X44802094Y-11327144D01*
X44775106Y-11123944D01*
X44981481Y-11123944D01*
X45018788Y-11193000D01*
X45092606Y-11223956D01*
X45159281Y-11197763D01*
X45184681Y-11135056D01*
X45184681Y-11123944D01*
X45148169Y-11053300D01*
X45071969Y-11022344D01*
X45004500Y-11050125D01*
X44981481Y-11114419D01*
X44981481Y-11123944D01*
X44775106Y-11123944D01*
X44748119Y-10920744D01*
X44744944Y-10873913D01*
X44764788Y-10835813D01*
X44837813Y-10819144D01*
X44914013Y-10835813D01*
X44944969Y-10884231D01*
X44997952Y-10836606D01*
X45080700Y-10820731D01*
X45180117Y-10845139D01*
X45283106Y-10918363D01*
X45341315Y-10988301D01*
X45376240Y-11067940D01*
X45387881Y-11157281D01*
X45369823Y-11260270D01*
X45315650Y-11346988D01*
X45238458Y-11405923D01*
X45151344Y-11425569D01*
X45092606Y-11415354D01*
X45069191Y-11411281D01*
X45006881Y-11368419D01*
X45010056Y-11406519D01*
X44992594Y-11504547D01*
X44940206Y-11579556D01*
X44861625Y-11627181D01*
X44765581Y-11643056D01*
X44667862Y-11630003D01*
X44575787Y-11590845D01*
X44489356Y-11525581D01*
X44433397Y-11458708D01*
X44389344Y-11372388D01*
X44360769Y-11265628D01*
X44351244Y-11137438D01*
X44357506Y-11046421D01*
X44376291Y-10958579D01*
X44407600Y-10873913D01*
X44474473Y-10761200D01*
X44562381Y-10672300D01*
X44667752Y-10604831D01*
X44787013Y-10556412D01*
X44875031Y-10534805D01*
X44970810Y-10521840D01*
X45074350Y-10517519D01*
X45180183Y-10525544D01*
G37*
%TD*%
%LPC*%
D10*
%TO.C,REF\u002A\u002A*%
X1537700Y-26035000D03*
X2020974Y-24868274D03*
X2020974Y-27201726D03*
X3187700Y-24385000D03*
D11*
X3187700Y-26035000D03*
D10*
X3187700Y-27685000D03*
X4354426Y-24868274D03*
X4354426Y-27201726D03*
X4837700Y-26035000D03*
%TD*%
%TO.C,REF\u002A\u002A*%
X49162700Y-26035000D03*
X49645974Y-24868274D03*
X49645974Y-27201726D03*
X50812700Y-24385000D03*
D11*
X50812700Y-26035000D03*
D10*
X50812700Y-27685000D03*
X51979426Y-24868274D03*
X51979426Y-27201726D03*
X52462700Y-26035000D03*
%TD*%
%TO.C,REF\u002A\u002A*%
X1537700Y-3175000D03*
X2020974Y-2008274D03*
X2020974Y-4341726D03*
X3187700Y-1525000D03*
D11*
X3187700Y-3175000D03*
D10*
X3187700Y-4825000D03*
X4354426Y-2008274D03*
X4354426Y-4341726D03*
X4837700Y-3175000D03*
%TD*%
%TO.C,REF\u002A\u002A*%
X49162700Y-3175000D03*
X49645974Y-2008274D03*
X49645974Y-4341726D03*
X50812700Y-1525000D03*
D11*
X50812700Y-3175000D03*
D10*
X50812700Y-4825000D03*
X51979426Y-2008274D03*
X51979426Y-4341726D03*
X52462700Y-3175000D03*
%TD*%
%LPD*%
M02*
