%TF.GenerationSoftware,KiCad,Pcbnew,7.0.1-0*%
%TF.CreationDate,2023-06-23T16:28:58+02:00*%
%TF.ProjectId,io_expander,696f5f65-7870-4616-9e64-65722e6b6963,1.0*%
%TF.SameCoordinates,PX3c8eee0PY3c8eee0*%
%TF.FileFunction,Legend,Top*%
%TF.FilePolarity,Positive*%
%FSLAX46Y46*%
G04 Gerber Fmt 4.6, Leading zero omitted, Abs format (unit mm)*
G04 Created by KiCad (PCBNEW 7.0.1-0) date 2023-06-23 16:28:58*
%MOMM*%
%LPD*%
G01*
G04 APERTURE LIST*
G04 Aperture macros list*
%AMRoundRect*
0 Rectangle with rounded corners*
0 $1 Rounding radius*
0 $2 $3 $4 $5 $6 $7 $8 $9 X,Y pos of 4 corners*
0 Add a 4 corners polygon primitive as box body*
4,1,4,$2,$3,$4,$5,$6,$7,$8,$9,$2,$3,0*
0 Add four circle primitives for the rounded corners*
1,1,$1+$1,$2,$3*
1,1,$1+$1,$4,$5*
1,1,$1+$1,$6,$7*
1,1,$1+$1,$8,$9*
0 Add four rect primitives between the rounded corners*
20,1,$1+$1,$2,$3,$4,$5,0*
20,1,$1+$1,$4,$5,$6,$7,0*
20,1,$1+$1,$6,$7,$8,$9,0*
20,1,$1+$1,$8,$9,$2,$3,0*%
%AMFreePoly0*
4,1,6,1.000000,0.000000,0.500000,-0.750000,-0.500000,-0.750000,-0.500000,0.750000,0.500000,0.750000,1.000000,0.000000,1.000000,0.000000,$1*%
%AMFreePoly1*
4,1,6,0.500000,-0.750000,-0.650000,-0.750000,-0.150000,0.000000,-0.650000,0.750000,0.500000,0.750000,0.500000,-0.750000,0.500000,-0.750000,$1*%
G04 Aperture macros list end*
%ADD10C,0.150000*%
%ADD11C,0.120000*%
%ADD12C,0.700000*%
%ADD13C,4.400000*%
%ADD14FreePoly0,180.000000*%
%ADD15FreePoly1,180.000000*%
%ADD16RoundRect,0.100000X-0.637500X-0.100000X0.637500X-0.100000X0.637500X0.100000X-0.637500X0.100000X0*%
%ADD17C,1.000000*%
%ADD18R,1.700000X1.000000*%
%ADD19RoundRect,0.200000X0.200000X0.275000X-0.200000X0.275000X-0.200000X-0.275000X0.200000X-0.275000X0*%
%ADD20RoundRect,0.150000X0.625000X-0.150000X0.625000X0.150000X-0.625000X0.150000X-0.625000X-0.150000X0*%
%ADD21RoundRect,0.250000X0.650000X-0.350000X0.650000X0.350000X-0.650000X0.350000X-0.650000X-0.350000X0*%
%ADD22RoundRect,0.150000X-0.625000X0.150000X-0.625000X-0.150000X0.625000X-0.150000X0.625000X0.150000X0*%
%ADD23RoundRect,0.250000X-0.650000X0.350000X-0.650000X-0.350000X0.650000X-0.350000X0.650000X0.350000X0*%
%ADD24RoundRect,0.218750X0.218750X0.256250X-0.218750X0.256250X-0.218750X-0.256250X0.218750X-0.256250X0*%
G04 APERTURE END LIST*
D10*
%TO.C,JP3*%
X25003214Y-4626904D02*
X25479404Y-4626904D01*
X24907976Y-4912619D02*
X25241309Y-3912619D01*
X25241309Y-3912619D02*
X25574642Y-4912619D01*
X25860357Y-4007857D02*
X25907976Y-3960238D01*
X25907976Y-3960238D02*
X26003214Y-3912619D01*
X26003214Y-3912619D02*
X26241309Y-3912619D01*
X26241309Y-3912619D02*
X26336547Y-3960238D01*
X26336547Y-3960238D02*
X26384166Y-4007857D01*
X26384166Y-4007857D02*
X26431785Y-4103095D01*
X26431785Y-4103095D02*
X26431785Y-4198333D01*
X26431785Y-4198333D02*
X26384166Y-4341190D01*
X26384166Y-4341190D02*
X25812738Y-4912619D01*
X25812738Y-4912619D02*
X26431785Y-4912619D01*
%TO.C,JP2*%
X19923214Y-4626904D02*
X20399404Y-4626904D01*
X19827976Y-4912619D02*
X20161309Y-3912619D01*
X20161309Y-3912619D02*
X20494642Y-4912619D01*
X21351785Y-4912619D02*
X20780357Y-4912619D01*
X21066071Y-4912619D02*
X21066071Y-3912619D01*
X21066071Y-3912619D02*
X20970833Y-4055476D01*
X20970833Y-4055476D02*
X20875595Y-4150714D01*
X20875595Y-4150714D02*
X20780357Y-4198333D01*
%TO.C,JP1*%
X14843214Y-4626904D02*
X15319404Y-4626904D01*
X14747976Y-4912619D02*
X15081309Y-3912619D01*
X15081309Y-3912619D02*
X15414642Y-4912619D01*
X15938452Y-3912619D02*
X16033690Y-3912619D01*
X16033690Y-3912619D02*
X16128928Y-3960238D01*
X16128928Y-3960238D02*
X16176547Y-4007857D01*
X16176547Y-4007857D02*
X16224166Y-4103095D01*
X16224166Y-4103095D02*
X16271785Y-4293571D01*
X16271785Y-4293571D02*
X16271785Y-4531666D01*
X16271785Y-4531666D02*
X16224166Y-4722142D01*
X16224166Y-4722142D02*
X16176547Y-4817380D01*
X16176547Y-4817380D02*
X16128928Y-4865000D01*
X16128928Y-4865000D02*
X16033690Y-4912619D01*
X16033690Y-4912619D02*
X15938452Y-4912619D01*
X15938452Y-4912619D02*
X15843214Y-4865000D01*
X15843214Y-4865000D02*
X15795595Y-4817380D01*
X15795595Y-4817380D02*
X15747976Y-4722142D01*
X15747976Y-4722142D02*
X15700357Y-4531666D01*
X15700357Y-4531666D02*
X15700357Y-4293571D01*
X15700357Y-4293571D02*
X15747976Y-4103095D01*
X15747976Y-4103095D02*
X15795595Y-4007857D01*
X15795595Y-4007857D02*
X15843214Y-3960238D01*
X15843214Y-3960238D02*
X15938452Y-3912619D01*
%TO.C,U1*%
X31539252Y-3374219D02*
X32110680Y-3374219D01*
X31824966Y-4374219D02*
X31824966Y-3374219D01*
X33015442Y-4278980D02*
X32967823Y-4326600D01*
X32967823Y-4326600D02*
X32824966Y-4374219D01*
X32824966Y-4374219D02*
X32729728Y-4374219D01*
X32729728Y-4374219D02*
X32586871Y-4326600D01*
X32586871Y-4326600D02*
X32491633Y-4231361D01*
X32491633Y-4231361D02*
X32444014Y-4136123D01*
X32444014Y-4136123D02*
X32396395Y-3945647D01*
X32396395Y-3945647D02*
X32396395Y-3802790D01*
X32396395Y-3802790D02*
X32444014Y-3612314D01*
X32444014Y-3612314D02*
X32491633Y-3517076D01*
X32491633Y-3517076D02*
X32586871Y-3421838D01*
X32586871Y-3421838D02*
X32729728Y-3374219D01*
X32729728Y-3374219D02*
X32824966Y-3374219D01*
X32824966Y-3374219D02*
X32967823Y-3421838D01*
X32967823Y-3421838D02*
X33015442Y-3469457D01*
X33396395Y-4088504D02*
X33872585Y-4088504D01*
X33301157Y-4374219D02*
X33634490Y-3374219D01*
X33634490Y-3374219D02*
X33967823Y-4374219D01*
X34348776Y-4374219D02*
X34539252Y-4374219D01*
X34539252Y-4374219D02*
X34634490Y-4326600D01*
X34634490Y-4326600D02*
X34682109Y-4278980D01*
X34682109Y-4278980D02*
X34777347Y-4136123D01*
X34777347Y-4136123D02*
X34824966Y-3945647D01*
X34824966Y-3945647D02*
X34824966Y-3564695D01*
X34824966Y-3564695D02*
X34777347Y-3469457D01*
X34777347Y-3469457D02*
X34729728Y-3421838D01*
X34729728Y-3421838D02*
X34634490Y-3374219D01*
X34634490Y-3374219D02*
X34444014Y-3374219D01*
X34444014Y-3374219D02*
X34348776Y-3421838D01*
X34348776Y-3421838D02*
X34301157Y-3469457D01*
X34301157Y-3469457D02*
X34253538Y-3564695D01*
X34253538Y-3564695D02*
X34253538Y-3802790D01*
X34253538Y-3802790D02*
X34301157Y-3898028D01*
X34301157Y-3898028D02*
X34348776Y-3945647D01*
X34348776Y-3945647D02*
X34444014Y-3993266D01*
X34444014Y-3993266D02*
X34634490Y-3993266D01*
X34634490Y-3993266D02*
X34729728Y-3945647D01*
X34729728Y-3945647D02*
X34777347Y-3898028D01*
X34777347Y-3898028D02*
X34824966Y-3802790D01*
X35729728Y-3374219D02*
X35253538Y-3374219D01*
X35253538Y-3374219D02*
X35205919Y-3850409D01*
X35205919Y-3850409D02*
X35253538Y-3802790D01*
X35253538Y-3802790D02*
X35348776Y-3755171D01*
X35348776Y-3755171D02*
X35586871Y-3755171D01*
X35586871Y-3755171D02*
X35682109Y-3802790D01*
X35682109Y-3802790D02*
X35729728Y-3850409D01*
X35729728Y-3850409D02*
X35777347Y-3945647D01*
X35777347Y-3945647D02*
X35777347Y-4183742D01*
X35777347Y-4183742D02*
X35729728Y-4278980D01*
X35729728Y-4278980D02*
X35682109Y-4326600D01*
X35682109Y-4326600D02*
X35586871Y-4374219D01*
X35586871Y-4374219D02*
X35348776Y-4374219D01*
X35348776Y-4374219D02*
X35253538Y-4326600D01*
X35253538Y-4326600D02*
X35205919Y-4278980D01*
X36110681Y-3374219D02*
X36729728Y-3374219D01*
X36729728Y-3374219D02*
X36396395Y-3755171D01*
X36396395Y-3755171D02*
X36539252Y-3755171D01*
X36539252Y-3755171D02*
X36634490Y-3802790D01*
X36634490Y-3802790D02*
X36682109Y-3850409D01*
X36682109Y-3850409D02*
X36729728Y-3945647D01*
X36729728Y-3945647D02*
X36729728Y-4183742D01*
X36729728Y-4183742D02*
X36682109Y-4278980D01*
X36682109Y-4278980D02*
X36634490Y-4326600D01*
X36634490Y-4326600D02*
X36539252Y-4374219D01*
X36539252Y-4374219D02*
X36253538Y-4374219D01*
X36253538Y-4374219D02*
X36158300Y-4326600D01*
X36158300Y-4326600D02*
X36110681Y-4278980D01*
X37586871Y-3707552D02*
X37586871Y-4374219D01*
X37348776Y-3326600D02*
X37110681Y-4040885D01*
X37110681Y-4040885D02*
X37729728Y-4040885D01*
%TO.C,TP1*%
X41322738Y-8971619D02*
X41322738Y-7971619D01*
X41798928Y-8971619D02*
X41798928Y-7971619D01*
X41798928Y-7971619D02*
X42370356Y-8971619D01*
X42370356Y-8971619D02*
X42370356Y-7971619D01*
X42703690Y-7971619D02*
X43275118Y-7971619D01*
X42989404Y-8971619D02*
X42989404Y-7971619D01*
%TO.C,kibuzzard-6495A825*%
G36*
X15428144Y-10958810D02*
G01*
X15267484Y-10909697D01*
X15120367Y-10827841D01*
X14986794Y-10713244D01*
X14875842Y-10576024D01*
X14796591Y-10426303D01*
X14749041Y-10264080D01*
X14733191Y-10089356D01*
X14734302Y-10077450D01*
X15154672Y-10077450D01*
X15169885Y-10209874D01*
X15215526Y-10324571D01*
X15291594Y-10421541D01*
X15436552Y-10520660D01*
X15597584Y-10553700D01*
X15758319Y-10521553D01*
X15902384Y-10425112D01*
X15977791Y-10329598D01*
X16023034Y-10214504D01*
X16038116Y-10079831D01*
X16022902Y-9944894D01*
X15977261Y-9829006D01*
X15901194Y-9732169D01*
X15756235Y-9633942D01*
X15595203Y-9601200D01*
X15434469Y-9634240D01*
X15290403Y-9733359D01*
X15214997Y-9830329D01*
X15169753Y-9945026D01*
X15154672Y-10077450D01*
X14734302Y-10077450D01*
X14751050Y-9897963D01*
X14804628Y-9719072D01*
X14887972Y-9560421D01*
X14995128Y-9429750D01*
X15123120Y-9325570D01*
X15268972Y-9246394D01*
X15426134Y-9196387D01*
X15588059Y-9179719D01*
X15758468Y-9195643D01*
X15917267Y-9243417D01*
X16064458Y-9323040D01*
X16200041Y-9434512D01*
X16313596Y-9569574D01*
X16394708Y-9719965D01*
X16443375Y-9885685D01*
X16459597Y-10066734D01*
X16444119Y-10248454D01*
X16397684Y-10416183D01*
X16320294Y-10569922D01*
X16211947Y-10709672D01*
X16080978Y-10825832D01*
X15935722Y-10908804D01*
X15776178Y-10958587D01*
X15602347Y-10975181D01*
X15597584Y-10974734D01*
X15428144Y-10958810D01*
G37*
G36*
X11671796Y-9193113D02*
G01*
X11786394Y-9219009D01*
X11961416Y-9289256D01*
X12018566Y-9322594D01*
X12085241Y-9365456D01*
X12147153Y-9478566D01*
X12097147Y-9610725D01*
X12009041Y-9707166D01*
X11930459Y-9739312D01*
X11809016Y-9686925D01*
X11692334Y-9626203D01*
X11542316Y-9605962D01*
X11388725Y-9632752D01*
X11237516Y-9713119D01*
X11118453Y-9860756D01*
X11082734Y-9962257D01*
X11070828Y-10076259D01*
X11082734Y-10190262D01*
X11118453Y-10291762D01*
X11239897Y-10441781D01*
X11388130Y-10520363D01*
X11542316Y-10546556D01*
X11681619Y-10527506D01*
X11775678Y-10489406D01*
X11818541Y-10458450D01*
X11932841Y-10410825D01*
X12009636Y-10444162D01*
X12092384Y-10544175D01*
X12144772Y-10677525D01*
X12112625Y-10760869D01*
X12037616Y-10820400D01*
X11955462Y-10870406D01*
X11794728Y-10932319D01*
X11675368Y-10960894D01*
X11560175Y-10970419D01*
X11446470Y-10962977D01*
X11331575Y-10940653D01*
X11214298Y-10900767D01*
X11093450Y-10840641D01*
X10977066Y-10762655D01*
X10873184Y-10669191D01*
X10784185Y-10553700D01*
X10712450Y-10409634D01*
X10665123Y-10244435D01*
X10649347Y-10065544D01*
X10664825Y-9888438D01*
X10711259Y-9728597D01*
X10781804Y-9590484D01*
X10869612Y-9478566D01*
X10972899Y-9387780D01*
X11089878Y-9313069D01*
X11245718Y-9241631D01*
X11402086Y-9198769D01*
X11558984Y-9184481D01*
X11671796Y-9193113D01*
G37*
G36*
X14509353Y-9122569D02*
G01*
X14605794Y-9187458D01*
X14637941Y-9258300D01*
X14604603Y-9377362D01*
X13840222Y-10965656D01*
X13810456Y-11025188D01*
X13774737Y-11062097D01*
X13709253Y-11079956D01*
X13590191Y-11044238D01*
X13484225Y-10981134D01*
X13456841Y-10920413D01*
X13485416Y-10801350D01*
X14252178Y-9198769D01*
X14333141Y-9093994D01*
X14389100Y-9084469D01*
X14509353Y-9122569D01*
G37*
G36*
X10020168Y-9197049D02*
G01*
X10175346Y-9263327D01*
X10306447Y-9373791D01*
X10405666Y-9512565D01*
X10465197Y-9663774D01*
X10485041Y-9827419D01*
X10470158Y-9959578D01*
X10425509Y-10084594D01*
X10360025Y-10194131D01*
X10282634Y-10279856D01*
X10115947Y-10411420D01*
X9968309Y-10491787D01*
X9908778Y-10515600D01*
X9908778Y-10527506D01*
X10344547Y-10527506D01*
X10483850Y-10550128D01*
X10539809Y-10619184D01*
X10554097Y-10740628D01*
X10538619Y-10860881D01*
X10487422Y-10922794D01*
X10339784Y-10951369D01*
X9408716Y-10951369D01*
X9261078Y-10887075D01*
X9199166Y-10737056D01*
X9221490Y-10613529D01*
X9288462Y-10500122D01*
X9386987Y-10399514D01*
X9503966Y-10314384D01*
X9630172Y-10237589D01*
X9756378Y-10161984D01*
X9873357Y-10081915D01*
X9971881Y-9991725D01*
X10038854Y-9893498D01*
X10061178Y-9789319D01*
X10044509Y-9728597D01*
X10007600Y-9664303D01*
X9944497Y-9617869D01*
X9825434Y-9596437D01*
X9693275Y-9652397D01*
X9630172Y-9763125D01*
X9620647Y-9817894D01*
X9620647Y-9832181D01*
X9617075Y-9910763D01*
X9594453Y-9970294D01*
X9530159Y-10013156D01*
X9408716Y-10027444D01*
X9275961Y-10004822D01*
X9211072Y-9936956D01*
X9199166Y-9815512D01*
X9218877Y-9656101D01*
X9278011Y-9508067D01*
X9376569Y-9371409D01*
X9507008Y-9262269D01*
X9661790Y-9196784D01*
X9840912Y-9174956D01*
X10020168Y-9197049D01*
G37*
G36*
X24877316Y-10941844D02*
G01*
X24738674Y-10921074D01*
X24608499Y-10858765D01*
X24486791Y-10754916D01*
X24388895Y-10623418D01*
X24330157Y-10478161D01*
X24310725Y-10320337D01*
X24727297Y-10320337D01*
X24789209Y-10463212D01*
X24939228Y-10527506D01*
X25085675Y-10463212D01*
X25144016Y-10321528D01*
X25088056Y-10177463D01*
X24936847Y-10110788D01*
X24784447Y-10176272D01*
X24727297Y-10320337D01*
X24310725Y-10320337D01*
X24310578Y-10319147D01*
X24330290Y-10160000D01*
X24389424Y-10014347D01*
X24487981Y-9882188D01*
X24610086Y-9777677D01*
X24739865Y-9714971D01*
X24877316Y-9694069D01*
X25033883Y-9723834D01*
X25151159Y-9813131D01*
X25151159Y-9313069D01*
X25154731Y-9230916D01*
X25176163Y-9169003D01*
X25239266Y-9120187D01*
X25359519Y-9105900D01*
X25479772Y-9120187D01*
X25542875Y-9170194D01*
X25564306Y-9233297D01*
X25567878Y-9315450D01*
X25567878Y-10737056D01*
X25564306Y-10819209D01*
X25541684Y-10879931D01*
X25473521Y-10928152D01*
X25340469Y-10944225D01*
X25211584Y-10915055D01*
X25155922Y-10827544D01*
X25036264Y-10913269D01*
X24939228Y-10930713D01*
X24877316Y-10941844D01*
G37*
G36*
X18453894Y-9204722D02*
G01*
X18516997Y-9227344D01*
X18565217Y-9290447D01*
X18581291Y-9413081D01*
X18559264Y-9545241D01*
X18493184Y-9608344D01*
X18369359Y-9622631D01*
X17638316Y-9622631D01*
X17638316Y-9863137D01*
X18109803Y-9863137D01*
X18191956Y-9866709D01*
X18255059Y-9889331D01*
X18303280Y-9952434D01*
X18319353Y-10075069D01*
X18296731Y-10207228D01*
X18228866Y-10270331D01*
X18105041Y-10284619D01*
X17638316Y-10284619D01*
X17638316Y-10525125D01*
X18371741Y-10525125D01*
X18453894Y-10528697D01*
X18516997Y-10551319D01*
X18565217Y-10614422D01*
X18581291Y-10737056D01*
X18559264Y-10869216D01*
X18493184Y-10932319D01*
X18369359Y-10946606D01*
X17426384Y-10946606D01*
X17294225Y-10923984D01*
X17231122Y-10856119D01*
X17216834Y-10734675D01*
X17216834Y-9410700D01*
X17262078Y-9245203D01*
X17433528Y-9201150D01*
X18371741Y-9201150D01*
X18453894Y-9204722D01*
G37*
G36*
X20608330Y-10885884D02*
G01*
X20493434Y-10803731D01*
X20493434Y-11284744D01*
X20489863Y-11365706D01*
X20468431Y-11426428D01*
X20407709Y-11475244D01*
X20291028Y-11489531D01*
X20173156Y-11475244D01*
X20111244Y-11427619D01*
X20089812Y-11368088D01*
X20086241Y-11287125D01*
X20086241Y-10306050D01*
X20502959Y-10306050D01*
X20558919Y-10445353D01*
X20701794Y-10508456D01*
X20849431Y-10446544D01*
X20910153Y-10306050D01*
X20853003Y-10164366D01*
X20704175Y-10101263D01*
X20557728Y-10165556D01*
X20502959Y-10306050D01*
X20086241Y-10306050D01*
X20086241Y-9896475D01*
X20089812Y-9815512D01*
X20110053Y-9755981D01*
X20166608Y-9707761D01*
X20269597Y-9691688D01*
X20439856Y-9723834D01*
X20491053Y-9817894D01*
X20607437Y-9725025D01*
X20775613Y-9694069D01*
X20902745Y-9714442D01*
X21025379Y-9775560D01*
X21143516Y-9877425D01*
X21240089Y-10006277D01*
X21298032Y-10148358D01*
X21317347Y-10303669D01*
X21298165Y-10458979D01*
X21240618Y-10601060D01*
X21144706Y-10729912D01*
X21027099Y-10831777D01*
X20904465Y-10892896D01*
X20776803Y-10913269D01*
X20701794Y-10901076D01*
X20608330Y-10885884D01*
G37*
G36*
X19869547Y-9758362D02*
G01*
X19955272Y-9904809D01*
X19869547Y-10051256D01*
X19605228Y-10317956D01*
X19869547Y-10584656D01*
X19955272Y-10731103D01*
X19869547Y-10876359D01*
X19724291Y-10960894D01*
X19579034Y-10875169D01*
X19317097Y-10610850D01*
X19052778Y-10875169D01*
X18908712Y-10960894D01*
X18763456Y-10876359D01*
X18676541Y-10731103D01*
X18762266Y-10584656D01*
X19026584Y-10317956D01*
X18762266Y-10051256D01*
X18676541Y-9904809D01*
X18763456Y-9758362D01*
X18908712Y-9672637D01*
X19052778Y-9758362D01*
X19317097Y-10025062D01*
X19579034Y-9758362D01*
X19724291Y-9672637D01*
X19869547Y-9758362D01*
G37*
G36*
X26170334Y-10456069D02*
G01*
X26248916Y-10567988D01*
X26406078Y-10613231D01*
X26529308Y-10606088D01*
X26622772Y-10584656D01*
X26648966Y-10575131D01*
X26744216Y-10548938D01*
X26875184Y-10656094D01*
X26906141Y-10765631D01*
X26874440Y-10858351D01*
X26779339Y-10924580D01*
X26620837Y-10964317D01*
X26398934Y-10977563D01*
X26232545Y-10962382D01*
X26085800Y-10916841D01*
X25964059Y-10846296D01*
X25872678Y-10756106D01*
X25789334Y-10622492D01*
X25739328Y-10478823D01*
X25722659Y-10325100D01*
X25732562Y-10239375D01*
X26165572Y-10239375D01*
X26465609Y-10239375D01*
X26556097Y-10163175D01*
X26514425Y-10075069D01*
X26395363Y-10041731D01*
X26241772Y-10104834D01*
X26165572Y-10239375D01*
X25732562Y-10239375D01*
X25744223Y-10138436D01*
X25808914Y-9978496D01*
X25916731Y-9845278D01*
X26056828Y-9745398D01*
X26218356Y-9685470D01*
X26401316Y-9665494D01*
X26555799Y-9680079D01*
X26688256Y-9723834D01*
X26798687Y-9796760D01*
X26887091Y-9898856D01*
X26947813Y-10028337D01*
X26968053Y-10169128D01*
X26949896Y-10296525D01*
X26895425Y-10385822D01*
X26734691Y-10456069D01*
X26465609Y-10456069D01*
X26170334Y-10456069D01*
G37*
G36*
X8967589Y-9223177D02*
G01*
X9032478Y-9289256D01*
X9044384Y-9413081D01*
X9044384Y-10737056D01*
X9040812Y-10820400D01*
X9018191Y-10882312D01*
X8955087Y-10930533D01*
X8832453Y-10946606D01*
X8700294Y-10923984D01*
X8637191Y-10856119D01*
X8622903Y-10734675D01*
X8622903Y-9410700D01*
X8626475Y-9328547D01*
X8649097Y-9265444D01*
X8712200Y-9217223D01*
X8834834Y-9201150D01*
X8967589Y-9223177D01*
G37*
G36*
X13249077Y-9223177D02*
G01*
X13313966Y-9289256D01*
X13325872Y-9413081D01*
X13325872Y-10737056D01*
X13322300Y-10820400D01*
X13299678Y-10882312D01*
X13236575Y-10930533D01*
X13113941Y-10946606D01*
X12981781Y-10923984D01*
X12918678Y-10856119D01*
X12904391Y-10734675D01*
X12904391Y-9410700D01*
X12907962Y-9328547D01*
X12930584Y-9265444D01*
X12993687Y-9217223D01*
X13116322Y-9201150D01*
X13249077Y-9223177D01*
G37*
G36*
X21994813Y-10941844D02*
G01*
X21860801Y-10920942D01*
X21733404Y-10858235D01*
X21612622Y-10753725D01*
X21514726Y-10621566D01*
X21455989Y-10475912D01*
X21436848Y-10320337D01*
X21853128Y-10320337D01*
X21915041Y-10462022D01*
X22065059Y-10525125D01*
X22211506Y-10460831D01*
X22269847Y-10319147D01*
X22213888Y-10175081D01*
X22063869Y-10108406D01*
X21911469Y-10175081D01*
X21853128Y-10320337D01*
X21436848Y-10320337D01*
X21436409Y-10316766D01*
X21456121Y-10157751D01*
X21515255Y-10012495D01*
X21613813Y-9880997D01*
X21735918Y-9777148D01*
X21865696Y-9714839D01*
X22003147Y-9694069D01*
X22150784Y-9722644D01*
X22243653Y-9776222D01*
X22286516Y-9825037D01*
X22340689Y-9725025D01*
X22474634Y-9691688D01*
X22612747Y-9705975D01*
X22675850Y-9755981D01*
X22697281Y-9819084D01*
X22700853Y-9901238D01*
X22700853Y-10734675D01*
X22697281Y-10816828D01*
X22677041Y-10879931D01*
X22619593Y-10926366D01*
X22513925Y-10941844D01*
X22340094Y-10909697D01*
X22288897Y-10815637D01*
X22171323Y-10910292D01*
X22065059Y-10929287D01*
X21994813Y-10941844D01*
G37*
G36*
X23738946Y-9711928D02*
G01*
X23871105Y-9772650D01*
X23985538Y-9873853D01*
X24073511Y-10004160D01*
X24126296Y-10152195D01*
X24143891Y-10317956D01*
X24143891Y-10737056D01*
X24140319Y-10819209D01*
X24120078Y-10879931D01*
X24056975Y-10928152D01*
X23934341Y-10944225D01*
X23800991Y-10922198D01*
X23739078Y-10856119D01*
X23724791Y-10734675D01*
X23724791Y-10315575D01*
X23668831Y-10163175D01*
X23518812Y-10108406D01*
X23366412Y-10165556D01*
X23308072Y-10315575D01*
X23308072Y-10737056D01*
X23304500Y-10819209D01*
X23281878Y-10879931D01*
X23220561Y-10928152D01*
X23098522Y-10944225D01*
X22977673Y-10928152D01*
X22915166Y-10879931D01*
X22894925Y-10816828D01*
X22891353Y-10734675D01*
X22891353Y-9891713D01*
X22894925Y-9811941D01*
X22917547Y-9751219D01*
X22980055Y-9706570D01*
X23100903Y-9691688D01*
X23218180Y-9705380D01*
X23279497Y-9746456D01*
X23303309Y-9844087D01*
X23346172Y-9796462D01*
X23410466Y-9746456D01*
X23589059Y-9691688D01*
X23738946Y-9711928D01*
G37*
G36*
X27891978Y-9685734D02*
G01*
X27975322Y-9705975D01*
X28050331Y-9754791D01*
X28080097Y-9865519D01*
X28034853Y-10032206D01*
X27903884Y-10122694D01*
X27821731Y-10103644D01*
X27718147Y-10084594D01*
X27597894Y-10129838D01*
X27541934Y-10239375D01*
X27541934Y-10739437D01*
X27538363Y-10821591D01*
X27515741Y-10884694D01*
X27451447Y-10931128D01*
X27330003Y-10946606D01*
X27165697Y-10906125D01*
X27122834Y-10803731D01*
X27122834Y-10734675D01*
X27122834Y-9898856D01*
X27126406Y-9816703D01*
X27146647Y-9755981D01*
X27209750Y-9707761D01*
X27332384Y-9691688D01*
X27448470Y-9705380D01*
X27510978Y-9746456D01*
X27537172Y-9825037D01*
X27571700Y-9784556D01*
X27668141Y-9720263D01*
X27797919Y-9679781D01*
X27891978Y-9685734D01*
G37*
%TO.C,kibuzzard-6495A79F*%
G36*
X23367828Y-17250198D02*
G01*
X23256068Y-17250198D01*
X22743438Y-17250198D01*
X22743438Y-16853535D01*
X23256068Y-16853535D01*
X23263688Y-16919575D01*
X23297343Y-16954817D01*
X23367828Y-16966565D01*
X23433233Y-16957993D01*
X23466888Y-16932275D01*
X23478953Y-16898620D01*
X23480858Y-16854805D01*
X23480858Y-16816705D01*
X24026958Y-16816705D01*
X24075218Y-16892905D01*
X24085378Y-16901795D01*
X24117128Y-16925925D01*
X24183168Y-16959086D01*
X24254288Y-16978983D01*
X24330488Y-16985615D01*
X24416142Y-16975102D01*
X24491919Y-16943564D01*
X24557818Y-16891000D01*
X24608618Y-16823831D01*
X24639098Y-16748478D01*
X24649258Y-16664940D01*
X24638534Y-16581826D01*
X24606360Y-16507742D01*
X24552738Y-16442690D01*
X24485710Y-16392243D01*
X24413320Y-16361974D01*
X24335568Y-16351885D01*
X24291118Y-16354425D01*
X24303818Y-16257905D01*
X24526068Y-16257905D01*
X24567343Y-16256000D01*
X24598458Y-16243935D01*
X24622271Y-16212502D01*
X24630208Y-16151225D01*
X24621636Y-16083915D01*
X24595918Y-16049625D01*
X24562898Y-16037560D01*
X24518448Y-16035655D01*
X24399068Y-16035655D01*
X24206028Y-16034385D01*
X24154593Y-16046450D01*
X24121573Y-16073755D01*
X24103158Y-16108045D01*
X24094268Y-16134715D01*
X24086966Y-16187420D01*
X24067598Y-16330295D01*
X24048548Y-16475392D01*
X24042198Y-16534765D01*
X24056168Y-16565880D01*
X24115223Y-16604615D01*
X24195233Y-16628745D01*
X24264448Y-16599535D01*
X24325408Y-16576675D01*
X24393353Y-16601440D01*
X24423198Y-16668750D01*
X24395893Y-16735425D01*
X24312073Y-16759555D01*
X24232698Y-16732885D01*
X24147608Y-16692245D01*
X24073948Y-16734155D01*
X24026958Y-16816705D01*
X23480858Y-16816705D01*
X23480858Y-16711295D01*
X23639608Y-16711295D01*
X23714115Y-16702264D01*
X23786928Y-16675171D01*
X23858048Y-16630015D01*
X23905356Y-16583819D01*
X23943138Y-16523970D01*
X23967903Y-16453326D01*
X23976158Y-16374745D01*
X23967903Y-16296005D01*
X23943138Y-16224885D01*
X23905356Y-16164560D01*
X23858048Y-16118205D01*
X23787069Y-16073049D01*
X23714679Y-16045956D01*
X23640878Y-16036925D01*
X23369098Y-16036925D01*
X23303693Y-16045498D01*
X23270038Y-16071215D01*
X23257973Y-16104870D01*
X23256068Y-16148685D01*
X23256068Y-16853535D01*
X22743438Y-16853535D01*
X22743438Y-15769802D01*
X23256068Y-15769802D01*
X24649258Y-15769802D01*
X24649364Y-15769802D01*
X24721916Y-15773366D01*
X24793769Y-15784024D01*
X24864232Y-15801674D01*
X24932625Y-15826146D01*
X24998291Y-15857203D01*
X25060596Y-15894548D01*
X25118941Y-15937819D01*
X25172763Y-15986601D01*
X25221545Y-16040423D01*
X25264816Y-16098768D01*
X25302161Y-16161073D01*
X25333218Y-16226738D01*
X25357689Y-16295132D01*
X25375339Y-16365594D01*
X25385998Y-16437448D01*
X25389562Y-16510000D01*
X25385998Y-16582552D01*
X25375339Y-16654406D01*
X25357689Y-16724868D01*
X25333218Y-16793262D01*
X25302161Y-16858927D01*
X25264816Y-16921232D01*
X25221545Y-16979577D01*
X25172763Y-17033399D01*
X25118941Y-17082181D01*
X25060596Y-17125452D01*
X24998291Y-17162797D01*
X24932625Y-17193854D01*
X24864232Y-17218326D01*
X24793769Y-17235976D01*
X24721916Y-17246634D01*
X24649364Y-17250198D01*
X24649258Y-17250198D01*
X24330488Y-17250198D01*
X23367828Y-17250198D01*
G37*
G36*
X23715808Y-16290290D02*
G01*
X23752638Y-16374745D01*
X23715808Y-16458565D01*
X23640878Y-16486505D01*
X23480858Y-16486505D01*
X23480858Y-16261715D01*
X23639608Y-16261715D01*
X23715808Y-16290290D01*
G37*
%TO.C,kibuzzard-6495A798*%
G36*
X34779731Y-17248293D02*
G01*
X34667971Y-17248293D01*
X34155340Y-17248293D01*
X34155340Y-16852900D01*
X34667971Y-16852900D01*
X34675591Y-16918940D01*
X34709246Y-16954182D01*
X34779731Y-16965930D01*
X34845136Y-16957357D01*
X34878791Y-16931640D01*
X34890856Y-16897985D01*
X34892761Y-16854170D01*
X34892761Y-16710660D01*
X35051511Y-16710660D01*
X35126017Y-16701629D01*
X35198831Y-16674536D01*
X35269951Y-16629380D01*
X35295962Y-16603980D01*
X35451561Y-16603980D01*
X35460874Y-16708896D01*
X35488814Y-16800124D01*
X35535381Y-16877665D01*
X35600292Y-16936579D01*
X35683265Y-16971927D01*
X35784301Y-16983710D01*
X35867203Y-16974114D01*
X35941498Y-16945328D01*
X36007186Y-16897350D01*
X36058338Y-16835120D01*
X36089030Y-16763577D01*
X36099261Y-16682720D01*
X36089312Y-16615622D01*
X36059467Y-16553180D01*
X36009726Y-16495395D01*
X35946014Y-16449181D01*
X35874259Y-16421453D01*
X35794461Y-16412210D01*
X35700481Y-16433800D01*
X35706831Y-16416020D01*
X35730326Y-16371570D01*
X35775411Y-16322040D01*
X35852246Y-16278860D01*
X35953211Y-16261080D01*
X36026871Y-16253460D01*
X36052271Y-16236950D01*
X36067511Y-16203930D01*
X36073861Y-16145510D01*
X36066241Y-16084550D01*
X36036396Y-16048355D01*
X35965911Y-16036290D01*
X35874445Y-16042792D01*
X35791057Y-16062300D01*
X35715746Y-16094812D01*
X35648512Y-16140328D01*
X35589356Y-16198850D01*
X35539749Y-16267074D01*
X35501167Y-16341700D01*
X35473608Y-16422726D01*
X35457072Y-16510152D01*
X35451561Y-16603980D01*
X35295962Y-16603980D01*
X35317258Y-16583184D01*
X35355041Y-16523335D01*
X35379806Y-16452691D01*
X35388061Y-16374110D01*
X35379806Y-16295370D01*
X35355041Y-16224250D01*
X35317258Y-16163925D01*
X35269951Y-16117570D01*
X35198972Y-16072414D01*
X35126582Y-16045321D01*
X35052781Y-16036290D01*
X34781001Y-16036290D01*
X34715596Y-16044862D01*
X34681941Y-16070580D01*
X34669876Y-16104235D01*
X34667971Y-16148050D01*
X34667971Y-16852900D01*
X34155340Y-16852900D01*
X34155340Y-15771707D01*
X34667971Y-15771707D01*
X36099261Y-15771707D01*
X36099366Y-15771707D01*
X36171732Y-15775262D01*
X36243400Y-15785893D01*
X36313682Y-15803497D01*
X36381899Y-15827906D01*
X36447395Y-15858883D01*
X36509540Y-15896132D01*
X36567735Y-15939292D01*
X36621419Y-15987948D01*
X36670075Y-16041632D01*
X36713235Y-16099826D01*
X36750483Y-16161971D01*
X36781460Y-16227467D01*
X36805869Y-16295685D01*
X36823474Y-16365966D01*
X36834105Y-16437635D01*
X36837660Y-16510000D01*
X36834105Y-16582365D01*
X36823474Y-16654034D01*
X36805869Y-16724315D01*
X36781460Y-16792533D01*
X36750483Y-16858029D01*
X36713235Y-16920174D01*
X36670075Y-16978368D01*
X36621419Y-17032052D01*
X36567735Y-17080708D01*
X36509540Y-17123868D01*
X36447395Y-17161117D01*
X36381899Y-17192094D01*
X36313682Y-17216503D01*
X36243400Y-17234107D01*
X36171732Y-17244738D01*
X36099366Y-17248293D01*
X36099261Y-17248293D01*
X35784301Y-17248293D01*
X34779731Y-17248293D01*
G37*
G36*
X35127711Y-16289655D02*
G01*
X35164541Y-16374110D01*
X35127711Y-16457930D01*
X35052781Y-16485870D01*
X34892761Y-16485870D01*
X34892761Y-16261080D01*
X35051511Y-16261080D01*
X35127711Y-16289655D01*
G37*
G36*
X35854786Y-16635730D02*
G01*
X35877011Y-16690340D01*
X35852563Y-16754158D01*
X35779221Y-16775430D01*
X35697941Y-16746220D01*
X35685876Y-16718280D01*
X35682701Y-16681450D01*
X35708736Y-16633825D01*
X35783666Y-16610330D01*
X35854786Y-16635730D01*
G37*
%TO.C,kibuzzard-6495A791*%
G36*
X46206873Y-17240038D02*
G01*
X46095113Y-17240038D01*
X45582483Y-17240038D01*
X45582483Y-16861155D01*
X46095113Y-16861155D01*
X46102733Y-16927195D01*
X46136388Y-16962437D01*
X46206873Y-16974185D01*
X46272278Y-16965613D01*
X46305933Y-16939895D01*
X46317998Y-16906240D01*
X46319903Y-16862425D01*
X46319903Y-16718915D01*
X46478653Y-16718915D01*
X46553160Y-16709884D01*
X46625973Y-16682791D01*
X46697093Y-16637635D01*
X46744401Y-16591439D01*
X46782183Y-16531590D01*
X46806948Y-16460946D01*
X46815203Y-16382365D01*
X46806948Y-16303625D01*
X46782183Y-16232505D01*
X46744401Y-16172180D01*
X46729496Y-16157575D01*
X46866003Y-16157575D01*
X46873623Y-16221075D01*
X46904103Y-16257905D01*
X46977763Y-16270605D01*
X47267323Y-16270605D01*
X47239383Y-16328390D01*
X47208586Y-16373792D01*
X47172073Y-16427450D01*
X47132703Y-16487934D01*
X47093333Y-16553815D01*
X47056821Y-16626999D01*
X47026023Y-16709390D01*
X47005068Y-16795274D01*
X46998083Y-16878935D01*
X46999988Y-16921480D01*
X47012053Y-16950055D01*
X47045708Y-16970375D01*
X47109843Y-16975455D01*
X47173978Y-16970375D01*
X47207633Y-16950690D01*
X47220333Y-16922750D01*
X47222873Y-16881475D01*
X47229858Y-16821785D01*
X47250813Y-16753205D01*
X47285738Y-16675735D01*
X47334633Y-16589375D01*
X47381464Y-16514762D01*
X47427978Y-16440785D01*
X47470999Y-16366649D01*
X47507353Y-16291560D01*
X47532118Y-16222186D01*
X47540373Y-16165195D01*
X47532753Y-16094075D01*
X47499098Y-16057880D01*
X47428613Y-16045815D01*
X46971413Y-16045815D01*
X46897753Y-16061055D01*
X46873623Y-16094075D01*
X46866003Y-16157575D01*
X46729496Y-16157575D01*
X46697093Y-16125825D01*
X46626114Y-16080669D01*
X46553724Y-16053576D01*
X46479923Y-16044545D01*
X46208143Y-16044545D01*
X46142738Y-16053117D01*
X46109083Y-16078835D01*
X46097018Y-16112490D01*
X46095113Y-16156305D01*
X46095113Y-16861155D01*
X45582483Y-16861155D01*
X45582483Y-15779962D01*
X46095113Y-15779962D01*
X47540373Y-15779962D01*
X47540479Y-15779962D01*
X47612035Y-15783477D01*
X47682902Y-15793989D01*
X47752398Y-15811397D01*
X47819852Y-15835533D01*
X47884617Y-15866164D01*
X47946066Y-15902995D01*
X48003610Y-15945673D01*
X48056694Y-15993785D01*
X48104806Y-16046869D01*
X48147484Y-16104412D01*
X48184315Y-16165862D01*
X48214946Y-16230626D01*
X48239082Y-16298081D01*
X48256490Y-16367577D01*
X48267002Y-16438444D01*
X48270517Y-16510000D01*
X48267002Y-16581556D01*
X48256490Y-16652423D01*
X48239082Y-16721919D01*
X48214946Y-16789374D01*
X48184315Y-16854138D01*
X48147484Y-16915588D01*
X48104806Y-16973131D01*
X48056694Y-17026215D01*
X48003610Y-17074327D01*
X47946066Y-17117005D01*
X47884617Y-17153836D01*
X47819852Y-17184467D01*
X47752398Y-17208603D01*
X47682902Y-17226011D01*
X47612035Y-17236523D01*
X47540479Y-17240038D01*
X47540373Y-17240038D01*
X47109843Y-17240038D01*
X46206873Y-17240038D01*
G37*
G36*
X46554853Y-16297910D02*
G01*
X46591683Y-16382365D01*
X46554853Y-16466185D01*
X46479923Y-16494125D01*
X46319903Y-16494125D01*
X46319903Y-16269335D01*
X46478653Y-16269335D01*
X46554853Y-16297910D01*
G37*
%TO.C,kibuzzard-6495A762*%
G36*
X11912111Y-17241943D02*
G01*
X11800351Y-17241943D01*
X11287720Y-17241943D01*
X11287720Y-16864330D01*
X11800351Y-16864330D01*
X11807971Y-16930370D01*
X11841626Y-16965612D01*
X11912111Y-16977360D01*
X11977516Y-16968788D01*
X12011171Y-16943070D01*
X12023236Y-16909415D01*
X12025141Y-16865600D01*
X12025141Y-16722090D01*
X12183891Y-16722090D01*
X12258397Y-16713059D01*
X12331211Y-16685966D01*
X12402331Y-16640810D01*
X12437446Y-16606520D01*
X12571241Y-16606520D01*
X12577591Y-16661130D01*
X12612198Y-16697325D01*
X12683001Y-16709390D01*
X13027171Y-16709390D01*
X13027171Y-16864330D01*
X13034791Y-16930370D01*
X13051301Y-16955770D01*
X13084321Y-16971010D01*
X13142741Y-16977360D01*
X13204336Y-16969740D01*
X13241166Y-16938625D01*
X13253231Y-16865600D01*
X13253231Y-16159480D01*
X13251326Y-16115030D01*
X13239261Y-16081375D01*
X13204971Y-16054705D01*
X13140836Y-16046450D01*
X13076066Y-16053435D01*
X13041141Y-16078200D01*
X13029076Y-16109950D01*
X13027171Y-16153130D01*
X13027171Y-16499840D01*
X12820161Y-16499840D01*
X12897631Y-16189960D01*
X12898901Y-16186150D01*
X12907791Y-16132810D01*
X12885566Y-16083915D01*
X12818891Y-16051530D01*
X12760471Y-16042640D01*
X12716656Y-16056610D01*
X12693796Y-16085820D01*
X12680461Y-16130270D01*
X12575051Y-16555720D01*
X12571241Y-16606520D01*
X12437446Y-16606520D01*
X12449638Y-16594614D01*
X12487421Y-16534765D01*
X12512186Y-16464121D01*
X12520441Y-16385540D01*
X12512186Y-16306800D01*
X12487421Y-16235680D01*
X12449638Y-16175355D01*
X12402331Y-16129000D01*
X12331352Y-16083844D01*
X12258962Y-16056751D01*
X12185161Y-16047720D01*
X11913381Y-16047720D01*
X11847976Y-16056293D01*
X11814321Y-16082010D01*
X11802256Y-16115665D01*
X11800351Y-16159480D01*
X11800351Y-16864330D01*
X11287720Y-16864330D01*
X11287720Y-15778057D01*
X11800351Y-15778057D01*
X13253231Y-15778057D01*
X13253336Y-15778057D01*
X13325079Y-15781581D01*
X13396131Y-15792121D01*
X13465808Y-15809574D01*
X13533439Y-15833773D01*
X13598372Y-15864484D01*
X13659982Y-15901411D01*
X13717676Y-15944200D01*
X13770898Y-15992438D01*
X13819136Y-16045660D01*
X13861925Y-16103354D01*
X13898853Y-16164964D01*
X13929564Y-16229897D01*
X13953762Y-16297528D01*
X13971216Y-16367205D01*
X13981755Y-16438257D01*
X13985280Y-16510000D01*
X13981755Y-16581743D01*
X13971216Y-16652795D01*
X13953762Y-16722472D01*
X13929564Y-16790103D01*
X13898853Y-16855036D01*
X13861925Y-16916646D01*
X13819136Y-16974340D01*
X13770898Y-17027562D01*
X13717676Y-17075800D01*
X13659982Y-17118589D01*
X13598372Y-17155516D01*
X13533439Y-17186227D01*
X13465808Y-17210426D01*
X13396131Y-17227879D01*
X13325079Y-17238419D01*
X13253336Y-17241943D01*
X13253231Y-17241943D01*
X13142741Y-17241943D01*
X11912111Y-17241943D01*
G37*
G36*
X12260091Y-16301085D02*
G01*
X12296921Y-16385540D01*
X12260091Y-16469360D01*
X12185161Y-16497300D01*
X12025141Y-16497300D01*
X12025141Y-16272510D01*
X12183891Y-16272510D01*
X12260091Y-16301085D01*
G37*
%TO.C,kibuzzard-6495A748*%
G36*
X43339544Y-28236598D02*
G01*
X43199844Y-28236598D01*
X43199711Y-28236598D01*
X43108399Y-28232112D01*
X43017966Y-28218698D01*
X42929283Y-28196484D01*
X42843204Y-28165684D01*
X42760559Y-28126596D01*
X42682143Y-28079595D01*
X42608712Y-28025135D01*
X42540972Y-27963739D01*
X42479577Y-27895999D01*
X42425116Y-27822568D01*
X42378115Y-27744152D01*
X42377266Y-27742356D01*
X43199844Y-27742356D01*
X43209369Y-27824906D01*
X43251438Y-27868959D01*
X43339544Y-27883644D01*
X43421300Y-27872928D01*
X43463369Y-27840781D01*
X43478450Y-27798713D01*
X43480831Y-27743944D01*
X43480831Y-27564556D01*
X43679269Y-27564556D01*
X43772402Y-27553267D01*
X43810326Y-27539156D01*
X44179331Y-27539156D01*
X44196794Y-27624881D01*
X44199969Y-27640756D01*
X44217431Y-27682031D01*
X44256722Y-27745134D01*
X44301569Y-27794744D01*
X44393291Y-27856480D01*
X44499124Y-27893522D01*
X44619069Y-27905869D01*
X44739895Y-27893610D01*
X44846258Y-27856833D01*
X44938156Y-27795537D01*
X45008712Y-27715369D01*
X45051045Y-27621971D01*
X45065156Y-27515344D01*
X45052059Y-27434381D01*
X45012769Y-27362944D01*
X44962763Y-27311350D01*
X44915931Y-27277219D01*
X44915931Y-27266106D01*
X44984723Y-27216276D01*
X45025998Y-27149337D01*
X45039756Y-27065287D01*
X45027233Y-26975770D01*
X44989662Y-26892426D01*
X44927044Y-26815256D01*
X44842730Y-26753520D01*
X44740072Y-26716478D01*
X44619069Y-26704131D01*
X44540289Y-26709687D01*
X44469050Y-26726356D01*
X44364275Y-26775569D01*
X44298394Y-26838275D01*
X44263469Y-26888281D01*
X44226956Y-26996231D01*
X44246800Y-27052984D01*
X44306331Y-27102594D01*
X44393644Y-27131169D01*
X44453969Y-27111325D01*
X44498419Y-27051794D01*
X44507944Y-27032744D01*
X44549219Y-26994644D01*
X44638913Y-26975594D01*
X44727019Y-27005756D01*
X44758769Y-27069256D01*
X44728606Y-27115691D01*
X44638119Y-27131169D01*
X44555569Y-27139106D01*
X44511516Y-27182366D01*
X44496831Y-27270869D01*
X44507547Y-27352228D01*
X44539694Y-27393106D01*
X44580969Y-27408981D01*
X44653200Y-27412156D01*
X44745275Y-27444700D01*
X44784169Y-27520106D01*
X44744481Y-27597100D01*
X44693681Y-27622698D01*
X44620656Y-27631231D01*
X44553981Y-27621706D01*
X44466669Y-27545506D01*
X44419044Y-27462956D01*
X44334906Y-27447081D01*
X44218225Y-27470100D01*
X44179331Y-27539156D01*
X43810326Y-27539156D01*
X43863419Y-27519401D01*
X43952319Y-27462956D01*
X44011453Y-27405211D01*
X44058681Y-27330400D01*
X44089638Y-27242095D01*
X44099956Y-27143869D01*
X44089638Y-27045444D01*
X44058681Y-26956544D01*
X44011453Y-26881137D01*
X43952319Y-26823194D01*
X43863595Y-26766749D01*
X43773108Y-26732883D01*
X43680856Y-26721594D01*
X43341131Y-26721594D01*
X43259375Y-26732309D01*
X43217306Y-26764456D01*
X43202225Y-26806525D01*
X43199844Y-26861294D01*
X43199844Y-27742356D01*
X42377266Y-27742356D01*
X42339027Y-27661507D01*
X42308228Y-27575429D01*
X42286014Y-27486746D01*
X42272599Y-27396313D01*
X42268114Y-27305000D01*
X42272599Y-27213687D01*
X42286014Y-27123254D01*
X42308228Y-27034571D01*
X42339027Y-26948493D01*
X42378115Y-26865848D01*
X42425116Y-26787432D01*
X42479577Y-26714001D01*
X42540972Y-26646261D01*
X42608712Y-26584865D01*
X42682143Y-26530405D01*
X42760559Y-26483404D01*
X42843204Y-26444316D01*
X42929283Y-26413516D01*
X43017966Y-26391302D01*
X43108399Y-26377888D01*
X43199711Y-26373402D01*
X43199844Y-26373402D01*
X45065156Y-26373402D01*
X45065289Y-26373402D01*
X45156601Y-26377888D01*
X45247034Y-26391302D01*
X45335717Y-26413516D01*
X45421796Y-26444316D01*
X45504441Y-26483404D01*
X45582857Y-26530405D01*
X45656288Y-26584865D01*
X45724028Y-26646261D01*
X45785423Y-26714001D01*
X45839884Y-26787432D01*
X45886885Y-26865848D01*
X45925973Y-26948493D01*
X45956772Y-27034571D01*
X45978986Y-27123254D01*
X45992401Y-27213687D01*
X45996886Y-27305000D01*
X45992401Y-27396313D01*
X45978986Y-27486746D01*
X45956772Y-27575429D01*
X45925973Y-27661507D01*
X45886885Y-27744152D01*
X45839884Y-27822568D01*
X45785423Y-27895999D01*
X45724028Y-27963739D01*
X45656288Y-28025135D01*
X45582857Y-28079595D01*
X45504441Y-28126596D01*
X45421796Y-28165684D01*
X45335717Y-28196484D01*
X45247034Y-28218698D01*
X45156601Y-28232112D01*
X45065289Y-28236598D01*
X45065156Y-28236598D01*
X44619069Y-28236598D01*
X43339544Y-28236598D01*
G37*
G36*
X43774519Y-27038300D02*
G01*
X43820556Y-27143869D01*
X43774519Y-27248644D01*
X43680856Y-27283569D01*
X43480831Y-27283569D01*
X43480831Y-27002581D01*
X43679269Y-27002581D01*
X43774519Y-27038300D01*
G37*
%TO.C,kibuzzard-6495A742*%
G36*
X31900812Y-28227867D02*
G01*
X31761112Y-28227867D01*
X31760980Y-28227867D01*
X31670523Y-28223423D01*
X31580938Y-28210134D01*
X31493086Y-28188128D01*
X31407814Y-28157618D01*
X31325944Y-28118896D01*
X31248263Y-28072336D01*
X31175520Y-28018386D01*
X31108415Y-27957565D01*
X31047595Y-27890460D01*
X30993645Y-27817717D01*
X30953708Y-27751088D01*
X31761112Y-27751088D01*
X31770637Y-27833638D01*
X31812706Y-27877691D01*
X31900812Y-27892375D01*
X31982569Y-27881659D01*
X32024637Y-27849513D01*
X32039719Y-27807444D01*
X32042031Y-27754263D01*
X32740600Y-27754263D01*
X32781875Y-27854275D01*
X32880300Y-27897138D01*
X33501012Y-27897138D01*
X33599437Y-27878088D01*
X33633569Y-27836813D01*
X33643887Y-27756644D01*
X33634362Y-27675681D01*
X33597056Y-27629644D01*
X33504187Y-27614563D01*
X33213675Y-27614563D01*
X33213675Y-27606625D01*
X33253362Y-27590750D01*
X33351787Y-27537172D01*
X33462912Y-27449463D01*
X33514506Y-27392313D01*
X33558162Y-27319288D01*
X33587928Y-27235944D01*
X33597850Y-27147838D01*
X33584621Y-27038741D01*
X33544933Y-26937935D01*
X33478787Y-26845419D01*
X33391387Y-26771776D01*
X33287935Y-26727591D01*
X33168431Y-26712862D01*
X33049016Y-26727415D01*
X32945828Y-26771071D01*
X32858869Y-26843831D01*
X32793164Y-26934936D01*
X32753741Y-27033626D01*
X32740600Y-27139900D01*
X32748537Y-27220863D01*
X32791797Y-27266106D01*
X32880300Y-27281188D01*
X32961262Y-27271663D01*
X33004125Y-27243088D01*
X33019206Y-27203400D01*
X33021587Y-27151013D01*
X33021587Y-27141488D01*
X33027937Y-27104975D01*
X33070006Y-27031156D01*
X33158112Y-26993850D01*
X33237487Y-27008138D01*
X33279556Y-27039094D01*
X33304162Y-27081956D01*
X33315275Y-27122438D01*
X33300392Y-27191891D01*
X33255744Y-27257375D01*
X33190061Y-27317502D01*
X33112075Y-27370881D01*
X33027937Y-27421284D01*
X32943800Y-27472481D01*
X32865814Y-27529234D01*
X32800131Y-27596306D01*
X32755483Y-27671911D01*
X32740600Y-27754263D01*
X32042031Y-27754263D01*
X32042100Y-27752675D01*
X32042100Y-27573288D01*
X32240537Y-27573288D01*
X32333671Y-27561999D01*
X32424687Y-27528132D01*
X32513587Y-27471688D01*
X32572722Y-27413942D01*
X32619950Y-27339131D01*
X32650906Y-27250827D01*
X32661225Y-27152600D01*
X32650906Y-27054175D01*
X32619950Y-26965275D01*
X32572722Y-26889869D01*
X32513587Y-26831925D01*
X32424864Y-26775481D01*
X32334376Y-26741614D01*
X32242125Y-26730325D01*
X31902400Y-26730325D01*
X31820644Y-26741041D01*
X31778575Y-26773188D01*
X31763494Y-26815256D01*
X31761112Y-26870025D01*
X31761112Y-27751088D01*
X30953708Y-27751088D01*
X30947084Y-27740036D01*
X30908363Y-27658166D01*
X30877852Y-27572894D01*
X30855846Y-27485042D01*
X30842557Y-27395457D01*
X30838114Y-27305000D01*
X30842557Y-27214543D01*
X30855846Y-27124958D01*
X30877852Y-27037106D01*
X30908363Y-26951834D01*
X30947084Y-26869964D01*
X30993645Y-26792283D01*
X31047595Y-26719540D01*
X31108415Y-26652435D01*
X31175520Y-26591614D01*
X31248263Y-26537664D01*
X31325944Y-26491104D01*
X31407814Y-26452382D01*
X31493086Y-26421872D01*
X31580938Y-26399866D01*
X31670523Y-26386577D01*
X31760980Y-26382133D01*
X31761112Y-26382133D01*
X33643887Y-26382133D01*
X33644020Y-26382133D01*
X33734477Y-26386577D01*
X33824062Y-26399866D01*
X33911914Y-26421872D01*
X33997186Y-26452382D01*
X34079056Y-26491104D01*
X34156737Y-26537664D01*
X34229480Y-26591614D01*
X34296585Y-26652435D01*
X34357405Y-26719540D01*
X34411355Y-26792283D01*
X34457916Y-26869964D01*
X34496637Y-26951834D01*
X34527148Y-27037106D01*
X34549154Y-27124958D01*
X34562443Y-27214543D01*
X34566886Y-27305000D01*
X34562443Y-27395457D01*
X34549154Y-27485042D01*
X34527148Y-27572894D01*
X34496637Y-27658166D01*
X34457916Y-27740036D01*
X34411355Y-27817717D01*
X34357405Y-27890460D01*
X34296585Y-27957565D01*
X34229480Y-28018386D01*
X34156737Y-28072336D01*
X34079056Y-28118896D01*
X33997186Y-28157618D01*
X33911914Y-28188128D01*
X33824062Y-28210134D01*
X33734477Y-28223423D01*
X33644020Y-28227867D01*
X33643887Y-28227867D01*
X33501012Y-28227867D01*
X31900812Y-28227867D01*
G37*
G36*
X32335787Y-27047031D02*
G01*
X32381825Y-27152600D01*
X32335787Y-27257375D01*
X32242125Y-27292300D01*
X32042100Y-27292300D01*
X32042100Y-27011313D01*
X32240537Y-27011313D01*
X32335787Y-27047031D01*
G37*
%TO.C,kibuzzard-6495A738*%
G36*
X20650994Y-28219929D02*
G01*
X20511294Y-28219929D01*
X20511161Y-28219929D01*
X20421483Y-28215524D01*
X20332668Y-28202349D01*
X20245572Y-28180533D01*
X20161033Y-28150284D01*
X20079867Y-28111895D01*
X20002854Y-28065736D01*
X19930737Y-28012250D01*
X19864209Y-27951953D01*
X19803912Y-27885425D01*
X19750426Y-27813307D01*
X19708375Y-27743150D01*
X20511294Y-27743150D01*
X20520819Y-27825700D01*
X20562887Y-27869753D01*
X20650994Y-27884437D01*
X20732750Y-27873722D01*
X20774819Y-27841575D01*
X20789900Y-27799506D01*
X20792281Y-27744738D01*
X20792281Y-27565350D01*
X20990719Y-27565350D01*
X21083852Y-27554061D01*
X21174869Y-27520194D01*
X21263769Y-27463750D01*
X21322903Y-27406005D01*
X21370131Y-27331194D01*
X21401087Y-27242889D01*
X21411406Y-27144663D01*
X21406080Y-27093862D01*
X21474906Y-27093862D01*
X21524912Y-27192288D01*
X21620956Y-27247850D01*
X21732081Y-27198638D01*
X21752719Y-27179588D01*
X21752719Y-27746325D01*
X21755100Y-27804269D01*
X21770181Y-27847925D01*
X21812647Y-27878881D01*
X21892419Y-27889200D01*
X21974175Y-27878484D01*
X22016244Y-27846337D01*
X22031325Y-27804269D01*
X22033706Y-27749500D01*
X22033706Y-26865262D01*
X22025769Y-26781125D01*
X22003544Y-26746994D01*
X21962269Y-26728738D01*
X21886862Y-26720800D01*
X21797169Y-26762075D01*
X21792406Y-26765250D01*
X21532056Y-27000200D01*
X21474906Y-27093862D01*
X21406080Y-27093862D01*
X21401087Y-27046238D01*
X21370131Y-26957337D01*
X21322903Y-26881931D01*
X21263769Y-26823987D01*
X21175045Y-26767543D01*
X21084558Y-26733676D01*
X20992306Y-26722388D01*
X20652581Y-26722388D01*
X20570825Y-26733103D01*
X20528756Y-26765250D01*
X20513675Y-26807319D01*
X20511294Y-26862087D01*
X20511294Y-27743150D01*
X19708375Y-27743150D01*
X19704266Y-27736295D01*
X19665877Y-27655128D01*
X19635629Y-27570590D01*
X19613812Y-27483494D01*
X19600638Y-27394679D01*
X19596232Y-27305000D01*
X19600638Y-27215321D01*
X19613812Y-27126506D01*
X19635629Y-27039410D01*
X19665877Y-26954872D01*
X19704266Y-26873705D01*
X19750426Y-26796693D01*
X19803912Y-26724575D01*
X19864209Y-26658047D01*
X19930737Y-26597750D01*
X20002854Y-26544264D01*
X20079867Y-26498105D01*
X20161033Y-26459716D01*
X20245572Y-26429467D01*
X20332668Y-26407651D01*
X20421483Y-26394476D01*
X20511161Y-26390071D01*
X20511294Y-26390071D01*
X22033706Y-26390071D01*
X22033839Y-26390071D01*
X22123517Y-26394476D01*
X22212332Y-26407651D01*
X22299428Y-26429467D01*
X22383967Y-26459716D01*
X22465133Y-26498105D01*
X22542146Y-26544264D01*
X22614263Y-26597750D01*
X22680791Y-26658047D01*
X22741088Y-26724575D01*
X22794574Y-26796693D01*
X22840734Y-26873705D01*
X22879123Y-26954872D01*
X22909371Y-27039410D01*
X22931188Y-27126506D01*
X22944362Y-27215321D01*
X22948768Y-27305000D01*
X22944362Y-27394679D01*
X22931188Y-27483494D01*
X22909371Y-27570590D01*
X22879123Y-27655128D01*
X22840734Y-27736295D01*
X22794574Y-27813307D01*
X22741088Y-27885425D01*
X22680791Y-27951953D01*
X22614263Y-28012250D01*
X22542146Y-28065736D01*
X22465133Y-28111895D01*
X22383967Y-28150284D01*
X22299428Y-28180533D01*
X22212332Y-28202349D01*
X22123517Y-28215524D01*
X22033839Y-28219929D01*
X22033706Y-28219929D01*
X21892419Y-28219929D01*
X20650994Y-28219929D01*
G37*
G36*
X21085969Y-27039094D02*
G01*
X21132006Y-27144663D01*
X21085969Y-27249438D01*
X20992306Y-27284363D01*
X20792281Y-27284363D01*
X20792281Y-27003375D01*
X20990719Y-27003375D01*
X21085969Y-27039094D01*
G37*
%TO.C,kibuzzard-6495A71A*%
G36*
X9049544Y-28237392D02*
G01*
X8909844Y-28237392D01*
X8909711Y-28237392D01*
X8818321Y-28232902D01*
X8727811Y-28219476D01*
X8639052Y-28197243D01*
X8552901Y-28166418D01*
X8470185Y-28127296D01*
X8391702Y-28080255D01*
X8318208Y-28025749D01*
X8250411Y-27964300D01*
X8188963Y-27896503D01*
X8134456Y-27823009D01*
X8087415Y-27744526D01*
X8086014Y-27741563D01*
X8909844Y-27741563D01*
X8919369Y-27824113D01*
X8961438Y-27868166D01*
X9049544Y-27882850D01*
X9131300Y-27872134D01*
X9173369Y-27839988D01*
X9188450Y-27797919D01*
X9190831Y-27743150D01*
X9190831Y-27563763D01*
X9389269Y-27563763D01*
X9482402Y-27552474D01*
X9573419Y-27518607D01*
X9662319Y-27462163D01*
X9721453Y-27404417D01*
X9768681Y-27329606D01*
X9777864Y-27303413D01*
X9889331Y-27303413D01*
X9894447Y-27414714D01*
X9909792Y-27517901D01*
X9935369Y-27612975D01*
X9969698Y-27692747D01*
X10012363Y-27760613D01*
X10068322Y-27817564D01*
X10142538Y-27864594D01*
X10232033Y-27896145D01*
X10333831Y-27906663D01*
X10435233Y-27896344D01*
X10523538Y-27865388D01*
X10596364Y-27818556D01*
X10651331Y-27760613D01*
X10705505Y-27669034D01*
X10744200Y-27562572D01*
X10767417Y-27441227D01*
X10775156Y-27305000D01*
X10769865Y-27200049D01*
X10753990Y-27098978D01*
X10727531Y-27001788D01*
X10694392Y-26921619D01*
X10652125Y-26852563D01*
X10596563Y-26794222D01*
X10523538Y-26746200D01*
X10434836Y-26714053D01*
X10332244Y-26703337D01*
X10229255Y-26714252D01*
X10139363Y-26746994D01*
X10065345Y-26795809D01*
X10009981Y-26854944D01*
X9966127Y-26931342D01*
X9926638Y-27031950D01*
X9905912Y-27112207D01*
X9893476Y-27202694D01*
X9889331Y-27303413D01*
X9777864Y-27303413D01*
X9799638Y-27241302D01*
X9809956Y-27143075D01*
X9799638Y-27044650D01*
X9768681Y-26955750D01*
X9721453Y-26880344D01*
X9662319Y-26822400D01*
X9573595Y-26765956D01*
X9483108Y-26732089D01*
X9390856Y-26720800D01*
X9051131Y-26720800D01*
X8969375Y-26731516D01*
X8927306Y-26763663D01*
X8912225Y-26805731D01*
X8909844Y-26860500D01*
X8909844Y-27741563D01*
X8086014Y-27741563D01*
X8048294Y-27661811D01*
X8017468Y-27575659D01*
X7995235Y-27486901D01*
X7981810Y-27396390D01*
X7977320Y-27305000D01*
X7981810Y-27213610D01*
X7995235Y-27123099D01*
X8017468Y-27034341D01*
X8048294Y-26948189D01*
X8087415Y-26865474D01*
X8134456Y-26786991D01*
X8188963Y-26713497D01*
X8250411Y-26645700D01*
X8318208Y-26584251D01*
X8391702Y-26529745D01*
X8470185Y-26482704D01*
X8552901Y-26443582D01*
X8639052Y-26412757D01*
X8727811Y-26390524D01*
X8818321Y-26377098D01*
X8909711Y-26372608D01*
X8909844Y-26372608D01*
X10775156Y-26372608D01*
X10775289Y-26372608D01*
X10866679Y-26377098D01*
X10957189Y-26390524D01*
X11045948Y-26412757D01*
X11132099Y-26443582D01*
X11214815Y-26482704D01*
X11293298Y-26529745D01*
X11366792Y-26584252D01*
X11434589Y-26645700D01*
X11496037Y-26713497D01*
X11550544Y-26786991D01*
X11597585Y-26865474D01*
X11636706Y-26948189D01*
X11667532Y-27034341D01*
X11689765Y-27123099D01*
X11703190Y-27213610D01*
X11707680Y-27305000D01*
X11703190Y-27396390D01*
X11689765Y-27486901D01*
X11667532Y-27575659D01*
X11636706Y-27661811D01*
X11597585Y-27744526D01*
X11550544Y-27823009D01*
X11496037Y-27896503D01*
X11434589Y-27964300D01*
X11366792Y-28025748D01*
X11293298Y-28080255D01*
X11214815Y-28127296D01*
X11132099Y-28166418D01*
X11045948Y-28197243D01*
X10957189Y-28219476D01*
X10866679Y-28232902D01*
X10775289Y-28237392D01*
X10775156Y-28237392D01*
X10333831Y-28237392D01*
X9049544Y-28237392D01*
G37*
G36*
X10403086Y-27004268D02*
G01*
X10453688Y-27064097D01*
X10484048Y-27163812D01*
X10494169Y-27303413D01*
X10494169Y-27312938D01*
X10483949Y-27449066D01*
X10453291Y-27546300D01*
X10402193Y-27604641D01*
X10330656Y-27624088D01*
X10260509Y-27604095D01*
X10210403Y-27544117D01*
X10180340Y-27444154D01*
X10170319Y-27304206D01*
X10180439Y-27164258D01*
X10210800Y-27064295D01*
X10261402Y-27004318D01*
X10332244Y-26984325D01*
X10403086Y-27004268D01*
G37*
G36*
X9484519Y-27037506D02*
G01*
X9530556Y-27143075D01*
X9484519Y-27247850D01*
X9390856Y-27282775D01*
X9190831Y-27282775D01*
X9190831Y-27001788D01*
X9389269Y-27001788D01*
X9484519Y-27037506D01*
G37*
D11*
%TO.C,JP3*%
X27117500Y-5350000D02*
X27117500Y-7350000D01*
X24317500Y-5350000D02*
X27117500Y-5350000D01*
X24317500Y-7350000D02*
X24317500Y-5350000D01*
X27117500Y-7350000D02*
X24317500Y-7350000D01*
%TO.C,JP2*%
X22037500Y-5350000D02*
X22037500Y-7350000D01*
X19237500Y-5350000D02*
X22037500Y-5350000D01*
X19237500Y-7350000D02*
X19237500Y-5350000D01*
X22037500Y-7350000D02*
X19237500Y-7350000D01*
%TO.C,JP1*%
X16957500Y-5350000D02*
X16957500Y-7350000D01*
X14157500Y-5350000D02*
X16957500Y-5350000D01*
X14157500Y-7350000D02*
X14157500Y-5350000D01*
X16957500Y-7350000D02*
X14157500Y-7350000D01*
%TO.C,U1*%
X34607500Y-10355000D02*
X32407500Y-10355000D01*
X34607500Y-4885000D02*
X36807500Y-4885000D01*
X34607500Y-4885000D02*
X31007500Y-4885000D01*
X34607500Y-10355000D02*
X36807500Y-10355000D01*
%TO.C,TP1*%
X42927500Y-10160000D02*
G75*
G03*
X42927500Y-10160000I-700000J0D01*
G01*
%TO.C,SW4*%
X42432500Y-24906000D02*
X42882500Y-25356000D01*
X42882500Y-25356000D02*
X45382500Y-25356000D01*
X45832500Y-24906000D02*
X45382500Y-25356000D01*
X46882500Y-21606000D02*
X46882500Y-23606000D01*
X41382500Y-21606000D02*
X41382500Y-23606000D01*
X42432500Y-20306000D02*
X42882500Y-19856000D01*
X42882500Y-19856000D02*
X45382500Y-19856000D01*
X45832500Y-20306000D02*
X45382500Y-19856000D01*
%TO.C,SW3*%
X31002500Y-24906000D02*
X31452500Y-25356000D01*
X31452500Y-25356000D02*
X33952500Y-25356000D01*
X34402500Y-24906000D02*
X33952500Y-25356000D01*
X35452500Y-21606000D02*
X35452500Y-23606000D01*
X29952500Y-21606000D02*
X29952500Y-23606000D01*
X31002500Y-20306000D02*
X31452500Y-19856000D01*
X31452500Y-19856000D02*
X33952500Y-19856000D01*
X34402500Y-20306000D02*
X33952500Y-19856000D01*
%TO.C,SW2*%
X19572500Y-24906000D02*
X20022500Y-25356000D01*
X20022500Y-25356000D02*
X22522500Y-25356000D01*
X22972500Y-24906000D02*
X22522500Y-25356000D01*
X24022500Y-21606000D02*
X24022500Y-23606000D01*
X18522500Y-21606000D02*
X18522500Y-23606000D01*
X19572500Y-20306000D02*
X20022500Y-19856000D01*
X20022500Y-19856000D02*
X22522500Y-19856000D01*
X22972500Y-20306000D02*
X22522500Y-19856000D01*
%TO.C,SW1*%
X8142500Y-24906000D02*
X8592500Y-25356000D01*
X8592500Y-25356000D02*
X11092500Y-25356000D01*
X11542500Y-24906000D02*
X11092500Y-25356000D01*
X12592500Y-21606000D02*
X12592500Y-23606000D01*
X7092500Y-21606000D02*
X7092500Y-23606000D01*
X8142500Y-20306000D02*
X8592500Y-19856000D01*
X8592500Y-19856000D02*
X11092500Y-19856000D01*
X11542500Y-20306000D02*
X11092500Y-19856000D01*
%TO.C,R4*%
X44369758Y-13447500D02*
X43895242Y-13447500D01*
X44369758Y-14492500D02*
X43895242Y-14492500D01*
%TO.C,R3*%
X32939758Y-13447500D02*
X32465242Y-13447500D01*
X32939758Y-14492500D02*
X32465242Y-14492500D01*
%TO.C,R2*%
X21509758Y-13447500D02*
X21035242Y-13447500D01*
X21509758Y-14492500D02*
X21035242Y-14492500D01*
%TO.C,R1*%
X10079758Y-13447500D02*
X9605242Y-13447500D01*
X10079758Y-14492500D02*
X9605242Y-14492500D01*
%TO.C,J2*%
X53167500Y-12100000D02*
X53167500Y-8220000D01*
X51197500Y-13270000D02*
X48697500Y-13270000D01*
X51197500Y-7050000D02*
X48697500Y-7050000D01*
X48697500Y-13270000D02*
X48697500Y-12220000D01*
X48697500Y-7050000D02*
X48697500Y-8100000D01*
X48697500Y-12220000D02*
X47707500Y-12220000D01*
%TO.C,J1*%
X807500Y-8220000D02*
X807500Y-12100000D01*
X2777500Y-7050000D02*
X5277500Y-7050000D01*
X2777500Y-13270000D02*
X5277500Y-13270000D01*
X5277500Y-7050000D02*
X5277500Y-8100000D01*
X5277500Y-13270000D02*
X5277500Y-12220000D01*
X5277500Y-8100000D02*
X6267500Y-8100000D01*
%TO.C,D4*%
X45617500Y-15775000D02*
X43332500Y-15775000D01*
X45617500Y-17245000D02*
X45617500Y-15775000D01*
X43332500Y-17245000D02*
X45617500Y-17245000D01*
%TO.C,D3*%
X34187500Y-15775000D02*
X31902500Y-15775000D01*
X34187500Y-17245000D02*
X34187500Y-15775000D01*
X31902500Y-17245000D02*
X34187500Y-17245000D01*
%TO.C,D2*%
X22757500Y-15775000D02*
X20472500Y-15775000D01*
X22757500Y-17245000D02*
X22757500Y-15775000D01*
X20472500Y-17245000D02*
X22757500Y-17245000D01*
%TO.C,D1*%
X11327500Y-15775000D02*
X9042500Y-15775000D01*
X11327500Y-17245000D02*
X11327500Y-15775000D01*
X9042500Y-17245000D02*
X11327500Y-17245000D01*
%TD*%
%LPC*%
D12*
%TO.C,REF\u002A\u002A*%
X49162700Y-26035000D03*
X49645974Y-24868274D03*
X49645974Y-27201726D03*
X50812700Y-24385000D03*
D13*
X50812700Y-26035000D03*
D12*
X50812700Y-27685000D03*
X51979426Y-24868274D03*
X51979426Y-27201726D03*
X52462700Y-26035000D03*
%TD*%
%TO.C,REF\u002A\u002A*%
X1537700Y-26035000D03*
X2020974Y-24868274D03*
X2020974Y-27201726D03*
X3187700Y-24385000D03*
D13*
X3187700Y-26035000D03*
D12*
X3187700Y-27685000D03*
X4354426Y-24868274D03*
X4354426Y-27201726D03*
X4837700Y-26035000D03*
%TD*%
%TO.C,REF\u002A\u002A*%
X49162700Y-3175000D03*
X49645974Y-2008274D03*
X49645974Y-4341726D03*
X50812700Y-1525000D03*
D13*
X50812700Y-3175000D03*
D12*
X50812700Y-4825000D03*
X51979426Y-2008274D03*
X51979426Y-4341726D03*
X52462700Y-3175000D03*
%TD*%
%TO.C,REF\u002A\u002A*%
X4354426Y-4341726D03*
X3187700Y-1525000D03*
X2020974Y-2008274D03*
X1537700Y-3175000D03*
X4354426Y-2008274D03*
X2020974Y-4341726D03*
X3187700Y-4825000D03*
D13*
X3187700Y-3175000D03*
D12*
X4837700Y-3175000D03*
%TD*%
D14*
%TO.C,JP3*%
X26442500Y-6350000D03*
D15*
X24992500Y-6350000D03*
%TD*%
D14*
%TO.C,JP2*%
X21362500Y-6350000D03*
D15*
X19912500Y-6350000D03*
%TD*%
D14*
%TO.C,JP1*%
X16282500Y-6350000D03*
D15*
X14832500Y-6350000D03*
%TD*%
D16*
%TO.C,U1*%
X31745000Y-5345000D03*
X31745000Y-5995000D03*
X31745000Y-6645000D03*
X31745000Y-7295000D03*
X31745000Y-7945000D03*
X31745000Y-8595000D03*
X31745000Y-9245000D03*
X31745000Y-9895000D03*
X37470000Y-9895000D03*
X37470000Y-9245000D03*
X37470000Y-8595000D03*
X37470000Y-7945000D03*
X37470000Y-7295000D03*
X37470000Y-6645000D03*
X37470000Y-5995000D03*
X37470000Y-5345000D03*
%TD*%
D17*
%TO.C,TP1*%
X42227500Y-10160000D03*
%TD*%
D18*
%TO.C,SW4*%
X40982500Y-20706000D03*
X47282500Y-20706000D03*
X47282500Y-24506000D03*
X40982500Y-24506000D03*
%TD*%
%TO.C,SW3*%
X29552500Y-20706000D03*
X35852500Y-20706000D03*
X35852500Y-24506000D03*
X29552500Y-24506000D03*
%TD*%
%TO.C,SW2*%
X18122500Y-20706000D03*
X24422500Y-20706000D03*
X24422500Y-24506000D03*
X18122500Y-24506000D03*
%TD*%
%TO.C,SW1*%
X6692500Y-20706000D03*
X12992500Y-20706000D03*
X12992500Y-24506000D03*
X6692500Y-24506000D03*
%TD*%
D19*
%TO.C,R4*%
X44957500Y-13970000D03*
X43307500Y-13970000D03*
%TD*%
%TO.C,R3*%
X33527500Y-13970000D03*
X31877500Y-13970000D03*
%TD*%
%TO.C,R2*%
X22097500Y-13970000D03*
X20447500Y-13970000D03*
%TD*%
%TO.C,R1*%
X10667500Y-13970000D03*
X9017500Y-13970000D03*
%TD*%
D20*
%TO.C,J2*%
X48482500Y-11660000D03*
X48482500Y-10660000D03*
X48482500Y-9660000D03*
X48482500Y-8660000D03*
D21*
X52357500Y-7360000D03*
X52357500Y-12960000D03*
%TD*%
D22*
%TO.C,J1*%
X5492500Y-8660000D03*
X5492500Y-9660000D03*
X5492500Y-10660000D03*
X5492500Y-11660000D03*
D23*
X1617500Y-12960000D03*
X1617500Y-7360000D03*
%TD*%
D24*
%TO.C,D4*%
X44920000Y-16510000D03*
X43345000Y-16510000D03*
%TD*%
%TO.C,D3*%
X33490000Y-16510000D03*
X31915000Y-16510000D03*
%TD*%
%TO.C,D2*%
X22060000Y-16510000D03*
X20485000Y-16510000D03*
%TD*%
%TO.C,D1*%
X10630000Y-16510000D03*
X9055000Y-16510000D03*
%TD*%
M02*
