M48
; DRILL file {KiCad 7.0.7} date 2023 October 15, Sunday 17:36:18
; FORMAT={-:-/ absolute / inch / decimal}
; #@! TF.CreationDate,2023-10-15T17:36:18+02:00
; #@! TF.GenerationSoftware,Kicad,Pcbnew,7.0.7
; #@! TF.FileFunction,Plated,1,2,PTH
FMAT,2
INCH
; #@! TA.AperFunction,Plated,PTH,ViaDrill
T1C0.0157
; #@! TA.AperFunction,Plated,PTH,ComponentDrill
T2C0.0157
; #@! TA.AperFunction,Plated,PTH,ComponentDrill
T3C0.0866
%
G90
G05
T1
X0.1471Y-0.3366
X0.1727Y-0.502
X0.3875Y-0.6
X0.5113Y-0.311
X0.6649Y-0.3169
X0.7298Y-0.1693
X0.7515Y-0.3189
X0.8375Y-0.6
X0.8834Y-0.315
X0.9405Y-0.1831
X0.966Y-0.3287
X1.1078Y-0.3189
X1.1826Y-0.3976
X1.2023Y-0.1693
X1.2875Y-0.6
X1.3625Y-0.315
X1.7375Y-0.6
T2
X0.0605Y-0.125
X0.0605Y-1.025
X0.0796Y-0.0791
X0.0796Y-0.1709
X0.0796Y-0.9791
X0.0796Y-1.0709
X0.1255Y-0.06
X0.1255Y-0.19
X0.1255Y-0.96
X0.1255Y-1.09
X0.1714Y-0.0791
X0.1714Y-0.1709
X0.1714Y-0.9791
X0.1714Y-1.0709
X0.1905Y-0.125
X0.1905Y-1.025
X1.9355Y-0.125
X1.9355Y-1.025
X1.9546Y-0.0791
X1.9546Y-0.1709
X1.9546Y-0.9791
X1.9546Y-1.0709
X2.0005Y-0.06
X2.0005Y-0.19
X2.0005Y-0.96
X2.0005Y-1.09
X2.0464Y-0.0791
X2.0464Y-0.1709
X2.0464Y-0.9791
X2.0464Y-1.0709
X2.0655Y-0.125
X2.0655Y-1.025
T3
X0.1255Y-0.125
X0.1255Y-1.025
X2.0005Y-0.125
X2.0005Y-1.025
T0
M30
