%TF.GenerationSoftware,KiCad,Pcbnew,7.0.1-0*%
%TF.CreationDate,2023-06-23T16:28:58+02:00*%
%TF.ProjectId,io_expander,696f5f65-7870-4616-9e64-65722e6b6963,1.0*%
%TF.SameCoordinates,PX3c8eee0PY3c8eee0*%
%TF.FileFunction,Soldermask,Top*%
%TF.FilePolarity,Negative*%
%FSLAX46Y46*%
G04 Gerber Fmt 4.6, Leading zero omitted, Abs format (unit mm)*
G04 Created by KiCad (PCBNEW 7.0.1-0) date 2023-06-23 16:28:58*
%MOMM*%
%LPD*%
G01*
G04 APERTURE LIST*
G04 Aperture macros list*
%AMRoundRect*
0 Rectangle with rounded corners*
0 $1 Rounding radius*
0 $2 $3 $4 $5 $6 $7 $8 $9 X,Y pos of 4 corners*
0 Add a 4 corners polygon primitive as box body*
4,1,4,$2,$3,$4,$5,$6,$7,$8,$9,$2,$3,0*
0 Add four circle primitives for the rounded corners*
1,1,$1+$1,$2,$3*
1,1,$1+$1,$4,$5*
1,1,$1+$1,$6,$7*
1,1,$1+$1,$8,$9*
0 Add four rect primitives between the rounded corners*
20,1,$1+$1,$2,$3,$4,$5,0*
20,1,$1+$1,$4,$5,$6,$7,0*
20,1,$1+$1,$6,$7,$8,$9,0*
20,1,$1+$1,$8,$9,$2,$3,0*%
%AMFreePoly0*
4,1,6,1.000000,0.000000,0.500000,-0.750000,-0.500000,-0.750000,-0.500000,0.750000,0.500000,0.750000,1.000000,0.000000,1.000000,0.000000,$1*%
%AMFreePoly1*
4,1,6,0.500000,-0.750000,-0.650000,-0.750000,-0.150000,0.000000,-0.650000,0.750000,0.500000,0.750000,0.500000,-0.750000,0.500000,-0.750000,$1*%
G04 Aperture macros list end*
%ADD10C,0.700000*%
%ADD11C,4.400000*%
%ADD12FreePoly0,180.000000*%
%ADD13FreePoly1,180.000000*%
%ADD14RoundRect,0.100000X-0.637500X-0.100000X0.637500X-0.100000X0.637500X0.100000X-0.637500X0.100000X0*%
%ADD15C,1.000000*%
%ADD16R,1.700000X1.000000*%
%ADD17RoundRect,0.200000X0.200000X0.275000X-0.200000X0.275000X-0.200000X-0.275000X0.200000X-0.275000X0*%
%ADD18RoundRect,0.150000X0.625000X-0.150000X0.625000X0.150000X-0.625000X0.150000X-0.625000X-0.150000X0*%
%ADD19RoundRect,0.250000X0.650000X-0.350000X0.650000X0.350000X-0.650000X0.350000X-0.650000X-0.350000X0*%
%ADD20RoundRect,0.150000X-0.625000X0.150000X-0.625000X-0.150000X0.625000X-0.150000X0.625000X0.150000X0*%
%ADD21RoundRect,0.250000X-0.650000X0.350000X-0.650000X-0.350000X0.650000X-0.350000X0.650000X0.350000X0*%
%ADD22RoundRect,0.218750X0.218750X0.256250X-0.218750X0.256250X-0.218750X-0.256250X0.218750X-0.256250X0*%
G04 APERTURE END LIST*
D10*
%TO.C,REF\u002A\u002A*%
X49162700Y-26035000D03*
X49645974Y-24868274D03*
X49645974Y-27201726D03*
X50812700Y-24385000D03*
D11*
X50812700Y-26035000D03*
D10*
X50812700Y-27685000D03*
X51979426Y-24868274D03*
X51979426Y-27201726D03*
X52462700Y-26035000D03*
%TD*%
%TO.C,REF\u002A\u002A*%
X1537700Y-26035000D03*
X2020974Y-24868274D03*
X2020974Y-27201726D03*
X3187700Y-24385000D03*
D11*
X3187700Y-26035000D03*
D10*
X3187700Y-27685000D03*
X4354426Y-24868274D03*
X4354426Y-27201726D03*
X4837700Y-26035000D03*
%TD*%
%TO.C,REF\u002A\u002A*%
X49162700Y-3175000D03*
X49645974Y-2008274D03*
X49645974Y-4341726D03*
X50812700Y-1525000D03*
D11*
X50812700Y-3175000D03*
D10*
X50812700Y-4825000D03*
X51979426Y-2008274D03*
X51979426Y-4341726D03*
X52462700Y-3175000D03*
%TD*%
%TO.C,REF\u002A\u002A*%
X4354426Y-4341726D03*
X3187700Y-1525000D03*
X2020974Y-2008274D03*
X1537700Y-3175000D03*
X4354426Y-2008274D03*
X2020974Y-4341726D03*
X3187700Y-4825000D03*
D11*
X3187700Y-3175000D03*
D10*
X4837700Y-3175000D03*
%TD*%
D12*
%TO.C,JP3*%
X26442500Y-6350000D03*
D13*
X24992500Y-6350000D03*
%TD*%
D12*
%TO.C,JP2*%
X21362500Y-6350000D03*
D13*
X19912500Y-6350000D03*
%TD*%
D12*
%TO.C,JP1*%
X16282500Y-6350000D03*
D13*
X14832500Y-6350000D03*
%TD*%
D14*
%TO.C,U1*%
X31745000Y-5345000D03*
X31745000Y-5995000D03*
X31745000Y-6645000D03*
X31745000Y-7295000D03*
X31745000Y-7945000D03*
X31745000Y-8595000D03*
X31745000Y-9245000D03*
X31745000Y-9895000D03*
X37470000Y-9895000D03*
X37470000Y-9245000D03*
X37470000Y-8595000D03*
X37470000Y-7945000D03*
X37470000Y-7295000D03*
X37470000Y-6645000D03*
X37470000Y-5995000D03*
X37470000Y-5345000D03*
%TD*%
D15*
%TO.C,TP1*%
X42227500Y-10160000D03*
%TD*%
D16*
%TO.C,SW4*%
X40982500Y-20706000D03*
X47282500Y-20706000D03*
X47282500Y-24506000D03*
X40982500Y-24506000D03*
%TD*%
%TO.C,SW3*%
X29552500Y-20706000D03*
X35852500Y-20706000D03*
X35852500Y-24506000D03*
X29552500Y-24506000D03*
%TD*%
%TO.C,SW2*%
X18122500Y-20706000D03*
X24422500Y-20706000D03*
X24422500Y-24506000D03*
X18122500Y-24506000D03*
%TD*%
%TO.C,SW1*%
X6692500Y-20706000D03*
X12992500Y-20706000D03*
X12992500Y-24506000D03*
X6692500Y-24506000D03*
%TD*%
D17*
%TO.C,R4*%
X44957500Y-13970000D03*
X43307500Y-13970000D03*
%TD*%
%TO.C,R3*%
X33527500Y-13970000D03*
X31877500Y-13970000D03*
%TD*%
%TO.C,R2*%
X22097500Y-13970000D03*
X20447500Y-13970000D03*
%TD*%
%TO.C,R1*%
X10667500Y-13970000D03*
X9017500Y-13970000D03*
%TD*%
D18*
%TO.C,J2*%
X48482500Y-11660000D03*
X48482500Y-10660000D03*
X48482500Y-9660000D03*
X48482500Y-8660000D03*
D19*
X52357500Y-7360000D03*
X52357500Y-12960000D03*
%TD*%
D20*
%TO.C,J1*%
X5492500Y-8660000D03*
X5492500Y-9660000D03*
X5492500Y-10660000D03*
X5492500Y-11660000D03*
D21*
X1617500Y-12960000D03*
X1617500Y-7360000D03*
%TD*%
D22*
%TO.C,D4*%
X44920000Y-16510000D03*
X43345000Y-16510000D03*
%TD*%
%TO.C,D3*%
X33490000Y-16510000D03*
X31915000Y-16510000D03*
%TD*%
%TO.C,D2*%
X22060000Y-16510000D03*
X20485000Y-16510000D03*
%TD*%
%TO.C,D1*%
X10630000Y-16510000D03*
X9055000Y-16510000D03*
%TD*%
M02*
